<svg width="64" height="64" viewBox="0 0 64 64" fill="none" xmlns="http://www.w3.org/2000/svg">
<path d="M32.1508 5H13.447C11.6369 5 15.5587 32.7542 23.1006 37.8827C25.0313 39.5721 25.715 45.0223 25.8156 47.5363C24.0056 47.2346 20.0838 47.3553 18.8771 50.2514C17.6704 53.1475 17.1676 57.2905 17.067 59H32.1508M10.7318 10.7318H5C5.20115 15.6592 7.17216 26.9017 13.447 32.4525C15.1363 33.9006 19.3799 35.8715 21.2905 36.676M31.8492 5H50.553C52.3631 5 48.4413 32.7542 40.8994 37.8827C38.9687 39.5721 38.285 45.0223 38.1844 47.5363C39.9945 47.2346 43.9162 47.3553 45.1229 50.2514C46.3296 53.1475 46.8324 57.2905 46.933 59H31.8492M53.2682 10.7318H59C58.7988 15.6592 56.8278 26.9017 50.553 32.4525C48.8637 33.9006 44.6201 35.8715 42.7095 36.676" stroke="#ECD19B" stroke-width="2" stroke-linecap="round"/>
</svg>
