<svg id="picto" width="65" height="64" viewBox="0 0 65 64" fill="none" xmlns="http://www.w3.org/2000/svg">
    <path d="M4.14698 59.0001H23.5C24.5 59.0001 25 59.0001 26.1274 58.4113L62.1243 37.5371C63.8764 36.5737 64.5135 34.1651 63.5578 32.3988L53.5233 14.736C52.4083 12.9697 50.1785 12.3274 48.4264 13.2909L46.1965 14.5754L38.0733 7.34973C36.4805 5.90459 34.0913 6.06516 32.8171 7.67087L31.3836 9.27658L22.6233 5.2623C20.7119 4.45945 18.482 5.2623 17.6856 7.18916L16.5707 9.59772H4.14698C1.75781 9.59772 0.00574492 11.5246 0.00574492 13.7726L0 54.5576C0 56.9662 1.91709 59.0001 4.14698 59.0001ZM49.3821 15.0571C50.1784 14.5754 51.2934 14.8966 51.7712 15.6994L61.8058 33.3622C62.2836 34.1651 61.9651 35.2891 61.1687 35.7708L28.198 54.8788L53.5233 26.1365C54.9568 24.5308 54.7975 22.1223 53.2047 20.8377L47.7893 16.0206L49.3821 15.0571ZM34.2506 8.95544C34.5692 8.6343 35.047 8.31315 35.5248 8.31315C36.0027 8.31315 36.4805 8.47372 36.7991 8.79487L51.9305 22.2828C52.2491 22.604 52.5676 23.0857 52.5676 23.5674C52.5676 24.0491 52.4083 24.5308 52.0898 24.852L27.7202 52.3096V51.6673L42.8516 18.7503C43.648 16.8234 42.8516 14.5754 40.9403 13.7726L33.2949 10.24L34.2506 8.95544ZM19.4377 7.83144C19.9155 6.86801 20.8712 6.54687 21.8269 7.02858L40.1439 15.5389C41.0996 16.0206 41.4181 16.984 40.9403 17.9474L27.7202 46.8502V13.612C27.7202 11.2034 25.8088 9.43715 23.5789 9.43715H18.8006L19.4377 7.83144ZM2.00574 13.612C2.00574 12.3274 3.03204 11.364 4.30626 11.364H23.5789C24.8532 11.364 25.8088 12.3274 25.8088 13.612V54.5576C25.8088 55.8422 24.7742 57.0001 23.5 57.0001H4.14698C2.87276 57.0001 2.00574 55.8422 2.00574 54.5576V13.612Z"
          fill="var(--current-color-1)"/>
    <circle r="3" transform="matrix(1 0 0 -1 19 51.0001)" stroke="var(--current-color-2)" stroke-width="2"/>
</svg>