<svg id="picto" width="64" height="64" viewBox="0 0 64 64" fill="none" xmlns="http://www.w3.org/2000/svg">
    <path d="M56.5 50.6461H55V19.6461H57.5C58.5 19.6431 59 19.1431 59 18.1431C59 17.1431 57.5 16.6431 57.5 16.6431L33.5 5.64534C32.5947 5.25734 31.4053 5.25667 30.5 5.64467L6.5 16.6431C6.5 16.6431 5 17.14 5 18.1431C5 19.1461 5.5 19.6431 6.5 19.6461H9V50.6461H7.5C5.5 50.6461 3.5 51.6461 3.5 54.6461C3.5 57.6461 5.5 58.6461 7.5 58.6461H56.5C58.5 58.6461 60.5 57.6461 60.5 54.6461C60.5 51.6461 58.5 50.6461 56.5 50.6461ZM32 7.64307L55 17.6461H9L32 7.64307ZM52.5 19.6461V50.6461H47.6373L47.5 19.6461H52.5ZM45.5333 19.6461V50.6461H18.5V19.6461H45.5333ZM16.468 19.6461V50.6461H11.5V19.6461H16.468ZM56.5 56.6461H7.5C6 56.6461 5.5 55.6461 5.5 54.6461C5.5 53.6461 6 52.6461 7.5 52.6461H56.5C58 52.6461 58.5 53.6461 58.5 54.6461C58.5 55.6461 58 56.6461 56.5 56.6461Z"
          fill="var(--current-color-1)"/>
    <circle cx="32" cy="13.1431" r="1.5" fill="var(--current-color-2)"/>
</svg>
