<svg id="picto" width="64" height="64" viewBox="0 0 64 64" fill="none" xmlns="http://www.w3.org/2000/svg">
    <path fill-rule="evenodd" clip-rule="evenodd"
          d="M58.3187 19.972C56.7667 19.0667 54.956 18.9374 53.404 19.7134L46.9961 22.9976V17.9976C46.9961 15.9976 44.9961 13.9976 42.9961 13.9976H6.99609C4.99609 13.9976 2.99609 15.9976 2.99609 17.9976V45.9976C2.99609 47.9976 4.99609 49.9976 6.99609 49.9976H42.9961C44.9961 49.9976 46.9961 47.9976 46.9961 45.9976V40.9976L53.404 44.2867C55.8613 45.58 58.9653 44.5454 60.2587 41.9587C60.6467 41.312 60.9961 40.2736 60.9961 39.4976V23.9976C60.9961 22.3162 59.8707 20.8774 58.3187 19.972ZM44.9961 45.9976C44.9961 46.9976 43.9961 47.9976 42.9961 47.9976H6.99609C5.99609 47.9976 4.99609 46.9976 4.99609 45.9976V17.9976C4.99609 16.8336 5.83209 15.9976 6.99609 15.9976H42.9961C43.9961 15.9976 44.9961 16.9976 44.9961 17.9976V45.9976ZM54.4961 42.4976C57.4961 43.4976 58.9961 40.4976 58.9961 39.4976V23.9976C58.9961 23.9976 58.9961 22.9976 57.4961 21.9976C55.9961 20.9976 54.4961 21.4976 54.4961 21.4976L46.9961 24.9976V38.9976L54.4961 42.4976Z"
          fill="var(--current-color-1)"/>
    <path d="M11.4089 19.9976H22.5832C23.3539 19.9976 23.9961 20.6036 23.9961 21.3309V26.6642C23.9961 27.3915 23.3539 27.9976 22.5832 27.9976H11.4089C10.6383 27.9976 9.99609 27.3915 9.99609 26.6642V21.3309C9.99609 20.6036 10.6383 19.9976 11.4089 19.9976Z"
          fill="var(--current-color-2)"/>
</svg>
