<svg id="picto" width="64" height="64" viewBox="0 0 64 64" fill="none" xmlns="http://www.w3.org/2000/svg">
    <path d="M22.3145 38.1355C22.3145 38.5034 22.4371 38.7486 22.4371 39.1165C22.4371 39.4844 22.4371 39.8523 22.3145 40.2202H40.8269C40.8269 39.8523 40.7043 39.4844 40.7043 39.1165C40.7043 38.7486 40.7043 38.5034 40.8269 38.1355H22.3145Z"
          fill="var(--current-color-1)"/>
    <path d="M63.8759 31.7536L63.3855 29.5463C63.1403 28.32 62.1595 27.4616 60.9335 27.2163L56.8878 26.3579L43.1567 25.2542L33.2262 18.2643C32.7358 17.8964 32.0002 17.6511 31.3872 17.6511H14.7138C13.9782 17.6511 13.2426 17.8964 12.6296 18.3869L6.99008 23.1695L2.20873 24.7637C0.860145 25.2542 0.00195312 26.4805 0.00195312 27.8294V36.2909C0.00195312 37.8851 1.22794 39.2341 2.69913 39.4793L5.3963 39.8472C5.3963 39.602 5.3963 39.3567 5.3963 39.1114C5.3963 38.6209 5.3963 38.1304 5.5189 37.6399L3.06692 37.272C2.57653 37.1494 2.20873 36.7815 2.20873 36.1683V27.8294C2.20873 27.3389 2.45393 26.971 2.94432 26.8484L8.09347 25.1316L14.1008 20.1037C14.346 19.9811 14.5912 19.8585 14.8364 19.8585H31.3872C31.6324 19.8585 31.8776 19.9811 32.0002 20.1037L42.4211 27.3389L56.52 28.4426L60.4432 29.1784C60.811 29.301 61.1787 29.5463 61.3013 29.9142L61.7917 32.1215C61.9143 32.3668 61.7917 32.612 61.6691 32.8573L59.4624 37.5173C59.3398 37.8851 58.972 38.1304 58.4816 38.1304H57.6234C57.6234 38.4983 57.746 38.7436 57.746 39.1114C57.746 39.4793 57.746 39.8472 57.6234 40.2151H58.4816C59.7076 40.2151 60.8109 39.4793 61.3013 38.4983L63.5081 33.961C63.9985 33.3478 64.1211 32.4894 63.8759 31.7536Z"
          fill="var(--current-color-1)"/>
    <path d="M13.8549 32.1238C9.93171 32.1238 6.74414 35.3122 6.74414 39.2363C6.74414 43.1605 9.93171 46.3489 13.8549 46.3489C17.778 46.3489 20.9656 43.1605 20.9656 39.2363C20.9656 35.1895 17.778 32.1238 13.8549 32.1238ZM13.8549 44.2642C11.0351 44.2642 8.70572 41.9342 8.70572 39.1137C8.70572 36.2932 11.0351 33.9632 13.8549 33.9632C16.6746 33.9632 18.8814 36.2932 18.8814 39.1137C18.8814 41.9342 16.6746 44.2642 13.8549 44.2642Z"
          fill="var(--current-color-2)"/>
    <path d="M49.1596 32.1238C45.2364 32.1238 42.0488 35.3122 42.0488 39.2363C42.0488 43.1605 45.2364 46.3489 49.1596 46.3489C53.0827 46.3489 56.2703 43.1605 56.2703 39.2363C56.2703 35.1895 53.0827 32.1238 49.1596 32.1238ZM49.1596 44.2642C46.3398 44.2642 44.0104 41.9342 44.0104 39.1137C44.0104 36.2932 46.3398 33.9632 49.1596 33.9632C51.9793 33.9632 54.3087 36.2932 54.3087 39.1137C54.3087 41.9342 51.9793 44.2642 49.1596 44.2642Z"
          fill="var(--current-color-2)"/>
</svg>
