<svg id="picto" width="64" height="64" viewBox="0 0 64 64" fill="none" xmlns="http://www.w3.org/2000/svg">
    <path d="M46.8324 4C41.7124 4 37.6465 8.06588 37.6465 13.1859C37.6465 18.1553 41.7124 22.3718 46.8324 22.3718C51.9524 22.3718 56.0182 18.3059 56.0182 13.1859C56.0182 8.06588 51.9524 4 46.8324 4ZM46.8324 19.9623C43.0677 19.9623 39.9053 16.9506 39.9053 13.0353C39.9053 9.27059 42.9171 6.10824 46.8324 6.10824C50.5971 6.10824 53.6088 9.12 53.6088 13.0353C53.7594 16.9506 50.5971 20.1129 46.8324 19.9623Z"
          fill="var(--current-color-1)"/>
    <path d="M47.5836 24.6309C46.9813 24.6309 46.3789 25.0826 46.3789 25.8356C46.3789 26.4379 46.8307 27.0403 47.5836 27.0403C55.4142 27.3414 61.7389 33.8167 61.7389 41.7979V45.2614H54.8118C54.2095 45.2614 53.6071 45.7132 53.6071 46.4662C53.6071 47.0685 54.0589 47.6709 54.8118 47.6709H62.793C63.3954 47.6709 63.9977 47.2191 63.9977 46.4662V41.7979C63.9977 32.4614 56.7695 24.932 47.5836 24.6309Z"
          fill="var(--current-color-1)"/>
    <path d="M17.1683 4C12.0483 4 7.98242 8.06588 7.98242 13.1859C7.98242 18.1553 12.0483 22.3718 17.1683 22.3718C22.2883 22.3718 26.3542 18.3059 26.3542 13.1859C26.2036 8.06588 22.1377 4 17.1683 4ZM17.1683 19.9623C13.4036 19.9623 10.2412 16.9506 10.2412 13.0353C10.2412 9.12 13.253 6.10824 17.1683 6.10824C20.933 6.10824 23.9448 9.12 23.9448 13.0353C23.9448 16.9506 20.933 19.9623 17.1683 19.9623Z"
          fill="var(--current-color-1)"/>
    <path d="M16.4141 24.6309C7.22823 24.932 0 32.4614 0 41.6473V46.3156C0 46.9179 0.451766 47.5203 1.20471 47.5203H9.18588C9.78824 47.5203 10.3906 47.0685 10.3906 46.3156C10.3906 45.7132 9.93882 45.1109 9.18588 45.1109H2.25882V41.6473C2.25882 33.8167 8.43294 27.1909 16.4141 26.8897C17.0165 26.8897 17.6188 26.4379 17.6188 25.685C17.4682 25.0826 17.0165 24.6309 16.4141 24.6309Z"
          fill="var(--current-color-1)"/>
    <path d="M27.7107 28.8473C26.506 27.6426 24.8496 26.8896 22.8919 26.8896C19.1272 26.8896 15.9648 29.9014 15.9648 33.6661C15.9648 37.4308 18.9766 40.5932 22.8919 40.5932C26.6566 40.5932 29.6684 37.5814 29.819 33.8167C29.6684 31.8591 28.9154 30.2026 27.7107 28.8473ZM22.8919 38.3344C20.3319 38.3344 18.3743 36.2261 18.3743 33.8167C18.3743 31.2567 20.4825 29.2991 22.8919 29.2991C25.4519 29.2991 27.4096 31.4073 27.4096 33.8167C27.4096 36.2261 25.3013 38.3344 22.8919 38.3344Z"
          fill="var(--current-color-2)"/>
    <path d="M22.891 42.8516C15.3616 42.8516 9.1875 49.0257 9.1875 56.5551V57.7598C9.1875 58.3621 9.63926 58.9645 10.3922 58.9645H35.5404C36.1428 58.9645 36.7451 58.5127 36.7451 57.7598V56.5551C36.5946 49.0257 30.4204 42.8516 22.891 42.8516ZM34.3357 56.5551H11.4463C11.4463 50.2304 16.5663 45.1104 22.7404 45.1104H22.891C29.0651 45.1104 34.1851 50.2304 34.3357 56.5551Z"
          fill="var(--current-color-2)"/>
    <path d="M41.1107 26.8896C37.3459 26.8896 34.1836 29.9014 34.1836 33.6661C34.1836 37.4308 37.1954 40.5932 41.1107 40.5932C44.8754 40.5932 48.0377 37.5814 48.0377 33.8167C48.0377 29.9014 44.8754 26.8896 41.1107 26.8896ZM41.1107 38.3344C38.5507 38.3344 36.593 36.2261 36.593 33.8167C36.593 31.2567 38.5507 29.2991 41.1107 29.2991C43.6707 29.2991 45.6283 31.4073 45.6283 33.8167C45.6283 36.2261 43.6707 38.3344 41.1107 38.3344Z"
          fill="var(--current-color-2)"/>
    <path d="M41.1083 42.8516C39.0001 42.8516 36.8918 43.3033 35.0848 44.2069C34.4824 44.508 34.3318 45.261 34.633 45.7127C34.9342 46.3151 35.6871 46.4657 36.1389 46.1645C41.8612 43.4539 48.6377 46.0139 51.3483 51.7363C52.1012 53.2421 52.4024 54.8986 52.4024 56.5551H39.9036C39.3012 56.5551 38.6989 57.0069 38.6989 57.7598C38.6989 58.5127 39.3012 58.9645 39.9036 58.9645H53.6071C54.2095 58.9645 54.8118 58.5127 54.8118 57.7598V56.5551C54.8118 49.0257 48.6377 42.8516 41.1083 42.8516Z"
          fill="var(--current-color-2)"/>
</svg>
