<svg id="picto" width="64" height="64" viewBox="0 0 64 64" fill="none" xmlns="http://www.w3.org/2000/svg">
    <path d="M57.3659 45.8514H39.4819L25.3411 37.4857L24.6479 30.6286L47.6614 28.2971L47.5228 27.2C46.4137 16.2286 36.432 8 24.232 8C23.4002 8 22.4298 8 21.4593 8.13714C8.42756 9.50857 -1.13829 20.2057 0.10943 32.1371L0.248066 33.2343L22.4298 30.9029L25.0638 56H27.282L26.4502 47.9086H55.7023L57.7818 56H60L57.3659 45.8514ZM45.166 26.3771L33.5206 27.6114C32.5502 19.7943 29.7774 13.3486 26.5888 10.1943C35.7388 10.7429 43.3637 17.4629 45.166 26.3771ZM2.05033 30.7657C1.63442 21.9886 7.87302 14.0343 16.8843 11.1543C14.3889 14.8571 13.0025 21.7143 13.6957 29.5314L2.05033 30.7657ZM15.9139 29.3943C14.9434 18.2857 18.1321 10.6057 21.7366 10.1943C25.3411 9.78286 30.0547 16.7771 31.4411 27.7486L15.9139 29.3943ZM26.1729 45.8514L25.6184 40.0914L35.3229 45.8514H26.1729Z"
          fill="var(--current-color-1)"/>
    <path d="M64 58H0V56H63.8849L64 58Z" fill="var(--current-color-2)"/>
</svg>
