<svg id="picto" width="64" height="64" viewBox="0 0 64 64" fill="none" xmlns="http://www.w3.org/2000/svg">
    <path d="M55 34C54.2601 34 54 34.3834 54 35V59.0424H10V35C10 34.2601 9.61659 34 9 34C8.26009 34 8 34.3834 8 35V60C8 60.7399 8.38341 61 9 61H55C55.7399 61 56 60.6166 56 60V35C56 34.2601 55.6166 34 55 34Z"
          fill="var(--current-color-1)"/>
    <path fill-rule="evenodd" clip-rule="evenodd"
          d="M61.2297 32.7703C61.6505 32.3495 61.638 31.6634 61.2021 31.2582L54.4785 25.0071V10.2089C54.4785 9.46902 53.9852 8.97574 53.2453 8.97574H43.2565C42.5166 8.97574 42.0233 9.59233 42.0233 10.2089V13.0452L33.0001 4.00004C32.5068 3.50677 31.4934 3.50685 31.0001 4.00012L2.77717 31.2497C2.35023 31.6619 2.34438 32.3441 2.7642 32.7636V32.7636C3.1734 33.1725 3.8347 33.1782 4.25098 32.7766L32.0009 6.00002L59.7574 32.7835C60.1697 33.1812 60.8246 33.1754 61.2297 32.7703V32.7703ZM43.9781 15L53 23.652V11H44L43.9781 15Z"
          fill="var(--current-color-1)"/>
    <path d="M40.002 56C40.7419 56 41.002 55.6166 41.002 55V42C41.002 41 40.002 40 39.002 40H25.002C24.002 40 23.002 41 23.002 42C23.002 42 23.002 54.2601 23.002 55C23.002 55.7399 23.4497 56 24.002 56C24.5542 56 25.002 55.6166 25.002 55C25.002 54.3834 25.002 42 25.002 42H39.002V55C39.002 55.6166 39.262 56 40.002 56Z"
          fill="var(--current-color-2)"/>
</svg>
