<svg id="picto" width="64" height="64" viewBox="0 0 64 64" fill="none" xmlns="http://www.w3.org/2000/svg">
    <path d="M60.5478 3.39961C56.8418 -0.307468 43.0156 3.54219 33.8931 12.6673C31.1848 15.3763 28.6191 18.3705 26.3385 21.3647L12.0846 27.2105C11.9421 27.353 11.657 27.4956 11.657 27.6382L2.1069 42.4665C1.96437 42.7517 1.96437 43.1794 2.1069 43.6072C2.24944 43.8923 2.67706 44.0349 2.96214 44.0349H3.10467L14.0802 41.8962C14.0802 42.0388 13.9376 42.324 13.7951 42.6091C13.6526 42.8943 13.7951 43.1794 13.7951 43.322L10.6592 43.8923C10.5167 43.8923 10.2316 44.0349 10.0891 44.1775L8.37861 45.8885C7.951 46.1736 7.951 46.8865 8.23607 47.3143C8.23607 47.3143 8.23607 47.3142 8.37861 47.4568L16.3608 55.4413C16.6459 55.8691 17.3586 55.8691 17.7862 55.5839C17.7862 55.5839 17.7862 55.5839 17.9287 55.4413L19.6392 53.7304C19.7817 53.5878 19.9243 53.4452 19.9243 53.16L20.4944 50.0233C20.637 50.1659 20.7795 50.1659 20.922 50.1659C21.0646 50.1659 21.2071 50.1659 21.2071 50.1659C21.3497 50.1659 21.6347 50.0233 21.9198 50.0233L19.7817 60.8594C19.6392 61.2871 19.9243 61.7148 20.2093 61.8574C20.3519 62 20.637 62 20.7795 62C20.922 62 21.2071 62 21.3497 61.8574L36.1737 52.3046C36.3162 52.162 36.4588 52.0194 36.6013 51.8768L42.4454 37.6188C45.4387 35.3375 48.432 32.7711 51.1403 30.0621C61.5456 19.6537 63.9688 6.96411 60.5478 3.39961ZM5.10022 41.4685L13.2249 28.9214L23.9153 24.5015C20.3519 29.2066 17.3586 34.1969 14.9354 39.6149L5.10022 41.4685ZM18.0713 52.4471L17.3586 53.16L10.8018 46.6014L11.5145 45.8885L15.6481 45.1756L18.7839 48.3123L18.0713 52.4471ZM34.8908 50.7362L22.3474 58.7207L24.2004 48.8826C29.4744 46.4588 34.6058 43.4646 39.3096 39.9001L34.8908 50.7362ZM49.7149 28.4937C42.4454 35.7653 29.4744 45.033 21.2071 47.8846L20.4944 47.1717L16.6459 43.322L15.9332 42.7517C18.7839 34.4821 28.1915 21.3647 35.3185 14.2357C44.1559 5.39573 56.5568 2.54413 58.9799 4.82541C61.2605 7.10669 59.9777 18.2279 49.7149 28.4937Z"
          fill="var(--current-color-1)"/>
    <path d="M42.4787 15.0969C46.0422 15.0969 48.893 17.9485 48.893 21.513C48.893 25.0775 46.0422 27.9291 42.4787 27.9291C38.9152 27.9291 36.0645 25.0775 36.0645 21.513C36.207 18.0911 39.0578 15.2395 42.4787 15.0969ZM42.4787 26.4301C45.1175 26.4308 47.2597 24.2944 47.26 21.6556C47.2603 19.0166 45.1178 16.8793 42.4787 16.8801C39.8404 16.8808 37.6997 19.0173 37.7 21.6556C37.7003 24.2936 39.8407 26.4293 42.4787 26.4301Z"
          fill="var(--current-color-2)"/>
</svg>
