<svg id="picto" width="64" height="64" viewBox="0 0 64 64" fill="none" xmlns="http://www.w3.org/2000/svg">
    <path d="M54.4569 23.8565C53.5731 22.975 52.2876 22.4141 51.0825 22.4141C48.3509 22.4141 46.1816 24.5777 46.1816 27.2221C46.1816 29.9466 48.3509 32.1102 51.0825 32.1102C53.7338 32.1102 55.903 29.9466 55.9834 27.3022C55.903 26.0201 55.3406 24.7379 54.4569 23.8565ZM53.2517 29.5459C52.6893 30.187 51.8859 30.5076 51.0022 30.5076C49.2346 30.5076 47.7885 29.1453 47.7885 27.3022C47.7885 25.5393 49.1543 24.0969 51.0022 24.0969C51.8056 24.0969 52.6893 24.4174 53.2517 25.0585C53.8141 25.6194 54.2158 26.5009 54.2158 27.3022C54.2158 28.1035 53.8945 28.9049 53.2517 29.5459Z"
          fill="var(--current-color-1)"/>
    <path d="M57.9905 34.6745C57.3478 34.0334 56.464 33.6327 55.4999 33.6327C54.5358 33.6327 53.652 34.0334 53.0093 34.6745L50.7597 36.9983L44.011 30.2671C43.2879 29.5459 42.4042 29.2254 41.4401 29.2254H37.905C38.8691 27.1419 39.1102 25.6194 39.1102 25.2988V2.62104C39.0298 2.22037 38.5478 1.97997 38.1461 2.14023L32.1204 4.06344C31.317 4.30384 30.5136 4.46411 29.7101 4.46411C27.7819 4.38397 26.0144 3.90317 24.4076 3.10184L22.3187 2.0601C22.0777 1.97997 21.8366 1.97997 21.676 2.0601L19.5871 3.10184C17.8999 3.90317 16.1324 4.38397 14.2845 4.46411C13.4811 4.46411 12.6777 4.38397 11.8742 4.14357L5.92895 2.0601H5.76826C5.28621 2.14023 4.96484 2.46077 4.96484 2.86144V25.2988C5.04519 26.2604 6.25031 34.5943 19.346 42.207L21.5956 43.5693C21.676 43.6494 21.8366 43.6494 21.9973 43.6494C22.0777 43.6494 22.3187 43.5693 22.399 43.5693L24.6486 42.207C26.4161 41.1653 28.023 40.1235 29.3888 39.0818C30.7546 40.1235 32.7631 40.0434 34.0486 38.7613L36.5392 36.197H38.2264L28.5854 45.8932H23.5238C21.5956 45.8932 20.0691 47.4157 20.0691 49.3389C20.0691 51.3422 21.5956 52.8648 23.5238 52.8648H31.1563C31.2366 52.8648 31.558 52.8648 31.7187 52.6244L36.5392 47.8164L39.5119 50.7813V58.5543C39.5922 60.4775 41.1187 62 42.9666 62H43.0469C44.011 62 44.8948 61.5993 45.5375 60.9583C46.1802 60.2371 46.582 59.3556 46.5016 58.4741V48.1369C46.5016 48.0568 46.5016 47.7362 46.2606 47.576L42.8862 44.2104L45.4572 41.6461L48.1888 44.4508C49.5546 45.813 51.8042 45.813 53.17 44.4508L57.9905 39.6427C58.6332 39.0017 59.0349 38.1202 59.0349 37.1586C58.9546 36.197 58.6332 35.3957 57.9905 34.6745ZM29.0674 33.793C27.9426 34.9149 27.7819 36.5977 28.4247 37.8798C27.1392 38.8414 25.6931 39.803 24.0059 40.7646L22.0777 41.8865L20.2298 40.7646C13.9631 37.1586 10.5084 33.5526 8.66057 30.5876C6.81271 27.6227 6.57168 25.5392 6.49134 25.0584V3.90317L11.4725 5.50584C12.4366 5.74624 13.4007 5.90651 14.4452 5.90651C16.5341 5.82638 18.5426 5.34558 20.3905 4.38397L22.0777 3.5025L23.8452 4.38397C25.6931 5.34558 27.7016 5.90651 29.7905 5.90651C30.8349 5.90651 31.7187 5.82638 32.6828 5.42571L37.664 3.90317V24.818H37.5837V25.0584C37.5837 25.379 37.3426 26.9816 36.2178 29.1452H35.5751C33.9683 29.4658 32.5221 30.2671 31.3973 31.389L29.0674 33.793ZM56.7854 38.5209L51.9649 43.3289C51.2418 44.0501 50.0367 44.0501 49.3939 43.3289L46.0196 39.9633C45.6982 39.6427 45.1358 39.6427 44.8144 39.9633L41.0384 43.7296C40.8777 43.8898 40.7973 44.0501 40.7973 44.2905C40.7973 44.5309 40.8777 44.6912 41.0384 44.8514L44.8144 48.6177V58.4741C44.8144 59.4357 44.011 60.2371 43.0469 60.2371C42.0025 60.2371 41.199 59.4357 41.1187 58.4741V50.4608C41.1187 50.3005 41.1187 50.0601 40.8777 49.8998L37.1016 46.1336C36.9409 45.9733 36.7802 45.8932 36.5392 45.8932C36.2982 45.8932 36.1375 45.9733 35.8965 46.1336L30.7546 51.2621H23.5238C22.5597 51.2621 21.7563 50.4608 21.7563 49.4992C21.7563 48.5376 22.5597 47.6561 23.5238 47.576H28.9067C28.9871 47.576 29.3084 47.576 29.4691 47.3356L40.8777 35.9566C41.0384 35.7963 41.1187 35.5559 41.1187 35.3957C41.1187 34.9149 40.717 34.5943 40.3153 34.5943H36.2178C36.1375 34.5943 35.8161 34.5943 35.6555 34.8347L32.8435 37.6394L32.7631 37.7195C32.2007 38.2805 31.3973 38.3606 30.7546 38.0401C30.5136 37.9599 30.3529 37.7997 30.1922 37.6394C29.9512 37.399 29.8708 37.1586 29.7905 36.9182C29.6298 36.2771 29.7905 35.5559 30.2725 35.0751L32.6828 32.6711C33.4059 31.9499 34.37 31.3088 35.3341 30.9883C35.4948 30.9082 35.7358 30.9082 35.8965 30.828H41.4401C42.0025 30.828 42.5649 30.9883 42.9666 31.389L50.358 38.7613C50.5187 38.9215 50.7597 39.0017 50.9204 39.0017C51.0008 39.0017 51.3221 39.0017 51.4828 38.7613L54.3751 35.8765C54.6965 35.5559 55.1785 35.3957 55.6606 35.3957C56.1426 35.3957 56.6247 35.6361 56.9461 35.9566C57.2674 36.2771 57.5085 36.7579 57.5085 37.2387C57.3478 37.7195 57.1067 38.2003 56.7854 38.5209Z"
          fill="var(--current-color-1)"/>
    <path d="M22.3215 7.18864C22.0805 7.10851 21.8395 7.02838 21.5984 7.10851C20.2326 7.82971 15.4121 9.99332 10.5112 8.39065C10.4309 8.39065 10.2702 8.31051 10.2702 8.31051C9.78816 8.31051 9.4668 8.63105 9.4668 9.11185V24.7379C9.4668 25.0584 10.2702 31.6294 21.5984 38.2003C21.6788 38.2805 21.8395 38.2805 22.0001 38.2805C22.4822 38.2805 22.8036 37.9599 22.8036 37.4791V7.82971C22.7232 7.50918 22.5625 7.34891 22.3215 7.18864ZM21.1967 36.197C12.0377 30.5075 10.9933 25.1386 10.9933 24.6578V10.0735C14.448 10.7947 17.983 10.394 21.1967 8.95158V36.197Z"
          fill="var(--current-color-2)"/>
</svg>
