<svg id="picto" width="64" height="64" viewBox="0 0 64 64" fill="none" xmlns="http://www.w3.org/2000/svg">
    <path d="M47.2632 4.17395H16.7368C14.1053 4.17395 12 6.24956 12 8.84406V55.156C12 57.7505 14.1053 59.8261 16.7368 59.8261H47.2632C49.8947 59.8261 52 57.7505 52 55.156V8.71434C52 6.24956 49.8947 4.17395 47.2632 4.17395ZM49.6316 55.156C49.6316 56.4533 48.5789 57.4911 47.2632 57.4911H16.7368C15.4211 57.4911 14.3684 56.4533 14.3684 55.156V8.71434C14.3684 7.41708 15.4211 6.37928 16.7368 6.37928H47.2632C48.5789 6.37928 49.6316 7.41708 49.6316 8.71434V55.156Z"
          fill="var(--current-color-1)"/>
    <path d="M19.9766 45.9922H45.004C45.5541 45.9922 46.0001 45.5462 46.0001 44.9961C46.0001 44.4459 45.5541 44 45.004 44H22.0001C21.4478 44 21.0001 43.5522 21.0001 43V20C21.0001 19.4477 20.5524 19 20.0001 19H19.9767C19.4244 19 18.9767 19.4477 18.9767 20L18.9766 44.9922C18.9766 45.5445 19.4243 45.9922 19.9766 45.9922Z"
          fill="var(--current-color-2)"/>
    <path d="M39 26L42.4449 29.8762C42.7504 30.22 43.2775 30.2492 43.6193 29.9413C43.9589 29.6353 43.9866 29.1121 43.6812 28.7719L38.4993 23L33.4993 35L29.1023 29.7767L24.4414 37.1997C24.1784 37.6186 24.2926 38.1705 24.7003 38.4506C25.1353 38.7495 25.7319 38.6232 26.0084 38.1737L29.4993 32.5L33.9993 38L39 26Z"
          fill="var(--current-color-2)"/>
</svg>
