<svg id="picto" width="64" height="64" viewBox="0 0 64 64" fill="none" xmlns="http://www.w3.org/2000/svg">
    <path d="M26.2016 58.292C22.4864 58.292 19.2124 57.4452 16.3796 55.7514C13.57 54.0577 11.3641 51.4942 9.76198 48.061C8.18303 44.6277 7.39355 40.3018 7.39355 35.0833C7.39355 29.8419 8.18303 25.5045 9.76198 22.0713C11.3641 18.638 13.57 16.086 16.3796 14.4151C19.2124 12.7214 22.4864 11.8745 26.2016 11.8745C29.8703 11.8745 33.1095 12.7214 35.9191 14.4151C38.7519 16.086 40.9578 18.638 42.5367 22.0713C44.1389 25.5045 44.94 29.8419 44.94 35.0833C44.94 40.3018 44.1389 44.6277 42.5367 48.061C40.9578 51.4942 38.7519 54.0577 35.9191 55.7514C33.1095 57.4452 29.8703 58.292 26.2016 58.292ZM26.2016 50.8762C29.4524 50.8762 31.9717 49.5258 33.7597 46.825C35.5476 44.1013 36.4415 40.1874 36.4415 35.0833C36.4415 29.9792 35.5476 26.0653 33.7597 23.3416C31.9717 20.595 29.4524 19.2217 26.2016 19.2217C22.9276 19.2217 20.385 20.595 18.5739 23.3416C16.786 26.0653 15.892 29.9792 15.892 35.0833C15.892 40.1874 16.786 44.1013 18.5739 46.825C20.385 49.5258 22.9276 50.8762 26.2016 50.8762Z"
          fill="var(--current-color-1)"/>
    <path fill-rule="evenodd" clip-rule="evenodd"
          d="M48.795 12.8941C48.2517 12.8941 47.7467 12.7774 47.2799 12.5439C46.8202 12.3036 46.451 11.9363 46.1724 11.4419C45.8937 10.9475 45.7544 10.3226 45.7544 9.56731C45.7544 8.82573 45.8937 8.21461 46.1724 7.73396C46.451 7.24644 46.8202 6.88594 47.2799 6.65248C47.7467 6.41216 48.2517 6.29199 48.795 6.29199C49.3593 6.29199 49.8748 6.41216 50.3415 6.65248C50.8082 6.88594 51.1809 7.24644 51.4595 7.73396C51.7381 8.21461 51.8775 8.82573 51.8775 9.56731C51.8775 10.3226 51.7381 10.9475 51.4595 11.4419C51.1809 11.9363 50.8082 12.3036 50.3415 12.5439C49.8748 12.7774 49.3593 12.8941 48.795 12.8941ZM49.2757 10.6076C49.1573 10.7861 48.997 10.8754 48.795 10.8754C48.6 10.8754 48.4467 10.7861 48.3353 10.6076C48.2238 10.4291 48.1681 10.0823 48.1681 9.56731C48.1681 9.07979 48.2238 8.75363 48.3353 8.58884C48.4467 8.41717 48.6 8.33134 48.795 8.33134C48.997 8.33134 49.1573 8.41717 49.2757 8.58884C49.4011 8.75363 49.4638 9.07979 49.4638 9.56731C49.4638 10.0823 49.4011 10.4291 49.2757 10.6076Z"
          fill="var(--current-color-2)"/>
    <path fill-rule="evenodd" clip-rule="evenodd"
          d="M57.3111 20.6705C56.7678 20.6705 56.2628 20.5537 55.796 20.3203C55.3363 20.0799 54.9671 19.716 54.6885 19.2285C54.4098 18.7341 54.2705 18.1127 54.2705 17.3642C54.2705 16.6021 54.4098 15.9772 54.6885 15.4897C54.9671 14.9953 55.3363 14.6314 55.796 14.3979C56.2628 14.1576 56.7678 14.0374 57.3111 14.0374C57.8615 14.0374 58.37 14.1576 58.8367 14.3979C59.3034 14.6314 59.6796 14.9953 59.9652 15.4897C60.2508 15.9772 60.3936 16.6021 60.3936 17.3642C60.3936 18.1127 60.2508 18.7341 59.9652 19.2285C59.6796 19.716 59.3034 20.0799 58.8367 20.3203C58.37 20.5537 57.8615 20.6705 57.3111 20.6705ZM57.7813 18.3736C57.6629 18.5453 57.5062 18.6311 57.3111 18.6311C57.1161 18.6311 56.9594 18.5453 56.8409 18.3736C56.7295 18.2019 56.6738 17.8655 56.6738 17.3642C56.6738 16.863 56.7295 16.5231 56.8409 16.3446C56.9594 16.1592 57.1161 16.0665 57.3111 16.0665C57.5062 16.0665 57.6629 16.1592 57.7813 16.3446C57.8998 16.5231 57.959 16.863 57.959 17.3642C57.959 17.8655 57.8998 18.2019 57.7813 18.3736Z"
          fill="var(--current-color-2)"/>
    <path d="M46.5903 20.4232L56.1511 6.60098H59.4738L49.9444 20.4232H46.5903Z" fill="var(--current-color-2)"/>
</svg>
