<svg id="logo" viewBox="0 0 128 128" fill="none" xmlns="http://www.w3.org/2000/svg">
    <path d="M23.113 65.2325H19.6984L21.517 59.2517L23.113 65.2325ZM17.9274 71.8235L19.0931 67.885H23.6933L24.784 71.8134H29.0366L24.8115 56.8361C24.5614 55.9511 24.0361 55.5426 23.113 55.5426H17.0819V56.9572H17.5822C18.2125 56.9572 18.5527 57.2093 18.5527 57.6909C18.5527 58.0111 18.4827 58.2784 18.2326 59.0071L14 71.8235H17.9274Z"
          fill="var(--current-color-1)"/>
    <path d="M33.957 71.8235V56.7907C33.957 56.0066 33.5018 55.5426 32.7488 55.5426H29.009V56.9572H29.2592C29.8871 56.9572 30.1547 57.227 30.1547 57.8674V71.8235H33.957Z"
          fill="var(--current-color-1)"/>
    <path d="M40.421 71.8235V56.7907C40.421 56.0066 39.9582 55.5426 39.2103 55.5426H35.483V56.9572H35.7332C36.3635 56.9572 36.6312 57.227 36.6312 57.8674V71.8235H40.421Z"
          fill="var(--current-color-1)"/>
    <path d="M47.0524 57.0278C47.0524 55.936 46.2494 55.2628 44.8735 55.2628C43.4977 55.2628 42.6897 55.9234 42.6897 57.0278C42.6897 58.1322 43.5177 58.7928 44.8735 58.7928C46.2294 58.7928 47.0524 58.1372 47.0524 57.0278ZM46.9798 71.8235V60.8654C46.9798 60.0837 46.5195 59.6223 45.7666 59.6223H42.0869V61.0091H42.3045C42.9324 61.0091 43.2 61.3016 43.2 61.937V71.8235H46.9798Z"
          fill="var(--current-color-1)"/>
    <path d="M55.305 65.9637V68.3364C54.6721 68.9945 53.9016 69.3979 53.2487 69.3979C52.5958 69.3979 52.3282 69.0601 52.3282 68.1372C52.3282 67.2144 52.5183 66.8235 53.1987 66.5588C53.8762 66.2808 54.5828 66.0812 55.305 65.9637ZM50.1919 63.1145C51.3539 62.5334 52.6253 62.2085 53.9216 62.1614C54.9423 62.1614 55.305 62.527 55.305 63.5936V63.8659C53.7565 64.118 53.2712 64.2139 52.3982 64.408C51.9092 64.5166 51.4305 64.6676 50.9674 64.8593C49.4389 65.4771 48.716 66.6672 48.716 68.4953C48.716 70.815 49.7166 71.9345 51.7653 71.9345C52.4622 71.9374 53.1533 71.8064 53.8016 71.5487C54.3896 71.2789 54.9363 70.9257 55.425 70.4998V70.6712C55.425 71.4277 55.8103 71.8135 56.5632 71.8135H60.0278V70.5099H59.8577C59.2048 70.5099 58.9647 70.2149 58.9647 69.4357V63.6238C58.9647 60.525 57.8965 59.4458 54.8172 59.4458C53.841 59.4507 52.8684 59.5666 51.9179 59.7913C51.0199 59.9931 50.155 60.3225 49.3489 60.7696L50.1919 63.1145Z"
          fill="var(--current-color-1)"/>
    <path d="M65.5436 71.8235V63.5734C66.1765 62.8649 66.8269 62.5447 67.5773 62.5447C68.3803 62.5447 68.5779 62.8649 68.5779 64.0928V71.8235H72.3552V63.528C72.3552 61.5966 72.2176 60.9864 71.6048 60.3308C71.1045 59.7635 70.3215 59.4761 69.3234 59.4761C67.845 59.4761 66.8044 59.9375 65.406 61.2562V60.7696C65.406 60.0131 65.0133 59.6223 64.2403 59.6223H60.6507V61.0091H60.8683C61.4962 61.0091 61.7663 61.3016 61.7663 61.937V71.8235H65.5436Z"
          fill="var(--current-color-1)"/>
    <path d="M83.5595 69.2617H78.2888L83.3293 62.1387V59.6173H75.4246C74.529 59.6173 74.1163 60.0308 74.1163 60.936V63.1548H75.5196V62.938C75.5196 62.3757 75.8098 62.1084 76.4127 62.1084H79.1293L74.0362 69.3122V71.8336H83.542L83.5595 69.2617Z"
          fill="var(--current-color-1)"/>
    <path d="M103.389 71.5134V57.7186C103.389 56.6193 103.001 56.2486 101.943 56.2486H98.7383V57.7993H98.9309C99.6613 57.7993 99.8039 57.9657 99.8039 58.8533V71.5134H103.389ZM104.97 71.5134H108.527V60.7695C108.527 59.6904 108.114 59.3021 107.071 59.3021H104.97V71.5134ZM98.233 71.5134V59.3122H96.1242C95.0811 59.3122 94.6733 59.7005 94.6733 60.7796V71.5134H98.233ZM111.894 64.5013C111.894 70.5804 107.556 75.0005 101.6 75.0005C95.6439 75.0005 91.2963 70.5804 91.2963 64.5013C91.2963 58.4221 95.6414 54.002 101.6 54.002C107.559 54.002 111.894 58.4473 111.894 64.5013ZM114 64.5013C114 57.353 108.694 52 101.6 52C94.5057 52 89.195 57.353 89.195 64.5013C89.195 71.6495 94.5007 77 101.6 77C108.699 77 114 71.6672 114 64.5013Z"
          fill="var(--current-color-1)"/>
</svg>
