<svg width="128" height="128" viewBox="0 0 128 128" fill="none" xmlns="http://www.w3.org/2000/svg">
<path d="M54.8818 47.553C38.5038 49.2372 21.8774 95.5466 38.9004 98.3335L39.0851 88.4427C30.4025 88.1107 44.2482 52.1115 55.1271 50.7864C70.0351 48.9687 76.1935 87.885 78.8595 95.9851C79.7131 94.088 80.7435 89.7599 81.7436 84.3657C77.3609 66.3574 68.3024 46.1755 54.8802 47.5546L54.8818 47.553Z" fill="url(#paint0_linear_1956_18987)"/>
<path style="mix-blend-mode:multiply" fill-rule="evenodd" clip-rule="evenodd" d="M58.275 51.0179C64.0846 52.6271 68.3793 60.6619 71.5646 69.6073C73.2567 69.117 74.7962 68.2686 76.0952 67.1498C72.2439 58.263 67.1364 50.8697 60.8177 48.3838C59.8429 49.1282 58.9846 50.0169 58.275 51.0179Z" fill="url(#paint1_radial_1956_18987)"/>
<path d="M39.0843 88.442C47.767 88.7741 73.7226 33.6179 86.6017 29.9825C106.558 24.3484 90.091 79.8065 85.5872 95.9844C85.5872 95.9844 79.2886 96.0019 78.8602 95.9844C82.289 88.3594 88.5844 41.5035 84.2176 43.7422C78.4079 46.7198 54.0879 100.821 38.8995 98.3344L39.0843 88.4436V88.442Z" fill="url(#paint2_linear_1956_18987)"/>
<defs>
<linearGradient id="paint0_linear_1956_18987" x1="39.3622" y1="72.9099" x2="81.1751" y2="72.9099" gradientUnits="userSpaceOnUse">
<stop stop-color="#FF9460"/>
<stop offset="0.5" stop-color="#FF6327"/>
<stop offset="1" stop-color="#FF9460"/>
</linearGradient>
<radialGradient id="paint1_radial_1956_18987" cx="0" cy="0" r="1" gradientUnits="userSpaceOnUse" gradientTransform="translate(68.1774 57.993) scale(12.1207 12.0929)">
<stop stop-color="#8C0E00"/>
<stop offset="1" stop-color="#E9000E" stop-opacity="0"/>
</radialGradient>
<linearGradient id="paint2_linear_1956_18987" x1="38.8995" y1="63.9988" x2="96.2511" y2="63.9988" gradientUnits="userSpaceOnUse">
<stop stop-color="#FF9460"/>
<stop offset="1" stop-color="#FF6327"/>
</linearGradient>
</defs>
</svg>
