<svg width="314" height="164" viewBox="0 0 314 164" fill="none" xmlns="http://www.w3.org/2000/svg">
<path d="M25.3816 136.281V124.442H30.7199C31.2725 124.442 31.7821 124.553 32.2487 124.775C32.7154 124.998 33.1151 125.29 33.4495 125.651C33.784 126.012 34.0452 126.424 34.2363 126.885C34.4258 127.346 34.5213 127.816 34.5213 128.294C34.5213 128.694 34.464 129.078 34.3493 129.445C34.2347 129.813 34.0722 130.151 33.8652 130.463C33.6582 130.775 33.4049 131.044 33.1055 131.271C32.8061 131.498 32.4781 131.669 32.1213 131.78L35.0071 136.281H32.8125L30.1513 132.162H27.3166V136.281H25.3816ZM27.3166 130.512H30.704C30.9811 130.512 31.2311 130.453 31.4556 130.337C31.6802 130.22 31.8729 130.059 32.0337 129.853C32.1946 129.647 32.322 129.41 32.4144 129.144C32.5067 128.877 32.5529 128.594 32.5529 128.294C32.5529 127.995 32.4988 127.71 32.3889 127.445C32.279 127.177 32.1357 126.945 31.9573 126.744C31.7789 126.544 31.5719 126.386 31.3346 126.269C31.0989 126.152 30.8537 126.094 30.6004 126.094H27.3166V130.512Z" fill="white"/>
<path d="M40.3963 136.447C39.694 136.447 39.0538 136.327 38.4789 136.089C37.9024 135.85 37.4103 135.525 37.001 135.113C36.5917 134.701 36.2748 134.223 36.0502 133.679C35.8256 133.135 35.7126 132.556 35.7126 131.946C35.7126 131.336 35.8256 130.753 36.0502 130.203C36.2748 129.653 36.5917 129.169 37.001 128.752C37.4103 128.336 37.9024 128.009 38.4789 127.769C39.0554 127.531 39.7004 127.411 40.4138 127.411C41.1273 127.411 41.7532 127.534 42.3233 127.778C42.8935 128.022 43.3808 128.348 43.7837 128.754C44.1866 129.16 44.4956 129.633 44.7074 130.171C44.9208 130.71 45.0275 131.274 45.0275 131.863C45.0275 131.996 45.0211 132.121 45.01 132.238C44.9988 132.354 44.9861 132.451 44.9749 132.53H37.7351C37.7702 132.918 37.8641 133.269 38.0202 133.579C38.1763 133.891 38.3769 134.16 38.6254 134.387C38.8722 134.615 39.1557 134.79 39.4726 134.913C39.7895 135.036 40.1208 135.096 40.4664 135.096C40.7196 135.096 40.9696 135.065 41.2181 135.004C41.4649 134.942 41.6927 134.853 41.9013 134.736C42.1083 134.619 42.2931 134.478 42.4539 134.311C42.6148 134.145 42.7422 133.96 42.8345 133.76L44.459 134.211C44.1484 134.867 43.6324 135.403 42.9126 135.82C42.1927 136.236 41.355 136.445 40.3979 136.445L40.3963 136.447ZM43.1435 131.262C43.1085 130.895 43.0145 130.556 42.8584 130.244C42.7024 129.934 42.5049 129.67 42.2628 129.453C42.0207 129.236 41.7389 129.067 41.4156 128.944C41.0923 128.823 40.7531 128.762 40.3963 128.762C40.0396 128.762 39.702 128.823 39.385 128.944C39.0681 129.067 38.7894 129.236 38.5473 129.453C38.3053 129.67 38.1094 129.934 37.9597 130.244C37.81 130.556 37.7176 130.895 37.6826 131.262H43.1435Z" fill="white"/>
<path d="M45.9958 131.912C45.9958 131.3 46.1057 130.722 46.3239 130.178C46.542 129.634 46.8558 129.156 47.2651 128.745C47.6744 128.333 48.1665 128.009 48.743 127.769C49.3195 127.531 49.9645 127.411 50.6779 127.411C51.6112 127.411 52.4138 127.607 53.0891 128.002C53.7627 128.397 54.2676 128.923 54.6004 129.578L52.7515 130.145C52.5317 129.777 52.2386 129.491 51.8708 129.286C51.5013 129.08 51.0936 128.977 50.6445 128.977C50.2639 128.977 49.9103 129.049 49.5822 129.193C49.2542 129.338 48.9691 129.541 48.727 129.802C48.485 130.063 48.2955 130.372 48.1569 130.727C48.0183 131.084 47.9499 131.477 47.9499 131.91C47.9499 132.344 48.0215 132.725 48.1665 133.086C48.3098 133.447 48.5057 133.76 48.7541 134.028C49.001 134.295 49.2892 134.503 49.6173 134.653C49.9454 134.804 50.2941 134.878 50.662 134.878C50.8929 134.878 51.1223 134.847 51.3532 134.785C51.5841 134.724 51.7943 134.638 51.9838 134.527C52.1734 134.417 52.3406 134.289 52.4855 134.143C52.6288 133.999 52.7355 133.843 52.8056 133.676L54.6721 134.209C54.3727 134.865 53.871 135.402 53.1687 135.818C52.4664 136.235 51.6367 136.444 50.6811 136.444C49.9788 136.444 49.3386 136.321 48.7637 136.076C48.1872 135.832 47.6951 135.502 47.2858 135.084C46.8765 134.667 46.5596 134.186 46.335 133.642C46.1105 133.098 45.9974 132.519 45.9974 131.909L45.9958 131.912Z" fill="white"/>
<path d="M60.2158 136.447C59.5008 136.447 58.859 136.324 58.2888 136.079C57.7187 135.835 57.2313 135.508 56.8284 135.096C56.4255 134.684 56.1134 134.205 55.8952 133.653C55.6754 133.103 55.5671 132.528 55.5671 131.927C55.5671 131.326 55.677 130.752 55.8952 130.201C56.1134 129.651 56.4271 129.17 56.8364 128.758C57.2457 128.348 57.7346 128.019 58.3047 127.775C58.8749 127.531 59.5119 127.408 60.2142 127.408C60.9165 127.408 61.5536 127.531 62.1237 127.775C62.6939 128.019 63.1828 128.348 63.5921 128.758C64.0014 129.17 64.3151 129.65 64.5333 130.201C64.7515 130.752 64.8613 131.326 64.8613 131.927C64.8613 132.528 64.7515 133.103 64.5333 133.653C64.3135 134.203 63.9998 134.684 63.5921 135.096C63.1828 135.508 62.6939 135.835 62.1237 136.079C61.5536 136.324 60.9165 136.447 60.2142 136.447H60.2158ZM57.5196 131.946C57.5196 132.368 57.5881 132.757 57.7266 133.112C57.8652 133.468 58.0547 133.776 58.2968 134.037C58.5388 134.298 58.8239 134.504 59.152 134.653C59.4801 134.802 59.8352 134.878 60.2142 134.878C60.5933 134.878 60.9484 134.802 61.2765 134.653C61.6045 134.504 61.8896 134.295 62.1317 134.028C62.3737 133.76 62.5633 133.45 62.7018 133.094C62.8404 132.739 62.9089 132.35 62.9089 131.927C62.9089 131.505 62.8404 131.13 62.7018 130.768C62.5633 130.407 62.3737 130.094 62.1317 129.826C61.8896 129.559 61.6045 129.352 61.2765 129.201C60.9484 129.05 60.5933 128.977 60.2142 128.977C59.8352 128.977 59.4976 129.055 59.1695 129.21C58.8414 129.365 58.5564 129.578 58.3143 129.843C58.0722 130.111 57.8795 130.424 57.7362 130.785C57.5913 131.147 57.5196 131.534 57.5196 131.944V131.946Z" fill="white"/>
<path d="M80.3809 136.281H78.4794V131.395C78.4794 130.584 78.3408 129.989 78.0653 129.611C77.7882 129.233 77.3853 129.044 76.855 129.044C76.3246 129.044 75.8214 129.236 75.3771 129.619C74.9327 130.003 74.6142 130.5 74.4183 131.111V136.279H72.5168V131.394C72.5168 130.572 72.3783 129.974 72.1027 129.602C71.8256 129.23 71.4291 129.044 70.9099 129.044C70.3907 129.044 69.8731 129.233 69.424 129.611C68.9749 129.989 68.6516 130.484 68.4558 131.096V136.281H66.5542V127.56H68.2822V129.31C68.6389 128.699 69.1087 128.23 69.69 127.901C70.2713 127.574 70.937 127.409 71.6855 127.409C72.434 127.409 73.0248 127.598 73.4564 127.976C73.888 128.354 74.1556 128.826 74.2607 129.393C74.6413 128.749 75.1191 128.258 75.6956 127.918C76.2721 127.578 76.9282 127.409 77.6656 127.409C78.1959 127.409 78.6355 127.506 78.9874 127.701C79.3394 127.896 79.6181 128.155 79.8251 128.476C80.0321 128.798 80.1771 129.173 80.2567 129.601C80.3379 130.029 80.3777 130.481 80.3777 130.959V136.278L80.3809 136.281Z" fill="white"/>
<path d="M96.3989 136.281H94.4974V131.395C94.4974 130.584 94.3589 129.989 94.0834 129.611C93.8063 129.233 93.4033 129.044 92.873 129.044C92.3427 129.044 91.8394 129.236 91.3951 129.619C90.9508 130.003 90.6323 130.5 90.4364 131.111V136.279H88.5349V131.394C88.5349 130.572 88.3963 129.974 88.1208 129.602C87.8437 129.23 87.4471 129.044 86.928 129.044C86.4088 129.044 85.8912 129.233 85.4421 129.611C84.993 129.989 84.6697 130.484 84.4738 131.096V136.281H82.5723V127.56H84.3002V129.31C84.657 128.699 85.1268 128.23 85.708 127.901C86.2893 127.574 86.955 127.409 87.7035 127.409C88.452 127.409 89.0429 127.598 89.4745 127.976C89.9061 128.354 90.1736 128.826 90.2787 129.393C90.6593 128.749 91.1371 128.258 91.7136 127.918C92.2901 127.578 92.9463 127.409 93.6836 127.409C94.214 127.409 94.6535 127.506 95.0055 127.701C95.3574 127.896 95.6361 128.155 95.8431 128.476C96.0502 128.798 96.1951 129.173 96.2747 129.601C96.3559 130.029 96.3958 130.481 96.3958 130.959V136.278L96.3989 136.281Z" fill="white"/>
<path d="M100.995 136.447C100.557 136.447 100.151 136.377 99.7768 136.238C99.4025 136.099 99.0792 135.907 98.8085 135.663C98.5378 135.419 98.3244 135.13 98.1699 134.796C98.0154 134.463 97.9374 134.102 97.9374 133.713C97.9374 133.303 98.0297 132.929 98.2145 132.596C98.3992 132.262 98.6604 131.973 99.0012 131.729C99.3404 131.485 99.7449 131.296 100.21 131.162C100.677 131.028 101.193 130.962 101.756 130.962C102.183 130.962 102.604 130.999 103.018 131.071C103.432 131.143 103.806 131.24 104.14 131.363V130.762C104.14 130.118 103.951 129.614 103.57 129.253C103.19 128.892 102.643 128.711 101.928 128.711C101.444 128.711 100.97 128.797 100.503 128.969C100.036 129.141 99.5554 129.389 99.0601 129.711L98.4725 128.545C99.6366 127.789 100.845 127.411 102.102 127.411C103.358 127.411 104.314 127.717 105.005 128.328C105.696 128.94 106.042 129.817 106.042 130.962V134.114C106.042 134.503 106.209 134.702 106.544 134.715V136.282C106.359 136.316 106.201 136.338 106.069 136.348C105.937 136.359 105.806 136.365 105.68 136.365C105.311 136.365 105.026 136.276 104.825 136.098C104.623 135.92 104.5 135.692 104.454 135.414L104.402 134.864C103.999 135.376 103.5 135.767 102.906 136.039C102.312 136.311 101.677 136.448 100.997 136.448L100.995 136.447ZM101.513 135.096C101.973 135.096 102.408 135.016 102.817 134.855C103.226 134.693 103.545 134.469 103.776 134.18C104.018 133.98 104.139 133.768 104.139 133.547V132.396C103.816 132.274 103.473 132.179 103.11 132.113C102.747 132.047 102.393 132.013 102.048 132.013C101.368 132.013 100.812 132.155 100.38 132.439C99.9488 132.722 99.7322 133.098 99.7322 133.564C99.7322 133.997 99.8994 134.361 100.234 134.656C100.568 134.951 100.994 135.099 101.513 135.099V135.096Z" fill="white"/>
<path d="M116.443 136.281H114.541V131.395C114.541 130.573 114.406 129.976 114.135 129.604C113.865 129.232 113.465 129.046 112.935 129.046C112.657 129.046 112.382 129.097 112.105 129.196C111.828 129.296 111.57 129.438 111.328 129.622C111.086 129.807 110.869 130.022 110.68 130.272C110.49 130.523 110.342 130.798 110.238 131.097V136.282H108.337V127.561H110.065V129.312C110.41 128.723 110.912 128.259 111.568 127.919C112.224 127.58 112.951 127.411 113.745 127.411C114.287 127.411 114.729 127.506 115.075 127.694C115.421 127.883 115.695 128.141 115.895 128.47C116.096 128.797 116.238 129.175 116.319 129.604C116.4 130.032 116.44 130.484 116.44 130.962V136.281H116.443Z" fill="white"/>
<path d="M122.334 136.447C121.724 136.447 121.159 136.327 120.641 136.089C120.122 135.85 119.673 135.525 119.294 135.113C118.913 134.701 118.617 134.221 118.403 133.67C118.19 133.12 118.083 132.528 118.083 131.895C118.083 131.262 118.184 130.709 118.386 130.169C118.587 129.63 118.87 129.155 119.233 128.743C119.596 128.331 120.022 128.007 120.512 127.767C121.001 127.529 121.541 127.409 122.128 127.409C122.855 127.409 123.493 127.578 124.046 127.918C124.599 128.258 125.03 128.688 125.342 129.21V124.108H127.244V134.112C127.244 134.324 127.28 134.474 127.357 134.563C127.432 134.652 127.567 134.702 127.763 134.713V136.281C127.567 136.314 127.409 136.336 127.288 136.347C127.167 136.358 127.067 136.364 126.986 136.364C126.605 136.364 126.295 136.27 126.053 136.081C125.81 135.892 125.678 135.648 125.654 135.348L125.619 134.698C125.285 135.242 124.829 135.671 124.255 135.981C123.678 136.291 123.039 136.448 122.337 136.448L122.334 136.447ZM122.801 134.879C123.078 134.879 123.353 134.835 123.63 134.745C123.907 134.656 124.161 134.535 124.39 134.378C124.621 134.223 124.818 134.039 124.986 133.828C125.153 133.618 125.271 133.389 125.339 133.144V130.861C125.236 130.583 125.089 130.327 124.898 130.094C124.708 129.86 124.492 129.661 124.25 129.493C124.008 129.326 123.751 129.198 123.481 129.109C123.21 129.02 122.936 128.975 122.66 128.975C122.28 128.975 121.931 129.058 121.616 129.226C121.299 129.392 121.025 129.614 120.795 129.893C120.565 130.171 120.383 130.487 120.251 130.842C120.119 131.199 120.052 131.565 120.052 131.943C120.052 132.342 120.123 132.72 120.268 133.077C120.412 133.433 120.611 133.744 120.864 134.011C121.117 134.278 121.409 134.489 121.737 134.644C122.065 134.799 122.42 134.878 122.799 134.878L122.801 134.879Z" fill="white"/>
<path d="M133.756 136.447C133.053 136.447 132.413 136.327 131.838 136.089C131.262 135.85 130.77 135.525 130.36 135.113C129.951 134.701 129.634 134.223 129.41 133.679C129.185 133.135 129.072 132.556 129.072 131.946C129.072 131.336 129.185 130.753 129.41 130.203C129.634 129.653 129.951 129.169 130.36 128.752C130.77 128.336 131.262 128.009 131.838 127.769C132.415 127.531 133.06 127.411 133.773 127.411C134.487 127.411 135.113 127.534 135.683 127.778C136.253 128.022 136.74 128.348 137.143 128.754C137.546 129.16 137.855 129.633 138.067 130.171C138.28 130.71 138.387 131.274 138.387 131.863C138.387 131.996 138.381 132.121 138.369 132.238C138.358 132.354 138.346 132.451 138.334 132.53H131.095C131.13 132.918 131.224 133.269 131.38 133.579C131.536 133.891 131.736 134.16 131.985 134.387C132.232 134.615 132.515 134.79 132.832 134.913C133.149 135.036 133.48 135.096 133.826 135.096C134.079 135.096 134.329 135.065 134.578 135.004C134.824 134.942 135.052 134.853 135.261 134.736C135.468 134.619 135.653 134.478 135.813 134.311C135.974 134.145 136.102 133.96 136.194 133.76L137.818 134.211C137.508 134.867 136.992 135.403 136.272 135.82C135.552 136.236 134.715 136.445 133.757 136.445L133.756 136.447ZM136.503 131.262C136.468 130.895 136.374 130.556 136.218 130.244C136.062 129.934 135.864 129.67 135.622 129.453C135.38 129.236 135.098 129.067 134.775 128.944C134.452 128.823 134.113 128.762 133.756 128.762C133.399 128.762 133.061 128.823 132.745 128.944C132.428 129.067 132.149 129.236 131.907 129.453C131.665 129.67 131.469 129.934 131.319 130.244C131.169 130.556 131.077 130.895 131.042 131.262H136.503ZM134.136 126.311L132.893 125.943L133.877 124.11H135.691L134.135 126.311H134.136Z" fill="white"/>
<path d="M149.342 136.447C148.616 136.447 147.977 136.281 147.425 135.947C146.872 135.614 146.434 135.18 146.111 134.647V139.832H144.209V127.56H145.885V129.127C146.23 128.605 146.676 128.188 147.224 127.876C147.77 127.566 148.39 127.409 149.081 127.409C149.704 127.409 150.274 127.532 150.792 127.777C151.309 128.021 151.76 128.35 152.139 128.76C152.519 129.172 152.816 129.65 153.029 130.194C153.242 130.738 153.349 131.311 153.349 131.912C153.349 132.545 153.25 133.137 153.056 133.687C152.86 134.237 152.583 134.715 152.226 135.12C151.87 135.526 151.446 135.849 150.957 136.087C150.467 136.325 149.928 136.445 149.342 136.445V136.447ZM148.72 134.879C149.122 134.879 149.489 134.796 149.817 134.629C150.145 134.461 150.427 134.24 150.664 133.962C150.9 133.684 151.081 133.367 151.209 133.012C151.336 132.657 151.398 132.29 151.398 131.912C151.398 131.512 151.327 131.134 151.182 130.778C151.037 130.423 150.842 130.111 150.594 129.843C150.346 129.576 150.049 129.365 149.704 129.21C149.358 129.055 148.984 128.977 148.581 128.977C148.339 128.977 148.086 129.021 147.821 129.11C147.557 129.2 147.309 129.322 147.078 129.478C146.847 129.633 146.646 129.814 146.472 130.02C146.3 130.226 146.179 130.45 146.109 130.695V132.978C146.224 133.246 146.374 133.495 146.558 133.728C146.743 133.962 146.947 134.162 147.172 134.329C147.396 134.495 147.641 134.629 147.906 134.729C148.17 134.828 148.441 134.879 148.718 134.879H148.72Z" fill="white"/>
<path d="M157.463 136.447C157.025 136.447 156.619 136.377 156.244 136.238C155.87 136.099 155.547 135.907 155.276 135.663C155.005 135.419 154.792 135.13 154.638 134.796C154.483 134.463 154.405 134.102 154.405 133.713C154.405 133.303 154.497 132.929 154.682 132.596C154.867 132.262 155.128 131.973 155.469 131.729C155.808 131.485 156.213 131.296 156.678 131.162C157.143 131.028 157.66 130.962 158.224 130.962C158.649 130.962 159.071 130.999 159.485 131.071C159.899 131.143 160.274 131.24 160.608 131.363V130.762C160.608 130.118 160.419 129.614 160.038 129.253C159.657 128.892 159.111 128.711 158.396 128.711C157.912 128.711 157.437 128.797 156.971 128.969C156.504 129.141 156.023 129.389 155.528 129.711L154.94 128.545C156.104 127.789 157.313 127.411 158.57 127.411C159.826 127.411 160.782 127.717 161.473 128.328C162.164 128.94 162.51 129.817 162.51 130.962V134.114C162.51 134.503 162.677 134.702 163.011 134.715V136.282C162.827 136.316 162.669 136.338 162.537 136.348C162.405 136.359 162.274 136.365 162.148 136.365C161.779 136.365 161.494 136.276 161.293 136.098C161.091 135.92 160.968 135.692 160.922 135.414L160.869 134.864C160.466 135.376 159.968 135.767 159.374 136.039C158.78 136.311 158.144 136.448 157.464 136.448L157.463 136.447ZM157.98 135.096C158.441 135.096 158.875 135.016 159.285 134.855C159.694 134.693 160.012 134.469 160.243 134.18C160.485 133.98 160.606 133.768 160.606 133.547V132.396C160.283 132.274 159.941 132.179 159.578 132.113C159.215 132.047 158.861 132.013 158.515 132.013C157.835 132.013 157.28 132.155 156.848 132.439C156.416 132.722 156.2 133.098 156.2 133.564C156.2 133.997 156.367 134.361 156.702 134.656C157.036 134.951 157.461 135.099 157.98 135.099V135.096Z" fill="white"/>
<path d="M169.886 129.144C169.149 129.167 168.496 129.33 167.924 129.636C167.354 129.942 166.948 130.378 166.706 130.945V136.281H164.806V127.56H166.569V129.511C166.88 128.911 167.286 128.431 167.787 128.068C168.289 127.707 168.827 127.511 169.404 127.477H169.689C169.764 127.477 169.829 127.483 169.888 127.494V129.144H169.886Z" fill="white"/>
<path d="M177.196 136.281L173.74 127.56H175.693L178.286 134.73L180.894 127.56H182.691L179.235 136.281H177.196Z" fill="white"/>
<path d="M187.788 136.447C187.073 136.447 186.432 136.324 185.861 136.079C185.291 135.835 184.804 135.508 184.401 135.096C183.998 134.684 183.686 134.205 183.468 133.653C183.248 133.103 183.14 132.528 183.14 131.927C183.14 131.326 183.25 130.752 183.468 130.201C183.686 129.651 184 129.17 184.409 128.758C184.818 128.348 185.307 128.019 185.877 127.775C186.447 127.531 187.085 127.408 187.787 127.408C188.489 127.408 189.126 127.531 189.696 127.775C190.266 128.019 190.755 128.348 191.165 128.758C191.574 129.17 191.888 129.65 192.106 130.201C192.324 130.752 192.434 131.326 192.434 131.927C192.434 132.528 192.324 133.103 192.106 133.653C191.888 134.203 191.572 134.684 191.165 135.096C190.755 135.508 190.266 135.835 189.696 136.079C189.126 136.324 188.489 136.447 187.787 136.447H187.788ZM185.092 131.946C185.092 132.368 185.161 132.757 185.299 133.112C185.438 133.468 185.627 133.776 185.869 134.037C186.111 134.298 186.397 134.504 186.725 134.653C187.053 134.802 187.408 134.878 187.787 134.878C188.166 134.878 188.521 134.802 188.849 134.653C189.177 134.504 189.462 134.295 189.704 134.028C189.946 133.76 190.136 133.45 190.274 133.094C190.413 132.739 190.481 132.35 190.481 131.927C190.481 131.505 190.413 131.13 190.274 130.768C190.136 130.407 189.946 130.094 189.704 129.826C189.462 129.559 189.177 129.352 188.849 129.201C188.521 129.05 188.166 128.977 187.787 128.977C187.408 128.977 187.07 129.055 186.742 129.21C186.414 129.365 186.129 129.578 185.887 129.843C185.645 130.111 185.452 130.424 185.309 130.785C185.164 131.147 185.092 131.534 185.092 131.944V131.946Z" fill="white"/>
<path d="M199.037 135.83C198.795 135.941 198.46 136.067 198.035 136.205C197.608 136.344 197.154 136.414 196.67 136.414C196.371 136.414 196.089 136.376 195.823 136.298C195.557 136.221 195.324 136.104 195.124 135.947C194.922 135.792 194.764 135.589 194.649 135.339C194.535 135.088 194.477 134.785 194.477 134.43V128.978H193.284V127.561H194.477V124.694H196.377V127.561H198.347V128.978H196.377V133.847C196.399 134.158 196.501 134.383 196.68 134.521C196.858 134.661 197.079 134.73 197.345 134.73C197.611 134.73 197.863 134.686 198.105 134.596C198.347 134.507 198.526 134.435 198.64 134.38L199.038 135.83H199.037Z" fill="white"/>
<path d="M205.431 129.144C204.694 129.167 204.041 129.33 203.469 129.636C202.899 129.942 202.493 130.378 202.251 130.945V136.281H200.351V127.56H202.114V129.511C202.424 128.911 202.83 128.431 203.332 128.068C203.834 127.707 204.372 127.511 204.948 127.477H205.233C205.308 127.477 205.374 127.483 205.432 127.494V129.144H205.431Z" fill="white"/>
<path d="M210.459 136.447C209.756 136.447 209.116 136.327 208.541 136.089C207.965 135.85 207.473 135.525 207.063 135.113C206.654 134.701 206.337 134.223 206.113 133.679C205.888 133.135 205.775 132.556 205.775 131.946C205.775 131.336 205.888 130.753 206.113 130.203C206.337 129.653 206.654 129.169 207.063 128.752C207.473 128.336 207.965 128.009 208.541 127.769C209.118 127.531 209.763 127.411 210.476 127.411C211.19 127.411 211.815 127.534 212.386 127.778C212.956 128.022 213.441 128.348 213.846 128.754C214.249 129.16 214.558 129.633 214.77 130.171C214.983 130.71 215.09 131.274 215.09 131.863C215.09 131.996 215.083 132.121 215.072 132.238C215.061 132.354 215.048 132.451 215.037 132.53H207.797C207.832 132.918 207.926 133.269 208.083 133.579C208.239 133.891 208.439 134.16 208.688 134.387C208.935 134.615 209.218 134.79 209.535 134.913C209.852 135.036 210.183 135.096 210.529 135.096C210.782 135.096 211.032 135.065 211.28 135.004C211.527 134.942 211.755 134.853 211.964 134.736C212.171 134.619 212.355 134.478 212.516 134.311C212.677 134.145 212.804 133.96 212.897 133.76L214.521 134.211C214.211 134.867 213.695 135.403 212.975 135.82C212.255 136.236 211.417 136.445 210.46 136.445L210.459 136.447ZM213.206 131.262C213.171 130.895 213.077 130.556 212.921 130.244C212.765 129.934 212.567 129.67 212.325 129.453C212.083 129.236 211.801 129.067 211.478 128.944C211.155 128.823 210.815 128.762 210.459 128.762C210.102 128.762 209.764 128.823 209.447 128.944C209.13 129.067 208.852 129.236 208.61 129.453C208.368 129.67 208.172 129.934 208.022 130.244C207.872 130.556 207.78 130.895 207.745 131.262H213.206Z" fill="white"/>
<path d="M225.008 136.447C224.306 136.447 223.666 136.327 223.091 136.089C222.514 135.85 222.022 135.525 221.613 135.113C221.204 134.701 220.887 134.223 220.662 133.679C220.438 133.135 220.325 132.556 220.325 131.946C220.325 131.336 220.438 130.753 220.662 130.203C220.887 129.653 221.204 129.169 221.613 128.752C222.022 128.336 222.514 128.009 223.091 127.769C223.667 127.531 224.312 127.411 225.026 127.411C225.739 127.411 226.365 127.534 226.935 127.778C227.505 128.022 227.991 128.348 228.396 128.754C228.799 129.16 229.108 129.633 229.319 130.171C229.533 130.71 229.639 131.274 229.639 131.863C229.639 131.996 229.633 132.121 229.622 132.238C229.611 132.354 229.598 132.451 229.587 132.53H222.347C222.382 132.918 222.476 133.269 222.632 133.579C222.788 133.891 222.989 134.16 223.237 134.387C223.484 134.615 223.768 134.79 224.085 134.913C224.402 135.036 224.733 135.096 225.078 135.096C225.332 135.096 225.582 135.065 225.83 135.004C226.077 134.942 226.305 134.853 226.513 134.736C226.72 134.619 226.905 134.478 227.066 134.311C227.227 134.145 227.354 133.96 227.447 133.76L229.071 134.211C228.76 134.867 228.244 135.403 227.525 135.82C226.805 136.236 225.967 136.445 225.01 136.445L225.008 136.447ZM227.756 131.262C227.72 130.895 227.626 130.556 227.47 130.244C227.314 129.934 227.117 129.67 226.875 129.453C226.633 129.236 226.351 129.067 226.028 128.944C225.704 128.823 225.365 128.762 225.008 128.762C224.652 128.762 224.314 128.823 223.997 128.944C223.68 129.067 223.401 129.236 223.159 129.453C222.917 129.67 222.721 129.934 222.572 130.244C222.422 130.556 222.33 130.895 222.295 131.262H227.756ZM225.389 126.311L224.145 125.943L225.129 124.11H226.943L225.389 126.311Z" fill="white"/>
<path d="M236.325 136.447C235.599 136.447 234.96 136.281 234.408 135.947C233.855 135.614 233.417 135.18 233.094 134.647V139.832H231.194V127.56H232.869V129.127C233.215 128.605 233.661 128.188 234.209 127.876C234.755 127.566 235.374 127.409 236.066 127.409C236.688 127.409 237.258 127.532 237.776 127.777C238.294 128.021 238.744 128.35 239.123 128.76C239.504 129.172 239.8 129.65 240.013 130.194C240.227 130.738 240.334 131.311 240.334 131.912C240.334 132.545 240.235 133.137 240.041 133.687C239.845 134.237 239.568 134.715 239.211 135.12C238.854 135.526 238.43 135.849 237.942 136.087C237.451 136.325 236.913 136.445 236.327 136.445L236.325 136.447ZM235.702 134.879C236.105 134.879 236.472 134.796 236.8 134.629C237.128 134.461 237.41 134.24 237.647 133.962C237.883 133.684 238.064 133.367 238.192 133.012C238.317 132.657 238.381 132.29 238.381 131.912C238.381 131.512 238.309 131.134 238.165 130.778C238.02 130.423 237.825 130.111 237.577 129.843C237.328 129.576 237.032 129.365 236.687 129.21C236.341 129.055 235.967 128.977 235.564 128.977C235.322 128.977 235.069 129.021 234.804 129.11C234.538 129.2 234.291 129.322 234.06 129.478C233.83 129.633 233.629 129.814 233.455 130.02C233.282 130.226 233.162 130.45 233.092 130.695V132.978C233.207 133.246 233.357 133.495 233.541 133.728C233.726 133.962 233.93 134.162 234.154 134.329C234.379 134.495 234.624 134.629 234.889 134.729C235.153 134.828 235.424 134.879 235.701 134.879H235.702Z" fill="white"/>
<path d="M244.447 136.447C244.009 136.447 243.603 136.377 243.229 136.238C242.855 136.099 242.531 135.907 242.261 135.663C241.99 135.419 241.776 135.13 241.622 134.796C241.467 134.463 241.389 134.102 241.389 133.713C241.389 133.303 241.482 132.929 241.667 132.596C241.851 132.262 242.112 131.973 242.453 131.729C242.793 131.485 243.197 131.296 243.662 131.162C244.127 131.028 244.645 130.962 245.208 130.962C245.634 130.962 246.056 130.999 246.47 131.071C246.884 131.143 247.258 131.24 247.593 131.363V130.762C247.593 130.118 247.403 129.614 247.022 129.253C246.642 128.892 246.095 128.711 245.38 128.711C244.896 128.711 244.422 128.797 243.955 128.969C243.488 129.141 243.008 129.389 242.512 129.711L241.925 128.545C243.089 127.789 244.298 127.411 245.554 127.411C246.811 127.411 247.766 127.717 248.457 128.328C249.148 128.94 249.494 129.817 249.494 130.962V134.114C249.494 134.503 249.661 134.702 249.996 134.715V136.282C249.811 136.316 249.653 136.338 249.521 136.348C249.389 136.359 249.258 136.365 249.133 136.365C248.763 136.365 248.478 136.276 248.277 136.098C248.075 135.92 247.952 135.692 247.906 135.414L247.854 134.864C247.451 135.376 246.952 135.767 246.358 136.039C245.764 136.311 245.129 136.448 244.449 136.448L244.447 136.447ZM244.965 135.096C245.425 135.096 245.86 135.016 246.269 134.855C246.678 134.693 246.997 134.469 247.228 134.18C247.47 133.98 247.591 133.768 247.591 133.547V132.396C247.268 132.274 246.925 132.179 246.562 132.113C246.199 132.047 245.845 132.013 245.5 132.013C244.82 132.013 244.264 132.155 243.832 132.439C243.401 132.722 243.184 133.098 243.184 133.564C243.184 133.997 243.352 134.361 243.686 134.656C244.02 134.951 244.446 135.099 244.965 135.099V135.096Z" fill="white"/>
<path d="M256.871 129.144C256.133 129.167 255.481 129.33 254.909 129.636C254.339 129.942 253.933 130.378 253.69 130.945V136.281H251.791V127.56H253.553V129.511C253.864 128.911 254.27 128.431 254.772 128.068C255.273 127.707 255.812 127.511 256.388 127.477H256.673C256.748 127.477 256.813 127.483 256.872 127.494V129.144H256.871Z" fill="white"/>
<path d="M261.381 136.364C260.771 136.364 260.212 136.244 259.706 136.006C259.199 135.767 258.764 135.442 258.401 135.03C258.038 134.619 257.756 134.146 257.554 133.613C257.352 133.08 257.251 132.519 257.251 131.929C257.251 131.306 257.355 130.719 257.562 130.169C257.769 129.619 258.057 129.141 258.427 128.735C258.795 128.33 259.236 128.007 259.749 127.769C260.261 127.531 260.828 127.411 261.451 127.411C262.177 127.411 262.813 127.577 263.361 127.91C263.907 128.244 264.359 128.677 264.717 129.21V127.56H266.393V136.03C266.393 136.663 266.272 137.226 266.03 137.714C265.788 138.203 265.452 138.618 265.018 138.956C264.587 139.296 264.077 139.554 263.49 139.732C262.902 139.91 262.268 140 261.59 140C260.588 140 259.755 139.835 259.092 139.508C258.43 139.18 257.874 138.721 257.425 138.132L258.497 137.166C258.842 137.633 259.288 137.988 259.836 138.232C260.382 138.477 260.968 138.6 261.59 138.6C261.981 138.6 262.352 138.549 262.704 138.449C263.056 138.349 263.364 138.192 263.628 137.982C263.892 137.77 264.103 137.504 264.259 137.181C264.415 136.858 264.491 136.476 264.491 136.03V134.696C264.168 135.23 263.725 135.641 263.161 135.93C262.598 136.219 262.004 136.364 261.381 136.364ZM262.004 134.879C262.292 134.879 262.567 134.832 262.833 134.738C263.098 134.644 263.343 134.515 263.568 134.354C263.792 134.192 263.985 134.009 264.146 133.803C264.307 133.598 264.423 133.378 264.491 133.144V130.861C264.377 130.583 264.225 130.331 264.042 130.102C263.857 129.874 263.647 129.676 263.411 129.51C263.176 129.344 262.924 129.213 262.66 129.118C262.394 129.024 262.129 128.977 261.865 128.977C261.451 128.977 261.078 129.063 260.75 129.235C260.422 129.407 260.142 129.634 259.913 129.919C259.682 130.201 259.503 130.521 259.378 130.878C259.25 131.234 259.188 131.6 259.188 131.978C259.188 132.377 259.26 132.752 259.405 133.103C259.548 133.453 259.747 133.759 260 134.02C260.253 134.281 260.55 134.49 260.89 134.646C261.23 134.801 261.602 134.879 262.005 134.879H262.004Z" fill="white"/>
<path d="M276.776 136.281H274.875V131.395C274.875 130.573 274.739 129.976 274.469 129.604C274.198 129.232 273.798 129.046 273.268 129.046C272.991 129.046 272.715 129.097 272.438 129.196C272.161 129.296 271.903 129.438 271.661 129.622C271.419 129.805 271.202 130.022 271.013 130.272C270.823 130.523 270.675 130.798 270.572 131.097V136.282H268.672V127.561H270.4V129.312C270.745 128.723 271.247 128.259 271.903 127.919C272.559 127.58 273.285 127.411 274.08 127.411C274.622 127.411 275.064 127.506 275.411 127.694C275.757 127.883 276.031 128.141 276.232 128.47C276.432 128.797 276.574 129.175 276.655 129.604C276.735 130.032 276.776 130.484 276.776 130.962V136.281Z" fill="white"/>
<path d="M283.083 136.447C282.381 136.447 281.74 136.327 281.165 136.089C280.589 135.85 280.097 135.525 279.688 135.113C279.278 134.701 278.961 134.223 278.737 133.679C278.512 133.135 278.399 132.556 278.399 131.946C278.399 131.336 278.512 130.753 278.737 130.203C278.961 129.653 279.278 129.169 279.688 128.752C280.097 128.336 280.589 128.009 281.165 127.769C281.742 127.531 282.387 127.411 283.1 127.411C283.814 127.411 284.44 127.534 285.01 127.778C285.58 128.022 286.066 128.348 286.47 128.754C286.873 129.16 287.182 129.633 287.394 130.171C287.607 130.71 287.714 131.274 287.714 131.863C287.714 131.996 287.708 132.121 287.697 132.238C287.685 132.354 287.673 132.451 287.661 132.53H280.422C280.457 132.918 280.551 133.269 280.707 133.579C280.863 133.891 281.063 134.16 281.312 134.387C281.559 134.615 281.842 134.79 282.159 134.913C282.476 135.036 282.807 135.096 283.153 135.096C283.406 135.096 283.656 135.065 283.905 135.004C284.151 134.942 284.379 134.853 284.588 134.736C284.795 134.619 284.98 134.478 285.14 134.311C285.301 134.145 285.429 133.96 285.521 133.76L287.146 134.211C286.835 134.867 286.319 135.403 285.599 135.82C284.879 136.236 284.042 136.445 283.084 136.445L283.083 136.447ZM285.83 131.262C285.795 130.895 285.701 130.556 285.545 130.244C285.389 129.934 285.191 129.67 284.949 129.453C284.707 129.236 284.425 129.067 284.102 128.944C283.779 128.823 283.44 128.762 283.083 128.762C282.726 128.762 282.389 128.823 282.072 128.944C281.755 129.067 281.476 129.236 281.234 129.453C280.992 129.67 280.796 129.934 280.646 130.244C280.497 130.556 280.404 130.895 280.369 131.262H285.83Z" fill="white"/>
<path d="M285.715 106H28.2847C25.9187 106 24.0007 107.79 24.0007 110C24.0007 112.209 25.9187 114 28.2847 114H285.715C288.081 114 289.999 112.209 289.999 110C289.999 107.79 288.081 106 285.715 106Z" fill="url(#paint0_linear_4675_25738)"/>
<path d="M128.242 61.4982H122.671V90.4793H128.242V61.4982Z" fill="white"/>
<path d="M264.294 63.7528H258.807V82.0122C258.807 87.5875 262.03 90.4793 268.202 90.4793V85.6475C265.929 85.6475 264.294 85.1502 264.294 81.4561V74.1901H268.202V69.4394H264.294V63.7528Z" fill="white"/>
<path d="M139.201 63.7528H133.714V82.0122C133.714 87.5875 136.938 90.4793 143.109 90.4793V85.6475C140.836 85.6475 139.201 85.1502 139.201 81.4561V74.1901H143.109V69.4394H139.201V63.7528Z" fill="white"/>
<path d="M219.452 68.8833C212.764 68.8833 208.608 72.2454 208.608 79.9593C208.608 87.6733 212.637 91.0354 219.452 91.0354C226.266 91.0354 230.168 87.6733 230.168 79.9593C230.168 72.2454 226.053 68.8833 219.452 68.8833ZM219.452 86.3736C216.066 86.3736 214.351 85.2789 214.351 79.9593C214.351 74.6398 216.066 73.588 219.452 73.588C222.837 73.588 224.553 74.6414 224.553 79.9593C224.553 85.2773 222.839 86.3736 219.452 86.3736Z" fill="white"/>
<path d="M181.902 68.8833C175.301 68.8833 171.2 72.2025 171.2 79.9593V97.9994H176.701V88.9349C177.871 90.2362 179.531 91.0354 181.902 91.0354C188.46 91.0354 192.618 87.6733 192.618 79.9593C192.618 72.2454 188.503 68.8833 181.902 68.8833ZM181.781 86.3736C178.314 86.3736 176.559 85.2789 176.559 79.9593C176.559 74.6398 178.314 73.588 181.781 73.588C185.248 73.588 187.003 74.6414 187.003 79.9593C187.003 85.2773 185.248 86.3736 181.781 86.3736Z" fill="white"/>
<path d="M250.741 59.9888C249.112 59.9888 247.79 61.3075 247.79 62.933C247.79 64.5584 249.112 65.8771 250.741 65.8771C252.37 65.8771 253.692 64.5584 253.692 62.933C253.692 61.3075 252.37 59.9888 250.741 59.9888Z" fill="white"/>
<path d="M240.201 69.4394C240.201 66.9067 240.536 65.0843 244.401 65.0843V60.1048C242.278 60.0873 240.163 60.4432 238.621 61.3536C235.994 62.9059 234.715 65.6801 234.715 69.4394H231.552V74.187H234.681V90.4793H240.168V74.187H247.951V90.4793H253.523V69.4394H240.201Z" fill="white"/>
<path d="M109.496 64.8555C109.141 64.0483 108.497 63.381 107.677 63.0521C105.655 62.2386 103.6 63.0966 102.75 64.8555L92.5017 90.4777H98.4308L100.492 85.1041H111.757L113.817 90.4777H119.801L109.574 65.0303L109.498 64.8555H109.496ZM102 81.1701L105.44 72.1993C105.511 72.0118 105.57 71.8179 105.615 71.6193L106.123 69.7826L106.637 71.6241C106.682 71.8179 106.739 72.0086 106.811 72.1945L110.249 81.1701H101.998H102Z" fill="white"/>
<path d="M160.465 69.4283H149.325V74.1885H158.964C160.407 74.1885 161.578 75.3564 161.578 76.7959V77.8366H152.326C148.914 77.8366 146.136 80.695 146.136 84.2143C146.136 86.0082 146.835 87.6384 148.106 88.8046C149.404 89.9931 151.197 90.627 153.225 90.627C153.505 90.627 153.79 90.6159 154.078 90.5905C157.628 90.2886 160.039 89.1017 161.578 87.3587V90.4745H166.997V75.9474C166.997 72.3486 164.073 69.4299 160.465 69.4299V69.4283ZM153.851 86.3085C151.71 86.3085 150.791 85.2932 150.791 84.0427C150.791 82.7923 151.772 81.777 152.984 81.777L161.579 81.7738C161.579 84.378 158.23 86.3085 153.852 86.3085H153.851Z" fill="white"/>
<path d="M201.989 76.7959C201.989 75.3564 203.16 74.1885 204.603 74.1885H207.71V69.4283H203.102C199.495 69.4283 196.57 72.3454 196.57 75.9458V90.4729H201.989V76.7959Z" fill="white"/>
<path d="M284.306 90.4793H271.379V85.7158H284C284.401 85.7158 285.12 85.5538 285.191 84.6672C285.264 83.7552 284.519 83.4453 284.307 83.404L275.424 81.9248C272.365 81.3957 270.342 78.6152 270.583 75.3119C270.796 72.3931 272.912 69.4362 276.547 69.4362H285.5L286.806 74.1965H276.878C276.286 74.1965 275.733 74.4936 275.693 75.2944C275.644 76.2525 276.44 76.4781 276.685 76.5321L285.427 77.9955C288.424 78.469 289.789 81.2352 289.569 84.5718C289.373 87.5097 287.932 90.4825 284.307 90.4825L284.306 90.4793Z" fill="white"/>
<path d="M47.1331 41.9706C30.7552 43.6549 14.1288 89.9642 31.1517 92.7511L31.3365 82.8603C22.6538 82.5283 36.4996 46.5291 47.3784 45.204C62.2864 43.3863 68.4449 82.3027 71.1108 90.4027C71.9645 88.5056 72.9948 84.1775 73.995 78.7833C69.6122 60.775 60.5537 40.5931 47.1316 41.9722L47.1331 41.9706Z" fill="url(#paint1_linear_4675_25738)"/>
<path style="mix-blend-mode:multiply" fill-rule="evenodd" clip-rule="evenodd" d="M50.5264 45.4354C56.3359 47.0445 60.6307 55.0794 63.8159 64.0248C65.5081 63.5345 67.0476 62.6861 68.3465 61.5673C64.4952 52.6805 59.3878 45.2871 53.069 42.8013C52.0942 43.5456 51.236 44.4343 50.5264 45.4354Z" fill="url(#paint2_radial_4675_25738)"/>
<path d="M31.3356 82.8596C40.0183 83.1917 65.974 28.0355 78.853 24.4001C98.8095 18.766 82.3424 74.2241 77.8386 90.402C77.8386 90.402 71.54 90.4195 71.1116 90.402C74.5404 82.777 80.8358 35.9211 76.469 38.1598C70.6593 41.1374 46.3392 95.2386 31.1509 92.752L31.3356 82.8612V82.8596Z" fill="url(#paint3_linear_4675_25738)"/>
<defs>
<linearGradient id="paint0_linear_4675_25738" x1="24.0007" y1="110" x2="289.999" y2="110" gradientUnits="userSpaceOnUse">
<stop offset="0.03" stop-color="#151D55"/>
<stop offset="0.32" stop-color="#009AB2"/>
<stop offset="0.65" stop-color="#D150AF"/>
<stop offset="1" stop-color="#FF6327"/>
</linearGradient>
<linearGradient id="paint1_linear_4675_25738" x1="31.6136" y1="67.3275" x2="73.4264" y2="67.3275" gradientUnits="userSpaceOnUse">
<stop stop-color="#FF9460"/>
<stop offset="0.5" stop-color="#FF6327"/>
<stop offset="1" stop-color="#FF9460"/>
</linearGradient>
<radialGradient id="paint2_radial_4675_25738" cx="0" cy="0" r="1" gradientUnits="userSpaceOnUse" gradientTransform="translate(60.4288 52.4105) scale(12.1207 12.0929)">
<stop stop-color="#8C0E00"/>
<stop offset="1" stop-color="#E9000E" stop-opacity="0"/>
</radialGradient>
<linearGradient id="paint3_linear_4675_25738" x1="31.1509" y1="58.4164" x2="88.5024" y2="58.4164" gradientUnits="userSpaceOnUse">
<stop stop-color="#FF9460"/>
<stop offset="1" stop-color="#FF6327"/>
</linearGradient>
</defs>
</svg>
