<svg id="logo" viewBox="0 0 180 84" fill="none" xmlns="http://www.w3.org/2000/svg">
    <path d="M163.801 12C161.165 12 159.602 13.8627 159.602 15.8923C159.602 17.9219 161.021 19.7846 163.801 19.7846C166.58 19.7846 168 17.9385 168 15.8923C168 13.8739 166.437 12 163.801 12ZM25.4668 12.556L12 45.2398H19.6228L22.2583 38.8844H34.2117L36.8472 45.2398H44.4636L30.97 12.556H25.4668ZM149.344 12.556V21.2409C148.177 20.9272 146.975 20.7666 145.767 20.7631C141.128 20.7631 138.613 22.9874 137.512 24.0494C135.254 26.4241 133.997 29.5922 134.007 32.8853C133.968 40.7421 138.217 43.8561 140.33 44.8347C141.752 45.5063 143.314 45.819 144.881 45.7459C146.649 45.6226 148.334 44.9398 149.696 43.7943L149.911 45.2453H156.515V12.556H149.344ZM123.35 20.7598C122.163 20.7571 121.091 20.9381 120.332 21.2029C119.023 21.6278 117.824 22.3399 116.82 23.2881L116.529 21.33H109.925V45.2398H117.155V28.7475C117.758 28.2138 118.415 27.7461 119.115 27.352C119.738 27.0014 120.437 26.8092 121.15 26.7918C121.863 26.7744 122.57 26.9323 123.209 27.2521C124.475 27.9694 125.059 29.6542 125.059 31.7004V45.2626H132.289V31.1998C132.295 26.0508 130.418 23.7598 129.301 22.7701C127.619 21.2792 125.327 20.7645 123.35 20.7598ZM72.4311 20.7632C69.6539 20.8556 66.9542 21.7113 64.6223 23.2382C63.0209 21.5701 59.0916 20.0456 55.8613 21.1911C54.5534 21.6171 53.3545 22.329 52.3497 23.2762L52.0971 21.3247H45.4546V45.2345H52.6862V28.6813C53.2543 28.1403 53.8996 27.6886 54.6005 27.3412C55.4094 26.9464 57.4074 26.2296 58.8547 27.4585C59.9553 28.4093 60.0209 30.6495 60.0209 31.2834V45.229H67.1751V30.9055C67.1645 30.035 67.0854 29.1667 66.9386 28.3088C67.613 27.8753 68.3241 27.5031 69.0636 27.1967C70.7146 26.4572 72.5854 26.8238 73.2018 27.2576C74.528 28.1917 74.6603 30.3106 74.6603 31.2726V45.2182H81.8145V31.0163C81.8145 28.4029 81.4508 25.1114 79.1285 22.9873C76.8061 20.8632 73.185 20.7632 72.4311 20.7632ZM84.4941 21.3247V35.4646C84.4941 38.117 84.9623 41.0254 86.7674 43.0494C88.5725 45.0734 91.4781 45.8905 94.1527 45.7015C95.3878 45.6124 96.5928 45.2742 97.6964 44.7067C98.4831 44.3231 99.2024 43.8121 99.8257 43.1939L100.134 45.2453H106.738V21.3355L106.761 21.3246H99.529V37.8897C98.936 38.3418 98.3044 38.7398 97.6416 39.0789C96.3702 39.666 94.9276 39.7516 93.597 39.3189C91.946 38.685 91.7203 35.9822 91.7203 34.8423V21.3246L84.4941 21.3247ZM160.207 21.3247V45.2399H167.389V21.3246L160.207 21.3247ZM28.2184 22.4921L32.0706 32.6844H24.3661L28.2184 22.4921ZM146.282 26.8069C146.394 26.8035 146.507 26.8039 146.62 26.808C147.558 26.8184 148.488 26.9854 149.372 27.3021L149.344 38.0114C148.879 38.5804 148.271 39.0125 147.583 39.2625C145.085 40.2967 141.893 39.1346 141.221 34.8141C140.927 33.3 141.047 31.7335 141.568 30.2832C141.916 29.2914 142.552 28.4289 143.393 27.8085C144.234 27.1882 145.241 26.839 146.282 26.8069Z"
          fill="var(--current-color-1)"/>
    <path d="M167.395 51.3956H12.2811V57.551H167.395V51.3956Z" fill="var(--current-color-1)"/>
    <path d="M56.8598 63.5382C56.5945 63.5379 56.3298 63.5645 56.0698 63.6175C55.0022 63.7787 53.9677 64.4236 53.7696 65.5691C53.6904 65.9456 53.7108 66.3366 53.8287 66.7027C53.9466 67.0687 54.158 67.3969 54.4414 67.6542C55.082 68.1092 55.803 68.4358 56.5653 68.6164C56.8955 68.7089 57.2134 68.8413 57.5122 69.0107C57.6571 69.0929 57.7653 69.2281 57.8145 69.3886C57.8637 69.549 57.8502 69.7223 57.7766 69.873C57.617 70.1677 57.1764 70.24 56.8738 70.24C56.4899 70.2577 56.1088 70.1671 55.7731 69.9783C55.5062 69.8303 55.2691 69.6328 55.0745 69.3962L53.6374 70.518C53.9731 70.9558 54.4071 71.3065 54.9036 71.5411C56.7031 72.4419 59.9884 71.9305 59.9553 69.4005C59.9621 69.0305 59.8794 68.6643 59.7144 68.3339C59.5494 68.0034 59.307 67.7187 59.0084 67.5043C58.3205 67.103 57.5792 66.8035 56.8071 66.6149C56.4721 66.535 56.1644 66.3659 55.9161 66.1251C55.8711 66.0606 55.8403 65.9871 55.8256 65.9096C55.811 65.8321 55.8128 65.7523 55.831 65.6756C55.8492 65.5988 55.8834 65.5269 55.9312 65.4645C55.979 65.4022 56.0395 65.3508 56.1085 65.3138C56.4375 65.1611 56.808 65.1255 57.1597 65.2128C57.5293 65.2946 57.8654 65.4886 58.1227 65.7689C58.2108 65.8628 58.2916 65.9634 58.3646 66.0697L59.8016 64.9576C59.6771 64.7719 59.533 64.6003 59.3717 64.4461C58.663 63.86 57.7756 63.5393 56.8598 63.5382ZM55.0745 69.3962L55.1121 69.3669L55.0573 69.3777C55.063 69.3839 55.0687 69.3901 55.0745 69.3962ZM63.8592 63.5382C63.5943 63.538 63.33 63.5645 63.0703 63.6175C62.0026 63.7787 60.9682 64.4236 60.7701 65.5691C60.6907 65.9455 60.711 66.3364 60.8287 66.7025C60.9464 67.0686 61.1576 67.3968 61.4408 67.6542C62.0817 68.1093 62.8031 68.4359 63.5658 68.6164C63.8956 68.709 64.2131 68.8414 64.5116 69.0107C64.6565 69.0929 64.7647 69.2281 64.8139 69.3886C64.8631 69.549 64.8496 69.7223 64.776 69.873C64.6164 70.1732 64.1758 70.24 63.8732 70.24C63.4893 70.258 63.1081 70.1674 62.7725 69.9783C62.5044 69.8296 62.2666 69.631 62.0717 69.3929L60.6379 70.5126C60.9735 70.9504 61.4076 71.3011 61.904 71.5357C63.7036 72.4364 66.9888 71.9251 66.9558 69.3951C66.9626 69.025 66.8799 68.6589 66.7149 68.3285C66.5499 67.998 66.3075 67.7133 66.0089 67.4989C65.3211 67.0974 64.5798 66.7978 63.8076 66.6095C63.4725 66.5298 63.1648 66.3607 62.9165 66.1197C62.8714 66.0551 62.8404 65.9816 62.8257 65.9039C62.8109 65.8263 62.8127 65.7464 62.8309 65.6695C62.8491 65.5926 62.8833 65.5206 62.9313 65.4581C62.9792 65.3957 63.0398 65.3443 63.109 65.3073C63.438 65.1545 63.8087 65.1192 64.1602 65.2074C64.5299 65.2888 64.8661 65.4829 65.1232 65.7635C65.2114 65.8573 65.2922 65.9579 65.3651 66.0643L66.8011 64.9522C66.6766 64.7684 66.5328 64.5987 66.3722 64.4461C65.6632 63.8598 64.7754 63.539 63.8592 63.5382ZM62.0717 69.3929L62.1126 69.3615L62.0577 69.3778C62.0624 69.3829 62.067 69.3879 62.0717 69.3929ZM123.308 63.5708C123.16 63.5763 123.013 63.5886 122.868 63.6066C122.304 63.669 121.764 63.8738 121.299 64.2021C120.833 64.5304 120.457 64.9717 120.205 65.4855C119.821 66.3153 119.656 67.2309 119.725 68.144C119.744 69.027 120.022 69.8844 120.524 70.6071C121.377 71.7415 122.632 72.0753 124.046 71.9864C124.928 71.9545 125.799 71.7894 126.632 71.4966V67.3708H123.484V68.9726L123.496 69.0052H124.634V70.1846C124.138 70.2875 123.625 70.2681 123.138 70.1282C122.802 69.9892 121.8 69.4891 121.932 67.4262C121.928 66.8095 122.154 66.2139 122.565 65.758C122.789 65.5381 123.082 65.4052 123.393 65.3829C123.705 65.3607 124.014 65.4505 124.266 65.6364C124.484 65.8363 124.659 66.0805 124.778 66.3532L126.567 65.43C126.443 65.1535 126.286 64.8937 126.098 64.6568C125.429 63.82 124.343 63.5328 123.308 63.5708ZM47.887 63.712L44.7828 71.7854L46.9626 71.8028L47.5129 70.4127H50.1979L50.716 71.8028H53.0161L49.8905 63.712H47.887ZM68.2381 63.712V71.7854H74.1809V69.9229H70.3835V68.6056H73.2727V66.8983H70.3835V65.5636H73.9337V63.712H68.2381ZM74.8087 63.712V65.5636H77.0486V71.7854H79.2112V65.5636H81.4125V63.712H74.8087ZM84.9015 63.712V71.7854L86.9598 71.791V67.8216L88.6108 71.841H89.4857L91.0818 67.8433V71.791H93.1563V63.712H90.955L89.0944 68.5219L87.1027 63.712H84.9015ZM97.2676 63.712L94.1634 71.7854L96.3486 71.8028L96.8989 70.4127H99.5785L100.095 71.8028H102.396L99.27 63.712H97.2676ZM103.381 63.712V71.7854L105.478 71.791V67.2265L108.306 71.791H110.26V63.712H108.153V67.9876L105.549 63.712H103.381ZM114.349 63.712L111.24 71.7854L113.425 71.8028L113.975 70.4127H116.661L117.178 71.8028H119.478L116.353 63.712H114.349ZM128.179 63.712V71.7854H134.127V69.9229H130.331V68.6056H133.22V66.8983H130.331V65.5636H133.88V63.712H128.179ZM135.465 63.712V71.7854L137.567 71.791V67.8216L139.218 71.841H140.071L141.667 67.8433V71.791H143.742V63.712H141.541L139.658 68.5219L137.667 63.712H135.465ZM145.541 63.712V71.7854H151.49V69.9229H147.688V68.6056H150.577V66.8983H147.688V65.5636H151.237V63.712H145.541ZM152.833 63.712V71.7854L154.93 71.791V67.2265L157.759 71.791H159.712V63.712H157.604V67.9876L155.002 63.712H152.833ZM160.78 63.712V65.5636H163.019V71.7854H165.183V65.5636H167.384V63.712H160.78ZM48.8447 66.2869L49.7088 68.7446H47.9805L48.8447 66.2869ZM98.2253 66.2869L99.0884 68.7446H97.3611L98.2253 66.2869ZM115.307 66.2869L116.171 68.7446H114.443L115.307 66.2869Z"
          fill="var(--current-color-1)"/>
</svg>
