<svg id="logo" viewBox="0 0 128 128" fill="none" xmlns="http://www.w3.org/2000/svg">
    <path d="M14.6963 72.5346C14.6963 72.5346 20.2496 69.8004 23.8425 64.0113C20.1946 57.7912 14.6963 55.5402 14.6963 55.5402C14.6963 55.5402 13.2815 56.6126 12 59.9902C15.5963 60.684 19.0246 62.0489 22.1 64.0113C22.1 64.0113 17.6273 67.2307 12 67.9783C13.0849 71.0436 14.6963 72.5346 14.6963 72.5346Z"
          fill="var(--current-color-1)"/>
    <path d="M33.8281 74.3399C33.8281 74.3399 31.0444 68.8611 25.1504 65.3163C18.8176 68.9153 16.5257 74.3399 16.5257 74.3399C16.5257 74.3399 17.6176 75.7357 21.0564 77C21.7628 73.452 23.1524 70.0696 25.1504 67.0355C25.1504 67.0355 28.4282 71.4482 29.1893 77C32.3101 75.9297 33.8281 74.3399 33.8281 74.3399Z"
          fill="var(--current-color-1)"/>
    <path d="M35.6573 55.5411C35.6573 55.5411 30.104 58.2753 26.511 64.0643C30.159 70.2844 35.6573 72.5355 35.6573 72.5355C35.6573 72.5355 37.072 71.463 38.3536 68.0854C34.7573 67.3916 31.329 66.0267 28.2536 64.0643C28.2536 64.0643 32.7263 60.8449 38.3536 60.0974C37.2687 57.0321 35.6573 55.5411 35.6573 55.5411Z"
          fill="var(--current-color-1)"/>
    <path d="M16.5255 53.6601C16.5255 53.6601 19.3092 59.1389 25.2031 62.6837C31.536 59.0847 33.8279 53.6601 33.8279 53.6601C33.8279 53.6601 32.736 52.2643 29.2971 51C28.5908 54.5481 27.2012 57.9304 25.2031 60.9645C25.2031 60.9645 21.9254 56.5518 21.1643 51C18.0435 52.0703 16.5255 53.6601 16.5255 53.6601Z"
          fill="var(--current-color-1)"/>
    <path d="M51.0259 56.3963C52.5808 56.3963 53.8108 56.8067 54.7158 57.6276C55.629 58.4403 56.0858 59.5334 56.0858 60.9068C56.0858 62.1665 55.6043 63.2149 54.6418 64.052C53.745 64.8322 52.6343 65.2222 51.3097 65.2222H45.3738V56.3963H51.0259ZM51.4331 63.8935C52.3217 63.8935 53.0498 63.6131 53.6174 63.0523C54.1933 62.4835 54.4811 61.7561 54.4811 60.8703C54.4811 59.9275 54.1728 59.1676 53.5557 58.5906C52.9469 58.0136 52.1448 57.7251 51.1493 57.7251H46.8547V63.8935H51.4331Z"
          fill="var(--current-color-1)"/>
    <path d="M69.5303 60.7971C69.5303 62.2437 68.9296 63.414 67.7282 64.308C66.6753 65.0882 65.3672 65.4782 63.804 65.4782C62.2245 65.4782 60.9081 65.0841 59.8547 64.2958C58.6538 63.4018 58.0531 62.2356 58.0531 60.7971C58.0531 59.383 58.6621 58.2209 59.8794 57.3106C60.949 56.5142 62.2571 56.116 63.804 56.116C65.3589 56.116 66.6628 56.5142 67.7161 57.3106C68.9254 58.2209 69.5303 59.383 69.5303 60.7971ZM67.9875 60.7971C67.9875 59.765 67.5433 58.9279 66.6548 58.2859C65.8897 57.7332 64.9393 57.4569 63.804 57.4569C62.5616 57.4569 61.5497 57.7739 60.7679 58.4078C59.9865 59.0335 59.5958 59.83 59.5958 60.7971C59.5958 61.7967 59.9781 62.6054 60.7432 63.223C61.5088 63.8325 62.5286 64.1373 63.804 64.1373C65.0711 64.1373 66.083 63.8285 66.8397 63.2108C67.6048 62.5932 67.9875 61.7886 67.9875 60.7971Z"
          fill="var(--current-color-1)"/>
    <path d="M82.1758 65.2222H80.4603L78.0416 61.8577H73.5247V65.2222H72.0439V56.3963H79.0908C80.0286 56.3963 80.7648 56.6483 81.2994 57.1521C81.8345 57.6479 82.1018 58.3224 82.1018 59.1758C82.1018 59.9234 81.8838 60.5248 81.4475 60.98C81.0447 61.4026 80.4892 61.6708 79.7818 61.7845L82.1758 65.2222ZM78.8686 60.5289C80.0119 60.5289 80.5837 60.0779 80.5837 59.1758C80.5837 58.2086 79.9667 57.7251 78.7327 57.7251H73.5247V60.5289H78.8686Z"
          fill="var(--current-color-1)"/>
    <path d="M94.3788 56.3963L89.5657 65.2222H87.8627L83.0497 56.3963H84.7032L88.714 63.7594L92.7248 56.3963H94.3788Z"
          fill="var(--current-color-1)"/>
    <path d="M105.939 65.2222H104.322L103.285 63.2474H97.2756L96.239 65.2222H94.6222L99.3487 56.3963H101.212L105.939 65.2222ZM102.557 61.9186L100.287 57.652L98.0034 61.9186H102.557Z"
          fill="var(--current-color-1)"/>
    <path d="M116 65.2222H107.62V56.3963H109.101V63.8935H116V65.2222Z" fill="var(--current-color-1)"/>
    <path d="M45.526 71.7238L47.3014 67.857H47.3121L49.0876 71.7238H48.5421L48.1624 70.8786H46.4458L46.0715 71.7238H45.526ZM46.6329 70.4613H47.9752C47.6971 69.845 47.4743 69.3203 47.3068 68.8871C47.1285 69.3344 46.9039 69.8591 46.6329 70.4613Z"
          fill="var(--current-color-1)"/>
    <path d="M51.6053 71.7872C51.206 71.7872 50.8353 71.7133 50.493 71.5653V71.0635C50.8638 71.2431 51.2257 71.3329 51.5786 71.3329C51.8246 71.3329 52.026 71.2854 52.1829 71.1903C52.3398 71.0917 52.4182 70.9578 52.4182 70.7888C52.4182 70.6127 52.3558 70.4683 52.231 70.3556C52.1098 70.243 51.887 70.132 51.5626 70.0228C51.1847 69.8925 50.9084 69.7411 50.7337 69.5685C50.5626 69.3925 50.477 69.1618 50.477 68.8765C50.477 68.5596 50.5964 68.3113 50.8353 68.1317C51.0742 67.9486 51.3825 67.857 51.7604 67.857C52.1063 67.857 52.4253 67.9222 52.7177 68.0525V68.5332C52.4325 68.3853 52.1223 68.3113 51.7872 68.3113C51.5483 68.3113 51.354 68.3606 51.2042 68.4592C51.0545 68.5578 50.9797 68.6916 50.9797 68.8607C50.9797 69.0227 51.0403 69.1636 51.1615 69.2833C51.2863 69.3995 51.5073 69.5122 51.8246 69.6214C52.2096 69.7587 52.4877 69.9137 52.6588 70.0862C52.8335 70.2553 52.9209 70.4771 52.9209 70.7518C52.9209 71.0758 52.8032 71.3294 52.5679 71.5125C52.3326 71.6957 52.0118 71.7872 51.6053 71.7872Z"
          fill="var(--current-color-1)"/>
    <path d="M55.5746 71.7872C55.1755 71.7872 54.8049 71.7133 54.4623 71.5653V71.0635C54.8333 71.2431 55.1952 71.3329 55.5478 71.3329C55.7942 71.3329 55.9954 71.2854 56.1523 71.1903C56.3091 71.0917 56.3878 70.9578 56.3878 70.7888C56.3878 70.6127 56.325 70.4683 56.2004 70.3556C56.0791 70.243 55.8565 70.132 55.5319 70.0228C55.1542 69.8925 54.8777 69.7411 54.7033 69.5685C54.5322 69.3925 54.4464 69.1618 54.4464 68.8765C54.4464 68.5596 54.5656 68.3113 54.8049 68.1317C55.0438 67.9486 55.3521 67.857 55.7298 67.857C56.0757 67.857 56.3949 67.9222 56.6869 68.0525V68.5332C56.402 68.3853 56.0916 68.3113 55.7566 68.3113C55.5177 68.3113 55.3236 68.3606 55.1739 68.4592C55.0241 68.5578 54.9492 68.6916 54.9492 68.8607C54.9492 69.0227 55.0099 69.1636 55.1308 69.2833C55.2558 69.3995 55.4767 69.5122 55.7942 69.6214C56.1791 69.7587 56.4572 69.9137 56.6283 70.0862C56.8027 70.2553 56.8902 70.4771 56.8902 70.7518C56.8902 71.0758 56.7726 71.3294 56.5375 71.5125C56.302 71.6957 55.9812 71.7872 55.5746 71.7872Z"
          fill="var(--current-color-1)"/>
    <path d="M61.154 71.7238H58.7098V67.9204H61.0737V68.3483H59.2235V69.5844H60.7847V70.0123H59.2235V71.2959H61.154V71.7238Z"
          fill="var(--current-color-1)"/>
    <path d="M65.4045 68.3483H64.2278V71.7238H63.7145V68.3483H62.5432V67.9204H65.4045V68.3483Z"
          fill="var(--current-color-1)"/>
    <path d="M70.9412 70.6779L69.7913 69.2991L69.6896 69.1776V71.7238H69.1923V67.857H69.1977L70.9412 69.9647L72.6898 67.857H72.6952V71.7238H72.1978V69.1776L70.9412 70.6779Z"
          fill="var(--current-color-1)"/>
    <path d="M74.325 71.7238L76.1003 67.857H76.1111L77.8865 71.7238H77.341L76.9616 70.8786H75.2448L74.8704 71.7238H74.325ZM75.4318 70.4613H76.7742C76.4964 69.845 76.2734 69.3203 76.1057 68.8871C75.9275 69.3344 75.7029 69.8591 75.4318 70.4613Z"
          fill="var(--current-color-1)"/>
    <path d="M82.5502 71.7872H82.5448L80.0311 69.0931V71.7238H79.5179V67.857H79.5233L82.0365 70.5511V67.9204H82.5502V71.7872Z"
          fill="var(--current-color-1)"/>
    <path d="M84.1804 71.7238L85.9561 67.857H85.9665L87.7419 71.7238H87.1968L86.817 70.8786H85.1002L84.7258 71.7238H84.1804ZM85.2876 70.4613H86.6296C86.3518 69.845 86.1288 69.3203 85.9611 68.8871C85.7829 69.3344 85.5583 69.8591 85.2876 70.4613Z"
          fill="var(--current-color-1)"/>
    <path d="M92.1488 71.4967C91.7886 71.6904 91.3682 71.7872 90.8867 71.7872C90.3019 71.7872 89.8171 71.6006 89.4322 71.2273C89.0507 70.854 88.86 70.3856 88.86 69.8221C88.86 69.2551 89.0541 68.7867 89.4427 68.4169C89.8313 68.0437 90.3216 67.857 90.9135 67.857C91.3414 67.857 91.7229 67.9468 92.058 68.1264V68.6124C91.6798 68.4222 91.295 68.3271 90.9026 68.3271C90.45 68.3271 90.0827 68.468 89.8012 68.7497C89.5197 69.0315 89.3787 69.3889 89.3787 69.8221C89.3787 70.2553 89.5197 70.6145 89.8012 70.8997C90.0865 71.1815 90.4483 71.3223 90.8867 71.3223C91.1967 71.3223 91.4502 71.2766 91.6459 71.185V70.0387H92.1488V71.4967Z"
          fill="var(--current-color-1)"/>
    <path d="M96.4917 71.7238H94.0479V67.9204H96.4113V68.3483H94.5611V69.5844H96.1227V70.0123H94.5611V71.2959H96.4917V71.7238Z"
          fill="var(--current-color-1)"/>
    <path d="M100.085 70.6779L98.9346 69.2991L98.8329 69.1776V71.7238H98.336V67.857H98.341L100.085 69.9647L101.833 67.857H101.839V71.7238H101.341V69.1776L100.085 70.6779Z"
          fill="var(--current-color-1)"/>
    <path d="M106.42 71.7238H103.976V67.9204H106.34V68.3483H104.49V69.5844H106.051V70.0123H104.49V71.2959H106.42V71.7238Z"
          fill="var(--current-color-1)"/>
    <path d="M111.297 71.7872H111.291L108.778 69.0931V71.7238H108.264V67.857H108.27L110.783 70.5511V67.9204H111.297V71.7872Z"
          fill="var(--current-color-1)"/>
    <path d="M115.841 68.3483H114.665V71.7238H114.151V68.3483H112.98V67.9204H115.841V68.3483Z"
          fill="var(--current-color-1)"/>
</svg>
