<svg id="logo" viewBox="0 0 128 128" fill="none" xmlns="http://www.w3.org/2000/svg">
    <path fill-rule="evenodd" clip-rule="evenodd"
          d="M60.2351 78.5015V82.6692C60.2351 84.1476 60.2351 84.8868 60.4369 85.4787C60.7752 86.471 61.5075 87.2526 62.4371 87.6137C62.9916 87.8292 63.6841 88 65.0691 88C66.454 88 67.1465 87.8292 67.701 87.6137C68.6306 87.2526 69.3629 86.471 69.7012 85.4787C69.9031 84.8868 69.9031 84.1476 69.9031 82.6692V78.5015C69.9031 77.0232 69.9031 76.284 69.7012 75.6921C69.3629 74.6998 68.6306 73.9182 67.701 73.557C67.1465 73.3416 66.454 73.1707 65.0691 73.1707C63.6841 73.1707 62.9916 73.3416 62.4371 73.557C61.5075 73.9182 60.7752 74.6998 60.4369 75.6921C60.2351 76.284 60.2351 77.0231 60.2351 78.5015ZM29 73.54H36.6228V75.5246H31.6959V79.3946H35.9721V81.5777H31.6959V85.3484H36.6228V87.5315H29V73.54ZM38.761 73.54H41.5498L45.6401 81.6769V73.54H48.243V87.5315H45.6401L41.5498 78.9977V87.5315H38.761V73.54ZM58.9336 73.54H49.8234V75.8223H53.077V87.5315H55.7729V75.8223H58.9336V73.54ZM72.506 73.54V87.5315H74.923V82.4707H77.247L78.9203 87.5315H81.8021L79.664 81.8754C79.664 81.8754 81.5232 81.4784 81.5232 77.8069C81.5232 74.1354 78.9203 73.54 78.9203 73.54H72.506ZM86.4502 73.54H83.8473V87.5315H86.4502V73.54ZM88.0305 87.5315L91.5631 73.54H95.4675L99 87.5315H96.3971L95.5604 84.4554H91.5631L90.7264 87.5315H88.0305ZM62.8949 76.8485C62.8378 77.0756 62.8378 77.3525 62.8378 77.9062V83.2646C62.8378 83.8183 62.8378 84.0951 62.8949 84.3223C63.0496 84.9387 63.5006 85.4201 64.0781 85.5853C64.2908 85.6461 64.5502 85.6461 65.0689 85.6461C65.5876 85.6461 65.847 85.6461 66.0598 85.5853C66.6372 85.4201 67.0882 84.9387 67.243 84.3223C67.3 84.0951 67.3 83.8183 67.3 83.2646V77.9062C67.3 77.3525 67.3 77.0756 67.243 76.8485C67.0882 76.2321 66.6372 75.7507 66.0598 75.5855C65.847 75.5247 65.5876 75.5247 65.0689 75.5247C64.5502 75.5247 64.2908 75.5247 64.0781 75.5855C63.5006 75.7507 63.0496 76.2321 62.8949 76.8485ZM76.5961 75.7231H74.9228V80.4862H76.5961C77.4658 80.4862 77.9006 80.4862 78.2181 80.2732C78.3836 80.1622 78.5236 80.0128 78.6277 79.836C78.8271 79.4972 78.8271 79.033 78.8271 78.1046C78.8271 77.1763 78.8271 76.7121 78.6277 76.3732C78.5236 76.1965 78.3836 76.0471 78.2181 75.936C77.9006 75.7231 77.4658 75.7231 76.5961 75.7231ZM93.5146 75.7231L95.002 82.2723H92.0273L93.5146 75.7231Z"
          fill="var(--current-color-1)"/>
    <path d="M52.6126 46.6289L63.5822 40V46.1617L52.6126 52.9221V46.6289Z" fill="var(--current-color-1)"/>
    <path d="M69.8178 49.4493L64.3259 46.0647V40.0002L74.8403 46.354L69.8178 49.4493Z" fill="var(--current-color-1)"/>
    <path d="M58.5626 50.1719L64.0327 46.8007L69.0741 49.9076L58.5626 56.3857V50.1719Z" fill="var(--current-color-1)"/>
    <path d="M57.8189 50.6302L52.6126 53.8387V60.0525L57.8203 56.8431H57.8189V50.6302Z" fill="var(--current-color-1)"/>
    <path d="M53.1179 60.6578L63.5822 67.3231V60.7918L58.2413 57.5003L53.1179 60.6578Z" fill="var(--current-color-1)"/>
    <path d="M63.9875 60.125L58.985 57.042L75.2952 46.9903V53.1562L63.9875 60.125Z" fill="var(--current-color-1)"/>
    <path d="M75.2952 54.0729V60.3359L64.3259 67.3229V60.8331L75.2952 54.0729Z" fill="var(--current-color-1)"/>
</svg>
