<svg id="logo" viewBox="0 0 224 68" fill="none" xmlns="http://www.w3.org/2000/svg">
    <path d="M29.6497 36.854H37.0604L39.2252 38.2817H29.3227L24.8784 52.2532C19.9686 50.3163 15.4247 45.83 13.5185 40.7879C11.4865 35.9013 11.4865 29.7621 13.563 24.8549C15.5096 19.8109 20.1848 15.2554 25.1609 13.384C29.077 11.7345 34.3171 11.5598 38.4698 12.8581C43.2354 14.2462 47.7352 17.72 50.3509 22.2549C53.2769 27.2279 54.0989 33.5474 52.32 39.2228C51.1968 42.9895 48.8823 46.5964 45.6959 49.1759L40.2263 39.9066L47.8404 44.2257C47.8831 44.2257 47.9051 44.1767 47.8831 44.1318L37.91 35.3754L50.8088 37.3762C50.8533 37.3762 50.8717 37.3556 50.8717 37.3328L50.7867 37.2669L38.625 32.9295L51.2633 29.826C51.3056 29.826 51.3056 29.7849 51.2836 29.7621L38.3182 30.6205L48.4701 22.8037C48.4921 22.7603 48.4035 22.7397 48.3833 22.785L36.9788 28.665L43.2741 17.3687C43.2741 17.3519 43.2741 17.3048 43.2354 17.3272L35.01 27.1452L36.5893 14.2466C36.5893 14.2223 36.543 14.1998 36.5007 14.2223L32.7177 26.7469L29.4058 13.8463C29.3838 13.8258 29.3393 13.8029 29.3153 13.8463L30.2278 27.2279L22.4162 16.8877C22.3923 16.8634 22.3717 16.8877 22.3496 16.9083L28.2587 28.3512L17.0889 22.1442C17.0686 22.1442 17.0241 22.1685 17.0241 22.1891L26.9582 30.4855L14.2776 29.1232C14.2331 29.1475 14.2331 29.1871 14.2776 29.2077L26.5724 32.8655L14.3441 36.5196C14.3202 36.5383 14.3202 36.5836 14.3441 36.6041L26.9582 35.1087L17.0462 43.6714C17.0241 43.6714 17.0036 43.7148 17.0462 43.7391L17.1793 43.6957L25.1168 39.4686L26.9807 36.4534H29.0995L27.6305 35.3978L32.5404 27.3816L29.6441 36.848L29.6497 36.854ZM66.2239 47.4036H56.3284L64.2529 18.636H84.5345L82.6026 25.4631H72.2529L70.9248 30.3605H81.2764L79.5305 36.6445H69.1812L66.2239 47.4036ZM89.1215 47.404H79.3407L85.141 26.3878H94.9236L89.1215 47.404ZM95.4535 24.3833H85.6728L87.2649 18.6364H97.0457L95.4535 24.3833ZM114.499 47.4033H104.906L105.588 45.0512C103.654 46.7101 101.683 47.903 98.537 47.903C95.3506 47.903 93.3429 46.3604 93.3429 43.0841C93.3429 39.4604 94.7467 34.061 96.8301 30.2831C98.3465 27.4669 101.077 26.0036 104.3 26.0036C107.065 26.0036 109.114 27.2361 109.91 28.7783L112.64 18.6375H122.421L114.499 47.4033ZM107.143 32.6332C106.269 32.6332 105.399 32.9056 104.906 34.138C104.186 35.9114 103.541 37.6474 103.541 39.3814C103.541 40.1931 104.11 40.8862 105.057 40.8862C105.815 40.8862 106.308 40.6551 106.725 40.3865L108.698 33.4823C108.357 32.9811 107.749 32.6332 107.143 32.6332ZM142.116 38.2264H128.621C128.355 39.3422 128.091 40.1146 128.091 41.0011C128.091 41.4256 128.166 42.5059 129.529 42.5059C130.895 42.5059 131.502 41.9646 132.069 39.9227H141.662C140.448 45.8985 133.473 47.9408 129.19 47.9408C123.388 47.9408 118.877 47.0935 118.877 41.4256C118.877 38.3016 120.431 33.1352 122.479 30.3979C124.943 27.1198 129.227 25.8873 133.17 25.8873C139.237 25.8873 143.178 27.1591 143.178 32.4025C143.178 33.6761 142.648 36.4904 142.116 38.2264ZM132.335 31.17C131.122 31.17 130.289 32.0172 129.757 34.1384H133.776C133.891 33.7139 134.042 33.0582 134.042 32.671C134.042 31.5156 133.359 31.17 132.335 31.17ZM151.947 47.4036H142.165L150.089 18.636H159.872L151.947 47.4036ZM164.872 47.404H155.089L160.889 26.3878H170.672L164.872 47.404ZM171.202 24.3833H161.421L163.013 18.6364H172.794L171.202 24.3833ZM188.787 26.3878L189.638 31.1314H182.152L179.954 39.1117C179.763 39.7301 179.612 40.5002 179.612 41.0018C179.612 41.9261 179.991 42.2362 181.317 42.2362H183.402L181.961 47.4044H173.241C170.359 47.4044 169.26 45.9766 169.26 43.8161C169.26 42.9311 169.375 41.9657 169.68 40.8855L174.987 21.7215H184.767L183.478 26.3882L188.787 26.3878ZM56.1283 50.6347L58.5667 50.6328L57.0132 55.8066H54.5822L56.1283 50.6347ZM64.6384 50.6388L68.2051 50.6369L69.1194 54.086H69.1437L70.176 50.635L72.293 50.6332L70.7284 55.7958L67.3147 55.807L66.3265 52.1211H66.3099L65.2276 55.7995L63.1106 55.8014L64.6384 50.6388ZM76.9156 50.641L79.5993 50.6391L80.0704 53.8911L82.5253 50.6354L85.0097 50.6335L80.9145 55.798L77.9333 55.8017L76.9156 50.641ZM89.6838 50.6429L95.231 50.6373L94.9188 51.6857L91.7287 51.6876L91.4205 52.7488L94.4109 52.7469L94.1115 53.7426L91.1211 53.7445L90.8125 54.7686L94.0358 54.7664L93.7106 55.813L88.1344 55.8167L89.6838 50.6429ZM113.505 51.9023L111.606 51.9045L111.982 50.6492L118.215 50.6436L117.841 51.8989L115.942 51.9004L114.778 55.7931L112.342 55.795L113.505 51.9023ZM123.26 50.6362L126.954 50.6324L127.132 54.0856H127.148L129.352 50.6305L133.061 50.6268L131.52 55.8025L129.261 55.8044L130.419 51.9079H130.403L127.658 55.8062L125.303 55.8081L124.969 51.912H124.944L123.788 55.7969L121.719 55.7988L123.26 50.6362ZM148.582 50.6388L152.145 50.6369L153.063 54.086H153.088L154.12 50.6332H156.235L154.687 55.807L151.229 55.7976L150.27 52.1211H150.254L149.148 55.7995L147.029 55.8014L148.582 50.6388ZM162.08 51.8944L160.179 51.8963L160.554 50.6395L166.79 50.6358L166.416 51.8907L164.515 51.8926L163.353 55.7984L160.915 55.8003L162.08 51.8944ZM204.435 43.1765C202.97 43.1765 201.775 44.3899 201.775 45.8816C201.775 47.3715 202.97 48.5867 204.435 48.5867C205.9 48.5867 207.095 47.3711 207.095 45.8816C207.095 44.3899 205.9 43.1765 204.435 43.1765ZM204.435 48.1061C203.855 48.1061 203.299 47.8718 202.889 47.4546C202.479 47.0375 202.248 46.4717 202.248 45.8818C202.248 45.2919 202.479 44.7262 202.889 44.309C203.299 43.8919 203.855 43.6575 204.435 43.6575C205.015 43.6575 205.571 43.8919 205.982 44.309C206.392 44.7262 206.622 45.2919 206.622 45.8818C206.622 46.4717 206.392 47.0375 205.982 47.4546C205.571 47.8718 205.015 48.1061 204.435 48.1061Z"
          fill="var(--current-color-1)"/>
    <path d="M205.501 45.3213C205.501 44.7842 205.193 44.4816 204.535 44.4816H203.501V47.2694H203.979V46.1289H204.347L205.03 47.2694H205.56L204.843 46.0896C205.217 46.0429 205.501 45.8061 205.501 45.3213ZM203.979 45.695V44.9136H204.347C204.655 44.908 204.999 44.9267 204.999 45.3007C204.999 45.6767 204.655 45.6954 204.347 45.6954L203.979 45.695ZM102.704 52.2064C102.65 52.1484 102.647 52.0504 102.671 51.9715C102.75 51.7085 103.072 51.5357 103.587 51.5357C103.89 51.5339 104.357 51.5694 104.49 51.6786C104.556 51.7229 104.605 51.7881 104.63 51.8639C104.655 51.9398 104.655 52.022 104.629 52.0976H106.788C107.043 51.1733 106.47 50.5778 104.032 50.5815C101.716 50.5834 100.402 51.0887 100.064 52.2161C99.9776 52.5094 99.9666 52.8718 100.207 53.1142C100.803 53.7191 103.497 53.9596 103.724 54.2865C103.748 54.3197 103.764 54.3585 103.77 54.3995C103.776 54.4405 103.772 54.4823 103.759 54.5214C103.635 54.9366 103.057 55.0436 102.552 55.0436C102.231 55.0436 101.814 54.974 101.694 54.839C101.581 54.7039 101.581 54.4952 101.645 54.3617L99.3847 54.3654C99.1593 55.1677 99.0615 56.0015 102.203 56C104.839 55.9963 106.047 55.3406 106.35 54.3205C106.5 53.8208 106.352 53.5429 106.18 53.3663C105.595 52.7529 102.986 52.5277 102.704 52.2064ZM138.024 50.644L143.571 50.6384L143.259 51.6869L140.069 51.6887L139.76 52.7503L142.749 52.7484L142.45 53.7441L139.461 53.7456L139.152 54.7716L142.374 54.7679L142.049 55.8141L136.474 55.8178L138.024 50.644ZM201.992 26.3878L196.683 38.0334L196.835 26.3878H186.941L188.835 47.404C188.593 48.6346 188.194 49.3277 187.435 49.6696C186.603 50.0455 184.727 49.9778 184.065 49.9401L183.945 49.9475L182.385 55.6585L189.062 55.6641C193.006 55.6641 194.939 53.6484 197.746 49.177L212 26.387H201.992V26.3878ZM173.115 52.1937C173.061 52.1357 173.059 52.0358 173.082 51.9588C173.161 51.6958 173.485 51.523 173.998 51.523C174.301 51.5211 174.768 51.5567 174.901 51.6659C174.967 51.7101 175.016 51.7753 175.041 51.8512C175.066 51.9271 175.066 52.0093 175.04 52.0848H177.199C177.454 51.1606 176.881 50.5651 174.443 50.5688C172.129 50.5707 170.813 51.076 170.477 52.2034C170.389 52.4967 170.378 52.8591 170.618 53.1015C171.214 53.7063 173.908 53.9469 174.135 54.2738C174.159 54.307 174.175 54.3458 174.181 54.3868C174.187 54.4277 174.183 54.4696 174.17 54.5087C174.048 54.9239 173.468 55.0308 172.963 55.0308C172.642 55.0308 172.225 54.9613 172.104 54.8262C171.992 54.6912 171.992 54.4825 172.056 54.349L169.795 54.3527C169.57 55.155 169.472 55.9888 172.614 55.9873C175.25 55.9835 176.458 55.3278 176.763 54.3078C176.911 53.8081 176.763 53.5302 176.591 53.3536C176.008 52.7405 173.398 52.515 173.115 52.1937Z"
          fill="var(--current-color-1)"/>
</svg>
