<svg id="logo" viewBox="0 0 128 128" fill="none" xmlns="http://www.w3.org/2000/svg">
    <path d="M42.5171 84.2864H38.541V84.7682H39.903V88.26C39.6734 89.1464 38.4506 89.5167 38.0861 89.5167C35.5471 89.5167 35.7293 85.546 35.7293 84.4827C35.7293 83.5101 35.6375 79.4457 38.0861 79.4457C39.8112 79.4457 40.7196 81.2823 41.0827 82.9316H41.3582C41.3582 82.2519 41.3693 79.0189 41.3624 79.0263C41.3693 79.001 40.1798 79.9394 40.1757 79.9245C40.2021 79.9186 39.6317 79.056 38.0861 79.056C35.0894 79.056 33.9903 82.2519 34.0001 84.4827C34.014 86.523 34.8932 90 38.0861 90C39.0905 90 39.7973 89.4542 40.1757 88.8341C40.1798 88.8207 41.4417 89.8989 41.4459 89.9033V84.7682H42.5171V84.2864Z"
          fill="var(--current-color-1)"/>
    <path d="M45.3963 84.0918L45.4019 79.6794C47.9895 79.6794 48.9397 79.5411 49.3905 82.9318H49.6632V79.1574L42.6167 79.1604V79.6794H43.8368V89.3906H42.4914V89.9021H49.7536V85.9344H49.3905C49.0288 88.934 48.3165 89.392 46.3215 89.392H45.3963V84.6733H45.9319C46.8279 84.6971 47.3371 85.2563 47.5193 86.9025H47.849L47.8462 82.0247C47.8407 82.0336 47.5221 82.0247 47.5221 82.0247C47.5221 82.0485 47.4581 84.1216 45.893 84.0918H45.3963Z"
          fill="var(--current-color-1)"/>
    <path d="M62.2063 79.6732C64.794 79.6732 65.7497 79.5408 66.2005 82.933H66.4732V79.1571H56.199V79.6732H56.4675C56.8307 79.6732 57.6904 79.7014 57.7405 80.5119V86.7059L52.9339 79.1571H50.317V79.6732H50.751C51.2672 79.6732 51.9906 79.6985 52.024 80.5119V88.4489C52.024 89.2237 50.9389 89.5167 50.4853 89.5167H50.4797V89.9018H54.0218V89.5167C53.5683 89.5167 52.4761 89.2237 52.4761 88.4489L52.4887 81.4607C54.3919 84.3681 57.9826 89.9078 58.016 89.9018H58.1954V80.5119C58.2441 79.7014 59.1053 79.6732 59.467 79.6732H60.6468V89.3917H59.3015V89.9018H66.565V85.9341H66.2005C65.8388 88.9352 65.1279 89.3917 63.1315 89.3917H62.2063V84.673H62.7419C63.6379 84.6968 64.1471 85.256 64.3293 86.9022H64.6604L64.6576 82.0244C64.6507 82.0333 64.3335 82.0244 64.3335 82.0244C64.3335 82.0482 64.2681 84.1227 62.703 84.0915H62.2063V79.6732Z"
          fill="var(--current-color-1)"/>
    <path d="M77.2491 86.0269L78.6987 81.384L80.2444 86.0269H77.2491ZM71.6188 84.1724H69.9883V79.6738H72.0737C73.298 79.8716 73.3481 81.384 73.3481 81.8644C73.3481 83.0288 72.8932 84.1724 71.6188 84.1724ZM88.9715 85.9347C88.6084 88.9343 87.8974 89.3849 85.9024 89.3849H85.78V79.6753H87.0502V79.1518H82.8752V79.6753H84.1453V89.3849H83.1367L79.4277 78.8618H78.881C78.8935 78.8559 75.7994 88.4093 75.7925 88.4376C75.7994 88.4093 75.5588 89.257 75.0496 89.3626C74.5807 89.3864 74.6155 89.1246 74.6155 89.0324V87.1928C74.6155 86.7095 74.5807 85.612 74.1119 85.1093C73.5846 84.5427 72.6859 84.5011 72.7068 84.4788C72.7068 84.4788 74.9883 83.9746 74.9883 81.6576C74.9883 80.0337 73.931 79.2262 72.1642 79.1548H67.1516V79.6768H68.4329V89.3864H67.1516V89.9024H71.2641V89.3864H69.9814V84.7182H71.6912C74.6586 84.9799 71.182 89.9069 75.0704 89.9024H77.5218V89.3849C77.3854 89.3849 76.4867 89.4117 76.431 88.7439C76.3949 88.2591 77.0223 86.5236 77.0223 86.5236H80.3598C80.3584 86.5162 81.3977 89.3864 81.4074 89.3864H80.2444V89.9024H89.3346V85.9347H88.9715Z"
          fill="var(--current-color-1)"/>
    <path d="M93.9014 79.6749V79.1514H89.8029V79.6749H91.0898L91.0953 89.3801H89.8029V89.9021H93.9014V89.3801H92.6145V79.6749H93.9014Z"
          fill="var(--current-color-1)"/>
    <path d="M79.2935 70.2285C79.4159 69.8939 79.6524 69.6812 79.9793 69.6143L83.296 68.8232L82.9969 65.6615L82.9871 65.5931C82.905 65.1781 82.6588 63.917 81.1173 63.7817C75.1894 63.2701 73.8148 62.3302 72.3736 61.3353C72.3708 61.3309 72.3694 61.3264 72.368 61.322L72.3596 61.3264L72.2664 61.261C70.7263 60.1962 69.1974 60.1873 69.0471 60.1917C67.368 60.1932 65.2436 60.9041 65.0697 60.9635C64.5577 61.1242 64.0777 61.2877 63.6145 61.4469C61.7572 62.0849 60.1531 62.6381 57.4597 62.5518L56.9686 62.537L56.842 63.0441C56.7446 63.4352 55.9906 66.6192 56.7182 68.664C56.0657 69.2128 56.0671 69.8478 56.0699 69.9341C56.0963 70.633 55.9419 70.8055 55.8918 70.862C55.5802 71.2056 54.5479 71.2517 53.6784 71.2517H53.3501L53.1636 71.5253C52.628 72.315 51.4691 72.4994 50.7276 72.2971C50.4007 71.2368 50.3923 70.4263 50.7067 69.943C51.0782 69.3719 51.8656 69.3095 52.187 69.3095H52.3734C53.1609 69.3095 53.8008 68.6209 53.8008 67.7747V62.0759C54.0415 61.6804 54.2335 61.2238 54.4018 60.7107C55.7026 60.4877 56.6987 59.3083 56.6987 57.8896C56.6987 57.3453 56.5485 56.8189 56.2772 56.3697C57.4806 55.7511 58.5087 54.487 58.5087 52.8288C58.5087 51.1721 57.7282 50.4122 56.9881 49.914C57.1968 49.2775 57.5418 48.1592 57.7755 47.0334L58.8161 43.0478C59.2822 41.4848 60.4981 40.4765 61.9172 40.4765H80.2506C79.4743 41.6439 78.3725 42.1957 76.8449 42.1957H65.7514L65.1712 43.5222H75.1142C74.3324 44.8502 73.1888 45.4763 71.5653 45.4763H64.356L63.7772 46.8029H70.2088C69.4297 48.0818 68.2987 48.6856 66.7043 48.6856H62.7742L62.1954 50.0122H66.3148C66.3524 50.0672 66.4553 50.2679 66.4553 50.8063C66.4553 51.6569 65.7847 52.3514 64.9611 52.3514C64.6773 52.3514 64.4367 52.2815 64.0123 52.0971C63.8301 52.0139 63.6478 51.9321 63.4656 51.8503L62.5098 52.7664C62.6893 52.8482 62.8674 52.9299 63.0468 53.0103V53.0117C63.8746 53.3939 64.3351 53.5947 64.9611 53.5947C65.7194 53.5947 66.4038 53.2586 66.888 52.7232C67.5947 52.7708 68.7327 52.8719 69.836 52.9686C71.1535 53.0846 72.3986 53.1932 73.0413 53.2303C73.3641 53.2482 73.666 53.2646 73.954 53.2794C74.5007 53.3077 75.0016 53.3345 75.501 53.3731C78.0038 57.7171 79.2865 58.2882 84.1321 58.9083C84.4813 59.5775 84.7971 60.2839 85.0962 60.9963V69.4522L85.0976 69.5013C85.124 69.8909 85.124 70.0218 85.0754 70.0932C84.907 70.3282 84.1585 70.6613 83.8984 70.7758L79.8138 72.4221C79.2726 71.6383 79.0778 70.8189 79.2935 70.2285ZM78.41 72.5262H70.334L73.7954 68.6209C74.4938 67.8491 74.7164 66.9211 74.4228 66.0095C74.2545 65.483 73.7982 64.4762 73.3224 63.4426C74.6955 64.1252 76.7781 64.7379 81.0158 65.1038C81.5264 65.1484 81.6613 65.3343 81.7629 65.831L81.9493 67.7851L79.7345 68.3145C78.9916 68.4707 78.4086 68.9927 78.1346 69.7482C77.8313 70.581 77.9342 71.5625 78.41 72.5262ZM63.844 72.5262C63.62 71.5863 63.7118 70.8368 64.1125 70.346C64.4951 69.8775 65.0836 69.7348 65.4995 69.7987L67.8604 70.2672L67.9203 70.2776H68.2486L69.9167 68.3562L69.932 68.3383C70.2172 67.9829 71.0839 66.9092 70.1991 65.538L67.969 61.6105C68.339 61.5539 68.7091 61.5197 69.0513 61.5197L69.0666 61.5183C69.0778 61.5197 70.1963 61.5019 71.3941 62.247C71.5555 62.6187 71.7809 63.108 72.0327 63.6523C72.5001 64.6666 73.0831 65.9292 73.2458 66.4392C73.2973 66.5999 73.4545 67.0862 72.8966 67.7033L68.6228 72.5262H63.844ZM63.1748 69.4745C62.7255 70.0248 62.2872 70.9855 62.571 72.5262H54.968C55.7847 72.4399 56.3787 72.2347 56.7878 71.7796C57.2858 71.2264 57.3303 70.4694 57.3136 69.9296C57.3303 69.882 57.4124 69.6991 57.7853 69.5191L58.4405 69.1994L58.0468 68.554C57.3971 67.4862 57.6809 65.1543 57.9327 63.8873H57.9912C60.5691 63.8873 62.2371 63.3147 63.9956 62.7095C64.4547 62.5518 64.9278 62.3897 65.4272 62.2336L65.4425 62.2276C65.4522 62.2247 65.967 62.0507 66.6668 61.8767L69.1459 66.2429L69.1668 66.2786C69.4144 66.6549 69.445 66.9047 68.9957 67.4639L67.7533 68.8975L65.7166 68.493L65.6985 68.49C64.7789 68.3383 63.7884 68.725 63.1748 69.4745ZM49.6856 69.186C49.1569 69.9995 49.0929 71.1208 49.4908 72.5262H48.2053V61.8038C48.6658 61.7294 49.1611 61.5882 49.623 61.3636C49.5966 61.8306 49.5367 62.2009 49.4547 62.6946C49.4352 62.8091 49.4157 62.9296 49.3962 63.0575L49.2724 63.8308H50.0084C51.1074 63.8308 51.9282 63.6464 52.5585 63.2984V67.7747C52.5585 67.8892 52.475 67.9829 52.3734 67.9829H52.187C51.0949 67.9829 50.1837 68.4216 49.6856 69.186ZM46.9616 71.3632L41.1074 69.7348L35.2531 71.3632V60.1694L41.1074 58.5454L46.9616 60.1694V71.3632ZM36.0044 72.5262L41.1074 71.1059L46.2103 72.5262H36.0044ZM38.0453 56.0455C38.2901 55.647 38.8494 55.302 39.5492 55.4313L40.0792 55.5295L40.2462 54.9837C40.2907 54.838 40.3505 54.7294 40.434 54.6461C40.5829 54.4959 40.8055 54.4245 41.0879 54.4335C41.8364 54.4587 42.774 55.0164 43.535 55.8894C43.8119 56.2061 44.0567 56.5735 44.2752 56.9467C44.3183 57.0241 44.367 57.1088 44.4101 57.1832C44.4713 57.2873 44.5228 57.3721 44.5339 57.3914C44.5617 57.442 44.9374 58.0472 44.9109 58.0859C45.1683 57.6992 45.4257 57.3126 45.6831 56.9274C45.69 56.917 45.6789 56.8813 45.6566 56.8307C45.5996 56.6984 45.4633 56.4694 45.3812 56.3326C45.3617 56.2998 45.3422 56.2671 45.3227 56.2344C45.3214 56.2314 45.3186 56.2285 45.3186 56.2255C45.3102 56.2121 45.2754 56.1541 45.2309 56.0797C45.1447 55.9355 45.0222 55.7273 44.968 55.6143L46.5874 52.8452C46.9922 52.9359 47.3358 52.9493 47.5 52.9493H47.5403C49.8247 52.9493 52.187 51.5409 52.187 49.1823V49.1258C52.1592 48.4834 52.0465 47.8707 51.9561 47.3784C51.8962 47.0542 51.8406 46.7479 51.8406 46.5947C51.8406 46.3374 52.18 46.0504 52.667 46.0504H53.4057L53.0718 44.0041C54.1111 43.1861 54.7496 41.8536 54.7176 40.5806C55.8376 41.4997 56.6278 43.0909 56.7724 44.7863C56.8142 45.2771 56.7238 45.9656 56.5749 46.6898L56.4942 46.9917L56.5081 46.9962C56.2438 48.177 55.8529 49.3935 55.647 49.969L55.455 50.5014L55.9196 50.7825C56.7544 51.2866 57.2663 51.6555 57.2663 52.8288C57.2663 54.1747 56.1325 55.2068 55.0376 55.4254L53.5407 55.7243L54.8067 56.6285C55.2129 56.917 55.455 57.3899 55.455 57.8896C55.455 58.7343 54.783 59.4229 53.9566 59.4229H53.4794L53.3445 59.8913C52.8798 61.5093 52.3748 62.3005 50.7527 62.4685C50.8264 61.9778 50.8793 61.5049 50.8793 60.8357C50.8793 60.678 50.8667 60.2378 50.8598 60.0965L50.7874 58.5886L49.7955 59.6653C49.4588 60.0311 48.862 60.3211 48.2053 60.4594V59.1433L41.1074 57.1743L38.5823 57.8747C38.0189 57.2724 37.9048 56.2775 38.0453 56.0455ZM45.7109 51.1721C45.729 51.0814 45.7985 51.0085 45.8723 51.01L46.9407 51.0472C48.2443 50.9981 49.5715 50.4241 49.7218 48.9741C49.7218 47.9926 49.0693 47.0364 48.1483 47.0364C47.6558 47.0364 47.1021 47.3992 46.4802 47.8394C46.0754 48.1279 45.754 48.354 45.5119 48.354C45.3478 48.354 45.2142 48.2365 45.2142 48.1413C45.2142 48.125 45.217 48.1086 45.2226 48.0922L45.9057 47.1152L45.3158 46.6913C45.1892 46.6036 44.9944 46.437 44.9722 46.3136C44.961 46.2556 45.0403 46.15 45.0654 46.1188C45.3102 45.8139 45.5912 45.4421 45.8737 44.9841C46.049 44.7238 46.1491 44.5796 46.4413 44.5796C46.7307 44.5796 46.9658 44.8279 46.9658 45.1313C46.9658 45.3321 47.1731 45.4912 47.429 45.4912C47.685 45.4912 47.8005 45.2964 47.9591 45.1313C47.9591 45.1313 48.5671 44.5335 48.2457 44.2509C47.877 43.9297 46.4023 44.587 46.8127 43.14L46.9157 42.9333C47.0729 42.7102 47.7782 42.1525 49.2348 42.1525C49.5103 42.1525 49.8025 42.1734 50.1002 42.212L50.3186 42.2418L53.4113 40.2029C53.4391 40.2728 53.4474 40.3219 53.4474 40.3219L53.4516 40.3427C53.613 41.3435 53.0217 42.5347 52.0785 43.1132L51.7015 43.3438L51.9449 44.8354C51.1505 45.0956 50.5968 45.7767 50.5968 46.5947C50.5968 46.8772 50.6581 47.2104 50.736 47.6327C50.8222 48.1026 50.9196 48.6336 50.9446 49.1734C50.9446 50.7245 48.9413 51.7521 47.2468 51.6926L47.2037 51.6911C47.1327 51.6897 46.0545 51.5975 45.7902 51.3744C45.7373 51.3342 45.697 51.242 45.7109 51.1721ZM48.2735 40.8171C48.4697 40.5509 48.7869 40.2549 49.1667 39.9873C49.463 39.7776 49.8498 39.5917 50.2282 39.4742C50.8278 39.2898 51.5164 39.2779 52.2287 39.4236L50.0348 40.8706C49.7621 40.8409 49.4936 40.8245 49.2348 40.8245C48.8634 40.8245 48.5211 40.8572 48.2067 40.9108C48.2304 40.8795 48.2513 40.8468 48.2735 40.8171ZM81.7016 40.4765H89.9738C89.1989 41.6439 88.0957 42.1957 86.5681 42.1957H80.4621C80.949 41.7391 81.3622 41.1651 81.7016 40.4765ZM81.2871 45.4763H75.181C75.7208 44.9707 76.1702 44.3164 76.5291 43.5222H84.8375C84.0556 44.8502 82.912 45.4763 81.2871 45.4763ZM76.4276 48.6856H70.3215C70.8432 48.1934 71.2814 47.5643 71.6348 46.8029H79.932C79.1529 48.0803 78.0219 48.6856 76.4276 48.6856ZM77.8313 53.6661C79.7651 54.0066 81.3497 54.9376 82.5392 56.4322C82.7938 56.7519 83.0386 57.0925 83.2807 57.4598C80.0266 57.0033 78.8942 56.4976 77.0745 53.5441C77.3165 53.5783 77.567 53.6185 77.8313 53.6661ZM90.8155 67.9814C90.9352 68.1866 91.0367 68.38 91.1355 68.5659C91.2565 68.7949 91.3762 69.0195 91.5153 69.2515C90.5734 69.189 89.8597 68.6313 89.2003 67.5769C89.8083 67.3494 90.5442 67.51 90.8155 67.9814ZM83.079 72.5262L84.3477 72.0131L84.3658 72.0057C86.1675 71.2085 86.4234 70.7104 86.34 69.4299V64.2531C87.7103 67.974 89.0055 70.5899 91.6628 70.5884C92.0245 70.5884 92.4112 70.5408 92.8258 70.4412L93.8623 70.1898L93.1486 69.3496C92.6936 68.8127 92.4724 68.3963 92.2179 67.9145C92.1135 67.7167 92.005 67.5115 91.8742 67.2854C91.2523 66.2073 89.7735 65.8414 88.5756 66.4155C88.0317 65.2614 87.4849 63.7579 86.8269 61.9019L86.6836 61.548C86.5695 61.2714 86.4554 60.9918 86.34 60.7122V60.6661H86.3205C85.9129 59.6861 85.4774 58.7031 84.9571 57.781C84.4841 56.9438 84.0027 56.221 83.4866 55.5726C82.1009 53.8326 80.2659 52.7515 78.0344 52.3574C76.4915 52.0852 75.398 52.0272 74.0152 51.9544C73.7286 51.941 73.4281 51.9231 73.1095 51.9053C72.4835 51.8681 71.1896 51.7566 69.9375 51.645C69.0945 51.5722 68.2291 51.4963 67.5488 51.4428C67.5947 51.2376 67.6212 51.0264 67.6212 50.8063C67.6212 50.5103 67.5961 50.2471 67.5474 50.0122H76.4276C78.7161 50.0122 80.373 48.9295 81.358 46.8014C83.6341 46.7791 85.2799 45.6756 86.2523 43.5222H86.5681C88.9374 43.5222 90.6319 42.3667 91.6029 40.0869L92.0036 39.1485H61.9172C59.9403 39.1485 58.2569 40.5286 57.628 42.6597L57.6086 42.734C57.0966 41.2097 56.1603 39.9159 54.9597 39.153C53.2916 38.0911 51.394 37.7357 49.8818 38.1997C49.3823 38.3544 48.8843 38.5953 48.4808 38.8808C48.133 39.1247 47.6475 39.5188 47.2927 40.0021C46.9087 40.5286 46.5373 41.1666 46.2646 41.7629C46.0907 41.9161 45.9571 42.0708 45.8639 42.2224L45.5036 42.9452L45.4841 42.9854C45.0542 44.0264 44.5297 44.7476 44.1207 45.2562C43.7159 45.7619 43.695 46.2422 43.7493 46.556C43.8091 46.8981 43.9816 47.1791 44.1653 47.3903L44.1541 47.4096C44.0345 47.6312 43.9719 47.884 43.9719 48.1413C43.9719 48.989 44.6619 49.6314 45.5119 49.6314C46.1296 49.6314 46.6347 49.3236 47.1689 48.9459C47.3859 48.7912 47.9605 48.3837 48.1483 48.3614C48.3862 48.3614 48.6032 48.5934 48.6032 48.8477C48.6032 49.5422 47.7643 49.917 47.1633 49.9631L45.9418 50.1029C45.0626 50.1921 44.6452 50.6903 44.6452 51.1349C44.6452 51.5826 44.8456 51.8339 44.9861 51.9841L45.0765 52.0823L45.3867 52.3782L44.0901 54.6089C43.1664 53.6943 42.0854 53.1396 41.1268 53.1084C40.5077 53.0861 39.9721 53.2854 39.5784 53.6839C39.4643 53.7999 39.3642 53.9323 39.2779 54.0765H39.2557C38.2317 54.0765 37.4081 54.6625 37.0047 55.3213C36.5664 56.0411 36.7236 57.2858 37.2801 58.2361L34.0094 59.1433V75.8574H94V72.5262H83.079Z"
          fill="var(--current-color-1)"/>
    <path d="M36.5506 63.2587L40.4627 62.173V60.8018L36.5506 61.8875V63.2587Z" fill="var(--current-color-1)"/>
    <path d="M45.6651 61.8881L41.753 60.8024V62.1721L45.6651 63.2593V61.8881Z" fill="var(--current-color-1)"/>
    <path d="M45.6651 64.642L41.753 63.5578V64.9291L45.6651 66.0133V64.642Z" fill="var(--current-color-1)"/>
    <path d="M36.5506 66.0134L40.4627 64.9292V63.5565L36.5506 64.6422V66.0134Z" fill="var(--current-color-1)"/>
    <path d="M45.6651 67.399L41.753 66.3118V67.683L45.6651 68.7687V67.399Z" fill="var(--current-color-1)"/>
    <path d="M36.5506 68.769L40.4627 67.6833V66.3121L36.5506 67.3993V68.769Z" fill="var(--current-color-1)"/>
</svg>
