<svg id="logo" viewBox="0 0 128 128" fill="none" xmlns="http://www.w3.org/2000/svg">
    <path d="M43.8416 77.8694H40.0944V78.3157H41.378V81.5498C41.1616 82.3707 40.0091 82.7137 39.6656 82.7137C37.2728 82.7137 37.4446 79.0361 37.4446 78.0513C37.4446 77.1505 37.358 73.3861 39.6656 73.3861C41.2914 73.3861 42.1476 75.0872 42.4898 76.6147H42.7494C42.7494 75.9852 42.7599 72.9908 42.7533 72.9977C42.7599 72.9743 41.6389 73.8434 41.6349 73.8296C41.6599 73.8241 41.1223 73.0252 39.6656 73.0252C36.8414 73.0252 35.8056 75.9852 35.8148 78.0513C35.8279 79.941 36.6566 83.1613 39.6656 83.1613C40.6123 83.1613 41.2783 82.6558 41.6349 82.0814C41.6389 82.069 42.8281 83.0676 42.832 83.0718V78.3157H43.8416V77.8694Z"
          fill="var(--current-color-1)"/>
    <path d="M46.5551 77.6893L46.5603 73.6026C48.999 73.6026 49.8945 73.4745 50.3193 76.6149H50.5763V73.1192L43.9354 73.1219V73.6026H45.0853V82.5968H43.8174V83.0707H50.6615V79.3958H50.3193C49.9784 82.174 49.3071 82.5982 47.427 82.5982H46.5551V78.2278H47.0598C47.9042 78.2499 48.3841 78.7678 48.5558 80.2925H48.8666L48.864 75.7747C48.8587 75.783 48.5585 75.7747 48.5585 75.7747C48.5585 75.7968 48.4982 77.7168 47.0231 77.6893H46.5551Z"
          fill="var(--current-color-1)"/>
    <path d="M62.3974 73.5968C64.8361 73.5968 65.7369 73.4742 66.1617 76.616H66.4187V73.1189H56.7359V73.5968H56.989C57.3312 73.5968 58.1415 73.623 58.1887 74.3737V80.1104L53.6587 73.1189H51.1925V73.5968H51.6015C52.088 73.5968 52.7698 73.6202 52.8012 74.3737V81.7247C52.8012 82.4423 51.7785 82.7136 51.3511 82.7136H51.3459V83.0704H54.684V82.7136C54.2566 82.7136 53.2274 82.4423 53.2274 81.7247L53.2392 75.2524C55.0328 77.9452 58.4168 83.0759 58.4483 83.0704H58.6174V74.3737C58.6633 73.623 59.4749 73.5968 59.8158 73.5968H60.9276V82.5979H59.6598V83.0704H66.5052V79.3956H66.1617C65.8208 82.1751 65.1508 82.5979 63.2693 82.5979H62.3974V78.2275H62.9022C63.7466 78.2496 64.2264 78.7675 64.3982 80.2922H64.7103L64.7076 75.7744C64.7011 75.7827 64.4021 75.7744 64.4021 75.7744C64.4021 75.7965 64.3405 77.7179 62.8655 77.689H62.3974V73.5968Z"
          fill="var(--current-color-1)"/>
    <path d="M76.5743 79.4815L77.9405 75.1814L79.3971 79.4815H76.5743ZM71.2681 77.7639H69.7315V73.5974H71.6968C72.8506 73.7806 72.8978 75.1814 72.8978 75.6262C72.8978 76.7047 72.4691 77.7639 71.2681 77.7639ZM87.6219 79.3961C87.2797 82.1743 86.6097 82.5916 84.7295 82.5916H84.6141V73.5988H85.8112V73.1139H81.8765V73.5988H83.0736V82.5916H82.123L78.6275 72.8453H78.1122C78.124 72.8398 75.2081 81.6881 75.2015 81.7142C75.2081 81.6881 74.9812 82.4732 74.5014 82.571C74.0595 82.593 74.0923 82.3506 74.0923 82.2652V80.5614C74.0923 80.1137 74.0595 79.0972 73.6177 78.6317C73.1207 78.1069 72.2737 78.0683 72.2934 78.0477C72.2934 78.0477 74.4437 77.5807 74.4437 75.4348C74.4437 73.9307 73.4472 73.1828 71.7821 73.1167H67.0581V73.6001H68.2656V82.593H67.0581V83.0709H70.9338V82.593H69.7249V78.2694H71.3363C74.1329 78.5118 70.8564 83.0751 74.521 83.0709H76.8312V82.5916C76.7028 82.5916 75.8558 82.6164 75.8033 81.998C75.7692 81.5489 76.3605 79.9416 76.3605 79.9416H79.506C79.5046 79.9347 80.4841 82.593 80.4932 82.593H79.3971V83.0709H87.9641V79.3961H87.6219Z"
          fill="var(--current-color-1)"/>
    <path d="M92.268 73.5984V73.1136H88.4054V73.5984H89.6182L89.6235 82.5871H88.4054V83.0706H92.268V82.5871H91.0552V73.5984H92.268Z"
          fill="var(--current-color-1)"/>
    <path d="M78.501 64.8494C78.6163 64.5395 78.8392 64.3425 79.1474 64.2805L82.2731 63.5478L81.9912 60.6195L81.982 60.5561C81.9047 60.1718 81.6726 59.0038 80.2199 58.8785C74.6331 58.4047 73.3377 57.5342 71.9794 56.6127C71.9768 56.6086 71.9755 56.6044 71.9741 56.6003L71.9663 56.6044L71.8784 56.5438C70.427 55.5576 68.9861 55.5494 68.8445 55.5535C67.2619 55.5549 65.2598 56.2133 65.0959 56.2684C64.6134 56.4171 64.1611 56.5686 63.7245 56.716C61.9741 57.3069 60.4624 57.8193 57.924 57.7394L57.4612 57.7256L57.3419 58.1953C57.2501 58.5575 56.5395 61.5065 57.2252 63.4004C56.6103 63.9086 56.6116 64.4968 56.6142 64.5766C56.6391 65.224 56.4936 65.3838 56.4464 65.4361C56.1527 65.7543 55.1798 65.797 54.3604 65.797H54.051L53.8753 66.0504C53.3705 66.7818 52.2783 66.9526 51.5795 66.7653C51.2714 65.7832 51.2635 65.0326 51.5598 64.5849C51.9099 64.056 52.652 63.9982 52.9549 63.9982H53.1305C53.8726 63.9982 54.4758 63.3604 54.4758 62.5767V57.2986C54.7026 56.9322 54.8835 56.5094 55.0422 56.0342C56.2681 55.8276 57.2069 54.7353 57.2069 53.4213C57.2069 52.9172 57.0653 52.4296 56.8096 52.0137C57.9437 51.4407 58.9126 50.2699 58.9126 48.7341C58.9126 47.1998 58.1771 46.4959 57.4796 46.0345C57.6762 45.445 58.0014 44.4092 58.2217 43.3665L59.2024 39.6752C59.6416 38.2276 60.7876 37.2937 62.1249 37.2937H79.403C78.6714 38.3749 77.633 38.8859 76.1934 38.8859H65.7384L65.1917 40.1146H74.5623C73.8255 41.3445 72.7477 41.9244 71.2176 41.9244H64.4233L63.8779 43.153H69.9393C69.205 44.3376 68.1391 44.8968 66.6365 44.8968H62.9326L62.3871 46.1254H66.2694C66.3048 46.1764 66.4018 46.3623 66.4018 46.8609C66.4018 47.6488 65.7699 48.292 64.9937 48.292C64.7262 48.292 64.4994 48.2273 64.0995 48.0565C63.9277 47.9793 63.756 47.9036 63.5842 47.8278L62.6835 48.6763C62.8526 48.752 63.0204 48.8278 63.1896 48.9022V48.9036C63.9697 49.2575 64.4037 49.4435 64.9937 49.4435C65.7082 49.4435 66.3533 49.1322 66.8096 48.6363C67.4756 48.6804 68.5482 48.7741 69.5879 48.8636C70.8295 48.971 72.003 49.0716 72.6087 49.106C72.9129 49.1226 73.1974 49.1377 73.4688 49.1515C73.9841 49.1777 74.4561 49.2024 74.9268 49.2383C77.2855 53.2616 78.4944 53.7905 83.0611 54.3648C83.3902 54.9846 83.6878 55.6389 83.9697 56.2987V64.1304L83.971 64.1758C83.9959 64.5367 83.9959 64.6579 83.95 64.724C83.7914 64.9417 83.086 65.2502 82.8408 65.3562L78.9913 66.881C78.4813 66.1551 78.2977 65.3962 78.501 64.8494ZM77.6684 66.9774H70.0573L73.3194 63.3604C73.9776 62.6456 74.1873 61.7861 73.9107 60.9418C73.752 60.4542 73.322 59.5217 72.8736 58.5644C74.1677 59.1966 76.1304 59.7641 80.1241 60.103C80.6053 60.1443 80.7325 60.3164 80.8282 60.7765L81.0039 62.5863L78.9166 63.0767C78.2164 63.2213 77.6671 63.7048 77.4088 64.4045C77.123 65.1758 77.22 66.0849 77.6684 66.9774ZM63.9408 66.9774C63.7297 66.1069 63.8163 65.4127 64.1939 64.9582C64.5544 64.5243 65.1091 64.3921 65.5011 64.4513L67.7261 64.8852L67.7825 64.8948H68.0919L69.6639 63.1153L69.6783 63.0987C69.9471 62.7695 70.764 61.7751 69.9301 60.5051L67.8283 56.8675C68.1771 56.8152 68.5259 56.7835 68.8484 56.7835L68.8628 56.7821C68.8733 56.7835 69.9275 56.767 71.0564 57.457C71.2084 57.8014 71.4208 58.2545 71.6582 58.7586C72.0987 59.698 72.6481 60.8674 72.8015 61.3398C72.85 61.4886 72.9981 61.939 72.4724 62.5106L68.4446 66.9774H63.9408ZM63.3102 64.151C62.8867 64.6607 62.4737 65.5504 62.7411 66.9774H55.5758C56.3454 66.8975 56.9053 66.7074 57.2908 66.286C57.7602 65.7736 57.8021 65.0725 57.7864 64.5725C57.8021 64.5284 57.8795 64.359 58.2309 64.1924L58.8484 63.8962L58.4773 63.2984C57.865 62.3095 58.1325 60.1498 58.3698 58.9763H58.4249C60.8544 58.9763 62.4265 58.446 64.0837 57.8854C64.5164 57.7394 64.9622 57.5893 65.4329 57.4446L65.4473 57.4391C65.4565 57.4364 65.9416 57.2752 66.6011 57.1141L68.9376 61.158L68.9572 61.1911C69.1906 61.5395 69.2195 61.7709 68.796 62.2888L67.6251 63.6166L65.7056 63.242L65.6886 63.2392C64.8219 63.0987 63.8884 63.4568 63.3102 64.151ZM50.5974 63.8838C50.0992 64.6373 50.0389 65.6758 50.4139 66.9774H49.2024V57.0466C49.6364 56.9777 50.1031 56.8468 50.5384 56.6389C50.5135 57.0714 50.4571 57.4143 50.3798 57.8716C50.3614 57.9777 50.3431 58.0892 50.3247 58.2077L50.208 58.9239H50.9016C51.9374 58.9239 52.711 58.7531 53.3049 58.4308V62.5767C53.3049 62.6828 53.2263 62.7695 53.1305 62.7695H52.9549C51.9256 62.7695 51.0668 63.1759 50.5974 63.8838ZM48.0302 65.9003L42.513 64.3921L36.9957 65.9003V55.5328L42.513 54.0288L48.0302 55.5328V65.9003ZM37.7038 66.9774L42.513 65.662L47.3222 66.9774H37.7038ZM39.6272 51.7134C39.8579 51.3443 40.385 51.0247 41.0445 51.1445L41.5441 51.2354L41.7014 50.7299C41.7434 50.595 41.7997 50.4944 41.8784 50.4173C42.0187 50.2782 42.2285 50.2121 42.4946 50.2203C43.2 50.2437 44.0837 50.7603 44.8009 51.5688C45.0618 51.8621 45.2926 52.2024 45.4984 52.5481C45.5391 52.6197 45.585 52.6982 45.6256 52.7671C45.6833 52.8635 45.7318 52.942 45.7423 52.9599C45.7685 53.0067 46.1225 53.5673 46.0976 53.6031C46.3402 53.245 46.5827 52.8869 46.8253 52.5302C46.8319 52.5205 46.8214 52.4875 46.8004 52.4406C46.7466 52.3181 46.6181 52.1059 46.5408 51.9792C46.5224 51.9489 46.5041 51.9186 46.4857 51.8883C46.4844 51.8856 46.4818 51.8828 46.4818 51.8801C46.4739 51.8677 46.4411 51.8139 46.3992 51.7451C46.3179 51.6115 46.2025 51.4186 46.1514 51.314L47.6775 48.7493C48.0591 48.8333 48.3829 48.8457 48.5376 48.8457H48.5757C50.7285 48.8457 52.9549 47.5413 52.9549 45.3568V45.3045C52.9286 44.7095 52.8224 44.142 52.7372 43.6861C52.6808 43.3858 52.6284 43.1021 52.6284 42.9602C52.6284 42.7219 52.9483 42.4561 53.4072 42.4561H54.1034L53.7887 40.5608C54.7681 39.8033 55.37 38.5691 55.3398 37.3901C56.3953 38.2413 57.14 39.7151 57.2763 41.2853C57.3157 41.7399 57.2305 42.3776 57.0902 43.0484L57.0141 43.328L57.0272 43.3321C56.7781 44.4257 56.4097 45.5524 56.2156 46.0855L56.0347 46.5786L56.4726 46.8389C57.2593 47.3058 57.7418 47.6474 57.7418 48.7341C57.7418 49.9807 56.6732 50.9366 55.6414 51.139L54.2306 51.4159L55.4237 52.2533C55.8066 52.5205 56.0347 52.9585 56.0347 53.4213C56.0347 54.2037 55.4014 54.8414 54.6226 54.8414H54.1729L54.0457 55.2753C53.6078 56.7738 53.1319 57.5066 51.6031 57.6623C51.6726 57.2077 51.7224 56.7697 51.7224 56.1499C51.7224 56.0039 51.7106 55.5962 51.704 55.4653L51.6359 54.0687L50.701 55.0659C50.3837 55.4047 49.8212 55.6733 49.2024 55.8014V54.5825L42.513 52.7588L40.1333 53.4076C39.6023 52.8497 39.4948 51.9283 39.6272 51.7134ZM46.8515 47.1997C46.8686 47.1157 46.9341 47.0482 47.0036 47.0496L48.0106 47.0841C49.2391 47.0386 50.4899 46.5069 50.6315 45.164C50.6315 44.2549 50.0166 43.3693 49.1486 43.3693C48.6845 43.3693 48.1627 43.7054 47.5766 44.1131C47.195 44.3803 46.8922 44.5896 46.664 44.5896C46.5093 44.5896 46.3835 44.4808 46.3835 44.3927C46.3835 44.3775 46.3861 44.3624 46.3913 44.3472L47.0351 43.4423L46.4792 43.0497C46.3599 42.9685 46.1763 42.8142 46.1553 42.6999C46.1448 42.6462 46.2196 42.5484 46.2432 42.5194C46.4739 42.2371 46.7388 41.8927 47.0049 41.4685C47.1701 41.2275 47.2645 41.0939 47.5399 41.0939C47.8126 41.0939 48.0342 41.3239 48.0342 41.6049C48.0342 41.7908 48.2295 41.9382 48.4708 41.9382C48.712 41.9382 48.8209 41.7578 48.9703 41.6049C48.9703 41.6049 49.5433 41.0512 49.2404 40.7895C48.893 40.492 47.5032 41.1008 47.8899 39.7606L47.987 39.5691C48.1351 39.3625 48.7999 38.846 50.1726 38.846C50.4322 38.846 50.7076 38.8653 50.9882 38.9011L51.194 38.9286L54.1086 37.0403C54.1349 37.105 54.1427 37.1505 54.1427 37.1505L54.1467 37.1697C54.2988 38.0967 53.7415 39.2 52.8526 39.7358L52.4973 39.9493L52.7267 41.3308C51.9781 41.5718 51.4562 42.2027 51.4562 42.9602C51.4562 43.2219 51.5139 43.5304 51.5873 43.9216C51.6686 44.3569 51.7604 44.8486 51.784 45.3486C51.784 46.7852 49.896 47.7369 48.299 47.6818L48.2584 47.6805C48.1915 47.6791 47.1754 47.5937 46.9263 47.3871C46.8764 47.3499 46.8384 47.2645 46.8515 47.1997ZM49.2666 37.6091C49.4515 37.3626 49.7504 37.0885 50.1084 36.8406C50.3877 36.6463 50.7521 36.4742 51.1088 36.3654C51.6739 36.1946 52.3229 36.1835 52.9942 36.3185L50.9265 37.6587C50.6695 37.6312 50.4165 37.616 50.1726 37.616C49.8226 37.616 49.5 37.6463 49.2037 37.6959C49.226 37.667 49.2457 37.6367 49.2666 37.6091ZM80.7705 37.2937H88.5665C87.8362 38.3749 86.7965 38.8859 85.3569 38.8859H79.6023C80.0612 38.4631 80.4506 37.9314 80.7705 37.2937ZM80.3798 41.9244H74.6253C75.134 41.4561 75.5575 40.8501 75.8957 40.1146H83.7258C82.989 41.3445 81.9112 41.9244 80.3798 41.9244ZM75.8 44.8968H70.0455C70.5371 44.4409 70.9501 43.8582 71.2832 43.153H79.1028C78.3685 44.3362 77.3026 44.8968 75.8 44.8968ZM77.123 49.5096C78.9454 49.825 80.4388 50.6872 81.5598 52.0715C81.7998 52.3676 82.0305 52.6831 82.2587 53.0233C79.1919 52.6004 78.1247 52.1321 76.4097 49.3967C76.6378 49.4283 76.8738 49.4655 77.123 49.5096ZM89.3598 62.7682C89.4725 62.9582 89.5682 63.1373 89.6613 63.3095C89.7754 63.5216 89.8881 63.7296 90.0193 63.9444C89.1316 63.8866 88.459 63.3701 87.8375 62.3935C88.4105 62.1828 89.1041 62.3315 89.3598 62.7682ZM82.0686 66.9774L83.2643 66.5022L83.2814 66.4953C84.9793 65.7571 85.2205 65.2956 85.1418 64.1097V59.3151C86.4333 62.7613 87.654 65.1841 90.1582 65.1827C90.4991 65.1827 90.8636 65.1386 91.2543 65.0463L92.2311 64.8136L91.5585 64.0353C91.1298 63.5381 90.9213 63.1524 90.6814 62.7062C90.583 62.523 90.4808 62.3329 90.3575 62.1236C89.7715 61.125 88.3777 60.7861 87.2488 61.3178C86.7362 60.249 86.2209 58.8564 85.6007 57.1375L85.4657 56.8097C85.3582 56.5535 85.2507 56.2945 85.1418 56.0356V55.9929H85.1235C84.7393 55.0852 84.3289 54.1748 83.8386 53.3208C83.3928 52.5453 82.9391 51.8759 82.4527 51.2754C81.1468 49.6639 79.4174 48.6625 77.3144 48.2975C75.8603 48.0455 74.8298 47.9917 73.5265 47.9242C73.2564 47.9118 72.9732 47.8953 72.673 47.8788C72.083 47.8444 70.8636 47.7411 69.6836 47.6378C68.889 47.5703 68.0735 47.5 67.4324 47.4504C67.4756 47.2604 67.5006 47.0648 67.5006 46.8609C67.5006 46.5868 67.477 46.343 67.4311 46.1254H75.8C77.9568 46.1254 79.5184 45.1227 80.4467 43.1517C82.5917 43.131 84.1428 42.109 85.0592 40.1146H85.3569C87.5897 40.1146 89.1867 39.0443 90.1019 36.9328L90.4795 36.0637H62.1249C60.2618 36.0637 58.6753 37.3419 58.0827 39.3157L58.0643 39.3846C57.5818 37.9727 56.6994 36.7744 55.5679 36.0678C53.9959 35.0844 52.2075 34.7552 50.7823 35.185C50.3116 35.3282 49.8422 35.5513 49.462 35.8158C49.1342 36.0417 48.6766 36.4067 48.3423 36.8543C47.9804 37.3419 47.6303 37.9328 47.3734 38.4851C47.2095 38.627 47.0836 38.7702 46.9958 38.9107L46.6562 39.5801L46.6378 39.6173C46.2327 40.5815 45.7384 41.2495 45.3529 41.7206C44.9714 42.1889 44.9517 42.6338 45.0028 42.9244C45.0592 43.2412 45.2218 43.5015 45.3949 43.6971L45.3844 43.715C45.2716 43.9202 45.2126 44.1544 45.2126 44.3927C45.2126 45.1778 45.8629 45.7728 46.664 45.7728C47.2462 45.7728 47.7221 45.4877 48.2256 45.1378C48.4301 44.9946 48.9716 44.6172 49.1486 44.5965C49.3728 44.5965 49.5774 44.8114 49.5774 45.0469C49.5774 45.6902 48.7868 46.0372 48.2204 46.0799L47.0692 46.2094C46.2405 46.2921 45.8472 46.7535 45.8472 47.1653C45.8472 47.5799 46.036 47.8127 46.1684 47.9518L46.2537 48.0427L46.546 48.3168L45.3241 50.3829C44.4535 49.5358 43.4347 49.022 42.5313 48.9931C41.9479 48.9724 41.4431 49.157 41.0721 49.5261C40.9645 49.6336 40.8701 49.7561 40.7889 49.8898H40.7679C39.8029 49.8898 39.0267 50.4324 38.6465 51.0426C38.2335 51.7093 38.3816 52.8621 38.9061 53.7423L35.8236 54.5825V70.0627H92.3609V66.9774H82.0686Z"
          fill="var(--current-color-1)"/>
    <path d="M38.2185 58.3941L41.9054 57.3886V56.1185L38.2185 57.1241V58.3941Z" fill="var(--current-color-1)"/>
    <path d="M46.8084 57.1246L43.1215 56.1191V57.3877L46.8084 58.3946V57.1246Z" fill="var(--current-color-1)"/>
    <path d="M46.8084 59.6753L43.1215 58.6711V59.9411L46.8084 60.9453V59.6753Z" fill="var(--current-color-1)"/>
    <path d="M38.2185 60.9454L41.9054 59.9413V58.6699L38.2185 59.6754V60.9454Z" fill="var(--current-color-1)"/>
    <path d="M46.8084 62.2287L43.1215 61.2218V62.4918L46.8084 63.4973V62.2287Z" fill="var(--current-color-1)"/>
    <path d="M38.2185 63.4976L41.9054 62.4921V61.222L38.2185 62.229V63.4976Z" fill="var(--current-color-1)"/>
    <path d="M40.8938 87.3485L39.4217 92.9237H38.7779L37.686 89.1713C37.6534 89.0645 37.622 88.9577 37.5919 88.851C37.5643 88.7416 37.5379 88.6387 37.5128 88.5421C37.4877 88.4429 37.4664 88.3565 37.4488 88.2828C37.4337 88.2065 37.4224 88.1493 37.4149 88.1112C37.4099 88.1493 37.3998 88.2052 37.3848 88.2789C37.3722 88.3527 37.3547 88.4378 37.3321 88.5345C37.312 88.6311 37.2869 88.734 37.2568 88.8433C37.2292 88.9527 37.199 89.0632 37.1664 89.1751L36.1047 92.9237H35.4608L34 87.3485H34.6664L35.5512 90.8454C35.5813 90.9623 35.6089 91.078 35.634 91.1924C35.6616 91.3043 35.6855 91.4136 35.7056 91.5204C35.7282 91.6272 35.7482 91.7314 35.7658 91.8331C35.7834 91.9348 35.7997 92.0339 35.8148 92.1305C35.8273 92.0314 35.8436 91.9284 35.8637 91.8216C35.8838 91.7123 35.9051 91.6017 35.9277 91.4899C35.9528 91.378 35.9792 91.2649 36.0068 91.1505C36.0369 91.0361 36.0683 90.9217 36.1009 90.8073L37.0911 87.3485H37.75L38.7816 90.834C38.8168 90.9534 38.8494 91.0717 38.8795 91.1886C38.9096 91.3056 38.936 91.42 38.9586 91.5318C38.9837 91.6411 39.005 91.7466 39.0226 91.8483C39.0427 91.9475 39.0602 92.0416 39.0753 92.1305C39.0929 92.006 39.1142 91.875 39.1393 91.7377C39.1644 91.6005 39.1933 91.4568 39.2259 91.3068C39.261 91.1568 39.2987 91.0018 39.3389 90.8416L40.2236 87.3485H40.8938Z"
          fill="var(--current-color-1)"/>
    <path d="M43.2583 88.6679C43.6097 88.6679 43.9109 88.7467 44.1619 88.9044C44.4129 89.062 44.6049 89.2832 44.738 89.5679C44.871 89.8501 44.9375 90.1806 44.9375 90.5594V90.9522H42.0873C42.0949 91.4428 42.2154 91.8166 42.4488 92.0733C42.6822 92.3301 43.011 92.4585 43.4352 92.4585C43.6963 92.4585 43.9272 92.4343 44.128 92.386C44.3288 92.3377 44.5371 92.2665 44.753 92.1725V92.7292C44.5447 92.8233 44.3376 92.892 44.1318 92.9352C43.9285 92.9784 43.6875 93 43.4089 93C43.0123 93 42.6659 92.9186 42.3697 92.7559C42.0761 92.5907 41.8476 92.3492 41.6845 92.0314C41.5213 91.7136 41.4398 91.3246 41.4398 90.8645C41.4398 90.4145 41.5138 90.0255 41.6619 89.6976C41.8125 89.3671 42.0233 89.1128 42.2944 88.9349C42.568 88.7569 42.8893 88.6679 43.2583 88.6679ZM43.2508 89.1866C42.9169 89.1866 42.6509 89.2971 42.4526 89.5183C42.2543 89.7395 42.1363 90.0484 42.0986 90.445H44.2824C44.2799 90.1958 44.241 89.9772 44.1657 89.7891C44.0929 89.5984 43.9812 89.451 43.8306 89.3467C43.68 89.2399 43.4867 89.1866 43.2508 89.1866Z"
          fill="var(--current-color-1)"/>
    <path d="M47.5429 88.6755C48.0349 88.6755 48.4001 88.7874 48.6386 89.0111C48.877 89.2349 48.9962 89.592 48.9962 90.0827V92.9237H48.5407L48.4202 92.306H48.3901C48.2746 92.4585 48.1541 92.5869 48.0286 92.6911C47.9031 92.7928 47.7575 92.8703 47.5919 92.9237C47.4287 92.9746 47.2279 93 46.9895 93C46.7385 93 46.5151 92.9555 46.3193 92.8665C46.126 92.7775 45.9729 92.6428 45.8599 92.4623C45.7495 92.2818 45.6943 92.053 45.6943 91.7759C45.6943 91.3589 45.8574 91.0386 46.1837 90.8149C46.51 90.5912 47.007 90.4691 47.6747 90.4488L48.3863 90.4183V90.1628C48.3863 89.8018 48.3097 89.5488 48.1566 89.4039C48.0035 89.259 47.7877 89.1866 47.509 89.1866C47.2932 89.1866 47.0873 89.2183 46.8916 89.2819C46.6958 89.3454 46.51 89.4204 46.3343 89.5069L46.1423 89.0264C46.3281 88.9298 46.5414 88.8472 46.7824 88.7785C47.0233 88.7099 47.2769 88.6755 47.5429 88.6755ZM48.3788 90.8645L47.75 90.8912C47.2354 90.9115 46.8727 90.9967 46.6619 91.1467C46.4511 91.2967 46.3456 91.5089 46.3456 91.7835C46.3456 92.0225 46.4172 92.1992 46.5602 92.3136C46.7033 92.428 46.8928 92.4852 47.1288 92.4852C47.4952 92.4852 47.7952 92.3822 48.0286 92.1763C48.262 91.9704 48.3788 91.6615 48.3788 91.2496V90.8645Z"
          fill="var(--current-color-1)"/>
    <path d="M50.9126 92.9237H50.2839V86.99H50.9126V92.9237Z" fill="var(--current-color-1)"/>
    <path d="M53.567 92.4814C53.6699 92.4814 53.7754 92.4725 53.8833 92.4547C53.9912 92.4369 54.0791 92.4153 54.1468 92.3898V92.8818C54.074 92.9148 53.9724 92.9428 53.8419 92.9657C53.7139 92.9886 53.5884 93 53.4654 93C53.247 93 53.0487 92.9619 52.8705 92.8856C52.6923 92.8068 52.5492 92.6746 52.4413 92.489C52.3358 92.3034 52.2831 92.0466 52.2831 91.7187V89.2399H51.6958V88.931L52.2869 88.6832L52.5354 87.7756H52.9119V88.7442H54.1205V89.2399H52.9119V91.6996C52.9119 91.9615 52.9709 92.1572 53.0889 92.2869C53.2093 92.4165 53.3687 92.4814 53.567 92.4814Z"
          fill="var(--current-color-1)"/>
    <path d="M55.6077 86.99V88.7633C55.6077 88.8649 55.6052 88.9679 55.6001 89.0721C55.5951 89.1738 55.5863 89.2679 55.5738 89.3543H55.6152C55.7006 89.2069 55.8085 89.0836 55.939 88.9844C56.072 88.8827 56.2226 88.8065 56.3908 88.7556C56.559 88.7022 56.7372 88.6755 56.9255 88.6755C57.2568 88.6755 57.5329 88.7289 57.7538 88.8357C57.9772 88.9425 58.1441 89.1077 58.2545 89.3315C58.3675 89.5552 58.4239 89.845 58.4239 90.2009V92.9237H57.8065V90.2429C57.8065 89.8946 57.7274 89.634 57.5693 89.4611C57.4137 89.2882 57.1739 89.2018 56.8501 89.2018C56.5439 89.2018 56.2992 89.2615 56.116 89.381C55.9352 89.498 55.8047 89.6709 55.7244 89.8997C55.6466 90.1285 55.6077 90.4081 55.6077 90.7386V92.9237H54.9827V86.99H55.6077Z"
          fill="var(--current-color-1)"/>
    <path d="M64.9149 91.4403C64.9149 91.7708 64.8333 92.053 64.6702 92.2869C64.5095 92.5182 64.2836 92.6949 63.9925 92.817C63.7013 92.939 63.3587 93 62.9646 93C62.7563 93 62.5592 92.9898 62.3735 92.9695C62.1877 92.9492 62.0171 92.9199 61.8614 92.8818C61.7058 92.8436 61.569 92.7966 61.4511 92.7407V92.1191C61.6393 92.1979 61.869 92.2716 62.1401 92.3403C62.4111 92.4064 62.6948 92.4394 62.991 92.4394C63.2671 92.4394 63.5005 92.4026 63.6913 92.3288C63.882 92.2526 64.0264 92.1445 64.1242 92.0047C64.2246 91.8623 64.2748 91.692 64.2748 91.4937C64.2748 91.303 64.2334 91.1441 64.1506 91.017C64.0678 90.8873 63.9297 90.7704 63.7364 90.6662C63.5457 90.5594 63.2846 90.4463 62.9533 90.3268C62.7199 90.2429 62.5141 90.1514 62.3358 90.0522C62.1576 89.9505 62.0083 89.8361 61.8878 89.709C61.7673 89.5819 61.6757 89.4344 61.613 89.2666C61.5527 89.0988 61.5226 88.9069 61.5226 88.6908C61.5226 88.3934 61.5966 88.1391 61.7447 87.9281C61.8953 87.7146 62.1024 87.5519 62.366 87.44C62.632 87.3256 62.937 87.2684 63.2809 87.2684C63.5745 87.2684 63.8456 87.2964 64.0941 87.3523C64.3451 87.4082 64.5748 87.4832 64.7831 87.5773L64.5836 88.134C64.3853 88.0501 64.1744 87.9802 63.9511 87.9243C63.7302 87.8684 63.5018 87.8404 63.2658 87.8404C63.0299 87.8404 62.8303 87.876 62.6672 87.9472C62.5065 88.0158 62.3835 88.1137 62.2982 88.2408C62.2129 88.3679 62.1702 88.5192 62.1702 88.6946C62.1702 88.8904 62.2103 89.0531 62.2907 89.1827C62.3735 89.3124 62.504 89.4281 62.6822 89.5298C62.863 89.6289 63.1014 89.7331 63.3976 89.8425C63.7214 89.962 63.9962 90.0891 64.2221 90.2238C64.448 90.356 64.62 90.5187 64.738 90.7119C64.8559 90.9026 64.9149 91.1454 64.9149 91.4403Z"
          fill="var(--current-color-1)"/>
    <path d="M69.5045 90.8263C69.5045 91.1695 69.4606 91.4759 69.3727 91.7454C69.2849 92.0149 69.1581 92.2424 68.9925 92.428C68.8268 92.6136 68.626 92.7559 68.3901 92.8551C68.1566 92.9517 67.8918 93 67.5956 93C67.3195 93 67.066 92.9517 66.8351 92.8551C66.6067 92.7559 66.4084 92.6136 66.2402 92.428C66.0745 92.2424 65.9453 92.0149 65.8524 91.7454C65.762 91.4759 65.7169 91.1695 65.7169 90.8263C65.7169 90.3687 65.7934 89.9797 65.9465 89.6594C66.0996 89.3365 66.318 89.0912 66.6017 88.9234C66.8878 88.7531 67.2279 88.6679 67.622 88.6679C67.9985 88.6679 68.3273 88.7531 68.6084 88.9234C68.8921 89.0938 69.1117 89.3404 69.2673 89.6632C69.4254 89.9836 69.5045 90.3713 69.5045 90.8263ZM66.3645 90.8263C66.3645 91.1619 66.4084 91.453 66.4962 91.6996C66.5841 91.9462 66.7196 92.1369 66.9029 92.2716C67.0861 92.4064 67.322 92.4737 67.6107 92.4737C67.8968 92.4737 68.1315 92.4064 68.3148 92.2716C68.5005 92.1369 68.6373 91.9462 68.7252 91.6996C68.813 91.453 68.8569 91.1619 68.8569 90.8263C68.8569 90.4933 68.813 90.206 68.7252 89.9645C68.6373 89.7204 68.5018 89.5323 68.3185 89.4001C68.1353 89.2679 67.8981 89.2018 67.6069 89.2018C67.1777 89.2018 66.8627 89.3454 66.6619 89.6327C66.4636 89.92 66.3645 90.3179 66.3645 90.8263Z"
          fill="var(--current-color-1)"/>
    <path d="M71.2139 92.9237H70.5851V86.99H71.2139V92.9237Z" fill="var(--current-color-1)"/>
    <path d="M75.9428 88.7442V92.9237H75.4307L75.3404 92.3365H75.3065C75.2211 92.4814 75.1107 92.6034 74.9751 92.7025C74.8396 92.8017 74.6865 92.8754 74.5158 92.9237C74.3476 92.9746 74.1682 93 73.9774 93C73.6511 93 73.3775 92.9466 73.1566 92.8398C72.9357 92.7331 72.7688 92.5678 72.6559 92.3441C72.5454 92.1204 72.4902 91.8331 72.4902 91.4822V88.7442H73.1227V91.4365C73.1227 91.7848 73.2006 92.0454 73.3562 92.2182C73.5118 92.3886 73.749 92.4737 74.0678 92.4737C74.374 92.4737 74.6175 92.4153 74.7982 92.2983C74.9814 92.1814 75.1132 92.0098 75.1935 91.7835C75.2738 91.5547 75.314 91.275 75.314 90.9445V88.7442H75.9428Z"
          fill="var(--current-color-1)"/>
    <path d="M78.5971 92.4814C78.7001 92.4814 78.8055 92.4725 78.9134 92.4547C79.0213 92.4369 79.1092 92.4153 79.177 92.3898V92.8818C79.1042 92.9148 79.0025 92.9428 78.872 92.9657C78.744 92.9886 78.6185 93 78.4955 93C78.2771 93 78.0788 92.9619 77.9006 92.8856C77.7224 92.8068 77.5793 92.6746 77.4714 92.489C77.366 92.3034 77.3133 92.0466 77.3133 91.7187V89.2399H76.7259V88.931L77.317 88.6832L77.5655 87.7756H77.942V88.7442H79.1506V89.2399H77.942V91.6996C77.942 91.9615 78.001 92.1572 78.119 92.2869C78.2395 92.4165 78.3988 92.4814 78.5971 92.4814Z"
          fill="var(--current-color-1)"/>
    <path d="M80.6378 88.7442V92.9237H80.0128V88.7442H80.6378ZM80.3328 87.1807C80.4357 87.1807 80.5236 87.215 80.5964 87.2836C80.6717 87.3497 80.7093 87.454 80.7093 87.5963C80.7093 87.7362 80.6717 87.8404 80.5964 87.909C80.5236 87.9777 80.4357 88.012 80.3328 88.012C80.2249 88.012 80.1345 87.9777 80.0617 87.909C79.9915 87.8404 79.9563 87.7362 79.9563 87.5963C79.9563 87.454 79.9915 87.3497 80.0617 87.2836C80.1345 87.215 80.2249 87.1807 80.3328 87.1807Z"
          fill="var(--current-color-1)"/>
    <path d="M85.5211 90.8263C85.5211 91.1695 85.4772 91.4759 85.3893 91.7454C85.3015 92.0149 85.1747 92.2424 85.009 92.428C84.8434 92.6136 84.6426 92.7559 84.4066 92.8551C84.1732 92.9517 83.9084 93 83.6122 93C83.3361 93 83.0826 92.9517 82.8517 92.8551C82.6232 92.7559 82.4249 92.6136 82.2568 92.428C82.0911 92.2424 81.9618 92.0149 81.869 91.7454C81.7786 91.4759 81.7334 91.1695 81.7334 90.8263C81.7334 90.3687 81.81 89.9797 81.9631 89.6594C82.1162 89.3365 82.3346 89.0912 82.6182 88.9234C82.9044 88.7531 83.2445 88.6679 83.6386 88.6679C84.0151 88.6679 84.3439 88.7531 84.625 88.9234C84.9086 89.0938 85.1283 89.3404 85.2839 89.6632C85.442 89.9836 85.5211 90.3713 85.5211 90.8263ZM82.381 90.8263C82.381 91.1619 82.4249 91.453 82.5128 91.6996C82.6007 91.9462 82.7362 92.1369 82.9194 92.2716C83.1027 92.4064 83.3386 92.4737 83.6273 92.4737C83.9134 92.4737 84.1481 92.4064 84.3313 92.2716C84.5171 92.1369 84.6539 91.9462 84.7417 91.6996C84.8296 91.453 84.8735 91.1619 84.8735 90.8263C84.8735 90.4933 84.8296 90.206 84.7417 89.9645C84.6539 89.7204 84.5183 89.5323 84.3351 89.4001C84.1519 89.2679 83.9147 89.2018 83.6235 89.2018C83.1943 89.2018 82.8793 89.3454 82.6785 89.6327C82.4802 89.92 82.381 90.3179 82.381 90.8263Z"
          fill="var(--current-color-1)"/>
    <path d="M88.5557 88.6679C89.0452 88.6679 89.4154 88.79 89.6664 89.034C89.9174 89.2755 90.0429 89.6645 90.0429 90.2009V92.9237H89.4254V90.2429C89.4254 89.8946 89.3464 89.634 89.1883 89.4611C89.0326 89.2882 88.7929 89.2018 88.4691 89.2018C88.0123 89.2018 87.691 89.3327 87.5053 89.5946C87.3195 89.8564 87.2267 90.2365 87.2267 90.7348V92.9237H86.6017V88.7442H87.1062L87.2003 89.3467H87.2342C87.322 89.1993 87.4337 89.076 87.5693 88.9768C87.7048 88.8751 87.8567 88.7989 88.0248 88.748C88.193 88.6946 88.37 88.6679 88.5557 88.6679Z"
          fill="var(--current-color-1)"/>
    <path d="M94 91.7797C94 92.0466 93.9335 92.2716 93.8004 92.4547C93.6699 92.6352 93.4817 92.7712 93.2357 92.8627C92.9922 92.9542 92.7011 93 92.3622 93C92.0735 93 91.8238 92.9771 91.6129 92.9314C91.4021 92.8856 91.2176 92.8208 91.0595 92.7369V92.1534C91.2277 92.2373 91.4285 92.3136 91.6619 92.3822C91.8953 92.4509 92.1338 92.4852 92.3773 92.4852C92.7337 92.4852 92.9922 92.4267 93.1529 92.3098C93.3135 92.1928 93.3938 92.0339 93.3938 91.8331C93.3938 91.7187 93.3612 91.6183 93.2959 91.5318C93.2332 91.4428 93.1265 91.3577 92.9759 91.2763C92.8253 91.1924 92.617 91.1009 92.3509 91.0018C92.0873 90.9001 91.8589 90.7996 91.6657 90.7005C91.4749 90.5988 91.3268 90.4755 91.2214 90.3306C91.1185 90.1857 91.067 89.9975 91.067 89.7662C91.067 89.4128 91.2076 89.1421 91.4887 88.9539C91.7723 88.7633 92.1438 88.6679 92.6032 88.6679C92.8517 88.6679 93.0838 88.6933 93.2997 88.7442C93.5181 88.7925 93.7214 88.8586 93.9096 88.9425L93.6988 89.4497C93.5281 89.376 93.3461 89.3137 93.1529 89.2628C92.9596 89.212 92.7625 89.1866 92.5617 89.1866C92.2731 89.1866 92.051 89.2349 91.8953 89.3315C91.7422 89.4281 91.6657 89.5603 91.6657 89.7281C91.6657 89.8577 91.7008 89.9645 91.7711 90.0484C91.8439 90.1323 91.9593 90.2111 92.1175 90.2848C92.2756 90.3586 92.4839 90.445 92.7425 90.5441C93.001 90.6407 93.2244 90.7412 93.4126 90.8454C93.6009 90.9471 93.7452 91.0717 93.8456 91.2191C93.9485 91.364 94 91.5509 94 91.7797Z"
          fill="var(--current-color-1)"/>
</svg>
