<svg id="logo" viewBox="0 0 128 128" fill="none" xmlns="http://www.w3.org/2000/svg">
    <path d="M20.9302 62.5099L22.3886 64.1172L20.9302 65.783L19.4471 64.1172L20.9302 62.5099Z"
          fill="var(--current-color-1)"/>
    <path d="M28.5305 62.2923H33.6001C33.7028 62.2923 33.785 62.2086 33.785 62.1039V61.1664C33.785 61.0617 33.7028 60.978 33.6001 60.978H29.7753V54.5532C29.7753 54.4486 29.6932 54.3648 29.5905 54.3648H28.5346C28.4319 54.3648 28.3498 54.4486 28.3498 54.5532V62.0998C28.3456 62.2044 28.4278 62.2923 28.5305 62.2923Z"
          fill="var(--current-color-1)"/>
    <path d="M41.4428 62.1751C41.4716 62.2421 41.5414 62.2881 41.6154 62.2881H42.7287C42.7903 62.2881 42.852 62.2546 42.8848 62.2002C42.9177 62.1458 42.9259 62.0788 42.8972 62.0202L39.5325 54.4737C39.5037 54.4067 39.438 54.3648 39.364 54.3648H38.3164C38.2425 54.3648 38.1768 54.4067 38.148 54.4779L34.7915 62.0244C34.7669 62.083 34.771 62.15 34.8039 62.2044C34.8367 62.2588 34.8983 62.2923 34.96 62.2923H36.0487C36.1226 62.2923 36.1883 62.2462 36.2212 62.1793L36.9853 60.4046H40.6787L41.4428 62.1751ZM37.5153 59.1615L38.83 56.1228L40.1446 59.1615H37.5153Z"
          fill="var(--current-color-1)"/>
    <path d="M49.6101 62.0998V59.2368H53.1391C53.2418 59.2368 53.324 59.1531 53.324 59.0485V58.1193C53.324 58.0146 53.2418 57.9309 53.1391 57.9309H49.6101V55.6791H53.5951C53.6978 55.6791 53.78 55.5954 53.78 55.4908V54.5532C53.78 54.4486 53.6978 54.3648 53.5951 54.3648H48.3694C48.2667 54.3648 48.1845 54.4486 48.1845 54.5532V62.0998C48.1845 62.2044 48.2667 62.2881 48.3694 62.2881H49.4293C49.5238 62.2923 49.6101 62.2044 49.6101 62.0998Z"
          fill="var(--current-color-1)"/>
    <path d="M57.2433 54.3648H56.1874C56.0847 54.3648 56.0026 54.4486 56.0026 54.5532V62.0998C56.0026 62.2044 56.0847 62.2881 56.1874 62.2881H57.2433C57.346 62.2881 57.4281 62.2044 57.4281 62.0998V54.5532C57.4281 54.4486 57.346 54.3648 57.2433 54.3648Z"
          fill="var(--current-color-1)"/>
    <path d="M66.9388 62.0998V54.5532C66.9388 54.4486 66.8566 54.3648 66.7539 54.3648H65.694C65.5913 54.3648 65.5091 54.4486 65.5091 54.5532V59.6428L61.3967 54.436C61.3597 54.39 61.3063 54.3648 61.2529 54.3648H60.3861C60.2834 54.3648 60.2012 54.4486 60.2012 54.5532V62.0998C60.2012 62.2044 60.2834 62.2881 60.3861 62.2881H61.446C61.5487 62.2881 61.6309 62.2044 61.6309 62.0998V57.0101L65.7433 62.217C65.7803 62.263 65.8337 62.2881 65.8871 62.2881H66.7539C66.8525 62.2923 66.9388 62.2044 66.9388 62.0998Z"
          fill="var(--current-color-1)"/>
    <path d="M75.825 62.2923H76.9342C76.9958 62.2923 77.0575 62.2588 77.0903 62.2044C77.1232 62.15 77.1314 62.083 77.1027 62.0244L73.738 54.4779C73.7092 54.4109 73.6435 54.369 73.5695 54.369H72.5219C72.448 54.369 72.3822 54.4109 72.3535 54.482L68.997 62.0286C68.9724 62.0872 68.9765 62.1542 69.0094 62.2086C69.0422 62.263 69.1039 62.2965 69.1655 62.2965H70.2542C70.3281 62.2965 70.3938 62.2504 70.4267 62.1835L71.1908 60.4088H74.8842L75.6483 62.1835C75.6812 62.2463 75.751 62.2923 75.825 62.2923ZM74.3501 59.1615H71.7249L73.0396 56.1228L74.3501 59.1615Z"
          fill="var(--current-color-1)"/>
    <path d="M85.6191 62.0998V54.5532C85.6191 54.4486 85.5369 54.3648 85.4342 54.3648H84.3743C84.2716 54.3648 84.1894 54.4486 84.1894 54.5532V59.6428L80.0771 54.436C80.0401 54.39 79.9867 54.3648 79.9333 54.3648H79.0664C78.9637 54.3648 78.8815 54.4486 78.8815 54.5532V62.0998C78.8815 62.2044 78.9637 62.2881 79.0664 62.2881H80.1264C80.2291 62.2881 80.3112 62.2044 80.3112 62.0998V57.0101L84.4236 62.217C84.4606 62.263 84.514 62.2881 84.5674 62.2881H85.4342C85.5328 62.2923 85.6191 62.2044 85.6191 62.0998Z"
          fill="var(--current-color-1)"/>
    <path d="M91.4118 62.376C92.6196 62.376 93.6755 61.9323 94.378 61.1245C94.4437 61.0492 94.4396 60.932 94.3698 60.8608L93.6796 60.1828C93.6426 60.1493 93.5974 60.1325 93.5481 60.1284C93.4988 60.1284 93.4495 60.1493 93.4166 60.187C92.8867 60.7562 92.2499 61.0324 91.4693 61.0324C89.8917 61.0324 88.7455 59.894 88.7455 58.3244C88.7455 56.7548 89.8917 55.6121 91.4693 55.6121C92.2581 55.6121 92.8949 55.8842 93.4166 56.4493C93.4495 56.4869 93.4988 56.5078 93.5481 56.5078C93.5974 56.512 93.6467 56.4911 93.6796 56.4534L94.3698 55.7754C94.4396 55.7042 94.4437 55.5912 94.378 55.5117C93.6796 54.7122 92.632 54.2728 91.4241 54.2728C89.0413 54.2728 87.3117 55.9763 87.3117 58.3244C87.3117 60.6348 89.0742 62.376 91.4118 62.376Z"
          fill="var(--current-color-1)"/>
    <path d="M97.9891 54.3648H96.9292C96.8265 54.3648 96.7443 54.4486 96.7443 54.5532V62.0998C96.7443 62.2044 96.8265 62.2881 96.9292 62.2881H97.9891C98.0918 62.2881 98.174 62.2044 98.174 62.0998V54.5532C98.1781 54.4486 98.0918 54.3648 97.9891 54.3648Z"
          fill="var(--current-color-1)"/>
    <path d="M106.653 60.9738H102.521V58.9145H106.05C106.152 58.9145 106.234 58.8308 106.234 58.7262V57.8096C106.234 57.7049 106.152 57.6212 106.05 57.6212H102.521V55.6833H106.506C106.608 55.6833 106.69 55.5996 106.69 55.4949V54.5574C106.69 54.4527 106.608 54.369 106.506 54.369H101.28C101.177 54.369 101.095 54.4527 101.095 54.5574V62.1039C101.095 62.2086 101.177 62.2923 101.28 62.2923H106.653C106.756 62.2923 106.838 62.2086 106.838 62.1039V61.1664C106.838 61.0576 106.756 60.9738 106.653 60.9738Z"
          fill="var(--current-color-1)"/>
    <path d="M114.295 62.2923H115.449C115.519 62.2923 115.581 62.2546 115.614 62.1877C115.647 62.1249 115.642 62.0495 115.601 61.9909L113.983 59.6554C114.969 59.2075 115.511 58.3411 115.511 57.1859C115.511 55.4447 114.254 54.3648 112.233 54.3648H109.344C109.242 54.3648 109.16 54.4486 109.16 54.5532V62.0998C109.16 62.2044 109.242 62.2881 109.344 62.2881H110.404C110.507 62.2881 110.589 62.2044 110.589 62.0998V59.9944H112.233C112.36 59.9944 112.483 59.986 112.606 59.9777L114.143 62.2086C114.176 62.2588 114.233 62.2923 114.295 62.2923ZM114.077 57.1859C114.077 58.4374 113.058 58.7011 112.2 58.7011H110.585V55.6833H112.2C113.054 55.6833 114.077 55.9428 114.077 57.1859Z"
          fill="var(--current-color-1)"/>
    <path d="M118.44 62.2923H123.814C123.916 62.2923 123.999 62.2086 123.999 62.1039V61.1664C123.999 61.0617 123.916 60.978 123.814 60.978H119.681V58.9187H123.21C123.313 58.9187 123.395 58.835 123.395 58.7304V57.8137C123.395 57.7091 123.313 57.6254 123.21 57.6254H119.681V55.6875H123.666C123.769 55.6875 123.851 55.6038 123.851 55.4991V54.5616C123.851 54.4569 123.769 54.3732 123.666 54.3732H118.44C118.337 54.3732 118.255 54.4569 118.255 54.5616V62.1081C118.255 62.2044 118.337 62.2923 118.44 62.2923Z"
          fill="var(--current-color-1)"/>
    <path d="M31.6528 66.4988H28.5305C28.4278 66.4988 28.3456 66.5825 28.3456 66.6871V74.2337C28.3456 74.3383 28.4278 74.422 28.5305 74.422H31.6528C34.1178 74.422 35.8391 72.7939 35.8391 70.4583C35.8391 68.1228 34.1178 66.4988 31.6528 66.4988ZM34.4095 70.4625C34.4095 72.0698 33.3043 73.1078 31.5912 73.1078H29.7794V67.813H31.5912C33.3002 67.813 34.4095 68.8552 34.4095 70.4625Z"
          fill="var(--current-color-1)"/>
    <path d="M43.3778 73.1078H39.2449V71.0485H42.7739C42.8766 71.0485 42.9588 70.9648 42.9588 70.8601V69.9435C42.9588 69.8389 42.8766 69.7551 42.7739 69.7551H39.2449V67.8172H43.2299C43.3326 67.8172 43.4148 67.7335 43.4148 67.6289V66.6913C43.4148 66.5867 43.3326 66.503 43.2299 66.503H38.0001C37.8974 66.503 37.8152 66.5867 37.8152 66.6913V74.2379C37.8152 74.3425 37.8974 74.4262 38.0001 74.4262H43.3778C43.4805 74.4262 43.5627 74.3425 43.5627 74.2379V73.3003C43.5627 73.1915 43.4805 73.1078 43.3778 73.1078Z"
          fill="var(--current-color-1)"/>
    <path d="M54.7002 73.1078H50.8754V66.6871C50.8754 66.5825 50.7933 66.4988 50.6906 66.4988H49.6347C49.532 66.4988 49.4499 66.5825 49.4499 66.6871V74.2337C49.4499 74.3383 49.532 74.422 49.6347 74.422H54.7043C54.8071 74.422 54.8892 74.3383 54.8892 74.2337V73.2961C54.8851 73.1915 54.8029 73.1078 54.7002 73.1078Z"
          fill="var(--current-color-1)"/>
    <path d="M55.3411 65.9798C54.8317 65.9798 54.4455 66.3774 54.4455 66.9006C54.4455 67.2313 54.6016 67.5159 54.8605 67.6749L54.5071 69.1315C54.4948 69.1901 54.5071 69.2487 54.54 69.2947C54.577 69.3408 54.6304 69.3659 54.6879 69.3659H55.3534C55.4315 69.3659 55.5055 69.3157 55.5301 69.2361L56.0395 67.7293C56.1792 67.3275 56.2203 67.1392 56.2203 66.9006C56.2162 66.3774 55.8423 65.9798 55.3411 65.9798Z"
          fill="var(--current-color-1)"/>
    <path d="M63.8617 73.1078H59.7288V71.0485H63.2578C63.3605 71.0485 63.4426 70.9648 63.4426 70.8601V69.9435C63.4426 69.8389 63.3605 69.7551 63.2578 69.7551H59.7288V67.8172H63.7138C63.8165 67.8172 63.8987 67.7335 63.8987 67.6289V66.6913C63.8987 66.5867 63.8165 66.503 63.7138 66.503H58.4881C58.3854 66.503 58.3032 66.5867 58.3032 66.6913V74.2379C58.3032 74.3425 58.3854 74.4262 58.4881 74.4262H63.8617C63.9644 74.4262 64.0466 74.3425 64.0466 74.2379V73.3003C64.0466 73.1915 63.9644 73.1078 63.8617 73.1078Z"
          fill="var(--current-color-1)"/>
    <path d="M69.4202 67.7503C70.209 67.7503 70.8458 68.0223 71.3716 68.5874C71.4045 68.625 71.4538 68.646 71.5031 68.646C71.5524 68.646 71.6017 68.6292 71.6345 68.5916L72.3206 67.9135C72.3905 67.8423 72.3987 67.7251 72.3288 67.6498C71.6304 66.8504 70.5828 66.4109 69.375 66.4109C66.9922 66.4109 65.2626 68.1144 65.2626 70.4625C65.2626 72.7687 67.0251 74.5099 69.3627 74.5099C70.5705 74.5099 71.6222 74.0663 72.3288 73.2585C72.3946 73.1831 72.3905 73.0659 72.3206 72.9948L71.6345 72.3167C71.5976 72.2832 71.5483 72.2623 71.5031 72.2623C71.4538 72.2623 71.4045 72.2832 71.3716 72.3209C70.8416 72.8901 70.2049 73.1664 69.4202 73.1664C67.8426 73.1664 66.6964 72.0279 66.6964 70.4583C66.6964 68.8887 67.8385 67.7503 69.4202 67.7503Z"
          fill="var(--current-color-1)"/>
    <path d="M80.6974 66.4988H79.6416C79.5389 66.4988 79.4567 66.5825 79.4567 66.6871V69.7426H75.5744V66.6871C75.5744 66.5825 75.4922 66.4988 75.3895 66.4988H74.3296C74.2269 66.4988 74.1447 66.5825 74.1447 66.6871V74.2337C74.1447 74.3383 74.2269 74.422 74.3296 74.422H75.3895C75.4922 74.422 75.5744 74.3383 75.5744 74.2337V71.061H79.4567V74.2337C79.4567 74.3383 79.5389 74.422 79.6416 74.422H80.6974C80.8001 74.422 80.8823 74.3383 80.8823 74.2337V66.6871C80.8823 66.5825 80.8001 66.4988 80.6974 66.4988Z"
          fill="var(--current-color-1)"/>
    <path d="M84.6331 66.4988H83.5773C83.4746 66.4988 83.3924 66.5825 83.3924 66.6871V74.2337C83.3924 74.3383 83.4746 74.422 83.5773 74.422H84.6331C84.7358 74.422 84.818 74.3383 84.818 74.2337V66.6871C84.818 66.5825 84.7358 66.4988 84.6331 66.4988Z"
          fill="var(--current-color-1)"/>
    <path d="M94.8545 74.1877C94.8217 74.1458 94.7682 74.1207 94.7148 74.1207C94.6738 74.1207 94.608 74.1416 94.5711 74.1835C94.2218 74.5769 93.8233 74.7694 93.355 74.7694C92.9894 74.7694 92.6525 74.6229 92.2992 74.3007C93.9712 73.7649 95.0353 72.2916 95.0353 70.4625C95.0353 68.1521 93.2687 66.4151 90.9229 66.4151C88.5647 66.4151 86.79 68.1563 86.79 70.4625C86.79 72.6516 88.3717 74.3383 90.5655 74.4974C91.6213 75.5898 92.3772 76 93.3468 76C94.1397 76 94.834 75.6693 95.3516 75.0499C95.4091 74.9787 95.4091 74.8783 95.3516 74.8071L94.8545 74.1877ZM93.6015 70.4625C93.6015 72.007 92.4471 73.1747 90.9188 73.1747C89.3535 73.1747 88.2155 72.0363 88.2155 70.4625C88.2155 68.8929 89.3535 67.7503 90.9188 67.7503C92.4512 67.7503 93.6015 68.9138 93.6015 70.4625Z"
          fill="var(--current-color-1)"/>
    <path d="M103.33 66.4988H102.303C102.2 66.4988 102.118 66.5825 102.118 66.6871V70.9355C102.118 72.4381 101.493 73.1706 100.208 73.1706C98.9299 73.1706 98.3096 72.4381 98.3096 70.9355V66.6871C98.3096 66.5825 98.2274 66.4988 98.1247 66.4988H97.0648C96.9621 66.4988 96.8799 66.5825 96.8799 66.6871V70.9773C96.8799 73.2208 98.0877 74.5099 100.199 74.5099C102.307 74.5099 103.519 73.2208 103.519 70.9773V66.6871C103.515 66.5825 103.433 66.4988 103.33 66.4988Z"
          fill="var(--current-color-1)"/>
    <path d="M107.216 66.4988H106.156C106.054 66.4988 105.972 66.5825 105.972 66.6871V74.2337C105.972 74.3383 106.054 74.422 106.156 74.422H107.216C107.319 74.422 107.401 74.3383 107.401 74.2337V66.6871C107.405 66.5825 107.319 66.4988 107.216 66.4988Z"
          fill="var(--current-color-1)"/>
    <path d="M115.449 73.1078H111.316V71.0485H114.845C114.948 71.0485 115.03 70.9648 115.03 70.8601V69.9435C115.03 69.8389 114.948 69.7551 114.845 69.7551H111.316V67.8172H115.301C115.404 67.8172 115.486 67.7335 115.486 67.6289V66.6913C115.486 66.5867 115.404 66.503 115.301 66.503H110.076C109.973 66.503 109.891 66.5867 109.891 66.6913V74.2379C109.891 74.3425 109.973 74.4262 110.076 74.4262H115.449C115.552 74.4262 115.634 74.3425 115.634 74.2379V73.3003C115.634 73.1915 115.552 73.1078 115.449 73.1078Z"
          fill="var(--current-color-1)"/>
    <path d="M123.966 74.1249L122.347 71.7893C123.333 71.3415 123.875 70.4751 123.875 69.3198C123.875 67.5787 122.618 66.4988 120.597 66.4988H117.709C117.606 66.4988 117.524 66.5825 117.524 66.6871V74.2337C117.524 74.3383 117.606 74.422 117.709 74.422H118.769C118.871 74.422 118.954 74.3383 118.954 74.2337V72.1284H120.597C120.724 72.1284 120.848 72.12 120.971 72.1116L122.507 74.3425C122.544 74.3927 122.598 74.422 122.659 74.422H123.814C123.884 74.422 123.945 74.3844 123.978 74.3174C124.011 74.2588 124.007 74.1835 123.966 74.1249ZM122.442 69.3198C122.442 70.5713 121.423 70.835 120.564 70.835H118.95V67.8172H120.564C121.423 67.813 122.442 68.0767 122.442 69.3198Z"
          fill="var(--current-color-1)"/>
    <path d="M59.5727 65.917H60.5258C60.5669 65.917 60.6079 65.9044 60.6408 65.8793L62.4197 64.4772C62.4813 64.4269 62.506 64.3432 62.4813 64.2637C62.4567 64.1883 62.3827 64.1339 62.3047 64.1339H61.0147C60.9654 64.1339 60.9202 64.1549 60.8873 64.1883L59.4494 65.5905C59.396 65.6449 59.3755 65.7245 59.4042 65.7998C59.4289 65.8709 59.4987 65.917 59.5727 65.917Z"
          fill="var(--current-color-1)"/>
    <path d="M102.89 53.7454C102.923 53.7705 102.964 53.783 103.005 53.783H103.958C104.037 53.783 104.102 53.737 104.131 53.6659C104.16 53.5947 104.143 53.511 104.086 53.4566L102.648 52.0544C102.615 52.0209 102.566 52 102.521 52H101.231C101.153 52 101.079 52.0502 101.054 52.1298C101.029 52.2051 101.054 52.293 101.116 52.3432L102.89 53.7454Z"
          fill="var(--current-color-1)"/>
    <path d="M13.4326 74.1165V73.631C13.4326 73.631 13.4326 73.2585 13.0423 73.112C12.7671 73.0073 12.8287 72.7436 13.0423 72.5344C13.3052 72.2748 12.9848 71.986 12.5616 71.8354C12.1426 71.6805 10.9142 71.1029 10.9142 70.6174C10.9142 70.1277 11.4524 69.9477 11.4524 69.9477C11.4524 69.9477 10.0433 67.9344 9.83375 63.481C9.83375 63.481 10.2446 63.4642 10.8526 63.3303C11.4401 63.2006 11.6455 63.0917 10.9964 62.8364C10.3473 62.5811 10.1131 62.5183 10.1131 62.5183C10.1131 62.5183 10.1131 61.8528 10.1706 61.1831C10.2281 60.5176 10.3432 60.0823 10.7376 59.4712C11.1361 58.8643 11.4771 58.0816 10.7663 57.7049C10.0556 57.3282 9.17232 57.211 9.17232 57.211L9.51331 56.7464L8.99977 56.1646H9.94057V55.2354H8.99977L9.45579 54.8587V54.3648L8.7163 54.1639L7.97681 54.3648V54.8587L8.43283 55.2354H7.49203V56.1646H8.43283L7.9193 56.7464L8.26028 57.211C8.26028 57.211 7.377 57.3282 6.66627 57.7049C5.95554 58.0816 6.29653 58.8643 6.69503 59.4712C7.09353 60.0781 7.20856 60.5134 7.26197 61.1831C7.31949 61.8486 7.31949 62.5183 7.31949 62.5183C7.31949 62.5183 7.08532 62.5811 6.43621 62.8364C5.7871 63.0917 5.99251 63.1964 6.58 63.3303C7.18802 63.4642 7.59885 63.481 7.59885 63.481C7.38933 67.9302 5.98019 69.9477 5.98019 69.9477C5.98019 69.9477 6.51837 70.1318 6.51837 70.6174C6.51837 71.1029 5.29 71.6847 4.87095 71.8354C4.45191 71.986 4.13147 72.279 4.39029 72.5344C4.60392 72.7436 4.66554 73.0073 4.39029 73.112C4 73.2585 4 73.631 4 73.631V74.1165H13.4326Z"
          fill="var(--current-color-1)"/>
</svg>
