<svg id="logo" viewBox="0 0 266 70" fill="none" xmlns="http://www.w3.org/2000/svg">
    <path d="M67.6457 15.3341V34.9944H79.8703V31.6239H71.3665V15.3341H67.6457Z" fill="var(--current-color-1)"/>
    <path d="M94.9067 34.9943L93.4456 30.361H87.0879L85.63 34.9943H81.6191L88.4077 15.334H92.1289L98.9144 34.9943H94.9067ZM90.2677 20.1661L88.1484 26.9884H92.3869L90.2677 20.1661Z"
          fill="var(--current-color-1)"/>
    <path d="M109.935 15.3341H122.619V18.7067H113.657V23.1966H120.875V26.5678H113.657V34.995H109.935V15.3341Z"
          fill="var(--current-color-1)"/>
    <path d="M154.896 34.9943L153.434 30.361H147.079L145.618 34.9943H141.609L148.394 15.334H152.117L158.904 34.9943H154.896ZM150.256 20.1661L148.136 26.9884H152.376L150.256 20.1661Z"
          fill="var(--current-color-1)"/>
    <path d="M172.277 15.3341H175.999V34.995H172.077L164.72 22.02V34.995H160.997V15.3341H164.919L172.277 28.3107V15.3341Z"
          fill="var(--current-color-1)"/>
    <path d="M193.275 21.9068C192.387 19.6321 190.755 18.4809 188.323 18.4809C186.69 18.4809 185.315 19.0441 184.226 20.1916C183.168 21.345 182.624 23.0024 182.624 25.1646C182.624 27.3282 183.168 28.9864 184.226 30.1353C185.315 31.2888 186.69 31.8482 188.323 31.8482C190.755 31.8482 192.387 30.6993 193.275 28.424L196.626 29.2654C195.682 33.0572 192.675 35.2208 188.323 35.2208C185.659 35.2208 183.428 34.3216 181.593 32.5525C179.758 30.7803 178.842 28.3106 178.842 25.1646C178.842 22.02 179.758 19.5466 181.593 17.7797C183.428 16.0068 185.659 15.1099 188.323 15.1099C192.675 15.1099 195.682 17.2757 196.626 21.0631L193.275 21.9068Z"
          fill="var(--current-color-1)"/>
    <path d="M210.901 34.9943L209.442 30.361H203.084L201.625 34.9943H197.619L204.404 15.334H208.124L214.91 34.9943H210.901ZM206.265 20.1661L204.145 26.9884H208.382L206.265 20.1661Z"
          fill="var(--current-color-1)"/>
    <path d="M221.601 34.9942H217.876V15.3339H221.601V34.9942Z" fill="var(--current-color-1)"/>
    <path d="M234.355 20.559C233.642 19.1858 232.695 18.4809 231.581 18.4809C230.464 18.4809 229.661 19.2391 229.661 20.2792C229.661 21.5138 231.035 22.4407 232.67 23.1966C235.073 24.2398 238.253 25.6985 238.223 29.099C238.223 32.9162 235.702 35.2208 231.809 35.2208C230.063 35.2208 228.545 34.6868 227.286 33.6489C226.023 32.5786 225.223 31.2603 224.906 29.7146L227.912 27.8599C228.687 30.5282 230.002 31.8483 231.895 31.8483C233.642 31.8483 234.5 31.0067 234.5 29.2954C234.5 28.1442 233.212 27.245 231.522 26.5422C229.146 25.5575 226.052 24.0688 226.109 20.4481C226.109 18.9594 226.626 17.695 227.656 16.6563C228.714 15.6183 230.002 15.1098 231.581 15.1098C234.301 15.1098 236.22 16.2911 237.363 18.6775L234.355 20.559Z"
          fill="var(--current-color-1)"/>
    <path d="M241.315 15.3341V34.9944H254V31.6239H245.038V26.2047H251.994V22.836H245.038V18.7067H253.713V15.3341H241.315Z"
          fill="var(--current-color-1)"/>
    <path d="M134.826 26.3195C135.024 26.2865 135.208 26.2483 135.361 26.2002C137.768 25.4961 139.112 23.5326 139.112 20.9221C139.112 20.9086 139.112 20.8988 139.112 20.8861C139.097 17.536 136.894 15.3319 133.014 15.3319H125.712V34.989H129.435V26.5108H130.771L136.154 34.989H140.306L134.826 26.3195ZM133.044 23.1359H129.437L129.435 18.7015H129.437V18.6984H133.044C134.619 18.6984 135.393 19.4297 135.393 20.9183C135.393 22.407 134.619 23.1359 133.044 23.1359Z"
          fill="var(--current-color-1)"/>
    <path d="M185.597 36.5647H190.825V39.5982H185.597V36.5647Z" fill="var(--current-color-1)"/>
    <path d="M35.4508 34.3862L36.0781 35.0008L35.4508 35.6157L34.825 35.0008L35.4508 34.3862ZM33.4781 34.9875L33.4646 34.9999L35.4374 36.9355L35.4508 36.9486L37.4378 35.0008L35.4648 33.0652L35.4508 33.0514L33.4781 34.9875Z"
          fill="var(--current-color-1)"/>
    <path d="M49.448 30.4062C50.6997 30.4077 51.8751 30.8851 52.7604 31.7521C53.6445 32.62 54.1301 33.7742 54.1301 35.0009C54.1325 36.2274 53.6457 37.3808 52.7604 38.2491C51.8774 39.1154 50.7009 39.5923 49.448 39.5923C48.1951 39.5923 47.0199 39.1154 46.1369 38.2491L42.8257 35.0009L46.1381 31.7521C47.0229 30.8851 48.1976 30.4077 49.448 30.4062ZM49.448 40.5347C50.9574 40.5347 52.3767 39.9591 53.4393 38.9158C54.5042 37.8706 55.0938 36.4798 55.0938 35.0009C55.0938 33.5201 54.5042 32.1315 53.4393 31.0866C52.3744 30.04 50.9562 29.4647 49.448 29.4647C47.9404 29.4647 46.5222 30.04 45.4555 31.0858L41.4774 34.9874L41.4643 35.0009L45.4573 38.9158C46.5222 39.9591 47.9386 40.5347 49.448 40.5347Z"
          fill="var(--current-color-1)"/>
    <path d="M49.448 28.5389C51.2074 28.5403 52.8618 29.2118 54.1074 30.4319C55.352 31.6527 56.0375 33.2761 56.0375 35.0008C56.0364 36.7268 55.3508 38.3494 54.1074 39.5696C52.8659 40.7881 51.2104 41.4589 49.448 41.4589C47.6862 41.4589 46.0318 40.7881 44.7897 39.5696L40.8116 35.6678L40.7991 35.6547L40.1325 36.3079L40.1184 36.3217L44.1101 40.2366C45.5325 41.6319 47.4297 42.4004 49.448 42.4004C51.4681 42.4004 53.3636 41.6319 54.7876 40.2351C56.2134 38.8378 56.9975 36.9772 56.9975 34.9999C56.9975 33.0234 56.2117 31.1641 54.7863 29.7654C53.3604 28.3673 51.4651 27.5972 49.448 27.5972C47.4309 27.5972 45.5355 28.3673 44.1096 29.7654L36.1306 37.5892L36.1187 37.6032L36.7862 38.2573L36.7994 38.2703L44.791 30.4319C46.0342 29.2118 47.6892 28.5389 49.448 28.5389Z"
          fill="var(--current-color-1)"/>
    <path d="M32.798 35.6547L32.131 36.307L32.1169 36.321L40.11 44.1602C41.355 45.3817 42.0394 47.0037 42.0394 48.7298C42.0376 50.4558 41.3539 52.0786 40.1105 53.2979C38.8654 54.518 37.2104 55.19 35.4487 55.19C33.6911 55.19 32.0369 54.518 30.7934 53.2979C29.5507 52.0786 28.8667 50.4566 28.8667 48.7292C28.8667 47.0015 29.5507 45.3782 30.7934 44.1602L34.7721 40.2578L34.7858 40.2463L34.118 39.5914L34.1051 39.5776L30.1138 43.4917C27.171 46.3806 27.171 51.0783 30.1138 53.9641C31.5391 55.363 33.4334 56.1327 35.4478 56.1327H35.4507C37.4676 56.1327 39.3636 55.363 40.7901 53.9641C42.2154 52.5662 43.0005 50.707 43.0005 48.7298C43.0005 46.7517 42.2154 44.8919 40.7901 43.4917L32.8105 35.6679L32.798 35.6547Z"
          fill="var(--current-color-1)"/>
    <path d="M35.4508 42.2344L38.7629 45.4814C39.6476 46.3492 40.1356 47.5017 40.1338 48.7297C40.1356 49.9556 39.6476 51.1091 38.7629 51.9754C37.8787 52.8445 36.704 53.3215 35.4486 53.3215C34.1988 53.3215 33.0235 52.8445 32.1387 51.9768C31.2569 51.1112 30.7708 49.9571 30.7708 48.7297C30.7708 47.5001 31.2569 46.3471 32.1409 45.4814L35.4508 42.2344ZM31.4592 52.6424C32.5262 53.6897 33.9432 54.2653 35.4508 54.2661C36.9599 54.2653 38.3781 53.6897 39.4429 52.6424C40.5084 51.5989 41.0961 50.2091 41.0961 48.7292C41.0973 47.2497 40.5097 45.8592 39.4429 44.8127L35.4648 40.9109L35.4508 40.8987L31.4592 44.8127C29.2589 46.9714 29.2589 50.4842 31.4592 52.6424Z"
          fill="var(--current-color-1)"/>
    <path d="M38.1036 34.3458L38.7718 33.6926L38.7855 33.6803L30.7925 25.8403C29.5492 24.6204 28.8633 22.9983 28.8633 21.2723C28.8633 19.5479 29.5477 17.9251 30.7934 16.7035C32.0384 15.4827 33.6923 14.8105 35.4508 14.8105C37.2093 14.8105 38.8643 15.4827 40.1088 16.7035C42.6765 19.2225 42.6765 23.3227 40.1088 25.8411L36.1306 29.7435L36.1169 29.7568L36.7832 30.41L36.7976 30.4231L40.7889 26.5088C43.7325 23.6207 43.7325 18.9231 40.7889 16.0369C39.3636 14.6377 37.4688 13.868 35.4508 13.8672C33.4354 13.8672 31.5392 14.6377 30.1133 16.0369C28.6863 17.4365 27.9008 19.2958 27.9008 21.2723C27.9008 23.2496 28.6871 25.1082 30.1138 26.5088L38.1036 34.3458Z"
          fill="var(--current-color-1)"/>
    <path d="M34.7847 32.398L34.1165 31.7441L34.1036 31.731L26.1116 39.5697C24.8679 40.7895 23.2142 41.4626 21.4533 41.4626C19.6935 41.4626 18.0397 40.7895 16.7947 39.5697C15.5513 38.3487 14.8659 36.7261 14.8659 35C14.8659 33.2754 15.5505 31.6528 16.7958 30.4318C18.0377 29.2134 19.6921 28.5417 21.4533 28.5417C23.2152 28.5417 24.8699 29.2134 26.1116 30.4334L30.0897 34.3335L30.1034 34.3468L30.7707 33.6927L30.7851 33.6804L26.7938 29.7654C25.3687 28.369 23.4724 27.6002 21.4541 27.6002C19.4355 27.6002 17.5386 28.369 16.1163 29.7654C14.6907 31.1627 13.9059 33.022 13.9045 35C13.9045 36.9772 14.6892 38.8364 16.1163 40.2352C17.5428 41.6338 19.4385 42.4059 21.4533 42.4059C23.4686 42.4059 25.3654 41.6353 26.7925 40.2352L34.7705 32.4112L34.7847 32.398Z"
          fill="var(--current-color-1)"/>
    <path d="M21.4499 39.5937C20.201 39.5937 19.0268 39.1164 18.1435 38.249C17.2567 37.3808 16.7702 36.2275 16.7714 35.0009C16.7702 33.7742 17.2567 32.6215 18.142 31.7522C19.0253 30.8874 20.2025 30.41 21.4542 30.41C22.7073 30.41 23.8823 30.8874 24.7665 31.7522L28.077 35.0009L24.7665 38.249C23.8808 39.1164 22.7058 39.5937 21.4584 39.5937L21.4532 39.6119V39.5937H21.4499ZM21.4542 29.4667C19.9447 29.4667 18.5273 30.0415 17.4628 31.0867C16.3965 32.1315 15.8099 33.5214 15.8079 35.0009C15.8099 36.4792 16.3965 37.8692 17.4628 38.9157C18.5288 39.9606 19.9447 40.5369 21.4532 40.5369H21.4556C22.9623 40.5369 24.3802 39.9606 25.4467 38.9157L29.4248 35.0124L29.4383 34.9998L25.4451 31.0859C24.3813 30.0415 22.9638 29.4667 21.4542 29.4667Z"
          fill="var(--current-color-1)"/>
    <path d="M35.4508 27.7693L32.1376 24.5192C31.2539 23.6522 30.7681 22.4989 30.7681 21.2723C30.7681 20.0456 31.2539 18.8931 32.1376 18.0253C33.0235 17.1575 34.1988 16.68 35.4463 16.68H35.4562C36.704 16.68 37.8774 17.1575 38.7629 18.0246C40.5879 19.8151 40.5879 22.7295 38.7629 24.5208L35.4508 27.7693ZM39.4406 17.3574C38.3751 16.3117 36.9582 15.7362 35.4508 15.7362C33.9426 15.7362 32.5257 16.3117 31.4592 17.3589C30.3927 18.4031 29.8063 19.7929 29.807 21.2723C29.807 22.7515 30.394 24.1435 31.4592 25.1879L35.4374 29.0897L35.4508 29.1028L39.4417 25.1872C41.6421 23.0292 41.6421 19.5155 39.4406 17.3574Z"
          fill="var(--current-color-1)"/>
    <path d="M41.4559 42.8391C43.0613 44.4116 43.9431 46.5031 43.9431 48.7297C43.9431 50.9545 43.0613 53.046 41.4559 54.6182C39.8516 56.1926 37.72 57.0575 35.4507 57.0575C33.1842 57.0575 31.0508 56.1912 29.4463 54.6182C26.1356 51.37 26.1342 46.0862 29.445 42.8391L33.4247 38.9359L33.4378 38.9242L31.4636 36.9876L31.4509 36.974L27.4596 40.8898C25.8565 42.463 23.7233 43.3298 21.4532 43.3298C19.1858 43.3298 17.053 42.463 15.449 40.8898C13.8451 39.316 12.9611 37.2247 12.9611 35.0009C12.9611 32.7775 13.8444 30.6853 15.449 29.1101C17.0498 27.5407 19.1828 26.6745 21.4541 26.6745C23.7248 26.6745 25.858 27.5394 27.4596 29.1101L31.4377 33.0118L31.4509 33.0251L33.4247 31.0895L33.4378 31.077L29.4463 27.1629C27.8419 25.5892 26.9576 23.4978 26.9576 21.2723C26.9576 19.0485 27.8419 16.9562 29.4463 15.3817C31.0508 13.8095 33.1828 12.9438 35.4547 12.9438C37.72 12.9438 39.8516 13.8095 41.4559 15.3817C44.7676 18.6309 44.7676 23.9137 41.4577 27.1629L37.4778 31.0646L37.4646 31.077L39.4376 33.0133L39.4513 33.0251L43.4431 29.1109C45.0468 27.5378 47.1797 26.673 49.4498 26.673C51.7169 26.673 53.8497 27.5378 55.4535 29.1109C57.0571 30.6846 57.9412 32.7761 57.9412 35.0009C57.9412 37.2262 57.0571 39.3168 55.4535 40.8898C53.8527 42.4606 51.7192 43.3262 49.448 43.3262C47.1779 43.3262 45.0445 42.4606 43.4431 40.8898L39.465 36.988L39.4513 36.9758L37.4788 38.9113L37.4646 38.9242L41.4559 42.8391ZM56.1329 28.4438C54.3479 26.6937 51.9728 25.7297 49.448 25.7283C46.922 25.7297 44.548 26.6937 42.763 28.4444L39.4513 31.6923L38.8249 31.077L42.1373 27.8293C45.8224 24.2139 45.8224 18.3316 42.1373 14.716C40.3522 12.9651 37.9777 12.0007 35.4507 12C32.9242 12.0007 30.5505 12.9651 28.7664 14.716C26.9808 16.4669 25.9976 18.7963 25.9976 21.2723C25.9976 23.749 26.9808 26.0777 28.7664 27.8293L32.0767 31.077L31.4509 31.6923L28.1375 28.4438C26.3558 26.6957 23.9822 25.7328 21.4541 25.7328C18.9269 25.7328 16.5528 26.6957 14.7695 28.4438C12.9842 30.1953 12 32.524 12 34.9999C12 37.4788 12.9842 39.806 14.7695 41.5569C16.5546 43.3086 18.9293 44.2731 21.4569 44.2731C23.9807 44.2731 26.354 43.3086 28.139 41.5569L31.4505 38.3089L32.0781 38.9242L28.7664 42.1719C25.0809 45.7866 25.0809 51.6692 28.7664 55.286C30.5529 57.0362 32.9257 58 35.4507 58H35.4547C37.9795 58 40.3522 57.0362 42.1373 55.2852C43.9216 53.5337 44.9049 51.2042 44.9049 48.7292C44.9049 46.252 43.9216 43.9229 42.1373 42.1719L38.826 38.9242L39.4513 38.31L42.763 41.5569C44.5457 43.3058 46.9208 44.2679 49.448 44.2679C51.9758 44.2679 54.3515 43.3065 56.1329 41.5585C57.9185 39.8055 58.903 37.4759 58.903 34.9999C58.903 32.524 57.9185 30.1953 56.1329 28.4438Z"
          fill="var(--current-color-1)"/>
    <path d="M82.3631 47.1064H83.6353V55.0459H82.3631V47.1064Z" fill="var(--current-color-1)"/>
    <path d="M93.569 47.1064V55.046H92.2043L88.8854 49.3522V55.046H87.6132V47.1064H88.9778L92.2969 52.8228V47.1064H93.569Z"
          fill="var(--current-color-1)"/>
    <path d="M99.7896 55.046L97.0258 47.1065H98.3902L100.426 53.2994L102.461 47.1065H103.826L101.062 55.046H99.7896Z"
          fill="var(--current-color-1)"/>
    <path d="M111.851 47.1064V48.286H108.323V50.2369H111.168V51.4165H108.323V53.8665H111.966V55.046H107.051V47.1064H111.851Z"
          fill="var(--current-color-1)"/>
    <path d="M119.066 49.0232C118.742 48.422 118.338 48.1498 117.863 48.1498C117.343 48.1498 117.019 48.5467 117.019 49.0119C117.019 50.577 120.489 50.2708 120.489 52.7209C120.489 54.1727 119.413 55.1366 117.956 55.1366C116.534 55.1366 115.574 54.1953 115.284 52.925L116.325 52.2785C116.557 53.1632 117.031 53.9572 117.956 53.9572C118.684 53.9572 119.193 53.4693 119.193 52.7663C119.193 51.2122 115.747 51.5525 115.747 49.1026C115.747 47.9004 116.684 47.0155 117.863 47.0155C118.974 47.0155 119.667 47.6054 120.095 48.3541L119.066 49.0232Z"
          fill="var(--current-color-1)"/>
    <path d="M123.413 47.1064H129.219V48.286H126.952V55.046H125.68V48.286H123.413V47.1064Z"
          fill="var(--current-color-1)"/>
    <path d="M132.63 47.1064H133.902V55.0459H132.63V47.1064Z" fill="var(--current-color-1)"/>
    <path d="M143.835 47.1064V55.046H142.471L139.152 49.3522V55.046H137.88V47.1064H139.244L142.563 52.8228V47.1064H143.835Z"
          fill="var(--current-color-1)"/>
    <path d="M153.329 54.0591C153.04 54.547 152.346 55.1367 151.201 55.1367C149.304 55.1367 147.524 53.8666 147.524 51.0762C147.524 48.286 149.328 47.0155 151.27 47.0155C153.005 47.0155 154.173 48.0363 154.497 49.4655L153.329 49.8171C152.936 48.7171 152.23 48.1953 151.27 48.1953C149.883 48.1953 148.819 49.1481 148.819 51.0762C148.819 53.0612 149.883 53.9571 151.27 53.9571C152.543 53.9571 153.156 53.1065 153.259 52.1423H151.687V51.0422H154.532V55.046H153.421L153.329 54.0591Z"
          fill="var(--current-color-1)"/>
    <path d="M162.995 47.1064H168.801V48.286H166.534V55.046H165.262V48.286H162.995V47.1064Z"
          fill="var(--current-color-1)"/>
    <path d="M172.975 51.0761C172.975 53.0383 174.085 53.9572 175.392 53.9572C176.699 53.9572 177.809 53.0383 177.809 51.0761C177.809 49.1139 176.699 48.1952 175.392 48.1952C174.085 48.1952 172.975 49.1139 172.975 51.0761ZM179.104 51.0761C179.104 53.787 177.369 55.1366 175.392 55.1366C173.414 55.1366 171.68 53.787 171.68 51.0761C171.68 48.3654 173.414 47.0155 175.392 47.0155C177.369 47.0155 179.104 48.3654 179.104 51.0761Z"
          fill="var(--current-color-1)"/>
    <path d="M188.459 54.0591C188.17 54.547 187.476 55.1367 186.331 55.1367C184.435 55.1367 182.654 53.8666 182.654 51.0762C182.654 48.286 184.458 47.0155 186.401 47.0155C188.135 47.0155 189.303 48.0363 189.627 49.4655L188.459 49.8171C188.066 48.7171 187.361 48.1953 186.401 48.1953C185.013 48.1953 183.949 49.1481 183.949 51.0762C183.949 53.0612 185.013 53.9571 186.401 53.9571C187.673 53.9571 188.286 53.1065 188.389 52.1423H186.817V51.0422H189.662V55.046H188.552L188.459 54.0591Z"
          fill="var(--current-color-1)"/>
    <path d="M198.311 47.1064V48.286H194.784V50.2369H197.629V51.4165H194.784V53.8665H198.427V55.046H193.512V47.1064H198.311Z"
          fill="var(--current-color-1)"/>
    <path d="M201.791 47.1064H207.597V48.286H205.33V55.046H204.058V48.286H201.791V47.1064Z"
          fill="var(--current-color-1)"/>
    <path d="M211.007 47.1064H212.279V50.214H215.563V47.1064H216.836V55.046H215.563V51.3938H212.279V55.046H211.007V47.1064Z"
          fill="var(--current-color-1)"/>
    <path d="M225.612 47.1064V48.286H222.085V50.2369H224.93V51.4165H222.085V53.8665H225.728V55.046H220.813V47.1064H225.612Z"
          fill="var(--current-color-1)"/>
    <path d="M233.371 49.2955C233.371 48.5922 232.92 48.2861 232.307 48.2861H230.712V50.3049H232.307C232.92 50.3049 233.371 49.9985 233.371 49.2955ZM233.094 51.3939L235.43 55.046H233.927L231.648 51.4846H230.712V55.046H229.44V47.1065H232.273C233.799 47.1065 234.667 47.9457 234.667 49.2955C234.667 50.3844 234.1 51.1329 233.094 51.3939Z"
          fill="var(--current-color-1)"/>
</svg>
