<svg id="logo" viewBox="0 0 188 74" fill="none" xmlns="http://www.w3.org/2000/svg">
    <path fill-rule="evenodd" clip-rule="evenodd"
          d="M36.1338 62.0024C49.4625 62.0024 60.2676 50.8096 60.2676 37.0024C60.2676 23.1953 49.4625 12.0024 36.1338 12.0024C22.8051 12.0024 12 23.1953 12 37.0024C12 50.8096 22.8051 62.0024 36.1338 62.0024ZM118.134 37.0024C118.134 50.8096 107.329 62.0024 94 62.0024C80.6713 62.0024 69.8662 50.8096 69.8662 37.0024C69.8662 23.1953 80.6713 12.0024 94 12.0024C107.329 12.0024 118.134 23.1953 118.134 37.0024ZM176 37.0024C176 50.8096 165.195 62.0024 151.866 62.0024C138.538 62.0024 127.732 50.8096 127.732 37.0024C127.732 23.1953 138.538 12.0024 151.866 12.0024C165.195 12.0024 176 23.1953 176 37.0024ZM28.0443 28.4515L21.8191 46.5765H25.5487L29.9639 33.6504L33.8855 45.156C33.8855 45.156 34.2695 46.8038 35.6681 46.8038C36.8747 46.8038 37.2861 45.156 37.2861 45.156L41.2351 33.7072L45.6229 46.5765H49.2977L43.1273 28.4515C43.1273 28.4515 42.6611 26.6333 41.2077 26.6333C39.7817 26.6333 39.288 28.4515 39.288 28.4515L35.5858 39.3038L31.8562 28.4515C31.8562 28.4515 31.3626 26.6333 29.9639 26.6333C28.5653 26.6333 28.0443 28.4515 28.0443 28.4515ZM88.0475 33.6504L83.6322 46.5765V46.6049H79.93L86.1552 28.4799C86.1552 28.4799 86.7037 26.6617 88.0749 26.6617C89.4461 26.6617 89.9671 28.4799 89.9671 28.4799L93.6967 39.3322L97.3989 28.4799C97.3989 28.4799 97.8652 26.6617 99.3186 26.6617C100.745 26.6617 101.211 28.4799 101.211 28.4799L107.409 46.5765H103.734L99.346 33.7072L95.397 45.156C95.397 45.156 94.9582 46.8038 93.7516 46.8038C92.353 46.8038 91.9691 45.156 91.9691 45.156L88.0475 33.6504ZM156.387 42.4288L158.472 47.1731H162.64L159.925 41.0935C160.693 40.6958 161.433 40.2697 162.146 39.7867L160.693 37.0595C160.062 37.514 159.404 37.9117 158.691 38.281L153.59 26.8322C153.261 26.0935 152.795 25.3833 151.78 25.3833H151.753C150.738 25.3833 150.272 26.0935 149.943 26.8322C149.723 27.3151 141.112 47.1731 141.112 47.1731H145.226L147.255 42.4572C148.709 42.8265 150.217 43.0254 151.78 43.0254C153.371 43.0254 154.907 42.8265 156.387 42.4288ZM155.099 39.5595C154.029 39.7867 152.905 39.9288 151.753 39.9288C150.628 39.9288 149.532 39.7867 148.489 39.5595L151.753 31.9458L155.099 39.5595Z"
          fill="var(--current-color-1)"/>
</svg>
