<svg id="logo" viewBox="0 0 128 128" fill="none" xmlns="http://www.w3.org/2000/svg">
    <path d="M53.8152 44V50.0767C54.9159 49.6522 56.1097 49.417 57.3571 49.417C62.8493 49.417 67.3162 53.9349 67.3162 59.4879C67.3162 61.4347 66.7645 63.2515 65.8151 64.7944C67.1934 63.9932 68.9726 62.6641 70.5282 60.893C71.5702 59.7073 72.5075 58.3224 73.16 56.7704C72.1417 50.7062 67.7824 45.779 62.0668 44H53.8152ZM67.1485 44C70.2101 45.9834 72.6463 48.8685 74.0913 52.2807V44H67.1485ZM57.3571 51.6012C56.0849 51.6012 54.8828 51.9118 53.8205 52.4607C53.9233 58.9563 59.7819 63.6778 62.7599 65.167C64.2365 63.7314 65.1589 61.716 65.1589 59.4861C65.1589 55.1383 61.6594 51.6012 57.3571 51.6012Z"
          fill="var(--current-color-1)"/>
    <path d="M28.8578 74.0718C26.0423 74.0718 24 76.1754 24 79.0751C24 81.5264 25.4943 84 28.8313 84C32.1694 84 33.6626 81.519 33.6626 79.0609C33.6626 75.6134 31.2488 74.0718 28.8578 74.0718ZM63.6684 74.0718C60.8529 74.0718 58.8088 76.1754 58.8088 79.0751C58.8088 81.5264 60.3032 84 63.6402 84C66.9783 84 68.4715 81.519 68.4715 79.0609C68.4715 75.6134 66.0606 74.0718 63.6684 74.0718ZM36.6648 74.2448V83.7985H40.2667C41.6789 83.7985 42.8693 83.3424 43.708 82.4809C44.5559 81.6078 45.03 80.317 45.0063 78.9397C44.9665 76.6025 43.4851 74.2448 40.2667 74.2448H36.6648ZM48.0208 74.2448V83.7985H51.6227C53.035 83.7985 54.2253 83.3424 55.0641 82.4809C55.9119 81.6078 56.386 80.317 56.3623 78.9397C56.3226 76.6025 54.8412 74.2448 51.6227 74.2448H48.0208ZM74.7421 74.2448V83.7985H79.0849C81.3991 83.7985 82.6233 82.8403 82.6233 81.0258C82.6233 80.3879 82.235 79.2921 81.2157 78.863C81.937 78.4864 82.3305 77.8391 82.3305 77.0175C82.3305 75.2806 81.1169 74.2448 79.0849 74.2448H74.7421ZM85.6501 74.2448V83.8003H87.3293V79.9114H92.0213V83.8003H93.6882V74.2448H92.0213V78.3191H87.3293V74.2448H85.6501ZM97.2584 74.2575V83.7988H98.9376V80.1524H103.75V78.5601H98.9376V75.9158H104V74.2575H97.2584ZM28.856 75.6358C30.3044 75.6605 31.9958 76.5813 31.9958 79.0897C31.9958 80.701 31.1647 82.4223 28.8313 82.4223C26.5543 82.4223 25.703 80.6257 25.6669 79.0897C25.6669 76.9591 26.8894 75.6358 28.856 75.6358ZM63.6649 75.6358C65.1132 75.6605 66.8064 76.5813 66.8064 79.0897C66.8064 80.701 65.9736 82.4223 63.6402 82.4223C61.3632 82.4223 60.5118 80.6257 60.4757 79.0897C60.4757 76.9591 61.6983 75.6358 63.6649 75.6358ZM76.4108 75.7963H79.0849C80.1212 75.7963 80.6653 76.4237 80.6653 77.0445C80.6653 77.9323 79.8136 78.1196 79.099 78.1196H76.4108V75.7963ZM38.33 75.8766H40.2667C41.6485 75.8766 43.2818 76.6761 43.3394 78.9311C43.3619 79.86 43.0545 80.7245 42.498 81.3008C41.9516 81.8668 41.2014 82.1549 40.2667 82.1549H38.33V75.8766ZM49.6877 75.8766H51.6227C53.0044 75.8766 54.6378 76.6761 54.6954 78.9311C54.718 79.86 54.4123 80.7245 53.8558 81.3008C53.3094 81.8668 52.5574 82.1549 51.6227 82.1549H49.6877V75.8766ZM76.4108 79.6586H79.099C79.8113 79.6586 80.9423 80.0249 80.9423 81.0119C80.9423 82.1497 79.3954 82.2084 79.0849 82.2084H76.4108V79.6586Z"
          fill="var(--current-color-1)"/>
</svg>
