<svg id="logo" viewBox="0 0 128 128" fill="none" xmlns="http://www.w3.org/2000/svg">
    <path d="M16.2086 51.0003C17.858 51.0124 19.3887 51.3817 20.8007 52.1081C22.4164 52.9391 23.7259 54.1271 24.7293 55.672C24.9903 56.0734 25.2231 56.495 25.4277 56.9367C26.5075 59.2627 26.7144 61.7091 26.0485 64.2758C26.0243 64.2836 26.0075 64.2775 25.998 64.2577C25.7203 63.6683 25.3752 63.1235 24.9628 62.6232C25.2457 60.1063 24.6633 57.8827 23.2156 55.9524C22.9252 55.5645 22.6079 55.2044 22.2638 54.8722C21.0387 53.6881 19.6136 52.9302 17.9885 52.5984C15.8033 52.1524 13.7547 52.4892 11.8429 53.6089C11.4243 53.8539 11.0327 54.1264 10.6682 54.4261C9.56417 55.3332 8.72478 56.4446 8.14999 57.7605C7.48265 59.2884 7.25079 60.9093 7.45441 62.6232C7.11125 63.0571 6.79681 63.5419 6.51107 64.0775C6.48044 64.1348 6.4673 64.2001 6.47334 64.2649C6.47761 64.3134 6.45459 64.3473 6.40428 64.3666C5.74928 61.9263 5.89215 59.5736 6.83288 57.3086C7.01894 56.8606 7.23513 56.4301 7.48147 56.017C8.45684 54.3796 9.75948 53.1205 11.3894 52.2396C12.9419 51.4008 14.5483 50.9877 16.2086 51.0003Z"
          fill="var(--current-color-1)"/>
    <path d="M55.5362 53.0677C56.0816 53.2546 56.575 53.5358 57.0164 53.9111C57.7207 54.5097 58.0886 55.2778 58.1199 56.2153C58.1202 56.222 58.1191 56.2287 58.1168 56.2349C58.1145 56.2412 58.111 56.2469 58.1065 56.2517C58.102 56.2565 58.0965 56.2603 58.0905 56.263C58.0845 56.2656 58.078 56.2669 58.0715 56.2669H55.2863C55.271 56.2669 55.2563 56.261 55.2453 56.2503C55.2342 56.2395 55.2278 56.2249 55.2272 56.2095C55.2177 55.947 55.1503 55.7076 55.025 55.4911C54.9135 55.2979 54.7476 55.1262 54.5274 54.976C54.2659 54.7978 53.9763 54.6751 53.6588 54.6077C53.2715 54.5254 52.8616 54.5034 52.4292 54.5416C52.0894 54.5717 51.775 54.6564 51.4859 54.7959C51.1736 54.9465 50.9261 55.1487 50.7433 55.4025C50.5373 55.6887 50.4196 56.018 50.3902 56.3904C50.3883 56.4132 50.3814 56.5364 50.3696 56.7602C50.3624 56.8875 50.3605 57.011 50.3639 57.1306C50.3642 57.1473 50.371 57.1632 50.3827 57.1749C50.3944 57.1866 50.4101 57.1931 50.4265 57.1931H53.5143C53.5216 57.1931 53.529 57.1946 53.5357 57.1976C53.5425 57.2006 53.5487 57.205 53.5538 57.2105C53.5589 57.216 53.5629 57.2225 53.5655 57.2296C53.5682 57.2367 53.5694 57.2443 53.5691 57.252C53.542 57.8602 53.5423 58.4748 53.5698 59.0956C53.5702 59.1032 53.5691 59.1108 53.5665 59.1179C53.564 59.1251 53.5601 59.1316 53.555 59.1371C53.5499 59.1426 53.5438 59.147 53.5371 59.15C53.5303 59.153 53.523 59.1545 53.5157 59.1545L50.4037 59.1596C50.3934 59.1596 50.3834 59.1637 50.376 59.1711C50.3687 59.1784 50.3646 59.1884 50.3646 59.1988V65.0524C50.3646 65.0632 50.3604 65.0735 50.3529 65.0811C50.3454 65.0888 50.3353 65.0931 50.3247 65.0931H47.5531C47.5341 65.0931 47.5159 65.0854 47.5025 65.0718C47.489 65.0582 47.4814 65.0397 47.4812 65.0204C47.4731 62.259 47.4778 59.5187 47.4954 56.7994C47.4983 56.3078 47.5334 55.932 47.6008 55.672C47.7057 55.2656 47.8749 54.8925 48.1084 54.5525C48.3619 54.183 48.7069 53.8554 49.1436 53.5697C49.8399 53.114 50.6384 52.8265 51.5393 52.7074C52.9566 52.52 54.2889 52.6401 55.5362 53.0677Z"
          fill="var(--current-color-1)"/>
    <path d="M40.5574 53.8878C41.5261 53.9581 42.4493 54.2038 43.3269 54.6252C43.8234 54.8639 44.2779 55.1681 44.6903 55.5376C45.7853 56.5187 46.3689 57.7605 46.441 59.2627C46.5169 60.8497 46.052 62.1929 45.0463 63.2922C44.7962 63.5654 44.5152 63.8138 44.2033 64.0376C43.8905 64.2623 43.5666 64.4521 43.2315 64.6071C42.4612 64.9645 41.6524 65.1858 40.8052 65.271C40.3476 65.3175 39.8735 65.3374 39.3827 65.3306C38.3489 65.3161 37.352 65.1144 36.3918 64.7255C36.0311 64.5792 35.7107 64.4165 35.4306 64.2373C35.1259 64.0426 34.8402 63.8206 34.5734 63.5712C33.6 62.6612 33.0518 61.5582 32.9288 60.2623C32.8823 59.7741 32.8861 59.2906 32.9402 58.8116C33.0461 57.8745 33.3797 57.0364 33.9412 56.2974C34.2189 55.9318 34.5571 55.5947 34.9558 55.2862C35.7361 54.6828 36.6179 54.2753 37.6014 54.0636C38.5075 53.8694 39.4928 53.8108 40.5574 53.8878ZM37.7965 62.4692C38.2488 62.7157 38.7538 62.8578 39.3115 62.8956C39.807 62.9295 40.2518 62.8987 40.6457 62.8033C41.8418 62.5137 42.6218 61.8292 42.9859 60.7497C43.1411 60.2901 43.204 59.8134 43.1746 59.3194C43.1209 58.4157 42.7642 57.6757 42.1045 57.0994C41.767 56.805 41.3838 56.5909 40.9547 56.4572C40.5437 56.3289 40.1027 56.2655 39.6319 56.2669C39.0386 56.2688 38.4932 56.3819 37.9958 56.6062C37.5435 56.8105 37.1657 57.0958 36.8624 57.4619C36.3702 58.0561 36.1305 58.7838 36.1433 59.6448C36.1542 60.3679 36.3493 60.9957 36.7285 61.5285C37.0067 61.9198 37.3626 62.2333 37.7965 62.4692Z"
          fill="var(--current-color-1)"/>
    <path d="M65.7214 54.0869H62.8807C62.8689 54.0869 62.8594 54.0966 62.8594 54.1087V56.2633C62.8594 56.2753 62.8689 56.2851 62.8807 56.2851H65.7214C65.7332 56.2851 65.7428 56.2753 65.7428 56.2633V54.1087C65.7428 54.0966 65.7332 54.0869 65.7214 54.0869Z"
          fill="var(--current-color-1)"/>
    <path d="M114.836 54.8322H117.646C117.656 54.8322 117.666 54.8361 117.673 54.843C117.68 54.8499 117.684 54.8594 117.684 54.8693L117.702 57.1524C117.702 57.1621 117.706 57.1714 117.712 57.1781C117.719 57.1849 117.728 57.1887 117.737 57.1888L121.431 57.1975C121.441 57.1975 121.45 57.2014 121.456 57.2083C121.463 57.2153 121.467 57.2247 121.467 57.2345L121.471 59.108C121.471 59.1141 121.47 59.1201 121.467 59.1258C121.465 59.1314 121.462 59.1365 121.458 59.1409C121.453 59.1452 121.448 59.1486 121.443 59.1509C121.437 59.1533 121.431 59.1545 121.425 59.1545L117.747 59.1683C117.737 59.1683 117.728 59.1721 117.721 59.1789C117.715 59.1857 117.711 59.1949 117.71 59.2046C117.695 59.9746 117.691 60.7449 117.698 61.5154C117.677 62.1706 117.889 62.6239 118.333 62.8753C118.641 63.0491 119.071 63.1126 119.622 63.0656C120.249 63.0113 120.849 62.8351 121.423 62.5367C121.43 62.533 121.438 62.531 121.446 62.5308C121.454 62.5306 121.462 62.5323 121.47 62.5357C121.477 62.5391 121.484 62.5442 121.489 62.5505C121.494 62.5568 121.498 62.5643 121.5 62.5723L121.999 64.5526C122.001 64.5629 122 64.5739 121.996 64.5837C121.992 64.5934 121.984 64.6014 121.975 64.6063C121.333 64.9575 120.658 65.1776 119.948 65.2667C119.515 65.3209 119.082 65.3386 118.65 65.3197C118.211 65.3008 117.78 65.2308 117.359 65.1098C116.853 64.9645 116.427 64.7596 116.079 64.4952C115.338 63.93 114.921 63.1307 114.826 62.0973C114.807 61.8977 114.798 61.6977 114.799 61.4972C114.799 60.7359 114.797 59.9746 114.792 59.2133C114.792 59.2029 114.789 59.1927 114.782 59.1846C114.776 59.1766 114.767 59.171 114.757 59.169C114.634 59.1419 114.511 59.1431 114.387 59.1726C113.813 59.1654 113.239 59.1579 112.666 59.1501C112.656 59.1501 112.647 59.1463 112.64 59.1395C112.633 59.1327 112.629 59.1234 112.629 59.1138L112.625 57.2418C112.625 57.2354 112.626 57.2291 112.629 57.2232C112.631 57.2173 112.634 57.2119 112.639 57.2074C112.643 57.2028 112.649 57.1993 112.654 57.1968C112.66 57.1944 112.666 57.1931 112.673 57.1931H114.757C114.767 57.1931 114.777 57.1888 114.785 57.1812C114.792 57.1736 114.796 57.1632 114.796 57.1524V54.8729C114.796 54.8621 114.801 54.8518 114.808 54.8441C114.816 54.8365 114.826 54.8322 114.836 54.8322Z"
          fill="var(--current-color-1)"/>
    <path d="M76.2932 57.3842C77.3735 57.8951 78.0135 58.7963 78.2134 60.0879C78.2281 60.1814 78.2404 60.2979 78.2504 60.4374C78.2656 60.6485 78.2732 60.7657 78.2732 60.7889C78.2732 62.2113 78.2732 63.6339 78.2732 65.0567C78.2732 65.0664 78.2694 65.0756 78.2627 65.0824C78.2561 65.0892 78.247 65.0931 78.2376 65.0931L75.4303 65.0887C75.4207 65.0887 75.4115 65.0849 75.4047 65.0783C75.3979 65.0716 75.394 65.0625 75.394 65.0531C75.3855 62.1944 75.3781 60.7306 75.372 60.6618C75.3188 60.055 75.0255 59.6233 74.492 59.3666C74.2072 59.2295 73.9072 59.1516 73.5921 59.1327C73.1051 59.1041 72.6243 59.1462 72.1497 59.2591C71.5853 59.3927 71.0777 59.6543 70.6268 60.0436C70.6134 60.0552 70.6026 60.0697 70.5953 60.086C70.5879 60.1023 70.5841 60.1201 70.5841 60.1381V65.0567C70.5841 65.0615 70.5831 65.0662 70.5814 65.0706C70.5796 65.075 70.5769 65.079 70.5736 65.0824C70.5703 65.0858 70.5664 65.0885 70.5621 65.0903C70.5578 65.0921 70.5531 65.0931 70.5485 65.0931H67.759C67.7514 65.0931 67.7438 65.0915 67.7367 65.0885C67.7296 65.0855 67.7232 65.0811 67.7178 65.0756C67.7123 65.0701 67.708 65.0635 67.7051 65.0563C67.7022 65.0491 67.7007 65.0413 67.7007 65.0335V57.2425C67.7007 57.236 67.7019 57.2296 67.7043 57.2236C67.7068 57.2176 67.7103 57.2122 67.7148 57.2076C67.7193 57.203 67.7247 57.1994 67.7305 57.1969C67.7364 57.1944 67.7427 57.1931 67.7491 57.1931H70.5449C70.5553 57.1931 70.5653 57.1974 70.5726 57.205C70.5799 57.2127 70.5841 57.223 70.5841 57.2338L70.5883 58.7448C70.5883 58.7719 70.5971 58.7753 70.6147 58.7549C71.7913 57.3786 73.2283 56.7955 74.9256 57.0057C75.4386 57.0696 75.8945 57.1958 76.2932 57.3842Z"
          fill="var(--current-color-1)"/>
    <path d="M96.8374 56.9941C97.4311 57.0386 98.0095 57.1575 98.5724 57.3507C99.0632 57.5188 99.4858 57.7341 99.8404 57.9965C101.052 58.8939 101.491 60.1836 101.156 61.8655C101.154 61.8757 101.149 61.8849 101.141 61.8915C101.134 61.8982 101.124 61.9018 101.114 61.9018L93.5837 61.9193C93.5811 61.9192 93.5784 61.9198 93.576 61.9211C93.5737 61.9223 93.5716 61.9241 93.5701 61.9263C93.5685 61.9285 93.5675 61.9311 93.5672 61.9338C93.5668 61.9365 93.5671 61.9392 93.5681 61.9418C93.7024 62.3094 93.9274 62.6077 94.243 62.8368C94.4571 62.9922 94.7155 63.1138 95.0183 63.2014C95.2433 63.2663 95.5212 63.3121 95.852 63.3387C97.4226 63.4646 98.9322 63.1738 100.381 62.4663C100.385 62.4641 100.391 62.463 100.396 62.4631C100.401 62.4632 100.406 62.4645 100.41 62.4669C100.415 62.4693 100.419 62.4727 100.422 62.4768C100.425 62.481 100.427 62.4858 100.428 62.491L100.785 64.3826C100.787 64.3946 100.785 64.407 100.78 64.4179C100.774 64.4287 100.765 64.4373 100.754 64.4422C99.7713 64.8868 98.7558 65.1613 97.7074 65.2659C97.246 65.312 96.7721 65.3316 96.2856 65.3248C95.7194 65.317 95.156 65.2633 94.5954 65.1635C93.9361 65.0463 93.3353 64.8427 92.7927 64.5526C91.3489 63.7811 90.6735 62.5389 90.7665 60.826C90.8168 59.9049 91.155 59.1172 91.7811 58.4629C92.1574 58.0702 92.5929 57.7646 93.0875 57.5462C93.8355 57.2164 94.6108 57.0277 95.4135 56.9803C95.881 56.9527 96.3556 56.9573 96.8374 56.9941ZM94.0358 59.3833C93.8066 59.6269 93.6518 59.9262 93.5716 60.2812C93.5707 60.2854 93.5707 60.2899 93.5716 60.2941C93.5725 60.2984 93.5744 60.3024 93.5771 60.3058C93.5798 60.3092 93.5832 60.312 93.587 60.3139C93.5909 60.3158 93.5951 60.3168 93.5994 60.3168H98.4535C98.4579 60.3168 98.4622 60.3158 98.4661 60.3138C98.4701 60.3119 98.4736 60.3091 98.4763 60.3056C98.479 60.3021 98.4809 60.298 98.4819 60.2937C98.4829 60.2893 98.4829 60.2848 98.482 60.2804C98.3377 59.5744 97.9423 59.1126 97.2959 58.8951C96.4277 58.6036 95.5763 58.6067 94.7414 58.9046C94.4851 58.9966 94.2499 59.1562 94.0358 59.3833Z"
          fill="var(--current-color-1)"/>
    <path d="M107.356 56.9788C108.648 57.0224 109.906 57.2696 111.13 57.7205C111.246 57.7631 111.358 57.8132 111.467 57.8709C111.477 57.8757 111.484 57.8835 111.488 57.8931C111.493 57.9027 111.494 57.9135 111.492 57.9239L111.14 59.8003C111.139 59.807 111.136 59.8134 111.132 59.8188C111.128 59.8242 111.122 59.8286 111.116 59.8315C111.11 59.8344 111.104 59.8358 111.097 59.8355C111.09 59.8353 111.084 59.8334 111.078 59.8301C110.714 59.6184 110.347 59.4516 109.975 59.3295C108.708 58.914 107.408 58.7346 106.075 58.7913C105.821 58.8019 105.591 58.852 105.384 58.9416C105.247 59.0017 105.147 59.0847 105.085 59.1908C104.998 59.3404 104.994 59.485 105.073 59.6245C105.144 59.7514 105.282 59.8468 105.486 59.9107C105.723 59.9853 105.972 60.0298 106.235 60.0444C107.004 60.0875 107.809 60.1548 108.65 60.2463C109.182 60.3044 109.586 60.3696 109.864 60.4417C110.272 60.5478 110.659 60.6938 111.023 60.8798C111.368 61.0555 111.639 61.3006 111.838 61.6149C112.03 61.9195 112.131 62.2597 112.139 62.6355C112.149 63.0467 112.046 63.4213 111.83 63.7593C111.651 64.0378 111.38 64.2877 111.015 64.509C110.49 64.8277 109.889 65.042 109.212 65.1519C106.836 65.5384 104.53 65.2998 102.292 64.4364C102.28 64.4317 102.27 64.423 102.264 64.4117C102.258 64.4005 102.255 64.3874 102.257 64.3746L102.613 62.4852C102.614 62.481 102.616 62.4771 102.618 62.4737C102.621 62.4703 102.624 62.4676 102.628 62.4657C102.632 62.4638 102.636 62.4628 102.64 62.4628C102.644 62.4627 102.648 62.4637 102.652 62.4656C103.352 62.8273 104.091 63.0893 104.87 63.2516C106.031 63.4937 107.202 63.5666 108.385 63.4702C108.649 63.4484 108.888 63.3961 109.101 63.3133C109.192 63.2779 109.269 63.221 109.329 63.1426C109.386 63.0695 109.415 62.9828 109.417 62.8825C109.421 62.6147 109.28 62.4428 108.995 62.3668C108.691 62.2864 108.382 62.2387 108.068 62.2237C107.925 62.2169 107.149 62.144 105.742 62.005C105.186 61.9498 104.639 61.8403 104.103 61.6766C103.686 61.5493 103.31 61.3452 102.974 61.0643C102.737 60.8657 102.562 60.6286 102.452 60.3531C102.352 60.1047 102.312 59.8206 102.331 59.501C102.377 58.73 102.745 58.1343 103.436 57.714C103.712 57.5449 103.975 57.4198 104.224 57.3384C104.772 57.1587 105.342 57.0456 105.933 56.9992C106.339 56.9672 106.813 56.9604 107.356 56.9788Z"
          fill="var(--current-color-1)"/>
    <path d="M58.0886 57.1938H55.2778C55.2577 57.1938 55.2415 57.2104 55.2415 57.2309V65.056C55.2415 65.0765 55.2577 65.0931 55.2778 65.0931H58.0886C58.1086 65.0931 58.1249 65.0765 58.1249 65.056V57.2309C58.1249 57.2104 58.1086 57.1938 58.0886 57.1938Z"
          fill="var(--current-color-1)"/>
    <path d="M65.7236 57.1931H62.8786C62.868 57.1931 62.8594 57.2019 62.8594 57.2127V65.0727C62.8594 65.0835 62.868 65.0923 62.8786 65.0923H65.7236C65.7342 65.0923 65.7428 65.0835 65.7428 65.0727V57.2127C65.7428 57.2019 65.7342 57.1931 65.7236 57.1931Z"
          fill="var(--current-color-1)"/>
    <path d="M79.0513 57.1975L82.0508 57.2062C82.0614 57.2062 82.0718 57.2095 82.0806 57.2156C82.0895 57.2216 82.0965 57.2302 82.1006 57.2403L84.8139 63.6569C84.8229 63.6792 84.8322 63.6792 84.8417 63.6569L87.5635 57.2396C87.5677 57.2298 87.5746 57.2214 87.5834 57.2154C87.5922 57.2094 87.6026 57.2059 87.6133 57.2055C88.6115 57.1822 89.6096 57.1839 90.6078 57.2105C90.6117 57.2107 90.6155 57.2118 90.6189 57.2138C90.6222 57.2158 90.6251 57.2185 90.6271 57.2218C90.6292 57.2252 90.6304 57.2289 90.6306 57.2328C90.6308 57.2366 90.6301 57.2405 90.6284 57.244L87.0231 65.056C87.0186 65.0658 87.0114 65.0741 87.0023 65.0799C86.9932 65.0856 86.9827 65.0887 86.9718 65.0887H82.6745C82.6636 65.0887 82.6531 65.0856 82.644 65.0799C82.6349 65.0741 82.6277 65.0658 82.6232 65.056L79.0214 57.2461C79.019 57.241 79.018 57.2353 79.0183 57.2296C79.0186 57.2238 79.0204 57.2183 79.0234 57.2135C79.0263 57.2086 79.0305 57.2046 79.0353 57.2018C79.0402 57.199 79.0457 57.1975 79.0513 57.1975Z"
          fill="var(--current-color-1)"/>
    <path d="M17.4011 59.2068C19.1497 59.3356 20.7976 59.7979 22.3449 60.5935C23.3156 61.0928 24.1882 61.7694 24.9628 62.6232C25.3752 63.1235 25.7203 63.6683 25.998 64.2577C26.0075 64.2775 26.0243 64.2836 26.0485 64.2758C26.0347 64.3194 26.0402 64.3753 26.0649 64.4436C26.6819 66.1493 26.5103 67.7702 25.5501 69.3064C25.5245 69.3073 25.4944 69.2906 25.4597 69.2562C25.259 69.0586 25.0057 68.8867 24.7001 68.7405C24.6806 68.7318 24.6733 68.7146 24.678 68.6889C25.173 67.8981 25.4054 67.0384 25.375 66.1101C25.3745 66.0912 25.3636 66.0851 25.3423 66.0919C25.3603 66.026 25.3608 65.9398 25.3437 65.8333C25.2454 65.2149 25.0499 64.6562 24.757 64.1574C24.7499 64.1448 24.7444 64.1223 24.7407 64.0899C24.7369 64.054 24.7119 64.0373 24.6659 64.0397C24.3441 63.5109 23.948 63.0484 23.4776 62.6522C22.5564 61.8759 21.5281 61.2955 20.3927 60.911C19.1169 60.478 17.8112 60.2526 16.4756 60.2347C15.9938 60.2279 15.5194 60.2432 15.0524 60.2804C13.7566 60.3846 12.5038 60.6916 11.294 61.2016C10.301 61.621 9.41371 62.206 8.63199 62.9566C8.29547 63.2796 8.00286 63.6397 7.75415 64.0368C7.70858 64.0436 7.68343 64.0673 7.67868 64.108C7.67441 64.139 7.66824 64.1615 7.66017 64.1756C7.46842 64.5126 7.30846 64.9139 7.18031 65.3793C7.10437 65.6543 7.07518 65.8979 7.09274 66.1101H7.07779C7.07414 66.1101 7.07063 66.1122 7.06798 66.1159C7.06533 66.1195 7.06374 66.1245 7.06355 66.1297C7.02273 67.0673 7.25886 67.9213 7.77195 68.6918L6.86705 69.3064C6.85661 69.2589 6.83051 69.1998 6.78874 69.1291C5.88645 67.622 5.7583 66.0345 6.40428 64.3666C6.45459 64.3473 6.47761 64.3134 6.47334 64.2649C6.4673 64.2001 6.48044 64.1348 6.51107 64.0775C6.79681 63.5419 7.11125 63.0571 7.45441 62.6232C8.22902 61.7849 9.07197 61.1265 9.98327 60.648C11.8453 59.6707 13.8435 59.1748 15.9779 59.1603C16.4597 59.1569 16.9341 59.1724 17.4011 59.2068Z"
          fill="var(--current-color-1)"/>
    <path d="M7.75415 64.0368C8.19698 65.4568 8.92768 66.6987 9.94625 67.7627C9.93391 67.8218 9.89737 67.846 9.83661 67.8353C9.39378 67.9787 8.95569 68.1361 8.52234 68.3075C7.95943 67.6329 7.48289 66.9004 7.09274 66.1101C7.07518 65.8979 7.10437 65.6543 7.18031 65.3793C7.30846 64.9139 7.46842 64.5126 7.66017 64.1756C7.66824 64.1615 7.67441 64.139 7.67868 64.108C7.68343 64.0673 7.70858 64.0436 7.75415 64.0368Z"
          fill="var(--current-color-1)"/>
    <path d="M24.6659 64.0397C24.7119 64.0373 24.7369 64.054 24.7407 64.0899C24.7444 64.1223 24.7499 64.1448 24.757 64.1574C25.0499 64.6562 25.2454 65.2149 25.3437 65.8333C25.3608 65.9398 25.3603 66.026 25.3423 66.0919C24.9578 66.8953 24.4763 67.6329 23.8977 68.3046L22.4738 67.7838C23.4947 66.714 24.2254 65.466 24.6659 64.0397Z"
          fill="var(--current-color-1)"/>
    <path d="M16.5824 66.9774C18.5768 66.9944 20.5406 67.2632 22.4738 67.7838L23.8977 68.3046L24.678 68.6889C24.6733 68.7146 24.6806 68.7318 24.7001 68.7405C25.0057 68.8867 25.259 69.0586 25.4597 69.2562C25.4944 69.2906 25.5245 69.3073 25.5501 69.3064C25.9175 69.6313 26.1722 69.9718 26.3141 70.3277C26.5343 70.8798 26.4633 71.415 26.1012 71.9331C25.9436 72.1588 25.7599 72.3598 25.5501 72.5361C25.1543 72.8673 24.7245 73.1443 24.2608 73.3671C23.7287 73.6233 23.1803 73.8369 22.6155 74.0078C21.6126 74.311 20.5923 74.5306 19.5548 74.6667C16.8935 75.0149 14.2436 74.9425 11.6051 74.4495C10.6236 74.2664 9.66883 73.9887 8.74092 73.6163C8.27197 73.4279 7.78144 73.1671 7.26931 72.8339C6.84593 72.5588 6.51392 72.2172 6.27328 71.8089C6.09719 71.5106 6.00796 71.2169 6.00559 70.9278C6.00274 70.5965 6.09458 70.2875 6.28111 70.0008C6.4254 69.78 6.62072 69.5485 6.86705 69.3064L7.77195 68.6918L8.52234 68.3075C8.95569 68.1361 9.39378 67.9787 9.83661 67.8353C9.89737 67.846 9.93391 67.8218 9.94625 67.7627C9.96998 67.7787 10.0106 67.7787 10.068 67.7627C11.6955 67.307 13.3923 67.0508 15.1585 66.9941C15.6307 66.9786 16.1054 66.9731 16.5824 66.9774ZM10.5635 68.3438C10.0329 68.4625 9.51766 68.631 9.01787 68.8494C8.72122 68.955 8.44142 69.0952 8.17847 69.27L8.1621 69.2599C8.15755 69.2572 8.15219 69.2559 8.14656 69.2562C8.14093 69.2565 8.13524 69.2582 8.13006 69.2613C7.86711 69.4144 7.61579 69.5853 7.3761 69.7742C7.33433 69.7911 7.31107 69.8229 7.30633 69.8693C7.04006 70.0471 6.8483 70.287 6.73107 70.5892C6.6276 70.8566 6.64682 71.1205 6.78874 71.3811C6.8979 71.5825 7.02178 71.7464 7.16038 71.8728C7.57948 72.2569 8.047 72.5659 8.56293 72.7998C9.16382 73.0719 9.77966 73.2998 10.4104 73.4833C10.8148 73.601 11.2778 73.7081 11.7995 73.8044C14.3383 74.2727 16.8944 74.3405 19.4679 74.0078C20.7067 73.8475 21.9142 73.5545 23.0903 73.1288C23.6257 72.9346 24.1362 72.6872 24.6218 72.3864C24.8543 72.2421 25.0705 72.076 25.2703 71.8881C25.4854 71.6852 25.6375 71.4527 25.7267 71.1907C25.7803 71.0319 25.7789 70.8648 25.7224 70.6895C25.6137 70.3529 25.4208 70.0786 25.1436 69.8664C25.1517 69.8316 25.1412 69.8129 25.1123 69.8105C24.8845 69.641 24.6519 69.4785 24.4146 69.3231C24.4108 69.3202 24.3923 69.3035 24.359 69.2729C24.3301 69.2453 24.2959 69.2444 24.2565 69.27C23.9898 69.0913 23.704 68.9531 23.3993 68.8552C22.9067 68.6301 22.3964 68.4586 21.8686 68.3409C21.001 68.1012 20.0814 67.9266 19.1098 67.8172C17.7856 67.668 16.4979 67.6145 15.2467 67.6566C13.7782 67.7065 12.3294 67.9039 10.9003 68.2487C10.783 68.2622 10.6708 68.294 10.5635 68.3438Z"
          fill="var(--current-color-1)"/>
    <path d="M10.5635 68.3438C12.4113 69.88 14.5006 70.5701 16.8316 70.4142C18.6893 70.2897 20.3683 69.5986 21.8686 68.3409C22.3964 68.4586 22.9067 68.6301 23.3993 68.8552C21.5506 70.6549 19.3671 71.6433 16.8486 71.8205C16.3735 71.854 15.8996 71.8511 15.4269 71.8118C12.9939 71.6089 10.8886 70.6452 9.11113 68.9206C9.06936 68.8799 9.03827 68.8562 9.01787 68.8494C9.51766 68.631 10.0329 68.4625 10.5635 68.3438Z"
          fill="var(--current-color-1)"/>
    <path d="M35.5189 68.9613H36.5883C36.6009 68.9613 36.6133 68.9649 36.6241 68.9717C36.6349 68.9785 36.6437 68.9882 36.6495 68.9998L39.0388 73.8531C39.0412 73.8582 39.0423 73.8638 39.042 73.8694C39.0417 73.875 39.0401 73.8805 39.0371 73.8853C39.0342 73.89 39.0302 73.894 39.0254 73.8968C39.0206 73.8995 39.0152 73.901 39.0096 73.901H38.0848C38.0705 73.9011 38.0563 73.8968 38.044 73.8889C38.0317 73.8809 38.0216 73.8695 38.015 73.856L37.5807 72.9719C37.576 72.962 37.5686 72.9535 37.5593 72.9476C37.55 72.9417 37.5391 72.9386 37.5281 72.9385H34.5912C34.5756 72.9385 34.5602 72.943 34.5469 72.9515C34.5336 72.9599 34.5228 72.9721 34.5158 72.9865L34.09 73.8633C34.0853 73.8733 34.078 73.8817 34.069 73.8877C34.0599 73.8936 34.0494 73.8967 34.0388 73.8967L33.0712 73.901C33.0674 73.901 33.0637 73.8999 33.0604 73.898C33.057 73.896 33.0543 73.8932 33.0523 73.8898C33.0503 73.8864 33.0492 73.8825 33.049 73.8785C33.0488 73.8745 33.0496 73.8705 33.0513 73.8669L35.447 69.0071C35.4537 68.9933 35.4639 68.9817 35.4766 68.9736C35.4894 68.9655 35.504 68.9613 35.5189 68.9613ZM36.0401 69.9035L35.0085 72.0087C35.0064 72.0129 35.0054 72.0176 35.0056 72.0223C35.0058 72.027 35.0072 72.0315 35.0096 72.0356C35.0121 72.0396 35.0155 72.0429 35.0195 72.0452C35.0235 72.0474 35.028 72.0486 35.0327 72.0486H37.0945C37.0986 72.0486 37.1026 72.0475 37.1061 72.0455C37.1097 72.0434 37.1127 72.0404 37.1148 72.0368C37.1169 72.0331 37.1181 72.029 37.1183 72.0247C37.1185 72.0205 37.1176 72.0162 37.1158 72.0123L36.0828 69.9035C36.0686 69.8749 36.0543 69.8749 36.0401 69.9035Z"
          fill="var(--current-color-1)"/>
    <path d="M63.3051 69.0107L65.6944 73.001C65.6975 73.006 65.7018 73.0102 65.7069 73.0131C65.712 73.016 65.7178 73.0175 65.7235 73.0175C65.7293 73.0175 65.735 73.016 65.74 73.0131C65.745 73.0102 65.7491 73.006 65.752 73.001L68.13 69.0013C68.1363 68.9904 68.1451 68.9814 68.1558 68.9752C68.1664 68.9689 68.1783 68.9657 68.1905 68.9657L69.195 68.9613C69.2047 68.9613 69.2139 68.9653 69.2207 68.9724C69.2275 68.9795 69.2314 68.9891 69.2314 68.9991V73.8633C69.2314 73.8733 69.2275 73.8829 69.2207 73.89C69.2139 73.8971 69.2047 73.901 69.195 73.901L68.345 73.8974C68.3357 73.8974 68.3268 73.8936 68.3203 73.8868C68.3138 73.88 68.3101 73.8707 68.3101 73.8611L68.3179 70.6764C68.3179 70.5587 68.2878 70.55 68.2275 70.6503L66.3088 73.8407C66.2977 73.8592 66.2823 73.8743 66.2639 73.8848C66.2456 73.8952 66.225 73.9006 66.2041 73.9003L65.196 73.8974C65.1849 73.8972 65.174 73.8941 65.1644 73.8885C65.1548 73.8829 65.1468 73.875 65.1412 73.8654L63.1926 70.6357C63.1484 70.5626 63.1264 70.5689 63.1264 70.6546V73.8604C63.1264 73.8657 63.1253 73.871 63.1233 73.8759C63.1213 73.8809 63.1184 73.8853 63.1147 73.8891C63.111 73.8929 63.1066 73.8959 63.1017 73.8979C63.0969 73.9 63.0917 73.901 63.0865 73.901H62.2464C62.2343 73.901 62.2227 73.8961 62.2142 73.8874C62.2056 73.8787 62.2008 73.8669 62.2008 73.8545L62.2136 69.0114C62.2136 69.001 62.2174 68.991 62.2243 68.9837C62.2311 68.9763 62.2403 68.9722 62.2499 68.9722L63.2509 68.9766C63.2613 68.9766 63.2718 68.9797 63.2813 68.9857C63.2908 68.9917 63.299 69.0003 63.3051 69.0107Z"
          fill="var(--current-color-1)"/>
    <path d="M57.2833 69.2555L57.3004 70.3277C57.3006 70.3377 57.3045 70.3472 57.3113 70.3542C57.318 70.3613 57.3272 70.3653 57.3367 70.3655L58.6225 70.3771C58.6322 70.3773 58.6415 70.3813 58.6482 70.3882C58.655 70.3952 58.6588 70.4045 58.6588 70.4142L58.6624 71.1994C58.6625 71.2044 58.6617 71.2093 58.66 71.2139C58.6583 71.2184 58.6558 71.2226 58.6526 71.2261C58.6495 71.2296 58.6457 71.2324 58.6415 71.2343C58.6373 71.2362 58.6328 71.2372 58.6282 71.2372L57.3289 71.2488C57.3181 71.2488 57.3078 71.2532 57.3002 71.261C57.2926 71.2687 57.2883 71.2793 57.2883 71.2902C57.2883 71.6699 57.2883 72.0465 57.2883 72.4198C57.2883 72.6174 57.3042 72.7555 57.336 72.8339C57.3987 72.9889 57.5166 73.0811 57.6899 73.1107C57.8176 73.1325 57.9293 73.1305 58.0252 73.1049C58.1372 73.0753 58.2333 73.0054 58.3135 72.8949C58.3166 72.8908 58.3203 72.8873 58.3246 72.8846C58.3289 72.882 58.3336 72.8802 58.3385 72.8794C58.3434 72.8786 58.3484 72.8788 58.3531 72.8799C58.3579 72.8811 58.3623 72.8832 58.3662 72.8862L59.0155 73.362C59.0228 73.3673 59.029 73.3742 59.0336 73.382C59.0382 73.3899 59.0411 73.3987 59.0422 73.4078C59.0434 73.4169 59.0427 73.4262 59.0402 73.4351C59.0376 73.444 59.0334 73.4522 59.0276 73.4594C58.8553 73.6729 58.6444 73.8202 58.3947 73.901C57.7326 74.1156 57.1547 73.9899 56.6611 73.524C56.4855 73.3584 56.3979 73.1209 56.3984 72.8114C56.3837 72.3043 56.3763 71.7973 56.3763 71.2902C56.3763 71.2805 56.3725 71.2712 56.3657 71.2643C56.3589 71.2574 56.3497 71.2534 56.34 71.2532L55.4494 71.2496C55.4367 71.2496 55.4246 71.2445 55.4156 71.2355C55.4067 71.2265 55.4017 71.2143 55.4017 71.2016V70.4185C55.4017 70.4077 55.4059 70.3974 55.4133 70.3898C55.4208 70.3821 55.431 70.3778 55.4415 70.3778H56.3436C56.3549 70.3778 56.3658 70.3731 56.3738 70.3647C56.3818 70.3562 56.3863 70.3448 56.3863 70.3328L56.3806 69.7894C56.3804 69.7747 56.3841 69.7602 56.3913 69.7474C56.3986 69.7346 56.4092 69.724 56.4219 69.7168L57.2527 69.2373C57.2559 69.2356 57.2594 69.2347 57.2629 69.2347C57.2665 69.2348 57.27 69.2358 57.2731 69.2376C57.2762 69.2394 57.2787 69.242 57.2805 69.2452C57.2823 69.2483 57.2833 69.2519 57.2833 69.2555Z"
          fill="var(--current-color-1)"/>
    <path d="M120.083 69.2468V70.3205C120.083 70.328 120.084 70.3355 120.087 70.3424C120.09 70.3494 120.094 70.3557 120.099 70.361C120.104 70.3664 120.111 70.3706 120.117 70.3735C120.124 70.3764 120.132 70.3778 120.139 70.3778H121.413C121.423 70.3778 121.434 70.3822 121.441 70.39C121.449 70.3977 121.453 70.4083 121.453 70.4193V71.1958C121.453 71.2055 121.449 71.2148 121.443 71.2218C121.436 71.2287 121.427 71.2327 121.417 71.2329L120.122 71.2547C120.112 71.2548 120.103 71.2586 120.097 71.2653C120.09 71.2719 120.086 71.2809 120.086 71.2902C120.08 71.7353 120.081 72.1804 120.09 72.6254C120.095 72.8603 120.198 73.0146 120.399 73.0882C120.688 73.1942 120.926 73.1298 121.111 72.8949C121.117 72.8873 121.125 72.8823 121.135 72.8809C121.144 72.8796 121.154 72.882 121.162 72.8877L121.831 73.3671C121.839 73.373 121.845 73.3818 121.847 73.3916C121.849 73.4014 121.847 73.4114 121.841 73.4194C121.767 73.5289 121.681 73.6223 121.586 73.6998C121.499 73.7696 121.39 73.8291 121.259 73.8785C120.767 74.0635 120.296 74.041 119.846 73.811C119.628 73.6991 119.466 73.5603 119.361 73.3947C119.241 73.2049 119.182 72.9862 119.186 72.7388C119.193 72.2501 119.194 71.7721 119.188 71.3048C119.188 71.2896 119.182 71.2751 119.171 71.2644C119.161 71.2537 119.146 71.2476 119.131 71.2474L118.246 71.2379C118.235 71.2378 118.225 71.2336 118.218 71.2264C118.211 71.2192 118.207 71.2095 118.207 71.1994V70.428C118.207 70.4182 118.211 70.4088 118.218 70.4018C118.225 70.3947 118.235 70.3906 118.245 70.3902L119.144 70.3655C119.154 70.3651 119.164 70.3611 119.171 70.3542C119.178 70.3473 119.183 70.3381 119.183 70.3285L119.19 69.8011C119.19 69.7805 119.195 69.7605 119.204 69.7432C119.214 69.7259 119.227 69.7118 119.243 69.7023L120.051 69.2279C120.054 69.226 120.058 69.225 120.061 69.225C120.065 69.225 120.069 69.226 120.072 69.2279C120.075 69.2298 120.078 69.2326 120.08 69.2359C120.082 69.2392 120.083 69.243 120.083 69.2468Z"
          fill="var(--current-color-1)"/>
    <path d="M8.1621 69.2599L8.17847 69.27C8.71006 69.902 9.33848 70.4362 10.0637 70.8725C10.956 71.4096 11.8908 71.8043 12.8681 72.0566C14.761 72.5453 16.6813 72.6153 18.6292 72.2666C19.6967 72.0753 20.7008 71.7438 21.6415 71.2721C22.6848 70.7491 23.5564 70.0817 24.2565 69.27C24.2959 69.2444 24.3301 69.2453 24.359 69.2729C24.3923 69.3035 24.4108 69.3202 24.4146 69.3231C24.6519 69.4785 24.8845 69.641 25.1123 69.8105C25.1412 69.8129 25.1517 69.8316 25.1436 69.8664C24.4416 70.7231 23.6103 71.42 22.6496 71.9571C21.6002 72.5441 20.4901 72.9661 19.3191 73.2233C17.6536 73.5889 15.976 73.6574 14.2863 73.4289C12.3284 73.164 10.5709 72.5116 9.01359 71.4719C8.37378 71.0452 7.8047 70.511 7.30633 69.8693C7.31107 69.8229 7.33433 69.7911 7.3761 69.7742C7.61579 69.5853 7.86711 69.4144 8.13006 69.2613C8.13524 69.2582 8.14093 69.2565 8.14656 69.2562C8.15219 69.2559 8.15755 69.2572 8.1621 69.2599Z"
          fill="var(--current-color-1)"/>
    <path d="M42.1593 70.3052C42.6923 70.3386 43.1556 70.4875 43.549 70.752C43.6369 70.8106 43.7092 70.8747 43.7662 70.9445C43.8265 71.0186 43.8806 71.1004 43.9285 71.19C43.9308 71.1942 43.9321 71.1988 43.9325 71.2036C43.9329 71.2084 43.9323 71.2132 43.9308 71.2177C43.9292 71.2223 43.9268 71.2265 43.9236 71.2301C43.9204 71.2337 43.9165 71.2366 43.9121 71.2387L43.2272 71.5583C43.2083 71.5672 43.1823 71.565 43.1533 71.5518C43.1243 71.5387 43.094 71.5154 43.0671 71.4857C42.9228 71.3263 42.7462 71.2222 42.5374 71.1733C41.9232 71.0285 41.3092 71.022 40.6955 71.1537C40.6148 71.1711 40.5491 71.1948 40.4983 71.2249C40.3284 71.3266 40.3673 71.4181 40.6151 71.4995C40.7978 71.559 41.3422 71.6271 42.2483 71.7036C42.7016 71.7418 43.1041 71.8218 43.4558 71.9433C43.6138 71.998 43.7332 72.0651 43.8139 72.1445C43.9202 72.2496 43.99 72.3755 44.0232 72.5223C44.0607 72.6869 44.0638 72.8555 44.0325 73.0279C43.9983 73.2177 43.9064 73.3681 43.7569 73.479C43.5267 73.6499 43.2968 73.7664 43.0671 73.8284C42.3598 74.0202 41.6242 74.0512 40.86 73.9214C40.4309 73.8487 40.0441 73.6785 39.6995 73.4107C39.587 73.3235 39.4961 73.2129 39.4268 73.0787C39.4245 73.0743 39.423 73.0694 39.4225 73.0644C39.422 73.0594 39.4225 73.0544 39.424 73.0497C39.4254 73.045 39.4279 73.0407 39.431 73.037C39.4342 73.0334 39.4381 73.0305 39.4425 73.0286L40.1687 72.6973C40.1776 72.6932 40.1879 72.6922 40.198 72.6945C40.208 72.6969 40.2175 72.7024 40.2249 72.7104C40.3526 72.8499 40.5062 72.9497 40.6856 73.0097C41.4284 73.2586 42.179 73.2812 42.9375 73.0773C43.0718 73.0409 43.138 72.9601 43.1361 72.8346C43.1359 72.8238 43.1326 72.8131 43.1266 72.8039C43.1205 72.7946 43.112 72.7872 43.1019 72.7823C42.8784 72.6743 42.6413 72.6174 42.3907 72.6116C42.0195 72.5588 41.6474 72.5126 41.2744 72.4729C40.9151 72.4351 40.5636 72.3598 40.22 72.247C40.0833 72.2019 39.9568 72.1375 39.8405 72.0537C39.6615 71.9244 39.5505 71.7605 39.5073 71.5619C39.4669 71.376 39.4895 71.1965 39.5749 71.0236C39.6599 70.8512 39.7956 70.7183 39.9822 70.6248C40.1616 70.5343 40.2999 70.4762 40.3972 70.4505C40.9179 70.313 41.5053 70.2645 42.1593 70.3052Z"
          fill="var(--current-color-1)"/>
    <path d="M47.9746 70.3829C48.3139 70.4522 48.6189 70.5953 48.8894 70.8123C49.0195 70.9164 49.1194 71.0437 49.1891 71.1944C49.1929 71.2029 49.1932 71.2127 49.1898 71.2215C49.1865 71.2303 49.1799 71.2376 49.1713 71.2416L48.4338 71.5903C48.4219 71.5959 48.4084 71.5966 48.3962 71.5922C48.3839 71.5879 48.3739 71.5788 48.3683 71.567C48.3189 71.4648 48.2584 71.3919 48.1867 71.3484C47.9204 71.1871 47.6321 71.0948 47.3217 71.0716C46.8428 71.0358 46.3577 71.0667 45.8665 71.1646C45.7853 71.181 45.7231 71.2251 45.6799 71.2968C45.6272 71.384 45.6683 71.4433 45.8031 71.4748C46.1444 71.5556 46.4901 71.6077 46.8404 71.6309C47.0697 71.646 47.4437 71.6862 47.9624 71.7515C48.3778 71.8038 48.6846 71.8862 48.883 71.9985C49.1502 72.1501 49.2952 72.3847 49.318 72.7024C49.3351 72.9412 49.2834 73.1463 49.1628 73.3177C49.0684 73.4528 48.9115 73.5722 48.6922 73.6758C48.3856 73.8197 48.0353 73.9129 47.6414 73.9555C47.0998 74.0136 46.5941 73.9979 46.1242 73.9083C45.7777 73.8424 45.5119 73.7625 45.3268 73.6686C45.0719 73.5393 44.8588 73.347 44.6875 73.0918C44.6842 73.0869 44.682 73.0813 44.681 73.0755C44.68 73.0697 44.6803 73.0637 44.6818 73.058C44.6833 73.0524 44.686 73.0471 44.6896 73.0427C44.6933 73.0382 44.6979 73.0346 44.7031 73.0322L45.4165 72.6973C45.427 72.6924 45.4388 72.6909 45.4505 72.6929C45.4622 72.695 45.4731 72.7006 45.482 72.709C45.6315 72.8518 45.7798 72.9489 45.927 73.0003C46.6565 73.2531 47.3924 73.2831 48.1347 73.0903C48.2235 73.0676 48.2911 73.0385 48.3377 73.0032C48.463 72.9087 48.4385 72.8145 48.2643 72.7206C48.1945 72.6828 47.9691 72.6404 47.588 72.5935C47.1299 72.5504 46.6731 72.4966 46.2174 72.4322C45.9659 72.3964 45.7229 72.3334 45.4884 72.2433C45.1927 72.13 44.9893 71.99 44.8783 71.8234C44.7667 71.6559 44.7304 71.4643 44.7693 71.2488C44.8026 71.0653 44.8927 70.9084 45.0399 70.7781C45.1889 70.6464 45.3624 70.551 45.5603 70.4919C46.3553 70.2536 47.1601 70.2173 47.9746 70.3829Z"
          fill="var(--current-color-1)"/>
    <path d="M53.07 70.3415C53.6163 70.4427 54.0589 70.6691 54.3978 71.0207C54.7329 71.368 54.8822 71.8113 54.8456 72.3508C54.844 72.3724 54.8345 72.3926 54.8191 72.4072C54.8036 72.4219 54.7834 72.4301 54.7623 72.43L51.0459 72.4344C51.0418 72.4344 51.0378 72.4354 51.0341 72.4373C51.0305 72.4392 51.0273 72.442 51.025 72.4453C51.0226 72.4487 51.0211 72.4525 51.0205 72.4565C51.0199 72.4606 51.0203 72.4647 51.0217 72.4685C51.0891 72.6559 51.2037 72.793 51.3656 72.8797C52.1388 73.2942 52.9044 73.2717 53.6623 72.8121C53.6717 72.8064 53.6824 72.8037 53.6929 72.8044C53.7034 72.805 53.7131 72.809 53.7207 72.8158L54.3423 73.3497C54.3458 73.3526 54.3486 73.3562 54.3505 73.3604C54.3525 73.3645 54.3535 73.3691 54.3535 73.3738C54.3535 73.3784 54.3525 73.383 54.3505 73.3873C54.3486 73.3915 54.3458 73.3953 54.3423 73.3984C54.2113 73.5141 54.0556 73.6105 53.8752 73.6875C52.9653 74.0759 52.0771 74.0981 51.2104 73.7543C50.8563 73.6139 50.5905 73.4439 50.413 73.2443C50.1913 72.9954 50.0599 72.6872 50.0186 72.3196C49.9616 71.8101 50.1076 71.3757 50.4564 71.0164C50.7749 70.6876 51.176 70.4733 51.6596 70.3735C52.157 70.2703 52.6272 70.2597 53.07 70.3415ZM53.5313 71.4551C52.9238 71.0653 52.2807 71.0033 51.602 71.2692C51.3632 71.3626 51.1783 71.5159 51.0473 71.729C51.0284 71.7605 51.0369 71.7762 51.073 71.7762H53.7827C53.8216 71.7762 53.8304 71.7598 53.809 71.7268C53.7392 71.6198 53.6467 71.5292 53.5313 71.4551Z"
          fill="var(--current-color-1)"/>
    <path d="M72.4707 70.287C73.0508 70.2827 73.5978 70.4621 74.1118 70.8253C74.1332 70.8403 74.1438 70.8348 74.1438 70.8086V70.441C74.1438 70.4243 74.1504 70.4082 74.162 70.3964C74.1736 70.3845 74.1894 70.3778 74.2058 70.3778H75.0117C75.0169 70.3778 75.0221 70.3789 75.027 70.3809C75.0318 70.383 75.0362 70.386 75.0399 70.3898C75.0436 70.3935 75.0465 70.398 75.0486 70.403C75.0506 70.4079 75.0516 70.4132 75.0516 70.4185V73.8604C75.0516 73.8657 75.0506 73.871 75.0486 73.8759C75.0465 73.8809 75.0436 73.8853 75.0399 73.8891C75.0362 73.8929 75.0318 73.8959 75.027 73.8979C75.0221 73.9 75.0169 73.901 75.0117 73.901H74.2044C74.1885 73.901 74.1733 73.8945 74.1621 73.8827C74.1508 73.871 74.1446 73.8551 74.1446 73.8386L74.1403 73.4703C74.1403 73.4456 74.1303 73.4402 74.1104 73.4543C73.6448 73.7812 73.1338 73.9604 72.5775 73.9918C72.0374 74.0224 71.5398 73.9013 71.0846 73.6286C70.9028 73.5202 70.7552 73.4 70.6417 73.2683C70.5098 73.1158 70.412 72.9468 70.3484 72.7613C70.1956 72.3186 70.1949 71.9017 70.3463 71.5104C70.4863 71.1486 70.7398 70.859 71.1066 70.6415C71.4973 70.4091 71.952 70.2909 72.4707 70.287ZM74.1567 72.1399C74.1569 72.01 74.1184 71.8813 74.0435 71.7611C73.9686 71.6409 73.8586 71.5317 73.7199 71.4395C73.5813 71.3474 73.4166 71.2742 73.2353 71.2242C73.054 71.1742 72.8596 71.1482 72.6632 71.1479C72.2667 71.1472 71.8863 71.2507 71.6056 71.4358C71.3249 71.6208 71.1669 71.8722 71.1665 72.1346C71.1662 72.2645 71.2047 72.3933 71.2796 72.5134C71.3545 72.6336 71.4645 72.7429 71.6032 72.835C71.7418 72.9271 71.9065 73.0003 72.0878 73.0503C72.2691 73.1004 72.4635 73.1263 72.6599 73.1267C73.0564 73.1274 73.4368 73.0238 73.7175 72.8388C73.9982 72.6537 74.1562 72.4023 74.1567 72.1399Z"
          fill="var(--current-color-1)"/>
    <path d="M79.9235 70.4389C80.3326 70.573 80.6169 70.8156 80.7764 71.1668C80.8637 71.3576 80.9119 71.6738 80.9209 72.1155C80.9333 72.6942 80.9307 73.2727 80.9131 73.8509C80.9127 73.8613 80.9086 73.871 80.9016 73.8782C80.8945 73.8854 80.8851 73.8894 80.8754 73.8894L80.0538 73.8996C80.049 73.8997 80.0443 73.8988 80.0399 73.8969C80.0355 73.8951 80.0315 73.8923 80.0282 73.8888C80.0248 73.8853 80.0221 73.8811 80.0202 73.8764C80.0184 73.8718 80.0175 73.8668 80.0175 73.8618C80.0175 73.3431 80.0187 72.8296 80.021 72.3211C80.022 72.0687 80.003 71.8871 79.9641 71.7762C79.8625 71.489 79.6622 71.306 79.3632 71.227C78.8615 71.0944 78.3949 71.1278 77.9635 71.3273C77.6963 71.4503 77.4933 71.6171 77.3547 71.8278C77.2033 72.0583 77.126 72.3257 77.1227 72.6298C77.1184 73.0414 77.1162 73.4531 77.1162 73.8647C77.1162 73.8695 77.1153 73.8742 77.1135 73.8786C77.1117 73.883 77.1091 73.887 77.1058 73.8904C77.1025 73.8938 77.0986 73.8965 77.0943 73.8983C77.0899 73.9001 77.0853 73.901 77.0807 73.901H76.2477C76.2373 73.901 76.2273 73.8968 76.22 73.8893C76.2126 73.8818 76.2085 73.8717 76.2085 73.8611L76.2128 70.4185C76.2128 70.4088 76.2165 70.3995 76.2232 70.3926C76.2298 70.3857 76.2389 70.3817 76.2484 70.3815L77.0807 70.3778C77.0853 70.3778 77.0899 70.3788 77.0943 70.3806C77.0986 70.3824 77.1025 70.3851 77.1058 70.3885C77.1091 70.3919 77.1117 70.3959 77.1135 70.4003C77.1153 70.4047 77.1162 70.4094 77.1162 70.4142L77.1191 70.9387C77.1196 70.9997 77.1419 71.0091 77.186 70.967C77.4779 70.6871 77.799 70.498 78.1493 70.3996C78.745 70.233 79.3364 70.2461 79.9235 70.4389Z"
          fill="var(--current-color-1)"/>
    <path d="M84.3262 70.2929C84.7918 70.3466 85.2261 70.5214 85.6291 70.8173C85.6718 70.8488 85.6932 70.8384 85.6932 70.7861L85.6924 70.428C85.6924 70.4178 85.6961 70.408 85.7027 70.4007C85.7092 70.3935 85.7181 70.3895 85.7273 70.3895L86.5418 70.38C86.5475 70.3799 86.5531 70.381 86.5584 70.3833C86.5636 70.3856 86.5684 70.3889 86.5725 70.3932C86.5765 70.3974 86.5797 70.4025 86.5819 70.4081C86.5841 70.4137 86.5852 70.4197 86.5852 70.4258L86.5895 73.8509C86.5895 73.8611 86.5857 73.8709 86.5789 73.8781C86.5721 73.8854 86.5628 73.8894 86.5532 73.8894L85.7551 73.8996C85.7395 73.8999 85.7244 73.8928 85.7129 73.8799C85.7015 73.867 85.6946 73.8493 85.6939 73.8306L85.6789 73.4688C85.678 73.4431 85.6663 73.4383 85.644 73.4543C85.3844 73.6378 85.1153 73.7732 84.8367 73.8604C84.1551 74.0725 83.5034 74.0403 82.8817 73.7637C82.5954 73.6364 82.3686 73.4797 82.201 73.2937C82.0026 73.0744 81.874 72.8167 81.8151 72.5208C81.7084 71.9857 81.7931 71.5273 82.0693 71.1457C82.2976 70.8299 82.6308 70.5921 83.0689 70.4323C83.4643 70.288 83.8834 70.2415 84.3262 70.2929ZM85.6924 72.1399C85.6927 72.01 85.6542 71.8813 85.5793 71.7611C85.5044 71.6409 85.3944 71.5317 85.2557 71.4395C85.1171 71.3474 84.9524 71.2742 84.7711 71.2242C84.5897 71.1742 84.3954 71.1482 84.199 71.1479C83.8025 71.1472 83.4221 71.2507 83.1413 71.4358C82.8606 71.6208 82.7027 71.8722 82.7022 72.1346C82.702 72.2645 82.7405 72.3933 82.8154 72.5134C82.8903 72.6336 83.0003 72.7429 83.1389 72.835C83.2776 72.9271 83.4423 73.0003 83.6236 73.0503C83.8049 73.1004 83.9993 73.1263 84.1957 73.1267C84.5922 73.1274 84.9726 73.0238 85.2533 72.8388C85.534 72.6537 85.692 72.4023 85.6924 72.1399Z"
          fill="var(--current-color-1)"/>
    <path d="M91.3802 70.8202C91.4111 70.8416 91.4265 70.8333 91.4265 70.7955V70.4156C91.4265 70.4056 91.4304 70.396 91.4374 70.3889C91.4443 70.3818 91.4537 70.3778 91.4635 70.3778L92.2951 70.3815C92.3044 70.3817 92.3133 70.3857 92.3198 70.3926C92.3263 70.3995 92.33 70.4088 92.33 70.4185C92.3419 71.4079 92.3397 72.3971 92.3236 73.386C92.3179 73.7211 92.2799 73.9744 92.2097 74.1458C92.0972 74.4195 91.9168 74.6498 91.6686 74.8367C91.4237 75.0217 91.1709 75.1517 90.9104 75.2268C90.2634 75.4127 89.5968 75.4425 88.9105 75.3161C88.4923 75.2386 88.1038 75.0641 87.745 74.7924C87.7385 74.7874 87.7332 74.7811 87.7295 74.7737C87.7257 74.7664 87.7237 74.7583 87.7235 74.75C87.7233 74.7418 87.7249 74.7336 87.7283 74.7261C87.7316 74.7186 87.7366 74.7119 87.7429 74.7067L88.3559 74.1785C88.3634 74.172 88.373 74.1685 88.3829 74.1685C88.3928 74.1685 88.4024 74.172 88.41 74.1785C88.5495 74.2972 88.6487 74.3667 88.7076 74.387C89.4366 74.6393 90.1588 74.6219 90.874 74.3347C91.2623 74.1788 91.4457 73.8984 91.4244 73.4935C91.4242 73.4877 91.4225 73.4821 91.4194 73.4772C91.4163 73.4722 91.412 73.4682 91.4069 73.4655C91.4018 73.4628 91.3961 73.4615 91.3903 73.4617C91.3845 73.4619 91.3788 73.4636 91.3738 73.4666C90.6016 73.9548 89.8204 74.0994 89.0301 73.9003C88.6181 73.7967 88.2908 73.6332 88.0483 73.41C87.7559 73.1412 87.5827 72.7903 87.5286 72.3574C87.4469 71.705 87.6653 71.1781 88.1836 70.7767C88.4228 70.5917 88.6672 70.4648 88.9169 70.396C89.795 70.1548 90.6161 70.2962 91.3802 70.8202ZM91.4315 72.1373C91.4315 72.0072 91.3928 71.8785 91.3177 71.7584C91.2426 71.6382 91.1324 71.5291 90.9936 71.4371C90.8548 71.3452 90.6899 71.2723 90.5086 71.2225C90.3272 71.1728 90.1327 71.1471 89.9364 71.1471C89.7401 71.1471 89.5456 71.1728 89.3643 71.2225C89.1829 71.2723 89.018 71.3452 88.8792 71.4371C88.7404 71.5291 88.6302 71.6382 88.5551 71.7584C88.48 71.8785 88.4413 72.0072 88.4413 72.1373C88.4413 72.3999 88.5988 72.6517 88.8792 72.8374C89.1596 73.0231 89.5399 73.1274 89.9364 73.1274C90.3329 73.1274 90.7132 73.0231 90.9936 72.8374C91.274 72.6517 91.4315 72.3999 91.4315 72.1373Z"
          fill="var(--current-color-1)"/>
    <path d="M97.743 71.0999C98.0216 71.4457 98.1348 71.8758 98.0826 72.3901C98.0815 72.3999 98.0769 72.409 98.0697 72.4155C98.0625 72.4221 98.0531 72.4257 98.0434 72.4257L94.4473 72.4344C94.2342 72.4349 94.2055 72.5092 94.3612 72.6574C94.5876 72.8724 94.8363 73.0182 95.1073 73.0947C95.3575 73.1649 95.6349 73.1867 95.9396 73.1601C96.279 73.1305 96.5872 73.0184 96.8644 72.8237C96.8834 72.8106 96.9058 72.804 96.928 72.8048C96.9503 72.8055 96.9712 72.8137 96.9876 72.8281L97.5906 73.3628C97.5939 73.3656 97.5965 73.3693 97.5982 73.3734C97.5999 73.3775 97.6007 73.3819 97.6004 73.3864C97.6001 73.3909 97.5988 73.3953 97.5966 73.3993C97.5945 73.4032 97.5914 73.4066 97.5878 73.4092C97.2237 73.6766 96.7897 73.8526 96.2856 73.9374C95.5153 74.0672 94.8157 73.9625 94.1868 73.6235C93.8569 73.4458 93.6129 73.2206 93.4549 72.948C93.2513 72.5964 93.1934 72.2215 93.2812 71.8234C93.3642 71.4447 93.5562 71.128 93.8571 70.8733C94.1414 70.6316 94.4882 70.4665 94.8973 70.3778C95.5404 70.2384 96.1451 70.2609 96.7113 70.4454C97.168 70.5941 97.5118 70.8123 97.743 71.0999ZM96.7833 71.4537C96.1748 71.0648 95.5307 71.0019 94.851 71.2648C94.6108 71.3583 94.4267 71.513 94.2985 71.729C94.28 71.7605 94.2886 71.7762 94.3242 71.7762H97.0118C97.0645 71.7762 97.0756 71.7542 97.0453 71.7101C96.9712 71.6036 96.8839 71.5181 96.7833 71.4537Z"
          fill="var(--current-color-1)"/>
    <path d="M102.401 70.5028C102.572 70.6098 102.708 70.7532 102.81 70.9328C102.813 70.9386 102.818 70.9434 102.823 70.9472C102.828 70.9509 102.835 70.9533 102.841 70.9543C102.847 70.9552 102.854 70.9547 102.86 70.9528C102.866 70.9508 102.872 70.9475 102.877 70.943C103.455 70.3919 104.136 70.1844 104.919 70.3205C105.468 70.4159 105.838 70.6931 106.027 71.1522C106.106 71.3426 106.149 71.6433 106.157 72.0545C106.168 72.6501 106.17 73.2533 106.163 73.864C106.163 73.8738 106.159 73.8832 106.153 73.8902C106.146 73.8971 106.137 73.901 106.127 73.901H105.296C105.291 73.901 105.286 73.9 105.281 73.8979C105.276 73.8959 105.272 73.8929 105.268 73.8891C105.264 73.8853 105.261 73.8809 105.259 73.8759C105.257 73.871 105.256 73.8657 105.256 73.8604C105.256 73.2637 105.256 72.6719 105.254 72.085C105.253 71.6312 105.064 71.3406 104.687 71.2132C104.251 71.0665 103.832 71.1467 103.427 71.4537C103.292 71.5568 103.19 71.6944 103.122 71.8663C103.076 71.9825 103.053 72.147 103.051 72.3596C103.048 72.8564 103.047 73.3567 103.049 73.8604C103.049 73.8712 103.045 73.8815 103.038 73.8891C103.03 73.8968 103.02 73.901 103.01 73.901H102.197C102.189 73.901 102.182 73.8995 102.175 73.8966C102.168 73.8936 102.162 73.8892 102.156 73.8838C102.151 73.8783 102.147 73.8718 102.144 73.8647C102.141 73.8575 102.14 73.8499 102.14 73.8422C102.148 73.2988 102.145 72.7748 102.133 72.2702C102.126 71.9743 102.09 71.7598 102.025 71.6266C101.915 71.4028 101.734 71.259 101.483 71.1951C100.962 71.0624 100.523 71.1987 100.166 71.6041C100.107 71.6719 100.058 71.7462 100.018 71.8271C99.965 71.9341 99.9372 72.0201 99.9344 72.085C99.9097 72.6676 99.9085 73.2589 99.9308 73.8589C99.931 73.8644 99.9301 73.8698 99.9283 73.8749C99.9264 73.88 99.9235 73.8847 99.9199 73.8886C99.9162 73.8926 99.9118 73.8957 99.907 73.8978C99.9021 73.9 99.8969 73.9011 99.8917 73.901H99.0665C99.0512 73.901 99.0365 73.8948 99.0257 73.8838C99.0149 73.8728 99.0088 73.8578 99.0088 73.8422V70.4142C99.0088 70.4094 99.0098 70.4047 99.0115 70.4003C99.0133 70.3959 99.016 70.3919 99.0193 70.3885C99.0226 70.3851 99.0265 70.3824 99.0308 70.3806C99.0351 70.3788 99.0397 70.3778 99.0444 70.3778H99.8781C99.8883 70.3778 99.8981 70.3821 99.9053 70.3896C99.9125 70.397 99.9166 70.4072 99.9166 70.4178L99.9201 70.9002C99.9201 70.9249 99.9292 70.9287 99.9472 70.9118C100.498 70.3921 101.136 70.1933 101.861 70.3154C102.081 70.3527 102.261 70.4151 102.401 70.5028Z"
          fill="var(--current-color-1)"/>
    <path d="M110.378 70.3996C110.915 70.5352 111.318 70.8018 111.588 71.1994C111.831 71.5583 111.922 71.9564 111.86 72.3937C111.858 72.4037 111.853 72.4129 111.846 72.4196C111.838 72.4263 111.828 72.43 111.818 72.43L108.072 72.4344C108.068 72.4344 108.064 72.4355 108.061 72.4374C108.057 72.4394 108.054 72.4422 108.052 72.4456C108.05 72.449 108.048 72.4529 108.048 72.457C108.047 72.4612 108.048 72.4653 108.049 72.4692C108.125 72.6736 108.258 72.8225 108.446 72.916C109.207 73.2923 109.949 73.2577 110.673 72.8121C110.682 72.8064 110.693 72.8035 110.703 72.8039C110.714 72.8043 110.723 72.8079 110.731 72.8143L111.362 73.3417C111.369 73.3473 111.374 73.3545 111.377 73.3627C111.381 73.371 111.382 73.38 111.381 73.389C111.38 73.3981 111.377 73.4069 111.372 73.4147C111.367 73.4225 111.36 73.4291 111.353 73.4339C110.364 74.0412 109.358 74.1592 108.337 73.7877C107.925 73.6381 107.621 73.4511 107.423 73.2269C107.17 72.9397 107.039 72.5772 107.03 72.1394C107.024 71.7893 107.111 71.4881 107.29 71.2358C107.578 70.8309 107.975 70.5587 108.482 70.4193C109.112 70.2459 109.744 70.2393 110.378 70.3996ZM110.583 71.4624C109.985 71.0716 109.345 71.0009 108.664 71.2503C108.419 71.3404 108.223 71.4982 108.078 71.7239C108.055 71.7588 108.064 71.7762 108.105 71.7762L110.805 71.7719C110.809 71.7719 110.813 71.7709 110.816 71.769C110.82 71.7671 110.823 71.7644 110.825 71.761C110.827 71.7577 110.828 71.7538 110.828 71.7499C110.828 71.746 110.828 71.742 110.826 71.7385C110.771 71.6246 110.69 71.5326 110.583 71.4624Z"
          fill="var(--current-color-1)"/>
    <path d="M116.786 70.5638C117.171 70.7474 117.404 71.0789 117.484 71.5583C117.517 71.7544 117.522 72.5218 117.498 73.8604C117.498 73.8703 117.494 73.8797 117.487 73.8866C117.481 73.8935 117.471 73.8974 117.462 73.8974H116.634C116.625 73.8974 116.615 73.8936 116.609 73.8868C116.602 73.88 116.598 73.8707 116.598 73.8611C116.593 73.263 116.592 72.6649 116.594 72.0668C116.578 71.6401 116.384 71.3663 116.011 71.2452C115.502 71.0801 115.014 71.1074 114.547 71.3273C114.301 71.4435 114.11 71.5905 113.974 71.7682C113.816 71.9745 113.728 72.2133 113.711 72.4845C113.693 72.7581 113.685 73.2165 113.689 73.8596C113.689 73.8695 113.685 73.879 113.678 73.8861C113.672 73.8932 113.663 73.8972 113.653 73.8974L112.83 73.901C112.819 73.901 112.809 73.8967 112.802 73.889C112.794 73.8812 112.79 73.8707 112.789 73.8596L112.785 70.4309C112.785 70.4245 112.786 70.4182 112.789 70.4123C112.791 70.4063 112.795 70.401 112.799 70.3965C112.804 70.3919 112.809 70.3884 112.815 70.3859C112.82 70.3835 112.827 70.3822 112.833 70.3822L113.657 70.3778C113.662 70.3778 113.667 70.3788 113.671 70.3806C113.675 70.3824 113.679 70.3851 113.682 70.3885C113.686 70.3919 113.688 70.3959 113.69 70.4003C113.692 70.4047 113.693 70.4094 113.693 70.4142V70.9372C113.693 71.0215 113.721 71.0326 113.776 70.9706C114.027 70.6907 114.348 70.4965 114.741 70.388C115.447 70.1929 116.128 70.2514 116.786 70.5638Z"
          fill="var(--current-color-1)"/>
    <path d="M26.4194 76.2656C26.4194 76.4604 25.3443 76.6472 23.4304 76.7849C21.5166 76.9226 18.9209 77 16.2143 77C13.5077 77 10.912 76.9226 8.99817 76.7849C7.08433 76.6472 6.00915 76.4604 6.00915 76.2656C6.00915 76.0708 7.08433 75.884 8.99817 75.7463C10.912 75.6085 13.5077 75.5312 16.2143 75.5312C18.9209 75.5312 21.5166 75.6085 23.4304 75.7463C25.3443 75.884 26.4194 76.0708 26.4194 76.2656ZM10.864 76.591C14.3364 76.7271 17.8091 76.731 21.282 76.6026C22.639 76.5528 23.991 76.4409 25.338 76.267C25.3646 76.2636 25.3646 76.2603 25.338 76.2569C24.5695 76.1561 23.7985 76.0835 23.0248 76.0389C18.9624 75.807 14.8986 75.7764 10.8333 75.9474C9.66289 75.9968 8.47393 76.0874 7.26646 76.2191C7.03484 76.2443 7.0346 76.2716 7.26575 76.3012C8.39348 76.445 9.59289 76.5416 10.864 76.591Z"
          fill="var(--current-color-1)"/>
</svg>
