<svg id="logo" viewBox="0 0 140 108" fill="none" xmlns="http://www.w3.org/2000/svg">
    <path d="M24.1095 94.5522C23.1425 95.294 21.6806 95.9999 18.7106 95.9999C16.1896 95.9999 14.1176 95.5213 13.6226 95.5213C13.2427 95.5213 13.2197 95.8084 12.8744 95.8084C12.5636 95.8084 12.529 95.7127 12.4715 95.2222C12.2873 93.8702 11.9995 91.1662 11.9995 90.2928C11.9995 90.0057 12.1952 89.6467 12.7477 89.6467C12.9665 89.6467 13.001 89.8382 13.0586 90.1612C13.3118 91.4893 13.8643 92.59 14.7968 93.3557C15.8558 94.1932 17.3753 94.6838 19.0215 94.6838C21.3122 94.6838 23.0504 93.1643 23.0504 90.903C23.0504 88.6537 21.623 87.876 18.4228 86.3924C16.0055 85.2677 15.1421 84.849 14.2097 83.8799C13.1276 82.7791 12.8744 81.5229 12.8744 80.4939C12.8744 77.2037 15.2342 74.8467 19.6661 74.8467C20.4719 74.8467 21.5309 74.9185 22.3943 75.0142C23.2346 75.1099 23.9138 75.2056 24.0059 75.2056C24.1325 75.2056 24.2246 75.1338 24.3167 75.074C24.4203 75.0381 24.4433 75.0381 24.6275 75.0381C24.8232 75.0381 24.8462 75.1697 24.8462 75.3611C24.8462 75.5526 24.7886 77.2037 24.8807 78.0053C24.9383 78.6514 25.0419 79.5846 25.0419 79.7521C25.0419 80.0752 24.6275 80.1709 24.3512 80.1709C24.167 80.1709 24.1325 80.0752 23.9829 79.5846C23.672 78.6275 23.3267 77.5865 22.3022 76.8806C21.5309 76.2944 20.4489 76.0072 19.2977 76.0072C17.2142 76.0072 15.6371 77.3353 15.6371 79.5248C15.6371 81.9057 17.0875 82.5518 20.6906 84.2029C23.177 85.3276 26.1239 86.6556 26.1239 90.2928C26.1239 92.255 25.157 93.7506 24.1095 94.5522Z"
          fill="var(--current-color-1)"/>
    <path d="M48.0301 82.8749C47.3164 83.2338 46.1883 85.3276 45.417 86.8471C44.6457 88.3546 43.4025 91.1662 42.4125 93.3916C42.1938 93.942 41.7218 95.0308 41.6297 95.2222C41.5146 95.5452 41.2959 95.641 41.0082 95.6769L40.2369 95.7726C40.0182 95.8085 39.9836 95.7486 39.7994 95.0308C39.4311 93.619 38.5908 90.8791 37.5087 87.7205C35.4021 91.9679 34.9301 93.0088 33.9747 95.2581C33.8481 95.617 33.8481 95.617 33.6294 95.641L32.5473 95.8085C32.4207 95.8085 32.3861 95.7128 32.2019 95.1983C31.1429 92.0397 29.3471 87.0983 28.196 84.526C27.7355 83.521 27.4593 83.0663 27.1715 82.9467C26.8031 82.7433 26.7686 82.7433 26.7686 82.3604C26.7686 82.0972 26.8377 82.0015 27.1139 82.0015C27.7701 82.0015 29.0709 82.0374 29.5659 82.0374C30.6479 82.0374 31.6494 82.0015 32.6048 82.0015C32.7315 82.0015 32.766 82.2049 32.766 82.4322C32.766 82.815 32.7315 82.839 32.3516 82.8749C31.3616 82.9706 31.0853 83.2936 31.0853 83.844C31.0853 84.3944 31.6149 85.8779 32.0753 87.2299C32.5703 88.558 33.0653 89.9459 34.0898 92.614C34.6539 91.4175 36.3921 87.6846 37.0367 86.2369C36.4496 84.6815 36.0467 83.6526 35.7705 83.2697C35.4942 82.9467 35.2985 82.9108 34.7114 82.815C34.5273 82.7792 34.4927 82.6475 34.4927 82.4561C34.4927 82.1331 34.5618 82.0015 34.8726 82.0015C35.7129 82.0015 37.29 82.0374 37.8425 82.0374C38.5332 82.0374 40.306 82.0015 40.6398 82.0015C40.9506 82.0015 40.9851 82.1331 40.9851 82.4322C40.9851 82.815 40.9506 82.839 40.5822 82.9108C39.6153 82.9706 39.0857 83.0065 39.0857 83.7842C39.0857 84.3585 41.1348 90.8073 41.7219 92.5541C42.6543 90.4603 43.7479 88.0076 44.358 86.4522C44.7033 85.5908 45.1753 84.4183 45.1753 83.8081C45.1753 82.9706 44.427 82.839 43.7133 82.815C43.3104 82.815 43.2759 82.7792 43.2759 82.4322C43.2759 82.1331 43.3104 82.0015 43.5522 82.0015C43.8975 82.0015 45.0141 82.0374 46.0041 82.0374C46.7523 82.0374 47.6502 82.0015 48.0531 82.0015C48.2718 82.0015 48.3409 82.1331 48.3409 82.3604C48.3409 82.6834 48.2373 82.7433 48.0301 82.8749Z"
          fill="var(--current-color-1)"/>
    <path d="M52.7958 77.2397C52.0936 77.2397 51.2533 76.3663 51.2533 75.6245C51.2533 74.7511 52.2087 73.8777 52.8994 73.8777C53.6131 73.8777 54.4764 74.7511 54.4764 75.5288C54.4764 76.3304 53.6361 77.2397 52.7958 77.2397ZM56.088 95.677C55.6506 95.677 54.2577 95.6171 52.7382 95.6171C51.5295 95.6171 49.7913 95.677 49.2042 95.677C48.9855 95.677 48.9279 95.6171 48.9279 95.33C48.9279 94.9352 48.9855 94.9112 49.423 94.8036C50.4475 94.6121 50.8158 94.3609 51.0345 93.643C51.2763 92.8414 51.2763 90.1972 51.2763 88.3308C51.2763 84.9688 51.2763 84.5261 49.7913 84.3227C49.2963 84.227 49.2618 84.227 49.2618 83.88C49.2618 83.5211 49.4229 83.4971 49.6992 83.3296C50.2863 83.0664 52.2087 82.0973 52.9569 81.7862C53.2677 81.6187 53.521 81.5589 53.7282 81.5589C53.9469 81.5589 54.039 81.6546 54.039 81.846C54.016 82.3007 53.9469 83.2698 53.9239 83.7843C53.8894 84.5261 53.8318 85.9738 53.8318 88.4504C53.8318 89.4554 53.8318 93.0089 53.9814 93.7148C54.1311 94.6121 54.7297 94.7078 55.9384 94.7796C56.3643 94.8036 56.4334 94.8753 56.4334 95.2223C56.4334 95.6171 56.3413 95.677 56.088 95.677Z"
          fill="var(--current-color-1)"/>
    <path d="M61.9588 95.9759C60.6465 95.9759 59.599 95.7725 59.035 95.6768C58.7587 95.6409 58.5054 95.5811 58.3903 95.5811C58.2982 95.5811 58.0795 95.6409 57.9529 95.6409C57.7687 95.6409 57.6996 95.4854 57.6996 95.2222C57.6996 94.8752 57.7342 94.3248 57.7342 93.6429C57.7342 93.1284 57.6075 92.0037 57.6075 91.7166C57.6075 91.4534 57.8608 91.3935 58.1946 91.3935C58.3903 91.3935 58.4133 91.4534 58.5399 91.9439C59.1616 94.3607 61.2681 94.8752 62.3847 94.8752C64.3762 94.8752 64.8367 93.5232 64.8367 92.7096C64.8367 91.3218 63.7546 90.6518 61.7056 89.6467C59.9673 88.8092 58.1025 87.876 58.1025 85.5908C58.1025 84.1072 59.104 81.7502 63.1675 81.7502C64.2841 81.7502 65.6194 82.0014 65.8381 82.0014C65.9302 82.0014 66.1375 81.9416 66.2641 81.9416C66.4828 81.9416 66.4828 82.0014 66.5519 82.492C66.6094 83.2338 66.7591 84.6815 66.7591 85.1959C66.7591 85.4831 66.7015 85.5908 66.1375 85.5908C65.9878 85.5908 65.9302 85.519 65.8036 85.172C65.4583 84.3943 64.5949 82.8389 62.6035 82.8389C60.7501 82.8389 60.4624 84.2029 60.4624 84.8131C60.4624 86.0694 61.3027 86.6197 63.697 87.7803C65.3662 88.5819 67.4728 89.6228 67.4728 92.0396C67.4728 95.3897 63.7546 95.9759 61.9588 95.9759Z"
          fill="var(--current-color-1)"/>
    <path d="M73.4933 95.9759C72.1925 95.9759 71.1334 95.7725 70.5809 95.6768C70.2931 95.6409 70.0513 95.5811 69.9247 95.5811C69.8326 95.5811 69.6139 95.6409 69.4873 95.6409C69.3031 95.6409 69.2456 95.4854 69.2456 95.2222C69.2456 94.8752 69.2801 94.3248 69.2801 93.6429C69.2801 93.1284 69.1534 92.0037 69.1534 91.7166C69.1534 91.4534 69.3952 91.3935 69.7405 91.3935C69.9247 91.3935 69.9592 91.4534 70.0859 91.9439C70.7075 94.3607 72.8141 94.8752 73.9307 94.8752C75.9106 94.8752 76.3826 93.5232 76.3826 92.7096C76.3826 91.3218 75.289 90.6518 73.2515 89.6467C71.5133 88.8092 69.6484 87.876 69.6484 85.5908C69.6484 84.1072 70.6384 81.7502 74.7019 81.7502C75.8185 81.7502 77.1539 82.0014 77.3726 82.0014C77.4647 82.0014 77.6834 81.9416 77.81 81.9416C78.0287 81.9416 78.0287 82.0014 78.0863 82.492C78.1438 83.2338 78.305 84.6815 78.305 85.1959C78.305 85.4831 78.236 85.5908 77.6834 85.5908C77.5338 85.5908 77.4646 85.519 77.338 85.172C77.0042 84.3943 76.1294 82.8389 74.1494 82.8389C72.2846 82.8389 72.0082 84.2029 72.0082 84.8131C72.0082 86.0694 72.8371 86.6197 75.2315 87.7803C76.9121 88.5819 79.0187 89.6228 79.0187 92.0396C79.0187 95.3897 75.289 95.9759 73.4933 95.9759Z"
          fill="var(--current-color-1)"/>
    <path d="M96.1707 94.8035C95.9865 95.4855 95.9289 95.7487 95.6181 95.7487C94.9619 95.7487 94.4324 95.5812 88.6307 95.5812C83.2664 95.5812 82.0232 95.7487 81.6548 95.7487C81.344 95.7487 81.2864 95.641 81.2864 95.33C81.2864 94.8753 81.3095 94.8753 81.8045 94.8035C83.6117 94.648 83.7614 93.5831 83.888 92.4585C84.0722 90.4604 84.0722 86.4284 84.0722 83.7842C84.0722 81.9776 84.0722 79.1061 84.0722 79.1061C84.0722 76.9405 83.9226 76.2945 82.334 76.0432C81.6203 75.9475 81.5628 75.9116 81.5628 75.6245C81.5628 75.1698 81.6203 75.1339 81.9081 75.1339C82.8635 75.1339 84.6593 75.2655 85.5687 75.2655C86.7083 75.2655 88.6998 75.1339 89.4711 75.1339C89.6898 75.1339 89.8164 75.2296 89.8164 75.4928C89.8164 75.9475 89.7819 75.9714 89.2523 76.0432C87.894 76.1389 87.3299 76.462 87.1457 77.5268C86.8925 78.7472 86.8695 83.9039 86.8695 86.0096C86.8695 88.9409 86.8925 92.3867 87.1112 93.3558C87.2724 94.1335 87.7673 94.1694 89.0681 94.1694C90.9905 94.1694 93.1317 94.1694 94.2253 93.4874C95.0541 92.9729 95.6181 91.9081 95.952 90.7476C96.0786 90.2929 96.1476 90.0417 96.3318 90.0417C96.9189 90.0417 97.011 90.1613 97.011 90.3886C97.011 90.8792 96.8268 92.3628 96.1707 94.8035Z"
          fill="var(--current-color-1)"/>
    <path d="M102.041 77.2397C101.328 77.2397 100.487 76.3663 100.487 75.6245C100.487 74.7511 101.443 73.8777 102.134 73.8777C102.847 73.8777 103.711 74.7511 103.711 75.5288C103.711 76.3304 102.87 77.2397 102.041 77.2397ZM105.322 95.677C104.896 95.677 103.492 95.6171 101.972 95.6171C100.764 95.6171 99.0255 95.677 98.4384 95.677C98.2197 95.677 98.1622 95.6171 98.1622 95.33C98.1622 94.9352 98.2197 94.9112 98.6572 94.8036C99.6817 94.6121 100.05 94.3609 100.269 93.643C100.522 92.8414 100.522 90.1972 100.522 88.3308C100.522 84.9688 100.522 84.5261 99.0255 84.3227C98.5305 84.227 98.496 84.227 98.496 83.88C98.496 83.5211 98.6571 83.4971 98.9334 83.3296C99.5205 83.0664 101.443 82.0973 102.191 81.7862C102.502 81.6187 102.755 81.5589 102.962 81.5589C103.181 81.5589 103.285 81.6546 103.285 81.846C103.25 82.3007 103.181 83.2698 103.158 83.7843C103.124 84.5261 103.066 85.9738 103.066 88.4504C103.066 89.4554 103.066 93.0089 103.216 93.7148C103.365 94.6121 103.964 94.7078 105.173 94.7796C105.61 94.8036 105.668 94.8753 105.668 95.2223C105.668 95.6171 105.575 95.677 105.322 95.677Z"
          fill="var(--current-color-1)"/>
    <path d="M118.606 76.3303C118.422 76.3303 118.226 76.103 117.858 75.7799C117.421 75.3971 116.684 74.8826 115.095 74.8826C111.746 74.8826 111.596 77.0123 111.596 82.0733C111.907 82.0733 115.257 82.0733 115.936 82.0733C116.247 82.0733 116.212 82.169 116.212 82.8749C116.212 83.521 116.212 83.6885 115.809 83.6885H111.596C111.596 86.6796 111.619 90.7475 111.653 92.6858C111.711 94.4804 112.31 94.7437 114.382 94.7437C114.785 94.7796 114.819 94.8394 114.819 95.1983C114.819 95.6171 114.762 95.7128 114.197 95.7128C113.737 95.7128 111.469 95.641 110.007 95.641C108.96 95.641 107.659 95.7128 107.153 95.7128C107.003 95.7128 106.968 95.5213 106.968 95.294C106.968 94.9111 107.003 94.8753 107.371 94.8035C108.672 94.6121 108.891 94.289 108.96 92.4824C109.017 90.3527 109.017 86.0335 109.017 83.7124H107.406C107.222 83.6885 107.222 83.6526 107.222 83.3894C107.222 83.0065 107.222 82.9707 107.371 82.8749L109.052 82.0972C109.109 79.2975 109.144 78.0413 110.537 76.1748C111.872 74.3682 114.14 72.8846 116.615 72.8846C118.952 72.8846 120.276 74.0452 120.276 74.9425C120.276 75.6843 118.848 76.3303 118.606 76.3303Z"
          fill="var(--current-color-1)"/>
    <path d="M122.232 82.9107C120.402 82.9107 119.562 85.3634 119.539 87.7443C120.839 87.517 121.645 87.3256 123.878 86.7513C124.834 86.4881 124.995 86.2369 124.995 85.9138C124.995 84.7533 123.786 82.9107 122.232 82.9107ZM127.631 93.9061C126.457 94.9709 124.408 95.9759 122.267 95.9759C117.8 95.9759 116.868 92.0037 116.868 89.551C116.868 84.5259 120.16 81.7502 123.107 81.7502C124.592 81.7502 126.952 82.5518 127.689 85.3994C127.884 86.1651 128.034 87.1342 127.884 87.1701C125.087 87.6128 122.324 88.1631 119.562 88.7494C119.654 90.9987 120.494 94.1334 123.752 94.1334C124.742 94.1334 126.296 93.8463 127.723 92.7096C127.815 92.6139 127.884 92.59 127.907 92.7096C127.942 92.937 127.976 93.1045 128 93.3198C128 93.5472 127.907 93.6787 127.631 93.9061Z"
          fill="var(--current-color-1)"/>
    <path fill-rule="evenodd" clip-rule="evenodd"
          d="M96.8142 36.9547C97.0099 39.0485 97.0329 41.0824 96.8487 42.9489C96.5725 45.6648 95.9624 47.9501 95.548 49.1704C95.4847 49.3678 95.4794 49.3743 95.4346 49.4293L95.4213 49.4457C95.3293 49.5294 95.122 49.5175 95.122 49.5175L88.1346 49.3858C75.4606 49.3619 68.22 51.7069 64.9277 55.2604C62.9938 57.3422 62.165 59.9505 62.9132 62.7262C63.2701 64.0303 63.719 64.9636 64.1449 65.6575C64.3867 66.0404 64.5479 66.2557 64.8471 66.5907C65.1464 66.9257 65.6644 67.3924 65.6644 67.3924C65.6644 67.3924 65.8371 67.5359 65.8256 67.5958C65.8026 67.7034 65.5954 67.6915 65.5954 67.6915C65.5954 67.6915 64.5248 67.7752 63.0859 67.3684C60.2656 66.5668 55.7186 64.0423 54.4409 58.3711C53.3127 53.3819 54.7862 49.3858 57.8713 46.2511C64.4443 39.5749 79.3054 36.5121 90.9434 36.3565C92.9924 36.3326 94.7998 36.3924 96.4574 36.524C96.5495 36.5359 96.6185 36.5599 96.6876 36.6317C96.7681 36.7154 96.8027 36.8231 96.8142 36.9547ZM96.4341 34.5378C95.9852 32.0373 94.9146 28.8786 93.6138 26.5575C93.4149 26.1243 93.0367 25.4966 92.7422 25.0078C92.6788 24.9027 92.6193 24.804 92.5663 24.715C92.4834 24.5817 92.4646 24.5666 92.4421 24.5484C92.4303 24.5389 92.4174 24.5285 92.3936 24.4996C92.29 24.392 91.9908 24.38 91.9908 24.38C91.254 24.2843 89.5273 24.2125 87.4783 24.2125H87.4668C83.8638 24.1646 79.3974 24.6312 74.4475 25.6243C67.1262 27.0959 60.7719 29.6324 55.6148 33.1141C50.0664 36.847 45.9913 41.0704 44.4143 47.8304C44.161 48.8952 44.8172 50.8095 45.5193 52.329C45.9216 53.176 46.3424 53.8404 46.7402 54.4686C46.7863 54.5415 46.8322 54.6139 46.8777 54.686C46.9352 54.7817 47.0158 54.8894 47.0849 54.8416C47.131 54.8176 47.1424 54.7698 47.1655 54.6501C47.1843 54.5568 47.2034 54.4496 47.2251 54.3288C47.3226 53.784 47.4698 52.9614 47.8562 51.8744C48.708 49.4815 50.6649 44.3966 59.0222 40.221C64.5822 37.4332 70.6257 36.1052 76.1511 35.4232C84.9113 34.3464 91.5418 34.2985 96.1348 34.813C96.1469 34.8142 96.1592 34.8155 96.1714 34.817L96.2083 34.8216C96.3107 34.8348 96.4062 34.8471 96.4341 34.7891C96.4687 34.7173 96.4572 34.6455 96.4341 34.5378ZM73.5036 12.26C71.9956 11.9848 69.4746 11.913 67.4716 12.1164C65.8485 12.272 63.9722 12.6189 62.7404 13.0018C62.6989 13.0175 62.661 13.028 62.6265 13.0377C62.5558 13.0574 62.499 13.0732 62.4526 13.1214C62.3951 13.1812 62.3606 13.265 62.3376 13.3368C61.4755 16.4727 57.3039 19.8859 55.2356 21.5782C54.8735 21.8746 54.5758 22.1181 54.3717 22.2982C54.1317 22.5095 53.8946 22.7173 53.6601 22.9228C51.9818 24.3934 50.4387 25.7455 48.9844 27.3831C47.5685 28.9744 46.0835 30.8767 45.082 32.7073C44.023 34.6216 43.4704 36.5479 43.1711 38.4263C42.9179 40.0176 42.8718 41.5131 42.9639 42.6737C42.9639 42.6856 42.9869 42.9249 42.9984 43.0326C43.1447 44.5418 43.3857 45.2924 43.4463 45.4809C43.4525 45.5001 43.4568 45.5135 43.4589 45.5212L43.4678 45.5491C43.5111 45.6856 43.5576 45.8323 43.6546 45.8323C43.7504 45.8323 43.7824 45.6913 43.8104 45.5682C43.816 45.5434 43.8215 45.5193 43.8273 45.4973C43.8392 45.4559 43.8677 45.3486 43.906 45.2042C43.9785 44.9312 44.0863 44.5254 44.1841 44.1812C44.3568 43.5591 44.4604 43.2121 44.6446 42.6019C45.2087 40.9269 46.2332 38.5698 48.4203 36.0693C52.1135 31.859 55.9904 29.5497 59.7417 27.3152C62.6318 25.5937 65.4474 23.9166 68.0472 21.4487C71.5406 18.1378 72.8107 15.0306 73.583 13.141C73.6479 12.9822 73.7094 12.8317 73.7683 12.6907C73.7777 12.6694 73.787 12.6494 73.7958 12.6304C73.8415 12.532 73.8741 12.4618 73.8259 12.3916C73.7683 12.3078 73.6533 12.2839 73.5036 12.26ZM89.2741 38.6893H91.7031V41.5728H94.4888V44.1092H91.7031V46.9927H89.2741V44.1092H86.4884V41.5728H89.2741V38.6893Z"
          fill="var(--current-color-1)"/>
</svg>
