<svg id="logo" viewBox="0 0 118 124" fill="none" xmlns="http://www.w3.org/2000/svg">
    <path d="M41.1092 12.1773C45.0525 12.7834 47.8916 14.8204 49.6264 18.2884C49.9 18.8349 50.1052 19.2985 50.242 19.6793C50.4142 20.155 50.538 20.6484 50.6134 21.1596C50.6189 21.1953 50.6367 21.2279 50.6637 21.2519C50.6907 21.2759 50.7252 21.2896 50.7613 21.2908C51.1857 21.3039 51.6166 21.3341 52.0541 21.3816C52.6376 21.4458 53.0657 21.4957 53.3384 21.531C55.1365 21.7675 56.7735 22.3922 58.2496 23.4051C58.9439 23.8809 59.5093 24.2966 59.9458 24.6522C60.5302 25.1279 61.0077 25.6507 61.3781 26.2205C63.4526 29.4156 64.4438 32.9972 64.3516 36.9651C64.3218 38.2722 64.0933 39.53 63.6662 40.7384C63.6529 40.7758 63.6476 40.8155 63.6505 40.8549C63.6534 40.8944 63.6644 40.9327 63.6829 40.9675C64.1687 41.8817 64.534 42.8374 64.7788 43.8345C65.1958 45.5326 65.0003 47.1479 64.1925 48.6803C63.4284 50.1289 62.3707 51.316 61.0193 52.2414C60.232 52.7804 59.3995 53.2375 58.5218 53.6127C56.8633 54.3194 55.1458 54.8263 53.3691 55.1335C49.2248 55.8494 45.0679 55.9295 40.8984 55.3737C40.85 55.3672 40.85 55.3579 40.8984 55.3458C41.0753 55.3048 41.2851 55.2876 41.528 55.2941C42.5285 55.322 43.7849 55.322 45.2973 55.2941C47.1317 55.2606 49.1703 55.0306 51.4133 54.6042C53.7307 54.1648 55.7945 53.5275 57.6046 52.6924C58.5549 52.2539 59.4925 51.6809 60.4176 50.9733C61.3502 50.2611 62.1152 49.4326 62.7127 48.4876C63.2227 47.6795 63.5591 46.8188 63.722 45.9055C63.9565 44.5928 63.8765 43.2493 63.4819 41.8752C63.413 41.6359 63.3255 41.6294 63.2194 41.8556C62.8611 42.62 62.3548 43.3815 61.7006 44.1403C61.6735 44.1719 61.6571 44.2113 61.6538 44.253C61.6506 44.2946 61.6606 44.3363 61.6824 44.3721C62.0044 44.8991 61.9509 44.9149 61.5219 44.4196C61.5141 44.4109 61.5046 44.4038 61.494 44.3988C61.4834 44.3937 61.4719 44.3909 61.4602 44.3904C61.4485 44.3898 61.4368 44.3917 61.4258 44.3957C61.4149 44.3998 61.4048 44.406 61.3962 44.414C60.2543 45.4977 58.9793 46.2723 57.5711 46.7378C57.2258 46.8514 56.9057 46.9882 56.6107 47.1484C54.6879 48.192 52.6152 48.7031 50.3928 48.6817C50.1266 48.6789 49.859 48.7417 49.5901 48.8702C46.6621 50.2649 43.5583 51.3243 40.2786 52.0487C40.2365 52.0583 40.1977 52.0752 40.165 52.0981C40.1322 52.121 40.1062 52.1493 40.0887 52.1813L39.3014 53.6309C39.2707 53.6877 39.2888 53.7109 39.3558 53.7007C40.3219 53.549 41.267 53.4572 42.1911 53.4256C44.2638 53.3548 46.3127 53.0988 48.3378 52.6575C51.343 52.004 54.2667 51.0911 57.109 49.919C58.1235 49.501 59.07 48.9647 59.9486 48.3102C60.6363 47.7982 61.1189 47.1255 61.3962 46.2923C61.4428 46.1536 61.4772 46.1564 61.4995 46.3007C61.587 46.8639 61.4386 47.4011 61.0542 47.9122C60.5628 48.5667 59.9742 49.1179 59.2882 49.5657C57.9909 50.4138 56.6167 51.1097 55.1658 51.6534C51.6171 52.9838 47.9544 53.7789 44.1777 54.0387C44.174 54.0387 43.8036 54.0563 43.0665 54.0917C41.689 54.1588 40.3428 54.3575 39.0278 54.688C38.9828 54.6995 38.9418 54.7227 38.9089 54.7554C38.876 54.788 38.8525 54.8289 38.8407 54.8738C38.6034 55.7796 38.4512 56.6994 38.3842 57.6332C38.2334 59.7429 37.9649 61.8372 37.5787 63.9161C37.5052 64.3108 37.4228 64.5878 37.3316 64.747C36.9035 65.4955 36.9519 66.0299 37.4768 66.3502C37.7178 66.4963 38.1068 66.5745 38.6438 66.5848C40.1153 66.6118 41.9026 66.5955 44.006 66.5359C46.6128 66.4623 49.021 66.218 51.2304 65.8027C54.5809 65.2618 57.9443 65.1175 61.3209 65.3698C62.0645 65.4257 62.7104 65.5067 63.2585 65.6128C63.8979 65.7376 64.5289 65.8982 65.1515 66.0946C65.4131 66.1765 65.6611 66.2869 65.8956 66.4256C65.9626 66.4656 65.9738 66.4959 65.9291 66.5163C65.9114 66.5247 65.89 66.5261 65.8649 66.5205C63.6471 66.0671 61.4069 65.7925 59.1445 65.6966C57.2849 65.6184 55.4436 65.7315 53.6204 66.0359C53.3356 66.0834 52.4282 66.2878 50.8981 66.649C48.1247 67.3063 45.3038 67.6075 42.4354 67.5526C40.4317 67.5144 38.8844 67.4199 37.7937 67.2691C36.5466 67.0968 36.0114 66.352 36.1882 65.0347C37.1217 62.3953 37.6331 59.6749 37.7225 56.8735C37.7411 56.3205 37.7909 55.7498 37.8718 55.1614C37.8867 55.0525 37.8463 55.0227 37.7504 55.0721L34.5563 56.7157C34.5187 56.735 34.4858 56.7626 34.4597 56.7966C34.4337 56.8307 34.4152 56.8703 34.4055 56.9126C33.9281 58.9813 33.3473 61.0253 32.6633 63.0447C32.3245 64.0464 31.881 64.8908 31.3329 65.5779C31.3031 65.6151 31.1532 65.7506 30.8833 65.9843C30.7149 66.1304 30.5846 66.319 30.4925 66.5499C30.3584 66.8832 30.2738 66.8711 30.2384 66.5136C30.1844 65.9633 30.3859 65.4113 30.8429 64.8573C31.4199 64.16 31.8001 63.3682 31.9834 62.4819C32.3361 60.7716 32.8713 59.026 33.5888 57.245C33.6652 57.0542 33.6023 56.9769 33.4004 57.0132C32.8978 57.1035 32.3268 57.1096 31.6875 57.0313C31.1644 56.968 30.6446 56.8843 30.1281 56.78C30.1244 56.779 29.8224 56.7004 29.2221 56.544C28.7837 56.4295 28.3719 56.3852 27.9866 56.4113C25.8702 56.5575 23.8809 56.476 22.0186 56.1669C20.362 55.8923 18.8408 55.3658 17.455 54.5875C15.9603 53.7468 14.7607 52.6114 13.8561 51.1814C13.3991 50.458 13.0142 49.6304 12.7015 48.6985C12.3981 47.7917 12.1999 46.8947 12.1068 46.0074C11.8863 43.9127 12.0072 41.7583 12.4698 39.5444C12.8318 37.8109 13.2809 36.218 13.817 34.7656C15.3256 30.6823 17.395 26.827 20.0251 23.1998C21.6016 21.0269 23.3969 19.0541 25.4109 17.2815C26.8125 16.047 28.3189 14.9582 29.9299 14.0151C30.4315 13.7209 30.9559 13.4784 31.5032 13.2875C33.3506 12.6405 35.2496 12.2336 37.2004 12.067C38.5657 11.9497 39.8686 11.9864 41.1092 12.1773ZM17.4145 53.413C18.6737 54.2984 20.1154 54.9487 21.7394 55.3639C23.8316 55.8983 25.8 56.166 27.6446 56.1669C27.7218 56.1669 27.7423 56.1474 27.706 56.1083C27.692 56.0943 27.6664 56.0817 27.6292 56.0706C26.4966 55.7456 25.3188 55.2736 24.0959 54.6545C21.0535 53.1137 18.7933 50.8919 17.3154 47.989C16.2451 45.885 15.649 43.6185 15.5271 41.1895C15.4564 39.7865 15.5201 38.4607 15.7183 37.2123C16.4257 32.7398 18.0167 28.6802 20.4913 25.0334C21.0442 24.2188 21.7594 23.3865 22.637 22.5365C24.1755 21.0469 26.0019 20.1033 28.1164 19.7058C28.7772 19.582 29.4436 19.5396 30.1155 19.5787C30.6991 19.6122 31.512 19.7687 32.5544 20.048C35.5046 20.8384 38.5424 21.2638 41.6676 21.3244C43.8203 21.3662 45.8445 21.343 47.7403 21.2545C48.2745 21.2759 48.8074 21.2634 49.3388 21.2168C49.3572 21.2154 49.3744 21.2066 49.3866 21.1923C49.3988 21.178 49.4052 21.1592 49.4044 21.14C49.2769 18.482 48.1843 16.3933 46.1265 14.8739C45.5551 14.4522 44.8976 14.0877 44.154 13.7805C43.5471 13.5291 42.8328 13.3103 42.0111 13.1241C39.703 12.6009 37.3735 12.4654 35.0226 12.7177C34.0351 12.8239 33.1282 13.0185 32.3017 13.3015C31.0164 13.7428 29.8065 14.3521 28.672 15.1295C27.2956 16.0726 26.0098 17.1265 24.8148 18.2912C22.5114 20.5358 20.57 22.8647 18.9906 25.2778C17.9017 26.9425 16.877 28.8771 15.9166 31.0817C14.6322 34.0311 13.856 37.0987 13.588 40.2846C13.5136 41.1672 13.4945 42.0972 13.5308 43.0748C13.595 44.8185 13.7732 46.5525 14.0655 48.2767C14.2693 49.4805 14.7146 50.5535 15.4014 51.4956C15.9012 52.1818 16.5722 52.8209 17.4145 53.413ZM42.3656 35.0184C42.575 36.629 43.5174 37.4176 45.1926 37.3841C46.328 37.3617 47.2936 37.3128 48.0893 37.2374C50.3611 37.0233 52.5571 37.1331 54.6772 37.567C55.5976 37.756 56.505 38.1186 57.3994 38.6549C58.3841 39.2442 59.0109 40.1328 59.2799 41.3208C59.3162 41.4828 59.3995 41.6154 59.5298 41.7188C60.1719 42.2308 60.7382 42.8076 61.2287 43.449C61.2393 43.4632 61.2531 43.4747 61.2689 43.4826C61.2847 43.4906 61.3022 43.4948 61.32 43.4949C61.3378 43.495 61.3554 43.4911 61.3715 43.4834C61.3876 43.4757 61.4018 43.4644 61.413 43.4504C62.004 42.6973 62.5047 41.8547 62.9151 40.9228C62.9784 40.7794 62.9719 40.6397 62.8956 40.5038C62.152 39.1669 61.2031 37.9794 60.0491 36.9414C59.2096 36.1863 58.338 35.4727 57.4343 34.8005C56.0792 33.7913 55.3375 33.2309 55.2091 33.1192C53.5282 31.6593 52.1643 29.8718 51.1173 27.7566C50.2853 26.0771 49.7646 24.4013 49.5552 22.7292C49.5527 22.7101 49.5432 22.6926 49.5285 22.6802C49.5137 22.6678 49.4948 22.6613 49.4756 22.6622C46.973 22.7367 44.4867 22.571 42.0166 22.165C40.4577 21.9099 38.8989 21.653 37.34 21.3942C36.5675 21.2666 35.7927 21.1568 35.0156 21.0646C33.9593 20.9398 33.1817 20.8589 32.6828 20.8216C31.0923 20.7043 29.5036 20.7671 27.9168 21.0101C27.5241 21.0707 26.9963 21.2908 26.3337 21.6707C24.2415 22.8717 22.4379 24.3915 20.9227 26.2302C20.3373 26.9406 19.8036 27.7021 19.3215 28.5149C17.3196 31.8823 16.3456 35.6417 16.3996 39.793C16.4331 42.3681 16.817 44.7133 17.5513 46.8286C18.5053 49.5787 20.2415 51.5715 22.7599 52.8069C23.6077 53.2222 24.7101 53.6323 26.0671 54.0373C27.2825 54.3994 28.3426 54.7844 29.2472 55.1922C30.0374 55.5478 30.5688 55.7559 30.8415 55.8164C31.8261 56.0352 32.8382 55.9663 33.8778 55.6097C33.9115 55.5982 33.9403 55.5757 33.9595 55.5458C33.9788 55.5159 33.9874 55.4803 33.9839 55.4449C33.903 54.6452 33.7596 53.838 33.5539 53.0234C33.5486 53.0034 33.5372 52.9855 33.5215 52.9723C33.5057 52.9591 33.4864 52.951 33.466 52.9494C33.0947 52.9252 32.6177 52.9154 32.0351 52.9201C30.8326 52.9294 29.6139 52.7753 28.3789 52.4578C26.7241 52.0324 25.3714 51.1516 24.3206 49.8157C23.1591 48.3391 22.6063 46.7057 22.6622 44.9154C22.6901 44.0402 22.8916 43.1371 23.2666 42.2062C23.8921 40.6579 24.8283 39.2977 26.0754 38.1256C26.309 37.9561 26.3211 37.9683 26.1117 38.1619C25.8623 38.3928 25.6464 38.6493 25.464 38.9314C25.3756 39.0682 25.2136 39.3582 24.9782 39.8014C24.2485 41.1718 23.8088 42.6004 23.6589 44.0872C23.3006 47.6455 24.7083 50.0428 27.8819 51.2792C29.4631 51.8955 31.2203 52.1641 33.1533 52.085C33.1611 52.0847 33.1687 52.0825 33.1755 52.0786C33.1823 52.0747 33.1881 52.0692 33.1923 52.0624C33.1966 52.0557 33.1991 52.0481 33.1999 52.0401C33.2006 52.0321 33.1995 52.024 33.1966 52.0165C32.6819 50.6899 31.8201 49.7105 30.6111 49.0783C30.6102 49.0783 30.1514 48.8902 29.2346 48.5141C28.1634 48.0756 27.1806 47.4812 26.2862 46.7308C25.5985 46.1536 25.1559 45.514 24.9586 44.812C24.7995 44.2432 24.9623 43.7483 25.4472 43.3275C26.3053 42.5818 27.2597 41.9892 28.3105 41.5498C30.1123 40.7948 31.9704 40.2203 33.8848 39.8265C35.8811 39.416 37.8942 39.119 39.924 38.9356C42.9776 38.6591 45.362 38.5376 47.0772 38.5711C49.1927 38.612 51.1006 38.775 52.8009 39.0598C54.5795 39.3578 56.3701 39.9382 58.1728 40.8013C58.2156 40.8218 58.2296 40.8097 58.2147 40.765C57.9402 39.9727 57.4311 39.3759 56.6875 38.9747C55.6981 38.4412 54.646 38.0921 53.531 37.9273C51.5375 37.634 49.5375 37.5805 47.5309 37.7667C46.4988 37.8626 45.5914 37.863 44.8087 37.7681C44.4504 37.7243 44.0786 37.6196 43.6933 37.4539C43.2717 37.2733 42.9585 37.0601 42.7537 36.8143C42.4215 36.4167 42.2572 35.9084 42.2609 35.2893C42.2619 35.158 42.2791 35.0621 42.3126 35.0016C42.3396 34.9523 42.3573 34.9579 42.3656 35.0184ZM55.9322 32.6457C57.439 34.0376 58.9634 35.4103 60.5056 36.764C61.4977 37.722 62.3921 38.7996 63.1887 39.9969C63.2297 40.0583 63.2595 40.0532 63.2781 39.9815C63.7304 38.194 63.7969 36.4414 63.4777 34.7237C63.1008 32.7007 62.4293 30.7805 61.4632 28.9632C61.2045 28.4772 60.9472 27.9903 60.6912 27.5024C59.6089 25.4366 58.0462 24.0201 56.0034 23.2529C54.4333 22.6636 52.8074 22.4164 51.1257 22.5114C51.0926 22.5132 51.06 22.5183 51.0298 22.5263C50.9996 22.5343 50.9723 22.5451 50.9495 22.5581C50.9268 22.5711 50.9091 22.586 50.8974 22.602C50.8857 22.6179 50.8802 22.6346 50.8814 22.651C51.1541 25.9533 52.39 28.8249 54.5892 31.266C55.0909 31.8227 55.5385 32.2827 55.9322 32.6457ZM43.8608 43.8079C43.5844 44.3302 43.18 44.7278 42.6476 45.0005C41.9962 45.3338 41.3135 45.5619 40.5997 45.6848C39.9929 45.7891 39.5964 45.8789 39.4103 45.9543C38.6024 46.2839 37.9565 46.8346 37.4726 47.6064C36.9654 48.4154 36.561 49.2733 36.2594 50.1801C36.0947 50.6736 35.9142 51.2205 35.7178 51.821C35.711 51.8417 35.7094 51.8638 35.7132 51.8852C35.7171 51.9067 35.7262 51.9268 35.7398 51.9439C35.7534 51.9609 35.771 51.9743 35.791 51.9829C35.811 51.9914 35.8329 51.9948 35.8546 51.9928C37.0747 51.8773 38.2329 51.7093 39.3293 51.4887C39.5908 51.4356 39.7904 51.3309 39.9282 51.1744C40.0324 51.0562 40.085 50.9966 40.0859 50.9957C41.4754 49.6551 43.146 48.9275 45.0977 48.813C45.2466 48.8037 45.2643 48.8139 45.1507 48.8437C43.6225 49.2431 42.2758 49.9674 41.1106 51.0166C41.0622 51.0604 41.0706 51.0795 41.1357 51.0739C41.4066 51.0506 41.6634 51.0031 41.9064 50.9315C42.1939 50.8467 42.3387 50.8039 42.3405 50.803C44.5611 50.222 46.7422 49.5168 48.8837 48.6873C49.0652 48.6165 49.0591 48.5732 48.8655 48.5574C48.3518 48.5146 47.812 48.4424 47.2461 48.341C46.0493 48.125 44.8655 48.1766 43.6947 48.496C42.6802 48.7725 41.7063 49.1523 40.7728 49.6355C40.7516 49.6463 40.73 49.6532 40.7096 49.6556C40.6893 49.6581 40.6708 49.6559 40.6555 49.6495C40.609 49.6281 40.6234 49.5922 40.6988 49.5419C40.8961 49.3632 41.1111 49.21 41.3438 49.0825C42.2437 48.5863 43.1995 48.2399 44.2112 48.0435C45.4173 47.808 46.6296 47.7349 47.8478 47.8243C48.651 47.8829 49.115 47.9141 49.2397 47.9178C49.8306 47.9355 50.2965 47.9388 50.6371 47.9276C50.8772 47.9192 51.1392 47.8475 51.423 47.7125C51.8298 47.5189 52.2397 47.3318 52.6529 47.1511C52.746 47.1176 52.7428 47.1362 52.6432 47.207C52.4189 47.3671 52.1783 47.4984 51.9214 47.6008C51.8795 47.6176 51.8479 47.6381 51.8265 47.6623C51.7567 47.7433 51.8018 47.7782 51.9619 47.767C52.9568 47.699 53.8977 47.4719 54.7847 47.0855C55.7154 46.6796 56.4692 46.1485 57.0462 45.4921C57.9006 44.5201 58.3576 43.3303 58.4171 41.9227C58.4179 41.9016 58.4129 41.8806 58.4026 41.8619C58.3922 41.8432 58.377 41.8275 58.3585 41.8165C57.6354 41.3873 56.8731 41.0429 56.0718 40.7831C54.5557 40.2897 53.0089 39.928 51.4314 39.698C48.4188 39.2586 45.3387 39.1506 42.1911 39.3741C39.5359 39.5621 36.9598 39.9471 34.4628 40.529C33.3739 40.7831 32.4734 41.0159 31.7614 41.2272C30.5218 41.595 29.3142 42.0539 28.1388 42.6042C27.7553 42.7829 27.4045 43.011 27.0862 43.2884C26.6031 43.7111 26.3868 44.1943 26.437 44.738C26.4715 45.1057 26.6683 45.5456 27.0275 46.0577C27.3728 46.5502 27.7418 46.9496 28.1346 47.2559C28.5217 47.5575 29.0425 47.7698 29.6967 47.8927C29.8829 47.9281 30.4287 48.0933 31.3343 48.3884C33.0421 48.9461 34.0626 50.108 34.3957 51.8741C34.4047 51.921 34.4279 51.9619 34.4614 51.99C34.6652 52.1585 34.8271 52.1562 34.9472 51.983C34.9909 51.9206 35.0374 51.7954 35.0868 51.6074C35.5177 49.9511 36.1436 48.4946 36.9644 47.2377C37.2185 46.8486 37.5624 46.525 37.9961 46.2672C38.2167 46.1359 38.6369 45.9381 39.2567 45.6736C39.8495 45.4204 40.4587 45.2109 41.0841 45.0452C41.9841 44.8078 42.5713 44.637 42.8459 44.5327C43.2014 44.3977 43.535 44.1533 43.8468 43.7996C43.8775 43.7642 43.8822 43.767 43.8608 43.8079ZM61.057 43.7381C60.5358 43.2344 60.0025 42.8066 59.4572 42.4547C59.4452 42.4468 59.4313 42.4421 59.417 42.4412C59.4026 42.4403 59.3882 42.4431 59.3752 42.4494C59.3622 42.4557 59.3509 42.4653 59.3425 42.4772C59.3341 42.4892 59.3289 42.5031 59.3273 42.5176C59.171 44.0556 58.5521 45.3664 57.4706 46.4501C57.4669 46.4548 57.4394 46.4762 57.3883 46.5143C57.352 46.5404 57.3371 46.5721 57.3436 46.6093C57.3453 46.6173 57.3493 46.6246 57.3552 46.6306C57.3611 46.6366 57.3687 46.6411 57.3775 46.6438C57.3863 46.6465 57.396 46.6473 57.4058 46.6462C57.4157 46.645 57.4254 46.642 57.4343 46.6372C58.7699 45.9194 59.9783 44.9912 61.0598 43.8526C61.0746 43.8371 61.0826 43.8163 61.0821 43.7948C61.0816 43.7733 61.0726 43.7529 61.057 43.7381ZM35.4497 52.8991L34.8522 55.181C34.8401 55.2257 34.856 55.2396 34.8997 55.2229L38.1371 53.9465C38.1837 53.9285 38.2197 53.8985 38.2376 53.8627L38.9929 52.3615C39.018 52.3121 39.0026 52.2926 38.9468 52.3028C37.7974 52.5132 36.681 52.671 35.5977 52.7762C35.5629 52.7799 35.5301 52.7935 35.5037 52.8155C35.4773 52.8374 35.4585 52.8666 35.4497 52.8991ZM34.6546 53.3237C34.6722 53.3255 34.6919 53.3008 34.7093 53.2549C34.7267 53.2091 34.7403 53.1459 34.7472 53.0792C34.7541 53.0125 34.7537 52.9478 34.746 52.8994C34.7384 52.8509 34.7242 52.8227 34.7065 52.8209C34.6888 52.819 34.6691 52.8438 34.6518 52.8896C34.6344 52.9355 34.6208 52.9987 34.6139 53.0654C34.6105 53.0984 34.6088 53.1313 34.609 53.1621C34.6092 53.193 34.6113 53.2212 34.615 53.2452C34.6188 53.2692 34.6242 53.2885 34.631 53.3019C34.6378 53.3154 34.6458 53.3228 34.6546 53.3237Z"
          fill="var(--current-color-1)"/>
    <path d="M43.0874 25.3211C43.4625 25.3798 43.6872 25.4207 43.7617 25.444C44.9204 25.8108 45.6486 26.4946 45.9465 27.4955C46.1586 28.2077 46.1405 29.073 45.892 30.0916C45.6807 30.9527 45.3299 31.766 44.8394 32.5312C44.5397 32.9986 44.3024 33.4948 44.1274 34.0199C43.7961 35.017 44.0055 35.8442 44.7556 36.5015C44.7929 36.5331 44.7887 36.5564 44.7431 36.5713C44.5495 36.6355 44.3592 36.595 44.1721 36.4498C43.8845 36.2273 43.6756 35.9629 43.5453 35.6566C43.4476 35.4257 43.3973 35.1045 43.3945 34.693C43.3889 33.7564 43.5481 32.844 43.872 31.9559C44.1679 31.1487 44.4038 30.3243 44.5797 29.4827C44.738 28.7276 44.7212 28.068 44.5295 27.5038C44.3052 26.8438 43.8766 26.4099 43.2437 26.2023C42.9599 26.1092 42.5108 26.038 41.8966 25.9886C41.4257 25.9514 40.9682 25.9589 40.5243 26.011C39.4149 26.1413 38.3218 26.4486 37.245 26.9327C35.245 27.8302 33.4255 29.0083 31.7866 30.4672C30.8941 31.2623 30.1188 31.9996 29.4608 32.6793C28.4035 33.7732 27.3468 34.9979 26.2904 36.3534C26.2854 36.3599 26.2789 36.3647 26.2722 36.367C26.2656 36.3693 26.2591 36.369 26.2541 36.366C26.242 36.3595 26.2467 36.3469 26.2681 36.3283C27.4063 34.4812 28.7121 32.7621 30.1853 31.171C32.2161 28.9776 34.6154 27.3158 37.3832 26.1856C38.8658 25.5804 40.5406 25.2746 42.4075 25.2681C42.6272 25.2671 42.8538 25.2848 43.0874 25.3211Z"
          fill="var(--current-color-1)"/>
    <path d="M19.2136 79.2348C19.517 79.408 19.8023 79.6058 20.0694 79.8283C20.0874 79.8434 20.0997 79.8643 20.104 79.8877C20.1083 79.9111 20.1045 79.9356 20.0931 79.9568L19.1592 81.7122C19.1539 81.7222 19.1466 81.7309 19.1378 81.7378C19.129 81.7447 19.1188 81.7497 19.1081 81.7523C19.0974 81.755 19.0863 81.7553 19.0756 81.7532C19.0649 81.7511 19.0548 81.7466 19.0461 81.7402C18.4579 81.2905 17.7995 80.9977 17.0707 80.8617C16.7217 80.7975 16.4523 80.764 16.2624 80.7612C15.9618 80.7575 15.6924 80.8213 15.4541 80.9525C15 81.2039 14.8515 81.5172 15.0088 81.8924C15.1028 82.1186 15.3099 82.3136 15.63 82.4775C15.9986 82.6665 16.3676 82.8071 16.7371 82.8992C17.3262 83.0454 17.8823 83.2218 18.4053 83.4285C19.0968 83.7013 19.5952 83.9946 19.9005 84.3083C20.2271 84.6444 20.4468 85.047 20.5594 85.5163C20.658 85.9296 20.6576 86.3728 20.558 86.8457C20.3709 87.7265 19.9195 88.3949 19.2038 88.8511C18.651 89.203 17.9256 89.419 17.0275 89.4991C15.1987 89.6601 13.5332 89.1229 12.0311 87.8875C12.0158 87.8744 12.0058 87.8565 12.003 87.8374C12.0001 87.8182 12.0047 87.7992 12.0157 87.7842L13.2386 86.0958C13.244 86.0886 13.2508 86.0825 13.2586 86.078C13.2664 86.0735 13.2752 86.0707 13.2843 86.0696C13.2934 86.0686 13.3027 86.0694 13.3117 86.072C13.3206 86.0745 13.329 86.0789 13.3364 86.0846C14.2335 86.7792 15.2503 87.186 16.3867 87.3052C16.6864 87.3368 16.9679 87.3024 17.2313 87.2018C17.517 87.0929 17.7264 86.9211 17.8595 86.6865C18.0205 86.4026 17.9921 86.1331 17.7743 85.878C17.6515 85.7355 17.4425 85.6098 17.1475 85.5009C16.2997 85.1872 15.4416 84.9018 14.5732 84.6449C14.0483 84.4624 13.5783 84.1882 13.1633 83.8223C12.6374 83.3587 12.3475 82.7722 12.2935 82.0627C12.1902 80.7305 12.7054 79.7422 13.8389 79.098C14.3797 78.7917 14.9618 78.6153 15.5854 78.5687C16.4984 78.5007 17.389 78.5906 18.2573 78.8382C18.6045 78.9378 18.9232 79.0701 19.2136 79.2348Z"
          fill="var(--current-color-1)"/>
    <path d="M53.0424 79.6155C54.2253 80.4003 54.9503 81.5655 55.2174 83.1109C55.4641 84.5335 55.2463 85.8248 54.5641 86.9848C54.1872 87.6262 53.6958 88.1606 53.0899 88.588C52.4691 89.0255 51.7883 89.323 51.0475 89.4803C50.1299 89.6758 49.2038 89.6879 48.2694 89.5166C47.2913 89.337 46.4257 88.918 45.6728 88.2598C44.3559 87.1091 43.7654 85.6051 43.9013 83.7477C43.9943 82.476 44.4006 81.4086 45.12 80.5455C45.6933 79.8585 46.4532 79.3422 47.3997 78.9968C48.3825 78.6384 49.3956 78.5299 50.4389 78.6715C51.4272 78.8055 52.2951 79.1202 53.0424 79.6155ZM49.6237 87.1705C50.0021 87.1678 50.3762 87.0871 50.7247 86.9328C51.0733 86.7786 51.3894 86.5539 51.6549 86.2715C51.9205 85.9892 52.1305 85.6547 52.2727 85.2872C52.4149 84.9197 52.4867 84.5264 52.484 84.1298C52.4812 83.7331 52.4039 83.3409 52.2566 82.9754C52.1092 82.6099 51.8946 82.2784 51.6251 81.9998C51.3556 81.7212 51.0364 81.5009 50.6858 81.3516C50.3352 81.2022 49.9599 81.1267 49.5816 81.1293C49.2032 81.132 48.829 81.2127 48.4805 81.367C48.132 81.5212 47.8159 81.7459 47.5503 82.0283C47.2847 82.3106 47.0748 82.6451 46.9326 83.0126C46.7903 83.3801 46.7185 83.7734 46.7213 84.17C46.7241 84.5667 46.8013 84.959 46.9487 85.3244C47.0961 85.6899 47.3106 86.0214 47.5801 86.3C47.8496 86.5786 48.1688 86.7989 48.5195 86.9482C48.8701 87.0976 49.2453 87.1731 49.6237 87.1705Z"
          fill="var(--current-color-1)"/>
    <path d="M81.3147 78.6505C83.4571 78.8283 84.9695 79.7714 85.8518 81.4798C86.2268 82.205 86.4362 82.9736 86.48 83.7854C86.5265 84.6252 86.4009 85.4314 86.1031 86.2042C85.7569 87.0998 85.2147 87.8413 84.4767 88.4288C83.7675 88.9939 82.9592 89.357 82.0518 89.518C81.1807 89.6726 80.3165 89.673 79.4594 89.5194C78.4589 89.3397 77.5738 88.9082 76.8041 88.2249C75.6408 87.1915 75.0582 85.8504 75.0563 84.2016C75.0545 82.1208 75.8469 80.5721 77.4338 79.5554C78.008 79.1867 78.6246 78.9289 79.2835 78.7818C79.9359 78.6356 80.613 78.5918 81.3147 78.6505ZM80.7986 87.1691C81.177 87.1671 81.5513 87.087 81.9001 86.9334C82.2489 86.7798 82.5653 86.5556 82.8314 86.2737C83.0975 85.9918 83.308 85.6577 83.4509 85.2905C83.5938 84.9233 83.6662 84.5301 83.6642 84.1334C83.66 83.3323 83.3524 82.5656 82.8091 82.002C82.2657 81.4383 81.5312 81.1239 80.767 81.1279C80.3886 81.1299 80.0144 81.21 79.6656 81.3636C79.3168 81.5173 79.0003 81.7414 78.7342 82.0233C78.4681 82.3052 78.2576 82.6393 78.1147 83.0065C77.9719 83.3738 77.8994 83.7669 77.9015 84.1636C77.9057 84.9647 78.2133 85.7314 78.7566 86.295C79.2999 86.8587 80.0344 87.1731 80.7986 87.1691Z"
          fill="var(--current-color-1)"/>
    <path d="M40.2043 78.7167C41.081 78.9085 41.8883 79.2884 42.6264 79.8563C42.6478 79.8729 42.6625 79.8966 42.6676 79.9229C42.6728 79.9491 42.668 79.9761 42.6543 79.9987L41.4635 82.0097C41.4572 82.0199 41.4488 82.0286 41.4388 82.0352C41.4287 82.0418 41.4173 82.0461 41.4054 82.0479C41.3934 82.0496 41.3812 82.0487 41.3695 82.0452C41.3578 82.0418 41.347 82.0358 41.3378 82.0278C40.5412 81.3324 39.6473 81.021 38.6561 81.0936C37.9208 81.1476 37.3117 81.3989 36.8287 81.8477C36.3819 82.2629 36.0883 82.8066 35.9478 83.4788C35.7877 84.2506 35.905 84.9633 36.2996 85.6168C36.6756 86.2369 37.1958 86.667 37.8603 86.9072C38.617 87.179 39.4141 87.1404 40.2517 86.7913C40.7227 86.5948 41.1475 86.3002 41.5263 85.9073C41.5375 85.8956 41.5512 85.8866 41.5663 85.8809C41.5814 85.8753 41.5977 85.8731 41.6138 85.8746C41.6299 85.876 41.6454 85.8811 41.6593 85.8895C41.6731 85.8978 41.685 85.9091 41.6938 85.9227L42.84 87.6655C42.8594 87.6948 42.8684 87.7299 42.8653 87.7651C42.8623 87.8004 42.8474 87.8336 42.8232 87.8596C42.021 88.7142 41.0763 89.2431 39.9893 89.446C39.0819 89.6145 38.1693 89.6066 37.2517 89.4223C36.3135 89.2333 35.4755 88.8073 34.7374 88.1445C33.6271 87.1492 33.0496 85.8784 33.005 84.332C32.9687 83.0836 33.2493 81.992 33.8468 81.0573C34.7505 79.6449 35.9976 78.8312 37.5881 78.6162C38.4769 78.4961 39.349 78.5296 40.2043 78.7167Z"
          fill="var(--current-color-1)"/>
    <path d="M100.685 78.6505C101.475 78.6105 102.214 78.7185 102.901 78.9745C103.585 79.2277 104.187 79.6355 104.705 80.1978C105.84 81.4277 106.229 82.982 105.872 84.8607C105.868 84.8813 105.857 84.8999 105.841 84.9134C105.825 84.9269 105.805 84.9344 105.784 84.9347C104.395 84.9487 103.006 84.9594 101.618 84.9668C101.484 84.9668 100.954 84.9599 100.03 84.9459C99.4816 84.9366 98.9516 84.9454 98.4397 84.9724C98.4142 84.9738 98.3893 84.9808 98.3669 84.9931C98.3445 85.0054 98.3251 85.0226 98.3102 85.0434C98.2953 85.0642 98.2853 85.088 98.2809 85.1132C98.2765 85.1384 98.2778 85.1643 98.2848 85.1889C98.5035 85.9598 98.8995 86.5328 99.4728 86.908C99.9614 87.2273 100.592 87.3921 101.364 87.4023C102.377 87.4163 103.337 87.1384 104.243 86.5686C104.261 86.5573 104.281 86.5501 104.302 86.5476C104.323 86.5452 104.345 86.5475 104.365 86.5545C104.386 86.5614 104.404 86.5728 104.42 86.5878C104.435 86.6028 104.447 86.6211 104.455 86.6412L105.062 88.2263C105.079 88.2716 105.081 88.3211 105.066 88.3667C105.052 88.4124 105.022 88.4515 104.983 88.4776C104.172 89.0157 103.326 89.363 102.445 89.5194C101.537 89.6814 100.644 89.6786 99.7632 89.511C99.1154 89.3891 98.5067 89.1582 97.9371 88.8184C97.3704 88.4804 96.8967 88.0522 96.516 87.5336C95.7659 86.5123 95.422 85.2969 95.4843 83.8874C95.5467 82.4685 96.0088 81.2885 96.8706 80.3472C97.3536 79.8194 97.9251 79.4125 98.5849 79.1267C99.2317 78.8474 99.9316 78.6887 100.685 78.6505ZM98.3308 83.1291C99.9549 83.1765 101.586 83.1737 103.225 83.1207C103.238 83.1204 103.25 83.1175 103.261 83.1122C103.272 83.107 103.283 83.0995 103.291 83.0902C103.299 83.0809 103.305 83.07 103.309 83.0582C103.313 83.0464 103.314 83.0339 103.313 83.0215C103.246 82.3205 102.994 81.787 102.557 81.4211C102.186 81.1121 101.674 80.9342 101.021 80.8877C99.6501 80.7899 98.7064 81.4686 98.1898 82.9238C98.1817 82.9467 98.179 82.9712 98.1822 82.9953C98.1853 83.0194 98.1941 83.0424 98.2079 83.0625C98.2216 83.0825 98.24 83.099 98.2613 83.1106C98.2827 83.1222 98.3065 83.1285 98.3308 83.1291Z"
          fill="var(--current-color-1)"/>
    <path d="M94.764 78.9675C94.8035 78.9832 94.8353 79.0137 94.8525 79.0523C94.8698 79.091 94.8711 79.1348 94.8561 79.1742L93.999 81.4742C93.9923 81.4923 93.9795 81.5075 93.9629 81.517C93.9462 81.5265 93.9268 81.5296 93.9082 81.5259C93.7267 81.4849 93.5513 81.4253 93.3819 81.3471C92.3517 81.025 91.5494 81.2834 90.9752 82.1222C90.8868 82.2516 90.8426 82.3945 90.8426 82.5509V89.3323C90.8426 89.3512 90.8352 89.3693 90.8221 89.3827C90.809 89.396 90.7913 89.4035 90.7728 89.4035L88.2529 89.3951C88.227 89.3951 88.2022 89.3847 88.1838 89.3661C88.1655 89.3475 88.1552 89.3223 88.1552 89.296V79.0164C88.1552 79.0004 88.1584 78.9846 88.1645 78.9699C88.1706 78.9551 88.1795 78.9418 88.1908 78.9305C88.2021 78.9192 88.2155 78.9102 88.2302 78.9041C88.2449 78.898 88.2607 78.8949 88.2767 78.8949H90.6988C90.7361 78.895 90.772 78.9111 90.799 78.9397C90.8261 78.9683 90.8422 79.0073 90.844 79.0485L90.8761 79.7956C90.8779 79.8468 90.8951 79.8506 90.9277 79.8068C91.3344 79.2575 91.8296 78.9186 92.4131 78.7901C93.2209 78.6123 94.0046 78.6714 94.764 78.9675Z"
          fill="var(--current-color-1)"/>
    <path d="M21.3984 78.8145L24.4404 78.8229C24.4612 78.8229 24.4816 78.829 24.4991 78.8404C24.5167 78.8518 24.5307 78.868 24.5395 78.8871C25.338 80.7007 26.1165 82.5231 26.875 84.3544C27.0937 84.8813 27.2864 85.4101 27.453 85.9408C27.4818 86.0321 27.5046 86.0307 27.5214 85.9366C27.6387 85.2691 27.8048 84.6146 28.0198 83.9732C28.5828 82.2974 29.1533 80.602 29.7313 78.8871C29.7381 78.866 29.7515 78.8477 29.7695 78.8346C29.7876 78.8216 29.8094 78.8145 29.8318 78.8145H32.7383C32.7463 78.8146 32.754 78.8166 32.761 78.8204C32.768 78.8242 32.7739 78.8297 32.7783 78.8363C32.7827 78.8429 32.7854 78.8504 32.7862 78.8583C32.7871 78.8662 32.7859 78.8742 32.783 78.8815C32.0785 80.6439 31.3912 82.3956 30.7211 84.1365C29.8863 86.3076 29.0147 88.4643 28.1063 90.6065C27.6847 91.5989 27.1845 92.4252 26.6056 93.0853C25.9104 93.8766 25.0058 94.1471 23.8917 93.8966C23.3808 93.7821 22.8764 93.562 22.3784 93.2361C22.3624 93.226 22.3507 93.2102 22.3453 93.1915C22.3399 93.1728 22.3413 93.1525 22.3491 93.1342L23.156 91.2503C23.1617 91.2371 23.17 91.2253 23.1805 91.2156C23.191 91.206 23.2034 91.1986 23.2169 91.1941C23.2304 91.1896 23.2446 91.1881 23.2587 91.1896C23.2728 91.1911 23.2863 91.1956 23.2984 91.2028C24.1453 91.6907 24.8522 91.5733 25.419 90.8509C25.714 90.4738 25.9411 89.9669 26.1002 89.3301C26.1111 89.2867 26.1067 89.2404 26.0877 89.1988L21.3579 78.8787C21.3549 78.8717 21.3536 78.8641 21.3542 78.8564C21.3547 78.8488 21.3571 78.8415 21.3612 78.8351C21.3652 78.8288 21.3707 78.8235 21.3772 78.8199C21.3837 78.8163 21.391 78.8145 21.3984 78.8145Z"
          fill="var(--current-color-1)"/>
    <path d="M16.958 100.895C17.6551 100.894 18.2921 101 18.8692 101.212C19.9571 101.613 20.6421 102.393 20.9241 103.553C21.046 104.054 21.1075 104.562 21.1084 105.079C21.1102 107.314 21.1112 109.548 21.1112 111.782C21.1112 111.801 21.1038 111.819 21.0907 111.832C21.0777 111.845 21.0599 111.852 21.0414 111.852H18.9069C18.8512 111.852 18.7977 111.828 18.7578 111.784C18.7179 111.741 18.6947 111.682 18.6933 111.62L18.6723 110.812C18.6705 110.761 18.6491 110.753 18.6081 110.789C17.3675 111.875 15.9566 112.229 14.3754 111.852C13.5722 111.66 12.9612 111.245 12.5424 110.607C12.185 110.062 12.0105 109.394 12.0189 108.604C12.0375 106.854 12.9975 105.772 14.8989 105.358C16.0967 105.098 17.2628 105.273 18.3973 105.884C18.404 105.887 18.4116 105.889 18.4193 105.889C18.427 105.89 18.4346 105.888 18.4414 105.884C18.4482 105.88 18.454 105.875 18.4583 105.869C18.4625 105.862 18.4651 105.855 18.4657 105.847C18.5178 105.321 18.4578 104.807 18.2856 104.306C18.1563 103.93 17.939 103.649 17.6337 103.461C17.4047 103.32 17.0804 103.237 16.6607 103.212C15.6257 103.151 14.6378 103.364 13.6969 103.852C13.6801 103.861 13.6615 103.866 13.6426 103.867C13.6237 103.868 13.6049 103.865 13.5874 103.858C13.57 103.852 13.5543 103.841 13.5417 103.828C13.529 103.814 13.5195 103.798 13.514 103.78L12.9361 101.944C12.9303 101.925 12.9317 101.905 12.9398 101.887C12.948 101.868 12.9625 101.853 12.9807 101.844C14.2269 101.211 15.5527 100.895 16.958 100.895ZM15.2744 109.312C15.6318 109.595 16.066 109.72 16.5769 109.688C17.2516 109.643 17.8003 109.425 18.2228 109.033C18.4043 108.865 18.4992 108.643 18.5076 108.367C18.515 108.113 18.5136 107.947 18.5034 107.867C18.4774 107.674 18.3647 107.531 18.1656 107.438C17.61 107.178 16.998 107.067 16.3298 107.104C15.8579 107.13 15.4778 107.288 15.1893 107.578C14.951 107.816 14.8286 108.094 14.8221 108.411C14.8156 108.769 14.9664 109.069 15.2744 109.312Z"
          fill="var(--current-color-1)"/>
    <path d="M30.9531 101.029C31.8103 101.215 32.4762 101.715 32.9509 102.531C32.955 102.537 32.9605 102.543 32.9672 102.547C32.9738 102.552 32.9813 102.554 32.9891 102.555C32.9968 102.556 33.0046 102.555 33.0118 102.552C33.019 102.549 33.0254 102.545 33.0304 102.539C34.0691 101.328 35.4358 100.79 37.1306 100.925C38.3088 101.019 39.152 101.52 39.6601 102.429C39.8379 102.747 39.9701 103.136 40.0566 103.596C40.1329 104.003 40.1706 104.416 40.1697 104.835C40.1678 107.197 40.1669 109.533 40.1669 111.842C40.1669 111.862 40.163 111.881 40.1555 111.9C40.148 111.918 40.137 111.934 40.1232 111.948C40.1093 111.962 40.0928 111.973 40.0747 111.98C40.0566 111.988 40.0371 111.992 40.0175 111.992H37.4782C37.46 111.992 37.442 111.988 37.4253 111.981C37.4085 111.974 37.3933 111.964 37.3804 111.951C37.3676 111.939 37.3574 111.923 37.3505 111.906C37.3435 111.89 37.34 111.872 37.34 111.854C37.34 109.711 37.3432 107.581 37.3497 105.463C37.3535 104.133 36.6871 103.485 35.3506 103.521C34.5009 103.542 33.8401 103.875 33.3683 104.519C33.2957 104.618 33.2566 104.738 33.2566 104.861V111.879C33.2566 111.9 33.2484 111.921 33.2336 111.937C33.2187 111.952 33.1985 111.961 33.177 111.963C32.2715 112.016 31.3822 112.012 30.5092 111.953C30.49 111.952 30.4719 111.943 30.4586 111.93C30.4454 111.916 30.438 111.898 30.438 111.879C30.4278 109.659 30.425 107.439 30.4296 105.219C30.4092 104.655 30.2147 104.219 29.8461 103.913C29.5306 103.65 29.1178 103.515 28.6078 103.508C27.8521 103.498 27.1797 103.777 26.5906 104.346C26.3793 104.55 26.2816 104.79 26.2974 105.065C26.3067 105.22 26.3114 105.299 26.3114 105.304C26.3114 107.497 26.3114 109.681 26.3114 111.854C26.3114 111.872 26.3078 111.89 26.3008 111.906C26.2939 111.923 26.2837 111.939 26.2709 111.951C26.2581 111.964 26.2428 111.974 26.2261 111.981C26.2093 111.988 26.1913 111.992 26.1732 111.992H23.6589C23.6219 111.992 23.5864 111.977 23.5602 111.951C23.534 111.925 23.5193 111.889 23.5193 111.852L23.4942 101.179C23.494 101.169 23.4957 101.159 23.4991 101.15C23.5025 101.141 23.5076 101.133 23.514 101.126C23.5205 101.119 23.5283 101.113 23.5368 101.11C23.5454 101.106 23.5546 101.104 23.564 101.103L26.1676 101.071C26.1863 101.071 26.2049 101.074 26.2223 101.082C26.2397 101.089 26.2554 101.1 26.2686 101.114C26.2818 101.128 26.2921 101.144 26.299 101.162C26.3059 101.18 26.3091 101.2 26.3086 101.219L26.2862 102.114C26.2844 102.214 26.3221 102.232 26.3993 102.167C27.7507 101.045 29.2686 100.665 30.9531 101.029Z"
          fill="var(--current-color-1)"/>
    <path d="M64.3809 78.7901C65.2595 78.9633 65.8998 79.4456 66.3019 80.2369C66.3066 80.2458 66.3134 80.2534 66.3216 80.2592C66.3298 80.2649 66.3392 80.2687 66.3491 80.27C66.3589 80.2714 66.3689 80.2704 66.3782 80.267C66.3875 80.2637 66.3958 80.2582 66.4024 80.2509C67.1907 79.4186 68.1013 78.9149 69.1344 78.7399C70.0725 78.5816 70.8953 78.6719 71.6026 79.0108C72.4402 79.4121 72.9669 80.1531 73.1829 81.234C73.2797 81.7172 73.3243 82.6366 73.3169 83.9921L73.2932 89.0893C73.2932 89.0893 73.3043 89.4687 73.0084 89.4035C72.2322 89.4072 71.456 89.4045 70.6798 89.3951C70.6609 89.3951 70.6428 89.3879 70.6294 89.3751C70.6161 89.3623 70.6086 89.3449 70.6086 89.3267C70.5984 87.3037 70.5946 85.2811 70.5974 83.2589C70.5974 82.8474 70.549 82.5011 70.4522 82.2199C70.2391 81.6064 69.7891 81.2685 69.1023 81.2061C68.1027 81.1148 67.3135 81.4649 66.7346 82.2563C66.6893 82.317 66.6648 82.3915 66.6648 82.4685L66.6481 89.3253C66.6481 89.3348 66.6463 89.3442 66.6428 89.3529C66.6394 89.3616 66.6343 89.3696 66.6279 89.3762C66.6216 89.3828 66.614 89.388 66.6057 89.3915C66.5974 89.395 66.5886 89.3967 66.5797 89.3965L64.0389 89.3686C64.0277 89.3686 64.0169 89.3639 64.0088 89.3556C64.0007 89.3472 63.996 89.3359 63.9956 89.3239C63.9724 87.151 63.9635 85.0013 63.9691 82.8749C63.971 82.3591 63.7988 81.9472 63.4526 81.639C63.1631 81.3802 62.7792 81.2359 62.3009 81.2061C61.44 81.1521 60.714 81.471 60.1231 82.1627C60.06 82.2366 60.0254 82.3301 60.0253 82.4266L60.0351 89.2946C60.0351 89.3043 60.0332 89.3139 60.0295 89.3229C60.0258 89.3319 60.0203 89.3401 60.0134 89.3469C60.0066 89.3538 59.9984 89.3593 59.9894 89.363C59.9805 89.3667 59.9708 89.3686 59.9611 89.3686L57.3813 89.3602C57.3631 89.3602 57.3457 89.3529 57.3329 89.3398C57.3201 89.3267 57.3129 89.3089 57.3129 89.2904L57.338 78.9717C57.338 78.9573 57.3408 78.943 57.3461 78.9297C57.3515 78.9164 57.3593 78.9043 57.3692 78.8942C57.379 78.884 57.3908 78.876 57.4036 78.8707C57.4165 78.8653 57.4302 78.8626 57.4441 78.8628L59.929 78.8837C59.9396 78.8837 59.95 78.8856 59.9598 78.8892C59.9695 78.8928 59.9784 78.8981 59.9858 78.9047C59.9932 78.9113 59.999 78.9192 60.0029 78.9278C60.0069 78.9364 60.0088 78.9457 60.0086 78.9549L59.989 79.8124C59.9863 79.9325 60.0272 79.9553 60.1119 79.8808C61.3097 78.8279 62.7327 78.4643 64.3809 78.7901Z"
          fill="var(--current-color-1)"/>
</svg>
