<svg id="logo" viewBox="0 0 192 66" fill="none" xmlns="http://www.w3.org/2000/svg">
    <path d="M27.3098 34.2306H21.5734L24.6286 24.1828L27.3098 34.2306ZM18.598 45.3035L20.5564 38.6869H28.2848L30.1171 45.2866H37.2614L30.1634 20.1247C29.7431 18.6379 28.8606 17.9516 27.3098 17.9516H17.1775V20.328H18.018C19.0771 20.328 19.6486 20.7516 19.6486 21.5607C19.6486 22.0987 19.5309 22.5477 19.1107 23.7719L12 45.3035H18.598Z"
          fill="var(--current-color-1)"/>
    <path d="M45.5278 45.3035V20.0484C45.5278 18.731 44.7629 17.9516 43.498 17.9516H37.2152V20.328H37.6354C38.6903 20.328 39.14 20.7813 39.14 21.8572V45.3035H45.5278Z"
          fill="var(--current-color-1)"/>
    <path d="M56.3873 45.3035V20.0484C56.3873 18.731 55.6098 17.9516 54.3532 17.9516H48.0914V20.328H48.5117C49.5707 20.328 50.0204 20.7813 50.0204 21.8572V45.3035H56.3873Z"
          fill="var(--current-color-1)"/>
    <path d="M67.528 20.4467C67.528 18.6125 66.1789 17.4814 63.8676 17.4814C61.5562 17.4814 60.1987 18.5913 60.1987 20.4467C60.1987 22.302 61.5898 23.4119 63.8676 23.4119C66.1453 23.4119 67.528 22.3105 67.528 20.4467ZM67.4061 45.3035V26.8939C67.4061 25.5807 66.6328 24.8055 65.3679 24.8055H59.1859V27.1353H59.5515C60.6064 27.1353 61.0561 27.6267 61.0561 28.6942V45.3035H67.4061Z"
          fill="var(--current-color-1)"/>
    <path d="M81.3924 35.4591V39.4452C80.3291 40.5508 79.0347 41.2285 77.9379 41.2285C76.841 41.2285 76.3913 40.6609 76.3913 39.1105C76.3913 37.5601 76.7107 36.9035 77.8538 36.4588C78.992 35.9917 80.1791 35.6563 81.3924 35.4591ZM72.8024 30.6724C74.7545 29.6962 76.8906 29.1503 79.0683 29.0712C80.783 29.0712 81.3924 29.6854 81.3924 31.4772V31.9347C78.791 32.3583 77.9757 32.5193 76.509 32.8455C75.6875 33.0278 74.8832 33.2815 74.1052 33.6037C71.5374 34.6415 70.3229 36.6409 70.3229 39.712C70.3229 43.6091 72.0039 45.4899 75.4458 45.4899C76.6165 45.4948 77.7775 45.2748 78.8666 44.8418C79.8545 44.3886 80.773 43.7952 81.5941 43.0796V43.3677C81.5941 44.6385 82.2413 45.2866 83.5062 45.2866H89.3267V43.0966H89.041C87.9441 43.0966 87.5407 42.601 87.5407 41.2921V31.5281C87.5407 26.322 85.7462 24.509 80.5729 24.509C78.9328 24.5172 77.2989 24.7119 75.7021 25.0893C74.1935 25.4284 72.7403 25.9818 71.3861 26.7329L72.8024 30.6724Z"
          fill="var(--current-color-1)"/>
    <path d="M98.5933 45.3035V31.4433C99.6565 30.253 100.749 29.715 102.01 29.715C103.359 29.715 103.691 30.253 103.691 32.3159V45.3035H110.037V31.3671C110.037 28.1223 109.806 27.0972 108.776 25.9958C107.935 25.0427 106.62 24.5598 104.943 24.5598C102.46 24.5598 100.711 25.335 98.3621 27.5504V26.7329C98.3621 25.4621 97.7023 24.8055 96.4037 24.8055H90.3731V27.1353H90.7387C91.7936 27.1353 92.2474 27.6267 92.2474 28.6941V45.3035H98.5933Z"
          fill="var(--current-color-1)"/>
    <path d="M128.86 40.9997H120.005L128.473 29.033V24.797H115.193C113.689 24.797 112.995 25.4917 112.995 27.0124V30.7401H115.353V30.3758C115.353 29.4312 115.84 28.9822 116.853 28.9822H121.417L112.861 41.0845V45.3205H128.831L128.86 40.9997Z"
          fill="var(--current-color-1)"/>
    <path d="M162.173 44.7824V21.6073C162.173 19.7604 161.521 19.1377 159.744 19.1377H154.36V21.7428H154.684C155.911 21.7428 156.151 22.0224 156.151 23.5135V44.7824H162.173ZM164.829 44.7824H170.805V26.7328C170.805 24.9198 170.111 24.2675 168.359 24.2675H164.829V44.7824ZM153.511 44.7824V24.2844H149.969C148.216 24.2844 147.531 24.9368 147.531 26.7498V44.7824H153.511ZM176.461 33.0021C176.461 43.2151 169.174 50.6408 159.168 50.6408C149.162 50.6408 141.858 43.2151 141.858 33.0021C141.858 22.7891 149.158 15.3634 159.168 15.3634C169.178 15.3634 176.461 22.8315 176.461 33.0021ZM180 33.0021C180 20.993 171.086 12 159.168 12C147.25 12 138.328 20.993 138.328 33.0021C138.328 45.0112 147.241 54 159.168 54C171.095 54 180 45.0408 180 33.0021Z"
          fill="var(--current-color-1)"/>
</svg>
