<svg width="315" height="122" viewBox="0 0 315 122" fill="none" xmlns="http://www.w3.org/2000/svg">
<path d="M128.742 61.4982H123.172V90.4793H128.742V61.4982Z" fill="#002853"/>
<path d="M264.794 63.7528H259.307V82.0122C259.307 87.5875 262.531 90.4793 268.702 90.4793V85.6475C266.429 85.6475 264.794 85.1502 264.794 81.4561V74.1901H268.702V69.4394H264.794V63.7528Z" fill="#002853"/>
<path d="M139.701 63.7528H134.214V82.0122C134.214 87.5875 137.438 90.4793 143.609 90.4793V85.6475C141.336 85.6475 139.701 85.1502 139.701 81.4561V74.1901H143.609V69.4394H139.701V63.7528Z" fill="#002853"/>
<path d="M219.952 68.8833C213.265 68.8833 209.108 72.2454 209.108 79.9593C209.108 87.6733 213.137 91.0354 219.952 91.0354C226.766 91.0354 230.668 87.6733 230.668 79.9593C230.668 72.2454 226.553 68.8833 219.952 68.8833ZM219.952 86.3736C216.566 86.3736 214.851 85.2789 214.851 79.9593C214.851 74.6398 216.566 73.588 219.952 73.588C223.338 73.588 225.053 74.6414 225.053 79.9593C225.053 85.2773 223.339 86.3736 219.952 86.3736Z" fill="#002853"/>
<path d="M182.402 68.8833C175.801 68.8833 171.7 72.2025 171.7 79.9593V97.9994H177.201V88.9349C178.372 90.2362 180.031 91.0354 182.402 91.0354C188.96 91.0354 193.119 87.6733 193.119 79.9593C193.119 72.2454 189.003 68.8833 182.402 68.8833ZM182.281 86.3736C178.814 86.3736 177.059 85.2789 177.059 79.9593C177.059 74.6398 178.814 73.588 182.281 73.588C185.748 73.588 187.503 74.6414 187.503 79.9593C187.503 85.2773 185.748 86.3736 182.281 86.3736Z" fill="#002853"/>
<path d="M251.241 59.9888C249.612 59.9888 248.29 61.3075 248.29 62.933C248.29 64.5584 249.612 65.8771 251.241 65.8771C252.87 65.8771 254.192 64.5584 254.192 62.933C254.192 61.3075 252.87 59.9888 251.241 59.9888Z" fill="#002853"/>
<path d="M240.701 69.4394C240.701 66.9067 241.036 65.0843 244.901 65.0843V60.1048C242.778 60.0873 240.663 60.4432 239.122 61.3536C236.494 62.9059 235.215 65.6801 235.215 69.4394H232.052V74.187H235.182V90.4793H240.668V74.187H248.451V90.4793H254.023V69.4394H240.701Z" fill="#002853"/>
<path d="M109.996 64.8555C109.641 64.0483 108.998 63.381 108.178 63.0521C106.155 62.2386 104.101 63.0966 103.25 64.8555L93.002 90.4777H98.9311L100.992 85.1041H112.258L114.317 90.4777H120.302L110.074 65.0303L109.998 64.8555H109.996ZM102.5 81.1701L105.94 72.1993C106.012 72.0118 106.071 71.8179 106.115 71.6193L106.623 69.7826L107.138 71.6241C107.182 71.8179 107.239 72.0086 107.311 72.1945L110.75 81.1701H102.498H102.5Z" fill="#002853"/>
<path d="M160.965 69.4283H149.825V74.1885H159.465C160.907 74.1885 162.078 75.3564 162.078 76.7959V77.8366H152.827C149.414 77.8366 146.636 80.695 146.636 84.2143C146.636 86.0082 147.336 87.6384 148.606 88.8046C149.904 89.9931 151.698 90.627 153.725 90.627C154.005 90.627 154.29 90.6159 154.579 90.5905C158.128 90.2886 160.54 89.1017 162.078 87.3587V90.4745H167.497V75.9474C167.497 72.3486 164.574 69.4299 160.965 69.4299V69.4283ZM154.351 86.3085C152.21 86.3085 151.292 85.2932 151.292 84.0427C151.292 82.7923 152.273 81.777 153.484 81.777L162.08 81.7738C162.08 84.378 158.73 86.3085 154.352 86.3085H154.351Z" fill="#002853"/>
<path d="M202.489 76.7959C202.489 75.3564 203.66 74.1885 205.103 74.1885H208.21V69.4283H203.603C199.995 69.4283 197.07 72.3454 197.07 75.9458V90.4729H202.489V76.7959Z" fill="#002853"/>
<path d="M284.806 90.4793H271.879V85.7158H284.5C284.902 85.7158 285.62 85.5538 285.691 84.6672C285.765 83.7552 285.019 83.4453 284.808 83.404L275.924 81.9248C272.865 81.3957 270.842 78.6152 271.083 75.3119C271.296 72.3931 273.413 69.4362 277.047 69.4362H286L287.306 74.1965H277.378C276.786 74.1965 276.233 74.4936 276.193 75.2944C276.144 76.2525 276.94 76.4781 277.186 76.5321L285.927 77.9955C288.924 78.469 290.289 81.2352 290.069 84.5718C289.873 87.5097 288.432 90.4825 284.808 90.4825L284.806 90.4793Z" fill="#002853"/>
<path d="M47.6334 41.9706C31.2554 43.6549 14.629 89.9642 31.652 92.7511L31.8367 82.8603C23.154 82.5283 36.9998 46.5291 47.8786 45.204C62.7867 43.3863 68.9451 82.3027 71.6111 90.4027C72.4647 88.5056 73.4951 84.1775 74.4952 78.7833C70.1125 60.775 61.054 40.5931 47.6318 41.9722L47.6334 41.9706Z" fill="url(#paint0_linear_3827_4053)"/>
<path style="mix-blend-mode:multiply" fill-rule="evenodd" clip-rule="evenodd" d="M51.0264 45.4354C56.8359 47.0445 61.1307 55.0794 64.3159 64.0248C66.0081 63.5345 67.5476 62.6861 68.8465 61.5673C64.9952 52.6805 59.8878 45.2871 53.569 42.8013C52.5942 43.5456 51.736 44.4343 51.0264 45.4354Z" fill="url(#paint1_radial_3827_4053)"/>
<path d="M31.8361 82.8596C40.5188 83.1917 66.4744 28.0355 79.3535 24.4001C99.31 18.766 82.8428 74.2241 78.3391 90.402C78.3391 90.402 72.0405 90.4195 71.6121 90.402C75.0409 82.777 81.3363 35.9211 76.9695 38.1598C71.1598 41.1374 46.8397 95.2386 31.6514 92.752L31.8361 82.8612V82.8596Z" fill="url(#paint2_linear_3827_4053)"/>
<defs>
<linearGradient id="paint0_linear_3827_4053" x1="32.1138" y1="67.3275" x2="73.9267" y2="67.3275" gradientUnits="userSpaceOnUse">
<stop stop-color="#FF9460"/>
<stop offset="0.5" stop-color="#FF6327"/>
<stop offset="1" stop-color="#FF9460"/>
</linearGradient>
<radialGradient id="paint1_radial_3827_4053" cx="0" cy="0" r="1" gradientUnits="userSpaceOnUse" gradientTransform="translate(60.9288 52.4105) scale(12.1207 12.0929)">
<stop stop-color="#8C0E00"/>
<stop offset="1" stop-color="#E9000E" stop-opacity="0"/>
</radialGradient>
<linearGradient id="paint2_linear_3827_4053" x1="31.6514" y1="58.4164" x2="89.0029" y2="58.4164" gradientUnits="userSpaceOnUse">
<stop stop-color="#FF9460"/>
<stop offset="1" stop-color="#FF6327"/>
</linearGradient>
</defs>
</svg>
