<svg id="logo" viewBox="0 0 128 128" fill="none" xmlns="http://www.w3.org/2000/svg">
    <path d="M107.523 47C105.969 47 105.047 48.0556 105.047 49.2056C105.047 50.3557 105.884 51.4113 107.523 51.4113C109.162 51.4113 110 50.3652 110 49.2056C110 48.0619 109.078 47 107.523 47ZM25.9419 47.3151L18 65.8359H22.4955L24.0498 62.2345H31.0992L32.6535 65.8359H37.1452L29.1874 47.3151H25.9419ZM98.9977 47.3151V52.2365C98.3094 52.0587 97.6004 51.9677 96.8881 51.9658C94.1522 51.9658 92.669 53.2262 92.0199 53.828C90.6883 55.1737 89.9471 56.9689 89.9528 58.835C89.9301 63.2872 92.4357 65.0518 93.6819 65.6064C94.5203 65.9869 95.4413 66.1641 96.3658 66.1227C97.4085 66.0528 98.4021 65.6659 99.2056 65.0168L99.3324 65.839H103.227V47.3151H98.9977ZM83.6678 51.9639C82.9682 51.9623 82.3358 52.0649 81.8879 52.215C81.1163 52.4558 80.4091 52.8593 79.817 53.3966L79.6452 52.287H75.7506V65.8359H80.0148V56.4903C80.3701 56.1878 80.7575 55.9228 81.1703 55.6995C81.5379 55.5008 81.9498 55.3919 82.3704 55.382C82.791 55.3721 83.2077 55.4617 83.5848 55.6428C84.3313 56.0493 84.6757 57.004 84.6757 58.1636V65.8488H88.9398V57.8799C88.9431 54.9621 87.8365 53.6639 87.1776 53.103C86.1857 52.2582 84.8339 51.9666 83.6678 51.9639ZM53.6388 51.9658C52.001 52.0181 50.4089 52.503 49.0337 53.3683C48.0892 52.423 45.772 51.5592 43.8669 52.2083C43.0956 52.4497 42.3885 52.8531 41.796 53.3899L41.647 52.284H37.7296V65.8329H41.9944V56.4528C42.3294 56.1462 42.71 55.8902 43.1234 55.6933C43.6004 55.4696 44.7787 55.0635 45.6323 55.7598C46.2814 56.2986 46.32 57.5681 46.32 57.9273V65.8298H50.5392V57.7131C50.5329 57.2198 50.4863 56.7278 50.3997 56.2417C50.7974 55.996 51.2168 55.7851 51.6529 55.6115C52.6265 55.1924 53.7298 55.4002 54.0933 55.6459C54.8755 56.1753 54.9535 57.376 54.9535 57.9211V65.8236H59.1727V57.7759C59.1727 56.295 58.9582 54.4298 57.5886 53.2261C56.219 52.0225 54.0835 51.9658 53.6388 51.9658ZM60.7529 52.284V60.2966C60.7529 61.7996 61.0291 63.4477 62.0936 64.5947C63.1581 65.7416 64.8717 66.2046 66.449 66.0975C67.1774 66.047 67.8881 65.8554 68.5389 65.5338C69.0029 65.3164 69.427 65.0269 69.7946 64.6765L69.9766 65.839H73.8712V52.2901L73.8845 52.284H69.6197V61.6708C69.2699 61.927 68.8974 62.1525 68.5066 62.3447C67.7568 62.6774 66.906 62.7259 66.1213 62.4807C65.1476 62.1215 65.0145 60.5899 65.0145 59.944V52.284L60.7529 52.284ZM105.404 52.284V65.8359H109.64V52.284L105.404 52.284ZM27.5647 52.9455L29.8365 58.7212H25.2928L27.5647 52.9455ZM97.1917 55.3906C97.2583 55.3886 97.3249 55.3889 97.3914 55.3912C97.9445 55.3971 98.4928 55.4917 99.0142 55.6712L98.9977 61.7398C98.7233 62.0622 98.3647 62.3071 97.9594 62.4487C96.4859 63.0348 94.6034 62.3763 94.2074 59.928C94.0339 59.07 94.1047 58.1823 94.4121 57.3605C94.6171 56.7985 94.9921 56.3097 95.4881 55.9582C95.9841 55.6066 96.5779 55.4088 97.1917 55.3906Z"
          fill="var(--current-color-1)"/>
    <path d="M109.643 69.3242H18.1658V72.8122H109.643V69.3242Z" fill="var(--current-color-1)"/>
    <path d="M44.4558 76.205C44.2993 76.2048 44.1432 76.2199 43.9899 76.2499C43.3602 76.3413 42.7502 76.7067 42.6334 77.3558C42.5866 77.5692 42.5987 77.7907 42.6682 77.9982C42.7378 78.2056 42.8624 78.3916 43.0295 78.5374C43.4073 78.7952 43.8325 78.9803 44.2821 79.0826C44.4768 79.1351 44.6643 79.2101 44.8405 79.306C44.926 79.3526 44.9898 79.4293 45.0188 79.5202C45.0478 79.6111 45.0398 79.7093 44.9965 79.7947C44.9024 79.9617 44.6425 80.0027 44.464 80.0027C44.2377 80.0127 44.0129 79.9614 43.8149 79.8544C43.6575 79.7705 43.5177 79.6586 43.4029 79.5245L42.5554 80.1602C42.7533 80.4083 43.0093 80.607 43.3021 80.7399C44.3634 81.2504 46.3008 80.9606 46.2814 79.527C46.2854 79.3173 46.2366 79.1098 46.1393 78.9225C46.0419 78.7353 45.899 78.5739 45.7229 78.4525C45.3172 78.225 44.88 78.0553 44.4247 77.9484C44.2272 77.9032 44.0457 77.8073 43.8992 77.6709C43.8727 77.6343 43.8545 77.5927 43.8459 77.5488C43.8372 77.5049 43.8383 77.4596 43.8491 77.4162C43.8598 77.3727 43.8799 77.3319 43.9081 77.2966C43.9364 77.2612 43.972 77.2321 44.0127 77.2112C44.2067 77.1246 44.4253 77.1044 44.6326 77.1539C44.8506 77.2003 45.0488 77.3102 45.2006 77.469C45.2525 77.5223 45.3002 77.5793 45.3432 77.6395L46.1907 77.0093C46.1173 76.9041 46.0323 76.8069 45.9372 76.7195C45.5192 76.3873 44.9959 76.2056 44.4558 76.205ZM43.4029 79.5245L43.4251 79.5079L43.3928 79.514C43.3961 79.5176 43.3995 79.521 43.4029 79.5245ZM48.5836 76.205C48.4274 76.2049 48.2715 76.2199 48.1184 76.2499C47.4887 76.3413 46.8787 76.7067 46.7618 77.3558C46.7151 77.5691 46.727 77.7907 46.7964 77.9981C46.8659 78.2055 46.9904 78.3915 47.1574 78.5374C47.5354 78.7953 47.9608 78.9804 48.4106 79.0826C48.6051 79.1351 48.7924 79.2101 48.9684 79.306C49.0539 79.3526 49.1177 79.4293 49.1467 79.5202C49.1757 79.6111 49.1677 79.7093 49.1243 79.7947C49.0302 79.9648 48.7704 80.0027 48.5919 80.0027C48.3655 80.0129 48.1407 79.9615 47.9428 79.8544C47.7847 79.7701 47.6444 79.6576 47.5295 79.5227L46.6839 80.1572C46.8818 80.4052 47.1378 80.6039 47.4306 80.7369C48.4919 81.2473 50.4293 80.9576 50.4098 79.5239C50.4138 79.3142 50.3651 79.1067 50.2678 78.9195C50.1704 78.7322 50.0275 78.5708 49.8514 78.4494C49.4458 78.2218 49.0086 78.0521 48.5532 77.9454C48.3556 77.9002 48.1741 77.8044 48.0277 77.6678C48.0011 77.6312 47.9828 77.5896 47.9741 77.5456C47.9654 77.5016 47.9664 77.4563 47.9772 77.4127C47.9879 77.3692 48.0081 77.3283 48.0364 77.2929C48.0647 77.2575 48.1004 77.2284 48.1412 77.2075C48.3352 77.1209 48.5538 77.1009 48.7611 77.1509C48.9792 77.197 49.1774 77.307 49.3291 77.466C49.3811 77.5191 49.4288 77.5761 49.4717 77.6364L50.3186 77.0062C50.2452 76.9021 50.1604 76.8059 50.0656 76.7195C49.6475 76.3872 49.124 76.2055 48.5836 76.205ZM47.5295 79.5227L47.5536 79.5048L47.5212 79.5141C47.524 79.517 47.5267 79.5198 47.5295 79.5227ZM83.6431 76.2234C83.5559 76.2266 83.469 76.2335 83.3838 76.2438C83.0511 76.2791 82.7328 76.3951 82.4583 76.5812C82.1838 76.7672 81.9619 77.0173 81.8131 77.3084C81.587 77.7787 81.4897 78.2975 81.5304 78.815C81.5412 79.3153 81.7051 79.8012 82.0014 80.2107C82.5044 80.8535 83.2445 81.0427 84.0786 80.9923C84.5984 80.9742 85.1125 80.8806 85.6037 80.7147V78.3768H83.7471V79.2845L83.754 79.303H84.4253V79.9713C84.1328 80.0296 83.8302 80.0186 83.543 79.9393C83.345 79.8605 82.7538 79.5771 82.8317 78.4082C82.8293 78.0587 82.9626 77.7212 83.2051 77.4629C83.3369 77.3382 83.51 77.2629 83.6935 77.2503C83.8771 77.2377 84.0593 77.2886 84.2079 77.394C84.3369 77.5073 84.4399 77.6456 84.5103 77.8001L85.565 77.277C85.4922 77.1203 85.3993 76.9731 85.2887 76.8389C84.8939 76.3646 84.2537 76.2019 83.6431 76.2234ZM39.1641 76.3034L37.3335 80.8784L38.619 80.8882L38.9435 80.1005H40.527L40.8325 80.8882H42.189L40.3457 76.3034H39.1641ZM51.1661 76.3034V80.8784H54.6708V79.823H52.4313V79.0765H54.1352V78.1091H52.4313V77.3527H54.525V76.3034H51.1661ZM55.041 76.3034V77.3527H56.362V80.8784H57.6374V77.3527H58.9356V76.3034H55.041ZM60.9932 76.3034V80.8784L62.2071 80.8816V78.6322L63.1807 80.9099H63.6967L64.638 78.6445V80.8816H65.8614V76.3034H64.5632L63.466 79.0291L62.2914 76.3034H60.9932ZM68.286 76.3034L66.4553 80.8784L67.744 80.8882L68.0686 80.1005H69.6489L69.9538 80.8882H71.3103L69.4669 76.3034H68.286ZM71.8915 76.3034V80.8784L73.1282 80.8816V78.295L74.796 80.8816H75.9484V76.3034H74.7053V78.7263L73.1701 76.3034H71.8915ZM78.3597 76.3034L76.5259 80.8784L77.8145 80.8882L78.1391 80.1005H79.7232L80.0281 80.8882H81.3846L79.5412 76.3034H78.3597ZM86.5159 76.3034V80.8784H90.0238V79.823H87.7849V79.0765H89.4888V78.1091H87.7849V77.3527H89.878V76.3034H86.5159ZM90.813 76.3034V80.8784L92.0522 80.8816V78.6322L93.0259 80.9099H93.5292L94.4705 78.6445V80.8816H95.6939V76.3034H94.3957L93.2858 79.0291L92.1112 76.3034H90.813ZM96.755 76.3034V80.8784H100.264V79.823H98.0209V79.0765H99.7247V78.1091H98.0209V77.3527H100.114V76.3034H96.755ZM101.055 76.3034V80.8784L102.292 80.8816V78.295L103.96 80.8816H105.112V76.3034H103.869V78.7263L102.334 76.3034H101.055ZM105.742 76.3034V77.3527H107.063V80.8784H108.339V77.3527H109.637V76.3034H105.742ZM39.7289 77.7626L40.2385 79.1553H39.2193L39.7289 77.7626ZM68.8508 77.7626L69.3598 79.1553H68.3411L68.8508 77.7626ZM78.9245 77.7626L79.4341 79.1553H78.4148L78.9245 77.7626Z"
          fill="var(--current-color-1)"/>
</svg>
