<svg id="logo" viewBox="0 0 128 128" fill="none" xmlns="http://www.w3.org/2000/svg">
    <path d="M26.3182 54.0195H32.4704V67.9756H35.8509V54.0195H42.0031V51.0011H26.3182V54.0195Z"
          fill="var(--current-color-1)"/>
    <path d="M48.77 51.0002H45.3894V67.9748H58.4632V64.9564H48.77V51.0002Z" fill="var(--current-color-1)"/>
    <path d="M95.5321 63.1084L85.1456 51.001H81.7667V67.9756H85.1456V55.9003L95.5321 67.9756H98.9127V51.001H95.5321V63.1084Z"
          fill="var(--current-color-1)"/>
    <path d="M67.7704 51L59.9437 67.9746H63.5046L65.0501 64.5331H74.2568L75.8635 67.9746H79.4145L71.3528 51H67.7704ZM66.3573 61.6984L69.5939 54.5729L72.9248 61.6984H66.3573Z"
          fill="var(--current-color-1)"/>
    <path d="M119.365 55.9145C118.941 54.8764 118.299 53.9933 117.435 53.2652C116.571 52.5371 115.481 51.9776 114.166 51.5866C112.852 51.1956 111.301 51.0001 109.517 51.0001H103.407V67.9747L109.539 67.9865C111.323 67.9865 112.872 67.7708 114.187 67.3393C115.503 66.9096 116.59 66.3113 117.45 65.5478C118.311 64.7844 118.951 63.8794 119.37 62.8328C119.79 61.7862 120 60.6486 120 59.4166C120 58.1206 119.788 56.9544 119.365 55.9145ZM116.054 61.7205C115.797 62.4081 115.416 62.9946 114.908 63.4783C114.399 63.9636 113.765 64.3395 113.004 64.6024C112.243 64.867 111.358 65.0001 110.35 65.0001H106.787V53.9983H110.35C111.358 53.9983 112.243 54.1247 113.004 54.3775C113.765 54.632 114.399 54.991 114.908 55.4578C115.416 55.9246 115.797 56.4943 116.054 57.1633C116.31 57.8341 116.437 58.5841 116.437 59.4166C116.437 60.2643 116.31 61.0329 116.054 61.7205Z"
          fill="var(--current-color-1)"/>
    <path d="M16.2742 51.0002L11.3415 61.6986H14.861L18.0976 54.5731L24.3673 67.9748H27.9183L19.8566 51.0002H16.2742Z"
          fill="var(--current-color-1)"/>
    <path d="M8.44726 67.9754H12.0098L13.5719 64.5339H10.0341L8.44726 67.9754Z" fill="var(--current-color-1)"/>
    <path d="M8 64.5341H20.9927L19.6607 61.6994H9.30721L8 64.5341Z" fill="var(--current-color-1)"/>
    <path d="M41.0953 76.9217H120V74.087H41.0953V76.9217Z" fill="var(--current-color-1)"/>
    <path d="M8.44726 71.3982H9.66512L11.3695 75.6099L13.0721 71.3982H14.29L11.9139 76.921H10.8234L8.44726 71.3982Z"
          fill="var(--current-color-1)"/>
    <path d="M14.7154 74.1451C14.7154 73.7271 14.7915 73.3462 14.9405 73.0007C15.091 72.6536 15.3028 72.3569 15.5742 72.1075C15.8456 71.8598 16.1716 71.6676 16.5521 71.5294C16.9327 71.3929 17.3547 71.3255 17.8163 71.3255C18.278 71.3255 18.6983 71.3929 19.0805 71.5294C19.4628 71.6676 19.7887 71.8598 20.0601 72.1075C20.3331 72.3569 20.5433 72.6536 20.6939 73.0007C20.8444 73.3462 20.9189 73.7271 20.9189 74.1451C20.9189 74.5647 20.8444 74.949 20.6939 75.2995C20.5433 75.6484 20.3331 75.95 20.0601 76.2012C19.7887 76.454 19.4628 76.6495 19.0805 76.7893C18.6983 76.9309 18.278 77 17.8163 77C17.3547 77 16.9327 76.9309 16.5521 76.7893C16.1716 76.6495 15.8456 76.454 15.5742 76.2012C15.3028 75.95 15.091 75.6484 14.9405 75.2995C14.7915 74.949 14.7154 74.5647 14.7154 74.1451ZM15.8158 74.1451C15.8158 74.4299 15.8654 74.6877 15.9664 74.9153C16.0673 75.1445 16.2063 75.34 16.385 75.5001C16.5654 75.6619 16.7772 75.7866 17.0204 75.8725C17.2653 75.9602 17.5301 76.004 17.8163 76.004C18.1042 76.004 18.369 75.9602 18.6139 75.8725C18.8571 75.7866 19.0689 75.6619 19.246 75.5001C19.4247 75.34 19.5654 75.1445 19.6663 74.9153C19.7689 74.6877 19.8185 74.4299 19.8185 74.1451C19.8185 73.8602 19.7689 73.6041 19.6663 73.3782C19.5654 73.1524 19.4247 72.9603 19.246 72.8035C19.0689 72.6468 18.8571 72.5288 18.6139 72.4463C18.369 72.3637 18.1042 72.3215 17.8163 72.3215C17.5301 72.3215 17.2653 72.3637 17.0204 72.4463C16.7772 72.5288 16.5654 72.6468 16.385 72.8035C16.2063 72.9603 16.0673 73.1524 15.9664 73.3782C15.8654 73.6041 15.8158 73.8602 15.8158 74.1451Z"
          fill="var(--current-color-1)"/>
    <path d="M21.9306 76.9217H23.0376V71.3972H21.9306V76.9217Z" fill="var(--current-color-1)"/>
    <path d="M30.9669 76.9217H32.0739V71.3972H30.9669V76.9217Z" fill="var(--current-color-1)"/>
    <path d="M29.7457 74.8885C29.481 74.0897 28.5825 73.8403 27.8561 73.7021C27.4656 73.6262 27.0717 73.5858 26.6812 73.5201C26.6018 73.5066 26.5108 73.4965 26.4181 73.4847C26.3999 73.483 26.385 73.4813 26.3668 73.4779C26.0359 73.4358 25.6719 73.365 25.5246 73.065C25.4799 72.9723 25.4667 72.8628 25.5014 72.765C25.5957 72.5089 25.9316 72.4347 26.1633 72.3892C26.3586 72.3437 26.6068 72.3201 26.9096 72.3201C27.1214 72.3201 27.3315 72.3336 27.5367 72.3589C27.7402 72.3825 27.9388 72.4162 28.1307 72.4583C28.3227 72.5021 28.5064 72.551 28.6818 72.6083C28.8572 72.6673 29.0226 72.7296 29.1749 72.7987L29.658 71.8937C29.4727 71.8094 29.2725 71.7319 29.0574 71.6611C28.8423 71.592 28.6172 71.5331 28.3856 71.4825C28.1523 71.4336 27.914 71.3949 27.6691 71.3679C27.4242 71.3409 27.1793 71.3274 26.9361 71.3274C26.1021 71.3274 25.0414 71.4269 24.5516 72.2291C24.4308 72.4263 24.3713 72.6521 24.3713 72.9066C24.3713 74.0206 25.5957 74.3711 26.476 74.5194C26.5058 74.5245 26.5356 74.5279 26.5637 74.5329C26.5968 74.538 26.6316 74.543 26.6647 74.5481C27.0469 74.6071 27.4325 74.6543 27.8097 74.7436C28.1473 74.8228 28.6454 74.9256 28.6454 75.3722C28.6454 75.4683 28.6123 75.5509 28.5477 75.6233C28.4815 75.6958 28.3938 75.7548 28.2813 75.8037C28.1688 75.8509 28.0414 75.8879 27.9007 75.9149C27.7601 75.9419 27.6128 75.9604 27.4589 75.9739C27.305 75.9874 27.1528 75.9941 27.0006 75.9941C26.9427 75.9941 26.8914 75.984 26.8351 75.9823C25.7066 75.9317 24.8677 75.4026 24.5285 75.1514C24.3895 75.4312 24.181 75.8374 24.0354 76.1037C25.4865 77.0424 27.0238 76.9918 27.0238 76.9918C27.588 76.9918 28.0844 76.9345 28.513 76.8199C28.9399 76.7053 29.2113 76.5199 29.4529 76.2621C29.7854 75.9014 29.9013 75.3571 29.7457 74.8885Z"
          fill="var(--current-color-1)"/>
    <path d="M33.3981 71.3982H34.4985L37.8774 75.3385V71.3982H38.9778V76.921H37.8774L34.4985 72.9925V76.921H33.3981V71.3982Z"
          fill="var(--current-color-1)"/>
</svg>
