<svg id="logo" viewBox="0 0 262 76" fill="none" xmlns="http://www.w3.org/2000/svg">
    <path d="M75.7054 52.7133H79.0844C80.4185 52.7133 81.1744 53.1898 81.1744 54.1496C81.1744 54.8402 80.5997 55.3339 79.781 55.4789C80.2478 55.51 80.6833 55.617 80.8679 55.9554C81.1361 56.456 81.1675 57.6092 81.3974 58.1788H79.6905C79.5163 57.6471 79.5372 56.8565 79.3839 56.4767C79.2829 56.2247 79.0356 56.0969 78.3946 56.0969H77.3217V58.1685H75.7124V52.7133H75.7054ZM77.3148 55.0508H78.5932C79.3282 55.0508 79.5651 54.8229 79.5651 54.4051C79.5651 53.8734 79.1436 53.7733 78.3702 53.7733H77.3252V55.0508H77.3148Z"
          fill="var(--current-color-1)"/>
    <path d="M89.7681 52.7133H91.3775V58.203H89.7681V52.7133Z" fill="var(--current-color-1)"/>
    <path d="M101.424 56.4215C101.424 57.112 101.772 57.2812 102.511 57.2812C103.462 57.2812 103.604 56.9359 103.604 56.7046C103.604 56.3421 103.221 56.2178 102.587 56.0969L101.8 55.945C100.887 55.7689 99.9293 55.4375 99.9293 54.3879C99.9293 53.0448 101.187 52.5718 102.448 52.5718C104.472 52.5718 105.043 53.1864 105.099 54.2809H103.535C103.489 53.7181 103.03 53.6352 102.545 53.6352C101.849 53.6352 101.535 53.87 101.535 54.1738C101.535 54.5467 102.04 54.6434 102.629 54.7642L103.371 54.9161C104.381 55.1199 105.21 55.4479 105.21 56.532C105.21 58.058 103.657 58.3377 102.423 58.3377C100.194 58.3377 99.8178 57.3882 99.8178 56.418H101.427L101.424 56.4215Z"
          fill="var(--current-color-1)"/>
    <path d="M113.807 52.7133H115.417V55.1302L117.653 52.7133H119.59L117.169 55.1751L119.768 58.203H117.677L115.427 55.3788V58.203H113.818V52.7133H113.807Z"
          fill="var(--current-color-1)"/>
    <path d="M138.202 52.7133H140.682L142.313 56.784L144.037 52.7133H146.433V58.203H144.918V53.7319L143.072 58.203H141.417L139.578 53.7388V58.203H138.216V52.7133H138.202Z"
          fill="var(--current-color-1)"/>
    <path d="M157.587 52.7133H159.51L162.384 58.203H160.583L160.061 57.1189H156.832L156.309 58.203H154.654L157.587 52.7133ZM158.476 53.7768L157.34 56.0935H159.57L158.476 53.7768Z"
          fill="var(--current-color-1)"/>
    <path d="M170.549 52.7133H172.664L175.182 56.6631V52.7133H176.607V58.203H174.493L171.988 54.2532V58.203H170.563V52.7133H170.549Z"
          fill="var(--current-color-1)"/>
    <path d="M187.723 52.7133H189.646L192.516 58.203H190.715L190.193 57.1189H186.974L186.441 58.203H184.786L187.723 52.7133ZM188.611 53.7768L187.486 56.0935H189.715L188.611 53.7768Z"
          fill="var(--current-color-1)"/>
    <path d="M203.576 55.182H206.509V58.0822C205.614 58.2369 204.708 58.3235 203.799 58.3411C201.806 58.3411 200.284 57.5954 200.284 55.5791C200.284 53.5075 201.646 52.5891 203.684 52.5891C205.077 52.5891 206.533 53.0138 206.586 54.4708H204.931C204.907 53.87 204.37 53.649 203.691 53.649C202.406 53.649 201.949 54.4466 201.949 55.434C201.949 56.6425 202.625 57.295 203.91 57.295C204.295 57.2864 204.678 57.2401 205.053 57.1569V56.2005H203.59V55.182H203.576Z"
          fill="var(--current-color-1)"/>
    <path d="M215.427 52.7133H220.175V53.8354H217.04V54.854H220.011V55.9761H217.04V57.0706H220.23V58.203H215.427V52.7133Z"
          fill="var(--current-color-1)"/>
    <path d="M232.454 52.7133C233.788 52.7133 234.544 53.1898 234.544 54.1496C234.544 54.8402 233.969 55.3339 233.151 55.4789C233.617 55.51 234.053 55.617 234.237 55.9554C234.506 56.456 234.537 57.6092 234.767 58.1788H233.06C232.886 57.6471 232.907 56.8565 232.753 56.4767C232.652 56.2247 232.405 56.0969 231.764 56.0969H230.681V58.1685H229.071V52.7133H232.454ZM230.684 55.0508H231.963C232.698 55.0508 232.935 54.8229 232.935 54.4051C232.935 53.8734 232.513 53.7733 231.74 53.7733H230.695V55.0508H230.684Z"
          fill="var(--current-color-1)"/>
    <path d="M244.555 56.4215C244.555 57.112 244.904 57.2812 245.642 57.2812C246.593 57.2812 246.736 56.9359 246.736 56.7046C246.736 56.3421 246.353 56.2178 245.719 56.0969L244.928 55.945C244.015 55.7689 243.057 55.4375 243.057 54.3879C243.057 53.0448 244.315 52.5718 245.576 52.5718C247.6 52.5718 248.171 53.1864 248.227 54.2809H246.67C246.625 53.7181 246.165 53.6352 245.681 53.6352C244.984 53.6352 244.67 53.87 244.67 54.1738C244.67 54.5467 245.175 54.6434 245.764 54.7642L246.506 54.9161C247.516 55.1199 248.345 55.4479 248.345 56.532C248.345 58.058 246.792 58.3377 245.559 58.3377C243.329 58.3377 242.953 57.3882 242.953 56.418H244.562L244.555 56.4215Z"
          fill="var(--current-color-1)"/>
    <path d="M64.5793 34.5042C62.8445 21.55 52.0493 12 38.3941 12C23.9099 12 12 23.6526 12 38.019C12 52.3854 23.9099 64 38.3941 64C52.0388 64 62.834 54.6779 64.5688 41.5579H58.6818C57.2048 51.0872 48.6564 58.2686 38.3941 58.2686C27.1008 58.2686 17.8104 49.2124 17.8104 38.019C17.8104 26.8256 27.1112 17.7314 38.3941 17.7314C48.6459 17.7314 57.2048 24.9819 58.6713 34.5042H64.5793Z"
          fill="var(--current-color-1)"/>
    <path d="M36.4782 35.5227V40.4876L51.2794 38.0052L36.4782 35.5227Z" fill="var(--current-color-1)"/>
    <path d="M46.4618 41.5718H51.9343C50.7012 47.569 45.0127 51.7328 38.3941 51.7328C30.8002 51.7328 24.3628 45.6976 24.3628 38.0155C24.3628 30.4888 30.8002 24.2223 38.3941 24.2223C44.9848 24.2223 50.6524 28.4621 52.0388 34.5008H46.4061C45.1729 31.3313 42.3583 29.2286 38.3941 29.2286C37.2259 29.2199 36.0675 29.4412 34.9861 29.8795C33.9048 30.3179 32.922 30.9647 32.0947 31.7824C31.2675 32.6001 30.6122 33.5724 30.167 34.6429C29.7217 35.7135 29.4953 36.861 29.5009 38.019C29.5009 42.832 33.6253 46.73 38.4046 46.73C42.3757 46.73 45.1903 44.6273 46.4618 41.5718Z"
          fill="var(--current-color-1)"/>
    <path d="M154.721 42.6835H152.251V32.6398L145.88 40.6637L139.526 32.6398V42.6835H137.084V30.1366H140.445L145.907 36.9314L151.359 30.1366H154.721V42.6835Z"
          fill="var(--current-color-1)"/>
    <path d="M178.697 37.9361H184.699C184.093 39.6624 181.958 40.8536 179.356 40.8536C176.266 40.8536 173.378 39.3137 173.378 36.3479C173.378 33.3821 176.482 31.9493 179.342 31.9493C181.21 31.9133 183.034 32.5128 184.511 33.648L186.093 32.0114C184.487 30.6304 182.219 29.8052 179.345 29.8052C174.879 29.8052 170.804 32.3187 170.804 36.3652C170.804 40.5394 174.918 43.0253 179.373 43.0253C183.828 43.0253 187.486 40.2874 187.486 36.3583V35.9025H178.697V37.9361Z"
          fill="var(--current-color-1)"/>
    <path d="M208.491 42.6835H205.562L195.958 32.7744V42.6835H193.498V30.1366H196.602L205.983 39.7798V30.1366H208.491V42.6835Z"
          fill="var(--current-color-1)"/>
    <path d="M87.4237 33.9622C86.0896 32.5811 84.1597 31.9424 82.1602 31.9424C78.8266 31.9424 76.2384 33.6272 76.2384 36.3686C76.2384 39.11 78.83 40.857 82.1602 40.857C84.4558 40.857 86.1418 40.1493 87.4377 38.7855L89.1794 40.3633C87.6014 41.9205 85.372 43.0115 82.1602 43.0115C77.5725 43.0115 73.6745 40.3219 73.6745 36.3652C73.6745 32.5673 77.4645 29.8052 82.1602 29.8052C85.2779 29.8052 87.57 30.8893 89.0958 32.3981L87.4237 33.9622Z"
          fill="var(--current-color-1)"/>
    <path d="M248.244 33.9621C246.907 32.5811 244.98 31.9424 242.981 31.9424C239.647 31.9424 237.059 33.6272 237.059 36.3686C237.059 39.11 239.651 40.857 242.981 40.857C245.276 40.857 246.962 40.1493 248.258 38.7855L250 40.3633C248.436 41.9274 246.21 43.0253 242.998 43.0253C238.411 43.0253 234.509 40.3357 234.509 36.379C234.509 32.5811 238.299 29.819 242.998 29.819C246.116 29.819 248.408 30.9031 249.934 32.4119L248.262 33.976L248.244 33.9621Z"
          fill="var(--current-color-1)"/>
    <path d="M130.768 42.6662H127.706L124.049 38.0639H118.043V42.6662H115.574V30.1366H125.48C128.044 30.1366 130.134 31.7801 130.134 34.121C130.134 36.0199 128.741 37.4493 126.856 37.9189L130.768 42.6662ZM125.021 35.9681C126.56 35.9681 127.543 35.2776 127.543 34.1348C127.543 32.9195 126.585 32.2497 125.021 32.2497H118.054V35.9681H125.021Z"
          fill="var(--current-color-1)"/>
    <path d="M164.735 42.6835H162.224V30.1366H164.735V42.6835Z" fill="var(--current-color-1)"/>
    <path d="M107.987 42.6662H110.941L103.253 30.1366H100.135L92.4712 42.6662H95.359L97.1809 39.6176L105.318 38.2123L107.987 42.6662ZM101.661 32.077L105.102 37.8671L98.6788 37.0902L101.661 32.077Z"
          fill="var(--current-color-1)"/>
    <path d="M228.538 42.6662H231.492L223.801 30.1366H220.683L213.02 42.6662H215.907L217.729 39.6176L225.867 38.2123L228.538 42.6662ZM222.209 32.077L225.651 37.8671L219.227 37.0902L222.209 32.077Z"
          fill="var(--current-color-1)"/>
</svg>
