<svg id="logo" viewBox="0 0 128 128" fill="none" xmlns="http://www.w3.org/2000/svg">
    <path d="M36.4797 71.3567H38.1691C38.8362 71.3567 39.2142 71.5949 39.2142 72.0748C39.2142 72.4201 38.9268 72.6669 38.5175 72.7395C38.7509 72.755 38.9686 72.8085 39.0609 72.9777C39.195 73.228 39.2107 73.8046 39.3256 74.0894H38.4722C38.3851 73.8236 38.3956 73.4282 38.3189 73.2384C38.2684 73.1123 38.1447 73.0485 37.8243 73.0485H37.2878V74.0842H36.4831V71.3567H36.4797ZM37.2843 72.5254H37.9235C38.291 72.5254 38.4095 72.4114 38.4095 72.2026C38.4095 71.9367 38.1987 71.8867 37.8121 71.8867H37.2896V72.5254H37.2843Z"
          fill="var(--current-color-1)"/>
    <path d="M43.511 71.3567H44.3157V74.1015H43.511V71.3567Z" fill="var(--current-color-1)"/>
    <path d="M49.3388 73.2107C49.3388 73.556 49.513 73.6406 49.8822 73.6406C50.3577 73.6406 50.4291 73.468 50.4291 73.3523C50.4291 73.171 50.2375 73.1089 49.9205 73.0485L49.5269 72.9725C49.0706 72.8845 48.5916 72.7187 48.5916 72.1939C48.5916 71.5224 49.2204 71.2859 49.8509 71.2859C50.8628 71.2859 51.1485 71.5932 51.1763 72.1404H50.3943C50.3717 71.859 50.1418 71.8176 49.8997 71.8176C49.5513 71.8176 49.3946 71.935 49.3946 72.0869C49.3946 72.2734 49.6471 72.3217 49.9414 72.3821L50.3124 72.4581C50.8175 72.5599 51.2321 72.7239 51.2321 73.266C51.2321 74.029 50.4553 74.1688 49.8387 74.1688C48.724 74.1688 48.5359 73.6941 48.5359 73.209H49.3406L49.3388 73.2107Z"
          fill="var(--current-color-1)"/>
    <path d="M55.5306 71.3567H56.3353V72.5651L57.4535 71.3567H58.4219L57.2114 72.5875L58.5107 74.1015H57.4657L56.3405 72.6894V74.1015H55.5359V71.3567H55.5306Z"
          fill="var(--current-color-1)"/>
    <path d="M67.728 71.3567H68.9681L69.7832 73.392L70.6454 71.3567H71.8437V74.1015H71.086V71.8659L70.1629 74.1015H69.3356L68.416 71.8694V74.1015H67.7349V71.3567H67.728Z"
          fill="var(--current-color-1)"/>
    <path d="M77.4207 71.3567H78.3821L79.819 74.1015H78.9185L78.6573 73.5594H77.0427L76.7814 74.1015H75.9541L77.4207 71.3567ZM77.8648 71.8884L77.297 73.0467H78.4117L77.8648 71.8884Z"
          fill="var(--current-color-1)"/>
    <path d="M83.9017 71.3567H84.9589L86.2182 73.3316V71.3567H86.9305V74.1015H85.8733L84.621 72.1266V74.1015H83.9086V71.3567H83.9017Z"
          fill="var(--current-color-1)"/>
    <path d="M92.4884 71.3567H93.4498L94.885 74.1015H93.9845L93.7232 73.5594H92.1139L91.8474 74.1015H91.0201L92.4884 71.3567ZM92.9325 71.8884L92.3699 73.0467H93.4846L92.9325 71.8884Z"
          fill="var(--current-color-1)"/>
    <path d="M100.415 72.591H101.881V74.0411C101.434 74.1185 100.981 74.1617 100.526 74.1706C99.5302 74.1706 98.769 73.7977 98.769 72.7895C98.769 71.7537 99.45 71.2945 100.469 71.2945C101.166 71.2945 101.894 71.5069 101.92 72.2354H101.092C101.08 71.935 100.812 71.8245 100.472 71.8245C99.8297 71.8245 99.6016 72.2233 99.6016 72.717C99.6016 73.3212 99.9395 73.6475 100.582 73.6475C100.774 73.6432 100.966 73.6201 101.153 73.5784V73.1003H100.422V72.591H100.415Z"
          fill="var(--current-color-1)"/>
    <path d="M106.34 71.3567H108.714V71.9177H107.147V72.427H108.632V72.988H107.147V73.5353H108.742V74.1015H106.34V71.3567Z"
          fill="var(--current-color-1)"/>
    <path d="M114.854 71.3567C115.521 71.3567 115.899 71.5949 115.899 72.0748C115.899 72.4201 115.612 72.6669 115.202 72.7395C115.436 72.755 115.653 72.8085 115.746 72.9777C115.88 73.228 115.895 73.8046 116.01 74.0894H115.157C115.07 73.8236 115.08 73.4282 115.004 73.2384C114.953 73.1123 114.829 73.0485 114.509 73.0485H113.967V74.0842H113.163V71.3567H114.854ZM113.969 72.5254H114.608C114.976 72.5254 115.094 72.4114 115.094 72.2026C115.094 71.9367 114.883 71.8867 114.497 71.8867H113.974V72.5254H113.969Z"
          fill="var(--current-color-1)"/>
    <path d="M120.905 73.2107C120.905 73.556 121.079 73.6406 121.448 73.6406C121.924 73.6406 121.995 73.468 121.995 73.3523C121.995 73.171 121.803 73.1089 121.486 73.0485L121.091 72.9725C120.635 72.8845 120.156 72.7187 120.156 72.1939C120.156 71.5224 120.784 71.2859 121.415 71.2859C122.427 71.2859 122.713 71.5932 122.74 72.1404H121.962C121.939 71.859 121.709 71.8176 121.467 71.8176C121.119 71.8176 120.962 71.935 120.962 72.0869C120.962 72.2734 121.215 72.3217 121.509 72.3821L121.88 72.4581C122.385 72.5599 122.8 72.7239 122.8 73.266C122.8 74.029 122.023 74.1688 121.406 74.1688C120.292 74.1688 120.103 73.6941 120.103 73.209H120.908L120.905 73.2107Z"
          fill="var(--current-color-1)"/>
    <path d="M30.9166 62.2521C30.0492 55.775 24.6516 51 17.824 51C10.5819 51 4.62695 56.8263 4.62695 64.0095C4.62695 71.1927 10.5819 77 17.824 77C24.6464 77 30.044 72.339 30.9114 65.779H27.9678C27.2293 70.5436 22.9551 74.1343 17.824 74.1343C12.1773 74.1343 7.53215 69.6062 7.53215 64.0095C7.53215 58.4128 12.1826 53.8657 17.824 53.8657C22.9499 53.8657 27.2293 57.4909 27.9626 62.2521H30.9166Z"
          fill="var(--current-color-1)"/>
    <path d="M16.8661 62.7614V65.2438L24.2667 64.0026L16.8661 62.7614Z" fill="var(--current-color-1)"/>
    <path d="M21.8579 65.7859H24.5941C23.9775 68.7845 21.1333 70.8664 17.824 70.8664C14.0271 70.8664 10.8083 67.8488 10.8083 64.0078C10.8083 60.2444 14.0271 57.1112 17.824 57.1112C21.1194 57.1112 23.9531 59.2311 24.6464 62.2504H21.83C21.2134 60.6656 19.8061 59.6143 17.824 59.6143C17.2399 59.61 16.6607 59.7206 16.12 59.9398C15.5793 60.159 15.0879 60.4824 14.6743 60.8912C14.2607 61.3 13.9331 61.7862 13.7104 62.3215C13.4878 62.8568 13.3746 63.4305 13.3774 64.0095C13.3774 66.416 15.4396 68.365 17.8292 68.365C19.8148 68.365 21.2221 67.3137 21.8579 65.7859Z"
          fill="var(--current-color-1)"/>
    <path d="M75.9872 66.3417H74.7523V61.3199L71.5667 65.3318L68.3898 61.3199V66.3417H67.1689V60.0683H68.8496L71.5807 63.4657L74.3065 60.0683H75.9872V66.3417Z"
          fill="var(--current-color-1)"/>
    <path d="M87.9755 63.9681H90.9765C90.6735 64.8312 89.6058 65.4268 88.3047 65.4268C86.7598 65.4268 85.3159 64.6569 85.3159 63.174C85.3159 61.6911 86.8678 60.9746 88.2978 60.9746C89.2319 60.9566 90.1441 61.2564 90.8825 61.824L91.6732 61.0057C90.8703 60.3152 89.7364 59.9026 88.2995 59.9026C86.0666 59.9026 84.0288 61.1593 84.0288 63.1826C84.0288 65.2697 86.0858 66.5126 88.3134 66.5126C90.5411 66.5126 92.3699 65.1437 92.3699 63.1791V62.9513H87.9755V63.9681Z"
          fill="var(--current-color-1)"/>
    <path d="M102.873 66.3417H101.408L96.6058 61.3872V66.3417H95.3762V60.0683H96.928L101.618 64.8899V60.0683H102.873V66.3417Z"
          fill="var(--current-color-1)"/>
    <path d="M42.3388 61.9811C41.6717 61.2906 40.7068 60.9712 39.7071 60.9712C38.0402 60.9712 36.7461 61.8136 36.7461 63.1843C36.7461 64.555 38.042 65.4285 39.7071 65.4285C40.8549 65.4285 41.6979 65.0746 42.3458 64.3927L43.2166 65.1817C42.4276 65.9602 41.3129 66.5057 39.7071 66.5057C37.4132 66.5057 35.4642 65.1609 35.4642 63.1826C35.4642 61.2836 37.3592 59.9026 39.7071 59.9026C41.2659 59.9026 42.412 60.4447 43.1748 61.1991L42.3388 61.9811Z"
          fill="var(--current-color-1)"/>
    <path d="M122.749 61.9811C122.08 61.2905 121.117 60.9712 120.117 60.9712C118.451 60.9712 117.156 61.8136 117.156 63.1843C117.156 64.555 118.452 65.4285 120.117 65.4285C121.265 65.4285 122.108 65.0746 122.756 64.3927L123.627 65.1817C122.845 65.9637 121.732 66.5126 120.126 66.5126C117.832 66.5126 115.881 65.1678 115.881 63.1895C115.881 61.2905 117.776 59.9095 120.126 59.9095C121.685 59.9095 122.831 60.4516 123.594 61.206L122.758 61.988L122.749 61.9811Z"
          fill="var(--current-color-1)"/>
    <path d="M64.0111 66.3331H62.4802L60.6513 64.0319H57.6486V66.3331H56.4137V60.0683H61.3672C62.6491 60.0683 63.6941 60.89 63.6941 62.0605C63.6941 63.01 62.9975 63.7247 62.0552 63.9594L64.0111 66.3331ZM61.1373 62.9841C61.9071 62.9841 62.3983 62.6388 62.3983 62.0674C62.3983 61.4597 61.9193 61.1248 61.1373 61.1248H57.6538V62.9841H61.1373Z"
          fill="var(--current-color-1)"/>
    <path d="M80.9947 66.3417H79.7389V60.0683H80.9947V66.3417Z" fill="var(--current-color-1)"/>
    <path d="M52.6202 66.3331H54.0972L50.2532 60.0683H48.6944L44.8626 66.3331H46.3065L47.2174 64.8088L51.2861 64.1062L52.6202 66.3331ZM49.4573 61.0385L51.1781 63.9335L47.9663 63.5451L49.4573 61.0385Z"
          fill="var(--current-color-1)"/>
    <path d="M112.896 66.3331H114.373L110.527 60.0683H108.969L105.137 66.3331H106.581L107.492 64.8088L111.56 64.1062L112.896 66.3331ZM109.731 61.0385L111.452 63.9335L108.241 63.5451L109.731 61.0385Z"
          fill="var(--current-color-1)"/>
</svg>
