<svg id="logo" viewBox="0 0 84 108" fill="none" xmlns="http://www.w3.org/2000/svg">
    <path d="M62.2059 64.6941C59.9132 64.6941 58.1606 65.4246 57.011 66.3486L57.0546 68.9886C58.1573 68.0359 59.7532 67.2634 61.6861 67.2634C65.932 67.2634 69.2271 70.6439 69.2271 75.4273C69.2271 80.2073 65.932 83.5492 61.6861 83.5492C58.9981 83.5492 57.0482 82.2397 56.095 81.1592V74.2172L53.365 75.615V96H56.095V83.9102C57.0482 84.9908 59.3878 86.0301 61.9028 86.0301C67.6676 86.0301 72 81.5648 72 75.3356C72 68.6612 67.1454 64.6941 62.2059 64.6941Z"
          fill="var(--current-color-1)"/>
    <path d="M38.706 83.5498C36.7569 83.5498 34.7196 82.826 33.7237 82.1949V69.5193C34.5895 68.5701 36.541 67.264 39.3139 67.264C43.5606 67.264 46.7676 70.6908 46.7676 75.3353C46.7676 80.165 43.5606 83.5498 38.706 83.5498ZM39.5298 64.6947C37.0616 64.6947 34.676 65.6398 33.7237 66.6757V53.4591H30.9928V83.6381C32.5951 84.8121 35.6307 86.0307 38.9687 86.0307C45.3375 86.0307 49.5421 81.5183 49.5421 75.2949C49.5421 69.1575 45.2955 64.6947 39.5298 64.6947Z"
          fill="var(--current-color-1)"/>
    <path d="M23.4258 83.3662C19.049 83.3662 15.6253 80.0749 15.6253 75.427C15.6253 70.737 19.0062 67.4423 23.3401 67.4423C24.7274 67.4423 26.0904 67.741 27.3095 68.3024V65.5446C26.1195 65.1322 24.7387 64.8722 23.21 64.8722C17.5744 64.8722 12.8524 69.0227 12.8524 75.3832C12.8524 81.7428 17.6197 85.8496 23.21 85.8496C24.7031 85.8496 26.1251 85.6477 27.3095 85.242V82.7174C26.1098 83.1819 24.8769 83.3662 23.4258 83.3662Z"
          fill="var(--current-color-1)"/>
    <path d="M41.9417 21.6232C36.5617 21.6232 32.201 26.1634 32.201 31.764C32.201 37.3645 36.5617 41.9047 41.9417 41.9047C47.3218 41.9047 51.6833 37.3645 51.6833 31.764C51.6833 26.1634 47.3218 21.6232 41.9417 21.6232ZM41.8455 41.9754C10.9111 41.8525 30.8105 13.9558 41.8455 12.0202C52.8814 13.9558 72.7816 41.8525 41.8455 41.9754ZM41.8957 12.0101C41.9126 12.0067 41.9296 12.0025 41.9466 12C41.9126 12.0017 41.8803 12.0051 41.8455 12.0067C41.8116 12.0051 41.7793 12.0017 41.7453 12C41.7623 12.0025 41.7793 12.0067 41.7962 12.0101C12.1068 13.5527 1.28843 43.6627 24.7304 44.8619V44.8653H24.7878C25.711 44.9107 26.6851 44.9133 27.7159 44.8653H55.976C83.245 46.1285 72.7767 13.6149 41.8957 12.0101Z"
          fill="var(--current-color-1)"/>
</svg>
