<svg id="logo" viewBox="0 0 128 128" fill="none" xmlns="http://www.w3.org/2000/svg">
    <path d="M77.4706 71.1294C75.9422 71.1294 74.7737 71.6164 74.0073 72.2324L74.0364 73.9924C74.7716 73.3573 75.8354 72.8422 77.1241 72.8422C79.9546 72.8422 82.1514 75.0959 82.1514 78.2849C82.1514 81.4716 79.9546 83.6994 77.1241 83.6994C75.3321 83.6994 74.0321 82.8265 73.3967 82.1061V77.4781L71.5767 78.41V92H73.3967V83.9401C74.0321 84.6605 75.5918 85.3534 77.2685 85.3534C81.1118 85.3534 84 82.3765 84 78.2237C84 73.7741 80.7636 71.1294 77.4706 71.1294Z"
          fill="var(--current-color-1)"/>
    <path d="M61.804 83.6999C60.5046 83.6999 59.1464 83.2174 58.4824 82.7966V74.3462C59.0596 73.7134 60.3607 72.8427 62.2093 72.8427C65.0404 72.8427 67.1784 75.1272 67.1784 78.2236C67.1784 81.4434 65.0404 83.6999 61.804 83.6999ZM62.3532 71.1298C60.7078 71.1298 59.1173 71.7598 58.4824 72.4505V63.6394H56.6619V83.7588C57.7301 84.5414 59.7538 85.3538 61.9791 85.3538C66.225 85.3538 69.0281 82.3455 69.0281 78.1966C69.0281 74.105 66.197 71.1298 62.3532 71.1298Z"
          fill="var(--current-color-1)"/>
    <path d="M51.6172 83.5775C48.6993 83.5775 46.4169 81.3833 46.4169 78.2846C46.4169 75.158 48.6708 72.9615 51.5601 72.9615C52.4849 72.9615 53.3936 73.1607 54.2063 73.5349V71.6964C53.413 71.4215 52.4925 71.2481 51.4733 71.2481C47.7163 71.2481 44.5683 74.0151 44.5683 78.2555C44.5683 82.4952 47.7465 85.2331 51.4733 85.2331C52.4688 85.2331 53.4168 85.0984 54.2063 84.828V83.1449C53.4065 83.4546 52.5846 83.5775 51.6172 83.5775Z"
          fill="var(--current-color-1)"/>
    <path d="M63.9612 42.4155C60.3744 42.4155 57.4673 45.4423 57.4673 49.176C57.4673 52.9097 60.3744 55.9365 63.9612 55.9365C67.5479 55.9365 70.4555 52.9097 70.4555 49.176C70.4555 45.4423 67.5479 42.4155 63.9612 42.4155ZM63.897 55.9836C43.2741 55.9017 56.5404 37.3039 63.897 36.0135C71.2542 37.3039 84.521 55.9017 63.897 55.9836ZM63.9304 36.0067C63.9418 36.0045 63.9531 36.0017 63.9644 36C63.9418 36.0011 63.9202 36.0034 63.897 36.0045C63.8744 36.0034 63.8528 36.0011 63.8302 36C63.8415 36.0017 63.8528 36.0045 63.8642 36.0067C44.0712 37.0351 36.859 57.1085 52.4869 57.908V57.9102H52.5252C53.1407 57.9405 53.7901 57.9422 54.4773 57.9102H73.3173C91.4967 58.7523 84.5178 37.0766 63.9304 36.0067Z"
          fill="var(--current-color-1)"/>
</svg>
