<svg id="logo" viewBox="0 0 128 128" fill="none" xmlns="http://www.w3.org/2000/svg">
    <path d="M18.7073 66.5567H22.7832L23.9738 67.3355H18.5275L16.0831 74.9563C13.3827 73.8998 10.8836 71.4527 9.83516 68.7025C8.71757 66.0371 8.71757 62.6884 9.85963 60.0118C10.9303 57.2605 13.5017 54.7757 16.2385 53.7549C18.3924 52.8552 21.2744 52.7599 23.5584 53.4681C26.1795 54.2252 28.6544 56.12 30.093 58.5936C31.7023 61.3061 32.1544 64.7531 31.176 67.8488C30.5582 69.9034 29.2853 71.8708 27.5327 73.2777L24.5244 68.2218L28.7122 70.5777C28.7357 70.5777 28.7478 70.5509 28.7357 70.5265L23.2505 65.7502L30.3448 66.8415C30.3693 66.8415 30.3794 66.8303 30.3794 66.8179L30.3327 66.782L23.6437 64.4161L30.5948 62.7233C30.6181 62.7233 30.6181 62.7008 30.606 62.6884L23.475 63.1566L29.0585 58.8929C29.0707 58.8692 29.0219 58.858 29.0108 58.8827L22.7383 62.09L26.2007 55.9284C26.2007 55.9192 26.2007 55.8935 26.1795 55.9058L21.6555 61.261L22.5241 54.2254C22.5241 54.2121 22.4986 54.1999 22.4754 54.2121L20.3947 61.0437L18.5732 54.0071C18.5611 53.9959 18.5366 53.9834 18.5234 54.0071L19.0253 61.3061L14.7289 55.666C14.7157 55.6528 14.7044 55.666 14.6923 55.6772L17.9423 61.9188L11.7989 58.5332C11.7878 58.5332 11.7633 58.5465 11.7633 58.5577L17.227 63.083L10.2527 62.3399C10.2282 62.3532 10.2282 62.3748 10.2527 62.386L17.0148 64.3812L10.2893 66.3743C10.2761 66.3845 10.2761 66.4092 10.2893 66.4204L17.227 65.6047L11.7754 70.2753C11.7633 70.2753 11.752 70.299 11.7754 70.3122L11.8486 70.2886L16.2142 67.9829L17.2394 66.3382H18.4047L17.5968 65.7625L20.2972 61.39L18.7043 66.5535L18.7073 66.5567ZM38.8231 72.3111H33.3806L37.7391 56.6196H48.894L47.8314 60.3435H42.1391L41.4087 63.0148H47.102L46.1418 66.4425H40.4497L38.8231 72.3111ZM51.4168 72.3113H46.0374L49.2275 60.8479H54.608L51.4168 72.3113ZM54.8994 59.7545H49.52L50.3957 56.6198H55.7751L54.8994 59.7545ZM65.3743 72.3109H60.0984L60.4732 71.028C59.4095 71.9328 58.3256 72.5834 56.5954 72.5834C54.8428 72.5834 53.7386 71.742 53.7386 69.955C53.7386 67.9784 54.5107 65.0333 55.6566 62.9726C56.4906 61.4365 57.9923 60.6383 59.7651 60.6383C61.286 60.6383 62.4127 61.3106 62.8504 62.1518L64.3519 56.6205H69.7313L65.3743 72.3109ZM61.3287 64.2545C60.8481 64.2545 60.3697 64.403 60.0984 65.0753C59.7022 66.0426 59.3476 66.9895 59.3476 67.9353C59.3476 68.3781 59.6605 68.7561 60.1816 68.7561C60.598 68.7561 60.8693 68.63 61.0989 68.4835L62.1839 64.7176C61.9962 64.4442 61.662 64.2545 61.3287 64.2545ZM80.5638 67.3053H73.1414C72.9951 67.9139 72.8499 68.3352 72.8499 68.8188C72.8499 69.0503 72.8916 69.6396 73.6412 69.6396C74.3921 69.6396 74.7262 69.3443 75.0381 68.2306H80.314C79.6465 71.4901 75.8102 72.6041 73.4543 72.6041C70.2631 72.6041 67.7824 72.1419 67.7824 69.0503C67.7824 67.3463 68.6368 64.5283 69.7635 63.0352C71.1188 61.2472 73.4747 60.5749 75.6438 60.5749C78.9801 60.5749 81.1482 61.2686 81.1482 64.1286C81.148 64.8233 80.8565 66.3584 80.5638 67.3053ZM75.1844 63.4563C74.5169 63.4563 74.0587 63.9185 73.7662 65.0755H75.9769C76.0398 64.8439 76.1232 64.4863 76.1232 64.2751C76.1232 63.6449 75.7473 63.4563 75.1844 63.4563ZM85.9711 72.3111H80.5907L84.9492 56.6196H90.3296L85.9711 72.3111ZM93.0794 72.3113H87.699L90.8891 60.8479H96.2695L93.0794 72.3113ZM96.561 59.7545H91.1816L92.0573 56.6198H97.4367L96.561 59.7545ZM106.233 60.8479L106.701 63.4353H102.583L101.374 67.7882C101.27 68.1255 101.187 68.5456 101.187 68.8192C101.187 69.3233 101.395 69.4925 102.124 69.4925H103.271L102.479 72.3115H97.6824C96.0976 72.3115 95.4932 71.5327 95.4932 70.3543C95.4932 69.8715 95.5561 69.3449 95.7238 68.7557L98.6427 58.3027H104.022L103.313 60.8481L106.233 60.8479ZM33.2706 74.0735L34.6117 74.0724L33.7573 76.8945H32.4202L33.2706 74.0735ZM37.9511 74.0757L39.9128 74.0747L40.4157 75.956H40.429L40.9968 74.0737L42.1611 74.0726L41.3006 76.8886L39.4231 76.8947L38.8796 74.8842H38.8705L38.2752 76.8906L37.1108 76.8917L37.9511 74.0757ZM44.7036 74.0769L46.1796 74.0759L46.4387 75.8497L47.7889 74.0739L49.1553 74.0728L46.903 76.8898L45.2633 76.8919L44.7036 74.0769ZM51.7261 74.0779L54.7771 74.0749L54.6053 74.6468L52.8508 74.6478L52.6813 75.2266L54.326 75.2256L54.1613 75.7687L52.5166 75.7697L52.3469 76.3283L54.1197 76.3271L53.9409 76.898L50.8739 76.9L51.7261 74.0779ZM64.8279 74.7649L63.7835 74.7661L63.9899 74.0814L67.4185 74.0783L67.2124 74.7631L66.168 74.7639L65.528 76.8872L64.1879 76.8882L64.8279 74.7649ZM70.1929 74.0743L72.2248 74.0722L72.3223 75.9558H72.3314L73.5435 74.0712L75.5835 74.0692L74.7361 76.8923L73.4937 76.8933L74.1307 74.768H74.1216L72.6118 76.8943L71.3166 76.8953L71.1327 74.7702H71.1194L70.4834 76.8892L69.3456 76.8902L70.1929 74.0743ZM84.1203 74.0757L86.0799 74.0747L86.5848 75.956H86.5982L87.166 74.0726H88.3293L87.4779 76.8947L85.576 76.8896L85.0487 74.8842H85.0396L84.4312 76.8906L83.2658 76.8917L84.1203 74.0757ZM91.5441 74.7606L90.4987 74.7616L90.7048 74.0761L94.1347 74.0741L93.9286 74.7586L92.8832 74.7596L92.244 76.89L90.9031 76.891L91.5441 74.7606ZM114.839 70.0054C114.034 70.0054 113.376 70.6672 113.376 71.4809C113.376 72.2935 114.034 72.9564 114.839 72.9564C115.645 72.9564 116.302 72.2933 116.302 71.4809C116.302 70.6672 115.645 70.0054 114.839 70.0054ZM114.839 72.6942C114.52 72.6942 114.214 72.5664 113.989 72.3389C113.763 72.1114 113.636 71.8028 113.636 71.481C113.636 71.1592 113.763 70.8506 113.989 70.6231C114.214 70.3956 114.52 70.2678 114.839 70.2678C115.158 70.2678 115.464 70.3956 115.69 70.6231C115.915 70.8506 116.042 71.1592 116.042 71.481C116.042 71.8028 115.915 72.1114 115.69 72.3389C115.464 72.5664 115.158 72.6942 114.839 72.6942Z"
          fill="var(--current-color-1)"/>
    <path d="M115.426 71.1753C115.426 70.8823 115.256 70.7172 114.894 70.7172H114.325V72.2378H114.589V71.6158H114.791L115.166 72.2378H115.458L115.064 71.5943C115.269 71.5688 115.426 71.4397 115.426 71.1753ZM114.589 71.3791V70.9529H114.791C114.96 70.9498 115.149 70.96 115.149 71.164C115.149 71.3691 114.96 71.3793 114.791 71.3793L114.589 71.3791ZM58.8872 74.9308C58.8576 74.8991 58.8556 74.8457 58.869 74.8026C58.9127 74.6592 59.0895 74.5649 59.3728 74.5649C59.5395 74.5639 59.7964 74.5833 59.8696 74.6429C59.9057 74.667 59.9328 74.7026 59.9466 74.744C59.9604 74.7853 59.9602 74.8302 59.9459 74.8714H61.1335C61.2737 74.3672 60.9587 74.0424 59.6176 74.0445C58.3437 74.0455 57.6213 74.3211 57.4354 74.9361C57.3877 75.096 57.3816 75.2937 57.5137 75.4259C57.8418 75.7558 59.3231 75.887 59.4481 76.0654C59.4615 76.0835 59.4702 76.1047 59.4736 76.127C59.4769 76.1493 59.4748 76.1722 59.4673 76.1935C59.3991 76.42 59.0812 76.4783 58.8038 76.4783C58.627 76.4783 58.3975 76.4404 58.3315 76.3667C58.2696 76.293 58.2696 76.1792 58.305 76.1064L57.0616 76.1084C56.9376 76.546 56.8838 77.0008 58.6119 77C60.0616 76.998 60.7261 76.6403 60.8926 76.0839C60.9749 75.8113 60.8936 75.6598 60.7991 75.5635C60.4771 75.2288 59.0425 75.106 58.8872 74.9308ZM78.313 74.0786L81.364 74.0755L81.1923 74.6474L79.4377 74.6484L79.268 75.2274L80.9119 75.2264L80.7473 75.7695L79.1035 75.7703L78.9338 76.33L80.7056 76.3279L80.5268 76.8986L77.4608 76.9006L78.313 74.0786ZM113.496 60.8479L110.576 67.2L110.659 60.8479H105.218L106.259 72.3113C106.126 72.9825 105.907 73.3606 105.489 73.5471C105.032 73.7521 104 73.7152 103.636 73.6946L103.57 73.6987L102.711 76.8137L106.384 76.8168C108.553 76.8168 109.617 75.7173 111.16 73.2784L119 60.8475H113.496V60.8479ZM97.6133 74.9238C97.5837 74.8922 97.5827 74.8377 97.5951 74.7957C97.6387 74.6523 97.8166 74.558 98.0989 74.558C98.2656 74.557 98.5225 74.5764 98.5957 74.6359C98.6318 74.6601 98.6589 74.6956 98.6727 74.737C98.6865 74.7784 98.6863 74.8232 98.672 74.8645H99.8596C99.9997 74.3603 99.6848 74.0355 98.3437 74.0375C97.0707 74.0386 96.3474 74.3142 96.1625 74.9291C96.1138 75.0891 96.1077 75.2868 96.2398 75.419C96.5679 75.7489 98.0492 75.8801 98.1742 76.0584C98.1876 76.0765 98.1963 76.0977 98.1997 76.1201C98.203 76.1424 98.2009 76.1652 98.1934 76.1865C98.1262 76.413 97.8072 76.4714 97.5299 76.4714C97.3531 76.4714 97.1235 76.4334 97.0574 76.3598C96.9955 76.2861 96.9955 76.1723 97.0309 76.0994L95.7875 76.1015C95.6635 76.5391 95.6097 76.9939 97.3378 76.9931C98.7875 76.991 99.452 76.6334 99.6195 76.077C99.7008 75.8044 99.6195 75.6528 99.525 75.5565C99.2042 75.2221 97.7688 75.0991 97.6133 74.9238Z"
          fill="var(--current-color-1)"/>
</svg>
