<svg id="logo" viewBox="0 0 118 114" fill="none" xmlns="http://www.w3.org/2000/svg">
    <path d="M27.4185 78.5216H21.5478V79.214H23.5588V84.2324C23.2199 85.5062 21.4143 86.0384 20.8761 86.0384C17.1274 86.0384 17.3965 80.3318 17.3965 78.8037C17.3965 77.4059 17.2609 71.5646 20.8761 71.5646C23.4232 71.5646 24.7646 74.2042 25.3007 76.5745H25.7074C25.7074 75.5977 25.7238 70.9512 25.7136 70.9619C25.7238 70.9256 23.9676 72.2742 23.9614 72.2529C24.0004 72.2443 23.1582 71.0047 20.8761 71.0047C16.4516 71.0047 14.8288 75.5977 14.8432 78.8037C14.8638 81.7361 16.162 86.7331 20.8761 86.7331C22.3592 86.7331 23.4027 85.9487 23.9614 85.0574C23.9676 85.0382 25.8306 86.5877 25.8368 86.5941V79.214H27.4185V78.5216Z"
          fill="var(--current-color-1)"/>
    <path d="M31.6696 78.242L31.6778 71.9006C35.4984 71.9006 36.9014 71.7018 37.5669 76.5749H37.9695V71.1504L27.5655 71.1547V71.9006H29.3669V85.8572H27.3806V86.5924H38.1031V80.8901H37.5669C37.0329 85.201 35.9812 85.8593 33.0356 85.8593H31.6696V79.0777H32.4604C33.7833 79.1119 34.5351 79.9155 34.8042 82.2815H35.291L35.2869 75.2711C35.2787 75.284 34.8083 75.2711 34.8083 75.2711C34.8083 75.3053 34.7138 78.2847 32.4029 78.242H31.6696Z"
          fill="var(--current-color-1)"/>
    <path d="M56.4893 71.8916C60.3099 71.8916 61.7211 71.7014 62.3866 76.5766H62.7892V71.15H47.6196V71.8916H48.0161C48.5522 71.8916 49.8217 71.9322 49.8956 73.0971V81.9989L42.7987 71.15H38.9349V71.8916H39.5758C40.3378 71.8916 41.406 71.928 41.4553 73.0971V84.5038C41.4553 85.6174 39.8531 86.0384 39.1834 86.0384H39.1752V86.592H44.405V86.0384C43.7353 86.0384 42.1229 85.6174 42.1229 84.5038L42.1413 74.4607C44.9514 78.6391 50.253 86.6005 50.3023 86.592H50.5673V73.0971C50.6392 71.9322 51.9107 71.8916 52.4447 71.8916H54.1866V85.8589H52.2003V86.592H62.9248V80.8897H62.3866C61.8526 85.2027 60.8029 85.8589 57.8553 85.8589H56.4893V79.0772H57.2801C58.603 79.1114 59.3548 79.915 59.6239 82.281H60.1127L60.1086 75.2707C60.0984 75.2835 59.63 75.2707 59.63 75.2707C59.63 75.3049 59.5335 78.2864 57.2226 78.2415H56.4893V71.8916Z"
          fill="var(--current-color-1)"/>
    <path d="M78.6997 81.023L80.8401 74.3504L83.1222 81.023H78.6997ZM70.3867 78.3578H67.9793V71.8925H71.0584C72.866 72.1767 72.94 74.3504 72.94 75.0407C72.94 76.7142 72.2683 78.3578 70.3867 78.3578ZM96.0076 80.8905C95.4715 85.2014 94.4218 85.849 91.4762 85.849H91.2955V71.8946H93.1709V71.1423H87.0065V71.8946H88.8819V85.849H87.3927L81.9164 70.7255H81.1091C81.1276 70.717 76.5593 84.447 76.549 84.4876C76.5593 84.447 76.2039 85.6652 75.4521 85.817C74.7599 85.8512 74.8113 85.475 74.8113 85.3425V82.6987C74.8113 82.004 74.7599 80.4267 74.0677 79.7043C73.2892 78.89 71.9622 78.8302 71.993 78.7981C71.993 78.7981 75.3618 78.0736 75.3618 74.7436C75.3618 72.4097 73.8006 71.2492 71.1919 71.1466H63.791V71.8968H65.6828V85.8512H63.791V86.5928H69.8629V85.8512H67.969V79.1422H70.4935C74.8749 79.5184 69.7417 86.5992 75.483 86.5928H79.1023V85.849C78.901 85.849 77.574 85.8875 77.4919 84.9279C77.4385 84.2311 78.3649 81.7369 78.3649 81.7369H83.2927C83.2906 81.7262 84.825 85.8512 84.8394 85.8512H83.1222V86.5928H96.5437V80.8905H96.0076Z"
          fill="var(--current-color-1)"/>
    <path d="M103.287 71.8941V71.1418H97.2352V71.8941H99.1352L99.1434 85.8421H97.2352V86.5923H103.287V85.8421H101.387V71.8941H103.287Z"
          fill="var(--current-color-1)"/>
    <path d="M81.7182 58.318C81.8989 57.8371 82.2481 57.5315 82.7309 57.4353L87.6278 56.2982L87.1862 51.7543L87.1718 51.656C87.0506 51.0597 86.6871 49.2473 84.4111 49.0528C75.6586 48.3176 73.6291 46.9668 71.501 45.5369C71.4969 45.5305 71.4949 45.5241 71.4928 45.5177L71.4805 45.5241L71.3429 45.4301C69.069 43.8998 66.8115 43.8869 66.5897 43.8934C64.1104 43.8955 60.9737 44.9171 60.717 45.0026C59.9611 45.2334 59.2524 45.4685 58.5684 45.6972C55.8261 46.6141 53.4578 47.4092 49.481 47.2853L48.7559 47.2639L48.569 47.9927C48.4252 48.5548 47.3119 53.1308 48.3862 56.0695C47.4228 56.8582 47.4248 57.7708 47.4289 57.8948C47.468 58.8993 47.24 59.1473 47.166 59.2285C46.7059 59.7222 45.1818 59.7884 43.8979 59.7884H43.4132L43.1379 60.1817C42.3471 61.3166 40.636 61.5816 39.5412 61.291C39.0585 59.7671 39.0461 58.6022 39.5104 57.9076C40.0588 57.0869 41.2214 56.9971 41.6959 56.9971H41.9712C43.1338 56.9971 44.0787 56.0076 44.0787 54.7914V46.6013C44.4341 46.0328 44.7175 45.3766 44.9661 44.6393C46.8867 44.3187 48.3574 42.6238 48.3574 40.5848C48.3574 39.8026 48.1356 39.046 47.735 38.4005C49.5118 37.5114 51.0298 35.6947 51.0298 33.3116C51.0298 30.9306 49.8774 29.8385 48.7847 29.1225C49.0928 28.2077 49.6022 26.6005 49.9473 24.9825L51.4838 19.2546C52.1719 17.0083 53.9672 15.5592 56.0624 15.5592H83.1314C81.9852 17.237 80.3584 18.0299 78.1029 18.0299H61.7235L60.8669 19.9364H75.5476C74.3932 21.845 72.7047 22.7448 70.3076 22.7448H59.6632L58.8087 24.6513H68.3049C67.1546 26.4893 65.4846 27.3571 63.1306 27.3571H57.3277L56.4732 29.2636H62.5554C62.6109 29.3426 62.7629 29.6312 62.7629 30.4049C62.7629 31.6274 61.7728 32.6255 60.5568 32.6255C60.1377 32.6255 59.7824 32.5251 59.1559 32.26C58.8868 32.1404 58.6177 32.0228 58.3486 31.9053L56.9374 33.2218C57.2024 33.3394 57.4653 33.4569 57.7303 33.5723V33.5745C58.9525 34.1238 59.6324 34.4123 60.5568 34.4123C61.6762 34.4123 62.6869 33.9293 63.4017 33.1598C64.4452 33.2282 66.1254 33.3736 67.7543 33.5125C69.6996 33.6792 71.538 33.8352 72.487 33.8887C72.9636 33.9143 73.4093 33.9378 73.8345 33.9592C74.6418 33.9998 75.3813 34.0383 76.1187 34.0938C79.814 40.3369 81.7079 41.1576 88.8624 42.0489C89.3779 43.0107 89.8442 44.0259 90.2859 45.0496V57.2023L90.2879 57.2728C90.3269 57.8328 90.3269 58.0209 90.255 58.1235C90.0065 58.4612 88.9014 58.9399 88.5173 59.1045L82.4864 61.4705C81.6874 60.3441 81.3998 59.1665 81.7182 58.318ZM80.4138 61.6201H68.4897L73.6003 56.0076C74.6315 54.8983 74.9602 53.5646 74.5267 52.2545C74.2782 51.4979 73.6045 50.0509 72.9019 48.5655C74.9293 49.5465 78.0043 50.4271 84.2612 50.9529C85.015 51.017 85.2143 51.2841 85.3642 51.998L85.6395 54.8064L82.3693 55.5673C81.2724 55.7917 80.4118 56.5419 80.0071 57.6276C79.5593 58.8245 79.7113 60.2351 80.4138 61.6201ZM58.9073 61.6201C58.5766 60.2693 58.7122 59.1921 59.3038 58.4868C59.8686 57.8136 60.7375 57.6084 61.3517 57.7003L64.8375 58.3736L64.9258 58.3885H65.4106L67.8735 55.6271L67.8961 55.6015C68.3172 55.0907 69.5969 53.5475 68.2905 51.5769L64.9977 45.9323C65.5441 45.8511 66.0905 45.802 66.5958 45.802L66.6184 45.7998C66.6349 45.802 68.2864 45.7763 70.055 46.8471C70.2932 47.3814 70.626 48.0846 70.9978 48.8669C71.688 50.3245 72.5486 52.1391 72.789 52.8722C72.865 53.103 73.0971 53.8019 72.2734 54.6889L65.9632 61.6201H58.9073ZM57.9193 57.2344C57.2558 58.0252 56.6088 59.4059 57.0278 61.6201H45.8021C47.0079 61.4961 47.885 61.2012 48.4889 60.5472C49.2242 59.7521 49.29 58.6642 49.2653 57.8884C49.29 57.82 49.4112 57.5571 49.9617 57.2985L50.9292 56.839L50.3478 55.9114C49.3886 54.3768 49.8076 51.0255 50.1794 49.2045H50.2657C54.0719 49.2045 56.5348 48.3817 59.1312 47.5118C59.8091 47.2853 60.5075 47.0523 61.2449 46.8279L61.2675 46.8193C61.2819 46.815 62.0419 46.565 63.0751 46.3149L66.7355 52.59L66.7663 52.6413C67.132 53.1821 67.1771 53.5411 66.5137 54.3447L64.6794 56.4051L61.6721 55.8238L61.6454 55.8195C60.2877 55.6015 58.8251 56.1572 57.9193 57.2344ZM38.0027 56.8197C37.2221 57.9888 37.1276 59.6004 37.7151 61.6201H35.8171V46.2102C36.497 46.1033 37.2283 45.9003 37.9102 45.5776C37.8712 46.2487 37.7829 46.7809 37.6617 47.4904C37.6329 47.655 37.6042 47.8281 37.5754 48.0119L37.3926 49.1233H38.4792C40.102 49.1233 41.3139 48.8583 42.2444 48.3582V54.7914C42.2444 54.956 42.1211 55.0907 41.9712 55.0907H41.6959C40.0835 55.0907 38.738 55.7212 38.0027 56.8197ZM33.9807 59.9487L25.337 57.6084L16.6933 59.9487V43.8613L25.337 41.5274L33.9807 43.8613V59.9487ZM17.8026 61.6201L25.337 59.579L32.8715 61.6201H17.8026ZM20.8159 37.9346C21.1775 37.3618 22.0032 36.8659 23.0364 37.0519L23.819 37.1929L24.0655 36.4085C24.1313 36.1991 24.2196 36.0431 24.3428 35.9234C24.5626 35.7075 24.8913 35.6049 25.3083 35.6177C26.4134 35.6541 27.7978 36.4556 28.9214 37.7102C29.3302 38.1654 29.6917 38.6933 30.0142 39.2298C30.0779 39.3409 30.1498 39.4627 30.2135 39.5696C30.3039 39.7192 30.3799 39.841 30.3963 39.8688C30.4374 39.9415 30.992 40.8114 30.953 40.8669C31.333 40.3112 31.713 39.7555 32.093 39.202C32.1033 39.187 32.0868 39.1357 32.054 39.0631C31.9697 38.8728 31.7684 38.5437 31.6472 38.3471C31.6185 38.3001 31.5897 38.253 31.561 38.206C31.5589 38.2017 31.5548 38.1975 31.5548 38.1932C31.5425 38.1739 31.4911 38.0906 31.4254 37.9837C31.298 37.7764 31.1173 37.4772 31.0372 37.3148L33.4282 33.3351C34.0259 33.4655 34.5333 33.4847 34.7756 33.4847H34.8352C38.2081 33.4847 41.6959 31.4607 41.6959 28.0709V27.9897C41.6549 27.0664 41.4885 26.1858 41.355 25.4784C41.2666 25.0125 41.1845 24.5722 41.1845 24.352C41.1845 23.9823 41.6857 23.5698 42.4046 23.5698H43.4953L43.0024 20.6289C44.5368 19.4534 45.4796 17.5383 45.4324 15.7088C47.0859 17.0297 48.2526 19.3166 48.4663 21.7531C48.5279 22.4584 48.3944 23.448 48.1746 24.4888L48.0555 24.9227L48.076 24.9291C47.6857 26.6261 47.1085 28.3744 46.8045 29.2016L46.521 29.9667L47.2071 30.3707C48.4396 31.0952 49.1955 31.6253 49.1955 33.3116C49.1955 35.2459 47.5214 36.7291 45.9048 37.0433L43.6946 37.4729L45.5638 38.7724C46.1636 39.187 46.521 39.8667 46.521 40.5848C46.521 41.7988 45.5289 42.7884 44.3088 42.7884H43.6042L43.405 43.4616C42.7189 45.787 41.9732 46.9241 39.5782 47.1656C39.687 46.4603 39.7651 45.7806 39.7651 44.8188C39.7651 44.5923 39.7466 43.9596 39.7363 43.7566L39.6295 41.5894L38.1649 43.1368C37.6678 43.6625 36.7866 44.0793 35.8171 44.2781V42.3866L25.337 39.5568L21.6088 40.5634C20.7769 39.6978 20.6085 38.268 20.8159 37.9346ZM32.1341 30.9306C32.1608 30.8003 32.2635 30.6955 32.3723 30.6977L33.9499 30.7511C35.8746 30.6806 37.8342 29.8556 38.0561 27.7717C38.0561 26.3611 37.0927 24.9868 35.7329 24.9868C35.0057 24.9868 34.1882 25.5083 33.27 26.141C32.6722 26.5556 32.1977 26.8805 31.8403 26.8805C31.5979 26.8805 31.4007 26.7116 31.4007 26.5748C31.4007 26.5513 31.4049 26.5278 31.4131 26.5043L32.4216 25.1001L31.5507 24.491C31.3638 24.3649 31.0762 24.1255 31.0433 23.9481C31.0269 23.8647 31.144 23.713 31.181 23.6681C31.5425 23.23 31.9574 22.6956 32.3744 22.0373C32.6332 21.6633 32.7811 21.456 33.2125 21.456C33.6397 21.456 33.9869 21.8129 33.9869 22.2489C33.9869 22.5375 34.2929 22.7662 34.6709 22.7662C35.0488 22.7662 35.2193 22.4862 35.4535 22.2489C35.4535 22.2489 36.3512 21.3897 35.8767 20.9837C35.3323 20.522 33.155 21.4667 33.7609 19.3871L33.9129 19.09C34.145 18.7694 35.1865 17.9679 37.3371 17.9679C37.7438 17.9679 38.1752 17.9979 38.6148 18.0534L38.9373 18.0962L43.5036 15.1659C43.5446 15.2664 43.557 15.3369 43.557 15.3369L43.5631 15.3668C43.8014 16.8052 42.9284 18.5172 41.5357 19.3486L40.9791 19.6799L41.3385 21.8236C40.1656 22.1976 39.3481 23.1765 39.3481 24.352C39.3481 24.7581 39.4385 25.2369 39.5535 25.8439C39.6809 26.5193 39.8246 27.2823 39.8616 28.0581C39.8616 30.2873 36.9037 31.7642 34.4018 31.6787L34.3381 31.6766C34.2334 31.6744 32.6414 31.5419 32.2511 31.2213C32.1731 31.1636 32.1135 31.0311 32.1341 30.9306ZM35.9177 16.0486C36.2074 15.6661 36.6757 15.2407 37.2365 14.856C37.674 14.5547 38.245 14.2875 38.8038 14.1187C39.6891 13.8536 40.7059 13.8365 41.7576 14.046L38.5182 16.1256C38.1156 16.0828 37.7192 16.0593 37.3371 16.0593C36.7887 16.0593 36.2834 16.1063 35.8191 16.1833C35.8541 16.1384 35.8849 16.0914 35.9177 16.0486ZM85.2738 15.5592H97.4876C96.3434 17.237 94.7145 18.0299 92.4591 18.0299H83.4436C84.1626 17.3738 84.7726 16.5488 85.2738 15.5592ZM84.6617 22.7448H75.6462C76.4432 22.0181 77.1067 21.0777 77.6367 19.9364H89.9038C88.7494 21.845 87.0609 22.7448 84.6617 22.7448ZM77.4867 27.3571H68.4712C69.2415 26.6496 69.8886 25.7456 70.4103 24.6513H82.661C81.5107 26.4872 79.8407 27.3571 77.4867 27.3571ZM79.5593 34.5149C82.4145 35.0043 84.7541 36.3423 86.5104 38.4903C86.8863 38.9498 87.2478 39.4392 87.6053 39.9671C82.8007 39.311 81.1287 38.5843 78.4419 34.3396C78.7993 34.3888 79.169 34.4465 79.5593 34.5149ZM98.7303 55.0885C98.907 55.3835 99.0569 55.6613 99.2027 55.9285C99.3815 56.2576 99.5581 56.5804 99.7635 56.9138C98.3729 56.824 97.3191 56.0225 96.3455 54.5072C97.2431 54.1802 98.3297 54.411 98.7303 55.0885ZM87.3074 61.6201L89.1808 60.8827L89.2075 60.8721C91.8675 59.7265 92.2455 59.0105 92.1222 57.1703V49.7303C94.1455 55.0778 96.0579 58.8373 99.9812 58.8352C100.515 58.8352 101.086 58.7668 101.698 58.6236L103.229 58.2624L102.175 57.0548C101.503 56.2833 101.177 55.6848 100.801 54.9923C100.647 54.7081 100.487 54.4131 100.293 54.0883C99.3753 52.5387 97.1918 52.013 95.4232 52.838C94.62 51.1794 93.8128 49.0186 92.8412 46.3513L92.6296 45.8426C92.4612 45.445 92.2927 45.0432 92.1222 44.6414V44.5752H92.0935C91.4916 43.1667 90.8487 41.7539 90.0804 40.4288C89.382 39.2255 88.6713 38.1868 87.9093 37.2549C85.8634 34.7543 83.154 33.2005 79.8592 32.6341C77.5812 32.2429 75.9667 32.1596 73.9249 32.0549C73.5017 32.0356 73.0581 32.01 72.5877 31.9843C71.6633 31.9309 69.753 31.7706 67.9043 31.6103C66.6595 31.5056 65.3819 31.3966 64.3774 31.3196C64.4452 31.0247 64.4842 30.7212 64.4842 30.4049C64.4842 29.9795 64.4472 29.6012 64.3753 29.2636H77.4867C80.8657 29.2636 83.3122 27.7076 84.7665 24.6491C88.127 24.6171 90.557 23.0312 91.9928 19.9364H92.4591C95.9573 19.9364 98.4592 18.2757 99.8929 14.9992L100.484 13.6506H56.0624C53.1435 13.6506 50.658 15.634 49.7296 18.6967L49.7008 18.8036C48.9449 16.6129 47.5625 14.7534 45.7898 13.657C43.3269 12.131 40.5251 11.6202 38.2923 12.287C37.5549 12.5093 36.8195 12.8555 36.2238 13.2659C35.7103 13.6164 34.9934 14.1828 34.4696 14.8774C33.9027 15.634 33.3542 16.5509 32.9516 17.408C32.6948 17.6281 32.4976 17.8504 32.36 18.0684L31.828 19.1071L31.7992 19.1648C31.1645 20.6609 30.3901 21.6975 29.7862 22.4285C29.1885 23.1552 29.1577 23.8455 29.2378 24.2965C29.3261 24.788 29.5808 25.192 29.852 25.4955L29.8355 25.5233C29.6589 25.8417 29.5664 26.2051 29.5664 26.5748C29.5664 27.7931 30.5853 28.7164 31.8403 28.7164C32.7524 28.7164 33.498 28.274 34.2868 27.7311C34.6072 27.5088 35.4556 26.9232 35.7329 26.8912C36.0841 26.8912 36.4046 27.2246 36.4046 27.59C36.4046 28.5882 35.1659 29.1268 34.2786 29.193L32.475 29.3939C31.1769 29.5222 30.5606 30.2382 30.5606 30.8772C30.5606 31.5205 30.8564 31.8817 31.0639 32.0976L31.1974 32.2387L31.6555 32.664L29.741 35.8699C28.3771 34.5555 26.7811 33.7583 25.3658 33.7134C24.4517 33.6813 23.6609 33.9677 23.0796 34.5405C22.9111 34.7073 22.7632 34.8975 22.6359 35.1048H22.603C21.0912 35.1048 19.8752 35.9469 19.2795 36.8937C18.6324 37.9282 18.8645 39.7171 19.6862 41.0828L14.857 42.3866V66.4077H103.432V61.6201H87.3074Z"
          fill="var(--current-color-1)"/>
    <path d="M18.609 48.3012L24.3852 46.7409V44.7701L18.609 46.3305V48.3012Z" fill="var(--current-color-1)"/>
    <path d="M32.0664 46.3313L26.2903 44.771V46.7396L32.0664 48.302V46.3313Z" fill="var(--current-color-1)"/>
    <path d="M32.0664 50.2892L26.2903 48.731V50.7018L32.0664 52.2599V50.2892Z" fill="var(--current-color-1)"/>
    <path d="M18.609 52.2602L24.3852 50.702V48.7291L18.609 50.2894V52.2602Z" fill="var(--current-color-1)"/>
    <path d="M32.0664 54.2514L26.2903 52.689V54.6597L32.0664 56.22V54.2514Z" fill="var(--current-color-1)"/>
    <path d="M18.609 56.2204L24.3852 54.6601V52.6894L18.609 54.2518V56.2204Z" fill="var(--current-color-1)"/>
    <path d="M22.8003 93.2304L20.494 101.882H19.4853L17.7747 96.0589C17.7236 95.8932 17.6744 95.7275 17.6273 95.5618C17.584 95.3922 17.5427 95.2324 17.5034 95.0825C17.4641 94.9287 17.4306 94.7946 17.4031 94.6802C17.3795 94.5618 17.3618 94.473 17.35 94.4139C17.3422 94.473 17.3264 94.5598 17.3028 94.6742C17.2832 94.7886 17.2556 94.9208 17.2203 95.0707C17.1888 95.2206 17.1495 95.3804 17.1023 95.55C17.059 95.7196 17.0118 95.8912 16.9607 96.0648L15.2973 101.882H14.2887L12 93.2304H13.0441L14.4302 98.6567C14.4774 98.8381 14.5207 99.0176 14.56 99.1951C14.6032 99.3687 14.6406 99.5384 14.6721 99.704C14.7075 99.8697 14.7389 100.031 14.7664 100.189C14.794 100.347 14.8195 100.501 14.8431 100.651C14.8628 100.497 14.8883 100.337 14.9198 100.172C14.9513 100.002 14.9847 99.8303 15.0201 99.6567C15.0594 99.4831 15.1007 99.3076 15.144 99.13C15.1911 98.9525 15.2403 98.775 15.2914 98.5975L16.8427 93.2304H17.875L19.4912 98.6389C19.5463 98.8243 19.5974 99.0078 19.6446 99.1892C19.6918 99.3707 19.7331 99.5482 19.7684 99.7218C19.8078 99.8914 19.8412 100.055 19.8687 100.213C19.9002 100.367 19.9277 100.513 19.9513 100.651C19.9788 100.458 20.0123 100.254 20.0516 100.041C20.0909 99.8283 20.1361 99.6054 20.1872 99.3727C20.2423 99.1399 20.3013 98.8993 20.3642 98.6507L21.7504 93.2304H22.8003Z"
          fill="var(--current-color-1)"/>
    <path d="M26.5046 95.2778C27.0552 95.2778 27.5271 95.4001 27.9203 95.6447C28.3135 95.8893 28.6144 96.2325 28.8228 96.6743C29.0312 97.1122 29.1354 97.6251 29.1354 98.2128V98.8223H24.6702C24.682 99.5837 24.8707 100.164 25.2364 100.562C25.6022 100.961 26.1173 101.16 26.7819 101.16C27.1908 101.16 27.5526 101.122 27.8672 101.047C28.1818 100.972 28.5082 100.862 28.8464 100.716V101.58C28.52 101.726 28.1956 101.832 27.8731 101.899C27.5546 101.966 27.1771 102 26.7406 102C26.1193 102 25.5766 101.874 25.1126 101.621C24.6525 101.365 24.2946 100.99 24.039 100.497C23.7834 100.004 23.6556 99.4003 23.6556 98.6862C23.6556 97.988 23.7716 97.3844 24.0036 96.8755C24.2396 96.3627 24.5699 95.9682 24.9946 95.692C25.4232 95.4159 25.9266 95.2778 26.5046 95.2778ZM26.4928 96.0826C25.9698 96.0826 25.553 96.2542 25.2423 96.5974C24.9317 96.9406 24.7469 97.4199 24.6879 98.0353H28.1091C28.1051 97.6487 28.0442 97.3095 27.9262 97.0175C27.8122 96.7217 27.6372 96.4929 27.4012 96.3311C27.1653 96.1654 26.8625 96.0826 26.4928 96.0826Z"
          fill="var(--current-color-1)"/>
    <path d="M33.2172 95.2896C33.988 95.2896 34.5602 95.4632 34.9337 95.8104C35.3073 96.1575 35.4941 96.7118 35.4941 97.4732V101.882H34.7804L34.5916 100.923H34.5444C34.3635 101.16 34.1748 101.359 33.9782 101.521C33.7815 101.678 33.5535 101.799 33.2939 101.882C33.0383 101.961 32.7237 102 32.3502 102C31.9569 102 31.6069 101.931 31.3002 101.793C30.9974 101.655 30.7575 101.446 30.5806 101.166C30.4075 100.886 30.321 100.531 30.321 100.101C30.321 99.4535 30.5766 98.9565 31.0879 98.6093C31.5991 98.2622 32.3777 98.0728 33.4237 98.0412L34.5385 97.9939V97.5974C34.5385 97.0373 34.4186 96.6447 34.1787 96.4199C33.9388 96.195 33.6007 96.0826 33.1642 96.0826C32.826 96.0826 32.5035 96.1319 32.1968 96.2305C31.8901 96.3291 31.5991 96.4455 31.3238 96.5796L31.023 95.834C31.314 95.6841 31.6482 95.5559 32.0257 95.4494C32.4032 95.3429 32.8004 95.2896 33.2172 95.2896ZM34.5267 98.6862L33.5417 98.7277C32.7355 98.7592 32.1673 98.8914 31.837 99.1241C31.5067 99.3569 31.3415 99.6863 31.3415 100.112C31.3415 100.483 31.4536 100.757 31.6777 100.935C31.9019 101.112 32.1988 101.201 32.5684 101.201C33.1425 101.201 33.6125 101.041 33.9782 100.722C34.3439 100.402 34.5267 99.923 34.5267 99.2839V98.6862Z"
          fill="var(--current-color-1)"/>
    <path d="M38.4965 101.882H37.5114V92.6741H38.4965V101.882Z" fill="var(--current-color-1)"/>
    <path d="M42.655 101.195C42.8162 101.195 42.9814 101.181 43.1505 101.154C43.3196 101.126 43.4572 101.093 43.5634 101.053V101.817C43.4493 101.868 43.2901 101.911 43.0856 101.947C42.885 101.982 42.6884 102 42.4957 102C42.1536 102 41.843 101.941 41.5638 101.822C41.2846 101.7 41.0604 101.495 40.8913 101.207C40.7262 100.919 40.6436 100.521 40.6436 100.012V96.1654H39.7234V95.6861L40.6495 95.3015L41.0388 93.8931H41.6286V95.3962H43.5221V96.1654H41.6286V99.9822C41.6286 100.388 41.7211 100.692 41.9059 100.893C42.0946 101.095 42.3443 101.195 42.655 101.195Z"
          fill="var(--current-color-1)"/>
    <path d="M45.852 92.6741V95.4257C45.852 95.5835 45.8481 95.7433 45.8402 95.9051C45.8324 96.0629 45.8186 96.2088 45.7989 96.3429H45.8638C45.9975 96.1141 46.1666 95.9228 46.3711 95.769C46.5795 95.6112 46.8155 95.4928 47.0789 95.4139C47.3424 95.3311 47.6216 95.2896 47.9165 95.2896C48.4356 95.2896 48.8682 95.3725 49.2142 95.5382C49.5642 95.7039 49.8257 95.9603 49.9987 96.3074C50.1757 96.6546 50.2642 97.1043 50.2642 97.6566V101.882H49.2968V97.7217C49.2968 97.1812 49.1729 96.7769 48.9252 96.5086C48.6814 96.2404 48.3058 96.1062 47.7986 96.1062C47.3188 96.1062 46.9354 96.199 46.6483 96.3844C46.3652 96.5658 46.1607 96.8341 46.0349 97.1891C45.913 97.5442 45.852 97.9781 45.852 98.491V101.882H44.8729V92.6741H45.852Z"
          fill="var(--current-color-1)"/>
    <path d="M60.4334 99.5798C60.4334 100.093 60.3056 100.531 60.05 100.893C59.7983 101.252 59.4444 101.527 58.9882 101.716C58.532 101.905 57.9953 102 57.3779 102C57.0515 102 56.7428 101.984 56.4518 101.953C56.1608 101.921 55.8934 101.876 55.6496 101.817C55.4058 101.757 55.1915 101.684 55.0067 101.598V100.633C55.3016 100.755 55.6614 100.87 56.0861 100.976C56.5108 101.079 56.9552 101.13 57.4192 101.13C57.8517 101.13 58.2175 101.073 58.5163 100.959C58.8152 100.84 59.0413 100.673 59.1947 100.456C59.352 100.235 59.4306 99.9703 59.4306 99.6626C59.4306 99.3667 59.3657 99.1202 59.2359 98.9229C59.1062 98.7217 58.8899 98.5403 58.5871 98.3785C58.2882 98.2128 57.8793 98.0373 57.3602 97.8519C56.9945 97.7217 56.672 97.5797 56.3928 97.4258C56.1136 97.268 55.8796 97.0905 55.6909 96.8933C55.5021 96.696 55.3586 96.4672 55.2603 96.2068C55.1659 95.9465 55.1187 95.6486 55.1187 95.3133C55.1187 94.8518 55.2347 94.4573 55.4667 94.1298C55.7027 93.7985 56.0271 93.546 56.44 93.3724C56.8568 93.1949 57.3346 93.1061 57.8734 93.1061C58.3335 93.1061 58.7582 93.1495 59.1475 93.2363C59.5407 93.3231 59.9005 93.4395 60.2269 93.5854L59.9143 94.4494C59.6036 94.3192 59.2733 94.2107 58.9233 94.1239C58.5773 94.0371 58.2194 93.9937 57.8498 93.9937C57.4801 93.9937 57.1675 94.049 56.9119 94.1594C56.6602 94.2659 56.4675 94.4178 56.3338 94.6151C56.2001 94.8123 56.1333 95.047 56.1333 95.3192C56.1333 95.623 56.1962 95.8755 56.322 96.0767C56.4518 96.2779 56.6563 96.4573 56.9355 96.6151C57.2186 96.769 57.5922 96.9307 58.0562 97.1004C58.5635 97.2858 58.9941 97.483 59.348 97.6921C59.7019 97.8973 59.9713 98.1497 60.1561 98.4495C60.3409 98.7454 60.4334 99.1222 60.4334 99.5798Z"
          fill="var(--current-color-1)"/>
    <path d="M67.6237 98.6271C67.6237 99.1596 67.5549 99.635 67.4173 100.053C67.2797 100.471 67.0811 100.824 66.8215 101.112C66.562 101.4 66.2474 101.621 65.8778 101.775C65.5121 101.925 65.0972 102 64.6332 102C64.2006 102 63.8034 101.925 63.4416 101.775C63.0838 101.621 62.7731 101.4 62.5097 101.112C62.2501 100.824 62.0476 100.471 61.9021 100.053C61.7605 99.635 61.6898 99.1596 61.6898 98.6271C61.6898 97.917 61.8097 97.3134 62.0496 96.8163C62.2895 96.3153 62.6316 95.9346 63.0759 95.6743C63.5242 95.41 64.0571 95.2778 64.6744 95.2778C65.2643 95.2778 65.7795 95.41 66.2199 95.6743C66.6642 95.9386 67.0083 96.3212 67.2521 96.8223C67.4999 97.3193 67.6237 97.9209 67.6237 98.6271ZM62.7043 98.6271C62.7043 99.1478 62.7731 99.5995 62.9108 99.9822C63.0484 100.365 63.2608 100.661 63.5478 100.87C63.8349 101.079 64.2045 101.183 64.6568 101.183C65.105 101.183 65.4727 101.079 65.7598 100.87C66.0508 100.661 66.2651 100.365 66.4027 99.9822C66.5404 99.5995 66.6092 99.1478 66.6092 98.6271C66.6092 98.1103 66.5404 97.6645 66.4027 97.2897C66.2651 96.911 66.0528 96.6191 65.7657 96.414C65.4786 96.2088 65.107 96.1062 64.6509 96.1062C63.9784 96.1062 63.4849 96.3291 63.1703 96.7749C62.8596 97.2207 62.7043 97.8381 62.7043 98.6271Z"
          fill="var(--current-color-1)"/>
    <path d="M70.3017 101.882H69.3166V92.6741H70.3017V101.882Z" fill="var(--current-color-1)"/>
    <path d="M77.7103 95.3962V101.882H76.9081L76.7666 100.97H76.7135C76.5798 101.195 76.4068 101.385 76.1944 101.538C75.9821 101.692 75.7422 101.807 75.4748 101.882C75.2113 101.961 74.9301 102 74.6313 102C74.1201 102 73.6914 101.917 73.3454 101.751C72.9993 101.586 72.7378 101.329 72.5609 100.982C72.3878 100.635 72.3013 100.189 72.3013 99.6449V95.3962H73.2923V99.5739C73.2923 100.114 73.4142 100.519 73.658 100.787C73.9018 101.051 74.2734 101.183 74.7728 101.183C75.2526 101.183 75.634 101.093 75.9172 100.911C76.2042 100.73 76.4107 100.463 76.5365 100.112C76.6624 99.7573 76.7253 99.3234 76.7253 98.8105V95.3962H77.7103Z"
          fill="var(--current-color-1)"/>
    <path d="M81.8689 101.195C82.0301 101.195 82.1952 101.181 82.3643 101.154C82.5334 101.126 82.6711 101.093 82.7772 101.053V101.817C82.6632 101.868 82.5039 101.911 82.2995 101.947C82.0989 101.982 81.9023 102 81.7096 102C81.3675 102 81.0568 101.941 80.7776 101.822C80.4984 101.7 80.2743 101.495 80.1052 101.207C79.94 100.919 79.8574 100.521 79.8574 100.012V96.1654H78.9373V95.6861L79.8633 95.3015L80.2526 93.8931H80.8425V95.3962H82.7359V96.1654H80.8425V99.9822C80.8425 100.388 80.9349 100.692 81.1197 100.893C81.3085 101.095 81.5582 101.195 81.8689 101.195Z"
          fill="var(--current-color-1)"/>
    <path d="M85.0659 95.3962V101.882H84.0867V95.3962H85.0659ZM84.5881 92.97C84.7493 92.97 84.887 93.0233 85.001 93.1298C85.119 93.2324 85.178 93.3941 85.178 93.615C85.178 93.832 85.119 93.9937 85.001 94.1002C84.887 94.2068 84.7493 94.26 84.5881 94.26C84.419 94.26 84.2774 94.2068 84.1634 94.1002C84.0533 93.9937 83.9982 93.832 83.9982 93.615C83.9982 93.3941 84.0533 93.2324 84.1634 93.1298C84.2774 93.0233 84.419 92.97 84.5881 92.97Z"
          fill="var(--current-color-1)"/>
    <path d="M92.7164 98.6271C92.7164 99.1596 92.6476 99.635 92.5099 100.053C92.3723 100.471 92.1737 100.824 91.9142 101.112C91.6546 101.4 91.34 101.621 90.9704 101.775C90.6047 101.925 90.1898 102 89.7258 102C89.2932 102 88.896 101.925 88.5343 101.775C88.1764 101.621 87.8658 101.4 87.6023 101.112C87.3427 100.824 87.1402 100.471 86.9947 100.053C86.8532 99.635 86.7824 99.1596 86.7824 98.6271C86.7824 97.917 86.9023 97.3134 87.1422 96.8163C87.3821 96.3153 87.7242 95.9346 88.1686 95.6743C88.6168 95.41 89.1497 95.2778 89.7671 95.2778C90.3569 95.2778 90.8721 95.41 91.3125 95.6743C91.7569 95.9386 92.1009 96.3212 92.3448 96.8223C92.5925 97.3193 92.7164 97.9209 92.7164 98.6271ZM87.7969 98.6271C87.7969 99.1478 87.8658 99.5995 88.0034 99.9822C88.141 100.365 88.3534 100.661 88.6404 100.87C88.9275 101.079 89.2972 101.183 89.7494 101.183C90.1977 101.183 90.5653 101.079 90.8524 100.87C91.1434 100.661 91.3577 100.365 91.4954 99.9822C91.633 99.5995 91.7018 99.1478 91.7018 98.6271C91.7018 98.1103 91.633 97.6645 91.4954 97.2897C91.3577 96.911 91.1454 96.6191 90.8583 96.414C90.5712 96.2088 90.1996 96.1062 89.7435 96.1062C89.071 96.1062 88.5775 96.3291 88.2629 96.7749C87.9523 97.2207 87.7969 97.8381 87.7969 98.6271Z"
          fill="var(--current-color-1)"/>
    <path d="M97.4706 95.2778C98.2375 95.2778 98.8175 95.4672 99.2107 95.8459C99.604 96.2207 99.8006 96.8242 99.8006 97.6566V101.882H98.8332V97.7217C98.8332 97.1812 98.7093 96.7769 98.4616 96.5086C98.2178 96.2404 97.8422 96.1062 97.335 96.1062C96.6193 96.1062 96.1159 96.3094 95.8249 96.7157C95.5339 97.1221 95.3884 97.7118 95.3884 98.4851V101.882H94.4093V95.3962H95.1997L95.3471 96.3311H95.4002C95.5379 96.1023 95.7129 95.911 95.9252 95.7571C96.1376 95.5993 96.3755 95.481 96.6389 95.4021C96.9024 95.3192 97.1796 95.2778 97.4706 95.2778Z"
          fill="var(--current-color-1)"/>
    <path d="M106 100.106C106 100.521 105.896 100.87 105.687 101.154C105.483 101.434 105.188 101.645 104.803 101.787C104.421 101.929 103.965 102 103.434 102C102.982 102 102.591 101.964 102.26 101.893C101.93 101.822 101.641 101.722 101.393 101.592V100.686C101.657 100.817 101.971 100.935 102.337 101.041C102.703 101.148 103.076 101.201 103.458 101.201C104.016 101.201 104.421 101.11 104.673 100.929C104.924 100.747 105.05 100.501 105.05 100.189C105.05 100.012 104.999 99.8559 104.897 99.7218C104.799 99.5837 104.632 99.4516 104.396 99.3253C104.16 99.1951 103.833 99.0531 103.416 98.8993C103.004 98.7415 102.646 98.5856 102.343 98.4318C102.044 98.274 101.812 98.0827 101.647 97.8578C101.486 97.6329 101.405 97.341 101.405 96.982C101.405 96.4337 101.625 96.0135 102.066 95.7216C102.51 95.4257 103.092 95.2778 103.812 95.2778C104.201 95.2778 104.565 95.3173 104.903 95.3962C105.245 95.4711 105.564 95.5737 105.858 95.7039L105.528 96.4909C105.261 96.3765 104.976 96.2798 104.673 96.2009C104.37 96.122 104.061 96.0826 103.747 96.0826C103.295 96.0826 102.946 96.1575 102.703 96.3074C102.463 96.4573 102.343 96.6625 102.343 96.9229C102.343 97.124 102.398 97.2897 102.508 97.4199C102.622 97.5501 102.803 97.6724 103.051 97.7868C103.298 97.9012 103.625 98.0353 104.03 98.1892C104.435 98.3391 104.785 98.4949 105.08 98.6567C105.375 98.8145 105.601 99.0078 105.758 99.2366C105.919 99.4614 106 99.7514 106 100.106Z"
          fill="var(--current-color-1)"/>
</svg>
