<svg id="logo" viewBox="0 0 128 128" fill="none" xmlns="http://www.w3.org/2000/svg">
    <path d="M32.6732 54.5946V63.9973H38.5329V62.3853H34.4567V54.5946H32.6732Z" fill="var(--current-color-1)"/>
    <path d="M45.7404 63.9973L45.04 61.7814H41.9926L41.2937 63.9973H39.3712L42.6252 54.5945H44.4089L47.6614 63.9973H45.7404ZM43.5167 56.9055L42.5009 60.1684H44.5326L43.5167 56.9055Z"
          fill="var(--current-color-1)"/>
    <path d="M52.944 54.5946H59.024V56.2075H54.7281V58.3549H58.1879V59.9672H54.7281V63.9976H52.944V54.5946Z"
          fill="var(--current-color-1)"/>
    <path d="M74.4954 63.9973L73.7949 61.7814H70.7486L70.0483 63.9973H68.1268L71.3791 54.5945H73.1633L76.4169 63.9973H74.4954ZM72.2716 56.9055L71.2555 60.1684H73.2878L72.2716 56.9055Z"
          fill="var(--current-color-1)"/>
    <path d="M82.8268 54.5946H84.6111V63.9976H82.7312L79.2048 57.7922V63.9976H77.4201V54.5946H79.2998L82.8268 60.8008V54.5946Z"
          fill="var(--current-color-1)"/>
    <path d="M92.8924 57.738C92.4664 56.6501 91.6843 56.0995 90.5184 56.0995C89.7355 56.0995 89.0765 56.3689 88.5545 56.9177C88.0476 57.4694 87.7867 58.262 87.7867 59.2961C87.7867 60.3309 88.0476 61.1239 88.5545 61.6734C89.0765 62.2251 89.7355 62.4926 90.5184 62.4926C91.6843 62.4926 92.4664 61.9431 92.8924 60.8549L94.4985 61.2574C94.0459 63.0708 92.6046 64.1056 90.5184 64.1056C89.2414 64.1056 88.1719 63.6756 87.2926 62.8294C86.4129 61.9819 85.9738 60.8007 85.9738 59.2961C85.9738 57.7922 86.4129 56.6092 87.2926 55.7642C88.1719 54.9163 89.2414 54.4873 90.5184 54.4873C92.6046 54.4873 94.0459 55.5232 94.4985 57.3345L92.8924 57.738Z"
          fill="var(--current-color-1)"/>
    <path d="M101.341 63.9973L100.641 61.7814H97.5941L96.8948 63.9973H94.9742L98.2267 54.5945H100.01L103.263 63.9973H101.341ZM99.1186 56.9055L98.1025 60.1684H100.133L99.1186 56.9055Z"
          fill="var(--current-color-1)"/>
    <path d="M106.47 63.9972H104.684V54.5945H106.47V63.9972Z" fill="var(--current-color-1)"/>
    <path d="M112.584 57.0935C112.242 56.4367 111.788 56.0996 111.254 56.0996C110.718 56.0996 110.333 56.4622 110.333 56.9596C110.333 57.5501 110.992 57.9934 111.776 58.3549C112.927 58.8538 114.452 59.5515 114.437 61.1778C114.437 63.0034 113.229 64.1056 111.363 64.1056C110.526 64.1056 109.798 63.8502 109.195 63.3538C108.59 62.842 108.206 62.2115 108.054 61.4722L109.495 60.5852C109.867 61.8613 110.497 62.4927 111.404 62.4927C112.242 62.4927 112.653 62.0902 112.653 61.2717C112.653 60.7211 112.036 60.2911 111.225 59.955C110.086 59.484 108.604 58.772 108.631 57.0404C108.631 56.3284 108.878 55.7237 109.372 55.2269C109.879 54.7305 110.497 54.4873 111.254 54.4873C112.558 54.4873 113.477 55.0523 114.025 56.1936L112.584 57.0935Z"
          fill="var(--current-color-1)"/>
    <path d="M115.92 54.5946V63.9973H122V62.3853H117.704V59.7936H121.039V58.1824H117.704V56.2075H121.863V54.5946H115.92Z"
          fill="var(--current-color-1)"/>
    <path d="M64.8751 59.8485C64.9704 59.8327 65.0585 59.8144 65.1318 59.7914C66.2855 59.4546 66.9298 58.5156 66.9298 57.2671C66.9298 57.2606 66.9295 57.2559 66.9295 57.2499C66.9223 55.6477 65.8666 54.5935 64.0065 54.5935H60.5064V63.9947H62.291V59.9399H62.9314L65.512 63.9947H67.5018L64.8751 59.8485ZM64.0209 58.3259H62.292L62.291 56.205H62.292V56.2036H64.0209C64.7762 56.2036 65.1469 56.5533 65.1469 57.2653C65.1469 57.9773 64.7762 58.3259 64.0209 58.3259Z"
          fill="var(--current-color-1)"/>
    <path d="M89.2117 64.7483H91.718V66.1991H89.2117V64.7483Z" fill="var(--current-color-1)"/>
    <path d="M17.2409 63.7065L17.5416 64.0004L17.2409 64.2945L16.9409 64.0004L17.2409 63.7065ZM16.2953 63.994L16.2888 64L17.2344 64.9257L17.2409 64.9319L18.1933 64.0004L17.2476 63.0747L17.2409 63.0681L16.2953 63.994Z"
          fill="var(--current-color-1)"/>
    <path d="M23.9503 61.803C24.5503 61.8037 25.1137 62.032 25.538 62.4467C25.9618 62.8618 26.1946 63.4137 26.1946 64.0004C26.1958 64.587 25.9624 65.1386 25.538 65.5539C25.1148 65.9682 24.5509 66.1963 23.9503 66.1963C23.3497 66.1963 22.7864 65.9682 22.3631 65.5539L20.776 64.0004L22.3637 62.4467C22.7878 62.032 23.3509 61.8037 23.9503 61.803ZM23.9503 66.647C24.6738 66.647 25.3541 66.3717 25.8635 65.8728C26.3739 65.3729 26.6565 64.7077 26.6565 64.0004C26.6565 63.2922 26.3739 62.6281 25.8635 62.1284C25.353 61.6278 24.6732 61.3527 23.9503 61.3527C23.2276 61.3527 22.5478 61.6278 22.0365 62.128L20.1296 63.994L20.1234 64.0004L22.0374 65.8728C22.5478 66.3717 23.2268 66.647 23.9503 66.647Z"
          fill="var(--current-color-1)"/>
    <path d="M23.9503 60.9099C24.7936 60.9106 25.5867 61.2317 26.1837 61.8152C26.7803 62.3991 27.1089 63.1755 27.1089 64.0004C27.1084 64.8259 26.7797 65.6019 26.1837 66.1855C25.5886 66.7682 24.7951 67.089 23.9503 67.089C23.1058 67.089 22.3127 66.7682 21.7174 66.1855L19.8105 64.3194L19.8045 64.3131L19.485 64.6255L19.4782 64.6321L21.3916 66.5044C22.0734 67.1718 22.9828 67.5393 23.9503 67.5393C24.9186 67.5393 25.8272 67.1718 26.5097 66.5037C27.1932 65.8355 27.569 64.9456 27.569 63.9999C27.569 63.0547 27.1924 62.1654 26.5092 61.4965C25.8257 60.8279 24.9172 60.4595 23.9503 60.4595C22.9834 60.4595 22.0749 60.8279 21.3914 61.4965L17.5667 65.2383L17.561 65.245L17.881 65.5578L17.8873 65.5641L21.718 61.8152C22.3139 61.2317 23.1072 60.9099 23.9503 60.9099Z"
          fill="var(--current-color-1)"/>
    <path d="M15.9693 64.3131L15.6496 64.6251L15.6428 64.6318L19.4742 68.381C20.071 68.9652 20.399 69.7409 20.399 70.5664C20.3982 71.3919 20.0705 72.168 19.4745 72.7511C18.8776 73.3347 18.0843 73.6561 17.2399 73.6561C16.3974 73.6561 15.6045 73.3347 15.0084 72.7511C14.4127 72.168 14.0849 71.3923 14.0849 70.5661C14.0849 69.7398 14.4127 68.9635 15.0084 68.381L16.9155 66.5146L16.9221 66.5091L16.602 66.1959L16.5958 66.1893L14.6826 68.0612C13.2721 69.4429 13.2721 71.6896 14.6826 73.0698C15.3659 73.7388 16.2738 74.1069 17.2394 74.1069H17.2409C18.2076 74.1069 19.1164 73.7388 19.8002 73.0698C20.4834 72.4012 20.8597 71.512 20.8597 70.5664C20.8597 69.6204 20.4834 68.7309 19.8002 68.0612L15.9753 64.3194L15.9693 64.3131Z"
          fill="var(--current-color-1)"/>
    <path d="M17.2409 67.4599L18.8285 69.0128C19.2525 69.4279 19.4865 69.9791 19.4856 70.5664C19.4865 71.1527 19.2525 71.7044 18.8285 72.1187C18.4046 72.5343 17.8416 72.7624 17.2398 72.7624C16.6408 72.7624 16.0774 72.5343 15.6533 72.1193C15.2306 71.7054 14.9976 71.1534 14.9976 70.5664C14.9976 69.9783 15.2306 69.4268 15.6543 69.0128L17.2409 67.4599ZM15.3276 72.4377C15.839 72.9386 16.5182 73.2138 17.2409 73.2142C17.9643 73.2138 18.644 72.9386 19.1545 72.4377C19.6652 71.9386 19.9469 71.2739 19.9469 70.5661C19.9475 69.8586 19.6658 69.1935 19.1545 68.693L17.2476 66.8269L17.2409 66.8211L15.3276 68.693C14.2729 69.7254 14.2729 71.4055 15.3276 72.4377Z"
          fill="var(--current-color-1)"/>
    <path d="M18.5125 63.6871L18.8328 63.3747L18.8393 63.3689L15.008 59.6193C14.412 59.0358 14.0833 58.26 14.0833 57.4346C14.0833 56.6099 14.4113 55.8337 15.0084 55.2495C15.6052 54.6657 16.398 54.3441 17.2409 54.3441C18.0838 54.3441 18.8771 54.6657 19.4736 55.2495C20.7044 56.4542 20.7044 58.4152 19.4736 59.6196L17.5668 61.486L17.5602 61.4924L17.8796 61.8048L17.8865 61.811L19.7997 59.939C21.2106 58.5577 21.2106 56.3111 19.7997 54.9307C19.1164 54.2615 18.2082 53.8934 17.2409 53.893C16.2748 53.893 15.3659 54.2615 14.6824 54.9307C13.9984 55.6 13.6218 56.4893 13.6218 57.4346C13.6218 58.3802 13.9988 59.2691 14.6826 59.939L18.5125 63.6871Z"
          fill="var(--current-color-1)"/>
    <path d="M16.9216 62.7556L16.6013 62.4429L16.5951 62.4365L12.7642 66.1855C12.1681 66.7689 11.3754 67.0908 10.5313 67.0908C9.68779 67.0908 8.89508 66.7689 8.29829 66.1855C7.70229 65.6016 7.37372 64.8255 7.37372 64C7.37372 63.1752 7.70189 62.3992 8.29881 61.8152C8.89411 61.2325 9.68714 60.9113 10.5313 60.9113C11.3759 60.9113 12.1691 61.2325 12.7642 61.816L14.6711 63.6813L14.6777 63.6876L14.9975 63.3748L15.0044 63.3689L13.0912 61.4965C12.4081 60.8287 11.4992 60.461 10.5317 60.461C9.56412 60.461 8.65484 60.8287 7.97312 61.4965C7.28976 62.1648 6.91355 63.054 6.9129 64C6.9129 64.9456 7.28904 65.8348 7.97312 66.5038C8.65686 67.1727 9.56555 67.5419 10.5313 67.5419C11.4974 67.5419 12.4066 67.1734 13.0906 66.5038L16.9148 62.7619L16.9216 62.7556Z"
          fill="var(--current-color-1)"/>
    <path d="M10.5297 66.197C9.93105 66.197 9.36823 65.9687 8.94484 65.5539C8.51975 65.1386 8.28654 64.5871 8.28712 64.0004C8.28654 63.4137 8.51975 62.8625 8.94412 62.4467C9.36752 62.0331 9.93176 61.8048 10.5317 61.8048C11.1324 61.8048 11.6956 62.0331 12.1195 62.4467L13.7063 64.0004L12.1195 65.5539C11.6949 65.9687 11.1317 66.197 10.5338 66.197L10.5313 66.2057V66.197H10.5297ZM10.5317 61.3536C9.80823 61.3536 9.12877 61.6285 8.61855 62.1284C8.10742 62.6281 7.82624 63.2929 7.82526 64.0004C7.82624 64.7074 8.10742 65.3722 8.61855 65.8727C9.12949 66.3725 9.80823 66.6481 10.5313 66.6481H10.5325C11.2547 66.6481 11.9343 66.3725 12.4455 65.8727L14.3524 64.0059L14.3588 63.9999L12.4447 62.128C11.9348 61.6285 11.2554 61.3536 10.5317 61.3536Z"
          fill="var(--current-color-1)"/>
    <path d="M17.2409 60.5418L15.6527 58.9874C15.2291 58.5728 14.9963 58.0212 14.9963 57.4346C14.9963 56.8479 15.2291 56.2967 15.6527 55.8817C16.0774 55.4666 16.6408 55.2383 17.2387 55.2383H17.2435C17.8416 55.2383 18.4041 55.4666 18.8285 55.8813C19.7033 56.7376 19.7033 58.1315 18.8285 58.9882L17.2409 60.5418ZM19.1534 55.5622C18.6426 55.0621 17.9634 54.7869 17.2409 54.7869C16.5179 54.7869 15.8388 55.0621 15.3276 55.5629C14.8164 56.0624 14.5352 56.7271 14.5356 57.4346C14.5356 58.142 14.8169 58.8078 15.3276 59.3072L17.2344 61.1733L17.2409 61.1796L19.1539 59.3069C20.2086 58.2748 20.2086 56.5944 19.1534 55.5622Z"
          fill="var(--current-color-1)"/>
    <path d="M20.1194 67.7492C20.8889 68.5012 21.3116 69.5015 21.3116 70.5664C21.3116 71.6304 20.8889 72.6307 20.1194 73.3826C19.3503 74.1356 18.3286 74.5492 17.2409 74.5492C16.1544 74.5492 15.1318 74.1349 14.3627 73.3826C12.7758 71.8291 12.7751 69.3021 14.3621 67.7492L16.2697 65.8824L16.276 65.8768L15.3297 64.9506L15.3236 64.9441L13.4104 66.8169C12.6419 67.5693 11.6194 67.9838 10.5313 67.9838C9.44444 67.9838 8.42211 67.5693 7.65323 66.8169C6.88441 66.0642 6.46069 65.064 6.46069 64.0004C6.46069 62.9371 6.88409 61.9364 7.65323 61.1831C8.42055 60.4325 9.44301 60.0182 10.5317 60.0182C11.6201 60.0182 12.6427 60.4319 13.4104 61.1831L15.3172 63.0491L15.3236 63.0555L16.2697 62.1298L16.276 62.1238L14.3627 60.2518C13.5937 59.4992 13.1697 58.499 13.1697 57.4346C13.1697 56.371 13.5937 55.3704 14.3627 54.6173C15.1318 53.8654 16.1538 53.4514 17.2427 53.4514C18.3286 53.4514 19.3503 53.8654 20.1194 54.6173C21.7068 56.1713 21.7068 58.6979 20.1202 60.2518L18.2125 62.1178L18.2062 62.1238L19.1519 63.0498L19.1585 63.0555L21.0719 61.1835C21.8406 60.4311 22.863 60.0175 23.9511 60.0175C25.0378 60.0175 26.0602 60.4311 26.8289 61.1835C27.5976 61.9361 28.0214 62.9364 28.0214 64.0004C28.0214 65.0647 27.5976 66.0646 26.8289 66.8169C26.0616 67.5681 25.0389 67.9821 23.9503 67.9821C22.8622 67.9821 21.8395 67.5681 21.0719 66.8169L19.165 64.9508L19.1585 64.945L18.213 65.8706L18.2062 65.8768L20.1194 67.7492ZM27.1546 60.8644C26.299 60.0274 25.1605 59.5664 23.9503 59.5657C22.7395 59.5664 21.6015 60.0274 20.7459 60.8647L19.1585 62.418L18.8582 62.1238L20.446 60.5705C22.2124 58.8414 22.2124 56.0281 20.446 54.299C19.5903 53.4616 18.4521 53.0003 17.2409 53C16.0298 53.0003 14.892 53.4616 14.0368 54.299C13.1809 55.1364 12.7096 56.2504 12.7096 57.4346C12.7096 58.6191 13.1809 59.7328 14.0368 60.5705L15.6236 62.1238L15.3236 62.418L13.7354 60.8644C12.8813 60.0284 11.7435 59.5679 10.5317 59.5679C9.32032 59.5679 8.18233 60.0284 7.32753 60.8644C6.47176 61.7021 6 62.8158 6 63.9999C6 65.1855 6.47176 66.2985 7.32753 67.1359C8.18317 67.9737 9.32149 68.4349 10.533 68.4349C11.7428 68.4349 12.8804 67.9737 13.7361 67.1359L15.3234 65.5825L15.6242 65.8768L14.0368 67.43C12.2702 69.1588 12.2702 71.9722 14.0368 73.702C14.8931 74.539 16.0305 75 17.2409 75H17.2427C18.453 75 19.5903 74.539 20.446 73.7016C21.3013 72.864 21.7726 71.7498 21.7726 70.5661C21.7726 69.3814 21.3013 68.2675 20.446 67.43L18.8587 65.8768L19.1585 65.583L20.7459 67.1359C21.6004 67.9723 22.7389 68.4325 23.9503 68.4325C25.162 68.4325 26.3007 67.9727 27.1546 67.1367C28.0105 66.2983 28.4824 65.1841 28.4824 63.9999C28.4824 62.8158 28.0105 61.7021 27.1546 60.8644Z"
          fill="var(--current-color-1)"/>
    <path d="M39.7278 69.79H40.3376V73.5872H39.7278V69.79Z" fill="var(--current-color-1)"/>
    <path d="M45.0992 69.79V73.5872H44.445L42.8542 70.8641V73.5872H42.2444V69.79H42.8984L44.4894 72.524V69.79H45.0992Z"
          fill="var(--current-color-1)"/>
    <path d="M48.081 73.5872L46.7562 69.79H47.4102L48.3858 72.7519L49.3614 69.79H50.0156L48.6908 73.5872H48.081Z"
          fill="var(--current-color-1)"/>
    <path d="M53.8623 69.79V70.3542H52.1716V71.2872H53.5353V71.8514H52.1716V73.0231H53.9177V73.5872H51.5617V69.79H53.8623Z"
          fill="var(--current-color-1)"/>
    <path d="M57.321 70.7067C57.1657 70.4192 56.9717 70.289 56.7445 70.289C56.495 70.289 56.3398 70.4788 56.3398 70.7013C56.3398 71.4499 58.0028 71.3034 58.0028 72.4752C58.0028 73.1695 57.4873 73.6305 56.7888 73.6305C56.107 73.6305 55.6469 73.1804 55.5083 72.5728L56.0072 72.2636C56.1181 72.6867 56.3453 73.0665 56.7888 73.0665C57.138 73.0665 57.3819 72.8332 57.3819 72.4969C57.3819 71.7537 55.73 71.9164 55.73 70.7447C55.73 70.1697 56.1791 69.7466 56.7445 69.7466C57.2766 69.7466 57.6092 70.0287 57.8143 70.3867L57.321 70.7067Z"
          fill="var(--current-color-1)"/>
    <path d="M59.4048 69.79H62.1876V70.3542H61.1011V73.5872H60.4913V70.3542H59.4048V69.79Z"
          fill="var(--current-color-1)"/>
    <path d="M63.8225 69.79H64.4323V73.5872H63.8225V69.79Z" fill="var(--current-color-1)"/>
    <path d="M69.1939 69.79V73.5872H68.5397L66.9489 70.8641V73.5872H66.3391V69.79H66.9931L68.5841 72.524V69.79H69.1939Z"
          fill="var(--current-color-1)"/>
    <path d="M73.7445 73.1152C73.6059 73.3485 73.2733 73.6306 72.7244 73.6306C71.8154 73.6306 70.9617 73.0231 70.9617 71.6886C70.9617 70.3542 71.8265 69.7465 72.7578 69.7465C73.5893 69.7465 74.1491 70.2347 74.3044 70.9183L73.7445 71.0865C73.556 70.5603 73.2178 70.3108 72.7578 70.3108C72.0926 70.3108 71.5825 70.7665 71.5825 71.6886C71.5825 72.638 72.0926 73.0664 72.7578 73.0664C73.3675 73.0664 73.6614 72.6596 73.7112 72.1985H72.9573V71.6724H74.3209V73.5872H73.7888L73.7445 73.1152Z"
          fill="var(--current-color-1)"/>
    <path d="M78.378 69.79H81.1607V70.3542H80.0743V73.5872H79.4644V70.3542H78.378V69.79Z"
          fill="var(--current-color-1)"/>
    <path d="M83.1614 71.6886C83.1614 72.627 83.6936 73.0665 84.3201 73.0665C84.9465 73.0665 85.4787 72.627 85.4787 71.6886C85.4787 70.7501 84.9465 70.3108 84.3201 70.3108C83.6936 70.3108 83.1614 70.7501 83.1614 71.6886ZM86.0995 71.6886C86.0995 72.9851 85.268 73.6306 84.3201 73.6306C83.3721 73.6306 82.5406 72.9851 82.5406 71.6886C82.5406 70.3922 83.3721 69.7466 84.3201 69.7466C85.268 69.7466 86.0995 70.3922 86.0995 71.6886Z"
          fill="var(--current-color-1)"/>
    <path d="M90.5836 73.1152C90.4452 73.3485 90.1125 73.6306 89.5637 73.6306C88.6546 73.6306 87.8009 73.0231 87.8009 71.6886C87.8009 70.3542 88.6656 69.7465 89.597 69.7465C90.4284 69.7465 90.9884 70.2347 91.1435 70.9183L90.5836 71.0865C90.3952 70.5603 90.0571 70.3108 89.597 70.3108C88.9317 70.3108 88.4217 70.7665 88.4217 71.6886C88.4217 72.638 88.9317 73.0664 89.597 73.0664C90.2067 73.0664 90.5005 72.6596 90.5503 72.1985H89.7965V71.6724H91.1602V73.5872H90.6281L90.5836 73.1152Z"
          fill="var(--current-color-1)"/>
    <path d="M95.3062 69.79V70.3542H93.6154V71.2872H94.9791V71.8514H93.6154V73.0231H95.3616V73.5872H93.0057V69.79H95.3062Z"
          fill="var(--current-color-1)"/>
    <path d="M96.9743 69.79H99.757V70.3542H98.6706V73.5872H98.0607V70.3542H96.9743V69.79Z"
          fill="var(--current-color-1)"/>
    <path d="M101.392 69.79H102.002V71.2763H103.576V69.79H104.186V73.5872H103.576V71.8405H102.002V73.5872H101.392V69.79Z"
          fill="var(--current-color-1)"/>
    <path d="M108.393 69.79V70.3542H106.702V71.2872H108.065V71.8514H106.702V73.0231H108.448V73.5872H106.092V69.79H108.393Z"
          fill="var(--current-color-1)"/>
    <path d="M112.112 70.837C112.112 70.5006 111.896 70.3542 111.602 70.3542H110.837V71.3197H111.602C111.896 71.3197 112.112 71.1732 112.112 70.837ZM111.979 71.8406L113.099 73.5872H112.378L111.286 71.8839H110.837V73.5872H110.227V69.7901H111.585C112.317 69.7901 112.733 70.1914 112.733 70.837C112.733 71.3578 112.461 71.7157 111.979 71.8406Z"
          fill="var(--current-color-1)"/>
</svg>
