<svg id="logo" viewBox="0 0 262 70" fill="none" xmlns="http://www.w3.org/2000/svg">
    <path d="M45.5782 32.1441L48.4708 35.2246L45.5782 38.4175L42.6368 35.2246L45.5782 32.1441Z"
          fill="var(--current-color-1)"/>
    <path d="M60.6522 31.7269H70.7069C70.9106 31.7269 71.0736 31.5664 71.0736 31.3659V29.5689C71.0736 29.3683 70.9106 29.2079 70.7069 29.2079H63.1211V16.8936C63.1211 16.6931 62.9581 16.5326 62.7544 16.5326H60.6603C60.4566 16.5326 60.2937 16.6931 60.2937 16.8936V31.3579C60.2855 31.5584 60.4485 31.7269 60.6522 31.7269Z"
          fill="var(--current-color-1)"/>
    <path d="M86.2616 31.5023C86.3186 31.6306 86.4572 31.7189 86.6038 31.7189H88.812C88.9342 31.7189 89.0564 31.6547 89.1216 31.5504C89.1868 31.4461 89.2031 31.3178 89.146 31.2054L82.4727 16.7412C82.4157 16.6128 82.2853 16.5326 82.1387 16.5326H80.0609C79.9143 16.5326 79.7839 16.6128 79.7268 16.7492L73.0699 31.2135C73.021 31.3258 73.0291 31.4541 73.0943 31.5584C73.1595 31.6627 73.2817 31.7269 73.4039 31.7269H75.5632C75.7098 31.7269 75.8402 31.6386 75.9054 31.5103L77.4209 28.1088H84.7461L86.2616 31.5023ZM78.472 25.7262L81.0794 19.902L83.6868 25.7262H78.472Z"
          fill="var(--current-color-1)"/>
    <path d="M102.46 31.3579V25.8706H109.459C109.663 25.8706 109.826 25.7101 109.826 25.5096V23.7286C109.826 23.5281 109.663 23.3676 109.459 23.3676H102.46V19.0516H110.364C110.567 19.0516 110.73 18.8912 110.73 18.6906V16.8936C110.73 16.6931 110.567 16.5326 110.364 16.5326H99.9993C99.7956 16.5326 99.6326 16.6931 99.6326 16.8936V31.3579C99.6326 31.5584 99.7956 31.7189 99.9993 31.7189H102.101C102.289 31.7269 102.46 31.5584 102.46 31.3579Z"
          fill="var(--current-color-1)"/>
    <path d="M117.599 16.5326H115.505C115.301 16.5326 115.138 16.6931 115.138 16.8936V31.3579C115.138 31.5584 115.301 31.7189 115.505 31.7189H117.599C117.803 31.7189 117.966 31.5584 117.966 31.3579V16.8936C117.966 16.6931 117.803 16.5326 117.599 16.5326Z"
          fill="var(--current-color-1)"/>
    <path d="M136.829 31.3579V16.8936C136.829 16.6931 136.666 16.5326 136.462 16.5326H134.36C134.156 16.5326 133.993 16.6931 133.993 16.8936V26.6488L125.837 16.669C125.763 16.5807 125.658 16.5326 125.552 16.5326H123.832C123.629 16.5326 123.466 16.6931 123.466 16.8936V31.3579C123.466 31.5584 123.629 31.7189 123.832 31.7189H125.935C126.138 31.7189 126.301 31.5584 126.301 31.3579V21.6027L134.457 31.5825C134.531 31.6707 134.637 31.7189 134.743 31.7189H136.462C136.657 31.7269 136.829 31.5584 136.829 31.3579Z"
          fill="var(--current-color-1)"/>
    <path d="M154.453 31.7269H156.653C156.775 31.7269 156.897 31.6627 156.962 31.5584C157.028 31.4541 157.044 31.3258 156.987 31.2135L150.314 16.7492C150.257 16.6209 150.126 16.5406 149.98 16.5406H147.902C147.755 16.5406 147.625 16.6209 147.568 16.7572L140.911 31.2215C140.862 31.3338 140.87 31.4622 140.935 31.5664C141 31.6707 141.123 31.7349 141.245 31.7349H143.404C143.551 31.7349 143.681 31.6467 143.746 31.5183L145.262 28.1168H152.587L154.103 31.5183C154.168 31.6386 154.306 31.7269 154.453 31.7269ZM151.528 25.7262H146.321L148.928 19.902L151.528 25.7262Z"
          fill="var(--current-color-1)"/>
    <path d="M173.878 31.3579V16.8936C173.878 16.6931 173.715 16.5326 173.511 16.5326H171.409C171.205 16.5326 171.042 16.6931 171.042 16.8936V26.6488L162.886 16.669C162.813 16.5807 162.707 16.5326 162.601 16.5326H160.882C160.678 16.5326 160.515 16.6931 160.515 16.8936V31.3579C160.515 31.5584 160.678 31.7189 160.882 31.7189H162.984C163.188 31.7189 163.351 31.5584 163.351 31.3579V21.6027L171.507 31.5825C171.58 31.6707 171.686 31.7189 171.792 31.7189H173.511C173.707 31.7269 173.878 31.5584 173.878 31.3579Z"
          fill="var(--current-color-1)"/>
    <path d="M185.367 31.8873C187.762 31.8873 189.856 31.037 191.25 29.4887C191.38 29.3443 191.372 29.1196 191.233 28.9833L189.864 27.6836C189.791 27.6195 189.702 27.5874 189.604 27.5794C189.506 27.5794 189.408 27.6195 189.343 27.6917C188.292 28.7827 187.029 29.3122 185.481 29.3122C182.352 29.3122 180.079 27.1301 180.079 24.1217C180.079 21.1134 182.352 18.9233 185.481 18.9233C187.045 18.9233 188.308 19.4447 189.343 20.5277C189.408 20.5999 189.506 20.64 189.604 20.64C189.702 20.6481 189.799 20.608 189.864 20.5358L191.233 19.2361C191.372 19.0998 191.38 18.8832 191.25 18.7307C189.864 17.1985 187.787 16.3561 185.391 16.3561C180.665 16.3561 177.235 19.6212 177.235 24.1217C177.235 28.5501 180.73 31.8873 185.367 31.8873Z"
          fill="var(--current-color-1)"/>
    <path d="M198.412 16.5326H196.31C196.106 16.5326 195.943 16.6931 195.943 16.8936V31.3579C195.943 31.5584 196.106 31.7189 196.31 31.7189H198.412C198.615 31.7189 198.778 31.5584 198.778 31.3579V16.8936C198.787 16.6931 198.615 16.5326 198.412 16.5326Z"
          fill="var(--current-color-1)"/>
    <path d="M215.596 29.1999H207.399V25.2529H214.398C214.602 25.2529 214.765 25.0924 214.765 24.8919V23.135C214.765 22.9344 214.602 22.774 214.398 22.774H207.399V19.0596H215.303C215.506 19.0596 215.669 18.8992 215.669 18.6986V16.9016C215.669 16.7011 215.506 16.5406 215.303 16.5406H204.938C204.735 16.5406 204.572 16.7011 204.572 16.9016V31.3659C204.572 31.5664 204.735 31.7269 204.938 31.7269H215.596C215.8 31.7269 215.963 31.5664 215.963 31.3659V29.5689C215.963 29.3603 215.8 29.1999 215.596 29.1999Z"
          fill="var(--current-color-1)"/>
    <path d="M230.752 31.7269H233.041C233.18 31.7269 233.302 31.6547 233.367 31.5263C233.432 31.406 233.424 31.2616 233.343 31.1493L230.132 26.6728C232.088 25.8144 233.163 24.1538 233.163 21.9397C233.163 18.6024 230.67 16.5326 226.661 16.5326H220.933C220.729 16.5326 220.566 16.6931 220.566 16.8936V31.3579C220.566 31.5584 220.729 31.7189 220.933 31.7189H223.035C223.239 31.7189 223.402 31.5584 223.402 31.3579V27.3226H226.661C226.914 27.3226 227.158 27.3066 227.403 27.2905L230.45 31.5664C230.515 31.6627 230.629 31.7269 230.752 31.7269ZM230.32 21.9397C230.32 24.3383 228.299 24.8437 226.596 24.8437H223.394V19.0596H226.596C228.291 19.0596 230.32 19.557 230.32 21.9397Z"
          fill="var(--current-color-1)"/>
    <path d="M238.973 31.7269H249.631C249.834 31.7269 249.997 31.5664 249.997 31.3659V29.5689C249.997 29.3683 249.834 29.2079 249.631 29.2079H241.434V25.2609H248.433C248.637 25.2609 248.8 25.1005 248.8 24.8999V23.143C248.8 22.9424 248.637 22.782 248.433 22.782H241.434V19.0677H249.337C249.541 19.0677 249.704 18.9072 249.704 18.7067V16.9097C249.704 16.7091 249.541 16.5487 249.337 16.5487H238.973C238.769 16.5487 238.606 16.7091 238.606 16.9097V31.3739C238.606 31.5584 238.769 31.7269 238.973 31.7269Z"
          fill="var(--current-color-1)"/>
    <path d="M66.8447 39.7893H60.6522C60.4485 39.7893 60.2855 39.9498 60.2855 40.1503V54.6146C60.2855 54.8151 60.4485 54.9756 60.6522 54.9756H66.8447C71.7336 54.9756 75.1476 51.8549 75.1476 47.3784C75.1476 42.902 71.7336 39.7893 66.8447 39.7893ZM72.3121 47.3865C72.3121 50.467 70.1203 52.4566 66.7225 52.4566H63.1292V42.3083H66.7225C70.1121 42.3083 72.3121 44.3059 72.3121 47.3865Z"
          fill="var(--current-color-1)"/>
    <path d="M90.0994 52.4566H81.9024V48.5096H88.9016C89.1053 48.5096 89.2682 48.3491 89.2682 48.1486V46.3917C89.2682 46.1911 89.1053 46.0307 88.9016 46.0307H81.9024V42.3164H89.806C90.0097 42.3164 90.1727 42.1559 90.1727 41.9554V40.1584C90.1727 39.9578 90.0097 39.7973 89.806 39.7973H79.4335C79.2298 39.7973 79.0669 39.9578 79.0669 40.1584V54.6226C79.0669 54.8232 79.2298 54.9836 79.4335 54.9836H90.0994C90.3031 54.9836 90.466 54.8232 90.466 54.6226V52.8256C90.466 52.617 90.3031 52.4566 90.0994 52.4566Z"
          fill="var(--current-color-1)"/>
    <path d="M112.555 52.4566H104.97V40.1503C104.97 39.9498 104.807 39.7893 104.603 39.7893H102.509C102.305 39.7893 102.142 39.9498 102.142 40.1503V54.6146C102.142 54.8151 102.305 54.9756 102.509 54.9756H112.564C112.767 54.9756 112.93 54.8151 112.93 54.6146V52.8176C112.922 52.617 112.759 52.4566 112.555 52.4566Z"
          fill="var(--current-color-1)"/>
    <path d="M113.827 38.7946C112.816 38.7946 112.05 39.5567 112.05 40.5595C112.05 41.1932 112.36 41.7388 112.873 42.0436L112.172 44.8354C112.148 44.9477 112.173 45.06 112.238 45.1482C112.311 45.2365 112.417 45.2846 112.531 45.2846H113.851C114.006 45.2846 114.152 45.1883 114.201 45.0359L115.212 42.1479C115.489 41.3777 115.57 41.0167 115.57 40.5595C115.562 39.5567 114.821 38.7946 113.827 38.7946Z"
          fill="var(--current-color-1)"/>
    <path d="M130.726 52.4566H122.529V48.5096H129.528C129.732 48.5096 129.895 48.3491 129.895 48.1486V46.3917C129.895 46.1911 129.732 46.0307 129.528 46.0307H122.529V42.3164H130.432C130.636 42.3164 130.799 42.1559 130.799 41.9554V40.1584C130.799 39.9578 130.636 39.7973 130.432 39.7973H120.068C119.864 39.7973 119.701 39.9578 119.701 40.1584V54.6226C119.701 54.8232 119.864 54.9836 120.068 54.9836H130.726C130.929 54.9836 131.092 54.8232 131.092 54.6226V52.8256C131.092 52.617 130.929 52.4566 130.726 52.4566Z"
          fill="var(--current-color-1)"/>
    <path d="M141.75 42.188C143.314 42.188 144.577 42.7094 145.62 43.7925C145.686 43.8647 145.783 43.9048 145.881 43.9048C145.979 43.9048 146.077 43.8727 146.142 43.8005L147.503 42.5009C147.641 42.3645 147.657 42.1399 147.519 41.9955C146.134 40.4632 144.056 39.6209 141.66 39.6209C136.935 39.6209 133.504 42.8859 133.504 47.3865C133.504 51.8068 137 55.1441 141.636 55.1441C144.031 55.1441 146.117 54.2937 147.519 52.7454C147.649 52.601 147.641 52.3764 147.503 52.24L146.142 50.9404C146.069 50.8762 145.971 50.8361 145.881 50.8361C145.783 50.8361 145.686 50.8762 145.62 50.9484C144.569 52.0394 143.306 52.5689 141.75 52.5689C138.621 52.5689 136.348 50.3868 136.348 47.3784C136.348 44.3701 138.613 42.188 141.75 42.188Z"
          fill="var(--current-color-1)"/>
    <path d="M164.117 39.7893H162.022C161.819 39.7893 161.656 39.9498 161.656 40.1503V46.0066H153.956V40.1503C153.956 39.9498 153.793 39.7893 153.589 39.7893H151.487C151.283 39.7893 151.12 39.9498 151.12 40.1503V54.6146C151.12 54.8151 151.283 54.9756 151.487 54.9756H153.589C153.793 54.9756 153.956 54.8151 153.956 54.6146V48.5337H161.656V54.6146C161.656 54.8151 161.819 54.9756 162.022 54.9756H164.117C164.32 54.9756 164.483 54.8151 164.483 54.6146V40.1503C164.483 39.9498 164.32 39.7893 164.117 39.7893Z"
          fill="var(--current-color-1)"/>
    <path d="M171.922 39.7893H169.828C169.625 39.7893 169.462 39.9498 169.462 40.1503V54.6146C169.462 54.8151 169.625 54.9756 169.828 54.9756H171.922C172.126 54.9756 172.289 54.8151 172.289 54.6146V40.1503C172.289 39.9498 172.126 39.7893 171.922 39.7893Z"
          fill="var(--current-color-1)"/>
    <path d="M192.195 54.5263C192.13 54.4461 192.024 54.398 191.918 54.398C191.836 54.398 191.706 54.4381 191.633 54.5183C190.94 55.2724 190.15 55.6414 189.221 55.6414C188.496 55.6414 187.827 55.3607 187.127 54.7429C190.443 53.7161 192.553 50.8922 192.553 47.3865C192.553 42.9581 189.05 39.6289 184.397 39.6289C179.72 39.6289 176.2 42.9662 176.2 47.3865C176.2 51.5821 179.337 54.8151 183.688 55.12C185.782 57.2138 187.281 58 189.204 58C190.777 58 192.154 57.3662 193.181 56.1789C193.295 56.0426 193.295 55.85 193.181 55.7136L192.195 54.5263ZM189.71 47.3865C189.71 50.3467 187.42 52.5849 184.389 52.5849C181.285 52.5849 179.027 50.4029 179.027 47.3865C179.027 44.3781 181.285 42.188 184.389 42.188C187.428 42.188 189.71 44.4182 189.71 47.3865Z"
          fill="var(--current-color-1)"/>
    <path d="M209.004 39.7893H206.967C206.764 39.7893 206.601 39.9498 206.601 40.1503V48.293C206.601 51.173 205.362 52.5769 202.812 52.5769C200.278 52.5769 199.047 51.173 199.047 48.293V40.1503C199.047 39.9498 198.884 39.7893 198.681 39.7893H196.578C196.375 39.7893 196.212 39.9498 196.212 40.1503V48.3732C196.212 52.6732 198.607 55.1441 202.795 55.1441C206.975 55.1441 209.379 52.6732 209.379 48.3732V40.1503C209.371 39.9498 209.208 39.7893 209.004 39.7893Z"
          fill="var(--current-color-1)"/>
    <path d="M216.712 39.7893H214.61C214.406 39.7893 214.244 39.9498 214.244 40.1503V54.6146C214.244 54.8151 214.406 54.9756 214.61 54.9756H216.712C216.916 54.9756 217.079 54.8151 217.079 54.6146V40.1503C217.087 39.9498 216.916 39.7893 216.712 39.7893Z"
          fill="var(--current-color-1)"/>
    <path d="M233.041 52.4566H224.844V48.5096H231.843C232.047 48.5096 232.21 48.3491 232.21 48.1486V46.3917C232.21 46.1911 232.047 46.0307 231.843 46.0307H224.844V42.3164H232.748C232.951 42.3164 233.114 42.1559 233.114 41.9554V40.1584C233.114 39.9578 232.951 39.7973 232.748 39.7973H222.383C222.18 39.7973 222.017 39.9578 222.017 40.1584V54.6226C222.017 54.8232 222.18 54.9836 222.383 54.9836H233.041C233.245 54.9836 233.408 54.8232 233.408 54.6226V52.8256C233.408 52.617 233.245 52.4566 233.041 52.4566Z"
          fill="var(--current-color-1)"/>
    <path d="M249.932 54.406L246.722 49.9295C248.677 49.0712 249.753 47.4105 249.753 45.1964C249.753 41.8591 247.26 39.7893 243.251 39.7893H237.523C237.319 39.7893 237.156 39.9498 237.156 40.1503V54.6146C237.156 54.8151 237.319 54.9756 237.523 54.9756H239.625C239.828 54.9756 239.991 54.8151 239.991 54.6146V50.5794H243.251C243.503 50.5794 243.748 50.5633 243.992 50.5473L247.04 54.8232C247.113 54.9194 247.219 54.9756 247.341 54.9756H249.631C249.769 54.9756 249.891 54.9034 249.957 54.775C250.022 54.6627 250.014 54.5183 249.932 54.406ZM246.909 45.1964C246.909 47.595 244.888 48.1005 243.185 48.1005H239.983V42.3164H243.185C244.888 42.3083 246.909 42.8137 246.909 45.1964Z"
          fill="var(--current-color-1)"/>
    <path d="M122.219 38.6742H124.109C124.191 38.6742 124.272 38.6502 124.338 38.602L127.866 35.9145C127.988 35.8183 128.037 35.6578 127.988 35.5054C127.939 35.361 127.792 35.2567 127.638 35.2567H125.079C124.981 35.2567 124.892 35.2968 124.826 35.361L121.975 38.0485C121.869 38.1528 121.828 38.3052 121.885 38.4496C121.934 38.586 122.072 38.6742 122.219 38.6742Z"
          fill="var(--current-color-1)"/>
    <path d="M208.132 15.3453C208.198 15.3934 208.279 15.4175 208.361 15.4175H210.251C210.406 15.4175 210.536 15.3293 210.593 15.1929C210.65 15.0565 210.618 14.8961 210.504 14.7918L207.652 12.1043C207.587 12.0401 207.489 12 207.399 12H204.841C204.686 12 204.539 12.0963 204.49 12.2487C204.441 12.3931 204.49 12.5616 204.612 12.6578L208.132 15.3453Z"
          fill="var(--current-color-1)"/>
    <path d="M30.708 54.39V53.4594C30.708 53.4594 30.708 52.7454 29.9339 52.4646C29.388 52.264 29.5102 51.7586 29.9339 51.3575C30.4554 50.8601 29.8198 50.3066 28.9806 50.0178C28.1495 49.721 25.7132 48.6139 25.7132 47.6833C25.7132 46.7447 26.7806 46.3997 26.7806 46.3997C26.7806 46.3997 23.9858 42.541 23.5703 34.0052C23.5703 34.0052 24.3851 33.9731 25.591 33.7164C26.7562 33.4677 27.1636 33.2592 25.8762 32.7698C24.5888 32.2804 24.1243 32.1601 24.1243 32.1601C24.1243 32.1601 24.1243 30.8845 24.2384 29.601C24.3525 28.3254 24.5806 27.4911 25.3629 26.3198C26.1532 25.1566 26.8295 23.6564 25.4199 22.9344C24.0103 22.2124 22.2584 21.9878 22.2584 21.9878L22.9347 21.0973L21.9162 19.9822H23.7821V18.2013H21.9162L22.8207 17.4792V16.5326L21.354 16.1475L19.8873 16.5326V17.4792L20.7918 18.2013H18.9259V19.9822H20.7918L19.7733 21.0973L20.4496 21.9878C20.4496 21.9878 18.6977 22.2124 17.2881 22.9344C15.8785 23.6564 16.5548 25.1566 17.3451 26.3198C18.1355 27.4831 18.3636 28.3174 18.4696 29.601C18.5836 30.8765 18.5836 32.1601 18.5836 32.1601C18.5836 32.1601 18.1192 32.2804 16.8318 32.7698C15.5444 33.2592 15.9518 33.4597 17.117 33.7164C18.3229 33.9731 19.1377 34.0052 19.1377 34.0052C18.7222 42.533 15.9274 46.3997 15.9274 46.3997C15.9274 46.3997 16.9948 46.7527 16.9948 47.6833C16.9948 48.6139 14.5585 49.729 13.7274 50.0178C12.8963 50.3066 12.2607 50.8682 12.7741 51.3575C13.1978 51.7586 13.32 52.264 12.7741 52.4646C12 52.7454 12 53.4594 12 53.4594V54.39H30.708Z"
          fill="var(--current-color-1)"/>
</svg>
