<svg id="logo" viewBox="0 0 184 70" fill="none" xmlns="http://www.w3.org/2000/svg">
    <path d="M35.7401 50.4795H40.4007V51.3444H36.7689V53.6343H40.2257V54.4869H36.7689V56.9251H40.4798V57.8188H35.7401V50.4795ZM37.8601 48.375L38.7222 49.837H38.085L36.698 48.375H37.8601Z"
          fill="var(--current-color-1)"/>
    <path d="M12 50.4795H16.419V51.3444H13.0496V53.6343H16.2232V54.4869H13.0496V57.8188H12V50.4795Z"
          fill="var(--current-color-1)"/>
    <path d="M23.3078 50.4795H25.9567C26.547 50.4412 27.1368 50.5607 27.6643 50.8255C27.9226 50.9816 28.1353 51.2016 28.2814 51.4637C28.4275 51.7259 28.5019 52.0212 28.4973 52.3205C28.5077 52.7313 28.3739 53.1329 28.1188 53.4572C27.8638 53.7815 27.503 54.0086 27.0979 54.0997C27.8059 54.2851 28.1266 54.5981 28.2307 55.5124C28.2889 56.297 28.4442 57.0716 28.693 57.8188H27.581C27.4179 57.1818 27.3051 56.5332 27.2437 55.879C27.1187 54.8122 26.8646 54.5075 25.6193 54.5075H24.324V57.8023H23.3078V50.4795ZM24.3032 53.6426H25.9275C26.2615 53.6559 26.5946 53.6012 26.9063 53.482C27.069 53.382 27.2013 53.2405 27.2893 53.0723C27.3773 52.9041 27.4176 52.7155 27.4061 52.5265C27.4061 51.3362 26.3399 51.3362 25.9275 51.3362H24.3032V53.6426Z"
          fill="var(--current-color-1)"/>
    <path d="M47.8059 50.4795H50.459C51.0493 50.4412 51.6391 50.5607 52.1666 50.8255C52.4246 50.9819 52.6371 51.2019 52.7831 51.464C52.9292 51.7261 53.0038 52.0213 52.9996 52.3205C53.0118 52.7311 52.8792 53.133 52.6247 53.4576C52.3702 53.7822 52.0095 54.0092 51.6043 54.0997C52.3124 54.2851 52.6331 54.5981 52.733 55.5124C52.7932 56.2967 52.9485 57.0711 53.1953 57.8188H52.0958C51.9327 57.1818 51.8199 56.5332 51.7584 55.879C51.6335 54.8122 51.3753 54.5075 50.1341 54.5075H48.8388V57.8023H47.8059V50.4795ZM48.8055 53.6426H50.4298C50.7624 53.656 51.0942 53.6013 51.4044 53.482C51.5685 53.3832 51.7022 53.242 51.791 53.0736C51.8798 52.9052 51.9204 52.716 51.9084 52.5265C51.9084 51.3362 50.8422 51.3362 50.4298 51.3362H48.8055V53.6426Z"
          fill="var(--current-color-1)"/>
    <path d="M60.2424 50.4795H64.8988V51.3444H61.2712V53.6343H64.7239V54.4869H61.2712V56.9251H64.9821V57.8188H60.2424V50.4795Z"
          fill="var(--current-color-1)"/>
    <path d="M73.0704 55.6771C73.0912 56.1837 73.1537 57.131 74.8572 57.131C76.4023 57.131 76.5981 56.1837 76.5981 55.8172C76.5981 54.9935 75.9275 54.8328 74.8905 54.5816C73.7576 54.3057 73.2537 54.1698 72.8746 53.9309C72.6308 53.7774 72.4315 53.5637 72.2964 53.311C72.1613 53.0583 72.0951 52.7751 72.1041 52.4894C72.1041 50.9944 73.5327 50.3436 74.9321 50.3436C75.4236 50.3436 76.4232 50.4219 77.0146 51.0644C77.31 51.4093 77.4697 51.848 77.4644 52.2999H76.3982C76.344 51.3856 75.5652 51.1797 74.8363 51.1797C73.8076 51.1797 73.1912 51.6369 73.1912 52.37C73.1912 53.0207 73.6077 53.2431 74.524 53.4572C76.2941 53.9062 76.4898 53.9474 76.923 54.2315C77.1618 54.3928 77.3548 54.6118 77.4839 54.8678C77.6129 55.1237 77.6736 55.408 77.6602 55.6936C77.6602 56.9951 76.6314 57.9794 74.7447 57.9794C74.1783 57.9794 73.0288 57.8888 72.4415 57.1557C72.1348 56.7233 71.9878 56.1999 72.025 55.673L73.0704 55.6771Z"
          fill="var(--current-color-1)"/>
    <path d="M98.4348 52.3123C98.3224 51.6286 97.7685 51.1632 96.7689 51.1632C96.4625 51.1412 96.155 51.1851 95.8675 51.2917C95.5799 51.3983 95.3191 51.5653 95.1029 51.781C94.557 52.446 94.2756 53.2852 94.3116 54.1409C94.3116 54.7587 94.4448 55.8089 94.9904 56.4473C95.2468 56.701 95.5555 56.8971 95.8955 57.0222C96.2355 57.1473 96.5987 57.1984 96.9605 57.1722C97.5082 57.178 98.0535 57.0988 98.5764 56.9374V54.7587H96.8813V53.935H99.6052V57.5511C98.7551 57.8455 97.8612 57.9973 96.9605 58C95.5944 58 94.7947 57.6129 94.2699 57.0857C93.5653 56.3247 93.1914 55.3203 93.2287 54.2892C93.2287 53.5561 93.4161 51.8181 94.8238 50.8955C95.454 50.5302 96.1764 50.3502 96.9063 50.3766C97.3063 50.3511 97.7072 50.4075 98.0841 50.5421C98.4611 50.6767 98.8059 50.8868 99.0971 51.1591C99.253 51.3124 99.3767 51.4946 99.461 51.6954C99.5454 51.8961 99.5887 52.1114 99.5885 52.3288L98.4348 52.3123Z"
          fill="var(--current-color-1)"/>
    <path d="M106.965 50.4795H111.621V51.3444H107.993V53.6343H111.446V54.4869H107.993V56.9251H111.704V57.8188H106.965V50.4795Z"
          fill="var(--current-color-1)"/>
    <path d="M119.793 55.6771C119.813 56.1837 119.876 57.131 121.579 57.131C123.125 57.131 123.316 56.1837 123.316 55.8172C123.316 54.9935 122.65 54.8328 121.613 54.5816C120.48 54.3057 119.976 54.1698 119.597 53.9309C119.353 53.7774 119.154 53.5637 119.019 53.311C118.884 53.0583 118.817 52.7751 118.826 52.4894C118.826 50.9944 120.255 50.3436 121.654 50.3436C122.146 50.3436 123.141 50.4219 123.737 51.0644C124.03 51.4104 124.19 51.8483 124.187 52.2999H123.12C123.066 51.3856 122.287 51.1797 121.554 51.1797C120.53 51.1797 119.909 51.6369 119.909 52.37C119.909 53.0207 120.326 53.2431 121.246 53.4572C123.016 53.9062 123.212 53.9474 123.641 54.2315C123.886 54.3912 124.084 54.6111 124.217 54.8696C124.35 55.1281 124.413 55.4163 124.399 55.706C124.399 57.0074 123.37 57.9918 121.484 57.9918C120.917 57.9918 119.768 57.9012 119.18 57.1681C118.874 56.7357 118.727 56.2122 118.764 55.6854L119.793 55.6771Z"
          fill="var(--current-color-1)"/>
    <path d="M133.183 57.8188V51.3444H130.696V50.4795H136.69V51.3444H134.199V57.8188H133.183Z"
          fill="var(--current-color-1)"/>
    <path d="M144.374 50.4795H143.345V57.8188H144.374V50.4795Z" fill="var(--current-color-1)"/>
    <path d="M152.546 51.2579C152.867 50.933 153.254 50.6774 153.68 50.5073C154.107 50.3372 154.564 50.2562 155.024 50.2695C157.081 50.2695 158.377 51.571 158.377 54.0627C158.377 56.0149 157.585 57.9753 154.94 57.9753C152.412 57.9753 151.609 56.2002 151.609 54.1862C151.609 53.3625 151.75 52.127 152.562 51.2579M153.345 56.4432C153.552 56.6743 153.81 56.8551 154.099 56.9715C154.388 57.0879 154.7 57.1369 155.011 57.1145C155.319 57.1298 155.626 57.0775 155.91 56.9614C156.194 56.8453 156.449 56.6683 156.656 56.4432C157.26 55.7101 157.323 54.5528 157.323 54.0544C157.323 52.3864 156.769 51.1262 155.074 51.1262C153.191 51.1262 152.708 52.6212 152.708 54.1245C152.66 54.9483 152.892 55.7643 153.366 56.4432"
          fill="var(--current-color-1)"/>
    <path d="M165.64 50.4795H167.069L170.717 56.5503V50.4795H171.663V57.8188H170.347L166.573 51.5874V57.8188H165.64V50.4795Z"
          fill="var(--current-color-1)"/>
    <path d="M87.7726 16.1638C87.8919 16.163 88.0108 16.1768 88.1266 16.205C88.2807 16.2462 88.339 16.3162 88.339 16.4316C88.3451 16.5068 88.3348 16.5824 88.309 16.6535C88.2831 16.7245 88.2422 16.7892 88.1891 16.8434C82.7747 24.611 77.3061 32.4403 71.6252 40.2079L80.3715 40.1502C84.2949 40.1502 85.4902 39.5077 86.2732 38.5028C86.6417 37.9492 86.8964 37.3292 87.0229 36.6783C87.0749 36.4677 87.193 36.2788 87.3603 36.1388H87.7351C87.7351 36.1388 87.1354 39.9484 86.9021 40.7927C86.6689 41.637 86.6273 41.6947 85.7693 41.6947H67.8601C67.4103 41.6947 67.2853 41.4682 67.2853 41.2293C67.2853 41.0604 67.3561 40.8916 67.8059 40.2861C71.925 34.6643 76.5523 29.0425 80.8005 23.4001C82.0861 21.6044 83.3855 19.8074 84.6989 18.009L85.0279 17.5271L75.736 17.6136C74.8222 17.61 73.9093 17.6692 73.0038 17.7907C72.4286 17.8676 71.8676 18.0257 71.3378 18.2602C69.9967 18.915 69.2303 20.9496 69.2303 20.9496L68.8138 21.5591C68.7473 21.5059 68.6926 21.4397 68.6531 21.3645C68.6137 21.2894 68.5904 21.207 68.5848 21.1226C68.5848 20.7107 69.1137 17.6383 69.2928 16.6251C69.3033 16.4976 69.3415 16.3739 69.4047 16.2623C69.468 16.1507 69.5548 16.0539 69.6593 15.9785C70.0629 16.1045 70.4862 16.1575 70.9088 16.135H70.9421C73.2453 16.135 75.4319 16.135 77.606 16.135L87.7726 16.1638Z"
          fill="var(--current-color-1)"/>
    <path d="M46.8646 30.0269L50.4673 19.7717L54.1241 30.0269H46.8646ZM63.1079 40.9822C62.3832 40.7804 61.3961 40.2408 60.1924 37.3743L50.9921 15.369C50.863 15.1301 50.7255 15.5172 50.7255 15.5172L42.1083 37.8109C41.4669 39.5736 40.7547 40.9122 39.1179 41.1263C38.8305 41.1593 37.7684 41.2005 37.7684 41.2005V41.4023C37.8515 41.4974 37.9555 41.5725 38.0725 41.6217C38.1894 41.671 38.3162 41.6931 38.4432 41.6865H45.2653C45.3694 41.6789 45.4707 41.6496 45.5626 41.6007C45.6544 41.5517 45.7348 41.4841 45.7984 41.4023V41.254L45.0862 41.1963C44.4823 41.1963 43.7326 40.8751 43.7326 40.1708C43.7683 39.3639 43.9371 38.5681 44.2324 37.815L46.5148 31.2583L54.5739 31.2913L58.0058 40.1708C58.2183 40.7392 58.0058 41.0563 57.7934 41.1263C57.6518 41.1593 57.5435 41.2293 57.5435 41.3693C57.5435 41.5835 57.9225 41.6906 58.6014 41.6865C61.0379 41.6865 63.6701 41.6865 64.2074 41.6865C64.4698 41.6709 64.7198 41.5711 64.9196 41.4023L64.8821 41.2375C64.2939 41.2039 63.7099 41.1185 63.137 40.9822"
          fill="var(--current-color-1)"/>
    <path d="M98.8971 30.0269L102.5 19.7717L106.157 30.0269H98.8971ZM115.165 40.9822C114.441 40.7804 113.449 40.2408 112.229 37.3743L103.029 15.369C102.9 15.1301 102.758 15.5172 102.758 15.5172L94.145 37.8109C93.5036 39.5736 92.7914 40.9122 91.1545 41.1263C90.8672 41.1593 89.8051 41.2005 89.8051 41.2005V41.4023C89.8896 41.4968 89.9944 41.5714 90.1119 41.6205C90.2294 41.6697 90.3565 41.6922 90.484 41.6865H97.2853C97.3894 41.6789 97.4907 41.6496 97.5826 41.6007C97.6744 41.5517 97.7548 41.4841 97.8184 41.4023V41.254L97.1062 41.1963C96.5023 41.1963 95.7526 40.8751 95.7526 40.1708C95.7883 39.3639 95.9571 38.5681 96.2524 37.815L98.5473 31.2583L106.611 31.2913L110.038 40.1708C110.255 40.7392 110.038 41.0563 109.826 41.1263C109.684 41.1593 109.576 41.2293 109.576 41.3693C109.576 41.5835 109.959 41.6906 110.634 41.6865C113.075 41.6865 115.707 41.6865 116.24 41.6865C116.502 41.6709 116.752 41.5711 116.952 41.4023L116.915 41.2375C116.328 41.2038 115.745 41.1184 115.174 40.9822"
          fill="var(--current-color-1)"/>
    <path d="M12.8038 41.6782C12.6859 41.6712 12.5718 41.6336 12.4731 41.5693C12.3745 41.5049 12.2946 41.4161 12.2416 41.3117L12.2791 41.1552C12.2791 41.1552 13.2453 41.0398 13.5535 40.9698C14.2491 40.8339 14.7322 40.039 14.8738 39.0506C15.0446 37.6173 15.0446 34.932 15.0446 31.6372V25.6118C15.0446 20.2824 15.0446 15.6655 14.9738 14.57C14.9071 13.4044 14.6322 12.8567 13.491 12.6219C13.102 12.5642 12.7098 12.5299 12.3165 12.5189L12.0375 12.313L12.1125 12.0124C12.1125 12.0124 16.5273 12.1318 16.7022 12.1318C16.8771 12.1318 20.9379 12 20.9379 12L20.9921 12.3007L20.713 12.5066C20.713 12.5066 19.9883 12.5395 19.5718 12.6095C18.5681 12.7784 18.2932 13.3591 18.2224 14.5576C18.1558 15.6531 18.1558 20.27 18.1558 25.5994V31.699C18.1558 36.7277 18.3349 38.6181 18.9138 39.273C19.4927 39.9278 23.3994 40.1626 27.3561 40.1667H28.6472C32.5706 40.1667 33.4869 39.5283 34.2699 38.5193C34.636 37.9644 34.8905 37.3449 35.0196 36.6948C35.071 36.4851 35.1893 36.2974 35.3569 36.1594H35.7318C35.7318 36.1594 35.132 39.9608 34.8988 40.8051C34.6656 41.6494 34.6364 41.6823 33.7784 41.6823L12.8038 41.6782Z"
          fill="var(--current-color-1)"/>
    <path d="M132.038 29.1702C131.25 29.7097 129.155 29.8127 128.335 29.8127C126.831 29.8127 125.261 29.5779 124.749 29.2732C124.674 29.2336 124.612 29.174 124.57 29.1011C124.528 29.0282 124.508 28.9451 124.511 28.8613V17.7989C124.506 17.7106 124.529 17.6229 124.578 17.5487C124.627 17.4745 124.698 17.4178 124.782 17.3871C125.536 17.2391 126.304 17.1728 127.073 17.1894C130.726 17.1894 134.12 19.7264 134.12 23.9561C134.12 26.5261 133.233 28.3547 132.038 29.1661M144.116 41.1099C143.262 40.9739 141.792 40.6033 139.951 38.6717C137.968 36.5753 135.649 33.5647 132.846 30.0227C135.919 27.2139 136.981 24.7098 136.981 22.1975C136.965 21.304 136.744 20.4259 136.335 19.629C135.926 18.8322 135.34 18.1375 134.62 17.5971C132.812 16.3121 129.384 16.1103 127.227 16.1103C126.169 16.1103 123.574 16.2092 123.195 16.2092L118.789 16.1062V16.378C118.789 16.378 118.93 16.5798 119.064 16.5798C119.453 16.5797 119.842 16.6142 120.226 16.6828C121.354 16.9175 121.625 17.4612 121.696 18.6103C121.763 19.6934 121.763 20.6407 121.763 25.9248V31.8761C121.763 35.1297 121.763 37.7985 121.592 39.2236C121.454 40.2038 121.284 40.9492 120.601 41.0851C120.292 41.151 119.351 41.2252 119.351 41.2252L119.314 41.4229C119.376 41.5084 119.458 41.5778 119.553 41.6252C119.648 41.6725 119.753 41.6964 119.859 41.6947H127.273C127.379 41.6964 127.484 41.6725 127.579 41.6252C127.674 41.5778 127.756 41.5084 127.818 41.4229L127.735 41.2252C127.735 41.2252 126.486 41.151 126.007 41.0851C124.982 40.9492 124.778 40.2038 124.674 39.2236C124.507 37.7985 124.507 35.1297 124.507 31.8761V31.0771C124.507 30.9082 124.574 30.8053 124.745 30.8053L130.084 30.8712C130.17 30.8689 130.254 30.8863 130.332 30.9221C130.409 30.9578 130.477 31.0109 130.53 31.0771C131.213 31.9543 132.821 34.2195 134.253 36.0852C136.198 38.6223 137.398 40.282 138.868 41.0604C139.755 41.5341 140.605 41.7029 142.521 41.7029H144.949C145.099 41.7226 145.253 41.7084 145.397 41.6613C145.541 41.6142 145.673 41.5356 145.782 41.4311L145.611 41.2128C145.119 41.2203 144.628 41.1914 144.141 41.1263"
          fill="var(--current-color-1)"/>
    <path d="M159.18 40.5044C157.791 40.5682 156.399 40.5269 155.015 40.3809L154.182 40.1132C154.114 40.0418 154.062 39.9566 154.031 39.8634C153.999 39.7702 153.988 39.6713 153.999 39.5736C153.966 38.4246 153.966 34.9815 153.966 32.3868V25.3853C153.966 22.7906 153.966 19.3475 153.999 18.2025C153.988 18.1042 153.998 18.0046 154.03 17.9107C154.062 17.8168 154.114 17.7308 154.182 17.6589L155.015 17.3912C155.474 17.3294 156.573 17.2676 156.586 17.2676C157.419 17.2219 158.255 17.2453 159.085 17.3376C159.822 17.4084 160.551 17.5463 161.263 17.7495C161.976 17.9585 162.659 18.2575 163.295 18.6391C166.79 20.6407 169.064 23.7214 169.101 29.0055C169.13 33.6306 167.739 37.0984 164.478 39.0012C162.908 39.9155 161.509 40.3315 159.189 40.488M158.377 41.6617C162.541 41.6617 165.615 40.7392 168.639 37.6791C169.004 37.2931 169.333 36.8755 169.622 36.4312C170.07 35.7003 170.475 34.9439 170.834 34.166C174.012 26.1925 169.793 20.6942 168.822 19.7758C165.49 16.6045 161.858 16.2297 158.352 16.1515L148.043 16.1062V16.4068C148.043 16.4068 148.147 16.6086 148.285 16.6086C148.422 16.6086 148.493 16.6086 148.768 16.6086H148.81C149.136 16.614 149.462 16.6429 149.784 16.6951C149.887 16.7153 149.989 16.7415 150.088 16.7734L150.176 16.7981C150.274 16.8341 150.37 16.8768 150.463 16.9258C150.544 16.9708 150.621 17.0232 150.692 17.0823C150.743 17.128 150.79 17.1791 150.83 17.2347C150.83 17.2594 150.871 17.2759 150.888 17.3006L150.925 17.3747C151.113 17.7602 151.21 18.1826 151.209 18.6103C151.271 19.6893 151.271 20.6366 151.271 25.896V31.8473C151.271 37.1108 151.271 38.0539 151.209 39.133C151.21 39.5607 151.113 39.983 150.925 40.3685L150.888 40.4427C150.888 40.4674 150.846 40.4838 150.83 40.5086C150.79 40.5641 150.743 40.6152 150.692 40.6609C150.62 40.7201 150.543 40.7737 150.463 40.8216C150.37 40.8689 150.274 40.9115 150.176 40.9492L150.088 40.9739C149.993 41.0028 149.897 41.0316 149.784 41.0563C149.462 41.1046 149.136 41.1321 148.81 41.1387H148.776C148.501 41.1387 148.497 41.1387 148.36 41.1387C148.222 41.1387 148.164 41.3405 148.164 41.3405V41.6411L158.377 41.6617Z"
          fill="var(--current-color-1)"/>
</svg>
