<svg id="logo" viewBox="0 0 128 128" fill="none" xmlns="http://www.w3.org/2000/svg">
    <path d="M28.8376 73.4223H31.7504V73.9488H29.4805V75.3426H31.6411V75.8616H29.4805V77.3457H31.7999V77.8897H28.8376V73.4223ZM30.1625 72.1413L30.7014 73.0312H30.3031L29.4363 72.1413H30.1625Z"
          fill="var(--current-color-1)"/>
    <path d="M14 73.4223H16.7619V73.9488H14.656V75.3426H16.6395V75.8616H14.656V77.8897H14V73.4223Z"
          fill="var(--current-color-1)"/>
    <path d="M21.0674 73.4223H22.7229C23.0919 73.399 23.4605 73.4717 23.7902 73.6329C23.9516 73.7279 24.0846 73.8618 24.1759 74.0214C24.2672 74.181 24.3137 74.3607 24.3108 74.5429C24.3173 74.7929 24.2337 75.0374 24.0743 75.2348C23.9148 75.4322 23.6894 75.5704 23.4362 75.6259C23.8787 75.7387 24.0791 75.9293 24.1442 76.4858C24.1806 76.9634 24.2776 77.4349 24.4332 77.8897H23.7381C23.6362 77.502 23.5657 77.1072 23.5273 76.7089C23.4492 76.0596 23.2904 75.8741 22.5121 75.8741H21.7025V77.8797H21.0674V73.4223ZM21.6895 75.3477H22.7047C22.9134 75.3557 23.1216 75.3225 23.3164 75.2499C23.4181 75.1891 23.5008 75.1029 23.5558 75.0005C23.6108 74.8981 23.636 74.7833 23.6288 74.6683C23.6288 73.9438 22.9624 73.9438 22.7047 73.9438H21.6895V75.3477Z"
          fill="var(--current-color-1)"/>
    <path d="M36.3787 73.4223H38.0369C38.4058 73.399 38.7745 73.4717 39.1041 73.6329C39.2654 73.7281 39.3982 73.862 39.4895 74.0216C39.5807 74.1811 39.6273 74.3608 39.6247 74.5429C39.6323 74.7928 39.5495 75.0375 39.3904 75.2351C39.2314 75.4326 39.0059 75.5708 38.7527 75.6259C39.1952 75.7387 39.3957 75.9293 39.4581 76.4858C39.4958 76.9632 39.5928 77.4346 39.7471 77.8897H39.0599C38.958 77.502 38.8875 77.1072 38.849 76.7089C38.7709 76.0596 38.6095 75.8741 37.8338 75.8741H37.0243V77.8797H36.3787V73.4223ZM37.0034 75.3477H38.0186C38.2265 75.3558 38.4339 75.3225 38.6278 75.2499C38.7303 75.1898 38.8139 75.1039 38.8694 75.0013C38.9249 74.8988 38.9503 74.7837 38.9427 74.6683C38.9427 73.9438 38.2763 73.9438 38.0186 73.9438H37.0034V75.3477Z"
          fill="var(--current-color-1)"/>
    <path d="M44.1515 73.4223H47.0618V73.9488H44.7945V75.3426H46.9524V75.8616H44.7945V77.3457H47.1138V77.8897H44.1515V73.4223Z"
          fill="var(--current-color-1)"/>
    <path d="M52.169 76.5861C52.182 76.8944 52.2211 77.471 53.2857 77.471C54.2515 77.471 54.3738 76.8944 54.3738 76.6713C54.3738 76.1699 53.9547 76.0722 53.3065 75.9192C52.5985 75.7513 52.2835 75.6685 52.0467 75.5231C51.8942 75.4297 51.7697 75.2997 51.6853 75.1458C51.6008 74.992 51.5594 74.8196 51.5651 74.6457C51.5651 73.7357 52.4579 73.3396 53.3326 73.3396C53.6397 73.3396 54.2645 73.3872 54.6341 73.7783C54.8187 73.9883 54.9186 74.2553 54.9153 74.5304H54.2489C54.215 73.9739 53.7282 73.8485 53.2727 73.8485C52.6297 73.8485 52.2445 74.1268 52.2445 74.573C52.2445 74.9691 52.5048 75.1045 53.0775 75.2348C54.1838 75.5081 54.3061 75.5332 54.5769 75.7062C54.7261 75.8043 54.8468 75.9376 54.9274 76.0934C55.0081 76.2492 55.046 76.4222 55.0376 76.5961C55.0376 77.3883 54.3946 77.9875 53.2154 77.9875C52.8614 77.9875 52.143 77.9323 51.7759 77.4861C51.5843 77.2229 51.4923 76.9043 51.5156 76.5836L52.169 76.5861Z"
          fill="var(--current-color-1)"/>
    <path d="M68.0218 74.5379C67.9515 74.1218 67.6053 73.8385 66.9805 73.8385C66.7891 73.8251 66.5969 73.8518 66.4172 73.9167C66.2374 73.9816 66.0744 74.0832 65.9393 74.2145C65.5981 74.6193 65.4223 75.1301 65.4447 75.651C65.4447 76.027 65.528 76.6663 65.869 77.0549C66.0293 77.2093 66.2222 77.3287 66.4347 77.4048C66.6472 77.4809 66.8742 77.5121 67.1003 77.4961C67.4426 77.4997 67.7834 77.4514 68.1103 77.3532V76.027H67.0508V75.5257H68.7532V77.7267C68.2219 77.906 67.6632 77.9983 67.1003 78C66.2465 78 65.7467 77.7643 65.4187 77.4435C64.9783 76.9802 64.7446 76.3689 64.7679 75.7413C64.7679 75.295 64.8851 74.2371 65.7649 73.6755C66.1587 73.4532 66.6102 73.3436 67.0664 73.3597C67.3164 73.3442 67.567 73.3785 67.8026 73.4604C68.0382 73.5424 68.2537 73.6702 68.4357 73.836C68.5331 73.9293 68.6104 74.0402 68.6631 74.1624C68.7159 74.2846 68.7429 74.4156 68.7428 74.5479L68.0218 74.5379Z"
          fill="var(--current-color-1)"/>
    <path d="M73.3529 73.4223H76.2631V73.9488H73.9958V75.3426H76.1538V75.8616H73.9958V77.3457H76.3152V77.8897H73.3529V73.4223Z"
          fill="var(--current-color-1)"/>
    <path d="M81.3704 76.5861C81.3834 76.8944 81.4224 77.471 82.4871 77.471C83.4529 77.471 83.5726 76.8944 83.5726 76.6713C83.5726 76.1699 83.1561 76.0722 82.5079 75.9192C81.7999 75.7513 81.4849 75.6685 81.248 75.5231C81.0956 75.4297 80.9711 75.2997 80.8866 75.1458C80.8022 74.992 80.7608 74.8196 80.7665 74.6457C80.7665 73.7357 81.6593 73.3396 82.534 73.3396C82.8411 73.3396 83.4633 73.3872 83.8355 73.7783C84.0189 73.9889 84.1186 74.2555 84.1166 74.5304H83.4502C83.4164 73.9739 82.9296 73.8485 82.4715 73.8485C81.8311 73.8485 81.4433 74.1268 81.4433 74.573C81.4433 74.9691 81.7036 75.1045 82.2789 75.2348C83.3852 75.5081 83.5075 75.5332 83.7756 75.7062C83.9286 75.8033 84.0527 75.9372 84.1358 76.0945C84.2189 76.2519 84.258 76.4273 84.2494 76.6036C84.2494 77.3958 83.6064 77.995 82.4272 77.995C82.0732 77.995 81.3548 77.9398 80.9877 77.4936C80.796 77.2304 80.7041 76.9118 80.7274 76.5911L81.3704 76.5861Z"
          fill="var(--current-color-1)"/>
    <path d="M89.7393 77.8897V73.9488H88.1852V73.4223H91.9311V73.9488H90.3744V77.8897H89.7393Z"
          fill="var(--current-color-1)"/>
    <path d="M96.7338 73.4223H96.0908V77.8897H96.7338V73.4223Z" fill="var(--current-color-1)"/>
    <path d="M101.841 73.8961C102.042 73.6983 102.284 73.5428 102.55 73.4392C102.817 73.3357 103.103 73.2864 103.39 73.2945C104.676 73.2945 105.485 74.0867 105.485 75.6034C105.485 76.7917 104.991 77.985 103.338 77.985C101.758 77.985 101.255 76.9045 101.255 75.6786C101.255 75.1772 101.344 74.4251 101.851 73.8961M102.341 77.0524C102.47 77.193 102.631 77.3031 102.812 77.374C102.992 77.4448 103.188 77.4746 103.382 77.461C103.574 77.4703 103.766 77.4385 103.944 77.3678C104.122 77.2972 104.281 77.1894 104.41 77.0524C104.788 76.6061 104.827 75.9017 104.827 75.5984C104.827 74.583 104.481 73.8159 103.421 73.8159C102.244 73.8159 101.943 74.7259 101.943 75.641C101.913 76.1424 102.057 76.6391 102.354 77.0524"
          fill="var(--current-color-1)"/>
    <path d="M110.025 73.4223H110.918L113.198 77.1176V73.4223H113.789V77.8897H112.967L110.608 74.0967V77.8897H110.025V73.4223Z"
          fill="var(--current-color-1)"/>
    <path d="M61.3579 52.5345C61.4324 52.534 61.5068 52.5424 61.5791 52.5596C61.6755 52.5847 61.7119 52.6273 61.7119 52.6975C61.7157 52.7433 61.7093 52.7893 61.6931 52.8325C61.6769 52.8758 61.6514 52.9152 61.6182 52.9482C58.2342 57.6762 54.8163 62.4419 51.2657 67.17L56.7322 67.1349C59.1843 67.1349 59.9314 66.7438 60.4208 66.1322C60.6511 65.7951 60.8103 65.4178 60.8893 65.0216C60.9218 64.8934 60.9956 64.7784 61.1002 64.6932H61.3345C61.3345 64.6932 60.9596 67.0121 60.8138 67.526C60.6681 68.0399 60.642 68.075 60.1058 68.075H48.9125C48.6314 68.075 48.5533 67.9371 48.5533 67.7917C48.5533 67.689 48.5976 67.5862 48.8787 67.2177C51.4532 63.7957 54.3452 60.3737 57.0003 56.9392C57.8038 55.8462 58.616 54.7523 59.4368 53.6576L59.6425 53.3643L53.835 53.417C53.2639 53.4148 52.6933 53.4508 52.1274 53.5248C51.7679 53.5716 51.4172 53.6678 51.0861 53.8105C50.2479 54.2092 49.769 55.4476 49.769 55.4476L49.5086 55.8186C49.467 55.7862 49.4328 55.7459 49.4082 55.7002C49.3836 55.6544 49.369 55.6043 49.3655 55.5529C49.3655 55.3022 49.6961 53.432 49.808 52.8153C49.8146 52.7377 49.8384 52.6623 49.8779 52.5944C49.9175 52.5265 49.9718 52.4676 50.0371 52.4217C50.2893 52.4984 50.5539 52.5306 50.818 52.517H50.8388C52.2783 52.517 53.6449 52.517 55.0038 52.517L61.3579 52.5345Z"
          fill="var(--current-color-1)"/>
    <path d="M35.7904 60.9729L38.0421 54.7306L40.3276 60.9729H35.7904ZM45.9424 67.6413C45.4895 67.5185 44.8726 67.1901 44.1203 65.4453L38.3701 52.0507C38.2894 51.9053 38.2035 52.1409 38.2035 52.1409L32.8177 65.711C32.4168 66.784 31.9717 67.5987 30.9487 67.7291C30.7691 67.7491 30.1053 67.7742 30.1053 67.7742V67.897C30.1572 67.9549 30.2222 68.0006 30.2953 68.0306C30.3684 68.0606 30.4476 68.0741 30.527 68.07H34.7908C34.8559 68.0654 34.9192 68.0476 34.9766 68.0178C35.034 67.988 35.0842 67.9468 35.124 67.897V67.8068L34.6789 67.7717C34.3014 67.7717 33.8329 67.5761 33.8329 67.1475C33.8552 66.6563 33.9607 66.1719 34.1453 65.7135L35.5717 61.7224L40.6087 61.7425L42.7536 67.1475C42.8864 67.4934 42.7537 67.6865 42.6209 67.7291C42.5324 67.7491 42.4647 67.7917 42.4647 67.877C42.4647 68.0073 42.7016 68.0725 43.1259 68.07C44.6487 68.07 46.2938 68.07 46.6296 68.07C46.7936 68.0605 46.9499 67.9998 47.0748 67.897L47.0513 67.7968C46.6837 67.7763 46.3187 67.7243 45.9606 67.6413"
          fill="var(--current-color-1)"/>
    <path d="M68.3107 60.9729L70.5624 54.7306L72.8479 60.9729H68.3107ZM78.4784 67.6413C78.0254 67.5185 77.4059 67.1901 76.6432 65.4453L70.893 52.0507C70.8123 51.9053 70.7238 52.1409 70.7238 52.1409L65.3406 65.711C64.9397 66.784 64.4946 67.5987 63.4716 67.7291C63.292 67.7491 62.6282 67.7742 62.6282 67.7742V67.897C62.681 67.9546 62.7465 68 62.82 68.0299C62.8934 68.0598 62.9728 68.0735 63.0525 68.07H67.3033C67.3684 68.0654 67.4317 68.0476 67.4891 68.0178C67.5465 67.988 67.5967 67.9468 67.6365 67.897V67.8068L67.1914 67.7717C66.8139 67.7717 66.3454 67.5761 66.3454 67.1475C66.3677 66.6563 66.4732 66.1719 66.6578 65.7135L68.0921 61.7224L73.1316 61.7425L75.274 67.1475C75.4093 67.4934 75.274 67.6865 75.1412 67.7291C75.0527 67.7491 74.985 67.7917 74.985 67.877C74.985 68.0073 75.2245 68.0725 75.6462 68.07C77.1716 68.07 78.8168 68.07 79.15 68.07C79.3139 68.0605 79.4702 67.9998 79.5951 67.897L79.5716 67.7968C79.2049 67.7762 78.8407 67.7242 78.4836 67.6413"
          fill="var(--current-color-1)"/>
    <path d="M14.5024 68.065C14.4287 68.0607 14.3574 68.0378 14.2957 67.9987C14.234 67.9595 14.1841 67.9055 14.151 67.8419L14.1744 67.7466C14.1744 67.7466 14.7783 67.6764 14.9709 67.6338C15.4057 67.5511 15.7076 67.0672 15.7961 66.4656C15.9029 65.5932 15.9029 63.9586 15.9029 61.9531V58.2854C15.9029 55.0415 15.9029 52.2312 15.8586 51.5643C15.817 50.8549 15.6451 50.5214 14.9319 50.3785C14.6887 50.3435 14.4436 50.3225 14.1978 50.3159L14.0234 50.1905L14.0703 50.0075C14.0703 50.0075 16.8296 50.0802 16.9389 50.0802C17.0482 50.0802 19.5862 50 19.5862 50L19.6201 50.183L19.4456 50.3084C19.4456 50.3084 18.9927 50.3284 18.7324 50.371C18.1051 50.4738 17.9333 50.8273 17.889 51.5568C17.8474 52.2237 17.8474 55.0339 17.8474 58.2779V61.9907C17.8474 65.0517 17.9593 66.2023 18.3211 66.601C18.6829 66.9996 21.1246 67.1424 23.5976 67.145H24.4045C26.8566 67.145 27.4293 66.7564 27.9187 66.1422C28.1475 65.8044 28.3066 65.4273 28.3872 65.0316C28.4194 64.904 28.4933 64.7897 28.5981 64.7057H28.8324C28.8324 64.7057 28.4575 67.0196 28.3117 67.5335C28.166 68.0475 28.1478 68.0675 27.6115 68.0675L14.5024 68.065Z"
          fill="var(--current-color-1)"/>
    <path d="M89.0234 60.4514C88.5315 60.7798 87.2221 60.8425 86.7093 60.8425C85.7696 60.8425 84.7882 60.6996 84.468 60.5141C84.4213 60.49 84.3825 60.4537 84.3563 60.4094C84.33 60.365 84.3173 60.3144 84.3197 60.2634V53.5298C84.3162 53.476 84.3307 53.4226 84.3612 53.3775C84.3917 53.3323 84.4365 53.2978 84.4889 53.2791C84.9602 53.189 85.4402 53.1487 85.9206 53.1587C88.2035 53.1587 90.325 54.703 90.325 57.2776C90.325 58.842 89.7705 59.9551 89.0234 60.4489M96.5724 67.719C96.0387 67.6363 95.1199 67.4107 93.9693 66.2349C92.7302 64.9589 91.2803 63.1263 89.5284 60.9704C91.4495 59.2606 92.1133 57.7364 92.1133 56.2072C92.1031 55.6633 91.965 55.1288 91.7094 54.6438C91.4537 54.1587 91.0872 53.7359 90.6374 53.4069C89.5076 52.6248 87.3653 52.5019 86.0169 52.5019C85.3557 52.5019 83.734 52.5621 83.4971 52.5621L80.743 52.4994V52.6649C80.743 52.6649 80.8315 52.7877 80.9148 52.7877C81.1584 52.7877 81.4015 52.8086 81.6411 52.8504C82.3465 52.9933 82.5157 53.3242 82.56 54.0236C82.6016 54.683 82.6016 55.2596 82.6016 58.476V62.0985C82.6016 64.079 82.6016 65.7035 82.4949 66.5709C82.409 67.1675 82.3023 67.6213 81.8754 67.704C81.6828 67.7441 81.0945 67.7892 81.0945 67.7892L81.071 67.9096C81.1097 67.9616 81.161 68.0039 81.2204 68.0327C81.2798 68.0615 81.3455 68.0761 81.412 68.075H86.0455C86.112 68.0761 86.1778 68.0615 86.2372 68.0327C86.2966 68.0039 86.3478 67.9616 86.3865 67.9096L86.3345 67.7892C86.3345 67.7892 85.5535 67.7441 85.2542 67.704C84.6138 67.6213 84.4863 67.1675 84.4212 66.5709C84.3171 65.7035 84.3171 64.079 84.3171 62.0985V61.6121C84.3171 61.5094 84.3587 61.4467 84.4654 61.4467L87.8026 61.4868C87.8559 61.4854 87.9089 61.496 87.9572 61.5178C88.0056 61.5396 88.048 61.5719 88.0811 61.6121C88.508 62.1461 89.5128 63.5249 90.4083 64.6606C91.6239 66.2049 92.3736 67.2151 93.2925 67.689C93.847 67.9773 94.378 68.08 95.5754 68.08H97.093C97.1871 68.092 97.2828 68.0834 97.373 68.0547C97.4631 68.0261 97.5454 67.9782 97.6136 67.9146L97.5069 67.7817C97.1997 67.7863 96.8925 67.7687 96.588 67.7291"
          fill="var(--current-color-1)"/>
    <path d="M105.988 67.3505C105.119 67.3893 104.249 67.3642 103.385 67.2753L102.864 67.1124C102.821 67.0689 102.789 67.0171 102.769 66.9603C102.749 66.9036 102.743 66.8434 102.75 66.784C102.729 66.0845 102.729 63.9887 102.729 62.4093V58.1476C102.729 56.5682 102.729 54.4724 102.75 53.7755C102.742 53.7156 102.749 53.655 102.769 53.5978C102.789 53.5406 102.821 53.4883 102.864 53.4445L103.385 53.2816C103.671 53.244 104.358 53.2064 104.366 53.2064C104.887 53.1785 105.409 53.1928 105.928 53.249C106.389 53.2921 106.844 53.376 107.289 53.4997C107.735 53.6269 108.162 53.8089 108.56 54.0412C110.744 55.2596 112.165 57.1347 112.188 60.3512C112.206 63.1664 111.337 65.2773 109.299 66.4355C108.317 66.992 107.443 67.2452 105.993 67.3405M105.485 68.055C108.088 68.055 110.009 67.4934 111.899 65.6308C112.127 65.3958 112.333 65.1416 112.514 64.8712C112.794 64.4262 113.047 63.9658 113.271 63.4923C115.257 58.6389 112.62 55.2921 112.014 54.7331C109.931 52.8028 107.662 52.5746 105.47 52.527L99.0271 52.4994V52.6824C99.0271 52.6824 99.0922 52.8053 99.1781 52.8053C99.264 52.8053 99.3082 52.8053 99.48 52.8053H99.5061C99.7102 52.8085 99.9137 52.8261 100.115 52.8579C100.179 52.8702 100.243 52.8861 100.305 52.9055L100.36 52.9206C100.422 52.9425 100.482 52.9685 100.539 52.9983C100.59 53.0257 100.638 53.0576 100.683 53.0936C100.715 53.1214 100.743 53.1525 100.769 53.1863C100.769 53.2014 100.795 53.2114 100.805 53.2264L100.828 53.2716C100.946 53.5062 101.006 53.7633 101.005 54.0236C101.044 54.6805 101.044 55.2571 101.044 58.4584V62.0809C101.044 65.2848 101.044 65.8589 101.005 66.5157C101.006 66.7761 100.946 67.0332 100.828 67.2678L100.805 67.3129C100.805 67.328 100.779 67.338 100.769 67.353C100.743 67.3868 100.715 67.4179 100.683 67.4458C100.638 67.4818 100.59 67.5145 100.539 67.5436C100.481 67.5724 100.421 67.5983 100.36 67.6213L100.305 67.6363C100.245 67.6539 100.185 67.6714 100.115 67.6865C99.9135 67.7158 99.71 67.7326 99.5061 67.7366H99.4852C99.3134 67.7366 99.3108 67.7366 99.2249 67.7366C99.139 67.7366 99.1026 67.8594 99.1026 67.8594V68.0424L105.485 68.055Z"
          fill="var(--current-color-1)"/>
</svg>
