<svg id="logo" viewBox="0 0 174 98" fill="none" xmlns="http://www.w3.org/2000/svg">
    <path d="M67.9035 12V23.2419C69.9673 22.4566 72.2057 22.0215 74.5446 22.0215C84.8423 22.0215 93.2178 30.3796 93.2178 40.6526C93.2178 44.2542 92.1833 47.6152 90.4033 50.4695C92.9877 48.9875 96.3236 46.5286 99.2404 43.252C101.194 41.0584 102.952 38.4965 104.175 35.6253C102.266 24.4065 94.0919 15.2912 83.3752 12H67.9035ZM92.9035 12C98.644 15.6692 103.212 21.0068 105.921 27.3192V12H92.9035ZM74.5446 26.0623C72.1592 26.0623 69.9053 26.6369 67.9135 27.6523C68.1062 39.6691 79.0911 48.404 84.6749 51.159C87.4435 48.5031 89.1729 44.7746 89.1729 40.6494C89.1729 32.6058 82.6114 26.0623 74.5446 26.0623Z"
          fill="var(--current-color-1)"/>
    <path d="M21.1083 67.6328C15.8293 67.6328 12 71.5244 12 76.889C12 81.4238 14.8018 86 21.0587 86C27.3177 86 30.1174 81.4101 30.1174 76.8627C30.1174 70.4847 25.5915 67.6328 21.1083 67.6328ZM86.3782 67.6328C81.0992 67.6328 77.2665 71.5244 77.2665 76.889C77.2665 81.4238 80.0685 86 86.3254 86C92.5843 86 95.3841 81.4101 95.3841 76.8627C95.3841 70.4847 90.8635 67.6328 86.3782 67.6328ZM35.7465 67.9528V85.6272H42.5C45.1479 85.6272 47.3799 84.7835 48.9525 83.1896C50.5423 81.5745 51.4313 79.1865 51.3867 76.6384C51.3122 72.3147 48.5346 67.9528 42.5 67.9528H35.7465ZM57.0389 67.9528V85.6272H63.7925C66.4406 85.6272 68.6724 84.7835 70.2452 83.1896C71.8347 81.5745 72.7237 79.1865 72.6794 76.6384C72.6049 72.3147 69.8273 67.9528 63.7925 67.9528H57.0389ZM107.142 67.9528V85.6272H115.284C119.623 85.6272 121.919 83.8545 121.919 80.4978C121.919 79.3177 121.191 77.2903 119.279 76.4965C120.632 75.7998 121.37 74.6023 121.37 73.0823C121.37 69.8691 119.094 67.9528 115.284 67.9528H107.142ZM127.594 67.9528V85.6306H130.743V78.4361H139.54V85.6306H142.665V67.9528H139.54V75.4904H130.743V67.9528H127.594ZM149.36 67.9764V85.6278H152.508V78.8819H161.53V75.9363H152.508V71.0442H162V67.9764H149.36ZM21.105 70.5262C23.8207 70.5718 26.992 72.2755 26.992 76.9159C26.992 79.8968 25.4338 83.0812 21.0587 83.0812C16.7893 83.0812 15.1931 79.7575 15.1254 76.9159C15.1254 72.9744 17.4177 70.5262 21.105 70.5262ZM86.3716 70.5262C89.0872 70.5718 92.2619 72.2755 92.2619 76.9159C92.2619 79.8968 90.7005 83.0812 86.3254 83.0812C82.0559 83.0812 80.4596 79.7575 80.3919 76.9159C80.3919 72.9744 82.6843 70.5262 86.3716 70.5262ZM110.27 70.8232H115.284C117.227 70.8232 118.247 71.9838 118.247 73.1323C118.247 74.7748 116.65 75.1214 115.311 75.1214H110.27V70.8232ZM38.8687 70.9718H42.5C45.0909 70.9718 48.1535 72.4508 48.2613 76.6225C48.3037 78.341 47.7272 79.9404 46.6838 81.0065C45.6593 82.0536 44.2527 82.5866 42.5 82.5866H38.8687V70.9718ZM60.1644 70.9718H63.7925C66.3833 70.9718 69.4459 72.4508 69.554 76.6225C69.5963 78.341 69.0231 79.9404 67.9797 81.0065C66.9552 82.0536 65.5451 82.5866 63.7925 82.5866H60.1644V70.9718ZM110.27 77.9684H115.311C116.646 77.9684 118.767 78.646 118.767 80.4721C118.767 82.577 115.866 82.6856 115.284 82.6856H110.27V77.9684Z"
          fill="var(--current-color-1)"/>
</svg>
