<svg id="logo" viewBox="0 0 168 110" fill="none" xmlns="http://www.w3.org/2000/svg">
    <path d="M102.298 12.2682C102.533 12.2985 102.781 12.3856 103.044 12.5294C103.279 12.6592 103.476 12.8277 103.635 13.0351C103.995 13.5069 104.182 14.0467 104.197 14.6546C104.202 14.9071 104.146 15.1134 104.028 15.2734C103.894 15.4554 103.714 15.5919 103.488 15.6828C102.949 15.9014 102.389 16.0316 101.807 16.0732C100.018 16.2015 98.2322 16.3679 96.4495 16.5725C93.3988 16.9871 90.3735 17.5425 87.3737 18.2385C82.2264 19.5079 77.0529 21.2689 71.8533 23.5213C69.1178 24.7061 66.6697 25.8821 64.5089 27.0492C64.1644 27.2347 63.7884 27.4561 63.3811 27.7135C62.7206 28.1303 62.3471 28.357 62.2606 28.3937C62.2027 28.4184 62.1647 28.4113 62.1466 28.3726C62.141 28.3601 62.1404 28.3449 62.1449 28.3288C62.1494 28.3128 62.1587 28.2967 62.1717 28.2826C62.5811 27.8398 63.0006 27.4071 63.4303 26.9847C63.5488 26.8683 63.5478 26.8514 63.4271 26.9339C62.3482 27.6765 61.2503 28.3905 60.1337 29.076C60.0381 29.1346 59.9349 29.1719 59.824 29.1881C59.7034 29.2051 59.6312 29.1702 59.6075 29.0834C59.5921 29.0298 59.6043 28.9656 59.6441 28.8909C59.7201 28.7463 59.815 28.6141 59.9286 28.4942C60.3381 28.0612 60.7666 27.6486 61.2144 27.2565C61.5583 26.9554 62.0727 26.5453 62.7576 26.0263C62.7604 26.0242 63.2322 25.6627 64.1731 24.942C65.2158 24.143 66.292 23.3937 67.4017 22.6941C67.7169 22.4953 68.3094 22.1236 69.1792 21.5792C70.1849 20.9494 71.3117 20.2921 72.5595 19.6074C74.9427 18.2978 77.1655 17.1687 79.2279 16.2202C81.7646 15.0524 84.3826 14.1194 87.0818 13.4212C88.4279 13.0672 90.0757 12.7512 92.0251 12.4734C93.7709 12.2244 95.1644 12.0746 96.2057 12.0238C98.4516 11.9547 100.482 12.0361 102.298 12.2682Z"
          fill="var(--current-color-1)"/>
    <path d="M106.966 20.6652C106.787 20.2378 106.512 19.929 106.138 19.7385C105.902 19.618 105.52 19.5386 104.993 19.5005C103.065 19.3595 101.176 19.588 99.3255 20.186C99.2904 20.1976 99.2621 20.219 99.246 20.2463C99.1902 20.3415 99.2331 20.3881 99.3747 20.3859C99.7457 20.381 100.112 20.3352 100.473 20.2484C100.854 20.1574 101.351 20.1225 101.964 20.1437C102.044 20.1465 102.115 20.1687 102.177 20.2103C102.208 20.2301 102.205 20.246 102.169 20.2579C101.497 20.4766 100.809 20.6306 100.107 20.7202C98.6451 20.9431 97.1804 21.1472 95.713 21.3327C93.4288 21.7149 91.178 22.2438 88.9608 22.9194C87.2673 23.3792 85.5857 23.881 83.916 24.4247C79.1634 25.9748 74.4984 27.7576 69.9209 29.7731C69.2486 30.0693 68.6132 30.3595 68.0147 30.6437C65.6671 31.7608 63.363 32.9632 61.1025 34.2509C59.1837 35.344 57.9548 36.0076 57.4157 36.2418C57.0376 36.4054 56.7091 36.6402 56.4301 36.9463C56.417 36.9607 56.4069 36.9777 56.4005 36.9963C56.3941 37.0148 56.3914 37.0345 56.3927 37.0541C56.3939 37.0738 56.3991 37.093 56.4079 37.1106C56.4167 37.1283 56.4289 37.144 56.4437 37.1568C56.5651 37.2583 56.7255 37.2904 56.925 37.253C57.1545 37.2368 57.3811 37.2016 57.605 37.1473C57.8945 37.0767 58.1846 37.0535 58.4755 37.0774C58.8835 37.112 59.0885 37.1293 59.0906 37.1293C59.4966 37.1363 59.7773 37.1247 59.9328 37.0944C60.2251 37.038 60.6282 36.8726 61.1422 36.5982C61.6737 36.4509 62.1881 36.2569 62.6854 36.0164C62.8081 35.9572 62.9961 35.9071 63.2493 35.8662C63.2768 35.8615 63.3098 35.8698 63.3414 35.8895L63.627 36.0672C63.6393 36.0747 63.6544 36.0789 63.6709 36.0792C63.6875 36.0796 63.705 36.0762 63.7222 36.0693C63.9265 35.984 64.1347 35.9092 64.3468 35.8451C64.5958 35.7238 64.8507 35.7083 65.1115 35.7985C65.2155 35.8345 65.3529 35.8147 65.5237 35.7393C65.9039 35.57 66.2885 35.4117 66.6777 35.2643C66.6784 35.2636 66.9107 35.1892 67.3745 35.0411C67.7413 34.9241 68.0862 34.7566 68.4092 34.5387C68.4205 34.5312 68.4346 34.527 68.4503 34.5264C68.466 34.5259 68.4827 34.529 68.4991 34.5355C68.5459 34.5531 68.5912 34.5471 68.6351 34.5175C68.6707 34.4928 68.7014 34.4794 68.7272 34.4773C68.8793 34.466 69.0268 34.4858 69.1698 34.5365C69.2033 34.549 69.2378 34.5519 69.2691 34.545C69.8662 34.4237 70.4318 34.216 70.9661 33.9219C70.9696 33.9198 70.9933 33.9047 71.0372 33.8764C71.1293 33.8172 71.199 33.8334 71.2465 33.9251C71.251 33.9339 71.2572 33.9416 71.2648 33.9478C71.2724 33.9541 71.2811 33.9586 71.2905 33.9612C71.2998 33.9638 71.3096 33.9644 71.3191 33.9629C71.3287 33.9614 71.3378 33.9579 71.3459 33.9526L72.9601 32.8884C73.1066 32.7911 73.0941 32.7633 72.9225 32.8049C72.7377 32.8493 72.5288 32.9181 72.2958 33.0111C72.2588 33.026 72.2372 33.026 72.2309 33.0111C72.2279 33.0049 72.2292 32.9958 72.2345 32.9852C72.2399 32.9746 72.2489 32.9632 72.2602 32.953L72.7718 32.496C72.9601 32.3274 73.1139 32.2178 73.2332 32.167C76.6152 30.7291 80.0196 29.4096 83.4462 28.2086C85.7179 27.4124 87.6447 26.8027 89.2265 26.3796L100.369 23.3912C101.983 22.9744 103.595 22.5527 105.207 22.1261C105.828 21.9956 106.376 21.7244 106.85 21.3126C106.95 21.2252 107.005 21.1278 107.017 21.0206C107.03 20.8965 107.013 20.778 106.966 20.6652Z"
          fill="var(--current-color-1)"/>
    <path d="M103.9 27.4681C104.886 27.5055 105.882 27.7414 106.887 28.1758C107.366 28.3824 107.74 28.6747 108.011 29.0527C108.163 29.265 108.241 29.5006 108.244 29.7594C108.25 30.167 108.151 30.5824 107.947 31.0055C107.795 31.3221 107.631 31.5535 107.457 31.6994C107.349 31.8532 107.217 31.9847 107.061 32.094C106.263 32.6554 105.339 33.0175 104.292 33.1804C103.617 33.2855 103.128 33.3458 102.827 33.3613C102.454 33.4064 102.064 33.551 101.656 33.795C101.382 33.9593 101.201 34.1674 101.111 34.4191C101.106 34.4344 101.096 34.4478 101.084 34.4579C101.072 34.468 101.058 34.4743 101.043 34.4762C99.0096 34.7365 96.9813 35.0362 94.9587 35.3754L90.3554 36.2746C84.3369 37.5813 78.4328 39.2911 72.6431 41.404C68.4444 42.9357 64.3471 44.7079 60.3513 46.7206C60.1721 46.7714 60.0109 46.8567 59.868 46.9766C59.8628 46.9809 59.8568 46.9841 59.8504 46.9859C59.844 46.9876 59.8374 46.988 59.831 46.9869C59.8246 46.9857 59.8187 46.9832 59.8137 46.9794C59.8087 46.9756 59.8047 46.9707 59.8021 46.965C59.7449 46.8416 59.7905 46.7534 59.9391 46.7005C60.1407 46.6293 60.1801 46.5147 60.0573 46.3567C59.9548 46.2256 59.817 46.1617 59.6441 46.1653C59.5485 46.1674 59.5363 46.1363 59.6075 46.0722C61.1342 44.7153 62.7356 43.4438 64.4116 42.2576C67.8529 39.8211 71.4697 37.6875 75.2618 35.8567C79.9864 33.576 84.8767 31.7481 89.9327 30.3729C91.4602 29.9159 93.0033 29.5221 94.5621 29.1913C97.2823 28.5242 100.027 27.985 102.797 27.5739C103.245 27.4928 103.612 27.4575 103.9 27.4681Z"
          fill="var(--current-color-1)"/>
    <path d="M110.622 56.0401L110.986 56.056C110.999 56.0567 111.012 56.0606 111.022 56.0674C111.032 56.0742 111.039 56.0835 111.043 56.0941L119.568 81.0567C119.574 81.0716 119.583 81.0844 119.596 81.0935C119.608 81.1026 119.623 81.1075 119.639 81.1075L122.428 81.1255C122.453 81.1258 122.477 81.1358 122.494 81.1534C122.512 81.1711 122.522 81.1949 122.522 81.2196V81.7179C122.522 81.7271 122.52 81.7361 122.517 81.7446C122.513 81.7531 122.508 81.7608 122.502 81.7672C122.495 81.7737 122.488 81.7789 122.479 81.7824C122.471 81.7859 122.462 81.7877 122.453 81.7877H112.214C112.201 81.7877 112.189 81.7853 112.177 81.7808C112.165 81.7763 112.155 81.7696 112.146 81.7613C112.137 81.7529 112.13 81.743 112.125 81.7321C112.121 81.7212 112.118 81.7095 112.118 81.6978L112.125 81.1985C112.125 81.1845 112.132 81.1712 112.143 81.1613C112.154 81.1515 112.169 81.1458 112.185 81.1456L115.48 81.0948C115.486 81.0947 115.492 81.093 115.497 81.0901C115.503 81.0872 115.507 81.0831 115.511 81.078C115.514 81.073 115.516 81.0672 115.517 81.0611C115.518 81.055 115.517 81.0488 115.516 81.043L113.054 73.6942C113.049 73.6791 113.039 73.666 113.026 73.6567C113.013 73.6474 112.997 73.6424 112.982 73.6424L105.633 73.6487C105.61 73.6488 105.587 73.6565 105.568 73.6705C105.549 73.6846 105.535 73.7044 105.528 73.727C105.009 75.366 104.484 76.9954 103.955 78.6153C103.85 78.9361 103.754 79.2598 103.666 79.5864C103.475 80.2965 103.624 80.763 104.114 80.9859C104.32 81.0797 104.725 81.1266 105.327 81.1266C105.836 81.1266 106.353 81.1266 106.879 81.1266C106.894 81.1266 106.907 81.1323 106.918 81.1427C106.928 81.153 106.933 81.167 106.933 81.1816V81.7327C106.933 81.7473 106.928 81.7613 106.918 81.7716C106.907 81.7819 106.894 81.7877 106.879 81.7877H99.7042C99.6926 81.7877 99.6811 81.7855 99.6704 81.7814C99.6596 81.7772 99.6499 81.7711 99.6417 81.7634C99.6335 81.7558 99.6271 81.7467 99.6227 81.7367C99.6184 81.7267 99.6162 81.716 99.6164 81.7052L99.6226 81.1985C99.623 81.1843 99.6293 81.1708 99.6404 81.1606C99.6515 81.1504 99.6664 81.1443 99.6823 81.1435C100.161 81.1181 100.555 81.1124 100.866 81.1266C101.771 81.1689 102.37 80.7612 102.664 79.9037C102.941 79.1985 103.197 78.4855 103.433 77.7648C105.793 70.5602 108.173 63.3286 110.573 56.0697C110.576 56.0607 110.583 56.0529 110.591 56.0475C110.6 56.0422 110.611 56.0396 110.622 56.0401ZM105.917 72.9876L112.76 72.9749C112.766 72.9749 112.772 72.9734 112.777 72.9707C112.782 72.9679 112.787 72.964 112.79 72.9592C112.793 72.9543 112.796 72.9487 112.797 72.9428C112.798 72.9369 112.797 72.9309 112.795 72.9252L109.28 62.4315C109.243 62.3222 109.207 62.3226 109.172 62.4326L105.835 72.8744C105.831 72.8874 105.83 72.9012 105.832 72.9147C105.834 72.9282 105.839 72.9409 105.847 72.952C105.855 72.963 105.866 72.972 105.878 72.9782C105.89 72.9844 105.903 72.9876 105.917 72.9876Z"
          fill="var(--current-color-1)"/>
    <path d="M31.9207 56.6378C32.5457 56.6286 33.2801 56.6706 34.124 56.7637C35.3774 56.9019 36.538 57.2175 37.6058 57.7104C39.0956 58.3987 40.1191 59.489 40.6764 60.9812C40.9184 61.63 41.0572 62.3197 41.0928 63.0503C41.1291 63.7951 41.0806 64.4894 40.9474 65.1332C40.7193 66.239 40.2018 67.2044 39.3948 68.0296C38.8313 68.6057 38.1586 69.0782 37.3767 69.4471C36.3054 69.9527 35.1908 70.2866 34.033 70.4488C33.3084 70.5504 32.6137 70.5958 31.949 70.5853C30.9056 70.5683 29.8925 70.3871 28.9098 70.0416C28.9012 70.0385 28.8921 70.0376 28.8832 70.0388C28.8742 70.0401 28.8657 70.0435 28.8583 70.0488C28.8509 70.0541 28.8449 70.0611 28.8407 70.0692C28.8366 70.0773 28.8344 70.0863 28.8344 70.0955V81.0673C28.8344 81.083 28.8406 81.0981 28.8516 81.1092C28.8626 81.1203 28.8775 81.1266 28.893 81.1266H32.3748C32.3931 81.1266 32.4107 81.1339 32.4236 81.147C32.4366 81.1601 32.4438 81.1778 32.4438 81.1964V81.6904C32.4438 81.7162 32.4337 81.7409 32.4156 81.7592C32.3976 81.7774 32.3731 81.7877 32.3476 81.7877H21.8186C21.7987 81.7876 21.7794 81.7811 21.7635 81.7691C21.7477 81.757 21.7362 81.7402 21.7307 81.7211C21.6931 81.5828 21.6854 81.4548 21.7077 81.3371C21.714 81.306 21.7129 81.2722 21.7046 81.2355C21.6843 81.1474 21.7272 81.1075 21.8333 81.116C21.9211 81.123 21.9679 81.1266 21.9734 81.1266C22.9973 81.1266 24.0442 81.1266 25.1141 81.1266C25.1297 81.1266 25.1446 81.1203 25.1556 81.1092C25.1666 81.0981 25.1727 81.083 25.1727 81.0673L25.1665 57.3053C25.1665 57.2912 25.1608 57.2778 25.1508 57.2679C25.1408 57.258 25.1272 57.2524 25.1131 57.2524L21.7788 57.2397C21.7637 57.2396 21.7491 57.2346 21.7375 57.2253C21.7258 57.2161 21.7179 57.2032 21.715 57.1889C21.6816 57.0274 21.685 56.8673 21.7255 56.7087C21.7294 56.694 21.738 56.681 21.7501 56.6717C21.7621 56.6623 21.777 56.6571 21.7924 56.6568C25.1682 56.6343 28.5443 56.6279 31.9207 56.6378ZM35.6358 58.8846C35.0213 58.2288 34.2803 57.7873 33.4126 57.5602C32.607 57.3486 31.7872 57.2436 30.953 57.245C30.2639 57.2457 29.5752 57.246 28.8868 57.246C28.8799 57.246 28.8731 57.2474 28.8667 57.2501C28.8604 57.2527 28.8546 57.2566 28.8498 57.2615C28.8449 57.2664 28.8411 57.2723 28.8384 57.2787C28.8358 57.2851 28.8344 57.292 28.8344 57.2989V69.1477C28.8345 69.1656 28.8392 69.1832 28.8482 69.1986C28.8573 69.2141 28.8702 69.2268 28.8857 69.2355C30.2165 69.9668 31.624 70.1382 33.1082 69.7496C34.7507 69.3194 35.9155 68.3892 36.6025 66.959C36.8731 66.3949 37.0566 65.7383 37.1528 64.9894C37.2414 64.3018 37.2553 63.6124 37.1947 62.9213C37.1221 62.0891 36.9941 61.397 36.8107 60.8448C36.568 60.1163 36.1763 59.4629 35.6358 58.8846Z"
          fill="var(--current-color-1)"/>
    <path d="M42.5983 56.6441L61.2448 56.6378C61.2759 56.6377 61.306 56.6495 61.3289 56.6709C61.3518 56.6923 61.3658 56.7217 61.3682 56.7531C61.4965 58.4618 61.6165 60.1575 61.7281 61.8402C61.7281 61.8423 61.7313 61.9358 61.7375 62.1205C61.7431 62.2855 61.7679 62.4456 61.8118 62.6008C61.8159 62.6147 61.8167 62.6294 61.8141 62.6437C61.8116 62.658 61.8058 62.6716 61.7971 62.6832C61.7885 62.6948 61.7773 62.7042 61.7644 62.7107C61.7515 62.7171 61.7373 62.7204 61.7229 62.7203H61.2699C61.2418 62.7203 61.2148 62.7091 61.1948 62.6891C61.1748 62.6691 61.1634 62.6419 61.1632 62.6135C61.1339 60.0267 59.9565 58.361 57.6312 57.6163C56.7824 57.3448 55.7536 57.2214 54.5449 57.246C52.7942 57.2425 51.0439 57.2446 49.294 57.2524C49.2871 57.2524 49.2803 57.2538 49.274 57.2564C49.2676 57.2591 49.2619 57.263 49.257 57.2679C49.2521 57.2728 49.2483 57.2786 49.2457 57.285C49.243 57.2914 49.2417 57.2983 49.2417 57.3053L49.2553 68.6241C49.2553 68.6383 49.2607 68.652 49.2705 68.6622C49.2802 68.6725 49.2935 68.6785 49.3076 68.6791C50.7179 68.7298 51.8621 68.7094 52.7402 68.6177C53.3407 68.5549 53.8791 68.3853 54.3555 68.1089C54.6394 67.9439 54.8835 67.7274 55.0879 67.4594C55.258 67.2372 55.4066 66.9516 55.5335 66.6025C55.8097 65.8444 55.9175 65.0528 55.8568 64.2277C55.8556 64.2124 55.8595 64.1971 55.8679 64.1845C55.8762 64.1718 55.8886 64.1624 55.9029 64.1579C56.0842 64.1029 56.2687 64.0958 56.4563 64.1367C56.4704 64.1397 56.4832 64.1477 56.4923 64.1594C56.5014 64.1712 56.5065 64.186 56.5065 64.2013V73.5631C56.5066 73.5782 56.5016 73.5928 56.4925 73.6044C56.4833 73.616 56.4705 73.6238 56.4563 73.6265C56.2736 73.6597 56.0915 73.6579 55.9102 73.6212C55.8959 73.6182 55.8832 73.6101 55.8744 73.5982C55.8656 73.5864 55.8612 73.5717 55.8621 73.5567C55.9053 72.7105 55.815 71.9104 55.5911 71.1565C55.4077 70.5401 55.022 70.0835 54.434 69.7866C53.8844 69.5088 53.3034 69.3638 52.691 69.3518C52.638 69.3511 52.556 69.3363 52.4452 69.3074C52.3719 69.2884 52.2872 69.2789 52.1909 69.2789C51.2166 69.2753 50.2607 69.2774 49.3233 69.2852C49.305 69.2852 49.2874 69.2927 49.2745 69.306C49.2615 69.3192 49.2542 69.3373 49.2542 69.3561L49.2417 81.0715C49.2417 81.0861 49.2474 81.1001 49.2576 81.1104C49.2678 81.1208 49.2817 81.1266 49.2961 81.1266C51.4694 81.1266 53.6368 81.1266 55.7982 81.1266C55.8617 81.1266 56.0005 81.11 56.2146 81.0768C56.3297 81.0585 56.4706 81.0486 56.6373 81.0472C57.3857 81.0395 58.2035 80.9062 59.0906 80.6474C60.6251 80.2002 61.6256 79.2041 62.0922 77.659C62.351 76.8 62.4789 75.9217 62.4761 75.0239C62.5166 74.8483 62.5316 74.6636 62.5211 74.4696C62.5206 74.4586 62.5222 74.4476 62.5258 74.4373C62.5294 74.4269 62.5351 74.4175 62.5423 74.4096C62.5496 74.4016 62.5583 74.3954 62.568 74.3911C62.5777 74.3869 62.5881 74.3848 62.5986 74.385L63.038 74.3871C63.0525 74.3871 63.0665 74.3927 63.0773 74.4029C63.0881 74.413 63.095 74.427 63.0965 74.4421C63.1147 74.6071 63.1237 74.8166 63.1237 75.0705C63.1224 79.0881 63.1224 81.1068 63.1237 81.1266C63.1349 81.3282 63.1265 81.5285 63.0986 81.7274C63.0966 81.7424 63.0894 81.7561 63.0785 81.7661C63.0675 81.776 63.0535 81.7814 63.039 81.7813L42.5523 81.7877C42.542 81.7877 42.5321 81.7837 42.5249 81.7765C42.5176 81.7694 42.5135 81.7597 42.5135 81.7496L42.5177 81.1868C42.518 81.1724 42.5239 81.1587 42.534 81.1486C42.5442 81.1385 42.5579 81.1329 42.5721 81.1329L45.5936 81.1202C45.6004 81.1202 45.6072 81.1188 45.6136 81.1162C45.6199 81.1135 45.6257 81.1096 45.6306 81.1047C45.6354 81.0998 45.6393 81.094 45.6419 81.0876C45.6445 81.0811 45.6459 81.0743 45.6459 81.0673L45.6522 57.3285C45.6522 57.3067 45.6436 57.2857 45.6283 57.2702C45.613 57.2547 45.5922 57.246 45.5706 57.246L42.5983 57.2397C42.5832 57.2397 42.5685 57.2347 42.5567 57.2255C42.545 57.2162 42.5367 57.2034 42.5334 57.1889C42.4958 57.0246 42.4958 56.8603 42.5334 56.696C42.5367 56.6813 42.545 56.6682 42.5567 56.6587C42.5685 56.6493 42.5832 56.6442 42.5983 56.6441Z"
          fill="var(--current-color-1)"/>
    <path d="M64.9651 56.6378C68.9776 56.6244 72.9497 56.6332 76.8813 56.6642C78.2225 56.6748 79.4888 56.9128 80.6801 57.3783C81.4096 57.6632 82.0081 58.0158 82.4754 58.4361C83.2349 59.118 83.7444 59.9608 84.0039 60.9643C84.1803 61.6456 84.2602 62.3444 84.2434 63.0609C84.2135 64.3458 83.7594 65.4329 82.8813 66.3222C82.46 66.7489 81.8884 67.1459 81.1666 67.5133C79.8463 68.1854 78.4339 68.5958 76.9294 68.7447C76.7146 68.7658 76.7146 68.7884 76.9294 68.8124C77.1345 68.8356 77.3626 68.867 77.6137 68.9065C77.6974 68.9192 77.9247 68.9502 78.2958 68.9996C79.1327 69.1096 79.9275 69.3508 80.6801 69.7231C81.0316 69.8973 81.3493 70.1149 81.6332 70.3758C81.9673 70.6833 82.2208 70.9809 82.3938 71.2686C82.8011 71.9463 83.0877 72.7147 83.2537 73.5736C83.2691 73.6519 83.3615 74.3508 83.531 75.6703C83.6935 76.934 83.7873 77.7567 83.8124 78.1382C83.8633 78.9033 83.9767 79.5821 84.1524 80.1745C84.2403 80.4714 84.3969 80.7256 84.6222 80.9372C84.8328 81.1361 85.0884 81.2605 85.389 81.3106C85.8919 81.3952 86.4119 81.3078 86.9489 81.0483C87.0961 80.977 87.2004 81.006 87.2617 81.135L87.359 81.3402C87.4183 81.4644 87.3761 81.5465 87.2324 81.5867C85.9142 81.9555 84.626 82.068 83.3678 81.9242C82.8907 81.8699 82.4297 81.751 81.9847 81.5677C81.6032 81.4104 81.2694 81.1914 80.9835 80.9108C80.7338 80.6653 80.5155 80.3392 80.3286 79.9323C80.0572 79.3427 79.8651 78.6851 79.7521 77.9594C79.5226 76.4904 79.3329 75.0162 79.183 73.5366C79.1258 72.9717 79.0236 72.4157 78.8764 71.8684C78.7411 71.3656 78.5162 70.9224 78.2016 70.5387C77.9059 70.1777 77.524 69.885 77.056 69.6607C76.5532 69.4202 76.0151 69.2778 75.4417 69.2334C75.2485 69.2186 75.0571 69.1896 74.8674 69.1466C74.8206 69.136 73.9077 69.1382 72.1284 69.153C72.1214 69.153 72.1145 69.1543 72.108 69.157C72.1015 69.1597 72.0956 69.1635 72.0907 69.1685C72.0857 69.1734 72.0818 69.1792 72.0791 69.1856C72.0764 69.192 72.0751 69.1989 72.0751 69.2059L72.0688 81.0546C72.0688 81.0737 72.0763 81.092 72.0896 81.1055C72.103 81.119 72.1211 81.1266 72.1399 81.1266H75.5976C75.6179 81.1266 75.6373 81.1342 75.6516 81.1479C75.666 81.1616 75.674 81.1802 75.674 81.1995L75.675 81.6872C75.6752 81.7003 75.6727 81.7134 75.6676 81.7256C75.6626 81.7378 75.6551 81.7488 75.6457 81.7582C75.6363 81.7675 75.625 81.775 75.6126 81.78C75.6003 81.7851 75.587 81.7877 75.5736 81.7877H65.0121C64.9813 81.7877 64.9518 81.7768 64.93 81.7573C64.9082 81.7379 64.896 81.7115 64.896 81.684V81.1847C64.896 81.171 64.9028 81.1578 64.915 81.1481C64.9272 81.1384 64.9437 81.1329 64.9609 81.1329L68.3453 81.1266C68.3617 81.1266 68.3774 81.12 68.389 81.1083C68.4006 81.0966 68.4071 81.0807 68.4071 81.0641L68.4008 57.3042C68.4008 57.2905 68.3952 57.2773 68.3852 57.2676C68.3752 57.2578 68.3616 57.2524 68.3474 57.2524L64.9483 57.246C64.9292 57.246 64.9108 57.2385 64.8973 57.225C64.8837 57.2115 64.8761 57.1932 64.8761 57.1741V56.7277C64.8761 56.704 64.8855 56.6813 64.9021 56.6645C64.9188 56.6477 64.9414 56.6381 64.9651 56.6378ZM78.8607 58.6286C78.5246 58.3141 78.2027 58.0845 77.8951 57.94C76.8984 57.4731 75.802 57.2418 74.6058 57.246C73.7793 57.2425 72.9532 57.2446 72.1274 57.2524C72.1135 57.2524 72.1002 57.258 72.0904 57.2679C72.0806 57.2778 72.0751 57.2912 72.0751 57.3053L72.0876 68.4125C72.0876 68.4267 72.0932 68.4404 72.1031 68.4507C72.1131 68.4609 72.1266 68.467 72.141 68.4675C72.814 68.4894 73.4874 68.4954 74.1612 68.4855C75.5031 68.5412 76.7725 68.2718 77.9694 67.6773C78.7261 67.3014 79.2942 66.7577 79.6736 66.0461C79.9994 65.4354 80.2089 64.7803 80.3024 64.0807C80.3749 63.5412 80.3892 62.9509 80.3453 62.3099C80.3048 61.7161 80.202 61.1311 80.0367 60.5549C79.8197 59.8011 79.4278 59.1589 78.8607 58.6286Z"
          fill="var(--current-color-1)"/>
    <path d="M88.5402 56.6378H98.4216C98.4439 56.6378 98.4653 56.6463 98.4811 56.6616C98.497 56.6768 98.5061 56.6975 98.5063 56.7192L98.5095 57.1804C98.5096 57.189 98.508 57.1975 98.5048 57.2055C98.5015 57.2134 98.4967 57.2206 98.4905 57.2267C98.4844 57.2329 98.4771 57.2377 98.469 57.241C98.461 57.2443 98.4523 57.246 98.4436 57.246L95.3531 57.2524C95.3392 57.2524 95.3259 57.258 95.3161 57.2679C95.3063 57.2778 95.3008 57.2912 95.3008 57.3053L95.2945 81.043C95.2945 81.0654 95.3034 81.087 95.3193 81.1028C95.3352 81.1187 95.3568 81.1276 95.3792 81.1276L98.4394 81.1456C98.4472 81.1456 98.4549 81.147 98.462 81.1497C98.4692 81.1524 98.4757 81.1563 98.4812 81.1612C98.4866 81.1661 98.4909 81.1719 98.4938 81.1784C98.4967 81.1848 98.4981 81.1916 98.498 81.1985L98.4875 81.7285C98.4872 81.7426 98.4807 81.7561 98.4694 81.766C98.458 81.7759 98.4427 81.7814 98.4268 81.7813H88.5004C88.4865 81.7814 88.4731 81.7759 88.4631 81.7662C88.4531 81.7565 88.4474 81.7434 88.4471 81.7295L88.4356 81.1995C88.4354 81.19 88.4372 81.1805 88.4407 81.1717C88.4442 81.1628 88.4494 81.1548 88.456 81.148C88.4627 81.1412 88.4706 81.1358 88.4793 81.1321C88.488 81.1284 88.4973 81.1266 88.5067 81.1266H91.5742C91.5897 81.1266 91.6046 81.1203 91.6156 81.1092C91.6266 81.0981 91.6328 81.083 91.6328 81.0673L91.6265 57.3053C91.6265 57.2912 91.6209 57.2778 91.6109 57.2679C91.6009 57.258 91.5873 57.2524 91.5731 57.2524L88.5256 57.246C88.5156 57.246 88.5058 57.2443 88.4966 57.2411C88.4875 57.238 88.4792 57.2333 88.4723 57.2275C88.4653 57.2217 88.4599 57.2148 88.4563 57.2073C88.4527 57.1997 88.451 57.1917 88.4513 57.1836L88.4628 56.7012C88.4631 56.6843 88.4713 56.6681 88.4858 56.6562C88.5003 56.6444 88.5199 56.6377 88.5402 56.6378Z"
          fill="var(--current-color-1)"/>
    <path d="M123.79 56.6378H134.353C134.372 56.6378 134.389 56.6451 134.402 56.6582C134.415 56.6713 134.422 56.6891 134.422 56.7076V57.1752C134.422 57.1845 134.421 57.1937 134.417 57.2023C134.414 57.2109 134.408 57.2187 134.402 57.2253C134.395 57.2319 134.388 57.2371 134.379 57.2406C134.371 57.2442 134.362 57.246 134.352 57.246H130.944C130.93 57.246 130.917 57.2516 130.907 57.2615C130.897 57.2714 130.892 57.2849 130.892 57.2989V81.0673C130.892 81.083 130.898 81.0981 130.909 81.1092C130.92 81.1203 130.935 81.1266 130.95 81.1266C132.977 81.1266 134.998 81.1266 137.012 81.1266C137.471 81.0765 137.931 81.0409 138.392 81.0197C139.572 80.9661 140.685 80.6682 141.732 80.1258C142 79.9876 142.28 79.775 142.571 79.488C142.613 79.4478 142.652 79.4058 142.691 79.3621C143.068 78.9242 143.351 78.4182 143.541 77.8441C143.778 77.1297 143.929 76.397 143.994 75.6459C144.054 74.964 144.091 74.281 144.105 73.5969C144.105 73.5792 144.111 73.5623 144.12 73.5499C144.13 73.5374 144.143 73.5304 144.156 73.5303L144.607 73.525C144.617 73.5248 144.627 73.5269 144.636 73.5311C144.645 73.5353 144.653 73.5415 144.66 73.5494C144.667 73.5573 144.672 73.5666 144.676 73.577C144.68 73.5873 144.682 73.5984 144.682 73.6096L144.701 81.6724C144.701 81.703 144.689 81.7323 144.668 81.7539C144.647 81.7755 144.618 81.7877 144.587 81.7877L123.784 81.7813C123.769 81.7814 123.754 81.7764 123.743 81.7671C123.731 81.7579 123.724 81.7449 123.721 81.7306C123.684 81.5472 123.682 81.3632 123.715 81.1784C123.717 81.1638 123.725 81.1506 123.737 81.1411C123.748 81.1317 123.762 81.1265 123.777 81.1266H127.171C127.187 81.1266 127.202 81.1203 127.213 81.1092C127.224 81.0981 127.23 81.083 127.23 81.0673L127.224 57.3053C127.224 57.2912 127.218 57.2778 127.208 57.2679C127.198 57.258 127.185 57.2524 127.171 57.2524L123.769 57.246C123.75 57.246 123.733 57.2387 123.719 57.2256C123.706 57.2125 123.699 57.1947 123.699 57.1762V56.7298C123.699 56.7177 123.701 56.7058 123.706 56.6946C123.71 56.6834 123.717 56.6733 123.726 56.6647C123.734 56.6562 123.744 56.6494 123.755 56.6448C123.766 56.6402 123.778 56.6378 123.79 56.6378Z"
          fill="var(--current-color-1)"/>
    <path d="M24.6381 90.1202L25.2711 90.4069C25.2772 90.4096 25.2827 90.4138 25.2869 90.4191C25.2912 90.4243 25.2941 90.4304 25.2954 90.4369C25.2968 90.4434 25.2965 90.4501 25.2946 90.4563C25.2927 90.4625 25.2893 90.468 25.2847 90.4725C24.9785 90.7687 24.6876 91.0271 24.4121 91.2479C24.3173 91.324 24.2155 91.3685 24.1066 91.3812C23.986 91.3946 23.872 91.396 23.7645 91.3854C23.7532 91.3845 23.7423 91.3805 23.7329 91.374C23.7236 91.3674 23.7161 91.3585 23.7112 91.3481C23.7063 91.3377 23.7042 91.3262 23.7052 91.3147C23.7061 91.3033 23.71 91.2923 23.7164 91.2828L24.4896 90.1562C24.5047 90.1342 24.5278 90.1185 24.5549 90.112C24.582 90.1054 24.6115 90.1083 24.6381 90.1202Z"
          fill="var(--current-color-1)"/>
    <path d="M56.1205 90.1234L56.699 90.1181C56.7173 90.1181 56.7349 90.1256 56.7478 90.1389C56.7608 90.1522 56.7681 90.1702 56.7681 90.189L56.7618 96.5381C56.7618 96.5527 56.7563 96.5667 56.7465 96.577C56.7367 96.5873 56.7233 96.5931 56.7095 96.5931H56.1205C56.106 96.5931 56.0922 96.5873 56.082 96.577C56.0718 96.5667 56.0661 96.5527 56.0661 96.5381L56.0629 96.1139C56.0615 95.9524 56.0089 95.9316 55.9049 96.0515C55.5646 96.4415 55.1656 96.6668 54.7081 96.7274C54.3559 96.774 54.0218 96.7535 53.7058 96.6661C53.4736 96.6019 53.265 96.4894 53.0802 96.3286C52.9177 96.1883 52.7635 96.013 52.6178 95.8029C52.3486 95.4143 52.2063 94.9563 52.1909 94.4288C52.1749 93.8695 52.2973 93.3752 52.5581 92.9457C53.038 92.1565 53.7438 91.8138 54.6757 91.9175C55.2246 91.9788 55.6629 92.2324 55.9907 92.6781C56.0242 92.7239 56.0413 92.7183 56.042 92.6611L56.0682 90.1773C56.0684 90.163 56.0741 90.1492 56.0838 90.1392C56.0936 90.1291 56.1068 90.1234 56.1205 90.1234ZM53.4924 95.6781C53.8976 96.0307 54.3269 96.1608 54.7803 96.0684C55.1227 95.9986 55.4087 95.8244 55.6382 95.5458C55.8349 95.3061 55.9684 95.0141 56.0389 94.67C56.163 94.067 56.0274 93.5469 55.6319 93.1097C55.3717 92.8212 55.0718 92.6435 54.7322 92.5765C54.3437 92.4996 53.9782 92.5814 53.6357 92.8219C53.3009 93.0575 53.0931 93.3741 53.0122 93.7719C52.9459 94.0984 52.9404 94.4309 52.9955 94.7694C53.0547 95.1389 53.2204 95.4418 53.4924 95.6781Z"
          fill="var(--current-color-1)"/>
    <path d="M81.9993 90.1128C82.2295 90.1142 82.4635 90.1333 82.7013 90.1699C82.7355 90.1748 82.7672 90.1907 82.792 90.2152C82.8168 90.2397 82.8334 90.2716 82.8394 90.3064C82.9224 90.7874 82.8196 90.945 82.5308 90.7793C82.4583 90.7376 82.3449 90.72 82.1908 90.7264C81.8539 90.7405 81.6231 90.8854 81.4982 91.1611C81.4543 91.2592 81.4323 91.396 81.4323 91.5716C81.4323 91.7133 81.4323 91.8547 81.4323 91.9958C81.4323 92.0098 81.4378 92.0232 81.4476 92.0332C81.4574 92.0431 81.4707 92.0486 81.4846 92.0486L82.7338 92.0539C82.7483 92.0542 82.7621 92.0601 82.7723 92.0704C82.7825 92.0807 82.7882 92.0945 82.7882 92.1089V92.5712C82.7882 92.5853 82.7826 92.5989 82.7726 92.609C82.7626 92.6191 82.7491 92.6249 82.7348 92.6252L81.4867 92.6305C81.4723 92.6305 81.4584 92.6361 81.4482 92.6463C81.438 92.6564 81.4323 92.6701 81.4323 92.6844V96.518C81.4323 96.5331 81.4271 96.5477 81.4177 96.5591C81.4083 96.5706 81.3953 96.5781 81.381 96.5804C81.1732 96.6149 80.9653 96.6132 80.7575 96.5751C80.7431 96.5724 80.7302 96.5644 80.721 96.5525C80.7118 96.5407 80.7069 96.5259 80.7073 96.5106C80.724 95.5106 80.7237 94.5102 80.7062 93.5095C80.7397 93.2359 80.738 92.9626 80.701 92.6897C80.699 92.6747 80.6918 92.661 80.6807 92.6509C80.6696 92.6408 80.6553 92.6351 80.6403 92.6347L80.1465 92.6315C80.1297 92.6313 80.1137 92.6256 80.1018 92.6158C80.0899 92.6059 80.083 92.5926 80.0827 92.5786L80.0681 92.0275C80.0679 92.0205 80.0695 92.0135 80.0726 92.007C80.0758 92.0004 80.0804 91.9945 80.0864 91.9895C80.0923 91.9845 80.0994 91.9805 80.1072 91.9777C80.115 91.975 80.1234 91.9736 80.1319 91.9735L80.6351 91.9725C80.6593 91.9722 80.6825 91.9625 80.6995 91.9455C80.7165 91.9284 80.7261 91.9055 80.7261 91.8815C80.7261 91.7207 80.7261 91.5698 80.7261 91.4288C80.7261 91.2412 80.7425 91.092 80.7753 90.9813C80.8687 90.6625 81.0522 90.4235 81.3256 90.2641C81.5 90.1618 81.7245 90.1114 81.9993 90.1128Z"
          fill="var(--current-color-1)"/>
    <path d="M127.891 90.1213L128.464 90.1223C128.484 90.1223 128.502 90.1305 128.516 90.145C128.53 90.1594 128.538 90.1791 128.538 90.1996V96.4905C128.538 96.5038 128.535 96.5169 128.53 96.5292C128.526 96.5414 128.519 96.5526 128.51 96.5619C128.502 96.5713 128.491 96.5786 128.48 96.5836C128.469 96.5886 128.457 96.5911 128.444 96.591L127.876 96.5836C127.861 96.5836 127.846 96.5775 127.835 96.5666C127.823 96.5557 127.817 96.5409 127.817 96.5254L127.813 96.0748C127.811 95.9238 127.766 95.9059 127.677 96.0208C127.322 96.4778 126.868 96.714 126.314 96.7295C125.985 96.7387 125.694 96.7095 125.442 96.6418C125.18 96.5719 124.936 96.426 124.71 96.2038C124.092 95.598 123.853 94.8216 123.993 93.8745C124.13 92.9365 124.634 92.3015 125.504 91.9693C125.612 91.9284 125.757 91.908 125.94 91.908C126.11 91.908 126.255 91.9115 126.376 91.9185C126.939 91.951 127.394 92.1985 127.741 92.6611C127.764 92.69 127.775 92.6865 127.775 92.6506L127.802 90.2144C127.802 90.1896 127.812 90.1659 127.829 90.1485C127.845 90.1311 127.868 90.1213 127.891 90.1213ZM125.314 95.731C125.705 96.0462 126.116 96.1541 126.547 96.0547C126.933 95.9651 127.252 95.7447 127.503 95.3935C127.74 95.0635 127.854 94.6837 127.844 94.2542C127.838 93.9884 127.781 93.7415 127.674 93.5137C127.558 93.2655 127.399 93.0613 127.197 92.9013C126.76 92.5557 126.299 92.4644 125.815 92.6273C125.519 92.7267 125.274 92.8988 125.081 93.1435C124.88 93.3988 124.765 93.6922 124.735 94.0236C124.706 94.3438 124.728 94.6477 124.802 94.9355C124.884 95.2563 125.055 95.5215 125.314 95.731Z"
          fill="var(--current-color-1)"/>
    <path d="M144.529 90.1297C144.541 90.1295 144.553 90.132 144.565 90.1371C144.576 90.1422 144.586 90.1499 144.595 90.1597C144.604 90.1694 144.611 90.181 144.616 90.1939C144.62 90.2067 144.623 90.2205 144.623 90.2345L144.629 92.7045C144.629 92.7398 144.644 92.7468 144.672 92.7257C144.771 92.6502 144.888 92.5412 145.022 92.3988C145.219 92.19 145.452 92.049 145.72 91.9757C145.946 91.9136 146.209 91.8882 146.51 91.8995C147.045 91.9185 147.495 92.1202 147.86 92.5046C148.168 92.8304 148.365 93.2175 148.449 93.6661C148.527 94.0836 148.531 94.5046 148.459 94.9291C148.342 95.6252 147.959 96.1615 147.311 96.5381C147.129 96.6439 146.928 96.707 146.71 96.7274C146.528 96.7451 146.322 96.7465 146.093 96.7317C145.517 96.6936 145.06 96.4214 144.72 95.915C144.662 95.8276 144.631 95.8367 144.629 95.9425L144.618 96.5381C144.617 96.5526 144.612 96.5664 144.602 96.5767C144.592 96.5869 144.578 96.5928 144.564 96.5931L143.985 96.5952C143.976 96.5953 143.967 96.5937 143.959 96.5903C143.951 96.5869 143.943 96.5818 143.937 96.5754C143.93 96.569 143.925 96.5614 143.922 96.553C143.919 96.5446 143.917 96.5356 143.917 96.5264L143.923 90.2038C143.923 90.1871 143.928 90.1712 143.938 90.1593C143.947 90.1474 143.96 90.1406 143.973 90.1403L144.529 90.1297ZM145.271 95.731C145.787 96.1188 146.295 96.1982 146.797 95.969C147.189 95.7898 147.465 95.4901 147.625 95.0698C147.781 94.6587 147.792 94.2183 147.659 93.7486C147.534 93.3064 147.298 92.9778 146.951 92.7627C146.689 92.6005 146.407 92.5349 146.108 92.5659C145.846 92.5934 145.592 92.6992 145.345 92.8833C144.828 93.2669 144.596 93.7962 144.65 94.4711C144.67 94.7264 144.728 94.9563 144.822 95.1608C144.932 95.3991 145.082 95.5892 145.271 95.731Z"
          fill="var(--current-color-1)"/>
    <path d="M150.388 90.1186L149.777 90.1197C149.744 90.1198 149.718 90.1468 149.718 90.1801L149.729 96.5377C149.729 96.571 149.755 96.5979 149.788 96.5978L150.399 96.5968C150.432 96.5967 150.459 96.5697 150.459 96.5364L150.448 90.1788C150.448 90.1455 150.421 90.1186 150.388 90.1186Z"
          fill="var(--current-color-1)"/>
    <path d="M15.8061 90.3603C16.4338 90.4675 16.989 90.762 17.4716 91.2436C17.4827 91.2548 17.4898 91.2691 17.4919 91.2843C17.494 91.2995 17.4909 91.3146 17.4831 91.3272C17.3953 91.4753 17.2544 91.6259 17.0605 91.7789C17.0368 91.7976 17.0074 91.8072 16.9775 91.8061C16.9476 91.8049 16.9191 91.793 16.8973 91.7726C16.6497 91.5413 16.378 91.3597 16.0823 91.2278C15.23 90.847 14.4523 90.9288 13.7492 91.4732C13.215 91.8872 12.905 92.4587 12.8192 93.1879C12.7376 93.8847 12.8708 94.4901 13.2188 95.0042C13.5334 95.469 13.9407 95.7856 14.4408 95.9542C14.9646 96.1312 15.5138 96.0949 16.0886 95.8452C16.4429 95.6915 16.748 95.4704 17.004 95.1819C17.0091 95.176 17.0153 95.171 17.022 95.1672C17.0288 95.1635 17.036 95.1611 17.0433 95.1602C17.0505 95.1593 17.0577 95.16 17.0642 95.1621C17.0708 95.1642 17.0766 95.1677 17.0814 95.1724L17.4413 95.5279C17.4743 95.5602 17.4919 95.606 17.4903 95.6555C17.4888 95.7049 17.4682 95.754 17.4329 95.7923C16.9133 96.3544 16.2755 96.6668 15.5194 96.7296C15.0758 96.7669 14.6772 96.7504 14.3236 96.6798C13.9212 96.6001 13.5508 96.4252 13.2125 96.1551C12.8059 95.8315 12.5043 95.427 12.3076 94.9418C11.8228 93.7436 11.9111 92.6315 12.5723 91.6054C12.9398 91.0349 13.4305 90.6555 14.0443 90.4672C14.612 90.293 15.1993 90.2574 15.8061 90.3603Z"
          fill="var(--current-color-1)"/>
    <path d="M32.6332 90.647H33.2002C33.2216 90.647 33.2421 90.6556 33.2572 90.6709C33.2723 90.6862 33.2808 90.7069 33.2808 90.7285V91.9788C33.2808 91.9974 33.2881 92.0151 33.301 92.0282C33.314 92.0413 33.3315 92.0486 33.3499 92.0486H34.6649C34.6794 92.0486 34.6932 92.0544 34.7034 92.0648C34.7136 92.0751 34.7193 92.0891 34.7193 92.1037V92.6537C34.7193 92.6611 34.7179 92.6685 34.7152 92.6753C34.7125 92.6821 34.7085 92.6883 34.7035 92.6934C34.6986 92.6985 34.6927 92.7025 34.6862 92.7052C34.6798 92.7078 34.6729 92.709 34.666 92.7087L33.3624 92.6823C33.3518 92.682 33.3412 92.6838 33.3313 92.6876C33.3214 92.6913 33.3124 92.6969 33.3048 92.7041C33.2972 92.7113 33.2911 92.7199 33.287 92.7295C33.2829 92.739 33.2808 92.7492 33.2808 92.7595V95.4771C33.2808 95.6033 33.3261 95.7098 33.4168 95.7965C33.4796 95.8558 33.5469 95.9069 33.6187 95.9499C33.6899 95.9922 33.7694 96.0166 33.8573 96.0229C34.1049 96.0412 34.3396 95.9961 34.5614 95.8875C34.5673 95.8847 34.5738 95.8832 34.5804 95.883C34.5869 95.8828 34.5934 95.884 34.5994 95.8865C34.6053 95.889 34.6106 95.8928 34.6149 95.8975C34.6192 95.9023 34.6223 95.9079 34.6241 95.914C34.7622 96.3879 34.6321 96.6453 34.2339 96.6862C34.024 96.708 33.79 96.7059 33.5319 96.6798C33.1629 96.6418 32.8885 96.464 32.7085 96.1467C32.6193 95.9887 32.5746 95.7683 32.5746 95.4855C32.5746 94.6216 32.5746 93.7281 32.5746 92.805C32.5746 92.778 32.5633 92.752 32.5431 92.7328C32.5229 92.7136 32.4955 92.7027 32.4669 92.7024L31.9908 92.6971C31.976 92.6971 31.9618 92.6909 31.9513 92.6798C31.9407 92.6687 31.9346 92.6537 31.9343 92.6379L31.9228 92.1079C31.9227 92.1007 31.9241 92.0936 31.9269 92.0869C31.9297 92.0803 31.934 92.0742 31.9393 92.0691C31.9447 92.064 31.9511 92.0599 31.9581 92.0571C31.9652 92.0543 31.9727 92.0529 31.9804 92.0529L32.4888 92.0518C32.5117 92.0515 32.5335 92.0424 32.5495 92.0264C32.5656 92.0103 32.5746 91.9887 32.5746 91.9661V90.7063C32.5746 90.6906 32.5808 90.6755 32.5918 90.6644C32.6028 90.6533 32.6177 90.647 32.6332 90.647Z"
          fill="var(--current-color-1)"/>
    <path d="M25.9229 93.2049C26.0923 93.6287 26.1673 94.0797 26.1478 94.5578C26.147 94.573 26.1405 94.5872 26.1296 94.5977C26.1187 94.6081 26.1042 94.6139 26.0892 94.6139H22.6462C22.6329 94.6138 22.6197 94.6167 22.6077 94.6224C22.5957 94.628 22.585 94.6363 22.5765 94.6466C22.568 94.6569 22.5619 94.669 22.5585 94.682C22.5552 94.695 22.5548 94.7086 22.5572 94.7218C22.7072 95.5279 23.1846 95.9877 23.9895 96.1012C24.0271 96.1068 24.123 96.1026 24.2772 96.0885C24.7577 96.0441 25.1264 95.8812 25.383 95.5998C25.48 95.494 25.5818 95.4891 25.6885 95.585C25.9445 95.8156 25.9902 95.988 25.8256 96.1022C25.7063 96.1862 25.6467 96.2281 25.6467 96.2281C25.2596 96.5603 24.8073 96.7296 24.2897 96.7359C24.2606 96.7365 24.2286 96.7488 24.1987 96.7708C24.1325 96.8188 24.0672 96.8191 24.0031 96.7719C23.9727 96.7494 23.94 96.7377 23.911 96.7391C23.6146 96.7496 23.3182 96.6693 23.0217 96.4979C22.3696 96.122 21.9794 95.5733 21.851 94.8519C21.851 94.8519 21.851 94.6287 21.851 94.1823C21.851 93.9143 21.8741 93.6936 21.9201 93.5201C22.153 92.64 22.7142 92.1054 23.6034 91.9164C24.1593 91.7979 24.6604 91.8833 25.1068 92.1724C25.4688 92.4065 25.7408 92.7507 25.9229 93.2049ZM24.7344 92.7828C24.5502 92.6375 24.3494 92.5511 24.1318 92.5236C23.9309 92.4989 23.7248 92.5367 23.5135 92.6368C23.0099 92.8759 22.6943 93.3156 22.5666 93.9559C22.5635 93.9714 22.5639 93.9875 22.5676 94.0029C22.5713 94.0182 22.5783 94.0326 22.5881 94.0448C22.5979 94.0571 22.6103 94.0669 22.6243 94.0737C22.6383 94.0805 22.6537 94.0839 22.6692 94.0839L25.3098 94.067C25.3167 94.0669 25.3236 94.0653 25.33 94.0625C25.3363 94.0597 25.3421 94.0557 25.3468 94.0507C25.3516 94.0457 25.3553 94.0397 25.3578 94.0333C25.3602 94.0268 25.3613 94.0199 25.361 94.013C25.3401 93.5067 25.1312 93.0966 24.7344 92.7828Z"
          fill="var(--current-color-1)"/>
    <path d="M62.02 93.0282C62.2425 93.4922 62.3429 93.9965 62.3213 94.5409C62.3208 94.5554 62.3149 94.5691 62.305 94.5792C62.295 94.5892 62.2817 94.5948 62.268 94.5948L58.8427 94.6139C58.8264 94.614 58.8103 94.6178 58.7957 94.6249C58.781 94.6321 58.7681 94.6424 58.758 94.6552C58.7478 94.668 58.7407 94.6829 58.7371 94.6988C58.7334 94.7147 58.7334 94.7313 58.737 94.7472C58.9239 95.5427 59.4422 95.9986 60.2917 96.1149C60.3635 96.1252 60.4369 96.1107 60.4999 96.0737C60.5278 96.0575 60.5588 96.0561 60.593 96.0695C60.63 96.0837 60.6644 96.0875 60.6892 96.08C61.0463 95.9714 61.3574 95.786 61.6224 95.5236C61.6341 95.5122 61.6483 95.5041 61.6634 95.5004C61.6786 95.4966 61.6941 95.4974 61.7082 95.5025C61.9021 95.5695 62.0385 95.6996 62.1173 95.8928C62.1235 95.9076 62.1252 95.924 62.1222 95.9399C62.1193 95.9559 62.1117 95.9708 62.1006 95.9827C61.6563 96.4623 61.106 96.7172 60.4497 96.7475C60.4183 96.7489 60.3848 96.7574 60.3492 96.7729C60.3164 96.7884 60.2823 96.8004 60.2467 96.8089C60.1721 96.8272 60.0151 96.8008 59.7759 96.7295C58.5679 96.3692 57.975 95.5405 57.9974 94.2436C58.0078 93.64 58.1843 93.1132 58.5267 92.6632C58.8741 92.2084 59.3606 91.9531 59.9862 91.8974C60.4409 91.8572 60.8514 91.9383 61.2176 92.1407C61.5586 92.3283 61.8261 92.6241 62.02 93.0282ZM60.4653 92.567C60.0211 92.4372 59.6092 92.5652 59.2298 92.951C58.9724 93.2126 58.8078 93.5532 58.736 93.9728C58.7337 93.9867 58.7344 94.0008 58.738 94.0144C58.7416 94.0279 58.7481 94.0404 58.757 94.0511C58.7658 94.0618 58.7769 94.0703 58.7894 94.0762C58.8018 94.082 58.8154 94.085 58.8291 94.085H61.4561C61.4712 94.085 61.4861 94.0817 61.4998 94.0754C61.5135 94.069 61.5257 94.0598 61.5355 94.0482C61.5454 94.0366 61.5526 94.0231 61.5568 94.0084C61.5609 93.9938 61.5619 93.9784 61.5597 93.9633C61.5102 93.622 61.3919 93.3283 61.205 93.0822C61.009 92.8247 60.7625 92.653 60.4653 92.567Z"
          fill="var(--current-color-1)"/>
    <path d="M96.4139 92.6654C96.417 92.6703 96.4212 92.6743 96.4262 92.6771C96.4313 92.6799 96.4369 92.6813 96.4427 92.6813C96.4486 92.6813 96.4543 92.6799 96.4595 92.6771C96.4647 92.6743 96.4692 92.6703 96.4725 92.6654C96.7215 92.3078 97.0591 92.0649 97.4852 91.9365C97.594 91.9034 97.8165 91.8917 98.1527 91.9016C98.4136 91.9094 98.6277 91.9549 98.7951 92.0381C99.111 92.1939 99.3475 92.4274 99.5044 92.7384C99.609 92.9457 99.6655 93.2542 99.6739 93.664C99.6948 94.5892 99.6994 95.5402 99.6875 96.5169C99.6872 96.5368 99.6797 96.5558 99.6665 96.5697C99.6534 96.5836 99.6357 96.5912 99.6174 96.591L99.0284 96.5836C99.0143 96.5833 99.0009 96.5769 98.9909 96.5659C98.981 96.5548 98.9753 96.5399 98.975 96.5243C98.9527 95.5349 98.9464 94.5455 98.9562 93.5561C98.9032 93.2034 98.7522 92.9383 98.5032 92.7606C98.2779 92.5998 98.008 92.5391 97.6934 92.5786C97.1515 92.6463 96.8139 92.9901 96.6807 93.61C96.6298 93.8448 96.604 94.091 96.6033 94.3484L96.596 96.5381C96.596 96.5527 96.5906 96.5667 96.581 96.577C96.5713 96.5873 96.5583 96.5931 96.5447 96.5931H95.9557C95.9415 96.5931 95.928 96.5873 95.918 96.577C95.908 96.5667 95.9023 96.5527 95.9023 96.5381C95.8947 95.5529 95.8926 94.5677 95.8961 93.5825C95.7754 92.9534 95.4462 92.6167 94.9084 92.5723C94.5799 92.5455 94.294 92.6283 94.0506 92.8209C93.7848 93.0303 93.6328 93.3195 93.5944 93.6883C93.5846 93.7849 93.5752 93.8618 93.5662 93.9189C93.5501 94.0211 93.5424 94.098 93.5431 94.1495C93.5508 94.9415 93.5442 95.7334 93.5233 96.5254C93.523 96.5409 93.5172 96.5557 93.5073 96.5665C93.4973 96.5774 93.4839 96.5835 93.4699 96.5836L92.9008 96.592C92.8889 96.5922 92.8771 96.5898 92.866 96.5849C92.855 96.5801 92.845 96.573 92.8365 96.5639C92.828 96.5548 92.8213 96.5441 92.8167 96.5322C92.8121 96.5203 92.8098 96.5076 92.8098 96.4947L92.816 92.1333C92.816 92.1169 92.8213 92.1012 92.8309 92.0895C92.8405 92.0778 92.8536 92.0711 92.8673 92.0709L93.4511 92.0603C93.4746 92.0598 93.4974 92.0699 93.5145 92.0883C93.5316 92.1068 93.5415 92.1321 93.5421 92.1587C93.5456 92.2856 93.5435 92.4143 93.5358 92.5448C93.5337 92.585 93.5431 92.6104 93.5641 92.6209C93.5748 92.6263 93.5887 92.6248 93.6028 92.6168C93.617 92.6087 93.6305 92.5947 93.6404 92.5776C93.8092 92.2884 94.0373 92.0938 94.3247 91.9936C94.5695 91.9083 94.8516 91.8762 95.171 91.8974C95.6886 91.9305 96.1029 92.1865 96.4139 92.6654Z"
          fill="var(--current-color-1)"/>
    <path d="M120.109 92.8748C120.385 93.3487 120.503 93.9044 120.465 94.542C120.464 94.5563 120.458 94.5697 120.448 94.5795C120.438 94.5894 120.425 94.5949 120.411 94.5948L116.993 94.6149C116.977 94.6149 116.962 94.6184 116.948 94.6251C116.934 94.6319 116.921 94.6417 116.911 94.6539C116.902 94.6662 116.895 94.6804 116.891 94.6956C116.888 94.7109 116.888 94.7267 116.891 94.7419C117.038 95.3815 117.373 95.8032 117.896 96.0071C118.213 96.1312 118.54 96.1463 118.878 96.0525C119.212 95.9601 119.508 95.7838 119.765 95.5236C119.777 95.5122 119.791 95.5042 119.806 95.5005C119.822 95.4967 119.838 95.4974 119.852 95.5025C120.054 95.5716 120.194 95.7063 120.275 95.9066C120.28 95.921 120.281 95.937 120.278 95.9526C120.274 95.9682 120.266 95.9827 120.255 95.9944C119.663 96.5966 118.928 96.8417 118.049 96.7295C117.62 96.6745 117.255 96.5152 116.955 96.2514C116.51 95.8593 116.25 95.3865 116.176 94.8329C116.119 94.4125 116.137 94.0032 116.228 93.6047C116.323 93.1886 116.527 92.818 116.841 92.4929C117.158 92.1636 117.543 91.9672 117.995 91.9037C118.949 91.769 119.654 92.0927 120.109 92.8748ZM119.076 92.7828C118.758 92.5409 118.429 92.4608 118.087 92.5427C117.785 92.6146 117.523 92.7842 117.3 93.0515C117.085 93.3117 116.948 93.6319 116.889 94.012C116.888 94.021 116.888 94.0302 116.891 94.039C116.893 94.0477 116.898 94.0558 116.904 94.0627C116.909 94.0697 116.917 94.0752 116.925 94.0791C116.933 94.0829 116.942 94.0849 116.951 94.085L119.639 94.0786C119.645 94.0786 119.652 94.0773 119.658 94.0746C119.665 94.0719 119.67 94.068 119.675 94.0631C119.68 94.0581 119.684 94.0523 119.686 94.0459C119.689 94.0395 119.69 94.0326 119.69 94.0257C119.679 93.5003 119.474 93.086 119.076 92.7828Z"
          fill="var(--current-color-1)"/>
    <path d="M154.726 92.0497C155.116 92.2232 155.42 92.5187 155.638 92.9362C155.89 93.4178 156.01 93.9591 155.999 94.5599C155.999 94.5743 155.993 94.5881 155.983 94.5982C155.972 94.6082 155.958 94.6139 155.944 94.6139H152.456C152.448 94.6139 152.441 94.6156 152.434 94.6189C152.427 94.6222 152.421 94.627 152.416 94.633C152.411 94.6389 152.407 94.6459 152.405 94.6534C152.404 94.6609 152.403 94.6687 152.405 94.6763C152.542 95.421 152.947 95.885 153.62 96.0684C153.784 96.1128 153.931 96.129 154.062 96.1171C154.143 96.11 154.285 96.0793 154.489 96.025C154.787 95.9467 155.034 95.7948 155.229 95.5691C155.34 95.4422 155.442 95.4386 155.535 95.5585L155.792 95.8896C155.801 95.9008 155.805 95.9156 155.803 95.9313C155.801 95.9471 155.793 95.9627 155.782 95.9753C155.417 96.3745 154.967 96.6259 154.431 96.7295C154.274 96.7098 154.125 96.7292 153.982 96.7877C153.968 96.7936 153.952 96.7958 153.936 96.7942C153.921 96.7925 153.905 96.787 153.891 96.7782C153.88 96.7712 153.868 96.7645 153.856 96.7581C153.844 96.7525 153.83 96.7496 153.815 96.7496C153.219 96.7412 152.708 96.4986 152.28 96.0219C151.973 95.6798 151.783 95.3163 151.711 94.9312C151.664 94.6802 151.655 94.3865 151.686 94.0501C151.715 93.7313 151.783 93.4489 151.889 93.2027C152.21 92.4601 152.76 92.0317 153.539 91.9175C153.984 91.8526 154.38 91.8967 154.726 92.0497ZM154.804 92.9943C154.482 92.6333 154.12 92.4799 153.719 92.5342C153.384 92.5793 153.091 92.7412 152.841 93.0197C152.602 93.2877 152.462 93.6167 152.421 94.0067C152.421 94.0134 152.421 94.0202 152.423 94.0267C152.425 94.0331 152.429 94.0391 152.433 94.0441C152.438 94.0492 152.444 94.0533 152.45 94.0562C152.456 94.059 152.463 94.0605 152.469 94.0606L155.157 94.0797C155.171 94.0797 155.185 94.074 155.195 94.0639C155.205 94.0538 155.211 94.04 155.211 94.0257C155.213 93.6442 155.077 93.3004 154.804 92.9943Z"
          fill="var(--current-color-1)"/>
    <path d="M39.7108 93.3477C39.8321 93.7221 39.8872 94.1259 39.8761 94.5589C39.8758 94.5736 39.8698 94.5876 39.8595 94.5978C39.8491 94.6081 39.8351 94.6139 39.8206 94.6139H36.3859C36.3722 94.6139 36.3587 94.6171 36.3463 94.623C36.334 94.629 36.323 94.6376 36.3143 94.6483C36.3056 94.659 36.2994 94.6715 36.296 94.685C36.2927 94.6984 36.2923 94.7124 36.2949 94.726C36.4156 95.3755 36.7542 95.8043 37.3108 96.0123C37.6121 96.1252 37.9235 96.1463 38.245 96.0758C38.5917 96.0003 38.8769 95.8413 39.1008 95.5987C39.1345 95.5623 39.1799 95.5392 39.2287 95.5333C39.2776 95.5275 39.3268 95.5395 39.3676 95.567C39.6034 95.7264 39.6954 95.8674 39.6438 95.9901C39.6243 96.036 39.5319 96.1234 39.3666 96.2525C39.0918 96.4683 38.7633 96.6185 38.381 96.7031C37.671 96.8604 37.0412 96.7391 36.4916 96.3392C36.0138 95.9922 35.7108 95.5053 35.5825 94.8783C35.5825 94.8783 35.5825 94.6668 35.5825 94.2436C35.5825 93.9848 35.6009 93.775 35.6379 93.6142C35.7955 92.9323 36.1648 92.439 36.7458 92.1343C37.1162 91.9404 37.5043 91.8561 37.9103 91.8815C38.3545 91.9097 38.742 92.0656 39.0726 92.3491C39.3641 92.6001 39.5769 92.933 39.7108 93.3477ZM39.0025 94.0913C39.0192 94.0913 39.0357 94.0877 39.0508 94.0808C39.066 94.0739 39.0795 94.0638 39.0904 94.0513C39.1014 94.0387 39.1094 94.024 39.1141 94.0081C39.1188 93.9922 39.12 93.9755 39.1176 93.9591C39.0653 93.5811 38.9279 93.2623 38.7054 93.0028C38.4947 92.7588 38.252 92.6065 37.9772 92.5458C37.671 92.4788 37.3694 92.5427 37.0722 92.7373C36.6524 93.0116 36.3954 93.4256 36.3012 93.9792C36.2991 93.9922 36.2998 94.0056 36.3033 94.0183C36.3068 94.031 36.3129 94.0428 36.3214 94.0529C36.3299 94.063 36.3404 94.0711 36.3523 94.0766C36.3641 94.0821 36.3771 94.085 36.3901 94.085L39.0025 94.0913Z"
          fill="var(--current-color-1)"/>
    <path d="M73.6642 91.89C74.1155 91.8759 74.5124 91.9778 74.8548 92.1957C75.1736 92.3988 75.4208 92.702 75.5966 93.1054C75.7877 93.5441 75.8752 94.0289 75.8592 94.5599C75.8586 94.5744 75.8526 94.5882 75.8422 94.5982C75.8319 94.6083 75.8181 94.6139 75.8037 94.6139H72.3659C72.3519 94.6139 72.338 94.6171 72.3253 94.6232C72.3126 94.6293 72.3014 94.6382 72.2926 94.6493C72.2838 94.6603 72.2775 94.6733 72.2743 94.6871C72.271 94.7009 72.2709 94.7153 72.2738 94.7292C72.4078 95.359 72.7335 95.7803 73.251 95.9933C73.5572 96.1195 73.8721 96.1463 74.1957 96.0737C74.5242 95.9997 74.8161 95.8406 75.0714 95.5966C75.146 95.5261 75.213 95.4926 75.2723 95.4961C75.349 95.5004 75.4093 95.5413 75.4532 95.6188C75.4707 95.6499 75.4934 95.6738 75.5213 95.6908C75.7082 95.8071 75.7235 95.9397 75.5673 96.0885C75.1258 96.5074 74.579 96.7345 73.9268 96.7697C73.2594 96.8057 72.6815 96.5741 72.1933 96.0748C71.9324 95.8082 71.7521 95.5152 71.6524 95.1957C71.5673 94.9207 71.5268 94.5878 71.531 94.1971C71.5373 93.6188 71.7099 93.1164 72.0489 92.6897C72.4562 92.1777 72.9947 91.9111 73.6642 91.89ZM74.9689 94.0913C74.9851 94.0913 75.0012 94.0878 75.0161 94.081C75.0309 94.0743 75.0442 94.0644 75.0551 94.0522C75.0659 94.0399 75.0741 94.0255 75.0791 94.0098C75.084 93.9941 75.0857 93.9776 75.0839 93.9612C75.0351 93.5451 74.8789 93.2041 74.6152 92.9383C74.2735 92.5941 73.8993 92.4633 73.4927 92.5458C73.1809 92.6093 72.9134 92.7754 72.6902 93.0441C72.4831 93.2937 72.345 93.5966 72.2759 93.9527C72.2727 93.9686 72.273 93.985 72.2769 94.0008C72.2808 94.0166 72.2882 94.0313 72.2985 94.0439C72.3088 94.0566 72.3218 94.0668 72.3365 94.0739C72.3512 94.081 72.3673 94.0848 72.3837 94.085L74.9689 94.0913Z"
          fill="var(--current-color-1)"/>
    <path d="M108.326 91.8963C109.135 91.8822 109.674 92.2415 109.941 92.9743C110.003 93.1428 110.047 93.3632 110.072 93.6354C110.082 93.7405 110.08 94.708 110.066 96.5381C110.066 96.5524 110.06 96.5661 110.051 96.5762C110.041 96.5863 110.027 96.592 110.014 96.592L109.423 96.5973C109.408 96.5973 109.394 96.5911 109.383 96.58C109.372 96.5689 109.366 96.5538 109.366 96.5381C109.366 95.7581 109.366 95.0021 109.366 94.2701C109.366 94.146 109.346 93.9513 109.307 93.6862C109.272 93.4485 109.219 93.2627 109.149 93.1287C108.906 92.664 108.499 92.4802 107.927 92.5776C107.388 92.6692 107.04 93.0042 106.881 93.5825C106.887 93.7094 106.877 93.8343 106.852 93.957C106.819 94.1156 106.803 94.2384 106.803 94.3251C106.803 95.0423 106.803 95.78 106.803 96.5381C106.803 96.5538 106.797 96.5689 106.786 96.58C106.775 96.5911 106.76 96.5973 106.744 96.5973H106.15C106.136 96.5973 106.122 96.5916 106.112 96.5815C106.102 96.5714 106.097 96.5577 106.097 96.5434L106.103 92.1079C106.103 92.0933 106.108 92.0793 106.118 92.069C106.128 92.0587 106.141 92.0529 106.155 92.0529H106.744C106.758 92.053 106.771 92.0588 106.78 92.0692C106.79 92.0796 106.796 92.0938 106.797 92.1089L106.829 92.5723C106.832 92.6082 106.845 92.6118 106.868 92.5829C107.226 92.1364 107.712 91.9076 108.326 91.8963Z"
          fill="var(--current-color-1)"/>
    <path d="M68.6686 91.9058C68.8981 91.9157 69.1052 91.9654 69.2901 92.055C69.8997 92.3505 70.293 92.799 70.4702 93.4006C70.6166 93.8991 70.6418 94.4111 70.5455 94.9365C70.4458 95.4824 70.1755 95.9457 69.7347 96.3265C69.531 96.5021 69.2949 96.6206 69.0264 96.682C68.79 96.7355 68.5333 96.7553 68.2564 96.7412C67.6503 96.7102 67.1576 96.4348 66.7781 95.915C66.7356 95.8565 66.714 95.8635 66.7133 95.9362L66.7007 97.9397C66.7007 97.9468 66.6993 97.9538 66.6967 97.9603C66.694 97.9669 66.69 97.9728 66.6851 97.9779C66.6801 97.9829 66.6743 97.9868 66.6678 97.9895C66.6613 97.9923 66.6544 97.9936 66.6474 97.9936L66.0897 98C66.0661 98 66.0435 97.9903 66.0269 97.973C66.0102 97.9558 66.0008 97.9324 66.0008 97.908V92.1322C66.0008 92.1226 66.0025 92.1131 66.0058 92.1042C66.0091 92.0953 66.014 92.0873 66.02 92.0806C66.0261 92.0739 66.0332 92.0686 66.0411 92.0651C66.0489 92.0616 66.0573 92.06 66.0657 92.0603L66.6495 92.0709C66.6562 92.0709 66.6628 92.0727 66.6689 92.0759C66.675 92.0792 66.6805 92.0839 66.6851 92.0898C66.6897 92.0957 66.6932 92.1027 66.6956 92.1103C66.6979 92.118 66.6989 92.1262 66.6986 92.1343C66.6916 92.3311 66.693 92.4608 66.7028 92.5236C66.7342 92.7232 66.8168 92.7479 66.9508 92.5977C67.2897 92.2175 67.6531 91.9961 68.0409 91.9333C68.2146 91.9051 68.4238 91.896 68.6686 91.9058ZM68.3073 96.0906C68.7232 96.0876 69.1208 95.8992 69.4126 95.5666C69.7044 95.234 69.8666 94.7846 69.8633 94.3172C69.8617 94.0858 69.8196 93.8569 69.7393 93.6436C69.659 93.4304 69.5422 93.2369 69.3954 93.0743C69.2487 92.9117 69.0749 92.7831 68.884 92.6959C68.6931 92.6087 68.4889 92.5645 68.283 92.566C68.077 92.5674 67.8734 92.6144 67.6838 92.7044C67.4941 92.7943 67.3221 92.9253 67.1776 93.09C67.0331 93.2546 66.919 93.4497 66.8416 93.6641C66.7643 93.8785 66.7253 94.1079 66.7269 94.3394C66.7301 94.8067 66.8985 95.2538 67.1948 95.5822C67.4912 95.9107 67.8914 96.0935 68.3073 96.0906Z"
          fill="var(--current-color-1)"/>
    <path d="M86.2396 91.9407C86.7669 92.0169 87.2066 92.2623 87.5589 92.677C87.8685 93.0409 88.0495 93.4601 88.1018 93.9348C88.1493 94.3685 88.1175 94.7652 88.0066 95.1248C87.8881 95.5078 87.6603 95.8508 87.3235 96.1541C87.048 96.403 86.7547 96.5712 86.4436 96.6587C86.1556 96.7398 85.8295 96.7662 85.4654 96.738C84.9549 96.6992 84.5064 96.5046 84.12 96.1541C83.7524 95.8212 83.5223 95.3865 83.4295 94.8498C83.2461 93.7941 83.546 92.9552 84.3292 92.3332C84.5991 92.1188 84.9085 91.9862 85.2572 91.9355C85.5739 91.8896 85.9013 91.8914 86.2396 91.9407ZM85.8446 96.0868C86.0583 96.0747 86.2674 96.017 86.4599 95.917C86.6525 95.817 86.8247 95.6766 86.9667 95.5039C87.1088 95.3312 87.2179 95.1295 87.2878 94.9104C87.3577 94.6912 87.3871 94.4589 87.3743 94.2268C87.3614 93.9946 87.3066 93.767 87.213 93.5572C87.1193 93.3473 86.9887 93.1591 86.8285 93.0035C86.6683 92.8479 86.4817 92.7278 86.2793 92.6501C86.0769 92.5724 85.8628 92.5386 85.6491 92.5507C85.2174 92.5751 84.8138 92.7848 84.5269 93.1336C84.2401 93.4824 84.0935 93.9418 84.1194 94.4108C84.1322 94.6429 84.187 94.8705 84.2807 95.0804C84.3743 95.2902 84.505 95.4784 84.6652 95.634C84.8254 95.7896 85.012 95.9097 85.2144 95.9874C85.4167 96.0651 85.6309 96.0989 85.8446 96.0868Z"
          fill="var(--current-color-1)"/>
    <path d="M114.433 92.0508C114.737 92.177 115.021 92.378 115.283 92.6537C115.306 92.6772 115.319 92.7084 115.319 92.7403C115.319 92.7722 115.307 92.8023 115.285 92.824L114.915 93.1879C114.9 93.2025 114.881 93.2107 114.86 93.2109C114.839 93.2111 114.819 93.2033 114.803 93.189C114.619 93.019 114.434 92.8776 114.25 92.7648C114.046 92.6407 113.829 92.5737 113.6 92.5638C112.891 92.5342 112.387 92.8702 112.088 93.5719C111.884 94.0522 111.868 94.5296 112.04 95.0042C112.189 95.4111 112.463 95.7119 112.862 95.9066C113.337 96.1372 113.786 96.1492 114.211 95.9425C114.398 95.8523 114.619 95.6858 114.873 95.4432C114.885 95.4316 114.901 95.4245 114.916 95.4233C114.931 95.4221 114.945 95.427 114.955 95.4369L115.324 95.8188C115.342 95.8377 115.35 95.8642 115.348 95.8928C115.345 95.9213 115.331 95.9494 115.309 95.9711C114.935 96.3385 114.514 96.5913 114.048 96.7295C114.048 96.7295 113.821 96.7295 113.368 96.7295C113.093 96.7295 112.87 96.6996 112.7 96.6396C112.428 96.543 112.186 96.3988 111.975 96.207C111.529 95.8029 111.269 95.2895 111.197 94.6668C111.18 94.5236 111.18 94.3173 111.198 94.048C111.212 93.8251 111.253 93.6255 111.32 93.4492C111.696 92.4647 112.401 91.9496 113.435 91.9037C113.82 91.8868 114.152 91.9358 114.433 92.0508Z"
          fill="var(--current-color-1)"/>
    <path d="M21.2254 92.0275L21.2432 92.7119C21.2434 92.7191 21.242 92.7263 21.239 92.7329C21.236 92.7396 21.2315 92.7455 21.2257 92.7504C21.22 92.7554 21.2132 92.7591 21.2057 92.7614C21.1983 92.7637 21.1904 92.7645 21.1825 92.7637C20.7738 92.7264 20.4146 92.8339 20.1049 93.0864C20.0547 93.1273 20.0104 93.1569 19.9721 93.1752C19.9337 93.1929 19.9065 93.2126 19.8905 93.2345C19.5871 93.6393 19.4242 94.0956 19.4019 94.6033C19.3991 94.6527 19.3855 94.7147 19.3611 94.7895C19.3408 94.8515 19.3311 94.9164 19.3318 94.9841C19.3374 95.4778 19.3401 95.9958 19.3401 96.5381C19.3401 96.5538 19.334 96.5689 19.323 96.58C19.312 96.5911 19.2971 96.5973 19.2816 96.5973H18.6873C18.6732 96.5973 18.6596 96.5916 18.6496 96.5815C18.6396 96.5714 18.634 96.5577 18.634 96.5434L18.6402 92.1079C18.6402 92.0935 18.6456 92.0796 18.6552 92.0694C18.6648 92.0591 18.6778 92.0532 18.6915 92.0529L19.2669 92.0497C19.2853 92.0497 19.303 92.0571 19.3161 92.0704C19.3292 92.0837 19.3367 92.1017 19.337 92.1206L19.3475 92.9108C19.3503 93.0652 19.389 93.0758 19.4636 92.9425C19.8381 92.2768 20.4048 91.9538 21.1637 91.9735C21.1798 91.974 21.1952 91.9798 21.2066 91.9898C21.2181 91.9999 21.2248 92.0133 21.2254 92.0275Z"
          fill="var(--current-color-1)"/>
    <path d="M30.0418 92.1407C30.3947 92.2909 30.6458 92.5508 30.795 92.9203C30.8829 93.1375 30.9268 93.4792 30.9268 93.9453C30.9268 94.7994 30.9268 95.665 30.9268 96.5423C30.9268 96.5569 30.9211 96.5709 30.9109 96.5812C30.9007 96.5915 30.8869 96.5973 30.8724 96.5973H30.3431C30.3247 96.5973 30.307 96.5896 30.2939 96.576C30.2808 96.5623 30.2732 96.5438 30.273 96.5243L30.2667 96.1097C30.266 96.0666 30.251 96.0614 30.2217 96.0938C29.9148 96.4288 29.5532 96.6322 29.1368 96.7042C28.7957 96.7627 28.4721 96.7662 28.1659 96.7147C27.8311 96.659 27.5323 96.5042 27.2693 96.2503C27.1138 96.1001 27.0151 95.9249 26.9732 95.7246C26.9412 95.573 26.9286 95.3787 26.9356 95.1417C26.9453 94.7976 27.0625 94.5099 27.2871 94.2786C27.4608 94.1008 27.7178 93.9683 28.0582 93.8808C28.7731 93.6975 29.4925 93.7183 30.2165 93.9432C30.2201 93.9444 30.2239 93.9447 30.2277 93.9441C30.2314 93.9434 30.235 93.9419 30.238 93.9397C30.2411 93.9374 30.2436 93.9344 30.2453 93.931C30.247 93.9276 30.2479 93.9238 30.2479 93.92C30.2444 93.4785 30.1143 93.1424 29.8576 92.9118C29.6421 92.7186 29.3349 92.6216 28.9359 92.6209C28.4868 92.6202 28.0473 92.7235 27.6177 92.9309C27.6035 92.9378 27.588 92.9416 27.5722 92.9419C27.5565 92.9422 27.5408 92.9392 27.5262 92.9329C27.5117 92.9265 27.4986 92.9172 27.4879 92.9053C27.4771 92.8935 27.4689 92.8795 27.4639 92.8642L27.3509 92.5215C27.3091 92.3939 27.3499 92.3046 27.4733 92.2539C27.8967 92.0818 28.3256 91.9862 28.7602 91.9672C29.2881 91.9446 29.7153 92.0025 30.0418 92.1407ZM28.3982 96.1054C28.6541 96.1816 28.9234 96.1788 29.2058 96.097C29.9626 95.8762 30.3173 95.3664 30.2698 94.5673C30.269 94.552 30.2633 94.5373 30.2537 94.5255C30.2441 94.5137 30.2311 94.5054 30.2165 94.5018C29.7289 94.3783 29.2334 94.3244 28.7298 94.3399C28.4641 94.3484 28.2569 94.4066 28.1084 94.5145C27.6167 94.8734 27.5075 95.2525 27.7809 95.6516C27.9351 95.8773 28.1408 96.0286 28.3982 96.1054Z"
          fill="var(--current-color-1)"/>
    <path d="M48.9498 92.0275L48.9676 92.713C48.9676 92.7201 48.9661 92.7272 48.9632 92.7337C48.9602 92.7402 48.9558 92.7461 48.9502 92.7508C48.9447 92.7556 48.9382 92.7593 48.9311 92.7615C48.924 92.7637 48.9164 92.7645 48.909 92.7637C48.6774 92.7454 48.4588 92.7719 48.253 92.8431C48.0584 92.9115 47.8785 93.0282 47.7132 93.1932C47.3791 93.5282 47.1904 93.9489 47.1472 94.4552C47.0893 95.1238 47.0712 95.817 47.0928 96.5349C47.0931 96.543 47.0917 96.5511 47.0889 96.5586C47.0861 96.5662 47.0818 96.5731 47.0764 96.5789C47.0709 96.5848 47.0643 96.5894 47.0571 96.5925C47.0499 96.5957 47.0421 96.5973 47.0342 96.5973L46.4347 96.592C46.4139 96.592 46.3939 96.5831 46.3792 96.5672C46.3645 96.5514 46.3562 96.5299 46.3562 96.5074L46.3657 92.1343C46.3656 92.118 46.3709 92.1023 46.3802 92.0906C46.3896 92.0789 46.4024 92.0722 46.4159 92.0719L47.0331 92.0571C47.0484 92.0569 47.0631 92.0636 47.0741 92.0759C47.0851 92.0882 47.0914 92.1051 47.0917 92.1227L47.0949 92.9467C47.0956 93.0779 47.1266 93.0853 47.188 92.969C47.55 92.2814 48.117 91.9496 48.8891 91.9735C48.905 91.974 48.9201 91.9798 48.9313 91.9898C48.9426 91.9999 48.9492 92.0133 48.9498 92.0275Z"
          fill="var(--current-color-1)"/>
    <path d="M79.4979 92.0275L79.5209 92.7034C79.5212 92.71 79.52 92.7166 79.5173 92.7228C79.5146 92.7289 79.5104 92.7345 79.5051 92.7392C79.4998 92.7438 79.4935 92.7475 79.4864 92.7499C79.4794 92.7523 79.4719 92.7534 79.4644 92.7532C78.9762 92.7285 78.5751 92.8706 78.2613 93.1795C77.9495 93.4862 77.7671 93.8946 77.7141 94.4044C77.645 95.0631 77.6213 95.7609 77.643 96.4979C77.6434 96.5105 77.6413 96.5231 77.6369 96.5349C77.6326 96.5467 77.6259 96.5575 77.6174 96.5665C77.6089 96.5756 77.5988 96.5828 77.5875 96.5878C77.5763 96.5927 77.5642 96.5952 77.5519 96.5952L77.0006 96.5931C76.9875 96.5931 76.9746 96.5904 76.9626 96.5851C76.9506 96.5798 76.9397 96.572 76.9307 96.5623C76.9216 96.5525 76.9145 96.5409 76.9098 96.5282C76.9051 96.5155 76.9029 96.502 76.9033 96.4884C76.9437 95.0095 76.9444 93.5571 76.9054 92.1312C76.9051 92.1212 76.9067 92.1113 76.9102 92.102C76.9136 92.0927 76.9188 92.0842 76.9254 92.077C76.932 92.0698 76.9399 92.0641 76.9487 92.0601C76.9575 92.0562 76.9669 92.0541 76.9765 92.0539L77.5729 92.0486C77.5907 92.0487 77.6079 92.0561 77.6206 92.0694C77.6333 92.0826 77.6406 92.1006 77.6409 92.1195L77.644 92.9467C77.6447 93.0772 77.6757 93.0846 77.7371 92.969C78.1005 92.2835 78.6675 91.9517 79.4382 91.9735C79.4538 91.974 79.4687 91.9799 79.4797 91.9899C79.4908 91.9999 79.4973 92.0133 79.4979 92.0275Z"
          fill="var(--current-color-1)"/>
    <path d="M91.8692 92.0275L91.8922 92.7034C91.8926 92.71 91.8914 92.7166 91.8886 92.7228C91.8858 92.7289 91.8816 92.7345 91.8762 92.7392C91.8708 92.7438 91.8643 92.7475 91.8572 92.7499C91.85 92.7523 91.8424 92.7534 91.8347 92.7532C91.3534 92.7285 90.9527 92.8706 90.6326 93.1795C90.3327 93.4679 90.143 93.8491 90.0635 94.323C90.03 94.5212 90.0042 95.2528 89.9861 96.518C89.9858 96.533 89.9803 96.5475 89.9705 96.5589C89.9608 96.5703 89.9474 96.5779 89.9327 96.5804C89.7332 96.6149 89.5344 96.6132 89.3364 96.5751C89.3219 96.5724 89.3089 96.5645 89.2995 96.5529C89.2902 96.5413 89.2851 96.5267 89.2851 96.5116V92.1079C89.2851 92.0933 89.2905 92.0793 89.3001 92.069C89.3097 92.0587 89.3228 92.0529 89.3364 92.0529H89.9254C89.9403 92.0529 89.9546 92.0586 89.9653 92.0688C89.9761 92.0791 89.9824 92.0931 89.9829 92.1079L90.0185 92.9235C90.0241 93.0483 90.0561 93.0568 90.1147 92.9489C90.4816 92.274 91.0462 91.9489 91.8085 91.9735C91.8244 91.974 91.8395 91.9798 91.8508 91.9898C91.862 91.9999 91.8686 92.0133 91.8692 92.0275Z"
          fill="var(--current-color-1)"/>
    <path d="M103.75 92.1047C104.127 92.2394 104.398 92.4972 104.565 92.878C104.662 93.0994 104.71 93.4355 104.71 93.8861C104.71 94.7599 104.71 95.6453 104.71 96.5423C104.71 96.5569 104.705 96.5709 104.694 96.5812C104.684 96.5915 104.67 96.5973 104.656 96.5973H104.15C104.134 96.5974 104.119 96.5919 104.107 96.5819C104.096 96.5719 104.089 96.5581 104.088 96.5434L104.049 96.1118C104.046 96.0723 104.032 96.0663 104.005 96.0938C103.627 96.488 103.181 96.7042 102.668 96.7422C102.321 96.7676 102.01 96.7401 101.737 96.6597C101.421 96.5659 101.155 96.3798 100.938 96.1012C100.837 95.9721 100.773 95.8265 100.747 95.6643C100.73 95.5578 100.721 95.4034 100.72 95.201C100.718 94.7891 100.855 94.4619 101.131 94.2193C101.334 94.0416 101.634 93.9136 102.03 93.8353C102.667 93.7098 103.308 93.7391 103.953 93.9231C104.07 93.957 104.104 93.9309 104.053 93.8448C104.034 93.8117 104.023 93.7793 104.021 93.7475C103.992 93.2983 103.817 92.9806 103.494 92.7944C103.24 92.6484 102.908 92.5927 102.498 92.6273C102.134 92.6576 101.77 92.757 101.405 92.9256C101.39 92.9327 101.373 92.934 101.357 92.9294C101.341 92.9247 101.327 92.9144 101.317 92.9002C101.191 92.7013 101.133 92.5208 101.142 92.3586C101.142 92.3431 101.148 92.3279 101.157 92.3148C101.166 92.3017 101.179 92.2912 101.194 92.2845C101.605 92.0977 102.03 91.9929 102.468 91.9704C102.996 91.9436 103.423 91.9884 103.75 92.1047ZM101.863 95.9679C102.01 96.0744 102.184 96.1319 102.383 96.1403C103.484 96.1869 104.051 95.6601 104.083 94.5599C104.083 94.5495 104.08 94.5393 104.074 94.531C104.068 94.5227 104.059 94.5169 104.049 94.5145C103.594 94.396 103.134 94.3378 102.668 94.3399C102.415 94.3406 102.211 94.3713 102.057 94.4319C101.839 94.518 101.67 94.6513 101.552 94.8318C101.382 95.092 101.366 95.3399 101.504 95.5755C101.594 95.7299 101.714 95.8607 101.863 95.9679Z"
          fill="var(--current-color-1)"/>
    <path d="M137.939 92.0423L137.95 92.7098C137.95 92.7173 137.949 92.7248 137.946 92.7317C137.943 92.7387 137.938 92.7449 137.932 92.7499C137.927 92.755 137.92 92.7589 137.912 92.7613C137.905 92.7636 137.897 92.7645 137.89 92.7637C137.73 92.751 137.575 92.7592 137.425 92.7881C137.281 92.8163 137.139 92.8745 136.999 92.9626C136.433 93.3188 136.132 93.8692 136.096 94.6139C136.055 95.4799 136.036 96.1213 136.038 96.5381C136.038 96.5524 136.032 96.5661 136.022 96.5762C136.012 96.5863 135.999 96.592 135.984 96.592L135.39 96.5973C135.376 96.5973 135.363 96.5917 135.353 96.5818C135.343 96.5719 135.338 96.5585 135.338 96.5444L135.344 92.1343C135.344 92.118 135.349 92.1023 135.359 92.0906C135.369 92.0789 135.382 92.0722 135.395 92.0719L135.988 92.0582C135.995 92.0579 136.002 92.0593 136.009 92.0623C136.016 92.0653 136.022 92.0698 136.027 92.0757C136.033 92.0815 136.037 92.0885 136.04 92.0962C136.043 92.1039 136.044 92.1122 136.044 92.1206V92.9013C136.044 93.0465 136.08 93.0561 136.152 92.9298C136.342 92.5941 136.64 92.3202 137.044 92.1079C137.29 91.9795 137.569 91.9372 137.881 91.9809C137.897 91.9832 137.912 91.9907 137.922 92.002C137.933 92.0132 137.939 92.0276 137.939 92.0423Z"
          fill="var(--current-color-1)"/>
    <path d="M141.596 92.1195C141.969 92.2627 142.235 92.525 142.392 92.9065C142.485 93.1294 142.531 93.4806 142.531 93.9601C142.531 94.8092 142.531 95.67 142.531 96.5423C142.531 96.5569 142.525 96.5709 142.515 96.5812C142.504 96.5915 142.491 96.5973 142.476 96.5973H141.932C141.917 96.5973 141.903 96.5912 141.893 96.5803C141.883 96.5694 141.877 96.5546 141.877 96.5391L141.872 96.1541C141.873 96.1479 141.871 96.1419 141.868 96.1365C141.865 96.1311 141.861 96.1265 141.856 96.1231C141.851 96.1198 141.845 96.1178 141.838 96.1173C141.832 96.1167 141.826 96.1178 141.82 96.1202C141.762 96.1463 141.711 96.1834 141.67 96.2313C141.61 96.2997 141.567 96.3427 141.541 96.3604C141.228 96.579 140.887 96.7035 140.519 96.7338C140.201 96.7606 139.921 96.7475 139.681 96.6946C139.405 96.634 139.15 96.4979 138.915 96.2863C138.758 96.146 138.652 95.988 138.598 95.8124C138.56 95.689 138.54 95.506 138.536 95.2634C138.525 94.4926 138.908 94.0226 139.686 93.8533C140.37 93.7045 141.09 93.731 141.846 93.9326C141.884 93.9425 141.895 93.9305 141.879 93.8967L141.852 93.8396C141.834 93.8015 141.825 93.7687 141.824 93.7412C141.819 93.409 141.712 93.1417 141.503 92.9393C141.332 92.7729 141.089 92.6731 140.774 92.64C140.232 92.5829 139.702 92.6841 139.184 92.9436C139.176 92.9475 139.168 92.9498 139.159 92.9504C139.151 92.951 139.142 92.9498 139.135 92.947C139.127 92.9442 139.12 92.9398 139.114 92.9341C139.108 92.9284 139.104 92.9216 139.101 92.914L138.936 92.4676C138.922 92.4307 138.924 92.3893 138.942 92.352C138.96 92.3147 138.992 92.2845 139.031 92.2676C139.447 92.0906 139.874 91.9915 140.313 91.9704C140.843 91.9457 141.271 91.9954 141.596 92.1195ZM140.114 96.1361C140.449 96.2059 140.773 96.1636 141.086 96.0092C141.63 95.7391 141.893 95.2616 141.875 94.5769C141.874 94.561 141.868 94.5458 141.859 94.5334C141.849 94.521 141.835 94.5122 141.82 94.5081C141.56 94.4397 141.312 94.3935 141.076 94.3695C140.772 94.3378 140.539 94.3265 140.375 94.3357C140.216 94.3448 140.059 94.3748 139.907 94.4256C139.754 94.4764 139.622 94.5599 139.512 94.6763C139.191 95.0162 139.15 95.3515 139.389 95.6823C139.56 95.92 139.801 96.0712 140.114 96.1361Z"
          fill="var(--current-color-1)"/>
    <path d="M41.0028 92.0539L41.5929 92.0486C41.6082 92.0486 41.6228 92.0549 41.6336 92.066C41.6444 92.0771 41.6504 92.0922 41.6504 92.1079C41.6476 92.9316 41.6487 93.7384 41.6536 94.5282C41.6564 94.9464 41.7076 95.2549 41.8074 95.4538C41.9859 95.8092 42.2768 96.0137 42.6799 96.0673C43.0105 96.1111 43.3041 96.0469 43.5608 95.8748C43.8349 95.6915 44.0176 95.421 44.109 95.0635C44.1564 94.8787 44.1829 94.658 44.1885 94.4013C44.2053 93.7052 44.2136 92.9668 44.2136 92.1862C44.2136 92.155 44.2244 92.1252 44.2437 92.1031C44.2629 92.0811 44.289 92.0687 44.3162 92.0687H44.81C44.8236 92.0687 44.8366 92.0757 44.8462 92.088C44.8558 92.1003 44.8612 92.1169 44.8612 92.1343V96.5381C44.8612 96.5525 44.8556 96.5663 44.8457 96.5766C44.8357 96.5869 44.8221 96.5928 44.8079 96.5931L44.2659 96.5963C44.2515 96.5963 44.2377 96.5902 44.2275 96.5795C44.2173 96.5688 44.2115 96.5543 44.2115 96.5391L44.2126 96.1541C44.2133 96.0088 44.1665 95.9933 44.0724 96.1075C43.8297 96.3995 43.5552 96.5889 43.249 96.6756C42.9847 96.7511 42.6673 96.7659 42.297 96.72C41.5737 96.6312 41.1249 96.1826 40.9505 95.3745C40.9303 95.2786 40.9303 94.1897 40.9505 92.1079C40.9505 92.0936 40.956 92.0799 40.9658 92.0697C40.9757 92.0596 40.989 92.0539 41.0028 92.0539Z"
          fill="var(--current-color-1)"/>
    <path d="M130.555 92.055C130.569 92.0547 130.582 92.0605 130.593 92.071C130.603 92.0815 130.609 92.0959 130.609 92.1111C130.629 92.9616 130.637 93.7965 130.633 94.616C130.631 94.9764 130.675 95.2489 130.764 95.4337C130.946 95.8117 131.25 96.0243 131.676 96.0716C131.972 96.104 132.241 96.0504 132.484 95.9108C132.753 95.7549 132.937 95.5254 133.036 95.2221C133.153 94.866 133.203 94.4164 133.186 93.8734C133.168 93.2909 133.169 92.7091 133.191 92.128C133.192 92.1115 133.197 92.0958 133.207 92.0842C133.217 92.0726 133.231 92.0659 133.244 92.0656L133.763 92.0603C133.771 92.0601 133.778 92.0617 133.785 92.0647C133.792 92.0678 133.799 92.0724 133.804 92.0782C133.809 92.084 133.814 92.0909 133.816 92.0986C133.819 92.1062 133.821 92.1144 133.821 92.1227V96.5137C133.821 96.5231 133.819 96.5325 133.816 96.5411C133.813 96.5498 133.808 96.5577 133.802 96.5642C133.796 96.5708 133.789 96.576 133.781 96.5795C133.774 96.583 133.765 96.5848 133.757 96.5846L133.225 96.5762C133.212 96.5759 133.2 96.5691 133.191 96.5572C133.182 96.5453 133.177 96.5293 133.177 96.5127L133.179 96.152C133.179 95.987 133.126 95.9728 133.022 96.1097C132.794 96.408 132.526 96.5991 132.219 96.683C131.965 96.7521 131.654 96.7662 131.286 96.7253C130.722 96.6625 130.32 96.3787 130.08 95.8738C129.976 95.658 129.92 95.3554 129.909 94.9661C129.885 94.0176 129.887 93.0691 129.915 92.1206C129.916 92.105 129.922 92.0902 129.932 92.0794C129.942 92.0685 129.956 92.0624 129.97 92.0624L130.555 92.055Z"
          fill="var(--current-color-1)"/>
</svg>
