<svg id="logo" viewBox="0 0 292 68" fill="none" xmlns="http://www.w3.org/2000/svg">
    <path d="M81.6472 20.7874H69.0414V47.1494H73.3274V37.0345H81.6472C85.7441 37.0345 90.0931 34.1897 90.0931 28.8793C90.0931 23.6954 85.7441 20.7874 81.6472 20.7874ZM73.3274 24.454H81.3951C83.9163 24.454 85.8071 26.3506 85.8071 28.9425C85.8071 31.6609 84.0423 33.4943 81.3951 33.4943H73.3274V24.454Z"
          fill="var(--current-color-1)"/>
    <path d="M115.494 28.8161C115.494 24.9598 112.595 20.8506 107.111 20.8506H94.3161V47.2126H98.6021V36.7816H105.724L112.279 47.2126H117.385L110.389 36.1494C113.54 35.0115 115.494 32.1667 115.494 28.8161ZM111.208 28.8161C111.208 31.4713 109.443 33.1782 106.733 33.1782H98.6651V24.454H106.733C109.317 24.454 111.208 26.2874 111.208 28.8161Z"
          fill="var(--current-color-1)"/>
    <path d="M126.902 20.7874H122.616V47.1494H126.902V20.7874Z" fill="var(--current-color-1)"/>
    <path d="M146.945 37.5402L138.184 20.7874H134.214V47.2126H138.31V29.0057L145.496 43.1667L145.622 43.3563H148.269L155.58 29.0057V47.2126H159.677V20.7874H155.706L146.945 37.5402Z"
          fill="var(--current-color-1)"/>
    <path d="M177.83 20.408C170.644 20.408 165.035 26.4138 165.035 34C165.035 41.5862 170.644 47.592 177.83 47.592C185.015 47.592 190.625 41.6494 190.625 34C190.625 26.4138 185.015 20.408 177.83 20.408ZM186.339 34.0632C186.339 39.8161 182.872 43.7988 177.83 43.7988C172.787 43.7988 169.258 39.8161 169.258 34.0632C169.258 28.3103 172.787 24.2644 177.83 24.2644C182.872 24.2644 186.339 28.2471 186.339 34.0632Z"
          fill="var(--current-color-1)"/>
    <path d="M214.45 40.3218L200.016 20.7874H196.045V47.2126H200.205V27.6782L214.639 47.2126H218.673V20.7874H214.45V40.3218Z"
          fill="var(--current-color-1)"/>
    <path d="M230.27 20.7874H225.984V47.1494H230.27V20.7874Z" fill="var(--current-color-1)"/>
    <path d="M244.83 20.7874L234.241 47.1494H238.527L241.111 40.6379H252.078L254.599 47.1494H258.885L248.296 20.7874H244.83ZM250.754 37.2241H242.309L246.532 26.0977L250.754 37.2241Z"
          fill="var(--current-color-1)"/>
    <path d="M266.953 43.4195V20.7874H262.667V47.2126H280V43.4195H266.953Z" fill="var(--current-color-1)"/>
    <path d="M38.3462 29.6379H33.9341C31.539 29.6379 29.5221 31.5977 29.5221 34.0632V38.4885H33.9341C36.3293 38.4885 38.3462 36.5287 38.3462 34.0632V29.6379Z"
          fill="var(--current-color-1)"/>
    <path d="M12 34V47.2126H20.7611V34C20.7611 26.7299 26.6228 20.7874 33.9341 20.7874H47.1072V34C47.1072 41.2701 41.2455 47.2126 33.9341 47.2126H29.5221V56H33.9341C46.0988 56 55.8683 46.2012 55.8683 34.0632V12H33.9341C21.8326 12 12 21.8621 12 34Z"
          fill="var(--current-color-1)"/>
</svg>
