<svg id="logo" viewBox="0 0 128 128" fill="none" xmlns="http://www.w3.org/2000/svg">
    <path d="M35.1853 57.9943H29.5409V69.977H31.46V65.3793H35.1853C37.0198 65.3793 38.9671 64.0862 38.9671 61.6724C38.9671 59.3161 37.0198 57.9943 35.1853 57.9943ZM31.46 59.6609H35.0724C36.2013 59.6609 37.048 60.523 37.048 61.7011C37.048 62.9368 36.2578 63.7701 35.0724 63.7701H31.46V59.6609Z"
          fill="var(--current-color-1)"/>
    <path d="M50.3405 61.6437C50.3405 59.8908 49.0423 58.023 46.587 58.023H40.8579V70.0057H42.777V65.2644H45.9661L48.9012 70.0057H51.1872L48.0546 64.977C49.4657 64.4598 50.3405 63.1667 50.3405 61.6437ZM48.4215 61.6437C48.4215 62.8506 47.6312 63.6264 46.4177 63.6264H42.8053V59.6609H46.4177C47.5748 59.6609 48.4215 60.4943 48.4215 61.6437Z"
          fill="var(--current-color-1)"/>
    <path d="M55.4487 57.9943H53.5296V69.977H55.4487V57.9943Z" fill="var(--current-color-1)"/>
    <path d="M64.4233 65.6092L60.5005 57.9943H58.7225V70.0057H60.5569V61.7299L63.7742 68.1667L63.8307 68.2529H65.016L68.2897 61.7299V70.0057H70.1242V57.9943H68.3462L64.4233 65.6092Z"
          fill="var(--current-color-1)"/>
    <path d="M78.2521 57.8218C75.0348 57.8218 72.523 60.5517 72.523 64C72.523 67.4483 75.0348 70.1782 78.2521 70.1782C81.4694 70.1782 83.9812 67.477 83.9812 64C83.9812 60.5517 81.4694 57.8218 78.2521 57.8218ZM82.0621 64.0287C82.0621 66.6437 80.5099 68.454 78.2521 68.454C75.9944 68.454 74.4139 66.6437 74.4139 64.0287C74.4139 61.4138 75.9944 59.5747 78.2521 59.5747C80.5099 59.5747 82.0621 61.3851 82.0621 64.0287Z"
          fill="var(--current-color-1)"/>
    <path d="M94.6491 66.8736L88.1863 57.9943H86.4083V70.0057H88.2709V61.1264L94.7338 70.0057H96.54V57.9943H94.6491V66.8736Z"
          fill="var(--current-color-1)"/>
    <path d="M101.733 57.9943H99.8137V69.977H101.733V57.9943Z" fill="var(--current-color-1)"/>
    <path d="M108.252 57.9943L103.511 69.977H105.43L106.587 67.0172H111.498L112.627 69.977H114.546L109.804 57.9943H108.252ZM110.905 65.4655H107.123L109.014 60.408L110.905 65.4655Z"
          fill="var(--current-color-1)"/>
    <path d="M118.158 68.2816V57.9943H116.239V70.0057H124V68.2816H118.158Z" fill="var(--current-color-1)"/>
    <path d="M15.7968 62.0172H13.8213C12.7488 62.0172 11.8457 62.908 11.8457 64.0287V66.0402H13.8213C14.8937 66.0402 15.7968 65.1494 15.7968 64.0287V62.0172Z"
          fill="var(--current-color-1)"/>
    <path d="M4 64V70.0057H7.92286V64C7.92286 60.6954 10.5475 57.9943 13.8213 57.9943H19.7197V64C19.7197 67.3046 17.095 70.0057 13.8213 70.0057H11.8457V74H13.8213C19.2681 74 23.6425 69.546 23.6425 64.0287V54H13.8213C8.40263 54 4 58.4828 4 64Z"
          fill="var(--current-color-1)"/>
</svg>
