<svg id="logo" viewBox="0 0 214 98" fill="none" xmlns="http://www.w3.org/2000/svg">
    <path fill-rule="evenodd" clip-rule="evenodd"
          d="M202 16.5501L199.329 12C166.632 20.7904 138.674 45.2697 170.021 56.7668C163.124 64.074 158.732 72.5045 154.592 82.2062L162.666 86C167.041 74.5701 171.971 64.7167 178.609 58.3898C197.819 60.4796 195.903 49.5644 188.599 48.1519C183.529 47.1712 179.435 49.3317 176.292 51.4647C149.214 46.6699 174.489 24.5751 202 16.5501Z"
          fill="var(--current-color-1)"/>
    <path fill-rule="evenodd" clip-rule="evenodd"
          d="M141.951 42.3047L134.747 57.3092L127.891 42.3047H121.102L131.288 64.5147L127.218 72.9913H134.008L148.741 42.3047H141.951Z"
          fill="var(--current-color-1)"/>
    <path fill-rule="evenodd" clip-rule="evenodd"
          d="M73.8778 42.3046V40.7308C73.8778 39.7334 73.9816 38.5151 74.5569 37.8117C76.4771 35.4633 80.2959 36.8818 81.1501 37.1312C81.2223 37.0764 81.2498 37.0554 81.3216 37.0005V31.9205C81.3216 31.9205 73.8747 29.5924 69.8767 33.7557C68.5513 35.1352 67.67 37.3326 67.67 40.7308V42.3046H64.3722V47.2968H67.67V66.1154H73.8778V47.2968H87.48L85.1253 49.7886V66.1154H91.3332V42.3046H73.8778Z"
          fill="var(--current-color-1)"/>
    <path fill-rule="evenodd" clip-rule="evenodd"
          d="M88.2778 31.5614C87.1456 31.5614 86.2168 31.8919 85.4891 32.5513C84.7618 33.2114 84.3979 34.0563 84.3979 35.0863C84.3979 36.1171 84.7618 36.9695 85.4891 37.6456C86.2168 38.3216 87.1456 38.6597 88.2778 38.6597C89.4093 38.6597 90.3392 38.3216 91.0665 37.6456C91.7938 36.9695 92.1577 36.1171 92.1577 35.0863C92.1577 34.0563 91.7938 33.2114 91.0665 32.5513C90.3392 31.8919 89.4093 31.5614 88.2778 31.5614Z"
          fill="var(--current-color-1)"/>
    <path fill-rule="evenodd" clip-rule="evenodd"
          d="M51.2769 61.3974C47.6241 61.3974 44.6626 58.1764 44.6626 54.2026C44.6626 50.2292 47.6241 47.0078 51.2769 47.0078C54.9298 47.0078 57.8913 50.2292 57.8913 54.2026C57.8913 58.1764 54.9298 61.3974 51.2769 61.3974ZM51.2769 41.6481C44.3127 41.6481 38.667 47.2688 38.667 54.2026C38.667 61.1364 44.3127 66.7574 51.2769 66.7574C58.2412 66.7574 63.8865 61.1364 63.8865 54.2026C63.8865 47.2688 58.2412 41.6481 51.2769 41.6481Z"
          fill="var(--current-color-1)"/>
    <path fill-rule="evenodd" clip-rule="evenodd"
          d="M106.401 61.3974C102.748 61.3974 99.7868 58.1764 99.7868 54.2026C99.7868 50.2292 102.748 47.0078 106.401 47.0078C110.054 47.0078 113.016 50.2292 113.016 54.2026C113.016 58.1764 110.054 61.3974 106.401 61.3974ZM112.881 44.3083C111.143 42.582 108.772 41.6481 106.401 41.6481C99.4369 41.6481 93.7912 47.2688 93.7912 54.2026C93.7912 61.1364 99.4369 66.7574 106.401 66.7574C109.356 66.7574 111.922 65.7048 113.671 63.5932L114.544 66.1155H119.089V32.2822H112.881V44.3083Z"
          fill="var(--current-color-1)"/>
    <path fill-rule="evenodd" clip-rule="evenodd"
          d="M31.8814 48.9831C30.5189 48.226 28.9941 47.5547 27.3448 46.9863C25.8056 46.487 24.4156 46.0095 23.214 45.5682C22.0279 45.1332 21.0795 44.591 20.3957 43.9563C19.7231 43.3327 19.3824 42.4739 19.3824 41.4034C19.3824 40.1498 19.8244 39.1813 20.6965 38.5263C21.5858 37.8582 22.6878 37.5389 23.9896 37.5762C25.504 37.5762 26.7021 38.0199 27.5507 38.8942C28.3466 39.7156 28.7887 40.6697 28.8637 41.7295L28.8848 42.3047H35.5937L35.5833 41.7061C35.4884 39.8252 34.9666 38.1752 34.0322 36.8016C33.0591 35.3736 31.7015 34.2467 29.9971 33.4535C28.2939 32.6618 26.3043 32.2606 24.0821 32.2606C21.8906 32.2606 19.9242 32.6539 18.2389 33.4296C16.5501 34.207 15.2005 35.3176 14.2274 36.7305C13.2527 38.1458 12.7748 39.8618 12.8067 41.828C12.8071 44.1501 13.4969 46.0377 14.8562 47.4387C16.2082 48.8329 18.1975 49.988 20.7692 50.8722L25.2379 52.3872C26.6123 52.8536 27.7282 53.4677 28.5541 54.2124C29.3675 54.9469 29.7801 55.9884 29.7801 57.3084C29.7801 58.5648 29.3129 59.5812 28.3913 60.3304C27.4645 61.0847 26.1906 61.4668 24.6048 61.4668C22.7711 61.4668 21.3157 60.9437 20.2796 59.9113C19.2878 58.9242 18.7345 57.6964 18.6355 56.2621L18.5848 55.4232H12L12.0056 56.2808C12.0674 58.4476 12.6312 60.3177 13.6808 61.8394C14.764 63.4104 16.2661 64.633 18.1448 65.4724C20.0203 66.3105 22.2098 66.7355 24.6526 66.7355C27.1928 66.7355 29.3679 66.2779 31.1178 65.375C32.8704 64.471 34.2117 63.2555 35.105 61.7631C35.9979 60.2696 36.4507 58.6275 36.4507 56.8825C36.4507 54.9155 36.029 53.2802 35.198 52.0222C34.3677 50.7674 33.2518 49.7449 31.8814 48.9831Z"
          fill="var(--current-color-1)"/>
</svg>
