<svg id="logo" viewBox="0 0 206 78" fill="none" xmlns="http://www.w3.org/2000/svg">
    <path d="M31.6045 32.5362C28.8577 36.6207 22.5646 43.4997 12.7373 45.0165V46.7599C12.7365 47.2613 12.8316 47.758 13.0171 48.2215C13.2026 48.6848 13.475 49.106 13.8185 49.4608C14.1621 49.8156 14.5701 50.0972 15.0193 50.2893C15.4685 50.4814 15.95 50.5803 16.4363 50.5803H46.4126C47.3952 50.5803 48.3376 50.1779 49.0325 49.4614C49.7273 48.7449 50.1177 47.773 50.1177 46.7599V42.7446C44.3373 34.1537 35.7185 32.6683 31.6045 32.5362Z"
          fill="var(--current-color-1)"/>
    <path d="M16.4374 12C15.947 11.9975 15.461 12.0957 15.0077 12.2886C14.5544 12.4815 14.1428 12.7654 13.7969 13.1239C13.451 13.4823 13.1777 13.9081 12.9928 14.3765C12.8079 14.8448 12.7152 15.3462 12.7201 15.8518V40.9951C20.0448 39.7364 24.9279 35.0727 27.8517 31.0574C25.9045 28.326 22.3277 21.7742 23.7926 12.063L16.4374 12Z"
          fill="var(--current-color-1)"/>
    <path d="M27.8146 12.063C26.2521 20.5531 29.6031 26.1166 31.2023 28.3257C35.8963 28.4201 43.7153 29.8047 50.1244 36.155V15.8518C50.1285 15.3469 50.0354 14.8464 49.8507 14.3789C49.6658 13.9113 49.393 13.486 49.0479 13.1278C48.7028 12.7697 48.2924 12.4855 47.8401 12.2919C47.3879 12.0984 46.9029 11.9992 46.4132 12L27.8146 12.063Z"
          fill="var(--current-color-1)"/>
    <path d="M17.1089 63.4826C17.1089 65.1945 16.1506 66 14.5575 66C12.9644 66 12 65.1818 12 63.4826V59.5617H13.3306V63.4826C13.3306 64.1748 13.4893 64.8292 14.5514 64.8292C15.4731 64.8292 15.7722 64.4015 15.7722 63.4826V59.5617H17.0784L17.1089 63.4826Z"
          fill="var(--current-color-1)"/>
    <path d="M18.214 59.5986H19.5264L22.0107 63.8093H22.0473V59.5986H23.2681V65.8923H21.9557L19.4653 61.6757H19.4348V65.8923H18.214V59.5986Z"
          fill="var(--current-color-1)"/>
    <path d="M24.4513 59.5986H28.9194V60.7504H25.7576V62.0973H28.663V63.1484H25.7576V64.6965H28.9866V65.8483H24.4513V59.5986Z"
          fill="var(--current-color-1)"/>
    <path d="M32.2091 59.5989H36.4209V60.7506H33.552V62.1984H36.0424V63.2807H33.552V65.8863H32.2518V59.5926L32.2091 59.5989Z"
          fill="var(--current-color-1)"/>
    <path d="M37.1347 59.5986H38.441V65.8923H37.1347V59.5986Z" fill="var(--current-color-1)"/>
    <path d="M39.613 59.5986H40.9253V64.6965H43.8491V65.8483H39.6313L39.613 59.5986Z" fill="var(--current-color-1)"/>
    <path d="M44.5946 59.5986H45.907V65.8923H44.5946V59.5986Z" fill="var(--current-color-1)"/>
    <path d="M48.6839 59.5986H50.0206L52.2547 65.8923H50.9179L50.4723 64.5078H48.2322L47.7561 65.8923H46.4132L48.6839 59.5986ZM48.5557 63.4443H50.1183L49.3431 61.1659L48.5557 63.4443Z"
          fill="var(--current-color-1)"/>
    <path d="M52.7975 59.5986H54.1098V64.6965H57.0152V65.8483H52.7975V59.5986Z" fill="var(--current-color-1)"/>
    <path d="M57.7482 59.5986H62.2163V60.7504H59.0544V62.0973H61.9598V63.1484H59.0544V64.6965H62.2833V65.8483H57.7482V59.5986Z"
          fill="var(--current-color-1)"/>
    <path d="M65.5061 59.5986H68.0941C69.6262 59.5986 70.8043 60.6183 70.8043 62.6889C70.8043 64.5015 69.9131 65.8358 68.0941 65.8358H65.5061V59.5986ZM66.8123 64.6965H67.9965C68.7595 64.6965 69.4981 64.2056 69.4981 62.8085C69.4981 61.5497 69.083 60.7378 67.7706 60.7378H66.8489V64.6839L66.8123 64.6965Z"
          fill="var(--current-color-1)"/>
    <path d="M76.7749 63.4826C76.7749 65.1945 75.8165 66 74.2234 66C72.6303 66 71.6659 65.1818 71.6659 63.4826V59.5617H72.9782V63.4826C72.9782 64.1748 73.1369 64.8292 74.199 64.8292C75.1207 64.8292 75.4197 64.4015 75.4197 63.4826V59.5617H76.7321V63.4826H76.7749Z"
          fill="var(--current-color-1)"/>
    <path d="M69.5292 35.274C69.5292 39.0878 66.5627 40.737 63.4925 40.737C61.8357 40.8083 60.2046 40.2982 58.8657 39.2895L58.6399 39.1196L60.0498 36.4574L60.2696 36.5896L60.3673 36.6522C61.3113 37.4293 62.4799 37.8593 63.6878 37.8735C65.2504 37.8357 66.5261 37.1809 66.5261 35.6013C66.5261 34.2481 65.5373 33.713 64.2921 33.1655L62.8882 32.574C60.88 31.6803 59.1526 30.3337 59.1526 27.6337V27.602C59.1526 24.6692 61.5453 22.498 64.7743 22.498C66.3443 22.4325 67.8952 22.8723 69.2118 23.7566L69.4315 23.9202L67.93 26.5888L67.7408 26.4567L67.6431 26.3559C66.8413 25.6308 65.8037 25.2444 64.7376 25.2735C62.76 25.305 62.1862 26.3936 62.1557 27.3439V27.4133C62.1557 28.5336 63.114 29.0874 64.1944 29.5531L65.6044 30.1825C67.7103 31.1265 69.5597 32.4733 69.5292 35.274Z"
          fill="var(--current-color-1)"/>
    <path d="M87.3397 22.7751V31.6302C87.3397 36.6336 84.3732 40.712 79.4901 40.7498C74.6069 40.7876 71.6344 36.6336 71.6038 31.6302V22.7751H74.5703V31.6302C74.6069 35.0854 76.2001 37.7854 79.4901 37.7854C82.7801 37.7854 84.3732 35.1168 84.3732 31.6302V22.7751H87.3397Z"
          fill="var(--current-color-1)"/>
    <path d="M122.108 40.2084C120.448 34.349 117.835 26.2865 114.478 22.7936L114.41 22.7309H112.274L112.213 22.7936C109.308 25.8208 106.946 32.2783 105.285 37.7727C103.657 37.5929 102.143 36.8234 101.013 35.6012L98.8762 33.3293C99.7922 32.8759 100.562 32.1599 101.094 31.267C101.625 30.374 101.896 29.3418 101.873 28.2944C101.874 27.5508 101.731 26.8146 101.453 26.1288C101.174 25.4429 100.766 24.8211 100.251 24.3C99.7369 23.7789 99.1268 23.369 98.4567 23.0942C97.7867 22.8193 97.0701 22.685 96.3491 22.6993H90.0621V40.4097H93.0347V33.8895H95.2993L98.6809 37.5462C101.202 40.2776 103.631 40.693 106.28 40.693H107.782C108.227 39.0126 108.74 37.1371 109.283 35.4252H117.456C117.993 37.1056 118.379 38.6159 118.823 40.2962L118.86 40.4601H122.212L122.108 40.2084ZM96.1233 31.0574H92.992V25.6258H96.0868C96.4428 25.6071 96.799 25.6629 97.1337 25.7898C97.4684 25.9168 97.7747 26.1126 98.0342 26.3648C98.2937 26.617 98.501 26.9208 98.6436 27.2579C98.7861 27.5949 98.8611 27.9581 98.864 28.3258C98.8731 28.6951 98.8076 29.0625 98.6719 29.4044C98.5362 29.7463 98.3331 30.0554 98.0754 30.3121C97.8178 30.5689 97.5112 30.7678 97.1752 30.896C96.8393 31.0243 96.481 31.0793 96.1233 31.0574ZM110.162 32.7691C110.933 30.4261 112.006 28.2013 113.355 26.1546C114.695 28.2063 115.768 30.4299 116.547 32.7691H110.162Z"
          fill="var(--current-color-1)"/>
    <path d="M136.764 22.7312C132.643 37.2066 129.006 40.4035 129.006 40.4035H126.893C126.893 40.4035 123.231 37.1814 119.142 22.7312H122.493C122.493 22.7312 124.758 31.7499 127.986 36.9485C131.178 31.7499 133.479 22.7312 133.479 22.7312H136.764Z"
          fill="var(--current-color-1)"/>
    <path d="M141.993 25.626V29.8742H148.988V32.7063H141.993V37.5777H150.838V40.3973H139.028V22.7751H150.838V25.6385L141.993 25.626Z"
          fill="var(--current-color-1)"/>
    <path d="M165.237 40.1769C163.146 35.2889 160.19 30.8453 156.52 27.0736V40.3973H153.555V22.7751H156.295C156.295 22.7751 161.215 26.3309 165.811 34.4623V22.7751H168.777V40.4538H165.524C165.316 40.4413 165.316 40.3406 165.237 40.1769Z"
          fill="var(--current-color-1)"/>
    <path d="M174.473 22.7751V40.4538H171.537V22.7751H174.473Z" fill="var(--current-color-1)"/>
    <path d="M188.128 35.57C188.863 36.3361 189.746 36.9337 190.719 37.3241C191.694 37.7145 192.736 37.8889 193.78 37.8358H194V40.6993H193.713C190.935 40.6993 188.445 40.3721 185.827 37.5525L182.445 33.9336H180.18V40.4537H177.208V22.775H183.495C184.212 22.7616 184.924 22.8956 185.589 23.1693C186.256 23.4428 186.862 23.8504 187.373 24.3684C187.885 24.8863 188.292 25.5044 188.569 26.1862C188.846 26.8678 188.989 27.5993 188.989 28.3385C188.993 29.3739 188.714 30.3898 188.184 31.2692C187.654 32.1487 186.894 32.8563 185.992 33.3107L188.128 35.57ZM180.144 31.0575H183.245C183.601 31.0752 183.958 31.018 184.292 30.8895C184.627 30.761 184.933 30.5638 185.19 30.3099C185.449 30.056 185.655 29.7505 185.795 29.4122C185.936 29.0739 186.008 28.7099 186.008 28.3419C186.008 27.9738 185.936 27.6095 185.795 27.2712C185.655 26.9329 185.449 26.6275 185.19 26.3735C184.933 26.1196 184.627 25.9224 184.292 25.7939C183.958 25.6655 183.601 25.6082 183.245 25.6259H180.144V31.0575Z"
          fill="var(--current-color-1)"/>
    <path d="M85.2645 60.0899C84.7624 59.9056 84.2348 59.8056 83.7019 59.794C83.3894 59.7683 83.0752 59.8131 82.7811 59.9248C82.4869 60.0366 82.2198 60.2129 81.9981 60.4414C81.7764 60.67 81.6055 60.9454 81.4971 61.2488C81.3887 61.5521 81.3454 61.8761 81.3702 62.1983C81.3603 62.5228 81.4162 62.8457 81.5341 63.1466C81.652 63.4476 81.8295 63.7198 82.0553 63.946C82.281 64.1722 82.55 64.3473 82.8451 64.4604C83.1402 64.5734 83.4549 64.6218 83.7691 64.6024C84.2763 64.5788 84.7786 64.49 85.2645 64.3381L85.649 65.5968C85.4488 65.6721 85.2451 65.7372 85.0386 65.7919C84.5983 65.8976 84.1479 65.9523 83.6959 65.9555C81.2543 65.9555 79.6733 64.4764 79.6733 62.1793C79.6733 59.8821 81.2055 58.403 83.5371 58.403C84.2469 58.3997 84.951 58.5345 85.6124 58.7998L85.2645 60.0899Z"
          fill="var(--current-color-1)"/>
    <path d="M86.3813 60.3544H87.8524V61.1663C87.9841 60.8843 88.1945 60.6493 88.4565 60.4911C88.7186 60.3331 89.0203 60.2591 89.3233 60.2788C89.551 60.2827 89.7761 60.3274 89.9887 60.4109L89.6286 61.7957C89.4813 61.7706 89.3322 61.7601 89.183 61.7643C89.0007 61.7399 88.8153 61.7668 88.6466 61.8421C88.4779 61.9175 88.3321 62.0383 88.2246 62.1921C88.0294 62.4565 87.9988 62.6831 87.9988 63.4069V65.8426H86.3691V60.3482L86.3813 60.3544Z"
          fill="var(--current-color-1)"/>
    <path d="M91.5879 63.6839C91.6489 64.3763 92.1983 64.7727 93.0589 64.7727C93.5429 64.7524 94.019 64.6394 94.4628 64.4393L94.8779 65.4651C94.7525 65.5264 94.6241 65.5807 94.4933 65.6286C93.9948 65.8263 93.4649 65.9268 92.9307 65.9245C91.1423 65.9245 89.9581 64.7728 89.9581 63.0924C89.9334 62.721 89.9841 62.3482 90.1068 61.9981C90.2295 61.648 90.4216 61.328 90.6708 61.0587C90.9199 60.7892 91.2208 60.5765 91.5542 60.4336C91.8876 60.2907 92.2462 60.2207 92.6073 60.2286C94.237 60.2286 95.1647 61.3804 95.1647 63.3754V63.6713H91.5879V63.6839ZM91.5573 62.5322H93.7243C93.7274 62.3873 93.7028 62.2433 93.6517 62.1084C93.6005 61.9734 93.5238 61.8503 93.4262 61.7461C93.3286 61.6418 93.2118 61.5585 93.0827 61.5012C92.9536 61.4438 92.8149 61.4137 92.6743 61.412C92.3843 61.4118 92.1057 61.5281 91.8971 61.7359C91.6887 61.9438 91.5668 62.2272 91.5573 62.526V62.5322ZM92.8331 57.6293L94.1393 58.3218L92.8636 59.9077L91.8748 59.4105L92.8331 57.6293Z"
          fill="var(--current-color-1)"/>
    <path d="M99.7299 57.8869H101.354V65.8169H99.8887V65.0616C99.6881 65.3385 99.4274 65.5632 99.1274 65.7174C98.8274 65.8715 98.4964 65.9508 98.1612 65.9491C96.7879 65.9491 95.8662 64.8289 95.8662 63.1169C95.8662 61.405 96.7879 60.2218 98.1612 60.2218C98.466 60.2139 98.7685 60.2777 99.0457 60.4087C99.3228 60.5395 99.5673 60.7341 99.7606 60.9771V57.8869H99.7299ZM97.496 63.1169C97.496 64.0422 97.9415 64.6335 98.6129 64.6335C99.2844 64.6335 99.7606 64.0419 99.7606 63.0853C99.7606 62.1287 99.3149 61.5371 98.6129 61.5371C97.911 61.5371 97.496 62.1666 97.496 63.1169Z"
          fill="var(--current-color-1)"/>
    <path d="M102.411 58.0506H104.071V59.6304H102.411V58.0506ZM102.411 60.3542H104.041V65.8171H102.411V60.3542Z"
          fill="var(--current-color-1)"/>
    <path d="M104.743 60.354H105.536V59.0009H107.166V60.354H108.387V61.6128H107.166V64.1302C107.166 64.4952 107.453 64.6905 107.904 64.6905C108.087 64.6848 108.268 64.6531 108.442 64.5961L108.637 65.6785C108.245 65.824 107.833 65.9028 107.416 65.9114C107.164 65.9373 106.91 65.9099 106.668 65.8309C106.427 65.7519 106.204 65.623 106.012 65.4519C105.628 65.1184 105.53 64.7597 105.53 63.9038V61.6002H104.736V60.3415L104.743 60.354Z"
          fill="var(--current-color-1)"/>
    <path d="M111.159 58.5737H113.649L115.181 63.017C115.305 63.5573 115.369 64.1107 115.371 64.666C115.391 64.1117 115.457 63.5603 115.566 63.017L117.067 58.5737H119.539V65.8491H117.94L117.971 61.0093C117.971 60.915 118.038 60.3232 118.099 59.7946C118.038 60.1218 118.001 60.2541 117.94 60.487C117.879 60.7198 117.842 60.7828 117.782 61.0093L116.151 65.8869H114.589L112.929 61.0093C112.864 60.8394 112.81 60.6648 112.77 60.487C112.703 60.2541 112.672 60.1218 112.574 59.7946L112.611 60.0905L112.642 60.487C112.642 60.8142 112.703 60.9464 112.703 61.0093L112.74 65.8491H111.14L111.159 58.5737Z"
          fill="var(--current-color-1)"/>
    <path d="M125.588 63.5769C125.588 65.0623 124.63 65.9811 123 65.9811C121.37 65.9811 120.351 65.0937 120.351 63.5769V60.3546H121.98V63.3188C121.956 63.5984 121.999 63.8801 122.109 64.1372C122.204 64.2842 122.332 64.4057 122.481 64.4921C122.631 64.5785 122.798 64.6271 122.97 64.6341C123.64 64.6341 123.958 64.1747 123.958 63.3753V60.4427H125.588V63.5896V63.5769Z"
          fill="var(--current-color-1)"/>
    <path d="M126.29 60.354H127.089V59.0009H128.695V60.354H129.915V61.6128H128.695V64.1302C128.695 64.4952 128.981 64.6905 129.427 64.6905C129.611 64.6844 129.794 64.6527 129.971 64.5961L130.16 65.6785C129.768 65.824 129.356 65.9028 128.939 65.9114C128.687 65.9362 128.432 65.9083 128.192 65.8293C127.95 65.7504 127.727 65.622 127.535 65.4519C127.157 65.1184 127.059 64.7597 127.059 63.9038V61.6002H126.259V60.3415L126.29 60.354Z"
          fill="var(--current-color-1)"/>
    <path d="M136.019 63.5769C136.019 65.0623 135.031 65.9811 133.432 65.9811C131.832 65.9811 130.782 65.0937 130.782 63.5769V60.3546H132.413V63.3188C132.387 63.5984 132.432 63.8801 132.541 64.1372C132.636 64.2842 132.763 64.4057 132.913 64.4921C133.063 64.5785 133.23 64.6271 133.401 64.6341C134.073 64.6341 134.427 64.1747 134.427 63.3753V60.4427H136.019V63.5896V63.5769Z"
          fill="var(--current-color-1)"/>
    <path d="M138.228 63.6838C138.295 64.3762 138.838 64.7726 139.699 64.7726C140.183 64.7524 140.658 64.6393 141.102 64.4392L141.517 65.465C141.395 65.5328 141.267 65.5874 141.133 65.6285C140.635 65.8269 140.105 65.9274 139.571 65.9244C137.782 65.9244 136.598 64.7727 136.598 63.0923C136.573 62.7203 136.624 62.347 136.747 61.9965C136.87 61.6458 137.063 61.3259 137.312 61.0563C137.562 60.7869 137.864 60.5741 138.198 60.4316C138.533 60.2892 138.891 60.2197 139.253 60.2285C140.876 60.2285 141.804 61.3803 141.804 63.3753V63.6713H138.228V63.6838ZM138.228 62.5321H140.401C140.404 62.2393 140.295 61.9571 140.097 61.7472C139.899 61.5373 139.628 61.4169 139.345 61.412C139.2 61.4078 139.056 61.4332 138.921 61.4872C138.786 61.5413 138.662 61.6225 138.558 61.7263C138.454 61.83 138.372 61.9544 138.315 62.0917C138.258 62.229 138.229 62.3766 138.228 62.526V62.5321Z"
          fill="var(--current-color-1)"/>
    <path d="M142.667 57.8869H144.297V65.8169H142.667V57.8869Z" fill="var(--current-color-1)"/>
    <path d="M161.653 61.8641C162.252 61.5452 162.729 61.0284 163.009 60.3964C163.289 59.7644 163.355 59.054 163.197 58.3786C163.038 57.7033 162.665 57.1022 162.136 56.6718C161.607 56.2414 160.953 56.0064 160.28 56.0047H156.831V65.8166H158.46V62.1978H159.681L161.513 64.2368C162.053 64.8492 162.722 65.3251 163.469 65.6273C164.217 65.9297 165.022 66.0504 165.822 65.9802H165.98V64.4006H165.852C165.287 64.4222 164.722 64.3211 164.197 64.1043C163.671 63.8875 163.196 63.5598 162.801 63.1419L161.653 61.8641ZM158.46 57.5907H160.151C160.35 57.5774 160.548 57.6064 160.735 57.6755C160.923 57.7446 161.094 57.8526 161.239 57.9926C161.384 58.1327 161.499 58.3019 161.578 58.4899C161.658 58.6779 161.698 58.8805 161.698 59.0854C161.698 59.2903 161.658 59.493 161.578 59.681C161.499 59.869 161.384 60.0385 161.239 60.1785C161.094 60.3187 160.923 60.4265 160.735 60.4957C160.548 60.5648 160.35 60.5934 160.151 60.5801H158.46V57.5907Z"
          fill="var(--current-color-1)"/>
    <path d="M156.009 65.6533C155.117 62.4246 153.683 57.9498 151.857 56.0051V55.9737H150.668V56.0051C148.836 57.9498 147.408 62.4246 146.516 65.6533L146.45 65.8171H148.28L148.317 65.7163C148.568 64.7974 148.763 63.9415 149.05 63.0163H153.488C153.774 63.9415 154 64.7974 154.22 65.7163V65.8171H156.051L156.009 65.6533ZM149.514 61.5372C149.923 60.2449 150.502 59.0167 151.235 57.887C151.941 59.0353 152.525 60.2592 152.975 61.5372H149.514Z"
          fill="var(--current-color-1)"/>
    <path d="M166.829 65.8171H168.459V55.9737H166.829V65.8171ZM170.723 60.7127L175.832 55.9737H173.666L168.489 60.7505L171.651 64.2058C172.191 64.8182 172.861 65.2941 173.608 65.5965C174.356 65.8987 175.16 66.0196 175.961 65.9492H176.119V64.3694H175.991C175.419 64.3933 174.847 64.2938 174.315 64.0771C173.782 63.8603 173.298 63.5311 172.896 63.1106L170.723 60.7127Z"
          fill="var(--current-color-1)"/>
    <path d="M193.9 65.6529C193.009 62.4242 191.575 57.9495 189.755 56.0425L189.718 56.0047H188.571V56.0425C186.74 57.9809 185.311 62.4242 184.421 65.6529V65.8166H186.251V65.7159C186.508 64.797 186.697 63.9411 186.984 63.0159H191.422C191.708 63.9411 191.934 64.797 192.16 65.7159V65.8166H193.991L193.9 65.6529ZM190.848 61.5685H187.405C187.816 60.2772 188.396 59.049 189.127 57.918C189.861 59.0455 190.435 60.2747 190.836 61.5685H190.848Z"
          fill="var(--current-color-1)"/>
    <path d="M183.592 57.5535V55.9737H177.146V65.7856H183.592V64.1995H178.776V61.5059H182.573V59.9199H178.776V57.5535H183.592Z"
          fill="var(--current-color-1)"/>
</svg>
