<svg id="logo" viewBox="0 0 128 128" fill="none" xmlns="http://www.w3.org/2000/svg">
    <path d="M20.4827 55.5686C20.4827 55.8301 20.4827 56.0915 20.4134 56.2876C20.4134 56.4183 20.4134 56.549 20.4134 56.6144C20.4134 56.6797 20.552 56.4837 20.552 56.3529C20.6213 56.1569 20.6906 55.8954 20.6906 55.6993C20.7599 55.4379 20.6906 55.2418 20.6213 55.1765L20.2055 54.9804C20.4134 55.0458 20.4827 55.2418 20.4827 55.5686ZM19.859 55.3072L19.9283 55.4379C20.0669 55.9608 20.1362 56.4837 20.1362 57.0719V57.4641L20.2055 57.0719C20.2748 56.549 20.2748 56.0261 20.2055 55.5033C20.2055 55.5033 20.2055 55.4379 20.2055 55.3725C20.1362 55.1111 19.9976 54.8497 19.7204 54.719L19.3047 54.5882H19.1661C19.3047 54.6536 19.374 54.719 19.5125 54.7843C19.6511 54.915 19.7897 55.1111 19.859 55.3072ZM22.908 57.3987C22.908 57.4641 22.9773 57.5294 23.1852 57.5948C22.908 57.4641 22.6308 57.3987 22.3536 57.3987C22.4922 57.3987 22.5615 57.3987 22.4922 57.3333C22.4229 57.268 22.3536 57.268 22.2151 57.268H22.1458C21.5914 57.268 21.1063 57.3333 20.552 57.4641L20.1362 57.5948C20.2748 57.5948 20.3441 57.5294 20.4827 57.5294L20.1362 57.5948H20.6213C21.2449 57.5294 21.8686 57.5948 22.4229 57.7255C23.2545 57.8562 23.9474 58.2484 24.4325 58.902C24.3632 58.7712 24.2246 58.5098 24.086 58.3791C23.9474 58.183 23.8088 58.0523 23.601 57.9216C23.6703 57.9216 23.6703 57.9216 23.6703 57.9216C23.6703 57.9216 23.6703 57.9216 23.6703 57.8562C23.601 57.7255 23.4624 57.6601 23.3931 57.5948C23.2545 57.5294 23.1852 57.4641 23.0466 57.4641C22.8387 57.3333 22.908 57.3987 22.908 57.3987ZM23.8088 57.8562C23.8088 57.8562 23.8781 57.9869 23.9474 58.0523L24.0167 58.183L23.8088 57.8562ZM24.0167 58.183L24.086 58.3137C24.0167 58.2484 24.0167 58.183 24.0167 58.183ZM23.2545 58.3137C23.4624 58.3791 23.4624 58.4444 23.5317 58.3791V58.3137C23.4624 58.183 23.3238 58.1176 23.1852 58.0523C22.9773 57.9869 22.7694 57.9216 22.5615 57.8562C21.9379 57.6601 21.3142 57.5948 20.6906 57.5294H20.2055L20.6906 57.5948C21.3142 57.6601 22.0072 57.7908 22.6308 58.0523C22.7694 58.1176 23.0466 58.183 23.2545 58.3137ZM22.0072 56.8105L21.7993 56.8758C21.6607 56.9412 21.5221 56.9412 21.3835 57.0065C21.2449 57.0719 21.1063 57.1373 21.1063 57.1373C21.1756 57.1373 21.3142 57.1373 21.3835 57.1373C21.5914 57.0719 21.8686 57.0719 22.0765 57.0065C22.4922 56.8758 22.9773 57.0065 23.2545 57.268L22.908 56.8758C22.7694 56.7451 22.4229 56.6797 22.0072 56.8105ZM22.6308 58.183C22.4229 58.1176 22.2151 57.9869 22.0072 57.9216C21.6607 57.7908 21.5914 57.7908 21.5914 57.7908C21.73 57.8562 21.8686 57.9869 22.0765 57.9869C22.2843 58.0523 22.4922 58.183 22.7001 58.2484C23.5317 58.6405 24.2939 59.2941 24.8483 60.0131C25.1947 60.4706 25.4026 61.0588 25.5412 61.5817L25.4026 61.3203L25.3333 60.9935C25.264 60.6667 25.1254 60.3399 24.9176 60.0784C24.3632 59.2941 23.601 58.6405 22.6308 58.183ZM17.4337 56.1569L17.2951 56.0915C17.1565 56.0261 17.0872 56.0261 16.9486 55.9608C16.81 55.9608 16.7407 55.9608 16.6714 55.9608C16.6022 55.9608 16.7407 56.0261 16.8793 56.0915C17.0179 56.1569 17.0179 56.1569 17.2258 56.2222L17.3644 56.2876C18.1266 56.549 18.8889 56.8758 19.6511 57.268L20.1362 57.5294C19.859 57.3333 19.7897 57.268 19.5818 57.2026C18.8889 56.7451 18.1959 56.4183 17.4337 56.1569ZM17.5723 55.5033L17.0872 55.2418C16.9486 55.1111 16.7407 55.1111 16.5329 55.1111V55.1765C16.6714 55.2418 16.7407 55.3072 16.8793 55.3725L17.3644 55.634L17.7802 55.7647C18.4731 56.1569 19.0968 56.549 19.6511 57.0719C19.7897 57.2026 19.9283 57.3333 20.0669 57.4641C19.859 57.268 19.859 57.268 19.7204 57.0719C19.1661 56.549 18.5424 56.0915 17.9188 55.6993L17.5723 55.5033ZM19.0968 54.9804L19.1661 55.1111C19.2354 55.2418 19.3047 55.3072 19.374 55.4379C19.6511 55.9608 19.859 56.4837 19.9976 57.0719C20.0669 57.268 20.0669 57.3333 20.0669 57.5294C20.0669 57.5294 20.0669 57.3333 19.9976 57.1373C19.9976 56.4837 19.859 55.9608 19.5818 55.4379C19.5125 55.3725 19.5125 55.2418 19.4432 55.1765C19.374 55.1111 19.3047 54.9804 19.2354 54.915C19.0968 54.6536 18.8196 54.4575 18.4731 54.3268L18.2652 54.2614L17.9188 54.1961C18.4038 54.3268 18.8196 54.5882 19.0968 54.9804ZM18.6117 55.3725L18.5424 55.3072C18.4038 55.1765 18.1959 54.9804 18.0573 54.915C17.9188 54.7843 17.7802 54.719 17.6416 54.6536C17.503 54.5882 17.2951 54.5229 17.1565 54.4575C17.2258 54.5229 17.2951 54.5882 17.3644 54.5882C17.503 54.6536 17.5723 54.719 17.7109 54.7843C17.9881 54.9804 18.1959 55.1111 18.4038 55.3072L18.4731 55.3725C19.0275 55.8954 19.5125 56.4183 19.859 57.0065C19.9283 57.1373 20.0669 57.268 20.1362 57.4641L19.859 57.0719C19.5125 56.4837 19.0968 55.8954 18.6117 55.3725ZM24.4325 65.8301C24.4325 65.9608 24.5018 65.9608 24.5018 65.9608C24.5018 65.8954 24.5711 65.8954 24.5711 65.8301C24.6404 65.6993 24.6404 65.5033 24.6404 65.3725C24.5711 63.7386 24.086 62.1046 23.1159 60.732C22.908 60.3399 22.6308 59.9477 22.3536 59.6209C21.7993 58.9673 21.2449 58.4444 20.552 57.9216L20.0669 57.5294C20.2055 57.6601 20.3441 57.7255 20.552 57.9216C21.1756 58.4444 21.73 59.098 22.2151 59.7516C22.4922 60.0784 22.7001 60.4052 22.908 60.7974C23.8088 62.3007 24.2939 63.9346 24.3632 65.6993C24.4325 65.7647 24.4325 65.7647 24.4325 65.8301ZM11.1278 61.3856C11.6822 60.9935 12.3059 60.6013 12.9295 60.2092C12.9988 60.1438 13.0681 60.0131 12.9988 59.9477C12.9295 59.817 12.7909 59.7516 12.6523 59.817C12.0287 60.1438 11.405 60.5359 10.8507 60.9281C10.5735 61.1242 10.5042 61.3203 10.5735 61.5163C10.6428 61.7124 10.8507 61.5817 11.1278 61.3856ZM17.0179 58.3137C17.8495 57.9869 18.7503 57.7908 19.5818 57.5948L19.9976 57.5294L19.5125 57.5948C18.6117 57.6601 17.7109 57.8562 16.8793 58.1176L16.5329 58.2484C15.3548 58.5752 14.2461 59.0327 13.2067 59.5556C13.0681 59.6209 13.0681 59.7516 13.0681 59.817C13.2067 59.8824 13.3453 59.9477 13.4146 59.8824C14.3847 59.2941 15.4934 58.8366 16.5329 58.4444L17.0179 58.3137ZM20.0669 57.5294L19.5125 57.3987C18.681 57.268 17.8495 57.1373 17.0179 57.1373H16.7407C16.6022 57.1373 16.4636 57.2026 16.4636 57.2026C16.5329 57.268 16.6022 57.268 16.6714 57.268H17.0872C17.9188 57.2026 18.7503 57.268 19.5818 57.3987C19.7204 57.4641 19.9283 57.4641 20.0669 57.5294ZM16.7407 56.7451C16.0478 56.6797 15.3548 56.6144 14.6619 56.6797C14.3154 56.6797 14.1075 56.7451 14.1075 56.8758C14.1075 56.9412 14.3154 57.0065 14.6619 56.9412C15.3548 56.8758 16.0478 56.8758 16.7407 56.9412H16.81C17.7109 57.0065 18.6117 57.1373 19.5125 57.3987L20.0669 57.5294L19.5125 57.3333C18.681 57.0719 17.7802 56.8758 16.9486 56.7451H16.7407ZM21.1063 64.3922C21.1756 63.281 21.1756 62.2353 21.1063 61.1242C21.037 60.7974 21.037 60.4052 20.9677 60.0784C20.8984 59.7516 20.8984 59.6209 20.8292 59.3595C20.7599 59.1634 20.7599 58.9673 20.6213 58.8366C20.6213 58.902 20.552 58.902 20.6213 59.2941C20.6906 59.5556 20.6906 59.7516 20.6906 60.0131C20.7599 60.3399 20.7599 60.732 20.7599 61.0588C20.8292 62.1699 20.7599 63.2157 20.6213 64.3268C20.6213 64.6536 20.6213 64.8497 20.7599 64.8497C20.8984 64.8497 21.037 64.719 21.1063 64.3922ZM21.3835 61.0588C21.4528 61.5163 21.5221 61.9739 21.5914 62.366C21.6607 62.6928 21.73 62.8889 21.7993 62.8889C21.8686 62.8889 21.9379 62.6275 21.8686 62.3007C21.7993 61.8431 21.73 61.451 21.5914 60.9935C21.5221 60.6667 21.3835 60.3399 21.3142 60.0131C21.1063 59.2941 20.7599 58.6405 20.4134 57.9869C20.3441 57.7908 20.2748 57.7908 20.1362 57.5294L20.3441 57.9869C20.6906 58.6405 20.8984 59.2941 21.1063 60.0131C21.2449 60.3399 21.3142 60.732 21.3835 61.0588ZM20.4134 57.268C20.8292 57.0065 21.2449 56.7451 21.6607 56.549L21.7993 56.4837C21.9379 56.4183 22.1458 56.3529 22.2843 56.3529C22.3536 56.3529 22.3536 56.2876 22.2151 56.2222C22.0765 56.1569 22.0072 56.1569 21.9379 56.1569C21.7993 56.2222 21.6607 56.2876 21.5914 56.3529L21.5221 56.4183C21.1063 56.6797 20.7599 56.9412 20.4134 57.268ZM12.3751 56.2222C12.3059 56.2222 12.2366 56.2876 12.1673 56.3529C12.1673 56.4183 12.2366 56.4183 12.3059 56.4837H12.6523C14.0382 56.2876 15.3548 56.3529 16.7407 56.549H17.0872C17.4337 56.6144 17.7109 56.6797 18.0573 56.7451C18.2652 56.8105 18.4038 56.8105 18.6117 56.8758C18.6117 56.8758 18.5424 56.8105 18.0573 56.6144C17.7802 56.6144 17.4337 56.4837 17.1565 56.4183L16.81 56.3529C15.4934 56.0261 14.1075 55.9608 12.7909 56.0915C12.6523 56.1569 12.5137 56.1569 12.3751 56.2222ZM13.5532 72.2353H13.4839C13.6225 72.3007 13.8996 72.3007 14.0382 72.366H14.1075C14.1768 72.366 14.1768 72.366 14.1768 72.366H14.0382L13.5532 72.2353ZM14.3154 71.7778C14.5233 71.6471 14.3154 71.5163 14.1075 71.5163C13.9689 71.5163 13.8303 71.5163 13.6918 71.5817C13.6225 71.6471 13.4839 71.7124 13.4146 71.7778C13.1374 71.9739 12.8602 72.0392 12.5137 71.9739H12.583L12.8602 72.0392L13.0681 72.1046C13.4146 72.1699 13.6918 72.1046 14.0382 71.9739C14.0382 71.9085 14.1768 71.8431 14.3154 71.7778ZM10.6428 69.1634C10.7814 68.9673 10.9892 68.7059 11.1971 68.4444C11.3357 68.3137 11.2664 68.0523 11.1278 67.9869C10.9892 67.9216 10.7814 67.9216 10.6428 68.0523C10.5042 68.3137 10.2963 68.5098 10.1577 68.7059C10.0884 68.8366 10.0884 69.098 10.227 69.1634C10.3656 69.2941 10.5042 69.2941 10.6428 69.1634ZM17.9188 54.5229C18.1266 54.6536 18.3345 54.7843 18.4731 54.915C18.5424 54.9804 18.6117 55.0458 18.681 55.1765C18.7503 55.3072 18.8196 55.3072 18.8889 55.4379C19.3047 55.9608 19.6511 56.4837 19.9283 57.0719C19.9976 57.268 20.0669 57.3333 20.1362 57.5294C20.1362 57.5294 20.0669 57.3333 19.9976 57.0719C19.7897 56.4837 19.5125 55.9608 19.1661 55.4379C19.0968 55.3072 19.0275 55.2418 18.8889 55.1111L18.8196 55.0458C18.6117 54.7843 18.4731 54.6536 18.2652 54.5229C18.1266 54.4575 17.9881 54.3922 17.8495 54.3268H17.7802C17.7802 54.3922 17.7802 54.3922 17.9188 54.5229ZM12.9988 70.732C13.2067 70.7974 13.4146 70.7974 13.5532 70.6667C13.7611 70.4052 14.0382 70.1438 14.2461 69.8824C14.3847 69.7516 14.3154 69.5556 14.1768 69.4248C14.1768 69.4248 14.1075 69.4248 14.1075 69.3595C13.9689 69.2941 13.7611 69.3595 13.6918 69.4902C13.4146 69.817 13.1374 70.1438 12.9295 70.4052C12.8602 70.4706 12.8602 70.6667 12.9295 70.732H12.9988ZM14.5926 71.1895C14.8005 71.2549 15.0084 71.1895 15.147 71.0588C15.3548 70.8627 15.5627 70.6667 15.7706 70.4052C15.9092 70.2745 15.8399 70.0784 15.7013 69.9477L15.632 69.8824C15.4934 69.817 15.3548 69.8824 15.2855 70.0131C15.0777 70.2745 14.8698 70.6013 14.5926 70.8627C14.3847 71.0588 14.3847 71.1242 14.5926 71.1895ZM18.0573 71.1895C17.8495 71.1895 17.6416 71.3203 17.4337 71.451C16.8793 71.9739 16.1171 72.366 15.3548 72.4314C15.2162 72.4314 15.0084 72.4314 14.8698 72.4314L15.4934 72.4967C16.4636 72.4967 17.3644 72.1046 18.0573 71.451C18.3345 71.1895 18.0573 71.1895 18.0573 71.1895ZM14.9391 72.3007C15.0777 72.2353 15.2162 72.2353 15.3548 72.1699C15.632 72.0392 15.3548 71.9739 15.3548 71.9739C15.147 71.9739 14.9391 71.9739 14.8005 72.0392C14.7312 72.1046 14.5926 72.1046 14.5233 72.1699H14.454C14.3847 72.1699 14.3154 72.2353 14.3847 72.2353H14.454C14.5926 72.3007 14.7312 72.3007 14.9391 72.3007ZM10.5042 70.9935L10.6428 71.0588L10.4349 70.9935H10.5042ZM12.0287 71.5163C11.8901 71.451 11.8208 71.451 11.6822 71.5163C11.6129 71.5163 11.5436 71.5817 11.4743 71.5817C11.4743 71.5817 11.4743 71.5817 11.6129 71.6471C11.7515 71.6471 11.8208 71.6471 11.9594 71.7124C12.0287 71.7124 12.098 71.7124 12.1673 71.7124C12.2366 71.6471 12.098 71.5163 12.0287 71.5163ZM12.7216 71.3856L12.9295 71.2549C13.1374 71.0588 12.8602 70.9281 12.6523 70.9281C12.5137 70.9281 12.4444 70.9281 12.3751 70.9935L12.098 71.2549C12.0287 71.3203 12.0287 71.3856 12.1673 71.5163C12.3059 71.5817 12.4444 71.5817 12.583 71.5163L12.7216 71.3856ZM9.53405 69.7516C9.32616 70.0784 9.32616 70.2092 9.39546 70.2745L9.67264 70.4706L9.74194 70.5359C9.74194 70.5359 9.74194 70.4052 9.88053 70.1438C10.0191 69.8824 9.67264 69.6863 9.53405 69.7516ZM8.42533 69.1634C8.42533 69.3595 8.49462 69.4248 8.56392 69.5556L8.91039 69.8824C8.8411 69.817 8.7718 69.6863 8.7718 69.6209C8.7718 69.3595 8.49462 69.098 8.42533 69.1634ZM19.9976 70.9281C19.7204 70.8627 19.4433 70.9935 19.2354 71.1895C18.5424 71.9085 17.5723 72.366 16.5329 72.4967C16.7407 72.4967 17.0872 72.4314 17.2951 72.4314C18.4038 72.2353 19.3047 71.7124 19.9976 70.9281ZM20.8292 70.9935C20.8984 70.9281 20.8984 70.9281 20.8984 70.8627C20.8292 70.8627 20.7599 70.8627 20.552 70.9935C20.4134 71.0588 20.3441 71.1242 20.2055 71.2549C19.7204 71.6471 19.1661 71.9739 18.4731 72.1699C18.7503 72.1046 19.0968 71.9739 19.3047 71.9085C19.7897 71.7124 20.2748 71.451 20.6906 71.1242L20.8292 70.9935ZM12.3751 69.5556C12.583 69.2288 12.3059 68.9673 12.0287 69.0327C11.9594 69.0327 11.8208 69.098 11.7515 69.1634C11.405 69.6209 11.1278 69.9477 10.92 70.2092L10.7814 70.4052C10.6428 70.6013 10.5042 70.732 10.4349 70.732C10.3656 70.732 10.4349 70.7974 10.5735 70.9281C10.7121 71.0588 10.7814 71.0588 10.8507 70.9935C10.9892 70.9281 11.1278 70.7974 11.2664 70.6667L11.405 70.4706C11.6822 70.4052 12.0287 70.0131 12.3751 69.5556ZM8.70251 58.8366C9.81123 58.0523 11.1278 57.5294 12.4444 57.268C12.583 57.268 12.6523 57.2026 12.7909 57.2026C13.3453 57.0719 13.3453 56.9412 13.3453 56.9412C13.3453 56.9412 13.2067 56.8758 12.7909 56.8758L12.3751 56.9412C11.1278 57.1373 9.94982 57.6601 8.8411 58.3137C8.14815 58.7712 7.52449 59.2941 7.03943 59.9477C6.48507 60.6667 6.13859 61.451 6.0693 62.366C6.0693 62.6275 6 62.9542 6 63.2157C6 62.2353 6.34648 61.2549 6.97013 60.4706C7.4552 59.817 8.07885 59.2288 8.70251 58.8366ZM7.17802 63.2157C7.31661 63.1503 7.31661 63.1503 7.4552 63.0196C7.87097 62.4314 8.42533 61.9085 8.97969 61.451C9.04898 61.3856 9.11828 61.2549 9.04898 61.1895C8.97969 61.0588 8.8411 60.9935 8.70251 61.0588C8.70251 61.0588 8.63321 61.0588 8.63321 61.1242C8.07885 61.5163 7.59379 61.9739 7.24731 62.4967C7.10872 62.6928 7.03943 62.8889 7.10872 63.1503C7.10872 63.1503 7.10872 63.1503 7.17802 63.2157ZM19.859 68.9673C19.9283 68.7712 19.9976 68.5098 20.1362 68.3137C20.2055 68.183 20.1362 68.0523 19.9283 67.9869H19.859C19.7204 67.9869 19.5818 68.0523 19.5818 68.183C19.5125 68.4444 19.374 68.7059 19.2354 68.9673C19.0968 69.2288 19.1661 69.4248 19.3047 69.4248C19.4433 69.4248 19.7204 69.2288 19.859 68.9673ZM18.2652 69.0327C18.4038 68.7059 18.6117 68.3791 18.7503 68.0523C18.8196 67.9216 18.7503 67.7255 18.6117 67.6601H18.5424C18.4038 67.6601 18.2652 67.7255 18.1959 67.7909C18.0573 68.183 17.8495 68.5098 17.6416 68.8366C17.4337 69.1634 17.5723 69.2941 17.7109 69.3595C17.8495 69.4248 18.1266 69.2941 18.2652 69.0327ZM21.1756 70.5359C21.3835 70.4706 21.5914 70.2745 21.73 70.0784C22.2843 69.3595 22.6308 68.5098 22.8387 67.6601C22.8387 67.5294 22.4229 67.4641 22.3536 67.7255C22.1458 68.6405 21.73 69.4248 21.1756 70.2092C21.037 70.4706 21.037 70.4706 21.1756 70.5359ZM16.6022 54.719C17.0179 54.915 17.4337 55.1111 17.8495 55.3725L18.0573 55.5033C18.2652 55.634 18.4731 55.8301 18.7503 56.0261C18.8889 56.1569 19.0275 56.2876 19.1661 56.3529C19.1661 56.2876 19.1661 56.2222 18.8889 55.9608C18.681 55.7647 18.4038 55.5686 18.1959 55.3725L18.1266 55.3072C17.7802 55.0458 17.4337 54.8497 17.0872 54.6536C16.0478 54.0654 14.8005 53.8693 13.6225 54.1307C13.3453 54.1961 12.9988 54.2614 12.7216 54.3268C14.0382 54.0654 15.4241 54.1961 16.6022 54.719ZM15.2162 54.7843L15.5627 54.8497C15.9785 54.915 16.1171 54.915 16.1171 54.915C16.0478 54.8497 15.9092 54.7843 15.8399 54.7843H15.7706C14.7312 54.3922 13.6225 54.3268 12.5137 54.5882C12.1673 54.6536 11.8208 54.7843 11.5436 54.915C11.2664 55.0458 10.92 55.2418 10.6428 55.3725C11.1971 55.0458 11.8208 54.8497 12.4444 54.719C13.3453 54.5882 14.3154 54.5882 15.2162 54.7843ZM10.1577 56.3529C10.8507 56.0915 11.6129 55.8954 12.3751 55.7647L12.9295 55.6993C13.4146 55.634 13.6225 55.5686 13.5532 55.5033C13.4146 55.4379 13.276 55.4379 13.1374 55.4379C12.9295 55.4379 12.6523 55.4379 12.4444 55.5033C11.8901 55.5686 11.3357 55.6993 10.8507 55.8301C10.227 56.0261 9.67264 56.2876 9.18757 56.6144C8.97969 56.7451 8.8411 56.8758 8.70251 57.0719V57.1373C8.7718 57.1373 8.7718 57.1373 8.97969 57.0065C9.32617 56.7451 9.74194 56.4837 10.1577 56.3529ZM8.8411 57.7255L9.11828 57.5294C9.74194 57.2026 10.3656 56.9412 11.0585 56.7451C11.6129 56.549 11.6822 56.4183 11.5436 56.3529C11.405 56.3529 11.2664 56.3529 11.1278 56.3529C10.5735 56.4837 9.94982 56.7451 9.46476 57.0065C9.32616 57.1373 9.18757 57.2026 8.97969 57.3333C8.7718 57.3987 8.63321 57.5948 8.56392 57.7908C8.49462 57.9216 8.63321 57.9216 8.8411 57.7255ZM10.0884 63.4771C9.53405 64 9.04898 64.5229 8.63321 65.1111C8.49462 65.3072 8.42533 65.5686 8.56392 65.7647C8.70251 65.8954 8.8411 65.8954 9.04898 65.6993C9.53405 65.1111 10.0191 64.5229 10.5735 63.9346C10.7121 63.8039 10.7121 63.6078 10.5735 63.4771C10.4349 63.3464 10.227 63.3464 10.0884 63.4771ZM8.70251 68.4444C8.56392 68.3137 8.49462 68.5752 8.49462 68.6405C8.49462 68.7712 8.56392 68.9673 8.63321 69.0327C8.7718 69.1634 8.8411 69.098 8.91039 69.098C8.97969 68.902 9.04898 68.7712 8.70251 68.4444ZM7.10872 67.0719C7.10872 66.8758 7.10872 66.6144 7.10872 66.4183C7.17802 66.0261 6.97013 65.6993 6.83154 65.7647C6.69295 65.8301 6.76225 65.8301 6.76225 65.8954C6.69295 66.2222 6.76225 66.549 6.83154 66.8758C6.90084 67.0719 6.90084 67.2026 6.97013 67.3333L7.24731 67.8562V67.7909C7.17802 67.5948 7.10872 67.3333 7.10872 67.0719ZM9.88053 69.1634C9.81123 69.1634 9.81123 69.2288 9.74194 69.2288C9.74194 69.2288 9.74194 69.2288 9.74194 69.2941C9.74194 69.4248 9.74194 69.5556 9.88053 69.6209C10.0191 69.7516 10.1577 69.7516 10.227 69.6863H10.2963C10.3656 69.4902 10.2963 69.2941 10.1577 69.2288C10.0191 69.1634 9.94982 69.1634 9.88053 69.1634ZM6.13859 63.9346C6.20789 63.5425 6.27718 63.1503 6.41577 62.7582C6.62366 62.3007 6.55436 62.0392 6.48507 62.0392C6.41577 62.1046 6.34648 62.1699 6.34648 62.2353C6.13859 62.6928 6 63.2157 6 63.7386C6 63.8693 6 64.0654 6 64.2614C6.0693 64.5229 6.0693 64.7843 6.13859 65.0458C6.0693 64.6536 6.0693 64.3268 6.13859 63.9346ZM6.48507 65.7647C6.48507 65.3072 6.55436 64.8497 6.69295 64.4575C6.76225 64.3268 6.83154 64.1307 6.83154 64C6.97013 63.6078 6.90084 63.281 6.76225 63.281C6.62366 63.281 6.69295 63.4118 6.69295 63.4771C6.55436 63.7386 6.48507 63.9346 6.41577 64.1961C6.34648 64.5229 6.27718 64.915 6.27718 65.3072C6.27718 65.5033 6.34648 65.6993 6.41577 65.8301C6.41577 65.8954 6.41577 65.8954 6.48507 65.8954C6.55436 65.8954 6.48507 65.8954 6.48507 65.7647ZM23.7395 60.6013C23.3931 60.1438 23.0466 59.7516 22.6308 59.3595C22.0765 58.7712 21.3835 58.2484 20.6906 57.8562C20.552 57.7908 20.4827 57.7255 20.2055 57.5294C21.1063 58.0523 21.8686 58.7712 22.5615 59.4902C22.908 59.8824 23.2545 60.2092 23.5317 60.6667C24.7097 62.1699 25.1947 64 25.0562 65.8301C24.9869 66.2876 24.9176 66.7451 24.7097 67.1373C24.5711 67.4641 24.4325 67.7255 24.2939 68.0523C24.4325 67.7909 24.6404 67.3987 24.779 67.1373C24.9869 66.7451 25.1254 66.2876 25.1947 65.8954C25.4719 64 24.9176 62.1046 23.7395 60.6013ZM24.6404 66.549C24.6404 66.3529 24.6404 66.2876 24.6404 66.2222C24.6404 66.1569 24.3632 66.7451 24.3632 66.8758C24.3632 67.0065 24.2939 67.0719 24.2939 67.2026C24.086 67.9216 23.8088 68.5752 23.3238 69.1634C23.1159 69.4248 22.908 69.6863 22.6308 69.9477L23.3931 69.2288C23.4624 69.098 23.601 69.0327 23.6703 68.902C24.086 68.3791 24.3632 67.7909 24.5018 67.2026C24.5711 66.9412 24.5711 66.7451 24.6404 66.549ZM22.4922 61.7124C22.4229 61.5163 22.2151 61.5817 22.2843 61.7778C22.3536 61.9739 22.4229 62.366 22.4922 62.6275C22.5615 62.8889 22.6308 63.1503 22.7694 63.1503C22.908 63.1503 22.8387 62.8889 22.7694 62.5621C22.7001 62.2353 22.5615 61.9739 22.4922 61.7124ZM22.7694 69.5556C23.2545 68.8366 23.6703 68.0523 23.8088 67.268C23.8781 66.8758 23.9474 66.4837 23.9474 66.0915C23.9474 66.0261 23.601 65.6993 23.601 66.0915C23.601 66.4837 23.5317 66.9412 23.4624 67.3333C23.2545 68.2484 22.908 69.098 22.3536 69.8824C22.2843 69.9477 22.2151 70.0131 22.2151 70.1438H22.2843C22.4922 69.9477 22.7001 69.7516 22.7694 69.5556ZM24.0167 65.4379C23.9474 63.8693 23.5317 62.3007 22.7694 60.8627C22.6308 60.5359 22.4229 60.2092 22.2151 59.8824C22.0072 59.5556 21.8686 59.3595 21.6607 59.098C21.5221 58.9673 21.4528 58.8366 21.3142 58.7059C21.3142 58.7712 21.3142 58.7712 21.5914 59.1634C21.7993 59.4248 21.9379 59.6863 22.0765 59.9477C22.2151 60.2092 22.4229 60.5359 22.5615 60.8627C23.2545 62.3007 23.6703 63.8693 23.6703 65.4379C23.6703 65.5686 24.0167 65.7647 24.0167 65.4379ZM21.3835 55.9608L21.5221 55.8301C21.5221 55.8301 21.5221 55.7647 21.3835 55.6993C21.2449 55.634 21.2449 55.5686 21.2449 55.634L21.1756 55.7647C21.1063 55.9608 21.2449 56.0915 21.3835 55.9608ZM24.5711 60.3399C24.6404 60.5359 24.7097 60.6667 24.8483 60.8627V60.9281C24.9869 61.1242 25.0562 61.1895 25.0562 61.1242C25.0562 60.9281 24.9176 60.732 24.8483 60.6013V60.5359C24.7097 60.3399 24.5711 60.2745 24.5711 60.3399ZM25.6105 62.9542V62.8235C25.6105 62.366 25.4719 61.9739 25.3333 61.5817C25.264 61.451 25.264 61.3856 25.1947 61.3856C25.1254 61.3856 25.1947 61.6471 25.3333 61.9739C25.5412 62.5621 25.6105 63.1503 25.6105 63.7386C25.6105 63.4771 25.6105 63.1503 25.6105 62.9542ZM24.6404 61.2549C24.6404 61.451 24.7097 61.6471 24.779 61.7778C25.4026 63.0196 25.6105 64.4575 25.1947 65.7647C25.264 65.5033 25.3333 65.1111 25.4026 64.8497C25.6105 63.6732 25.4026 62.4967 24.779 61.451C24.779 61.3203 24.7097 61.2549 24.6404 61.2549ZM23.9474 58.5098C23.8781 58.4444 23.8088 58.3791 23.7395 58.4444C23.6703 58.5098 23.9474 58.7712 24.0167 58.7712C24.4325 59.098 24.779 59.5556 24.9869 60.0131V60.0784L24.7097 59.5556C24.6404 59.1634 24.3632 58.7712 23.9474 58.5098ZM20.2748 62.6928C20.2748 62.4314 20.3441 62.1046 20.3441 61.8431C20.3441 61.3856 20.2748 61.1895 20.2055 61.3203C20.1362 61.451 20.0669 61.6471 20.0669 61.7778C19.9976 62.0392 19.9976 62.366 19.9283 62.6275C19.859 62.8889 19.9283 63.1503 19.9976 63.2157C20.0669 63.281 20.2055 63.0196 20.2748 62.6928ZM16.6714 61.1242C16.4636 61.1895 16.325 61.2549 16.2557 61.3856L16.1864 61.451C15.9785 61.7124 15.9092 61.9085 15.9785 62.0392C16.0478 62.1699 16.325 62.0392 16.5329 61.7778V61.7124C16.8793 61.3856 16.8793 61.1242 16.6714 61.1242ZM16.0478 66.6144H16.1171C16.2557 66.6797 16.3943 66.6144 16.4636 66.4837C16.81 65.8301 17.1565 65.1765 17.503 64.4575C17.5723 64.3268 17.503 64.1961 17.3644 64.1307C17.2258 64.0654 17.0872 64.1307 17.0179 64.2614C16.6714 64.915 16.2557 65.5686 15.9092 66.2222C15.8399 66.3529 15.8399 66.4837 15.9785 66.549C15.9785 66.6144 15.9785 66.6144 16.0478 66.6144ZM17.3644 63.6732C17.2951 63.8039 17.3644 63.9346 17.503 64C17.6416 64.0654 17.7802 64 17.8495 63.8693C18.1959 63.2157 18.4731 62.4967 18.7503 61.8431C18.8889 61.451 18.8196 61.3203 18.7503 61.2549C18.681 61.1895 18.5424 61.2549 18.3345 61.6471C18.0573 62.366 17.7109 63.0196 17.3644 63.6732ZM13.4839 64.9804C13.6225 65.0458 13.8303 65.0458 13.8996 64.915C14.454 64.1961 15.0777 63.4771 15.632 62.7582L15.7013 62.6275C15.9092 62.3007 15.7706 62.1046 15.5627 62.1699C15.4934 62.1699 15.3548 62.2353 15.2855 62.3007C15.2162 62.366 15.147 62.366 15.147 62.4314C14.5233 63.1503 13.8996 63.8693 13.3453 64.5229C13.2067 64.6536 13.2067 64.8497 13.3453 64.9804C13.4146 64.9804 13.4146 64.9804 13.4839 64.9804ZM11.9594 64.3268C12.098 64.4575 12.2366 64.4575 12.3751 64.3268C13.0681 63.6078 13.7611 62.8889 14.5233 62.1699C14.5926 62.1046 14.5926 61.9085 14.5233 61.8431C14.454 61.7124 14.2461 61.7124 14.1075 61.8431C13.3453 62.4967 12.583 63.2157 11.8901 63.9346C11.7515 64.0654 11.7515 64.1961 11.8901 64.3268H11.9594ZM15.147 60.8627L14.5926 61.3203C14.5233 61.3856 14.454 61.5817 14.5233 61.6471C14.5926 61.7778 14.8005 61.7778 14.8698 61.6471C15.0777 61.451 15.2162 61.3203 15.4241 61.1242C15.7706 60.7974 15.7013 60.6667 15.7013 60.6013C15.7013 60.5359 15.4934 60.6013 15.147 60.8627ZM23.0466 66.9412C23.0466 66.6144 23.1159 66.2876 23.1852 66.0261C23.1852 65.8301 22.6308 65.2418 22.5615 67.268C22.5615 67.2026 23.0466 67.268 23.0466 66.9412ZM22.7001 63.8039C22.7694 64.2614 22.7694 64.719 22.7694 65.1111C22.7694 65.3725 23.3238 65.634 23.1159 63.6732C23.1159 63.4771 23.0466 63.281 22.908 63.2157C22.7694 63.1503 22.6308 63.281 22.7001 63.8039ZM10.92 62.6928C10.227 63.3464 10.9892 63.5425 11.405 63.1503L11.5436 63.0196C12.098 62.4314 12.7216 61.9085 13.4146 61.451C13.4839 61.3856 13.5532 61.2549 13.4839 61.1242C13.4146 60.9935 13.276 60.9281 13.1374 61.0588C12.4444 61.5163 11.7515 62.0392 11.1278 62.6275L10.92 62.6928ZM17.2951 58.7712C18.0573 58.3791 18.8196 57.9869 19.5818 57.6601C18.7503 57.9216 17.9188 58.2484 17.1565 58.6405C17.0179 58.7059 16.8793 58.7712 16.6714 58.902C15.7013 59.2941 14.6619 59.8824 13.7611 60.5359C13.6918 60.6013 13.6225 60.732 13.6918 60.8627C13.7611 60.9935 13.8996 60.9935 14.0382 60.9281C14.9391 60.2745 15.8399 59.6863 16.81 59.098C17.0179 58.9673 17.1565 58.902 17.2951 58.7712ZM19.5818 65.0458C19.4433 64.9804 19.3047 65.1111 19.2354 65.1765C19.0275 65.7647 18.8196 66.3529 18.6117 66.8758C18.5424 67.0065 18.6117 67.1373 18.7503 67.2026H18.8889C19.0275 67.2026 19.0968 67.1373 19.1661 67.0719C19.374 66.4837 19.5818 65.8954 19.7204 65.3072C19.7204 65.2418 19.6511 65.1111 19.5818 65.0458ZM19.9976 64.6536C20.0669 64.4575 20.0669 64.2614 20.1362 64.1307C20.2055 63.6078 20.0669 63.4771 19.9283 63.5425C19.7897 63.6732 19.7204 63.8039 19.6511 64C19.5818 64.1961 19.5818 64.3268 19.5125 64.5229C19.5125 64.6536 19.5818 64.7843 19.6511 64.7843C19.7897 64.915 19.9283 64.8497 19.9976 64.6536C19.9976 64.719 19.9976 64.719 19.9976 64.6536ZM20.2055 67.3987C20.3441 67.3987 20.4134 67.3333 20.4827 67.2026C20.6213 66.8105 20.6906 66.4183 20.7599 65.9608C20.8292 65.5033 20.6213 65.3725 20.4827 65.4379C20.3441 65.5686 20.2748 65.6993 20.2055 65.8954C20.1362 66.2876 19.9976 66.6144 19.859 67.0065C19.7897 67.1373 19.859 67.268 19.9976 67.3333C20.1362 67.3987 20.2055 67.3987 20.2055 67.3987ZM17.8495 66.8758C18.1266 66.2876 18.2652 65.8954 18.5424 65.2418C18.6117 65.1111 18.5424 64.9804 18.4038 64.915C18.2652 64.8497 18.1266 64.915 18.0573 65.0458C17.7802 65.6993 17.6416 66.0261 17.2951 66.6797C17.2258 66.8105 17.2951 66.9412 17.4337 67.0065H17.5723C17.7109 67.0065 17.8495 67.0065 17.8495 66.8758ZM21.5914 67.2026C21.73 67.2026 21.7993 67.1373 21.7993 67.0065C21.9379 66.549 22.0072 66.0915 22.0072 65.634C22.0072 65.5033 21.9379 65.4379 21.7993 65.3725C21.6607 65.3725 21.5221 65.4379 21.5221 65.5686C21.4528 66.0261 21.3835 66.4837 21.2449 66.8758C21.1756 67.0065 21.2449 67.1373 21.3835 67.2026C21.5221 67.268 21.5221 67.268 21.5914 67.2026ZM21.6607 63.6078C21.6607 64 21.6607 64.3922 21.5914 64.8497C21.5914 64.9804 21.6607 65.0458 21.7993 65.1111C21.9379 65.1111 22.0765 65.0458 22.0765 64.915C22.0765 64.5229 22.1458 64.0654 22.0765 63.6078C22.0072 63.1503 21.9379 63.1503 21.8686 63.085C21.7993 63.0196 21.6607 63.2157 21.6607 63.6078ZM15.7706 71.6471C15.9785 71.7124 16.2557 71.6471 16.3943 71.5163C16.7407 71.1895 17.0872 70.7974 17.4337 70.4706L17.503 70.4052L17.7109 70.0784C17.9188 69.6863 17.7109 69.5556 17.503 69.6209C17.2951 69.6863 17.1565 69.817 17.0872 69.9477L16.8793 70.2745L16.81 70.3399C16.5329 70.732 16.1864 71.1242 15.7706 71.451C15.632 71.5163 15.632 71.6471 15.7706 71.6471ZM14.8005 69.0327C15.2162 68.4444 15.632 67.8562 15.9785 67.2026C16.0478 67.0719 16.0478 66.8758 15.8399 66.8105H15.7706C15.632 66.7451 15.4934 66.8105 15.3548 66.9412C14.8005 67.8562 14.5926 68.1176 14.0382 68.8366C13.7611 69.2941 14.5233 69.4248 14.8005 69.0327ZM15.9092 69.817C16.2557 69.8824 17.1565 68.3791 17.5723 67.4641C17.6416 67.3333 17.5723 67.1373 17.4337 67.0719H17.3644C17.2258 67.0065 17.0872 67.0719 17.0179 67.2026C16.5329 68.2484 15.2162 69.6209 15.9092 69.817ZM11.7515 67.6601C12.1673 67.0065 12.7216 66.3529 13.3453 65.634C13.4839 65.5033 13.4146 65.3072 13.276 65.1765C13.1374 65.1111 12.9295 65.1111 12.7909 65.2418C12.2366 65.9608 11.7515 66.6797 11.1971 67.268C10.92 67.7255 11.6129 67.9869 11.7515 67.6601ZM12.583 68.6405C12.7216 68.7059 12.9295 68.7059 13.0681 68.5752C13.1374 68.5752 13.1374 68.5098 13.1374 68.5098C13.6225 67.8562 13.8303 67.6601 14.3847 66.8105C14.454 66.6797 14.454 66.4837 14.3154 66.3529C14.1768 66.2876 13.9689 66.3529 13.8996 66.4837C13.3453 67.268 13.1374 67.4641 12.583 68.1176C12.583 68.183 12.5137 68.2484 12.5137 68.2484C12.3751 68.3791 12.4444 68.5752 12.583 68.6405ZM18.3345 70.8627C18.4731 70.8627 18.6117 70.7974 18.681 70.732C18.7503 70.6667 18.8196 70.6013 18.8889 70.5359C19.0275 70.3399 19.1661 70.1438 19.3047 69.9477C19.5125 69.5556 19.3047 69.4902 19.0968 69.5556C18.9582 69.6209 18.7503 69.7516 18.681 69.8824C18.5424 70.0784 18.4038 70.2745 18.2652 70.4706C18.1959 70.5359 18.1959 70.5359 18.1959 70.6013C18.1959 70.732 18.1959 70.8627 18.3345 70.8627ZM21.3835 70.7974C21.3142 70.8627 21.1756 70.9281 21.037 71.0588C20.8984 71.1895 20.6906 71.2549 20.552 71.3856C20.6906 71.3203 20.8984 71.1895 21.037 71.0588C21.1063 70.9935 21.1756 70.9935 21.2449 70.9281L21.3835 70.7974C21.5914 70.732 21.6607 70.6667 21.7993 70.5359C21.9379 70.4052 21.9379 70.4052 22.0072 70.3399C21.7993 70.4706 21.5914 70.6667 21.3835 70.7974ZM9.67264 67.0065C9.81123 67.1373 10.0191 67.0719 10.1577 66.9412L10.2963 66.8105C10.7814 66.2222 11.2664 65.5686 11.8208 64.915C11.9594 64.7843 11.8901 64.5882 11.7515 64.4575C11.6129 64.3268 11.405 64.3268 11.2664 64.4575C10.7121 65.1111 10.1577 65.6993 9.74194 66.2876L9.53405 66.549C9.46476 66.6797 9.53405 66.8758 9.67264 67.0065ZM6.55436 66.2876L6.48507 66.0261L6.69295 66.549V66.6144L6.55436 66.2876ZM20.4134 70.4706L20.4827 70.3399C21.1063 69.4902 21.5221 68.5752 21.7993 67.6601C21.7993 67.5294 21.73 67.3987 21.5914 67.3987H21.5221C21.3835 67.3987 21.3142 67.4641 21.2449 67.5948C20.9677 68.6405 20.4827 69.6209 19.859 70.4706C19.7897 70.6013 19.6511 70.732 19.5818 70.8627C19.9283 70.7974 20.2055 70.6667 20.4134 70.4706ZM15.9785 54C15.9785 54 15.9092 54 15.7706 54H15.5627C15.3548 54 15.0084 54 14.8005 54.0654C15.0084 54.0654 15.147 54.0654 15.3548 54.0654C15.4934 54.0654 15.7013 54.0654 15.9785 54ZM7.17802 59.2941C7.31661 59.098 7.4552 58.902 7.66308 58.7712C7.73238 58.6405 8.07885 58.3137 8.00956 58.183C7.94026 58.183 7.87097 58.2484 7.73238 58.3137C7.59379 58.5098 7.4552 58.7059 7.31661 58.902C7.17802 59.0327 7.03943 59.2288 6.97013 59.4902V59.5556C7.03943 59.4902 7.10872 59.4248 7.17802 59.2941ZM7.80167 57.9869C7.94026 57.7908 8.14815 57.5948 8.21744 57.3987C8.21744 57.3987 8.14815 57.3987 8.00956 57.5948C7.94026 57.7255 7.87097 57.7908 7.80167 57.9216C7.73238 57.9216 7.73238 57.9869 7.80167 57.9869C7.59379 58.1176 7.52449 58.3791 7.3859 58.5098L7.52449 58.2484L7.80167 57.9869ZM16.325 54.1961C16.7407 54.3268 16.9486 54.3268 16.9486 54.2614C16.9486 54.1961 16.8793 54.1961 16.7407 54.1961C16.5329 54.1307 16.3943 54.1307 16.1864 54.1307H16.1171C16.1864 54.1307 16.2557 54.1961 16.325 54.1961ZM17.7109 54.2614C17.7109 54.2614 17.7109 54.1961 17.5723 54.1961C17.4337 54.1307 17.2951 54.1307 17.1565 54.1307H17.0872L16.4636 54C16.6714 54 16.9486 54.0654 17.0872 54.1307C17.5723 54.2614 17.6416 54.2614 17.7109 54.2614ZM8.97969 67.5294C8.91039 67.6601 8.8411 67.8562 8.70251 67.9869C8.63321 68.1176 8.63321 68.3137 8.7718 68.4444C8.91039 68.5098 9.11828 68.5098 9.25687 68.3791C9.39546 68.183 9.53405 67.9216 9.74194 67.6601C10.0884 67.2026 9.32617 66.8105 8.97969 67.5294ZM6.69295 59.817C6.69295 59.817 6.69295 59.8824 6.62366 60.0784L6.55436 60.1438C6.48507 60.3399 6.41577 60.5359 6.34648 60.7974C6.34648 60.732 6.41577 60.6013 6.41577 60.5359C6.55436 60.2745 6.62366 60.0784 6.69295 59.817ZM8.56392 66.4183C8.63321 66.3529 8.63321 66.2222 8.63321 66.1569C8.63321 65.8954 8.49462 65.6993 8.28674 65.7647L8.14815 65.8954C7.87097 66.3529 7.66308 66.9412 7.52449 67.4641C7.4552 67.7255 7.52449 67.9869 7.59379 68.183C7.66308 68.3137 7.73238 68.4444 7.80167 68.5752C7.80167 68.6405 7.87097 68.6405 7.87097 68.6405V68.5752C7.80167 68.3137 7.80167 68.0523 7.87097 67.7255C8.07885 67.3333 8.28674 66.8758 8.56392 66.4183ZM8.21744 64.1961C8.70251 63.5425 9.25687 62.9542 9.94982 62.366L10.1577 62.2353C10.5735 61.8431 10.5042 61.5817 10.227 61.5163C10.0884 61.5163 9.94982 61.5817 9.81123 61.6471L9.53405 61.8431C8.91039 62.366 8.35603 62.9542 7.87097 63.6078C7.59379 64.0654 7.3859 64.4575 7.17802 64.915C7.17802 64.9804 7.10872 64.9804 7.10872 65.0458C7.03943 65.2418 7.03943 65.4379 7.10872 65.634C7.17802 65.7647 7.31661 65.7647 7.3859 65.5686C7.4552 65.3725 7.4552 65.3725 7.52449 65.2418C7.73238 64.915 7.94026 64.5882 8.21744 64.1961ZM19.7204 57.0065L20.0669 57.3987C19.859 57.1373 19.859 57.1373 19.7204 57.0065C19.4432 56.6144 19.374 56.549 19.374 56.549C19.374 56.549 19.5125 56.6797 19.7204 57.0065ZM22.7001 58.7712C23.1852 59.098 23.6703 59.4902 24.086 59.8824C24.2246 60.0784 24.2939 60.0784 24.3632 60.0784C24.2939 59.8824 24.2246 59.7516 24.086 59.6209C23.6703 59.2288 23.1852 58.902 22.7001 58.5752C22.0765 58.183 21.3835 57.9216 20.6906 57.6601L20.1362 57.5294C20.3441 57.5948 20.4827 57.6601 20.6906 57.7255C21.3835 58.0523 22.0765 58.3791 22.7001 58.7712ZM20.1362 57.4641L20.2748 57.1373C20.3441 56.8758 20.3441 56.8105 20.3441 56.8105C20.3441 56.8105 20.2748 57.0065 20.2055 57.1373C20.1362 57.3333 20.1362 57.3987 20.1362 57.4641ZM17.7802 59.2288C18.4731 58.7059 19.0968 58.183 19.7204 57.7908C18.9582 58.183 18.2652 58.6405 17.5723 59.098L17.0179 59.4902L16.1864 60.1438C15.9092 60.3399 15.8399 60.5359 15.9092 60.6013C15.9785 60.6667 16.1864 60.6013 16.4636 60.4052C16.7407 60.2092 16.9486 59.9477 17.2258 59.7516L17.7802 59.2288ZM19.859 57.8562C19.6511 58.1176 19.6511 58.2484 19.6511 58.2484C19.6511 58.2484 19.7204 58.2484 19.859 57.8562C19.9283 57.7255 19.9976 57.5948 20.0669 57.5294C19.9976 57.6601 19.9976 57.7255 19.859 57.8562ZM19.4432 57.2026C19.3047 57.0719 19.0968 57.0065 18.8889 57.0065C19.0968 57.1373 19.2354 57.2026 19.4432 57.2026L20.0669 57.4641L19.5818 57.268L19.4432 57.2026ZM20.0669 57.5294L19.5125 57.4641C19.0968 57.4641 18.9582 57.4641 18.9582 57.4641C19.1661 57.4641 19.3047 57.4641 19.5125 57.4641H19.5818C19.7897 57.4641 19.9283 57.4641 20.0669 57.5294ZM19.9976 57.9216C19.7897 58.5098 19.5125 59.1634 19.2354 59.8824C19.1661 60.0784 19.0275 60.3399 18.9582 60.5359C18.9582 60.6013 18.8889 60.6667 18.8889 60.7974C18.8889 60.9281 18.8196 61.0588 18.8889 61.0588C18.9582 61.0588 19.0275 60.9935 19.0968 60.8627C19.1661 60.7974 19.1661 60.732 19.1661 60.6667C19.2354 60.4052 19.3047 60.1438 19.4432 59.9477C19.7204 59.2288 19.859 58.5752 19.9976 57.9216L20.1362 57.5294C20.0669 57.6601 20.0669 57.6601 19.9976 57.9216ZM19.374 58.902C19.4432 58.7712 19.5125 58.6405 19.5125 58.5098H19.4432C19.374 58.5752 19.3047 58.7059 19.2354 58.8366L18.6117 59.6863C18.4731 59.9477 18.2652 60.2092 18.0573 60.4706C17.4337 61.3856 16.81 62.3007 16.1171 63.2157C16.0478 63.3464 16.0478 63.4771 16.1864 63.5425C16.325 63.6078 16.4636 63.6078 16.5329 63.4771C17.1565 62.4967 17.7802 61.5163 18.3345 60.6013C18.4731 60.3399 18.681 60.0131 18.8196 59.7516C18.9582 59.4902 19.2354 59.2288 19.374 58.902ZM18.1266 59.4248L17.5723 60.0131L17.0872 60.4706C16.8793 60.732 16.81 60.8627 16.8793 60.9935C16.9486 61.1242 17.2258 60.8627 17.3644 60.732L17.7802 60.2092C17.9881 60.0131 18.1266 59.7516 18.3345 59.5556C18.8889 58.902 19.374 58.3137 19.859 57.8562C19.3047 58.2484 18.681 58.8366 18.1266 59.4248ZM20.1362 57.5294C20.1362 57.6601 20.1362 57.6601 20.1362 57.9216C20.0669 58.5752 19.9283 59.2941 19.7897 59.9477C19.7204 60.2745 19.6511 60.6013 19.5125 60.9281C19.2354 62.1046 18.8196 63.2157 18.3345 64.3268C18.2652 64.4575 18.3345 64.5882 18.4731 64.6536C18.6117 64.719 18.7503 64.6536 18.8196 64.5229C19.2354 63.3464 19.5125 62.1699 19.7897 60.9935C19.859 60.6667 19.9283 60.2745 19.9283 59.9477C19.9976 59.2941 20.0669 58.5752 20.0669 57.9216C20.1362 57.9869 20.1362 57.9869 20.1362 57.5294ZM20.1362 57.5294C20.2748 57.6601 20.3441 57.7908 20.4827 57.9869C20.8984 58.6405 21.3142 59.2941 21.5914 60.0131L21.6607 60.1438C21.7993 60.4052 22.0072 61.3203 22.2151 61.2549C22.4229 61.1895 21.9379 60.3399 21.7993 60.0784L21.73 60.0131C21.3835 59.2941 20.9677 58.6405 20.4827 57.9869L20.1362 57.5294ZM20.1362 57.5294C20.1362 57.6601 20.1362 57.7255 20.2055 57.9869C20.2748 58.6405 20.2748 59.3595 20.2055 60.0131V60.0784C20.2055 60.3399 20.2055 60.5359 20.2748 60.6013C20.3441 60.6667 20.4134 60.2092 20.4134 60.0784V60.0131C20.4134 59.2941 20.3441 58.6405 20.2055 57.9869L20.1362 57.5294ZM22.7001 59.2288C23.1852 59.6209 23.601 60.0784 23.9474 60.5359L24.086 60.732C24.2246 60.9281 24.2939 60.9935 24.3632 60.9935C24.3632 60.7974 24.2246 60.6013 24.086 60.4706C23.6703 59.9477 23.1852 59.4902 22.7001 59.098C22.0765 58.5752 21.3835 58.183 20.6213 57.7908L20.0669 57.5294C20.3441 57.6601 20.3441 57.6601 20.6213 57.7908C21.3835 58.2484 22.0765 58.7059 22.7001 59.2288ZM20.1362 57.5294C20.2055 57.6601 20.2055 57.7908 20.2748 57.9869V58.0523C20.3441 58.2484 20.3441 58.3791 20.4134 58.5098C20.4134 58.5098 20.4827 58.5098 20.2748 58.0523V57.9869C20.2748 57.9216 20.2748 57.9216 20.1362 57.5294ZM12.6523 55.1765C14.1768 55.0458 15.7013 55.3072 17.0872 55.8301C17.2258 55.8301 17.3644 55.9608 17.5723 55.9608C18.3345 56.2876 19.0275 56.6797 19.6511 57.1373C19.7897 57.268 19.9283 57.3333 20.1362 57.4641C19.859 57.268 19.7897 57.268 19.6511 57.1373C19.0275 56.6797 18.3345 56.2876 17.6416 55.8954L17.1565 55.6993C16.1864 55.2418 15.0777 54.9804 13.9689 54.915C13.4146 54.8497 12.9295 54.915 12.3751 54.9804C11.3357 55.1111 10.2963 55.5033 9.46476 56.1569C9.25687 56.3529 8.91039 56.6797 8.70251 56.8758C9.67264 55.8954 10.9892 55.3072 12.3751 55.1765H12.6523ZM9.04898 60.9281C9.11828 61.0588 9.25687 61.1242 9.39546 61.0588C9.39546 61.0588 9.46476 61.0588 9.46476 60.9935C10.4349 60.2745 11.4743 59.6209 12.6523 59.098C12.7909 59.0327 12.8602 58.902 12.7909 58.8366C12.7216 58.6405 12.4444 58.7712 12.2366 58.8366C11.1278 59.2941 10.0884 59.8824 9.11828 60.6013C9.04898 60.6667 8.97969 60.7974 9.04898 60.9281ZM13.276 58.8366C14.3154 58.3791 15.4241 58.0523 16.6022 57.7908L16.8793 57.7255C17.2951 57.6601 17.7109 57.5948 18.1266 57.5294C18.3345 57.5294 18.4731 57.4641 18.681 57.4641C18.6117 57.3987 18.5424 57.3987 18.1266 57.3987C17.7109 57.3987 17.2951 57.4641 16.8793 57.5294H16.6714C15.4934 57.7255 14.3154 57.9869 13.2067 58.3791C12.9295 58.5752 13.1374 58.902 13.276 58.8366ZM14.6619 57.268C14.3154 57.3333 14.1075 57.3987 14.1075 57.5294C14.1075 57.6601 14.3154 57.6601 14.7312 57.5948C15.147 57.5294 15.3548 57.4641 15.632 57.4641C16.1171 57.3333 16.1864 57.268 16.1864 57.268C16.1864 57.268 15.9092 57.2026 15.5627 57.2026C15.2162 57.2026 15.0084 57.2026 14.6619 57.268ZM15.4241 55.8301C15.9092 55.8954 15.9785 55.8954 16.0478 55.8301C16.1171 55.7647 15.9785 55.6993 15.5627 55.634C15.2855 55.5686 15.0084 55.5033 14.7312 55.5033C14.454 55.5033 14.1768 55.5033 14.1075 55.5686C14.0382 55.634 14.2461 55.6993 14.5926 55.6993C14.9391 55.6993 15.0777 55.7647 15.4241 55.8301ZM12.7909 57.6601L12.5137 57.7255C11.1278 58.1176 9.81123 58.7059 8.70251 59.5556C8.07885 60.0131 7.52449 60.5359 7.03943 61.1242C6.90084 61.3203 6.83154 61.5163 6.83154 61.7124C6.83154 61.7124 6.83154 61.7778 6.90084 61.7778C6.97013 61.7778 7.03943 61.7778 7.17802 61.5817C7.66308 60.9935 8.14815 60.4706 8.7718 60.0131C9.94982 59.1634 11.2664 58.5098 12.6523 58.0523L12.9295 57.9869C13.4839 57.7908 13.4839 57.6601 13.4146 57.5948C13.1374 57.5948 12.9988 57.5948 12.7909 57.6601ZM20.552 57.3333C20.6906 57.268 20.8984 57.2026 20.8984 57.2026C20.8984 57.2026 20.8292 57.2026 20.552 57.3333L20.4827 57.268L20.1362 57.4641C20.2055 57.4641 20.3441 57.3987 20.552 57.3333ZM20.1362 57.5294L20.552 57.9869C20.6906 58.1176 20.8292 58.3137 20.9677 58.4444C20.8292 58.3137 20.7599 58.1176 20.6213 57.9869L20.552 57.9216C20.4134 57.7908 20.3441 57.7255 20.1362 57.5294ZM20.7599 57.6601C20.8984 57.7255 21.1063 57.7255 21.2449 57.7908C21.2449 57.7908 21.1756 57.7255 20.7599 57.6601ZM20.1362 57.5294C20.2055 57.4641 20.2748 57.3333 20.3441 57.268L21.1063 56.2876C21.1756 56.2222 21.1756 56.1569 21.1063 56.0915C21.037 56.0261 20.9677 56.0915 20.8984 56.2222C20.8292 56.4837 20.552 56.8105 20.2748 57.268L20.1362 57.5294ZM14.5926 66.0915C14.7312 66.1569 14.9391 66.0915 15.0084 65.9608C15.4241 65.3725 15.7706 64.7843 16.1864 64.1961C16.6022 63.6078 15.9785 63.4118 15.632 64C15.2855 64.5882 14.8698 65.1111 14.454 65.634C14.3847 65.8301 14.454 65.9608 14.5926 66.0915Z"
          fill="var(--current-color-1)"/>
    <path d="M79.7993 54.5882L73.9092 66.9412H76.4038L77.374 64.8497H83.264L82.2939 62.7582H78.4134L81.0466 57.2026L83.6798 62.7582L84.7192 64.8497L85.6894 66.9412H88.184L82.2939 54.5882H79.7993ZM27.828 56.7451H31.6392V66.9412H33.8566V56.7451H37.6679V54.5882H27.828V56.7451ZM46.4683 59.6863H41.0633V54.5882H38.8459V66.9412H41.0633V61.8431H46.4683V66.9412H48.6858V54.5882H46.4683V59.6863ZM66.5639 60.6013L62.4755 54.5882H60.0502V66.9412H62.2676V58.183L66.5639 64.4575L70.8602 58.183V66.9412H73.0777V54.5882H70.6523L66.5639 60.6013ZM85.9665 56.7451H89.8471V66.9412H92.0645V56.7451H95.8757V54.5882H85.9665V56.7451ZM96.9845 66.9412H99.2019V54.6536H96.9845V66.9412ZM103.914 57.7255C104.33 57.3333 104.815 57.0065 105.369 56.8105C105.924 56.6144 106.478 56.4837 107.102 56.4837C107.725 56.4837 108.28 56.6144 108.834 56.8105C109.388 57.0065 109.873 57.3333 110.289 57.7255L111.883 56.2222C111.259 55.634 110.497 55.1765 109.735 54.8497C108.072 54.1961 106.131 54.1961 104.468 54.8497C103.637 55.1765 102.944 55.634 102.32 56.2222C101.697 56.8105 101.211 57.5294 100.865 58.2484C100.519 59.0327 100.311 59.8824 100.311 60.732C100.311 61.5817 100.449 62.4314 100.865 63.2157C101.558 64.7843 102.875 65.9608 104.468 66.6144C106.131 67.268 108.072 67.268 109.735 66.6144C110.566 66.2876 111.259 65.8301 111.883 65.2418L110.289 63.8039C109.873 64.1961 109.388 64.5229 108.834 64.719C108.28 64.915 107.656 65.0458 107.102 65.0458C105.924 65.0458 104.746 64.5882 103.914 63.8039C103.498 63.4118 103.152 62.9542 102.944 62.4314C102.736 61.9085 102.597 61.3203 102.597 60.7974C102.597 60.2092 102.736 59.6863 102.944 59.1634C103.152 58.5752 103.498 58.1176 103.914 57.7255ZM120.198 60.732C119.921 60.5359 119.644 60.4052 119.367 60.2745C119.09 60.1438 118.812 60.0131 118.605 59.9477C118.397 59.8824 118.189 59.817 117.981 59.7516C117.842 59.7516 117.773 59.6863 117.634 59.6209L117.427 59.5556L116.734 59.3595C116.456 59.2941 116.249 59.2288 115.971 59.098C115.694 58.9673 115.486 58.8366 115.278 58.6405C115.07 58.4444 114.932 58.1176 114.932 57.8562C114.932 57.3333 115.278 56.8758 115.763 56.6144C116.179 56.4183 116.664 56.2876 117.149 56.2876C117.704 56.2876 118.258 56.4183 118.812 56.6144C119.159 56.8105 119.505 57.0719 119.852 57.3333L121.446 55.8301L121.03 55.5686C120.891 55.4379 120.753 55.3725 120.545 55.2418C120.06 54.9804 119.575 54.7843 119.09 54.6536C118.397 54.4575 117.634 54.3268 116.872 54.3268C116.387 54.3268 115.902 54.3922 115.417 54.5229C114.932 54.6536 114.447 54.8497 114.031 55.1765C113.615 55.5033 113.269 55.8954 113.061 56.3529C112.784 56.8758 112.645 57.5294 112.645 58.1176C112.714 59.2288 113.338 60.2092 114.378 60.732C114.863 60.9935 115.348 61.2549 115.833 61.451C116.318 61.6471 116.664 61.7124 116.941 61.8431C117.011 61.8431 117.011 61.8431 117.08 61.8431C117.149 61.8431 117.149 61.9085 117.219 61.9085C117.288 61.9085 117.357 61.9085 117.357 61.9739L118.05 62.1699C118.258 62.2353 118.535 62.3007 118.743 62.4314C119.02 62.5621 119.228 62.6928 119.436 62.8889C119.644 63.085 119.783 63.4118 119.783 63.6732C119.783 64.1307 119.575 64.5882 119.159 64.8497C118.951 64.9804 118.743 65.1111 118.466 65.1765C118.189 65.2418 117.912 65.3072 117.565 65.3072C117.357 65.3072 117.08 65.3072 116.872 65.2418C116.595 65.1765 116.249 65.1111 115.971 64.9804C115.486 64.7843 115.001 64.5229 114.585 64.1961L113.061 65.634C113.685 66.0915 114.308 66.4183 115.07 66.6797C115.971 67.0065 116.872 67.1373 117.842 67.1373C118.466 67.1373 119.02 67.0719 119.575 66.8758C120.06 66.7451 120.545 66.4837 120.891 66.1569C121.238 65.8301 121.584 65.4379 121.723 64.9804C121.931 64.4575 122 63.9346 122 63.4118C122 62.366 121.376 61.5163 120.198 60.732ZM57.0705 59.6863H50.0024V61.8431H57.0705V59.6863ZM50.0024 56.6797H58.8029V54.5882H50.0024V56.6797ZM50.0024 64.7843V66.8758H58.8029V64.7843H50.0024Z"
          fill="var(--current-color-1)"/>
    <path d="M33.8566 72.6928V72.366C33.5795 72.6275 33.1637 72.8235 32.7479 72.8235C32.1243 72.8235 31.6392 72.366 31.6392 71.8431C31.6392 71.2549 32.1243 70.7974 32.6786 70.7974H32.7479C33.1637 70.7974 33.5795 70.9281 33.8566 71.1895V70.6013C33.8566 70.2092 33.5102 69.9477 33.0251 69.9477C32.6093 69.9477 32.2628 70.0784 31.9857 70.4052L31.7778 70.0784C32.1243 69.7516 32.6093 69.5556 33.0944 69.5556C33.7873 69.5556 34.3417 69.8824 34.3417 70.6013V72.7582L33.8566 72.6928ZM33.8566 72.0392V71.451C33.6487 71.1895 33.3023 71.0588 32.9558 71.0588C32.54 71.0588 32.2628 71.3856 32.2628 71.7124C32.2628 72.1046 32.6093 72.366 32.9558 72.366C33.3023 72.4314 33.6487 72.3007 33.8566 72.0392Z"
          fill="var(--current-color-1)"/>
    <path d="M35.1039 72.3007L35.3811 71.9739C35.6583 72.2353 36.0741 72.4314 36.4898 72.4314C36.9749 72.4314 37.2521 72.1699 37.2521 71.9085C37.2521 71.1895 35.2425 71.6471 35.2425 70.4706C35.2425 70.0131 35.6583 69.5556 36.4898 69.5556C36.9749 69.5556 37.3907 69.6863 37.7372 70.0131L37.3907 70.3399C37.1135 70.0784 36.767 69.9477 36.4206 69.9477C35.9355 69.9477 35.7276 70.1438 35.7276 70.4052C35.7276 71.0588 37.7372 70.6667 37.7372 71.8431C37.7372 72.366 37.3214 72.7582 36.4206 72.7582C35.9355 72.8235 35.4504 72.6275 35.1039 72.3007Z"
          fill="var(--current-color-1)"/>
    <path d="M38.2915 72.3007L38.5687 71.9739C38.8459 72.2353 39.2616 72.4314 39.6774 72.4314C40.1625 72.4314 40.4397 72.1699 40.4397 71.9085C40.4397 71.1895 38.4301 71.6471 38.4301 70.4706C38.4301 70.0131 38.8459 69.5556 39.6774 69.5556C40.1625 69.5556 40.5783 69.6863 40.9247 70.0131L40.5783 70.3399C40.3011 70.0784 39.9546 69.9477 39.6081 69.9477C39.1231 69.9477 38.9152 70.1438 38.9152 70.4052C38.9152 71.0588 40.9247 70.6667 40.9247 71.8431C40.9247 72.366 40.509 72.7582 39.6081 72.7582C39.1231 72.8235 38.638 72.6275 38.2915 72.3007Z"
          fill="var(--current-color-1)"/>
    <path d="M41.5484 71.1242C41.4791 70.2745 42.2413 69.5556 43.1422 69.4902H43.2115C44.1123 69.4902 44.8053 70.1438 44.8053 70.9935C44.8053 71.0588 44.8053 71.1242 44.8053 71.1242V71.2549H42.172C42.172 71.8431 42.7264 72.366 43.3501 72.366C43.7658 72.366 44.1123 72.2353 44.3895 71.9739L44.6667 72.3007C44.3202 72.6275 43.8351 72.8235 43.3501 72.7582C42.4492 72.7582 41.687 72.1046 41.687 71.2549C41.5484 71.2549 41.5484 71.1895 41.5484 71.1242ZM43.1422 69.9477C42.5185 69.9477 42.0335 70.4052 42.0335 70.9935H44.1816C44.2509 70.4052 43.7658 69.9477 43.1422 69.9477C43.2115 69.8824 43.2115 69.8824 43.1422 69.9477Z"
          fill="var(--current-color-1)"/>
    <path d="M45.7061 72.0392V70.0131H45.1517V69.6209H45.7061V68.7712H46.1912V69.6209H46.8841V70.0131H46.1912V71.9739C46.1912 72.2353 46.3297 72.366 46.5376 72.366C46.6762 72.366 46.8148 72.3007 46.8841 72.2353L47.0227 72.6275C46.8841 72.7582 46.6762 72.8235 46.399 72.8235C45.9833 72.8235 45.7061 72.5621 45.6368 72.2353C45.6368 72.1699 45.6368 72.1046 45.7061 72.0392Z"
          fill="var(--current-color-1)"/>
    <path d="M53.3286 72.6928V70.6013C53.3286 70.2092 53.1207 69.9477 52.7049 69.9477C52.3584 69.9477 52.0119 70.1438 51.8041 70.4052V72.6928H51.319V70.6013C51.319 70.2092 51.1804 69.9477 50.6953 69.9477C50.3489 69.9477 50.0024 70.1438 49.8638 70.4052V72.6928H49.3787V69.6209H49.8638V70.0784C50.141 69.7516 50.4875 69.5556 50.9032 69.5556C51.319 69.4902 51.6655 69.7516 51.8041 70.1438C52.0812 69.817 52.497 69.5556 52.9128 69.5556C53.5364 69.5556 53.8136 69.8824 53.8136 70.4706V72.6928H53.3286Z"
          fill="var(--current-color-1)"/>
    <path d="M56.9319 72.6928V72.366C56.6547 72.6275 56.239 72.8235 55.8232 72.8235C55.1995 72.8235 54.7145 72.4314 54.7145 71.8431C54.7145 71.8431 54.7145 71.8431 54.7145 71.7778C54.7145 71.1895 55.1995 70.732 55.7539 70.732H55.8232C56.239 70.732 56.6547 70.8627 56.9319 71.1242V70.5359C56.9319 70.1438 56.5854 69.8824 56.1004 69.8824C55.6846 69.8824 55.3381 70.0131 55.0609 70.3399L54.853 70.0131C55.1995 69.6863 55.6846 69.4902 56.1697 69.4902C56.8626 69.4902 57.417 69.817 57.417 70.5359V72.6928H56.9319ZM56.9319 72.0392V71.451C56.724 71.1895 56.3775 71.0588 56.0311 71.0588C55.6153 71.0588 55.3381 71.3856 55.3381 71.7124C55.3381 72.1046 55.6846 72.366 56.0311 72.366C56.3775 72.4314 56.724 72.3007 56.9319 72.0392Z"
          fill="var(--current-color-1)"/>
    <path d="M60.6738 72.6928V70.6667C60.6738 70.0784 60.3967 69.9477 59.9116 69.9477C59.4958 69.9477 59.1493 70.1438 58.9415 70.4052V72.6928H58.4564V69.5556H58.9415V70.0131C59.2186 69.6863 59.7037 69.4902 60.1195 69.4902C60.6045 69.4248 61.0896 69.7516 61.1589 70.2745C61.1589 70.3399 61.1589 70.4706 61.1589 70.5359V72.6928H60.6738Z"
          fill="var(--current-color-1)"/>
    <path d="M64.2772 72.6928V72.366C64 72.6275 63.5842 72.8235 63.1685 72.8235C62.5448 72.8235 62.0597 72.4314 61.9904 71.8431V71.7778C61.9904 71.1895 62.4755 70.732 63.0299 70.732H63.0992C63.5149 70.732 63.9307 70.8627 64.2079 71.1242V70.5359C64.2079 70.1438 63.8614 69.8824 63.3763 69.8824C62.9606 69.8824 62.6141 70.0131 62.3369 70.3399L62.129 70.0131C62.4755 69.6863 62.9606 69.4902 63.4456 69.4902C64.1386 69.4902 64.6929 69.817 64.6929 70.5359V72.6928H64.2772ZM64.2772 72.0392V71.451C64.0693 71.1895 63.7228 71.0588 63.3763 71.0588C62.9606 71.0588 62.6834 71.3856 62.6834 71.7124C62.6834 72.1046 63.0299 72.366 63.3763 72.366C63.7228 72.4314 64.0693 72.3007 64.2772 72.0392Z"
          fill="var(--current-color-1)"/>
    <path d="M65.8017 73.4771L66.0789 73.1503C66.356 73.4118 66.7718 73.6078 67.1876 73.5425C67.6726 73.6078 68.1577 73.281 68.227 72.7582C68.227 72.6928 68.227 72.6928 68.227 72.6275V72.1699C67.9498 72.4967 67.534 72.6928 67.1183 72.7582C66.2867 72.7582 65.5938 72.1046 65.6631 71.3203C65.6631 71.2549 65.6631 71.1895 65.6631 71.1242C65.5245 70.3399 66.1481 69.6209 66.9104 69.5556C66.9797 69.5556 67.049 69.5556 67.1183 69.5556C67.534 69.5556 67.9498 69.7516 68.227 70.0784V69.6209H68.7121V72.6928C68.7121 73.6732 67.9498 74 67.1183 74C66.6332 74 66.1482 73.8039 65.8017 73.4771ZM68.227 71.7778V70.4052C68.0191 70.0784 67.6726 69.9477 67.2569 69.8824C66.5639 69.8824 66.2174 70.4052 66.2174 71.0588C66.2174 71.7124 66.6332 72.2353 67.2569 72.2353C67.6033 72.3007 68.0191 72.1046 68.227 71.7778Z"
          fill="var(--current-color-1)"/>
    <path d="M69.5436 71.1242C69.4743 70.2745 70.2366 69.5556 71.1374 69.4902H71.2067C72.1075 69.4902 72.8005 70.1438 72.8005 70.9935C72.8005 71.0588 72.8005 71.1242 72.8005 71.1242V71.2549H70.1673C70.1673 71.8431 70.7216 72.366 71.3453 72.366C71.7611 72.366 72.1075 72.2353 72.3847 71.9739L72.6619 72.3007C72.3154 72.6275 71.8303 72.8235 71.3453 72.7582C70.4444 72.7582 69.6822 72.1046 69.6822 71.2549C69.5436 71.2549 69.5436 71.1895 69.5436 71.1242ZM71.2067 69.9477C70.583 69.9477 70.098 70.4052 70.098 70.9935H72.2461C72.3154 70.4052 71.8303 69.9477 71.2067 69.9477C71.2067 69.8824 71.2067 69.8824 71.2067 69.9477Z"
          fill="var(--current-color-1)"/>
    <path d="M77.5818 72.6928V70.6013C77.5818 70.2092 77.4433 69.9477 76.9582 69.9477C76.6117 69.9477 76.2652 70.1438 76.0573 70.4052V72.6928H75.5723V70.6013C75.5723 70.2092 75.4337 69.9477 74.9486 69.9477C74.6022 69.9477 74.2557 70.1438 74.1171 70.4052V72.6928H73.632V69.6209H74.1171V70.0784C74.3943 69.7516 74.7407 69.5556 75.2258 69.5556C75.6416 69.5556 75.9881 69.7516 76.1266 70.1438C76.4038 69.817 76.7503 69.5556 77.2354 69.5556C77.859 69.5556 78.1362 69.8824 78.1362 70.4706V72.6928H77.5818Z"
          fill="var(--current-color-1)"/>
    <path d="M78.8984 71.1242C78.8292 70.2745 79.5914 69.5556 80.4922 69.4902H80.5615C81.4624 69.4902 82.1553 70.2092 82.1553 70.9935C82.1553 71.0588 82.1553 71.0588 82.1553 71.1242V71.2549H79.4528C79.4528 71.8431 80.0072 72.366 80.6308 72.366C81.0466 72.366 81.3931 72.2353 81.6702 71.9739L81.9474 72.3007C81.601 72.6275 81.1159 72.8235 80.6308 72.7582C79.73 72.7582 78.9677 72.1046 78.9677 71.2549C78.8984 71.2549 78.8984 71.1895 78.8984 71.1242ZM80.5615 69.9477C79.9379 69.9477 79.4528 70.4052 79.4528 70.9935H81.601C81.601 70.4052 81.1852 69.9477 80.5615 69.9477C80.5615 69.8824 80.5615 69.8824 80.5615 69.9477Z"
          fill="var(--current-color-1)"/>
    <path d="M85.2043 72.6928V70.6667C85.2043 70.0784 84.9271 69.9477 84.4421 69.9477C84.0263 69.9477 83.6798 70.1438 83.4719 70.4052V72.6928H82.9176V69.5556H83.4026V70.0131C83.6798 69.6863 84.0956 69.4902 84.5806 69.4902C85.0657 69.4248 85.5508 69.7516 85.6201 70.2745C85.6201 70.3399 85.6201 70.4052 85.6201 70.5359V72.6928H85.2043Z"
          fill="var(--current-color-1)"/>
    <path d="M86.7981 72.0392V70.0131H86.2437V69.6209H86.7981V68.7712H87.2832V69.6209H87.9761V70.0131H87.2832V71.9739C87.2832 72.2353 87.4217 72.366 87.6296 72.366C87.7682 72.366 87.9068 72.3007 87.9761 72.2353L88.1147 72.6275C87.9761 72.7582 87.6989 72.8235 87.491 72.8235C87.0753 72.8235 86.7981 72.5621 86.7288 72.2353C86.7981 72.1699 86.7981 72.1046 86.7981 72.0392Z"
          fill="var(--current-color-1)"/>
</svg>
