<svg id="picto" width="64" height="64" viewBox="0 0 64 64" fill="none" xmlns="http://www.w3.org/2000/svg">
    <path d="M20.2935 36.2338H43.1557C43.6695 37.2615 43.541 38.4176 43.0273 39.4453C42.642 40.473 41.6144 41.2437 40.4585 41.3722H25.8164C25.3026 41.2437 24.6604 41.7576 24.6604 42.2714C24.532 42.7852 25.0457 43.4275 25.5595 43.4275C25.6879 43.4275 25.6879 43.4275 25.8164 43.4275H40.2016C42.2566 43.4275 44.0548 42.2714 44.8254 40.3445C45.9814 38.5461 45.9814 36.2338 44.8254 34.4354C44.5686 34.1785 44.4401 34.05 44.0548 34.05H20.2935C16.8256 34.05 14.1284 34.8208 11.4311 36.7477L0.385319 45.8682C0.12844 46.1251 0 46.3821 0 46.7674C0 46.8959 0.12844 47.1528 0.385319 47.2813C0.513759 47.4097 0.899077 47.6666 1.15596 47.6666H1.2844C1.41284 47.6666 1.66971 47.5382 1.79815 47.2813L12.7155 38.1607C14.7706 36.8761 17.2109 36.2338 20.2935 36.2338Z"
          fill="var(--current-color-1)"/>
    <path d="M61.2633 23.136C61.0065 23.136 60.878 23.136 60.6211 23.136C59.4652 23.136 58.5661 23.6498 57.7955 24.4206L48.1625 34.0549C47.7772 34.4403 47.7772 35.0826 48.2909 35.468C48.6762 35.8534 49.19 35.8534 49.5753 35.468C49.7038 35.3395 49.8322 35.2111 50.0891 34.8257C50.9882 33.798 52.9148 31.8712 54.8414 30.0727L59.2083 25.7052C59.4652 25.3198 59.9789 25.0629 60.3643 25.0629C61.3918 25.0629 62.2909 25.9621 62.1624 26.9897V27.1182C62.1624 27.632 62.034 28.1459 61.7771 28.6597C61.6487 28.7882 52.5294 39.8356 46.6212 46.6439C44.8231 49.0846 42.1258 50.4976 39.1717 50.6261H21.1902C19.2636 50.3692 17.337 51.0115 15.9241 52.4245L11.5572 56.7921C11.3003 57.049 11.1719 57.3059 11.1719 57.6913C11.1719 57.8198 11.3003 58.0767 11.5572 58.2051C11.6856 58.3336 12.071 58.5905 12.3278 58.5905H12.4563C12.5847 58.5905 12.8416 58.462 12.97 58.2051L17.2085 53.966C18.2361 53.0668 19.6489 52.6814 21.0617 52.8099H39.0433C42.5111 52.6814 45.8506 51.0115 47.9056 48.1854C53.8138 41.2486 62.933 30.3297 63.0615 30.0727L63.1899 29.8158C63.5752 29.1735 63.9606 28.5312 63.9606 27.2467C64.2174 25.8336 63.1899 23.5214 61.2633 23.136Z"
          fill="var(--current-color-1)"/>
    <path d="M29.7932 5.40942C22.729 5.40942 16.9492 11.1901 16.9492 18.2553C16.9492 25.3205 22.729 31.1011 29.7932 31.1011C36.8574 31.1011 42.6371 25.3205 42.6371 18.2553C42.6371 11.1901 36.8574 5.40942 29.7932 5.40942ZM29.7932 29.0463C23.885 29.0463 19.0042 24.1643 19.0042 18.2553C19.0042 12.3462 23.885 7.46426 29.7932 7.46426C35.7014 7.46426 40.5821 12.3462 40.5821 18.2553C40.5821 24.1643 35.7014 29.0463 29.7932 29.0463Z"
          fill="var(--current-color-2)"/>
    <path d="M35.963 16.8318C35.963 15.0334 34.5502 13.6204 32.752 13.6204C31.4676 13.6204 30.4401 14.2627 29.7979 15.4188C29.0273 13.8773 27.1007 13.1065 25.431 14.0057C24.275 14.5196 23.6328 15.6757 23.6328 16.9603C23.6328 20.4287 29.7979 24.4109 29.7979 24.4109C29.7979 24.4109 35.963 20.3002 35.963 16.8318Z"
          fill="var(--current-color-2)"/>
</svg>
