<svg id="picto" width="64" height="64" viewBox="0 0 64 64" fill="none" xmlns="http://www.w3.org/2000/svg">
    <path fill-rule="evenodd" clip-rule="evenodd"
          d="M42.9998 46C42.9998 52.0751 38.0749 57 31.9998 57C25.9246 57 20.9998 52.0751 20.9998 46C20.9998 39.9249 25.9246 35 31.9998 35C38.0749 35 42.9998 39.9249 42.9998 46ZM34.98 41.2147C36.7917 41.2147 38.2153 42.6382 38.2153 44.45C38.2153 47.9441 32.0035 52.0853 32.0035 52.0853C32.0035 52.0853 25.7917 48.0735 25.7917 44.5794C25.7917 43.2853 26.4388 42.1206 27.6035 41.6029C29.2858 40.6971 31.227 41.4735 32.0035 43.0265C32.6505 41.8618 33.6858 41.2147 34.98 41.2147Z"
          fill="var(--current-color-2)"/>
    <path d="M20.6238 27.8216H20.1064C10.2771 27.6923 2.12909 37.1706 1.99976 46.9999C1.99976 47.9999 2.99976 48.9997 3.99976 48.9997H21.4137C21.2315 48.3552 21.1065 47.6866 21.0446 46.9997H3.99976C3.99976 38.7234 9.99976 29.9997 20.4998 29.9997C25.5372 29.9997 29.5542 31.9627 32.2359 35.0025C33.1602 35.0219 34.0564 35.1554 34.9111 35.3894C31.7543 30.8828 26.5405 27.8995 20.6238 27.8216Z"
          fill="var(--current-color-1)"/>
    <path d="M43.0003 48.9997C42.861 48.9997 42.7285 48.9712 42.608 48.9198C42.7782 48.3003 42.8955 47.6588 42.9548 47.0007C42.9699 47 42.9851 46.9997 43.0003 46.9997H59.0003C59.5526 46.9997 60.0003 46.552 60.0003 45.9997V45.007L60.0001 44.9916C59.8659 36.9763 52.4363 29.9997 44.4203 29.9997C44.4203 29.9997 40.9794 29.9997 38.4523 31.0298C37.9185 31.2474 37.275 31.0669 37.0093 30.5553C36.7482 30.0524 36.9555 29.4299 37.4821 29.2206C39.6802 28.3468 42.0503 27.9528 44.4203 27.9528C54.379 27.9528 61.8709 35.041 62.0003 44.9997V46.9997C62.0003 47.9997 61.0003 48.9997 60.0003 48.9997H43.0003Z"
          fill="var(--current-color-1)"/>
    <path fill-rule="evenodd" clip-rule="evenodd"
          d="M28.9998 16C28.9998 20.9706 24.9703 25 19.9998 25C15.0292 25 10.9998 20.9706 10.9998 16C10.9998 11.0294 15.0292 7 19.9998 7C24.9703 7 28.9998 11.0294 28.9998 16ZM20 23C23.866 23 27 19.866 27 16C27 12.134 23.866 9 20 9C16.134 9 13 12.134 13 16C13 19.866 16.134 23 20 23Z"
          fill="var(--current-color-1)"/>
    <path fill-rule="evenodd" clip-rule="evenodd"
          d="M52.9998 16C52.9998 20.9706 48.9703 25 43.9998 25C39.0292 25 34.9998 20.9706 34.9998 16C34.9998 11.0294 39.0292 7 43.9998 7C48.9703 7 52.9998 11.0294 52.9998 16ZM44 23C47.866 23 51 19.866 51 16C51 12.134 47.866 9 44 9C40.134 9 37 12.134 37 16C37 19.866 40.134 23 44 23Z"
          fill="var(--current-color-1)"/>
</svg>
