<svg id="picto" width="64" height="64" viewBox="0 0 64 64" fill="none" xmlns="http://www.w3.org/2000/svg">
    <path d="M63.2339 34.2492C62.9377 33.805 62.6415 33.5088 62.3454 33.2126C61.0126 32.176 59.0874 32.0279 57.6065 32.9164L46.4999 38.9881C46.2037 39.1362 45.9075 39.2843 45.4632 39.2843L41.0206 39.5804C41.0206 37.211 39.0954 35.1378 36.726 35.1378L23.2499 34.6935C21.9171 34.6935 20.5843 35.1378 19.6958 36.1744L14.8089 41.6537C14.3646 42.246 13.6242 42.5422 12.8837 42.5422H11.2547V40.3209C11.2547 39.7285 10.8105 39.2843 10.2181 39.2843H1.03662C0.444265 39.2843 0 39.7285 0 40.3209V62.3861C0 62.9785 0.444265 63.4227 1.03662 63.4227H10.2181C10.8105 63.4227 11.2547 62.9785 11.2547 62.3861V60.3129H20.5843C21.0286 60.3129 21.621 60.1648 22.0652 60.0167L43.8343 52.7603C44.1304 52.6122 44.4266 52.3161 44.8709 52.168L62.1973 40.3209C64.1224 38.84 64.5667 36.1744 63.2339 34.2492ZM9.03341 61.2014H1.92515V41.0613H9.03341V61.2014ZM61.4568 38.0995C61.3087 38.2476 61.1607 38.3957 61.0126 38.5438L43.6862 50.3909C43.39 50.539 43.2419 50.6871 42.9457 50.6871L21.1767 57.7954C20.8805 57.9434 20.5843 57.9434 20.4362 57.9434H11.1067V44.3193H12.7356C14.0684 44.3193 15.2531 43.7269 16.1417 42.8384L21.0286 37.3591C21.621 36.7667 22.3614 36.4706 23.1018 36.4706L36.5779 37.0629C37.9107 37.0629 38.9473 38.2476 38.7993 39.5804C38.7993 40.7651 37.9107 41.6537 36.726 41.8018L27.3964 42.9865C26.8041 43.1346 26.5079 43.7269 26.656 44.3193C26.8041 44.7635 27.2483 45.0597 27.6926 45.0597L37.0222 43.875C38.5031 43.7269 39.6878 42.8384 40.4282 41.6537L45.6113 41.3575C46.2037 41.3575 46.9441 41.0613 47.5365 40.7651L58.6431 34.6935C59.3836 34.2492 60.4202 34.3973 61.1607 34.8416C62.0492 35.582 62.1973 37.0629 61.4568 38.0995Z"
          fill="var(--current-color-1)"/>
    <path d="M45.6084 24.0308C45.1641 23.4385 44.2756 23.1423 43.6832 23.4385C38.9444 26.1041 32.8728 24.4751 30.0591 19.7362C29.911 19.4401 29.7629 19.292 29.6148 18.9958H35.6865C36.4269 18.9958 37.1673 18.4034 37.1673 17.5149C37.1673 16.6264 36.575 16.034 35.6865 16.034H28.7263C28.5782 15.1455 28.5782 14.257 28.7263 13.3684H35.6865C36.4269 13.3684 37.1673 12.7761 37.1673 11.8875C37.1673 11.1471 36.575 10.4067 35.6865 10.4067H29.6148C31.9842 5.37163 37.9078 3.29839 42.7947 5.66781C43.0909 5.8159 43.239 5.96399 43.5352 6.11208C44.2756 6.40826 45.1641 6.11208 45.4603 5.37164C45.7565 4.77928 45.6084 3.89075 44.868 3.59457C38.6482 0.188529 30.7995 2.40986 27.2454 8.62959C26.9492 9.22194 26.653 9.96239 26.3569 10.5547H24.2836C23.5432 10.5547 22.8027 11.1471 22.8027 12.0356C22.8027 12.7761 23.3951 13.5165 24.2836 13.5165H25.9126C25.7645 14.4051 25.7645 15.4417 25.9126 16.3302H24.2836C23.5432 16.3302 22.8027 16.9226 22.8027 17.8111C22.8027 18.6996 23.3951 19.292 24.2836 19.292H26.3569C28.7263 25.956 35.9826 29.5101 42.6466 27.1407C43.3871 26.8445 44.1275 26.5483 44.868 26.1041C45.7565 25.5117 46.0527 24.6232 45.6084 24.0308Z"
          fill="var(--current-color-2)"/>
</svg>
