<svg width="38" height="65" viewBox="0 0 38 65" fill="none" xmlns="http://www.w3.org/2000/svg">
<path d="M32.7434 2.04225C30.0036 1.72932 27.5112 3.68804 27.1597 6.41782L24.0855 22.213L23.2213 22.2095L20.8471 4.94541C20.5092 2.17961 17.9837 0.200817 15.2199 0.537281C12.4831 0.868733 10.517 3.3432 10.7988 6.0749L11.249 21.351C10.6591 21.3961 10.0733 21.5298 9.5096 21.7596C8.08107 22.3409 6.96503 23.4434 6.36632 24.8639C5.81456 26.1737 5.76899 27.6071 6.21912 28.9425C5.54869 28.9976 4.89031 29.1858 4.27596 29.5083C2.55057 30.4135 1.56271 32.1764 1.56323 34.016H1.55872L0.765625 42.5763L0.802177 43.1395C2.59511 51.0314 3.55003 52.4524 4.61146 53.4893C4.74665 53.6215 4.80073 53.6751 4.87783 53.8798L2.21867 54.0376L2.19414 64.5H36.9967L37.0197 51.9737L34.7501 52.1089C35.1817 50.6093 35.6098 49.0631 35.9417 47.7369L35.9928 47.2071L35.5492 38.7664L35.1817 29.5553L37.1975 7.63064C37.509 4.86279 35.5107 2.35488 32.7434 2.04046L32.7434 2.04225ZM15.6523 4.10256C16.4549 4.00192 17.1869 4.57923 17.2891 5.40984L19.8786 24.2429L21.6486 25.7925L25.5555 25.809L27.325 24.3576L30.6951 7.04088L30.7166 6.90018C30.8078 6.09607 31.5348 5.51779 32.3394 5.60738C33.1425 5.69851 33.7217 6.42701 33.6277 7.26663L31.5978 29.3451L31.5913 29.5814L31.9038 37.4017L24.521 29.3016C23.7465 28.1706 22.5863 27.3879 21.2355 27.0911C20.0864 26.8382 18.9168 26.9684 17.8683 27.4436L17.0717 25.0447L17.0306 24.9341C16.5855 23.8401 15.8325 22.9313 14.8671 22.2965L14.384 5.90008L14.372 5.73736C14.2743 4.93225 14.8487 4.19921 15.6523 4.10256ZM9.67347 26.2605C9.90028 25.7227 10.3224 25.3057 10.8626 25.0864C11.4023 24.8666 11.9952 24.8701 12.5329 25.0974C13.0546 25.3177 13.4632 25.7217 13.687 26.2395L15.0709 30.4067C14.9738 30.6596 14.8901 30.9179 14.8311 31.1868C14.5266 32.5727 14.7695 33.9897 15.5165 35.1858L17.4381 38.6752C17.2944 39.0116 17.0291 39.296 16.6671 39.4502C15.925 39.7667 15.0609 39.4192 14.7419 38.6752L9.64684 27.8923C9.44356 27.3631 9.45257 26.7853 9.67337 26.2606L9.67347 26.2605ZM5.94378 32.6883C6.16108 32.5741 6.39741 32.5166 6.63623 32.5166C6.78644 32.5166 6.93715 32.5396 7.08335 32.5857C7.44886 32.6998 7.75077 32.9437 7.93903 33.2761L10.8306 39.8486L10.8987 39.9873C11.0439 40.2527 11.0759 40.5606 10.9893 40.856C10.9032 41.1509 10.7094 41.3937 10.445 41.5379C9.89228 41.8389 9.19632 41.6356 8.89384 41.0838L5.31284 34.71C4.92931 33.978 5.21327 33.0723 5.94378 32.6883ZM8.55884 53.6631C8.50577 53.4564 8.4497 53.2511 8.3861 53.0503C8.01058 51.8602 7.59101 51.3835 7.12086 50.9244C6.76286 50.5749 6.02334 49.8519 4.36762 42.6244L4.54837 40.6742L5.75203 42.8167C6.61271 44.3798 8.23494 45.2655 9.90675 45.2655C10.2928 45.2655 10.6818 45.2174 11.0643 45.1203L11.0648 45.1268C11.0648 45.1268 13.8362 44.2145 16.1318 44.0553C16.974 43.9972 17.9493 44.0408 18.8256 44.1149C17.695 45.5679 17.2263 47.1722 17.5178 50.2614L21.0907 49.9249C20.8108 46.9513 21.1878 46.6028 23.2797 44.6671L23.6327 42.4841L18.6348 33.4076L18.5737 33.305C18.3174 32.906 18.2333 32.4273 18.3369 31.9576C18.4401 31.4875 18.7174 31.0884 19.1165 30.8331L19.1215 30.8286C19.519 30.5752 19.9957 30.4911 20.4644 30.5952C20.935 30.6984 21.3351 30.9763 21.592 31.3763L32.1421 42.9918L32.1771 42.9593L32.3959 47.1261C31.9938 48.7072 31.4561 50.6029 30.9474 52.3353L8.55884 53.6631Z" fill="#001329"/>
</svg>
