<svg width="266" height="74" viewBox="0 0 266 74" fill="none" xmlns="http://www.w3.org/2000/svg">
<path d="M104.446 37.4982H98.8749V66.4793H104.446V37.4982Z" fill="#002853"/>
<path d="M240.497 39.7528H235.011V58.0122C235.011 63.5875 238.234 66.4793 244.405 66.4793V61.6475C242.133 61.6475 240.497 61.1502 240.497 57.4561V50.1901H244.405V45.4394H240.497V39.7528Z" fill="#002853"/>
<path d="M115.404 39.7528H109.918V58.0122C109.918 63.5875 113.141 66.4793 119.312 66.4793V61.6475C117.04 61.6475 115.404 61.1502 115.404 57.4561V50.1901H119.312V45.4394H115.404V39.7528Z" fill="#002853"/>
<path d="M195.655 44.8833C188.968 44.8833 184.811 48.2454 184.811 55.9593C184.811 63.6733 188.841 67.0354 195.655 67.0354C202.47 67.0354 206.372 63.6733 206.372 55.9593C206.372 48.2454 202.256 44.8833 195.655 44.8833ZM195.655 62.3736C192.269 62.3736 190.554 61.2789 190.554 55.9593C190.554 50.6398 192.269 49.588 195.655 49.588C199.041 49.588 200.756 50.6414 200.756 55.9593C200.756 61.2773 199.043 62.3736 195.655 62.3736Z" fill="#002853"/>
<path d="M158.106 44.8833C151.504 44.8833 147.404 48.2025 147.404 55.9593V73.9994H152.904V64.9349C154.075 66.2362 155.734 67.0354 158.106 67.0354C164.664 67.0354 168.822 63.6733 168.822 55.9593C168.822 48.2454 164.707 44.8833 158.106 44.8833ZM157.985 62.3736C154.518 62.3736 152.763 61.2789 152.763 55.9593C152.763 50.6398 154.518 49.588 157.985 49.588C161.452 49.588 163.207 50.6414 163.207 55.9593C163.207 61.2773 161.452 62.3736 157.985 62.3736Z" fill="#002853"/>
<path d="M226.944 35.9888C225.315 35.9888 223.993 37.3075 223.993 38.933C223.993 40.5584 225.315 41.8771 226.944 41.8771C228.574 41.8771 229.895 40.5584 229.895 38.933C229.895 37.3075 228.574 35.9888 226.944 35.9888Z" fill="#002853"/>
<path d="M216.405 45.4394C216.405 42.9067 216.739 41.0843 220.604 41.0843V36.1048C218.481 36.0873 216.367 36.4432 214.825 37.3536C212.197 38.9059 210.918 41.6801 210.918 45.4394H207.756V50.187H210.885V66.4793H216.371V50.187H224.154V66.4793H229.727V45.4394H216.405Z" fill="#002853"/>
<path d="M85.6996 40.8555C85.3445 40.0483 84.7011 39.381 83.8809 39.0521C81.8583 38.2386 79.8039 39.0966 78.9535 40.8555L68.7053 66.4777H74.6344L76.6952 61.1041H87.961L90.0202 66.4777H96.0051L85.7776 41.0303L85.7012 40.8555H85.6996ZM78.2034 57.1701L81.6433 48.1993C81.715 48.0118 81.7739 47.8179 81.8185 47.6193L82.3265 45.7826L82.841 47.6241C82.8855 47.8179 82.9429 48.0086 83.0145 48.1945L86.4529 57.1701H78.2018H78.2034Z" fill="#002853"/>
<path d="M136.668 45.4283H125.528V50.1885H135.168C136.611 50.1885 137.781 51.3564 137.781 52.7959V53.8366H128.53C125.117 53.8366 122.34 56.695 122.34 60.2143C122.34 62.0082 123.039 63.6384 124.31 64.8046C125.608 65.9931 127.401 66.627 129.428 66.627C129.709 66.627 129.994 66.6159 130.282 66.5905C133.832 66.2886 136.243 65.1017 137.781 63.3587V66.4745H143.201V51.9474C143.201 48.3486 140.277 45.4299 136.668 45.4299V45.4283ZM130.054 62.3085C127.914 62.3085 126.995 61.2932 126.995 60.0427C126.995 58.7923 127.976 57.777 129.188 57.777L137.783 57.7738C137.783 60.378 134.434 62.3085 130.056 62.3085H130.054Z" fill="#002853"/>
<path d="M178.193 52.7959C178.193 51.3564 179.363 50.1885 180.806 50.1885H183.913V45.4283H179.306C175.699 45.4283 172.773 48.3454 172.773 51.9458V66.4729H178.193V52.7959Z" fill="#002853"/>
<path d="M260.509 66.4793H247.582V61.7158H260.204C260.605 61.7158 261.323 61.5538 261.395 60.6672C261.468 59.7552 260.723 59.4453 260.511 59.404L251.628 57.9248C248.568 57.3957 246.546 54.6152 246.786 51.3119C247 48.3931 249.116 45.4362 252.75 45.4362H261.704L263.01 50.1965H253.082C252.489 50.1965 251.937 50.4936 251.897 51.2944C251.847 52.2525 252.644 52.4781 252.889 52.5321L261.63 53.9955C264.628 54.469 265.993 57.2352 265.773 60.5718C265.577 63.5097 264.136 66.4825 260.511 66.4825L260.509 66.4793Z" fill="#002853"/>
<path d="M23.3368 17.9706C6.9588 19.6549 -9.66761 65.9642 7.35535 68.7511L7.36 58.8395C-1.32268 58.5074 12.7032 22.5291 23.582 21.204C38.49 19.3863 44.6485 58.3027 47.3145 66.4027C48.1681 64.5056 49.1985 60.1775 50.1986 54.7833C45.8158 36.775 36.7573 16.5931 23.3352 17.9722L23.3368 17.9706Z" fill="url(#paint0_linear_1551_14070)"/>
<path style="mix-blend-mode:multiply" fill-rule="evenodd" clip-rule="evenodd" d="M26.73 21.4355C32.5395 23.0447 36.8343 31.0795 40.0195 40.0249C41.7117 39.5346 43.2512 38.6862 44.5501 37.5674C40.6988 28.6806 35.5914 21.2873 29.2727 18.8014C28.2978 19.5458 27.4396 20.4345 26.73 21.4355Z" fill="url(#paint1_radial_1551_14070)"/>
<path d="M7.36 58.84C16.0427 59.1721 42.1776 4.03549 55.0567 0.400149C75.0131 -5.234 58.546 50.2241 54.0422 66.402C54.0422 66.402 47.7436 66.4195 47.3152 66.402C50.744 58.777 57.0394 11.9211 52.6726 14.1598C46.8629 17.1374 22.5428 71.2386 7.35449 68.752L7.36 58.84Z" fill="url(#paint2_linear_1551_14070)"/>
<defs>
<linearGradient id="paint0_linear_1551_14070" x1="7.81719" y1="43.3275" x2="49.63" y2="43.3275" gradientUnits="userSpaceOnUse">
<stop stop-color="#FF9460"/>
<stop offset="0.5" stop-color="#FF6327"/>
<stop offset="1" stop-color="#FF9460"/>
</linearGradient>
<radialGradient id="paint1_radial_1551_14070" cx="0" cy="0" r="1" gradientUnits="userSpaceOnUse" gradientTransform="translate(36.6324 28.4106) scale(12.1207 12.0929)">
<stop stop-color="#8C0E00"/>
<stop offset="1" stop-color="#E9000E" stop-opacity="0"/>
</radialGradient>
<linearGradient id="paint2_linear_1551_14070" x1="7.35449" y1="34.4164" x2="64.706" y2="34.4164" gradientUnits="userSpaceOnUse">
<stop stop-color="#FF9460"/>
<stop offset="1" stop-color="#FF6327"/>
</linearGradient>
</defs>
</svg>
