<svg id="logo" viewBox="0 0 224 70" fill="none" xmlns="http://www.w3.org/2000/svg">
    <path d="M44.711 17.3422H55.6971V42.0338H61.7338V17.3422H72.7198V12.0019H44.711V17.3422Z"
          fill="var(--current-color-1)"/>
    <path d="M84.8035 12.0004H78.7668V42.0323H102.113V36.6921H84.8035V12.0004Z" fill="var(--current-color-1)"/>
    <path d="M168.307 33.4226L149.76 12.0018H143.726V42.0338H149.76V20.6697L168.307 42.0338H174.344V12.0018H168.307V33.4226Z"
          fill="var(--current-color-1)"/>
    <path d="M118.733 12L104.757 42.0319H111.115L113.875 35.9433H130.316L133.185 42.0319H139.526L125.13 12H118.733ZM116.209 30.928L121.989 18.3213L127.937 30.928H116.209Z"
          fill="var(--current-color-1)"/>
    <path d="M210.865 20.6949C210.109 18.8582 208.962 17.2958 207.42 16.0077C205.878 14.7195 203.93 13.7296 201.581 13.0379C199.235 12.3461 196.467 12.0002 193.281 12.0002H182.369V42.0322L193.32 42.053C196.505 42.053 199.271 41.6714 201.62 40.908C203.969 40.1477 205.91 39.0892 207.447 37.7385C208.983 36.3878 210.127 34.7866 210.874 32.9349C211.625 31.0833 212 29.0706 212 26.891C212 24.598 211.622 22.5347 210.865 20.6949ZM204.953 30.967C204.495 32.1835 203.815 33.2212 202.908 34.0769C201.998 34.9356 200.866 35.6006 199.507 36.0657C198.148 36.5339 196.567 36.7694 194.767 36.7694H188.406V17.3047H194.767C196.567 17.3047 198.148 17.5283 199.507 17.9756C200.866 18.4258 201.998 19.0609 202.908 19.8869C203.815 20.7128 204.495 21.7206 204.953 22.9044C205.411 24.0911 205.638 25.418 205.638 26.891C205.638 28.3908 205.411 29.7504 204.953 30.967Z"
          fill="var(--current-color-1)"/>
    <path d="M26.7753 12.0004L17.967 30.9284H24.2519L30.0315 18.3216L41.2273 42.0323H47.5684L33.1725 12.0004H26.7753Z"
          fill="var(--current-color-1)"/>
    <path d="M12.7987 42.0333H19.1604L21.9498 35.9446H15.6324L12.7987 42.0333Z" fill="var(--current-color-1)"/>
    <path d="M12 35.9449H35.2013L32.8226 30.9297H14.3343L12 35.9449Z" fill="var(--current-color-1)"/>
    <path d="M71.0988 57.8615H211.999V52.8463H71.0988V57.8615Z" fill="var(--current-color-1)"/>
    <path d="M12.7987 48.0892H14.9734L18.0169 55.5405L21.0574 48.0892H23.2322L18.989 57.8603H17.0418L12.7987 48.0892Z"
          fill="var(--current-color-1)"/>
    <path d="M23.9918 52.949C23.9918 52.2095 24.1278 51.5356 24.3937 50.9244C24.6626 50.3101 25.0408 49.7853 25.5254 49.3441C26.01 48.9057 26.5921 48.5658 27.2717 48.3213C27.9513 48.0798 28.7048 47.9605 29.5292 47.9605C30.3536 47.9605 31.1041 48.0798 31.7866 48.3213C32.4692 48.5658 33.0513 48.9057 33.5359 49.3441C34.0234 49.7853 34.3987 50.3101 34.6676 50.9244C34.9365 51.5356 35.0695 52.2095 35.0695 52.949C35.0695 53.6914 34.9365 54.3712 34.6676 54.9914C34.3987 55.6087 34.0234 56.1424 33.5359 56.5867C33.0513 57.0339 32.4692 57.3798 31.7866 57.6273C31.1041 57.8777 30.3536 58 29.5292 58C28.7048 58 27.9513 57.8777 27.2717 57.6273C26.5921 57.3798 26.01 57.0339 25.5254 56.5867C25.0408 56.1424 24.6626 55.6087 24.3937 54.9914C24.1278 54.3712 23.9918 53.6914 23.9918 52.949ZM25.9568 52.949C25.9568 53.4529 26.0454 53.9091 26.2257 54.3116C26.4059 54.7171 26.6541 55.063 26.9732 55.3463C27.2953 55.6325 27.6735 55.8532 28.1079 56.0052C28.5452 56.1603 29.018 56.2378 29.5292 56.2378C30.0433 56.2378 30.5161 56.1603 30.9534 56.0052C31.3877 55.8532 31.766 55.6325 32.0821 55.3463C32.4013 55.063 32.6524 54.7171 32.8327 54.3116C33.0159 53.9091 33.1045 53.4529 33.1045 52.949C33.1045 52.445 33.0159 51.9918 32.8327 51.5923C32.6524 51.1927 32.4013 50.8528 32.0821 50.5755C31.766 50.2982 31.3877 50.0895 30.9534 49.9434C30.5161 49.7973 30.0433 49.7227 29.5292 49.7227C29.018 49.7227 28.5452 49.7973 28.1079 49.9434C27.6735 50.0895 27.2953 50.2982 26.9732 50.5755C26.6541 50.8528 26.4059 51.1927 26.2257 51.5923C26.0454 51.9918 25.9568 52.445 25.9568 52.949Z"
          fill="var(--current-color-1)"/>
    <path d="M36.876 57.8615H38.8528V48.0874H36.876V57.8615Z" fill="var(--current-color-1)"/>
    <path d="M53.0123 57.8615H54.9891V48.0874H53.0123V57.8615Z" fill="var(--current-color-1)"/>
    <path d="M50.8317 54.2643C50.3589 52.851 48.7544 52.4097 47.4573 52.1652C46.7599 52.031 46.0567 51.9595 45.3593 51.8432C45.2175 51.8193 45.055 51.8014 44.8895 51.7806C44.857 51.7776 44.8304 51.7746 44.7979 51.7686C44.207 51.6941 43.5569 51.5688 43.2939 51.0381C43.2141 50.8741 43.1905 50.6803 43.2525 50.5074C43.421 50.0541 44.0208 49.9229 44.4345 49.8424C44.7831 49.7619 45.2264 49.7202 45.7671 49.7202C46.1453 49.7202 46.5206 49.744 46.887 49.7888C47.2504 49.8305 47.605 49.8901 47.9478 49.9647C48.2905 50.0422 48.6185 50.1287 48.9317 50.2301C49.2449 50.3344 49.5404 50.4447 49.8122 50.567L50.6751 48.9658C50.3441 48.8167 49.9866 48.6796 49.6025 48.5543C49.2183 48.4321 48.8165 48.3277 48.4028 48.2383C47.9862 48.1518 47.5607 48.0832 47.1234 48.0355C46.686 47.9878 46.2487 47.9639 45.8144 47.9639C44.3251 47.9639 42.4311 48.1399 41.5565 49.5592C41.3408 49.908 41.2344 50.3076 41.2344 50.7578C41.2344 52.7287 43.421 53.3489 44.9929 53.6113C45.0461 53.6203 45.0993 53.6262 45.1495 53.6352C45.2086 53.6441 45.2707 53.6531 45.3298 53.662C46.0123 53.7664 46.7008 53.8499 47.3745 54.0079C47.9773 54.148 48.8667 54.3299 48.8667 55.1201C48.8667 55.29 48.8076 55.4361 48.6924 55.5644C48.5742 55.6926 48.4176 55.7969 48.2166 55.8834C48.0157 55.9669 47.7882 56.0325 47.537 56.0802C47.2859 56.1279 47.0229 56.1607 46.7481 56.1846C46.4733 56.2084 46.2015 56.2203 45.9296 56.2203C45.8262 56.2203 45.7346 56.2024 45.6341 56.1995C43.6189 56.11 42.1208 55.1738 41.5151 54.7295C41.2669 55.2244 40.8946 55.943 40.6346 56.4142C43.226 58.075 45.971 57.9855 45.971 57.9855C46.9786 57.9855 47.865 57.8841 48.6303 57.6814C49.3927 57.4786 49.8773 57.1506 50.3087 56.6944C50.9026 56.0563 51.1094 55.0932 50.8317 54.2643Z"
          fill="var(--current-color-1)"/>
    <path d="M57.3538 48.0892H59.3188L65.3525 55.0605V48.0892H67.3175V57.8603H65.3525L59.3188 50.9099V57.8603H57.3538V48.0892Z"
          fill="var(--current-color-1)"/>
</svg>
