<svg id="logo" viewBox="0 0 224 74" fill="none" xmlns="http://www.w3.org/2000/svg">
    <path d="M17.1852 53.4126C17.1852 53.4126 27.8646 48.1546 34.7741 37.0218C27.7589 25.0601 17.1852 20.7311 17.1852 20.7311C17.1852 20.7311 14.4645 22.7934 12 29.2889C18.916 30.6231 25.5089 33.2479 31.4231 37.0218C31.4231 37.0218 22.8218 43.2129 12 44.6506C14.0863 50.5453 17.1852 53.4126 17.1852 53.4126Z"
          fill="var(--current-color-1)"/>
    <path d="M53.9772 56.8844C53.9772 56.8844 48.6238 46.3483 37.2893 39.5314C25.1107 46.4525 20.7033 56.8844 20.7033 56.8844C20.7033 56.8844 22.803 59.5686 29.4162 62C30.7746 55.1768 33.447 48.6724 37.2893 42.8375C37.2893 42.8375 43.5926 51.3234 45.0563 62C51.0579 59.9417 53.9772 56.8844 53.9772 56.8844Z"
          fill="var(--current-color-1)"/>
    <path d="M57.4948 20.7329C57.4948 20.7329 46.8154 25.9909 39.9058 37.1237C46.9211 49.0854 57.4948 53.4144 57.4948 53.4144C57.4948 53.4144 60.2155 51.352 62.68 44.8566C55.764 43.5224 49.1711 40.8975 43.2569 37.1237C43.2569 37.1237 51.8582 30.9325 62.68 29.4949C60.5937 23.6002 57.4948 20.7329 57.4948 20.7329Z"
          fill="var(--current-color-1)"/>
    <path d="M20.7028 17.1156C20.7028 17.1156 26.0561 27.6517 37.3907 34.4686C49.5692 27.5475 53.9767 17.1156 53.9767 17.1156C53.9767 17.1156 51.8769 14.4314 45.2637 12C43.9054 18.8232 41.233 25.3276 37.3907 31.1625C37.3907 31.1625 31.0874 22.6766 29.6237 12C23.622 14.0583 20.7028 17.1156 20.7028 17.1156Z"
          fill="var(--current-color-1)"/>
    <path d="M87.0498 22.3775C90.04 22.3775 92.4054 23.1668 94.1458 24.7453C95.9019 26.3083 96.7803 28.4103 96.7803 31.0516C96.7803 33.474 95.8544 35.4902 94.0034 37.0999C92.2788 38.6003 90.1429 39.3505 87.5956 39.3505H76.1803V22.3775H87.0498ZM87.8329 36.7952C89.5417 36.7952 90.9419 36.256 92.0335 35.1775C93.141 34.0836 93.6945 32.6848 93.6945 30.9813C93.6945 29.1683 93.1016 27.707 91.9149 26.5974C90.7441 25.4877 89.2015 24.9329 87.2871 24.9329H79.0282V36.7952H87.8329Z"
          fill="var(--current-color-1)"/>
    <path d="M122.635 30.8406C122.635 33.6225 121.48 35.8731 119.17 37.5922C117.145 39.0926 114.629 39.8428 111.623 39.8428C108.586 39.8428 106.054 39.0848 104.028 37.5688C101.719 35.8496 100.564 33.6069 100.564 30.8406C100.564 28.1212 101.735 25.8863 104.076 24.1358C106.133 22.6042 108.648 21.8384 111.623 21.8384C114.613 21.8384 117.121 22.6042 119.146 24.1358C121.472 25.8863 122.635 28.1212 122.635 30.8406ZM119.668 30.8406C119.668 28.8557 118.814 27.246 117.105 26.0113C115.634 24.9485 113.806 24.4171 111.623 24.4171C109.234 24.4171 107.288 25.0267 105.784 26.2457C104.282 27.4491 103.53 28.9807 103.53 30.8406C103.53 32.7629 104.266 34.318 105.737 35.5058C107.209 36.6779 109.17 37.264 111.623 37.264C114.06 37.264 116.006 36.6702 117.461 35.4823C118.932 34.2945 119.668 32.7473 119.668 30.8406Z"
          fill="var(--current-color-1)"/>
    <path d="M146.953 39.3505H143.654L139.003 32.8802H130.317V39.3505H127.469V22.3775H141.021C142.824 22.3775 144.24 22.8621 145.268 23.831C146.297 24.7844 146.811 26.0816 146.811 27.7226C146.811 29.1605 146.392 30.317 145.553 31.1922C144.778 32.0049 143.71 32.5207 142.35 32.7394L146.953 39.3505ZM140.594 30.3248C142.792 30.3248 143.892 29.4575 143.892 27.7226C143.892 25.8628 142.705 24.9329 140.332 24.9329H130.317V30.3248H140.594Z"
          fill="var(--current-color-1)"/>
    <path d="M170.421 22.3775L161.165 39.3505H157.89L148.634 22.3775H151.814L159.527 36.5373L167.24 22.3775H170.421Z"
          fill="var(--current-color-1)"/>
    <path d="M192.652 39.3505H189.542L187.549 35.5527H175.991L173.998 39.3505H170.889L179.978 22.3775H183.562L192.652 39.3505ZM186.148 32.9974L181.782 24.7922L177.391 32.9974H186.148Z"
          fill="var(--current-color-1)"/>
    <path d="M212 39.3505H195.885V22.3775H198.733V36.7952H212V39.3505Z" fill="var(--current-color-1)"/>
    <path d="M76.473 51.8535L79.8873 44.4173H79.9079L83.3222 51.8535H82.2732L81.543 50.2281H78.2418L77.522 51.8535H76.473ZM78.6018 49.4256H81.1831C80.6483 48.2404 80.2198 47.2313 79.8976 46.3983C79.5548 47.2584 79.1229 48.2675 78.6018 49.4256Z"
          fill="var(--current-color-1)"/>
    <path d="M88.1641 51.9754C87.3962 51.9754 86.6832 51.8332 86.0251 51.5487V50.5837C86.7381 50.929 87.434 51.1017 88.1127 51.1017C88.5858 51.1017 88.9731 51.0103 89.2748 50.8275C89.5764 50.6379 89.7273 50.3805 89.7273 50.0554C89.7273 49.7168 89.6073 49.4391 89.3674 49.2224C89.1342 49.0057 88.7057 48.7924 88.0819 48.5824C87.3551 48.3318 86.8238 48.0406 86.4878 47.7087C86.1588 47.3702 85.9942 46.9265 85.9942 46.3779C85.9942 45.7684 86.2239 45.291 86.6832 44.9456C87.1426 44.5934 87.7356 44.4173 88.4624 44.4173C89.1274 44.4173 89.741 44.5426 90.3032 44.7932V45.7176C89.7547 45.4332 89.1582 45.291 88.5138 45.291C88.0544 45.291 87.6808 45.3858 87.3928 45.5754C87.1049 45.7651 86.9609 46.0224 86.9609 46.3475C86.9609 46.659 87.0774 46.9299 87.3106 47.1602C87.5505 47.3837 87.9756 47.6004 88.5858 47.8103C89.3262 48.0744 89.861 48.3725 90.1901 48.7043C90.526 49.0294 90.694 49.456 90.694 49.9843C90.694 50.6074 90.4678 51.095 90.0153 51.4471C89.5628 51.7994 88.9457 51.9754 88.1641 51.9754Z"
          fill="var(--current-color-1)"/>
    <path d="M95.7973 51.9754C95.0299 51.9754 94.3171 51.8332 93.6583 51.5487V50.5837C94.3718 50.929 95.0677 51.1017 95.7458 51.1017C96.2196 51.1017 96.6066 51.0103 96.9082 50.8275C97.2099 50.6379 97.3611 50.3805 97.3611 50.0554C97.3611 49.7168 97.2405 49.4391 97.0007 49.2224C96.7675 49.0057 96.3395 48.7924 95.7152 48.5824C94.9888 48.3318 94.4571 48.0406 94.1216 47.7087C93.7926 47.3702 93.6277 46.9265 93.6277 46.3779C93.6277 45.7684 93.857 45.291 94.3171 44.9456C94.7765 44.5934 95.3693 44.4173 96.0957 44.4173C96.761 44.4173 97.3748 44.5426 97.9363 44.7932V45.7176C97.3885 45.4332 96.7916 45.291 96.1472 45.291C95.6879 45.291 95.3146 45.3858 95.0266 45.5754C94.7386 45.7651 94.5946 46.0224 94.5946 46.3475C94.5946 46.659 94.7113 46.9299 94.9438 47.1602C95.1843 47.3837 95.6091 47.6004 96.2196 47.8103C96.9597 48.0744 97.4947 48.3725 97.8237 48.7043C98.1591 49.0294 98.3273 49.456 98.3273 49.9843C98.3273 50.6074 98.1012 51.095 97.6491 51.4471C97.1962 51.7994 96.5792 51.9754 95.7973 51.9754Z"
          fill="var(--current-color-1)"/>
    <path d="M106.527 51.8535H101.827V44.5392H106.373V45.3621H102.814V47.7392H105.817V48.5621H102.814V51.0306H106.527V51.8535Z"
          fill="var(--current-color-1)"/>
    <path d="M114.701 45.3621H112.438V51.8535H111.451V45.3621H109.199V44.5392H114.701V45.3621Z"
          fill="var(--current-color-1)"/>
    <path d="M125.349 49.8421L123.137 47.1906L122.942 46.957V51.8535H121.985V44.4173H121.996L125.349 48.4706L128.711 44.4173H128.722V51.8535H127.765V46.957L125.349 49.8421Z"
          fill="var(--current-color-1)"/>
    <path d="M131.856 51.8535L135.27 44.4173H135.291L138.705 51.8535H137.656L136.926 50.2281H133.625L132.905 51.8535H131.856ZM133.984 49.4256H136.566C136.032 48.2404 135.603 47.2313 135.28 46.3983C134.937 47.2584 134.506 48.2675 133.984 49.4256Z"
          fill="var(--current-color-1)"/>
    <path d="M147.673 51.9754H147.663L142.829 46.7944V51.8535H141.842V44.4173H141.853L146.686 49.5983V44.5392H147.673V51.9754Z"
          fill="var(--current-color-1)"/>
    <path d="M150.808 51.8535L154.223 44.4173H154.243L157.657 51.8535H156.609L155.879 50.2281H152.577L151.857 51.8535H150.808ZM152.938 49.4256H155.518C154.984 48.2404 154.555 47.2313 154.233 46.3983C153.89 47.2584 153.458 48.2675 152.938 49.4256Z"
          fill="var(--current-color-1)"/>
    <path d="M166.132 51.4167C165.44 51.7892 164.631 51.9754 163.705 51.9754C162.581 51.9754 161.648 51.6165 160.908 50.8986C160.175 50.1807 159.808 49.28 159.808 48.1963C159.808 47.106 160.181 46.2052 160.928 45.4941C161.676 44.7763 162.618 44.4173 163.757 44.4173C164.58 44.4173 165.313 44.59 165.958 44.9354V45.87C165.23 45.5043 164.49 45.3214 163.736 45.3214C162.865 45.3214 162.159 45.5924 161.618 46.1341C161.076 46.676 160.805 47.3633 160.805 48.1963C160.805 49.0294 161.076 49.7202 161.618 50.2687C162.166 50.8106 162.862 51.0814 163.705 51.0814C164.301 51.0814 164.789 50.9934 165.165 50.8173V48.6129H166.132V51.4167Z"
          fill="var(--current-color-1)"/>
    <path d="M174.484 51.8535H169.784V44.5392H174.33V45.3621H170.771V47.7392H173.774V48.5621H170.771V51.0306H174.484V51.8535Z"
          fill="var(--current-color-1)"/>
    <path d="M181.393 49.8421L179.182 47.1906L178.986 46.957V51.8535H178.031V44.4173H178.04L181.393 48.4706L184.756 44.4173H184.766V51.8535H183.81V46.957L181.393 49.8421Z"
          fill="var(--current-color-1)"/>
    <path d="M193.577 51.8535H188.878V44.5392H193.423V45.3621H189.865V47.7392H192.868V48.5621H189.865V51.0306H193.577V51.8535Z"
          fill="var(--current-color-1)"/>
    <path d="M202.955 51.9754H202.944L198.111 46.7944V51.8535H197.123V44.4173H197.134L201.968 49.5983V44.5392H202.955V51.9754Z"
          fill="var(--current-color-1)"/>
    <path d="M211.695 45.3621H209.432V51.8535H208.445V45.3621H206.193V44.5392H211.695V45.3621Z"
          fill="var(--current-color-1)"/>
</svg>
