<svg id="logo" viewBox="0 0 134 98" fill="none" xmlns="http://www.w3.org/2000/svg">
    <path fill-rule="evenodd" clip-rule="evenodd"
          d="M61.0837 71.3565V77.7817C61.0837 80.0608 61.0837 81.2005 61.4008 82.113C61.9325 83.6427 63.0832 84.8477 64.544 85.4045C65.4153 85.7367 66.5035 86 68.6799 86C70.8564 86 71.9446 85.7367 72.8159 85.4045C74.2767 84.8477 75.4274 83.6427 75.9591 82.113C76.2762 81.2005 76.2762 80.0609 76.2762 77.7817V71.3565C76.2762 69.0774 76.2762 67.9378 75.9591 67.0253C75.4274 65.4955 74.2767 64.2905 72.8159 63.7337C71.9446 63.4016 70.8564 63.1382 68.6799 63.1382C66.5035 63.1382 65.4153 63.4016 64.544 63.7337C63.0832 64.2905 61.9325 65.4955 61.4008 67.0253C61.0837 67.9378 61.0837 69.0773 61.0837 71.3565ZM12 63.7075H23.9788V66.7671H16.2364V72.7334H22.9562V76.0989H16.2364V81.9122H23.9788V85.2777H12V63.7075ZM27.3386 63.7075H31.7211L38.1487 76.2519V63.7075H42.239V85.2777H38.1487L31.7211 72.1214V85.2777H27.3386V63.7075ZM59.0385 63.7075H44.7224V67.2261H49.8353V85.2777H54.0717V67.2261H59.0385V63.7075ZM80.3665 63.7075V85.2777H84.1647V77.4757H87.8167L90.4462 85.2777H94.9748L91.6149 76.5579C91.6149 76.5579 94.5365 75.9459 94.5365 70.2857C94.5365 64.6254 90.4462 63.7075 90.4462 63.7075H80.3665ZM102.279 63.7075H98.1886V85.2777H102.279V63.7075ZM104.762 85.2777L110.313 63.7075H116.449L122 85.2777H117.91L116.595 80.5353H110.313L108.999 85.2777H104.762ZM65.2633 68.8081C65.1737 69.1583 65.1737 69.5851 65.1737 70.4387V78.6996C65.1737 79.5532 65.1737 79.98 65.2633 80.3302C65.5065 81.2804 66.2153 82.0227 67.1227 82.2773C67.457 82.3711 67.8646 82.3711 68.6797 82.3711C69.4948 82.3711 69.9024 82.3711 70.2368 82.2773C71.1442 82.0227 71.853 81.2804 72.0961 80.3302C72.1857 79.98 72.1857 79.5532 72.1857 78.6996V70.4387C72.1857 69.5851 72.1857 69.1583 72.0961 68.8081C71.853 67.8579 71.1442 67.1156 70.2368 66.861C69.9024 66.7672 69.4948 66.7672 68.6797 66.7672C67.8646 66.7672 67.457 66.7672 67.1227 66.861C66.2153 67.1156 65.5065 67.8579 65.2633 68.8081ZM86.7938 67.0731H84.1643V74.4162H86.7938C88.1605 74.4162 88.8438 74.4162 89.3427 74.0879C89.6029 73.9167 89.8228 73.6863 89.9863 73.4139C90.2998 72.8915 90.2998 72.1759 90.2998 70.7446C90.2998 69.3134 90.2998 68.5978 89.9863 68.0754C89.8228 67.8029 89.6029 67.5726 89.3427 67.4014C88.8438 67.0731 88.1605 67.0731 86.7938 67.0731ZM113.38 67.0731L115.717 77.1698H111.043L113.38 67.0731Z"
          fill="var(--current-color-1)"/>
    <path d="M49.1055 22.2195L66.3435 12V21.4993L49.1055 31.9215V22.2195Z" fill="var(--current-color-1)"/>
    <path d="M76.1422 26.5676L67.5121 21.3498V12.0003L84.0347 21.7957L76.1422 26.5676Z" fill="var(--current-color-1)"/>
    <path d="M58.4554 27.6817L67.0515 22.4844L74.9736 27.2742L58.4554 37.2612V27.6817Z" fill="var(--current-color-1)"/>
    <path d="M57.2868 28.3882L49.1055 33.3347V42.9143L57.289 37.9665H57.2868V28.3882Z" fill="var(--current-color-1)"/>
    <path d="M49.8996 43.8474L66.3435 54.1231V44.0541L57.9506 38.9796L49.8996 43.8474Z" fill="var(--current-color-1)"/>
    <path d="M66.9804 43.026L59.1193 38.2731L84.7496 22.7767V32.2825L66.9804 43.026Z" fill="var(--current-color-1)"/>
    <path d="M84.7496 33.6957V43.3512L67.5121 54.1228V44.1176L84.7496 33.6957Z" fill="var(--current-color-1)"/>
</svg>
