<svg id="logo" viewBox="0 0 124 108" fill="none" xmlns="http://www.w3.org/2000/svg">
    <path d="M26.1951 86.7703H19.5683V87.5487H21.8383V93.1893C21.4557 94.6211 19.4176 95.2193 18.8101 95.2193C14.5785 95.2193 14.8822 88.8051 14.8822 87.0874C14.8822 85.5163 14.7292 78.9508 18.8101 78.9508C21.6853 78.9508 23.1994 81.9177 23.8046 84.5818H24.2637C24.2637 83.484 24.2822 78.2613 24.2706 78.2733C24.2822 78.2325 22.2997 79.7484 22.2928 79.7243C22.3368 79.7147 21.3862 78.3214 18.8101 78.3214C13.8156 78.3214 11.9839 83.484 12.0001 87.0874C12.0233 90.3834 13.4887 96.0001 18.8101 96.0001C20.4842 96.0001 21.6621 95.1184 22.2928 94.1166C22.2997 94.095 24.4028 95.8367 24.4097 95.8439V87.5487H26.1951V86.7703Z"
          fill="var(--current-color-1)"/>
    <path d="M30.9938 86.4561L31.0031 79.3284C35.3159 79.3284 36.8995 79.105 37.6508 84.5823H38.1052V78.4852L26.3611 78.49V79.3284H28.3946V95.0156H26.1524V95.842H38.256V89.4326H37.6508C37.0479 94.2781 35.8608 95.018 32.5357 95.018H30.9938V87.3954H31.8865C33.3798 87.4338 34.2284 88.3371 34.5321 90.9965H35.0817L35.077 83.1169C35.0678 83.1313 34.5368 83.1169 34.5368 83.1169C34.5368 83.1553 34.4301 86.5041 31.8216 86.4561H30.9938Z"
          fill="var(--current-color-1)"/>
    <path d="M59.0105 79.3183C63.3232 79.3183 64.9162 79.1045 65.6674 84.5842H66.1219V78.4847H48.9984V79.3183H49.4459C50.051 79.3183 51.484 79.364 51.5675 80.6732V90.6789L43.5564 78.4847H39.1949V79.3183H39.9184C40.7786 79.3183 41.9843 79.3592 42.04 80.6732V93.4944C42.04 94.746 40.2314 95.2193 39.4755 95.2193H39.4662V95.8415H45.3696V95.2193C44.6137 95.2193 42.7935 94.746 42.7935 93.4944L42.8144 82.2059C45.9864 86.9024 51.9709 95.8511 52.0266 95.8415H52.3257V80.6732C52.4068 79.364 53.8421 79.3183 54.445 79.3183H56.4112V95.0175H54.169V95.8415H66.2749V89.4321H65.6674C65.0646 94.28 63.8797 95.0175 60.5524 95.0175H59.0105V87.3949H59.9032C61.3964 87.4334 62.245 88.3366 62.5488 90.996H63.1006L63.096 83.1164C63.0844 83.1308 62.5557 83.1164 62.5557 83.1164C62.5557 83.1548 62.4468 86.5061 59.8382 86.4556H59.0105V79.3183Z"
          fill="var(--current-color-1)"/>
    <path d="M84.0817 89.582L86.4978 82.082L89.0738 89.582H84.0817ZM74.698 86.5863H71.9804V79.3193H75.4562C77.4966 79.6388 77.5801 82.082 77.5801 82.8579C77.5801 84.7389 76.8219 86.5863 74.698 86.5863ZM103.619 89.4331C103.014 94.2785 101.829 95.0064 98.504 95.0064H98.2999V79.3217H100.417V78.4761H93.4585V79.3217H95.5755V95.0064H93.8944L87.7128 78.0076H86.8015C86.8224 77.998 81.6656 93.4305 81.654 93.4762C81.6656 93.4305 81.2645 94.7998 80.4158 94.9704C79.6344 95.0088 79.6924 94.586 79.6924 94.4371V91.4654C79.6924 90.6847 79.6344 88.9118 78.853 88.0998C77.9743 87.1845 76.4764 87.1172 76.5112 87.0812C76.5112 87.0812 80.3138 86.2668 80.3138 82.524C80.3138 79.9006 78.5516 78.5962 75.6069 78.4809H67.2526V79.3241H69.3882V95.0088H67.2526V95.8424H74.1067V95.0088H71.9689V87.468H74.8185C79.7643 87.8908 73.9699 95.8497 80.4506 95.8424H84.5362V95.0064C84.3089 95.0064 82.8111 95.0497 82.7183 93.971C82.658 93.1879 83.7038 90.3844 83.7038 90.3844H89.2663C89.264 90.3724 90.996 95.0088 91.0123 95.0088H89.0738V95.8424H104.224V89.4331H103.619Z"
          fill="var(--current-color-1)"/>
    <path d="M111.836 79.3211V78.4755H105.005V79.3211H107.149L107.159 94.9986H105.005V95.8418H111.836V94.9986H109.691V79.3211H111.836Z"
          fill="var(--current-color-1)"/>
    <path d="M87.489 64.0616C87.693 63.5211 88.0872 63.1775 88.6321 63.0694L94.1599 61.7914L93.6613 56.6841L93.6451 56.5735C93.5083 55.9033 93.0979 53.8661 90.5288 53.6475C80.6489 52.8211 78.358 51.3029 75.9558 49.6957C75.9512 49.6885 75.9489 49.6813 75.9466 49.6741L75.9326 49.6813L75.7773 49.5756C73.2105 47.8555 70.6623 47.8411 70.4118 47.8483C67.6132 47.8507 64.0725 48.999 63.7827 49.0951C62.9294 49.3546 62.1295 49.6188 61.3574 49.8759C58.2619 50.9065 55.5885 51.8001 51.0995 51.6608L50.281 51.6368L50.07 52.456C49.9077 53.0878 48.6509 58.2311 49.8636 61.5343C48.7761 62.4208 48.7785 63.4466 48.7831 63.5859C48.8271 64.715 48.5698 64.9937 48.4863 65.085C47.9669 65.6399 46.2464 65.7144 44.7973 65.7144H44.2501L43.9394 66.1564C43.0467 67.432 41.1152 67.7299 39.8793 67.4032C39.3344 65.6903 39.3205 64.3811 39.8445 63.6003C40.4636 62.6778 41.776 62.5769 42.3116 62.5769H42.6223C43.9347 62.5769 45.0013 61.4647 45.0013 60.0977V50.8921C45.4024 50.253 45.7224 49.5155 46.003 48.6867C48.171 48.3264 49.8311 46.4213 49.8311 44.1295C49.8311 43.2503 49.5807 42.3999 49.1286 41.6744C51.1342 40.675 52.8478 38.633 52.8478 35.9544C52.8478 33.2783 51.547 32.0507 50.3134 31.2459C50.6612 30.2177 51.2363 28.4112 51.6258 26.5926L53.3602 20.1544C54.137 17.6295 56.1635 16.0008 58.5286 16.0008H89.0843C87.7904 17.8866 85.954 18.7779 83.4081 18.7779H64.9189L63.952 20.9207H80.5237C79.2205 23.066 77.3146 24.0774 74.6087 24.0774H62.5932L61.6286 26.2202H72.3479C71.0495 28.2862 69.1644 29.2616 66.5072 29.2616H59.9569L58.9923 31.4044H65.8579C65.9205 31.4933 66.0921 31.8176 66.0921 32.6873C66.0921 34.0614 64.9745 35.1833 63.6018 35.1833C63.1288 35.1833 62.7277 35.0704 62.0205 34.7725C61.7167 34.638 61.413 34.5058 61.1093 34.3737L59.5163 35.8535C59.8154 35.9857 60.1122 36.1178 60.4113 36.2475V36.2499C61.7909 36.8673 62.5584 37.1916 63.6018 37.1916C64.8655 37.1916 66.0063 36.6487 66.8132 35.7839C67.9911 35.8607 69.8878 36.0241 71.7265 36.1803C73.9223 36.3676 75.9976 36.543 77.0688 36.6031C77.6067 36.6319 78.1099 36.6583 78.5899 36.6823C79.5011 36.728 80.3358 36.7712 81.1682 36.8337C85.3396 43.8509 87.4774 44.7734 95.5534 45.7751C96.1354 46.8562 96.6617 47.9973 97.1603 49.148V62.8076L97.1626 62.8868C97.2066 63.5162 97.2066 63.7276 97.1255 63.843C96.8449 64.2225 95.5975 64.7606 95.1639 64.9456L88.3562 67.605C87.4542 66.339 87.1296 65.0153 87.489 64.0616ZM86.0166 67.7732H72.5566L78.3255 61.4647C79.4895 60.2179 79.8605 58.7188 79.3713 57.2462C79.0907 56.3958 78.3302 54.7694 77.5372 53.0998C79.8257 54.2025 83.2968 55.1922 90.3595 55.7832C91.2105 55.8552 91.4354 56.1555 91.6047 56.9579L91.9154 60.1146L88.224 60.9698C86.9858 61.222 86.0143 62.0652 85.5575 63.2856C85.052 64.6309 85.2236 66.2165 86.0166 67.7732ZM61.7399 67.7732C61.3666 66.2549 61.5197 65.0441 62.1874 64.2514C62.8251 63.4946 63.8059 63.264 64.4992 63.3673L68.434 64.124L68.5337 64.1409H69.0809L71.861 61.0371L71.8865 61.0082C72.3619 60.4341 73.8064 58.6996 72.3317 56.4847L68.6149 50.1401C69.2316 50.0488 69.8484 49.9936 70.4188 49.9936L70.4443 49.9912C70.4628 49.9936 72.3271 49.9648 74.3235 51.1683C74.5924 51.7689 74.9681 52.5593 75.3877 53.4385C76.1668 55.0769 77.1384 57.1165 77.4096 57.9405C77.4954 58.1999 77.7575 58.9855 76.8277 59.9824L69.7046 67.7732H61.7399ZM60.6246 62.8436C59.8757 63.7325 59.1453 65.2844 59.6183 67.7732H46.9467C48.3078 67.6338 49.2978 67.3023 49.9795 66.5672C50.8096 65.6735 50.8838 64.4507 50.856 63.5787C50.8838 63.5018 51.0206 63.2063 51.642 62.9157L52.7341 62.3992L52.078 61.3566C50.9951 59.6317 51.4681 55.8649 51.8878 53.8181H51.9852C56.2817 53.8181 59.0618 52.8932 61.9927 51.9154C62.7578 51.6608 63.5462 51.3989 64.3786 51.1467L64.4041 51.1371C64.4203 51.1323 65.2783 50.8512 66.4446 50.5701L70.5765 57.6234L70.6112 57.681C71.024 58.2888 71.075 58.6924 70.326 59.5957L68.2555 61.9115L64.8609 61.2581L64.8308 61.2533C63.2981 61.0082 61.6472 61.6328 60.6246 62.8436ZM38.1426 62.3775C37.2615 63.6916 37.1549 65.503 37.818 67.7732H35.6755V50.4524C36.443 50.3323 37.2685 50.1041 38.0383 49.7413C37.9942 50.4957 37.8945 51.0939 37.7577 51.8914C37.7253 52.0764 37.6928 52.271 37.6603 52.4776L37.454 53.7268H38.6806C40.5123 53.7268 41.8804 53.4289 42.9307 52.8668V60.0977C42.9307 60.2827 42.7916 60.4341 42.6223 60.4341H42.3116C40.4915 60.4341 38.9727 61.1428 38.1426 62.3775ZM33.6026 65.8945L23.8456 63.264L14.0885 65.8945V47.8123L23.8456 45.189L33.6026 47.8123V65.8945ZM15.3406 67.7732L23.8456 65.4789L32.3505 67.7732H15.3406ZM18.7421 41.1507C19.1502 40.5068 20.0823 39.9495 21.2486 40.1585L22.1321 40.3171L22.4103 39.4354C22.4845 39.2 22.5842 39.0246 22.7233 38.8901C22.9714 38.6474 23.3424 38.5321 23.8131 38.5465C25.0606 38.5874 26.6234 39.4883 27.8917 40.8984C28.3531 41.4101 28.7612 42.0035 29.1252 42.6065C29.1971 42.7314 29.2783 42.8683 29.3502 42.9884C29.4522 43.1566 29.538 43.2935 29.5565 43.3248C29.6029 43.4064 30.2289 44.3842 30.1849 44.4466C30.6138 43.822 31.0428 43.1974 31.4718 42.5752C31.4833 42.5584 31.4648 42.5008 31.4277 42.4191C31.3326 42.2053 31.1054 41.8353 30.9686 41.6143C30.9361 41.5615 30.9037 41.5086 30.8712 41.4557C30.8689 41.4509 30.8643 41.4461 30.8643 41.4413C30.8503 41.4197 30.7924 41.326 30.7182 41.2059C30.5744 40.9729 30.3704 40.6366 30.2799 40.454L32.9789 35.9809C33.6536 36.1274 34.2264 36.149 34.5 36.149H34.5672C38.3745 36.149 42.3116 33.874 42.3116 30.0639V29.9727C42.2653 28.9349 42.0774 27.9451 41.9267 27.1499C41.827 26.6262 41.7343 26.1314 41.7343 25.8839C41.7343 25.4683 42.3 25.0047 43.1116 25.0047H44.3428L43.7863 21.6991C45.5184 20.3778 46.5827 18.2253 46.5293 16.1689C48.3959 17.6536 49.7129 20.2241 49.954 22.9627C50.0236 23.7555 49.8729 24.8677 49.6248 26.0377L49.4903 26.5253L49.5135 26.5325C49.0729 28.44 48.4214 30.4051 48.0782 31.3348L47.7582 32.1948L48.5327 32.6488C49.9239 33.4632 50.7772 34.059 50.7772 35.9544C50.7772 38.1285 48.8874 39.7957 47.0626 40.1489L44.5677 40.6318L46.6777 42.0924C47.3548 42.5584 47.7582 43.3224 47.7582 44.1295C47.7582 45.494 46.6383 46.6063 45.261 46.6063H44.4657L44.2408 47.3631C43.4663 49.9768 42.6247 51.2548 39.9211 51.5263C40.044 50.7335 40.1321 49.9696 40.1321 48.8885C40.1321 48.6339 40.1112 47.9228 40.0996 47.6946L39.979 45.2586L38.3258 46.9979C37.7647 47.5889 36.77 48.0573 35.6755 48.2807V46.1547L23.8456 42.974L19.6372 44.1055C18.6981 43.1326 18.508 41.5254 18.7421 41.1507ZM31.5181 33.2783C31.5483 33.1317 31.6642 33.014 31.7871 33.0164L33.5679 33.0765C35.7405 32.9972 37.9525 32.0699 38.2029 29.7276C38.2029 28.1421 37.1154 26.5974 35.5805 26.5974C34.7597 26.5974 33.8368 27.1836 32.8004 27.8947C32.1256 28.3607 31.59 28.7259 31.1866 28.7259C30.913 28.7259 30.6904 28.5361 30.6904 28.3823C30.6904 28.3559 30.695 28.3295 30.7043 28.3031L31.8427 26.7247L30.8596 26.0401C30.6486 25.8983 30.324 25.6293 30.2869 25.4299C30.2684 25.3362 30.4005 25.1656 30.4423 25.1152C30.8503 24.6227 31.3187 24.0221 31.7894 23.2822C32.0816 22.8618 32.2485 22.6288 32.7354 22.6288C33.2177 22.6288 33.6096 23.03 33.6096 23.52C33.6096 23.8443 33.9551 24.1014 34.3817 24.1014C34.8083 24.1014 35.0008 23.7867 35.2651 23.52C35.2651 23.52 36.2784 22.5543 35.7428 22.0979C35.1283 21.579 32.6705 22.6408 33.3545 20.3033L33.5261 19.9694C33.7881 19.6091 34.9637 18.7082 37.3914 18.7082C37.8505 18.7082 38.3374 18.7418 38.8336 18.8043L39.1976 18.8523L44.3521 15.5587C44.3985 15.6717 44.4124 15.7509 44.4124 15.7509L44.4193 15.7846C44.6883 17.4013 43.7028 19.3256 42.1308 20.2601L41.5024 20.6325L41.9082 23.042C40.5842 23.4624 39.6614 24.5626 39.6614 25.8839C39.6614 26.3404 39.7634 26.8785 39.8932 27.5607C40.037 28.3199 40.1993 29.1775 40.241 30.0495C40.241 32.5552 36.9021 34.2152 34.078 34.1191L34.0061 34.1167C33.8878 34.1143 32.0908 33.9653 31.6503 33.605C31.5622 33.5401 31.4949 33.3912 31.5181 33.2783ZM35.7892 16.5509C36.1161 16.1209 36.6448 15.6428 37.2778 15.2104C37.7716 14.8717 38.4162 14.5714 39.0469 14.3816C40.0463 14.0837 41.194 14.0645 42.3812 14.2999L38.7246 16.6374C38.2702 16.5893 37.8226 16.5629 37.3914 16.5629C36.7723 16.5629 36.2019 16.6158 35.6779 16.7023C35.7173 16.6518 35.7521 16.5989 35.7892 16.5509ZM91.5026 16.0008H105.29C103.998 17.8866 102.159 18.7779 99.6134 18.7779H89.4367C90.2482 18.0403 90.9369 17.113 91.5026 16.0008ZM90.8117 24.0774H80.6349C81.5346 23.2606 82.2835 22.2036 82.8818 20.9207H96.729C95.4259 23.066 93.5199 24.0774 90.8117 24.0774ZM82.7125 29.2616H72.5358C73.4053 28.4664 74.1357 27.4502 74.7246 26.2202H88.5533C87.2548 28.2838 85.3697 29.2616 82.7125 29.2616ZM85.052 37.3069C88.275 37.8571 90.916 39.3609 92.8985 41.7753C93.3228 42.2918 93.7309 42.8419 94.1344 43.4353C88.7109 42.6977 86.8235 41.881 83.7907 37.11C84.1941 37.1652 84.6115 37.2301 85.052 37.3069ZM106.692 60.4317C106.892 60.7632 107.061 61.0755 107.226 61.3758C107.427 61.7457 107.627 62.1085 107.859 62.4832C106.289 62.3824 105.099 61.4815 104 59.7782C105.014 59.4107 106.24 59.6701 106.692 60.4317ZM93.7981 67.7732L95.9128 66.9444L95.9429 66.9323C98.9456 65.6447 99.3723 64.8399 99.2332 62.7715V54.4091C101.517 60.4197 103.676 64.6453 108.104 64.6429C108.707 64.6429 109.352 64.5661 110.043 64.4051L111.77 63.9991L110.581 62.6418C109.823 61.7746 109.454 61.1019 109.03 60.3236C108.856 60.0041 108.675 59.6725 108.457 59.3074C107.42 57.5657 104.956 56.9747 102.959 57.902C102.053 56.0378 101.141 53.6091 100.045 50.611L99.8059 50.0392C99.6157 49.5924 99.4256 49.1408 99.2332 48.6891V48.6147H99.2007C98.5213 47.0315 97.7956 45.4436 96.9284 43.9542C96.14 42.6017 95.3378 41.4341 94.4775 40.3867C92.1681 37.576 89.1098 35.8295 85.3906 35.1929C82.8191 34.7533 80.9967 34.6596 78.6919 34.5419C78.2142 34.5203 77.7134 34.4914 77.1824 34.4626C76.139 34.4025 73.9826 34.2224 71.8958 34.0422C70.4907 33.9245 69.0484 33.802 67.9146 33.7155C67.9911 33.384 68.0352 33.0428 68.0352 32.6873C68.0352 32.2092 67.9934 31.784 67.9123 31.4044H82.7125C86.5267 31.4044 89.2883 29.6556 90.9299 26.2178C94.7233 26.1818 97.4663 24.3993 99.0871 20.9207H99.6134C103.562 20.9207 106.386 19.0541 108.005 15.3714L108.673 13.8555H58.5286C55.2337 13.8555 52.4281 16.0849 51.38 19.5274L51.3476 19.6475C50.4943 17.1851 48.9338 15.0951 46.9328 13.8627C44.1527 12.1475 40.99 11.5733 38.4696 12.3228C37.6371 12.5727 36.8071 12.9618 36.1346 13.4231C35.555 13.8171 34.7457 14.4537 34.1545 15.2344C33.5145 16.0849 32.8954 17.1154 32.441 18.0788C32.1511 18.3262 31.9285 18.5761 31.7732 18.8211L31.1726 19.9886L31.1402 20.0535C30.4237 21.7351 29.5496 22.9002 28.8679 23.7218C28.1931 24.5386 28.1583 25.3146 28.2488 25.8215C28.3485 26.374 28.636 26.828 28.9421 27.1692L28.9235 27.2004C28.7241 27.5583 28.6198 27.9667 28.6198 28.3823C28.6198 29.7516 29.7698 30.7895 31.1866 30.7895C32.2161 30.7895 33.0577 30.2922 33.9481 29.682C34.3098 29.4321 35.2675 28.7739 35.5805 28.7379C35.977 28.7379 36.3387 29.1126 36.3387 29.5234C36.3387 30.6453 34.9405 31.2507 33.9388 31.3252L31.903 31.551C30.4376 31.6951 29.742 32.4999 29.742 33.2182C29.742 33.9413 30.0759 34.3473 30.3101 34.5899L30.4608 34.7485L30.9779 35.2265L28.8169 38.83C27.2772 37.3526 25.4756 36.4565 23.878 36.4061C22.8462 36.37 21.9535 36.692 21.2973 37.3358C21.1072 37.5232 20.9403 37.737 20.7965 37.97H20.7594C19.0528 37.97 17.6802 38.9165 17.0078 39.9807C16.2774 41.1434 16.5394 43.1542 17.4669 44.6893L12.0156 46.1547V73.1544H112V67.7732H93.7981Z"
          fill="var(--current-color-1)"/>
    <path d="M16.251 52.8027L22.7711 51.0489V48.8338L16.251 50.5876V52.8027Z" fill="var(--current-color-1)"/>
    <path d="M31.4418 50.5886L24.9216 48.8348V51.0475L31.4418 52.8037V50.5886Z" fill="var(--current-color-1)"/>
    <path d="M31.4418 55.0373L24.9216 53.2859V55.5009L31.4418 57.2523V55.0373Z" fill="var(--current-color-1)"/>
    <path d="M16.251 57.2526L22.7711 55.5012V53.2837L16.251 55.0375V57.2526Z" fill="var(--current-color-1)"/>
    <path d="M31.4418 59.4908L24.9216 57.7345V59.9496L31.4418 61.7034V59.4908Z" fill="var(--current-color-1)"/>
    <path d="M16.251 61.7039L22.7711 59.9501V57.735L16.251 59.4912V61.7039Z" fill="var(--current-color-1)"/>
</svg>
