<svg id="logo" viewBox="0 0 128 128" fill="none" xmlns="http://www.w3.org/2000/svg">
    <path d="M21 76.7551H23.1368V65.7661H21V65.3736H25.4583V68.2517H25.511C25.9067 67.1528 26.4607 66.3417 27.173 65.8446C27.9117 65.3213 28.7822 65.0858 29.811 65.0858C30.7344 65.0858 31.5521 65.2951 32.2644 65.6876C32.9767 66.0801 33.4252 66.7603 33.6626 67.6761H33.7153C33.8472 67.3359 34.0319 67.022 34.2429 66.708C34.454 66.394 34.7442 66.1062 35.0607 65.8707C35.4037 65.6353 35.773 65.4259 36.2479 65.269C36.6963 65.112 37.1975 65.0596 37.7779 65.0596C40.4687 65.0596 41.8141 66.4202 41.8141 69.1413V76.7289H43.9509V77.1214H37.3294V76.7289H39.4663V67.4406C39.4663 66.8127 39.308 66.3417 38.965 66.0016C38.6221 65.6614 38.1736 65.4783 37.5669 65.4783C37.1184 65.4783 36.6436 65.5568 36.1951 65.7399C35.7202 65.9231 35.3245 66.1847 34.9552 66.5248C34.5859 66.865 34.2957 67.3098 34.0583 67.8592C33.8209 68.4087 33.7153 69.0366 33.7153 69.7692V76.7551H35.8521V77.1476H29.1515V76.7551H31.2883V67.8331C31.2883 67.022 31.1301 66.4464 30.7871 66.0539C30.4442 65.6614 30.0221 65.4783 29.4681 65.4783C29.0724 65.4783 28.6503 65.5829 28.2018 65.7661C27.7534 65.9492 27.3049 66.2632 26.9092 66.6818C26.5135 67.1005 26.1706 67.6237 25.9067 68.2779C25.6429 68.932 25.511 69.7431 25.511 70.685V76.7551H27.6479V77.1476H21V76.7551Z"
          fill="var(--current-color-1)"/>
    <path d="M45.7712 76.7551H47.908V65.7661H45.7712V65.3736H50.2822V76.7289H52.419V77.1214H45.7975V76.7551H45.7712ZM51.2583 59.0157C51.2583 58.6232 51.3902 58.2831 51.6804 57.9953C51.9706 57.7075 52.3135 57.5767 52.7092 57.5767C53.1049 57.5767 53.4479 57.7075 53.738 57.9953C54.0282 58.2831 54.1601 58.6232 54.1601 59.0157C54.1601 59.4082 54.0282 59.7483 53.738 60.0361C53.4479 60.3239 53.1049 60.4547 52.7092 60.4547C52.3135 60.4547 51.9706 60.3239 51.6804 60.0361C51.3902 59.7483 51.2583 59.4082 51.2583 59.0157Z"
          fill="var(--current-color-1)"/>
    <path d="M55.5583 76.7551V65.7661H53.4215V65.3736H57.8534V68.147H57.9061C57.9853 67.8854 58.0908 67.5714 58.2755 67.2051C58.4337 66.865 58.6712 66.5248 58.9613 66.2109C59.2515 65.8969 59.6209 65.6353 60.0166 65.3998C60.4387 65.1905 60.9399 65.0596 61.5202 65.0596C61.9423 65.0596 62.3117 65.1381 62.6282 65.269C62.9448 65.3998 63.2086 65.5829 63.3933 65.7922C63.6043 66.0016 63.7362 66.237 63.8417 66.5248C63.9472 66.8127 63.9736 67.0743 63.9736 67.3359C63.9736 67.9377 63.8417 68.3302 63.5515 68.5395C63.2614 68.7488 62.9448 68.8535 62.5755 68.8535C61.7577 68.8535 61.362 68.5918 61.362 68.0947C61.362 67.9377 61.3883 67.8069 61.4147 67.7022C61.4411 67.5976 61.4939 67.4929 61.5466 67.3883C61.5994 67.2836 61.6258 67.179 61.6785 67.0481C61.7049 66.9173 61.7313 66.7342 61.7313 66.4987C61.7313 65.9231 61.4147 65.6353 60.7552 65.6353C60.465 65.6353 60.1485 65.7399 59.8055 65.9754C59.4626 66.1847 59.1724 66.5248 58.8822 66.9435C58.592 67.3621 58.3546 67.8592 58.1699 68.461C57.9853 69.0628 57.8798 69.7431 57.8798 70.5018V76.7812H60.2804V77.1737H53.3687V76.7551H55.5583Z"
          fill="var(--current-color-1)"/>
    <path d="M65.1344 71.2867C65.1344 70.3972 65.3454 69.5599 65.7411 68.8011C66.1368 68.0424 66.638 67.3621 67.2712 66.8127C67.8779 66.2632 68.5638 65.8184 69.3552 65.5044C70.1202 65.1905 70.8589 65.0335 71.5975 65.0335C72.3362 65.0335 73.0748 65.1905 73.8399 65.5044C74.6049 65.8184 75.2908 66.237 75.8975 66.8127C76.5043 67.3621 77.0319 68.0424 77.4276 68.8011C77.8233 69.5599 78.008 70.3972 78.008 71.2867C78.008 72.1502 77.8233 72.9613 77.454 73.72C77.0847 74.4788 76.6098 75.1329 76.0031 75.7085C75.3963 76.2841 74.7104 76.7289 73.9454 77.0429C73.1804 77.3569 72.389 77.54 71.5712 77.54C70.7534 77.54 69.962 77.383 69.1969 77.0429C68.4319 76.7028 67.746 76.258 67.1393 75.7085C66.5325 75.1329 66.0577 74.4788 65.6883 73.72C65.319 72.9613 65.1344 72.1502 65.1344 71.2867ZM67.9043 71.2867C67.9043 72.595 68.0098 73.6154 68.2209 74.3741C68.4319 75.1329 68.6957 75.7347 69.0123 76.1533C69.3552 76.5719 69.7245 76.8336 70.173 76.9644C70.6215 77.0952 71.0963 77.1476 71.5712 77.1476C72.0724 77.1476 72.5472 77.0952 72.9693 76.9644C73.4178 76.8336 73.7871 76.5719 74.1301 76.1533C74.473 75.7347 74.7368 75.1591 74.9215 74.3741C75.1325 73.6154 75.238 72.5688 75.238 71.2867C75.238 70.1878 75.1589 69.2721 75.027 68.5395C74.8687 67.8069 74.6577 67.2051 74.3411 66.7342C74.0245 66.2632 73.6552 65.9492 73.2067 65.7399C72.7583 65.5306 72.2043 65.4259 71.5712 65.4259C70.938 65.4259 70.4104 65.5306 69.9356 65.7399C69.4871 65.9492 69.0914 66.2632 68.8012 66.7342C68.4847 67.2051 68.2736 67.8069 68.1153 68.5395C67.9834 69.2721 67.9043 70.1878 67.9043 71.2867Z"
          fill="var(--current-color-1)"/>
    <path d="M78.4828 65.3998H85.1571V65.7922H82.8883L86.4497 74.4003L90.143 65.7922H87.8742V65.3998H92.0687V65.7922H90.565L85.3417 78.0633L80.3558 65.7661H78.4828V65.3998Z"
          fill="var(--current-color-1)"/>
    <path d="M105.206 76.8336C104.969 77.0167 104.679 77.1737 104.362 77.3045C104.019 77.4354 103.623 77.5139 103.148 77.5139C102.278 77.5139 101.618 77.3307 101.223 76.9644C100.827 76.5981 100.563 76.0748 100.405 75.3945H100.352C100.273 75.5515 100.167 75.7608 100.036 76.0225C99.9037 76.258 99.719 76.5196 99.4552 76.7289C99.1914 76.9644 98.8221 77.1476 98.4 77.3045C97.9515 77.4615 97.3976 77.54 96.7117 77.54C95.9466 77.54 95.3135 77.4615 94.865 77.2784C94.4166 77.0952 94.0472 76.8859 93.7834 76.6243C93.5196 76.3626 93.3614 76.0748 93.2822 75.7608C93.2031 75.4469 93.1503 75.1329 93.1503 74.8713C93.1503 74.2433 93.2822 73.72 93.546 73.3276C93.8098 72.9351 94.1264 72.6473 94.5485 72.4118C94.9706 72.1763 95.419 71.9932 95.9202 71.8624C96.4215 71.7054 96.9491 71.5484 97.4503 71.3914C98.0571 71.1821 98.5583 71.0251 98.954 70.8681C99.3497 70.7111 99.6663 70.5542 99.8773 70.3448C100.088 70.1355 100.247 69.8739 100.326 69.5599C100.405 69.2459 100.458 68.8011 100.458 68.2517C100.458 67.8069 100.431 67.4144 100.379 67.0743C100.326 66.7342 100.22 66.4202 100.062 66.1847C99.9037 65.9492 99.6926 65.7399 99.4288 65.6353C99.1386 65.5044 98.7957 65.4521 98.3209 65.4521C97.7141 65.4521 97.2129 65.5568 96.8172 65.7661C96.4215 65.9754 96.2368 66.3155 96.2368 66.7865C96.2368 67.1005 96.2632 67.4144 96.316 67.7022C96.3687 67.99 96.3951 68.2255 96.3951 68.3825C96.3951 68.6442 96.3159 68.8535 96.1313 69.0366C95.9466 69.2198 95.6828 69.2983 95.3399 69.2983C94.7331 69.2983 94.3638 69.1936 94.2055 68.9581C94.0472 68.7488 93.9945 68.461 93.9945 68.0947C93.9945 67.7022 94.0736 67.3098 94.2583 66.9435C94.4429 66.5772 94.7067 66.2632 95.0761 65.9754C95.4454 65.6876 95.8939 65.4783 96.4215 65.2951C96.9755 65.1381 97.5822 65.0596 98.2945 65.0596C99.1387 65.0596 99.8509 65.1643 100.431 65.3736C101.012 65.5829 101.46 65.8707 101.803 66.2109C102.146 66.5772 102.41 66.9696 102.542 67.4144C102.7 67.8592 102.753 68.3302 102.753 68.8273V75.6562C102.753 76.1795 102.832 76.5458 102.99 76.7289C103.148 76.9121 103.386 76.9906 103.702 76.9906C103.913 76.9906 104.125 76.9644 104.336 76.8859C104.547 76.8074 104.758 76.7028 104.969 76.5458L105.206 76.8336ZM100.352 70.4233H100.299C100.273 70.6588 99.9564 70.8943 99.3761 71.1298L97.292 71.9409C96.7117 72.1763 96.2632 72.5165 95.9466 72.9351C95.6301 73.3537 95.4718 73.9032 95.4718 74.5311C95.4718 74.7928 95.4982 75.0806 95.5509 75.3684C95.6037 75.6562 95.7092 75.9178 95.8675 76.1533C96.0258 76.3888 96.2104 76.5719 96.4742 76.7028C96.738 76.8597 97.081 76.9121 97.5031 76.9121C98.1098 76.9121 98.611 76.7812 98.9804 76.5196C99.3497 76.258 99.6399 75.944 99.8245 75.5515C100.009 75.1591 100.141 74.7666 100.22 74.2956C100.273 73.8508 100.326 73.4322 100.326 73.0659V70.4233H100.352Z"
          fill="var(--current-color-1)"/>
    <path d="M107 47.1109L106.129 45.6719L93.9417 49.7012L99.5607 39.9942L97.8724 39L92.5699 48.1837L91.2509 41.9042L89.8 42.1136L91.1718 49.0733L83.5742 46.3522L82.9147 48.1837L90.3012 50.9048L83.2841 53.2334L83.627 54.5154L90.0638 52.4746L85.4209 60.4547L86.9773 61.7106L91.9632 53.1287L93.5196 61.1612L95.1552 60.7949L93.3614 52.0298L104.494 56.1638L105.18 54.123L95.6564 50.6954L107 47.1109Z"
          fill="var(--current-color-1)"/>
    <path d="M69.3816 53.7305L66.7699 52.2653L68.5374 51.6374L68.4055 51.1926L66.6908 51.7943L67.6933 49.4657L67.2712 49.2041L66.1104 51.742L64.9761 49.0471L64.6068 49.1779L65.5564 51.585L63.4724 50.4076L63.1822 50.8786L65.5564 52.1868L63.0503 53.0764L63.235 53.5212L65.7147 52.6316L64.6595 54.9864L65.1607 55.248L66.1368 53.0241L67.2975 55.876L67.746 55.6405L66.5325 52.7624L69.1178 54.2015L69.3816 53.7305Z"
          fill="var(--current-color-1)"/>
    <path d="M76.3196 52.7886C76.1614 52.7886 76.0294 52.7886 75.8712 52.8148C75.7393 52.8409 75.6337 52.9194 75.5018 52.9194C75.2117 52.9717 74.9742 53.0502 74.7104 53.2334C74.6049 53.3119 74.473 53.3904 74.3675 53.4427C74.3411 53.4689 74.262 53.495 74.2356 53.5212C74.1828 53.5474 74.1564 53.5997 74.1037 53.6258C74.0509 53.6782 74.0245 53.7043 73.9718 53.7567C73.919 53.8352 73.8399 53.8875 73.8135 53.966C73.7871 54.0183 73.7871 54.0706 73.7607 54.0968C73.7344 54.123 73.708 54.123 73.6816 54.1491C73.6288 54.2015 73.6025 54.28 73.5497 54.3323C73.4969 54.4108 73.4178 54.4369 73.3386 54.4893C73.2595 54.5154 73.2331 54.5939 73.1804 54.6201C73.0748 54.6986 72.9693 54.7771 72.9166 54.9079C72.8902 54.9864 72.8638 55.091 72.811 55.1434C72.7847 55.1957 72.7319 55.2219 72.7055 55.2742C72.6 55.5097 72.5472 55.8236 72.5209 56.0853C72.5209 56.1899 72.4681 56.2946 72.4681 56.3731C72.4417 56.4778 72.4417 56.6086 72.4417 56.7394C72.4417 56.9225 72.389 57.158 72.4681 57.3412C72.5472 57.3412 72.5472 57.3412 72.5736 57.3935C72.6 57.4458 72.6 57.472 72.6264 57.5505C72.6264 57.6028 72.6264 57.6551 72.6264 57.7075C72.6264 57.7598 72.6791 57.786 72.7055 57.8383C72.7847 57.943 72.811 58.0476 72.811 58.1784C72.811 58.2569 72.8638 58.4139 72.811 58.4662C72.8374 58.4924 72.811 58.5186 72.8374 58.5709C72.8374 58.6232 72.8638 58.6232 72.8638 58.6494C72.8902 58.7017 72.8638 58.7802 72.8902 58.8325C72.9166 58.911 72.9429 58.9634 72.9693 59.0157C72.9957 59.068 73.0221 59.1203 73.0485 59.1727C73.0748 59.225 73.1276 59.2773 73.1804 59.3035C73.2067 59.3297 73.2067 59.382 73.2331 59.382C73.2595 59.4082 73.2859 59.4082 73.2859 59.4343C73.3387 59.4867 73.365 59.539 73.3914 59.5913C73.4442 59.6436 73.4969 59.696 73.5497 59.7745C73.6025 59.8529 73.6025 59.9053 73.6552 59.9838C73.708 60.0361 73.7607 60.0361 73.8135 60.0884C73.8663 60.1408 73.8926 60.1931 73.9454 60.2454C73.9982 60.2977 74.1037 60.3239 74.1828 60.3762C74.2356 60.4024 74.2883 60.4547 74.3411 60.4809C74.3939 60.5071 74.4466 60.5856 74.4994 60.6117C74.5521 60.6379 74.6313 60.6379 74.6841 60.6902C74.7104 60.7164 74.7368 60.7164 74.7632 60.7425C74.8159 60.7687 74.7896 60.7425 74.8423 60.7687C74.9479 60.7687 74.9742 60.821 75.0534 60.8472C75.1325 60.8995 75.1853 60.8995 75.2644 60.8995C75.3436 60.9257 75.4491 60.978 75.5282 61.0042C75.6865 61.0565 75.7656 61.0827 75.9239 61.1088C76.0558 61.1088 76.2141 61.135 76.346 61.1088C76.4779 61.0827 76.6098 61.0303 76.7417 61.0042C76.8209 60.978 76.9791 61.0042 77.0583 60.978C77.0319 61.0303 77.0319 61.0565 77.0583 61.1088C77.0847 61.1873 77.0847 61.2397 77.1902 61.2397C77.2957 61.2397 77.3485 61.2397 77.4276 61.2135C77.5067 61.1873 77.5859 61.1873 77.665 61.1873C77.8233 61.1612 77.9288 61.0565 78.0871 61.0042C78.219 60.9519 78.3509 60.9518 78.4828 60.8995C78.5356 60.8734 78.6147 60.8472 78.6675 60.821C78.7466 60.7949 78.7994 60.7425 78.8785 60.7164C79.0104 60.664 79.0896 60.5855 79.2215 60.5071C79.327 60.4547 79.4325 60.3762 79.5644 60.3239C79.6172 60.2977 79.6699 60.2977 79.7227 60.2454C79.7755 60.2192 79.8018 60.1408 79.8546 60.0884C79.9337 59.9838 79.9601 59.8791 80.0393 59.8006C80.092 59.7483 80.1448 59.6698 80.1975 59.6175C80.2503 59.5651 80.3031 59.539 80.3294 59.4866C80.3822 59.4082 80.3822 59.3035 80.3822 59.225C80.4086 59.1203 80.435 59.0942 80.5141 59.0157C80.5669 58.9634 80.5669 58.8849 80.5933 58.8064C80.6196 58.7279 80.6724 58.6494 80.7252 58.5709C80.7515 58.5186 80.7779 58.3616 80.8571 58.3877C80.8571 58.1784 80.9362 57.9953 80.9626 57.8121C80.989 57.5767 81.0153 57.3412 81.0417 57.0795C81.0417 56.9225 81.0681 56.7394 81.0681 56.5824C81.0681 56.5039 81.0681 56.4254 81.0681 56.3469C81.0417 56.2946 81.0417 56.2423 81.0417 56.1638C81.0417 56.0068 80.989 55.8498 80.9626 55.6928C80.9362 55.5097 80.8307 55.405 80.7515 55.248C80.7252 55.1957 80.6988 55.1172 80.6724 55.0387C80.646 54.9864 80.646 54.8556 80.5933 54.8294C80.5669 54.8032 80.5405 54.8294 80.5141 54.8032C80.4877 54.7771 80.4877 54.7509 80.4877 54.7247C80.4614 54.6463 80.3822 54.5939 80.3294 54.5416C80.2239 54.4369 80.1712 54.28 80.0656 54.2015C80.0129 54.1491 80.0129 54.123 79.9601 54.0706C79.9337 54.0445 79.9074 54.0445 79.9074 54.0183C79.881 53.966 79.8546 53.9137 79.8018 53.8613C79.6963 53.7567 79.6172 53.6258 79.4853 53.6258C79.3534 53.5997 79.2215 53.5212 79.116 53.495C79.0632 53.4689 79.0104 53.4427 78.9577 53.4165C78.9049 53.3642 78.8258 53.3642 78.773 53.338C78.6675 53.2857 78.562 53.2072 78.4564 53.1549C78.3509 53.1026 78.2454 53.0241 78.1135 52.9979C78.0344 52.9717 77.9816 52.9979 77.9025 52.9717C77.8761 52.9717 77.8233 52.9456 77.7969 52.9194C77.7705 52.9194 77.7178 52.9194 77.6914 52.9194C77.665 52.9194 77.665 52.8932 77.6387 52.8671C77.5859 52.8409 77.5331 52.8671 77.4804 52.8671C77.4012 52.8671 77.2957 52.8671 77.2166 52.8671C77.0319 52.8671 76.8209 52.8409 76.6362 52.8409C76.5043 52.8409 76.346 52.7886 76.2405 52.8671"
          fill="var(--current-color-1)"/>
    <path d="M21.7387 81.674H21.0528V81.5693H23.216V81.7002H22.5301V86.776H23.216V86.9069H21.0528V86.776H21.7387V81.674Z"
          fill="var(--current-color-1)"/>
    <path d="M24.0865 83.898H23.4798V83.7671H24.0865C24.4558 83.7671 24.5877 83.7671 24.7196 83.6102V84.3689H24.746C24.9571 84.0026 25.3264 83.6102 25.8804 83.6102C26.6982 83.6102 26.9356 84.0288 26.9356 84.4736V86.7499H27.5423V86.8807H25.6957V86.7499H26.2761V84.2904C26.2761 83.8718 26.065 83.741 25.8276 83.741C25.1945 83.741 24.8515 84.3689 24.7196 84.6306V86.7499H25.3V86.8807H23.4798V86.7499H24.0865V83.898Z"
          fill="var(--current-color-1)"/>
    <path d="M28.0963 83.898H27.6479V83.7671H29.389V83.898H28.835L29.7847 86.2004L30.5233 84.5259C30.6025 84.3428 30.6552 84.1858 30.6552 84.1073C30.6552 83.9241 30.4442 83.898 30.3123 83.898H30.0485V83.7671H31.3675V83.898C31.0246 83.898 30.919 83.9241 30.7607 84.2904L29.5473 87.0638H29.4945L28.0963 83.898Z"
          fill="var(--current-color-1)"/>
    <path d="M32.4491 85.7033C32.4491 86.2266 32.5282 86.8545 33.2405 86.8545C33.8736 86.8545 34.3485 86.4359 34.454 85.808H34.5859C34.454 86.5144 33.9528 86.9592 33.2405 86.9592C32.3436 86.9592 31.7368 86.2789 31.7368 85.2847C31.7368 84.5521 32.3436 83.6102 33.1614 83.6102C34.0583 83.6102 34.5331 84.6044 34.5331 84.9184C34.5331 84.9707 34.5068 84.9969 34.454 84.9969H32.4755V85.7033H32.4491ZM33.7681 84.6567C33.7681 84.1858 33.6362 83.7148 33.135 83.7148C32.6074 83.7148 32.4491 84.1596 32.4491 84.6567V84.866H33.7153C33.7417 84.866 33.7681 84.8399 33.7681 84.8137V84.6567Z"
          fill="var(--current-color-1)"/>
    <path d="M35.1927 85.7818H35.2982C35.3509 86.1743 35.562 86.8545 36.3534 86.8545C36.7755 86.8545 37.092 86.5929 37.092 86.1481C37.092 85.5463 36.6436 85.5463 36.2215 85.494C35.7203 85.4417 35.2454 85.3632 35.2454 84.5782C35.2454 84.0288 35.6147 83.6102 36.1951 83.6102C36.6172 83.6102 36.881 83.8718 36.9601 83.8718C37.0129 83.8718 37.0129 83.8195 37.0129 83.7148V83.6625H37.1184L37.1448 84.5521H37.0393C36.9865 84.1334 36.7491 83.741 36.1687 83.741C35.773 83.741 35.4565 83.9503 35.4565 84.3428C35.4565 84.7352 35.7466 84.866 36.2479 84.8922L36.5117 84.9184C37.1184 84.9445 37.3822 85.2847 37.3822 85.808C37.3822 86.5144 36.9074 86.9592 36.327 86.9592C35.7203 86.9592 35.5356 86.6452 35.3773 86.6452C35.2718 86.6452 35.2982 86.776 35.2982 86.933H35.1927V85.7818Z"
          fill="var(--current-color-1)"/>
    <path d="M38.5166 83.898H37.8571V83.7671C38.6485 83.7933 38.9387 83.4532 39.0706 82.7206H39.1497V83.7671H40.2049V83.898H39.1497V86.4359C39.1497 86.7499 39.2816 86.8545 39.519 86.8545C39.8884 86.8545 40.073 86.5144 40.1258 86.3836L40.2313 86.4097C40.1785 86.5929 39.9675 86.9854 39.3871 86.9854C38.8595 86.9854 38.5166 86.8022 38.5166 86.3051V83.898Z"
          fill="var(--current-color-1)"/>
    <path d="M41.0491 83.898H40.4423V83.7671H41.0491C41.2865 83.7671 41.5239 83.741 41.6822 83.6102V86.7499H42.289V86.8807H40.4423V86.7499H41.0491V83.898ZM41.3657 81.8833C41.5767 81.8833 41.7614 82.0665 41.7614 82.2758C41.7614 82.4851 41.5767 82.6682 41.3657 82.6682C41.1546 82.6682 40.9699 82.4851 40.9699 82.2758C40.9963 82.0403 41.1546 81.8833 41.3657 81.8833Z"
          fill="var(--current-color-1)"/>
    <path d="M42.5264 83.898V83.7671H43.1331C43.5025 83.7671 43.6344 83.7671 43.7663 83.6102V84.3689H43.7927C44.0037 84.0026 44.373 83.6102 44.927 83.6102C45.7448 83.6102 45.9822 84.0288 45.9822 84.4736V86.7499H46.589V86.8807H44.7423V86.7499H45.3491V84.2904C45.3491 83.8718 45.1381 83.741 44.9006 83.741C44.2675 83.741 43.9246 84.3689 43.7927 84.6306V86.7499H44.373V86.8807H42.5528V86.7499H43.1595V83.898H42.5264Z"
          fill="var(--current-color-1)"/>
    <path d="M49.2798 86.5406C49.7019 86.5406 50.1239 86.7237 50.1239 87.404C50.1239 88.4244 49.2798 89 48.3565 89C47.6442 89 46.8792 88.7384 46.8792 88.0319C46.8792 87.6133 47.3012 87.2993 47.6442 87.1423V87.1162C47.2221 87.1162 47.0374 86.8284 47.0374 86.4097C47.0374 85.8864 47.3012 85.6771 47.7761 85.651V85.6248C47.4331 85.4155 47.1957 85.18 47.1957 84.7614C47.1957 84.0811 47.7761 83.584 48.462 83.584C48.8313 83.584 49.1479 83.6886 49.3589 83.898C49.4908 83.741 49.6755 83.584 49.9393 83.584C50.1503 83.584 50.335 83.7148 50.335 83.9241C50.335 84.1073 50.2031 84.1858 50.0184 84.1858C49.8865 84.1858 49.781 84.055 49.781 83.9503C49.781 83.7933 49.8074 83.741 49.8601 83.6886C49.7019 83.6886 49.5172 83.8195 49.4381 83.9765C49.5963 84.1596 49.7282 84.4474 49.7282 84.7352C49.7282 85.3632 49.0687 85.8341 48.462 85.8341C48.1454 85.8341 47.9871 85.7295 47.8816 85.7033C47.4595 85.7033 47.143 85.8341 47.143 86.1743C47.143 86.3574 47.3012 86.4882 47.4859 86.4882H49.2798V86.5406ZM47.9607 87.1162C47.5123 87.2208 47.2749 87.4825 47.2749 87.9796C47.2749 88.6075 47.8288 88.8692 48.4092 88.8692C49.1742 88.8692 49.9393 88.3721 49.9393 87.6133C49.9393 87.2208 49.6227 87.1162 49.227 87.1162H47.9607ZM48.4884 85.7556C49.1215 85.7556 49.1215 85.2847 49.1215 84.7352C49.1215 84.1334 49.1215 83.7148 48.4884 83.7148C47.8552 83.7148 47.8552 84.3166 47.8552 84.7352C47.8552 85.2323 47.8552 85.7556 48.4884 85.7556Z"
          fill="var(--current-color-1)"/>
    <path d="M53.3423 83.898H52.7356V83.7671H53.3423C53.5798 83.7671 53.8172 83.741 53.9755 83.6102V86.7499H54.5822V86.8807H52.7356V86.7499H53.3423V83.898ZM53.6589 81.8833C53.87 81.8833 54.0546 82.0665 54.0546 82.2758C54.0546 82.4851 53.87 82.6682 53.6589 82.6682C53.4479 82.6682 53.2632 82.4851 53.2632 82.2758C53.2632 82.0403 53.4479 81.8833 53.6589 81.8833Z"
          fill="var(--current-color-1)"/>
    <path d="M54.7933 83.898V83.7671H55.4C55.7693 83.7671 55.9012 83.7671 56.0331 83.6102V84.3689H56.0595C56.2706 84.0026 56.6399 83.6102 57.1939 83.6102C58.0117 83.6102 58.2491 84.0288 58.2491 84.4736V86.7499H58.8558V86.8807H57.0092V86.7499H57.616V84.2904C57.616 83.8718 57.4049 83.741 57.1675 83.741C56.5344 83.741 56.1914 84.3689 56.0595 84.6306V86.7499H56.6399V86.8807H54.8196V86.7499H55.4264V83.898H54.7933Z"
          fill="var(--current-color-1)"/>
    <path d="M61.4411 85.7818H61.5466C61.5994 86.1743 61.8104 86.8545 62.6019 86.8545C63.0239 86.8545 63.3405 86.5929 63.3405 86.1481C63.3405 85.5463 62.892 85.5463 62.47 85.494C61.9687 85.4417 61.4939 85.3632 61.4939 84.5782C61.4939 84.0288 61.8632 83.6102 62.4436 83.6102C62.8657 83.6102 63.1295 83.8718 63.2086 83.8718C63.2614 83.8718 63.2614 83.8195 63.2614 83.7148V83.6625H63.3669L63.3933 84.5521H63.2877C63.235 84.1334 62.9976 83.741 62.4172 83.741C62.0215 83.741 61.7049 83.9503 61.7049 84.3428C61.7049 84.7352 61.9951 84.866 62.4963 84.8922L62.7601 84.9184C63.3669 84.9445 63.6307 85.2847 63.6307 85.808C63.6307 86.5144 63.1558 86.9592 62.5755 86.9592C61.9687 86.9592 61.7841 86.6452 61.6258 86.6452C61.5203 86.6452 61.5466 86.776 61.5466 86.933H61.4411V85.7818Z"
          fill="var(--current-color-1)"/>
    <path d="M64.765 83.898H64.1583V83.7671H64.765C65.0025 83.7671 65.2399 83.741 65.3982 83.6102V86.3051C65.3982 86.619 65.5828 86.8284 65.873 86.8284C66.4006 86.8284 66.8755 86.2266 66.8755 85.6771V83.898H66.2687V83.7671H66.8755C67.1129 83.7671 67.3503 83.741 67.5086 83.6102V86.7499H68.1154V86.8807H66.8755V86.2004H66.8491C66.77 86.3836 66.4534 86.9854 65.7939 86.9854C65.0289 86.9854 64.765 86.5929 64.765 86.1481V83.898Z"
          fill="var(--current-color-1)"/>
    <path d="M68.643 85.7818H68.7485C68.8012 86.1743 69.0123 86.8545 69.8037 86.8545C70.2258 86.8545 70.5423 86.5929 70.5423 86.1481C70.5423 85.5463 70.0939 85.5463 69.6718 85.494C69.1706 85.4417 68.6957 85.3632 68.6957 84.5782C68.6957 84.0288 69.065 83.6102 69.6454 83.6102C70.0675 83.6102 70.3313 83.8718 70.4104 83.8718C70.4632 83.8718 70.4632 83.8195 70.4632 83.7148V83.6625H70.5687L70.5951 84.5521H70.4896C70.4368 84.1334 70.1994 83.741 69.619 83.741C69.2233 83.741 68.9068 83.9503 68.9068 84.3428C68.9068 84.7352 69.1969 84.866 69.6982 84.8922L69.962 84.9184C70.5687 84.9445 70.8325 85.2847 70.8325 85.808C70.8325 86.5144 70.3577 86.9592 69.7773 86.9592C69.1706 86.9592 68.9859 86.6452 68.8276 86.6452C68.7221 86.6452 68.7485 86.776 68.7485 86.933H68.643V85.7818Z"
          fill="var(--current-color-1)"/>
    <path d="M71.9669 83.898H71.3074V83.7671C72.0988 83.7933 72.389 83.4532 72.5209 82.7206H72.6V83.7671H73.6552V83.898H72.6V86.4359C72.6 86.7499 72.7319 86.8545 72.9693 86.8545C73.3387 86.8545 73.5233 86.5144 73.5761 86.3836L73.6816 86.4097C73.6289 86.5929 73.4178 86.9854 72.8374 86.9854C72.3098 86.9854 71.9669 86.8022 71.9669 86.3051V83.898Z"
          fill="var(--current-color-1)"/>
    <path d="M76.7945 86.4621C76.7945 86.5929 76.8209 86.8022 77.0319 86.8022C77.2166 86.8022 77.3221 86.6714 77.4276 86.4882L77.5068 86.5406C77.3749 86.8022 77.1638 86.9592 76.8473 86.9592C76.4779 86.9592 76.2405 86.7499 76.1877 86.4882H76.135C75.8712 86.8284 75.5282 86.9592 75.027 86.9592C74.4203 86.9592 74.0773 86.6714 74.0773 86.1481C74.0773 85.3108 75.2117 85.1015 76.0031 85.1015H76.135V84.1858C76.135 83.8195 75.792 83.741 75.5019 83.741C75.2908 83.741 74.7632 83.8195 74.7632 84.1073C74.7632 84.2904 75.027 84.2119 75.027 84.5521C75.027 84.7352 74.8687 84.866 74.6841 84.866C74.473 84.866 74.3411 84.7091 74.3411 84.4474C74.3411 84.0549 74.7632 83.6363 75.5019 83.6363C76.0822 83.6363 76.7681 83.9241 76.7681 84.4997V86.4621H76.7945ZM76.0031 85.2323C75.4491 85.2323 74.7632 85.2585 74.7632 86.0434C74.7632 86.4621 74.8423 86.776 75.3172 86.776C75.8976 86.776 76.135 86.3574 76.135 86.2004V85.2323H76.0031Z"
          fill="var(--current-color-1)"/>
    <path d="M78.2982 83.898H77.6914V83.7671H78.2982C78.5356 83.7671 78.773 83.741 78.9313 83.6102V86.7499H79.538V86.8807H77.6914V86.7499H78.2982V83.898ZM78.6147 81.8833C78.8258 81.8833 79.0104 82.0665 79.0104 82.2758C79.0104 82.4851 78.8258 82.6682 78.6147 82.6682C78.4037 82.6682 78.219 82.4851 78.219 82.2758C78.2454 82.0403 78.4037 81.8833 78.6147 81.8833Z"
          fill="var(--current-color-1)"/>
    <path d="M79.7755 83.898V83.7671H80.3822C80.7515 83.7671 80.8834 83.7671 81.0154 83.6102V84.3689H81.0417C81.2528 84.0026 81.6221 83.6102 82.1761 83.6102C82.9939 83.6102 83.2313 84.0288 83.2313 84.4736V86.7499H83.8381V86.8807H81.9914V86.7499H82.5982V84.2904C82.5982 83.8718 82.3871 83.741 82.1497 83.741C81.5166 83.741 81.1736 84.3689 81.0417 84.6306V86.7499H81.6221V86.8807H79.8019V86.7499H80.4086V83.898H79.7755Z"
          fill="var(--current-color-1)"/>
    <path d="M86.9509 86.4621C86.9509 86.5929 86.9773 86.8022 87.1884 86.8022C87.373 86.8022 87.4785 86.6714 87.5841 86.4882L87.6632 86.5406C87.5313 86.8022 87.3203 86.9592 87.0037 86.9592C86.6344 86.9592 86.3969 86.7499 86.3442 86.4882H86.3178C86.054 86.8284 85.7111 86.9592 85.2098 86.9592C84.6031 86.9592 84.2601 86.6714 84.2601 86.1481C84.2601 85.3108 85.3945 85.1015 86.1859 85.1015H86.3178V84.1858C86.3178 83.8195 85.9749 83.741 85.6847 83.741C85.4736 83.741 84.946 83.8195 84.946 84.1073C84.946 84.2904 85.2098 84.2119 85.2098 84.5521C85.2098 84.7352 85.0516 84.866 84.8669 84.866C84.6558 84.866 84.5239 84.7091 84.5239 84.4474C84.5239 84.0549 84.946 83.6363 85.6847 83.6363C86.265 83.6363 86.9509 83.9241 86.9509 84.4997V86.4621ZM86.1859 85.2323C85.6319 85.2323 84.946 85.2585 84.946 86.0434C84.946 86.4621 85.0252 86.776 85.5 86.776C86.0804 86.776 86.3178 86.3574 86.3178 86.2004V85.2323H86.1859Z"
          fill="var(--current-color-1)"/>
    <path d="M88.3227 81.6478H87.7951V81.517H88.3227C88.5601 81.517 88.7976 81.4908 88.9558 81.3339V84.3951H88.9822C89.1141 84.0288 89.4835 83.6363 90.0374 83.6363C90.9607 83.6363 91.5411 84.5782 91.5411 85.3108C91.5411 86.2004 90.9344 86.9854 89.9847 86.9854C89.4571 86.9854 89.0877 86.5929 88.9822 86.3312H88.9558V86.8807H87.7951V86.7499H88.3227V81.6478ZM88.9558 85.7818C88.9558 86.4882 89.5098 86.8545 89.9583 86.8545C90.697 86.8545 90.8025 86.4359 90.8025 85.3108C90.8025 84.2643 90.697 83.7671 90.0111 83.7671C89.3779 83.7671 88.9558 84.3951 88.9558 84.9445V85.7818Z"
          fill="var(--current-color-1)"/>
    <path d="M92.7019 83.898H92.0951V83.7671H92.7019C92.9393 83.7671 93.1767 83.741 93.335 83.6102V86.7499H93.9417V86.8807H92.0951V86.7499H92.7019V83.898ZM93.0184 81.8833C93.2295 81.8833 93.4141 82.0665 93.4141 82.2758C93.4141 82.4851 93.2295 82.6682 93.0184 82.6682C92.8074 82.6682 92.6227 82.4851 92.6227 82.2758C92.6227 82.0403 92.8074 81.8833 93.0184 81.8833Z"
          fill="var(--current-color-1)"/>
    <path d="M94.8123 81.6478H94.2055V81.517H94.8123C95.0497 81.517 95.2871 81.4908 95.4454 81.3339V86.776H96.0522V86.9069H94.2055V86.776H94.8123V81.6478Z"
          fill="var(--current-color-1)"/>
    <path d="M96.9227 83.898H96.316V83.7671H96.9227C97.1601 83.7671 97.3976 83.741 97.5558 83.6102V86.7499H98.1626V86.8807H96.316V86.7499H96.9227V83.898ZM97.2657 81.8833C97.4767 81.8833 97.6614 82.0665 97.6614 82.2758C97.6614 82.4851 97.4767 82.6682 97.2657 82.6682C97.0546 82.6682 96.8699 82.4851 96.8699 82.2758C96.8699 82.0403 97.0546 81.8833 97.2657 81.8833Z"
          fill="var(--current-color-1)"/>
    <path d="M99.0595 83.898H98.4V83.7671C99.1914 83.7933 99.4816 83.4532 99.6135 82.7206H99.6927V83.7671H100.748V83.898H99.6927V86.4359C99.6927 86.7499 99.8246 86.8545 100.062 86.8545C100.431 86.8545 100.616 86.5144 100.669 86.3836L100.774 86.4097C100.721 86.5929 100.51 86.9854 99.9301 86.9854C99.4025 86.9854 99.0595 86.8022 99.0595 86.3051V83.898Z"
          fill="var(--current-color-1)"/>
    <path d="M103.043 86.2789L103.755 84.4736C103.808 84.3166 103.861 84.2119 103.861 84.1073C103.861 83.9503 103.729 83.898 103.412 83.898H103.096V83.7671H104.573V83.898C104.098 83.898 104.045 84.0026 103.887 84.4212L103.201 86.1219C102.99 86.6452 102.806 87.1423 102.779 87.2732C102.489 88.4506 102.357 88.9477 101.803 88.9477C101.566 88.9477 101.381 88.8169 101.381 88.5552C101.381 88.3459 101.513 88.1889 101.75 88.1889C101.935 88.1889 102.067 88.3197 102.067 88.4767C102.067 88.529 102.067 88.5552 102.067 88.6075C102.067 88.6599 102.093 88.686 102.12 88.686C102.383 88.686 102.621 87.404 102.7 87.1685L101.302 83.9503H100.88V83.8195H102.568V83.9503H102.014L103.043 86.2789Z"
          fill="var(--current-color-1)"/>
</svg>
