<svg id="logo" viewBox="0 0 168 110" fill="none" xmlns="http://www.w3.org/2000/svg">
    <path d="M12 75.4286H15.5779V56.967H12V56.3077H19.465V61.1428H19.5534C20.216 59.2967 21.1436 57.9341 22.3362 57.0989C23.573 56.2198 25.0307 55.8242 26.7534 55.8242C28.2994 55.8242 29.6687 56.1758 30.8613 56.8352C32.054 57.4945 32.8049 58.6373 33.2025 60.1758H33.2908C33.5117 59.6044 33.8209 59.0769 34.1742 58.5494C34.5276 58.022 35.0135 57.5384 35.5436 57.1428C36.1178 56.7472 36.7362 56.3956 37.5313 56.1319C38.2822 55.8681 39.1215 55.7802 40.0933 55.7802C44.5988 55.7802 46.8515 58.0659 46.8515 62.6373V75.3846H50.4294V76.0439H39.3423V75.3846H42.9202V59.7802C42.9202 58.7253 42.6552 57.9341 42.081 57.3626C41.5068 56.7912 40.7558 56.4835 39.7399 56.4835C38.989 56.4835 38.1939 56.6154 37.4429 56.9231C36.6479 57.2308 35.9853 57.6703 35.3669 58.2417C34.7485 58.8132 34.2626 59.5604 33.865 60.4835C33.4675 61.4066 33.2908 62.4615 33.2908 63.6923V75.4286H36.8687V76.0879H25.6491V75.4286H29.227V60.4395C29.227 59.0769 28.962 58.1099 28.3877 57.4505C27.8135 56.7912 27.1067 56.4835 26.1791 56.4835C25.5166 56.4835 24.8098 56.6593 24.0589 56.967C23.308 57.2747 22.5571 57.8022 21.8945 58.5055C21.2319 59.2088 20.6577 60.0879 20.216 61.1868C19.7742 62.2857 19.5534 63.6483 19.5534 65.2308V75.4286H23.1313V76.0879H12V75.4286Z"
          fill="var(--current-color-1)"/>
    <path d="M53.4773 75.4286H57.0552V56.967H53.4773V56.3077H61.0307V75.3846H64.6086V76.0439H53.5215V75.4286H53.4773ZM62.665 45.6264C62.665 44.967 62.8859 44.3956 63.3718 43.9121C63.8577 43.4286 64.4319 43.2088 65.0945 43.2088C65.7571 43.2088 66.3313 43.4286 66.8172 43.9121C67.3031 44.3956 67.5239 44.967 67.5239 45.6264C67.5239 46.2857 67.3031 46.8571 66.8172 47.3406C66.3313 47.8242 65.7571 48.0439 65.0945 48.0439C64.4319 48.0439 63.8577 47.8242 63.3718 47.3406C62.8859 46.8571 62.665 46.2857 62.665 45.6264Z"
          fill="var(--current-color-1)"/>
    <path d="M69.865 75.4286V56.967H66.2871V56.3077H73.708V60.967H73.7963C73.9288 60.5275 74.1055 60 74.4147 59.3846C74.6798 58.8132 75.0773 58.2417 75.5632 57.7143C76.0491 57.1868 76.6675 56.7472 77.3301 56.3516C78.0368 56 78.8761 55.7802 79.8479 55.7802C80.5546 55.7802 81.173 55.9121 81.7031 56.1319C82.2331 56.3516 82.6748 56.6593 82.984 57.011C83.3374 57.3626 83.5583 57.7582 83.735 58.2417C83.9117 58.7253 83.9558 59.1648 83.9558 59.6044C83.9558 60.6154 83.735 61.2747 83.2491 61.6264C82.7632 61.978 82.2331 62.1538 81.6147 62.1538C80.2454 62.1538 79.5828 61.7143 79.5828 60.8791C79.5828 60.6154 79.627 60.3956 79.6712 60.2198C79.7153 60.0439 79.8037 59.8681 79.892 59.6923C79.9804 59.5165 80.0245 59.3406 80.1129 59.1209C80.1571 58.9011 80.2012 58.5934 80.2012 58.1978C80.2012 57.2308 79.6712 56.7472 78.5669 56.7472C78.081 56.7472 77.5509 56.9231 76.9767 57.3187C76.4025 57.6703 75.9166 58.2417 75.4307 58.945C74.9448 59.6483 74.5472 60.4835 74.238 61.4945C73.9288 62.5055 73.7522 63.6483 73.7522 64.9231V75.4725H77.7718V76.1318H66.1988V75.4286H69.865Z"
          fill="var(--current-color-1)"/>
    <path d="M85.8994 66.2417C85.8994 64.7472 86.2528 63.3406 86.9153 62.0659C87.5779 60.7912 88.4172 59.6483 89.4773 58.7253C90.4933 57.8022 91.6417 57.0549 92.9669 56.5275C94.2479 56 95.4847 55.7362 96.7215 55.7362C97.9583 55.7362 99.1951 56 100.476 56.5275C101.757 57.0549 102.906 57.7582 103.921 58.7253C104.937 59.6483 105.821 60.7912 106.483 62.0659C107.146 63.3406 107.455 64.7472 107.455 66.2417C107.455 67.6923 107.146 69.0549 106.528 70.3296C105.909 71.6044 105.114 72.7033 104.098 73.6703C103.082 74.6373 101.934 75.3846 100.653 75.9121C99.3718 76.4395 98.0466 76.7472 96.6773 76.7472C95.308 76.7472 93.9828 76.4835 92.7018 75.9121C91.4209 75.3406 90.2724 74.5934 89.2564 73.6703C88.2405 72.7033 87.4454 71.6044 86.827 70.3296C86.2086 69.0549 85.8994 67.6923 85.8994 66.2417ZM90.5374 66.2417C90.5374 68.4395 90.7141 70.1538 91.0675 71.4286C91.4209 72.7033 91.8626 73.7143 92.3926 74.4176C92.9669 75.1209 93.5853 75.5604 94.3362 75.7802C95.0871 76 95.8822 76.0879 96.6773 76.0879C97.5166 76.0879 98.3117 76 99.0184 75.7802C99.7693 75.5604 100.388 75.1209 100.962 74.4176C101.536 73.7143 101.978 72.7472 102.287 71.4286C102.64 70.1538 102.817 68.3956 102.817 66.2417C102.817 64.3956 102.685 62.8571 102.464 61.6264C102.199 60.3956 101.845 59.3846 101.315 58.5934C100.785 57.8022 100.167 57.2747 99.416 56.9231C98.665 56.5714 97.7374 56.3956 96.6773 56.3956C95.6172 56.3956 94.7337 56.5714 93.9387 56.9231C93.1877 57.2747 92.5252 57.8022 92.0393 58.5934C91.5092 59.3846 91.1558 60.3956 90.8908 61.6264C90.6699 62.8571 90.5374 64.3956 90.5374 66.2417Z"
          fill="var(--current-color-1)"/>
    <path d="M108.25 56.3516H119.426V57.011H115.627L121.59 71.4725L127.774 57.011H123.975V56.3516H130.999V57.011H128.481L119.735 77.6264L111.387 56.967H108.25V56.3516Z"
          fill="var(--current-color-1)"/>
    <path d="M152.996 75.5604C152.599 75.8681 152.113 76.1318 151.583 76.3516C151.009 76.5714 150.346 76.7033 149.551 76.7033C148.093 76.7033 146.989 76.3956 146.326 75.7802C145.664 75.1648 145.222 74.2857 144.957 73.1428H144.869C144.736 73.4066 144.56 73.7582 144.339 74.1978C144.118 74.5934 143.809 75.033 143.367 75.3846C142.925 75.7802 142.307 76.0879 141.6 76.3516C140.849 76.6154 139.921 76.7472 138.773 76.7472C137.492 76.7472 136.432 76.6154 135.681 76.3077C134.93 76 134.312 75.6483 133.87 75.2088C133.428 74.7692 133.163 74.2857 133.031 73.7582C132.898 73.2307 132.81 72.7033 132.81 72.2637C132.81 71.2088 133.031 70.3297 133.472 69.6703C133.914 69.011 134.444 68.5275 135.151 68.1319C135.858 67.7362 136.609 67.4286 137.448 67.2088C138.287 66.945 139.171 66.6813 140.01 66.4176C141.026 66.0659 141.865 65.8022 142.528 65.5384C143.19 65.2747 143.72 65.011 144.074 64.6593C144.427 64.3077 144.692 63.8681 144.825 63.3406C144.957 62.8132 145.045 62.0659 145.045 61.1428C145.045 60.3956 145.001 59.7363 144.913 59.1648C144.825 58.5934 144.648 58.0659 144.383 57.6703C144.118 57.2747 143.764 56.9231 143.323 56.7472C142.837 56.5275 142.263 56.4395 141.467 56.4395C140.452 56.4395 139.612 56.6154 138.95 56.967C138.287 57.3187 137.978 57.8901 137.978 58.6813C137.978 59.2088 138.022 59.7362 138.11 60.2198C138.199 60.7033 138.243 61.0989 138.243 61.3626C138.243 61.8022 138.11 62.1538 137.801 62.4615C137.492 62.7692 137.05 62.9011 136.476 62.9011C135.46 62.9011 134.842 62.7253 134.577 62.3297C134.312 61.978 134.223 61.4945 134.223 60.8791C134.223 60.2198 134.356 59.5604 134.665 58.945C134.974 58.3297 135.416 57.8022 136.034 57.3187C136.653 56.8352 137.404 56.4835 138.287 56.1758C139.215 55.9121 140.231 55.7802 141.423 55.7802C142.837 55.7802 144.029 55.956 145.001 56.3077C145.973 56.6593 146.724 57.1428 147.298 57.7143C147.872 58.3297 148.314 58.989 148.535 59.7362C148.8 60.4835 148.888 61.2747 148.888 62.1099V73.5824C148.888 74.4615 149.021 75.0769 149.286 75.3846C149.551 75.6923 149.948 75.8242 150.479 75.8242C150.832 75.8242 151.185 75.7802 151.539 75.6483C151.892 75.5165 152.245 75.3406 152.599 75.0769L152.996 75.5604ZM144.869 64.7912H144.78C144.736 65.1868 144.206 65.5824 143.234 65.978L139.745 67.3406C138.773 67.7362 138.022 68.3077 137.492 69.011C136.962 69.7143 136.697 70.6374 136.697 71.6923C136.697 72.1319 136.741 72.6154 136.829 73.0989C136.918 73.5824 137.094 74.022 137.36 74.4176C137.625 74.8132 137.934 75.1209 138.375 75.3406C138.817 75.6044 139.391 75.6923 140.098 75.6923C141.114 75.6923 141.953 75.4725 142.572 75.0329C143.19 74.5934 143.676 74.0659 143.985 73.4066C144.294 72.7472 144.515 72.0879 144.648 71.2967C144.736 70.5494 144.825 69.8461 144.825 69.2308V64.7912H144.869Z"
          fill="var(--current-color-1)"/>
    <path d="M156 25.6264L154.542 23.2088L134.135 29.978L143.544 13.6703L140.717 12L131.838 27.4286L129.629 16.8791L127.2 17.2308L129.497 28.9231L116.775 24.3516L115.671 27.4286L128.039 32L116.29 35.9121L116.864 38.0659L127.642 34.6374L119.867 48.0439L122.474 50.1538L130.822 35.7363L133.428 49.2308L136.167 48.6154L133.163 33.8901L151.804 40.8352L152.952 37.4066L137.006 31.6483L156 25.6264Z"
          fill="var(--current-color-1)"/>
    <path d="M93.011 36.7472L88.638 34.2857L91.5975 33.2308L91.3767 32.4835L88.5055 33.4945L90.1841 29.5824L89.4773 29.1429L87.5337 33.4066L85.6344 28.8791L85.016 29.0989L86.6061 33.1429L83.1166 31.1648L82.6307 31.956L86.6061 34.1538L82.4098 35.6483L82.719 36.3956L86.8712 34.9011L85.1043 38.8571L85.9436 39.2967L87.5779 35.5604L89.5215 40.3516L90.2724 39.956L88.2405 35.1209L92.5693 37.5385L93.011 36.7472Z"
          fill="var(--current-color-1)"/>
    <path d="M104.628 35.1648C104.363 35.1648 104.142 35.1648 103.877 35.2088C103.656 35.2527 103.48 35.3846 103.259 35.3846C102.773 35.4725 102.375 35.6044 101.934 35.9121C101.757 36.0439 101.536 36.1758 101.36 36.2637C101.315 36.3077 101.183 36.3516 101.139 36.3956C101.05 36.4396 101.006 36.5275 100.918 36.5714C100.829 36.6593 100.785 36.7033 100.697 36.7912C100.609 36.9231 100.476 37.011 100.432 37.1428C100.388 37.2308 100.388 37.3187 100.344 37.3626C100.299 37.4066 100.255 37.4066 100.211 37.4505C100.123 37.5385 100.079 37.6703 99.9902 37.7582C99.9018 37.8901 99.7693 37.9341 99.6368 38.022C99.5043 38.0659 99.4601 38.1978 99.3718 38.2417C99.1951 38.3736 99.0184 38.5055 98.9301 38.7253C98.8859 38.8571 98.8417 39.033 98.7534 39.1209C98.7092 39.2088 98.6209 39.2527 98.5767 39.3407C98.4 39.7363 98.3117 40.2637 98.2675 40.7033C98.2675 40.8791 98.1791 41.0549 98.1791 41.1868C98.135 41.3626 98.135 41.5824 98.135 41.8022C98.135 42.1099 98.0466 42.5055 98.1791 42.8132C98.3117 42.8132 98.3117 42.8132 98.3558 42.9011C98.4 42.989 98.4 43.033 98.4442 43.1648C98.4442 43.2527 98.4442 43.3406 98.4442 43.4286C98.4442 43.5165 98.5325 43.5604 98.5767 43.6483C98.7092 43.8242 98.7534 44 98.7534 44.2198C98.7534 44.3516 98.8417 44.6154 98.7534 44.7033C98.7975 44.7472 98.7534 44.7912 98.7975 44.8791C98.7975 44.967 98.8417 44.967 98.8417 45.011C98.8859 45.0989 98.8417 45.2308 98.8859 45.3187C98.9301 45.4505 98.9742 45.5385 99.0184 45.6264C99.0626 45.7143 99.1067 45.8022 99.1509 45.8901C99.1951 45.978 99.2834 46.0659 99.3718 46.1099C99.4159 46.1538 99.416 46.2417 99.4601 46.2417C99.5043 46.2857 99.5485 46.2857 99.5485 46.3297C99.6368 46.4176 99.681 46.5055 99.7252 46.5934C99.8135 46.6813 99.9018 46.7692 99.9902 46.9011C100.079 47.033 100.079 47.1209 100.167 47.2527C100.255 47.3406 100.344 47.3407 100.432 47.4286C100.52 47.5165 100.564 47.6044 100.653 47.6923C100.741 47.7802 100.918 47.8242 101.05 47.9121C101.139 47.956 101.227 48.0439 101.315 48.0879C101.404 48.1319 101.492 48.2637 101.58 48.3077C101.669 48.3516 101.801 48.3516 101.89 48.4395C101.934 48.4835 101.978 48.4835 102.022 48.5275C102.11 48.5714 102.066 48.5275 102.155 48.5714C102.331 48.5714 102.375 48.6593 102.508 48.7033C102.64 48.7912 102.729 48.7912 102.861 48.7912C102.994 48.8352 103.171 48.9231 103.303 48.967C103.568 49.0549 103.701 49.0989 103.966 49.1428C104.187 49.1428 104.452 49.1868 104.672 49.1428C104.893 49.0989 105.114 49.011 105.335 48.967C105.467 48.9231 105.733 48.967 105.865 48.9231C105.821 49.011 105.821 49.0549 105.865 49.1428C105.909 49.2747 105.909 49.3626 106.086 49.3626C106.263 49.3626 106.351 49.3626 106.483 49.3187C106.616 49.2747 106.748 49.2747 106.881 49.2747C107.146 49.2308 107.323 49.0549 107.588 48.967C107.809 48.8791 108.029 48.8791 108.25 48.7912C108.339 48.7472 108.471 48.7033 108.56 48.6593C108.692 48.6154 108.78 48.5275 108.913 48.4835C109.134 48.3956 109.266 48.2637 109.487 48.1319C109.664 48.0439 109.84 47.9121 110.061 47.8242C110.15 47.7802 110.238 47.7802 110.326 47.6923C110.415 47.6483 110.459 47.5165 110.547 47.4286C110.68 47.2527 110.724 47.0769 110.856 46.945C110.945 46.8571 111.033 46.7253 111.121 46.6374C111.21 46.5494 111.298 46.5055 111.342 46.4176C111.431 46.2857 111.431 46.1099 111.431 45.978C111.475 45.8022 111.519 45.7582 111.652 45.6264C111.74 45.5385 111.74 45.4066 111.784 45.2747C111.828 45.1428 111.917 45.011 112.005 44.8791C112.049 44.7912 112.093 44.5275 112.226 44.5714C112.226 44.2198 112.358 43.9121 112.402 43.6044C112.447 43.2088 112.491 42.8132 112.535 42.3736C112.535 42.1099 112.579 41.8022 112.579 41.5385C112.579 41.4066 112.579 41.2747 112.579 41.1428C112.535 41.0549 112.535 40.967 112.535 40.8352C112.535 40.5714 112.447 40.3077 112.402 40.0439C112.358 39.7363 112.182 39.5604 112.049 39.2967C112.005 39.2088 111.961 39.0769 111.917 38.945C111.872 38.8571 111.872 38.6374 111.784 38.5934C111.74 38.5494 111.696 38.5934 111.652 38.5494C111.607 38.5055 111.607 38.4615 111.607 38.4176C111.563 38.2857 111.431 38.1978 111.342 38.1099C111.166 37.9341 111.077 37.6703 110.901 37.5385C110.812 37.4505 110.812 37.4066 110.724 37.3187C110.68 37.2747 110.636 37.2747 110.636 37.2308C110.591 37.1428 110.547 37.0549 110.459 36.967C110.282 36.7912 110.15 36.5714 109.929 36.5714C109.708 36.5275 109.487 36.3956 109.31 36.3516C109.222 36.3077 109.134 36.2637 109.045 36.2198C108.957 36.1319 108.825 36.1319 108.736 36.0879C108.56 36 108.383 35.8681 108.206 35.7802C108.029 35.6923 107.853 35.5604 107.632 35.5165C107.499 35.4725 107.411 35.5165 107.279 35.4725C107.234 35.4725 107.146 35.4286 107.102 35.3846C107.058 35.3846 106.969 35.3846 106.925 35.3846C106.881 35.3846 106.881 35.3407 106.837 35.2967C106.748 35.2527 106.66 35.2967 106.572 35.2967C106.439 35.2967 106.263 35.2967 106.13 35.2967C105.821 35.2967 105.467 35.2527 105.158 35.2527C104.937 35.2527 104.672 35.1648 104.496 35.2967"
          fill="var(--current-color-1)"/>
    <path d="M13.2368 83.6923H12.0884V83.5165H15.7105V83.7363H14.562V92.2637H15.7105V92.4835H12.0884V92.2637H13.2368V83.6923Z"
          fill="var(--current-color-1)"/>
    <path d="M17.1681 87.4286H16.1522V87.2088H17.1681C17.7865 87.2088 18.0074 87.2088 18.2282 86.9451V88.2198H18.2724C18.6258 87.6044 19.2442 86.9451 20.1718 86.9451C21.5411 86.9451 21.9387 87.6484 21.9387 88.3956V92.2198H22.9546V92.4396H19.8626V92.2198H20.8344V88.0879C20.8344 87.3846 20.481 87.1649 20.0835 87.1649C19.0233 87.1649 18.4491 88.2198 18.2282 88.6594V92.2198H19.2V92.4396H16.1522V92.2198H17.1681V87.4286Z"
          fill="var(--current-color-1)"/>
    <path d="M23.8822 87.4286H23.1313V87.2088H26.0466V87.4286H25.119L26.7092 91.2967L27.946 88.4835C28.0785 88.1758 28.1669 87.9121 28.1669 87.7802C28.1669 87.4725 27.8135 87.4286 27.5927 87.4286H27.1509V87.2088H29.3595V87.4286C28.7853 87.4286 28.6086 87.4725 28.3436 88.0879L26.3117 92.7473H26.2233L23.8822 87.4286Z"
          fill="var(--current-color-1)"/>
    <path d="M31.1706 90.4616C31.1706 91.3407 31.3031 92.3956 32.4957 92.3956C33.5558 92.3956 34.3509 91.6923 34.5276 90.6374H34.7485C34.5276 91.8242 33.6884 92.5714 32.4957 92.5714C30.9939 92.5714 29.9779 91.4286 29.9779 89.7583C29.9779 88.5275 30.9939 86.9451 32.3632 86.9451C33.8651 86.9451 34.6601 88.6154 34.6601 89.1429C34.6601 89.2308 34.616 89.2747 34.5276 89.2747H31.2147V90.4616H31.1706ZM33.3792 88.7033C33.3792 87.9121 33.1583 87.1209 32.319 87.1209C31.4356 87.1209 31.1706 87.8681 31.1706 88.7033V89.055H33.2908C33.335 89.055 33.3792 89.011 33.3792 88.967V88.7033Z"
          fill="var(--current-color-1)"/>
    <path d="M35.7644 90.5934H35.9411C36.0295 91.2528 36.3828 92.3956 37.708 92.3956C38.4147 92.3956 38.9448 91.956 38.9448 91.2088C38.9448 90.1978 38.1939 90.1978 37.4871 90.1099C36.6479 90.022 35.8528 89.8901 35.8528 88.5714C35.8528 87.6484 36.4712 86.9451 37.443 86.9451C38.1497 86.9451 38.5914 87.3846 38.7239 87.3846C38.8123 87.3846 38.8123 87.2967 38.8123 87.1209V87.033H38.989L39.0331 88.5275H38.8565C38.7681 87.8242 38.3706 87.1649 37.3988 87.1649C36.7362 87.1649 36.2062 87.5165 36.2062 88.1758C36.2062 88.8352 36.692 89.055 37.5313 89.0989L37.973 89.1429C38.989 89.1868 39.4307 89.7583 39.4307 90.6374C39.4307 91.8242 38.6356 92.5714 37.6638 92.5714C36.6479 92.5714 36.3387 92.044 36.0736 92.044C35.897 92.044 35.9411 92.2637 35.9411 92.5275H35.7644V90.5934Z"
          fill="var(--current-color-1)"/>
    <path d="M41.3301 87.4286H40.2258V87.2088C41.5509 87.2528 42.0368 86.6813 42.2577 85.4506H42.3902V87.2088H44.1571V87.4286H42.3902V91.6923C42.3902 92.2198 42.6111 92.3956 43.0086 92.3956C43.627 92.3956 43.9362 91.8242 44.0246 91.6044L44.2012 91.6484C44.1129 91.956 43.7595 92.6154 42.7877 92.6154C41.9043 92.6154 41.3301 92.3077 41.3301 91.4725V87.4286Z"
          fill="var(--current-color-1)"/>
    <path d="M45.5706 87.4286H44.5546V87.2088H45.5706C45.9681 87.2088 46.3657 87.1649 46.6307 86.9451V92.2198H47.6466V92.4396H44.5546V92.2198H45.5706V87.4286ZM46.1006 84.044C46.454 84.044 46.7632 84.3517 46.7632 84.7033C46.7632 85.055 46.454 85.3627 46.1006 85.3627C45.7473 85.3627 45.4381 85.055 45.4381 84.7033C45.4822 84.3077 45.7473 84.044 46.1006 84.044Z"
          fill="var(--current-color-1)"/>
    <path d="M48.0442 87.4286V87.2088H49.0601C49.6785 87.2088 49.8994 87.2088 50.1203 86.9451V88.2198H50.1644C50.5178 87.6044 51.1362 86.9451 52.0638 86.9451C53.4331 86.9451 53.8307 87.6484 53.8307 88.3956V92.2198H54.8466V92.4396H51.7546V92.2198H52.7706V88.0879C52.7706 87.3846 52.4172 87.1649 52.0197 87.1649C50.9595 87.1649 50.3853 88.2198 50.1644 88.6594V92.2198H51.1362V92.4396H48.0884V92.2198H49.1043V87.4286H48.0442Z"
          fill="var(--current-color-1)"/>
    <path d="M59.3522 91.8681C60.0589 91.8681 60.7657 92.1758 60.7657 93.3187C60.7657 95.033 59.3522 96 57.8062 96C56.6135 96 55.3325 95.5604 55.3325 94.3736C55.3325 93.6703 56.0393 93.1429 56.6135 92.8791V92.8352C55.9068 92.8352 55.5976 92.3517 55.5976 91.6484C55.5976 90.7692 56.0393 90.4176 56.8344 90.3736V90.3297C56.2601 89.978 55.8626 89.5824 55.8626 88.8791C55.8626 87.7363 56.8344 86.9011 57.9828 86.9011C58.6013 86.9011 59.1313 87.0769 59.4847 87.4286C59.7055 87.1648 60.0147 86.9011 60.4565 86.9011C60.8098 86.9011 61.119 87.1209 61.119 87.4725C61.119 87.7802 60.8982 87.9121 60.589 87.9121C60.3681 87.9121 60.1914 87.6923 60.1914 87.5165C60.1914 87.2528 60.2356 87.1648 60.3239 87.0769C60.0589 87.0769 59.7497 87.2967 59.6172 87.5605C59.8822 87.8681 60.1031 88.3517 60.1031 88.8352C60.1031 89.8901 58.9988 90.6813 57.9828 90.6813C57.4528 90.6813 57.1877 90.5055 57.0111 90.4616C56.3043 90.4616 55.7743 90.6813 55.7743 91.2528C55.7743 91.5604 56.0393 91.7802 56.3485 91.7802H59.3522V91.8681ZM57.1436 92.8352C56.3927 93.011 55.9951 93.4506 55.9951 94.2857C55.9951 95.3407 56.9227 95.7802 57.8945 95.7802C59.1755 95.7802 60.4565 94.9451 60.4565 93.6703C60.4565 93.011 59.9264 92.8352 59.2638 92.8352H57.1436ZM58.027 90.5495C59.0871 90.5495 59.0871 89.7583 59.0871 88.8352C59.0871 87.8242 59.0871 87.1209 58.027 87.1209C56.9669 87.1209 56.9669 88.1319 56.9669 88.8352C56.9669 89.6703 56.9669 90.5495 58.027 90.5495Z"
          fill="var(--current-color-1)"/>
    <path d="M66.1546 87.4286H65.1387V87.2088H66.1546C66.5522 87.2088 66.9497 87.1649 67.2147 86.9451V92.2198H68.2307V92.4396H65.1387V92.2198H66.1546V87.4286ZM66.6847 84.044C67.0381 84.044 67.3473 84.3517 67.3473 84.7033C67.3473 85.055 67.0381 85.3627 66.6847 85.3627C66.3313 85.3627 66.0221 85.055 66.0221 84.7033C66.0221 84.3077 66.3313 84.044 66.6847 84.044Z"
          fill="var(--current-color-1)"/>
    <path d="M68.5841 87.4286V87.2088H69.6C70.2184 87.2088 70.4393 87.2088 70.6601 86.9451V88.2198H70.7043C71.0577 87.6044 71.6761 86.9451 72.6037 86.9451C73.973 86.9451 74.3706 87.6484 74.3706 88.3956V92.2198H75.3865V92.4396H72.2945V92.2198H73.3105V88.0879C73.3105 87.3846 72.9571 87.1649 72.5595 87.1649C71.4994 87.1649 70.9252 88.2198 70.7043 88.6594V92.2198H71.6761V92.4396H68.6282V92.2198H69.6442V87.4286H68.5841Z"
          fill="var(--current-color-1)"/>
    <path d="M79.7154 90.5934H79.892C79.9804 91.2528 80.3338 92.3956 81.6589 92.3956C82.3657 92.3956 82.8957 91.956 82.8957 91.2088C82.8957 90.1978 82.1448 90.1978 81.4381 90.1099C80.5988 90.022 79.8037 89.8901 79.8037 88.5714C79.8037 87.6484 80.4221 86.9451 81.3939 86.9451C82.1006 86.9451 82.5424 87.3846 82.6749 87.3846C82.7632 87.3846 82.7632 87.2967 82.7632 87.1209V87.033H82.9399L82.9841 88.5275H82.8074C82.719 87.8242 82.3215 87.1649 81.3497 87.1649C80.6871 87.1649 80.1571 87.5165 80.1571 88.1758C80.1571 88.8352 80.643 89.055 81.4822 89.0989L81.9239 89.1429C82.9399 89.1868 83.3816 89.7583 83.3816 90.6374C83.3816 91.8242 82.5865 92.5714 81.6147 92.5714C80.5988 92.5714 80.2896 92.044 80.0246 92.044C79.8479 92.044 79.892 92.2637 79.892 92.5275H79.7154V90.5934Z"
          fill="var(--current-color-1)"/>
    <path d="M85.281 87.4286H84.2651V87.2088H85.281C85.6785 87.2088 86.0761 87.1649 86.3411 86.9451V91.4725C86.3411 92 86.6503 92.3517 87.1362 92.3517C88.0197 92.3517 88.8147 91.3407 88.8147 90.4176V87.4286H87.7988V87.2088H88.8147C89.2123 87.2088 89.6098 87.1649 89.8749 86.9451V92.2198H90.8908V92.4396H88.8147V91.2967H88.7706C88.6381 91.6044 88.108 92.6154 87.0037 92.6154C85.7227 92.6154 85.281 91.956 85.281 91.2088V87.4286Z"
          fill="var(--current-color-1)"/>
    <path d="M91.7743 90.5934H91.9509C92.0393 91.2528 92.3927 92.3956 93.7178 92.3956C94.4246 92.3956 94.9546 91.956 94.9546 91.2088C94.9546 90.1978 94.2037 90.1978 93.497 90.1099C92.6577 90.022 91.8626 89.8901 91.8626 88.5714C91.8626 87.6484 92.481 86.9451 93.4528 86.9451C94.1595 86.9451 94.6013 87.3846 94.7338 87.3846C94.8221 87.3846 94.8221 87.2967 94.8221 87.1209V87.033H94.9988L95.043 88.5275H94.8663C94.7779 87.8242 94.3804 87.1649 93.4086 87.1649C92.746 87.1649 92.216 87.5165 92.216 88.1758C92.216 88.8352 92.7019 89.055 93.5411 89.0989L93.9828 89.1429C94.9988 89.1868 95.4405 89.7583 95.4405 90.6374C95.4405 91.8242 94.6454 92.5714 93.6736 92.5714C92.6577 92.5714 92.3485 92.044 92.0835 92.044C91.9068 92.044 91.9509 92.2637 91.9509 92.5275H91.7743V90.5934Z"
          fill="var(--current-color-1)"/>
    <path d="M97.3399 87.4286H96.2356V87.2088C97.5608 87.2528 98.0466 86.6813 98.2675 85.4506H98.4V87.2088H100.167V87.4286H98.4V91.6923C98.4 92.2198 98.6209 92.3956 99.0184 92.3956C99.6368 92.3956 99.946 91.8242 100.034 91.6044L100.211 91.6484C100.123 91.956 99.7693 92.6154 98.7976 92.6154C97.9141 92.6154 97.3399 92.3077 97.3399 91.4725V87.4286Z"
          fill="var(--current-color-1)"/>
    <path d="M105.423 91.7363C105.423 91.9561 105.468 92.3077 105.821 92.3077C106.13 92.3077 106.307 92.0879 106.483 91.7802L106.616 91.8681C106.395 92.3077 106.042 92.5714 105.512 92.5714C104.893 92.5714 104.496 92.2198 104.407 91.7802H104.319C103.877 92.3517 103.303 92.5714 102.464 92.5714C101.448 92.5714 100.874 92.0879 100.874 91.2088C100.874 89.8022 102.773 89.4506 104.098 89.4506H104.319V87.9121C104.319 87.2967 103.745 87.1649 103.259 87.1649C102.906 87.1649 102.022 87.2967 102.022 87.7802C102.022 88.0879 102.464 87.956 102.464 88.5275C102.464 88.8352 102.199 89.055 101.89 89.055C101.536 89.055 101.315 88.7912 101.315 88.3517C101.315 87.6923 102.022 86.989 103.259 86.989C104.231 86.989 105.379 87.4725 105.379 88.4396V91.7363H105.423ZM104.098 89.6703C103.171 89.6703 102.022 89.7143 102.022 91.033C102.022 91.7363 102.155 92.2637 102.95 92.2637C103.921 92.2637 104.319 91.5605 104.319 91.2967V89.6703H104.098Z"
          fill="var(--current-color-1)"/>
    <path d="M107.941 87.4286H106.925V87.2088H107.941C108.339 87.2088 108.736 87.1649 109.001 86.9451V92.2198H110.017V92.4396H106.925V92.2198H107.941V87.4286ZM108.471 84.044C108.825 84.044 109.134 84.3517 109.134 84.7033C109.134 85.055 108.825 85.3627 108.471 85.3627C108.118 85.3627 107.809 85.055 107.809 84.7033C107.853 84.3077 108.118 84.044 108.471 84.044Z"
          fill="var(--current-color-1)"/>
    <path d="M110.415 87.4286V87.2088H111.431C112.049 87.2088 112.27 87.2088 112.491 86.9451V88.2198H112.535C112.888 87.6044 113.507 86.9451 114.434 86.9451C115.804 86.9451 116.201 87.6484 116.201 88.3956V92.2198H117.217V92.4396H114.125V92.2198H115.141V88.0879C115.141 87.3846 114.788 87.1649 114.39 87.1649C113.33 87.1649 112.756 88.2198 112.535 88.6594V92.2198H113.507V92.4396H110.459V92.2198H111.475V87.4286H110.415Z"
          fill="var(--current-color-1)"/>
    <path d="M122.429 91.7363C122.429 91.9561 122.474 92.3077 122.827 92.3077C123.136 92.3077 123.313 92.0879 123.49 91.7802L123.622 91.8681C123.401 92.3077 123.048 92.5714 122.518 92.5714C121.899 92.5714 121.502 92.2198 121.414 91.7802H121.369C120.928 92.3517 120.353 92.5714 119.514 92.5714C118.498 92.5714 117.924 92.0879 117.924 91.2088C117.924 89.8022 119.823 89.4506 121.148 89.4506H121.369V87.9121C121.369 87.2967 120.795 87.1649 120.309 87.1649C119.956 87.1649 119.072 87.2967 119.072 87.7802C119.072 88.0879 119.514 87.956 119.514 88.5275C119.514 88.8352 119.249 89.055 118.94 89.055C118.587 89.055 118.366 88.7912 118.366 88.3517C118.366 87.6923 119.072 86.989 120.309 86.989C121.281 86.989 122.429 87.4725 122.429 88.4396V91.7363ZM121.148 89.6703C120.221 89.6703 119.072 89.7143 119.072 91.033C119.072 91.7363 119.205 92.2637 120 92.2637C120.972 92.2637 121.369 91.5605 121.369 91.2967V89.6703H121.148Z"
          fill="var(--current-color-1)"/>
    <path d="M124.726 83.6484H123.843V83.4286H124.726C125.124 83.4286 125.522 83.3846 125.787 83.1209V88.2638H125.831C126.052 87.6484 126.67 86.989 127.598 86.989C129.144 86.989 130.115 88.5714 130.115 89.8022C130.115 91.2967 129.099 92.6154 127.509 92.6154C126.626 92.6154 126.007 91.9561 125.831 91.5165H125.787V92.4396H123.843V92.2198H124.726V83.6484ZM125.787 90.5934C125.787 91.7802 126.714 92.3956 127.465 92.3956C128.702 92.3956 128.879 91.6923 128.879 89.8022C128.879 88.044 128.702 87.2088 127.553 87.2088C126.493 87.2088 125.787 88.2637 125.787 89.1868V90.5934Z"
          fill="var(--current-color-1)"/>
    <path d="M132.059 87.4286H131.043V87.2088H132.059C132.456 87.2088 132.854 87.1649 133.119 86.9451V92.2198H134.135V92.4396H131.043V92.2198H132.059V87.4286ZM132.589 84.044C132.942 84.044 133.252 84.3517 133.252 84.7033C133.252 85.055 132.942 85.3627 132.589 85.3627C132.236 85.3627 131.926 85.055 131.926 84.7033C131.926 84.3077 132.236 84.044 132.589 84.044Z"
          fill="var(--current-color-1)"/>
    <path d="M135.593 83.6484H134.577V83.4286H135.593C135.99 83.4286 136.388 83.3846 136.653 83.1209V92.2637H137.669V92.4835H134.577V92.2637H135.593V83.6484Z"
          fill="var(--current-color-1)"/>
    <path d="M139.126 87.4286H138.11V87.2088H139.126C139.524 87.2088 139.921 87.1649 140.187 86.9451V92.2198H141.202V92.4396H138.11V92.2198H139.126V87.4286ZM139.701 84.044C140.054 84.044 140.363 84.3517 140.363 84.7033C140.363 85.055 140.054 85.3627 139.701 85.3627C139.347 85.3627 139.038 85.055 139.038 84.7033C139.038 84.3077 139.347 84.044 139.701 84.044Z"
          fill="var(--current-color-1)"/>
    <path d="M142.704 87.4286H141.6V87.2088C142.925 87.2528 143.411 86.6813 143.632 85.4506H143.764V87.2088H145.531V87.4286H143.764V91.6923C143.764 92.2198 143.985 92.3956 144.383 92.3956C145.001 92.3956 145.31 91.8242 145.399 91.6044L145.575 91.6484C145.487 91.956 145.134 92.6154 144.162 92.6154C143.279 92.6154 142.704 92.3077 142.704 91.4725V87.4286Z"
          fill="var(--current-color-1)"/>
    <path d="M149.374 91.4286L150.567 88.3956C150.655 88.1319 150.744 87.9561 150.744 87.7802C150.744 87.5165 150.523 87.4286 149.993 87.4286H149.463V87.2088H151.936V87.4286C151.141 87.4286 151.053 87.6044 150.788 88.3077L149.639 91.1648C149.286 92.044 148.977 92.8791 148.933 93.0989C148.447 95.0769 148.226 95.9121 147.298 95.9121C146.901 95.9121 146.591 95.6923 146.591 95.2528C146.591 94.9011 146.812 94.6374 147.21 94.6374C147.519 94.6374 147.74 94.8571 147.74 95.1209C147.74 95.2088 147.74 95.2527 147.74 95.3407C147.74 95.4286 147.784 95.4725 147.828 95.4725C148.27 95.4725 148.668 93.3187 148.8 92.9231L146.459 87.5165H145.752V87.2967H148.579V87.5165H147.652L149.374 91.4286Z"
          fill="var(--current-color-1)"/>
</svg>
