<svg id="logo" viewBox="0 0 128 128" fill="none" xmlns="http://www.w3.org/2000/svg">
    <path fill-rule="evenodd" clip-rule="evenodd"
          d="M28.7157 79C36.843 79 43.4314 72.2843 43.4314 64C43.4314 55.7157 36.843 49 28.7157 49C20.5885 49 14 55.7157 14 64C14 72.2843 20.5885 79 28.7157 79ZM78.7157 64C78.7157 72.2843 72.1273 79 64 79C55.8727 79 49.2843 72.2843 49.2843 64C49.2843 55.7157 55.8727 49 64 49C72.1273 49 78.7157 55.7157 78.7157 64ZM114 64C114 72.2843 107.412 79 99.2843 79C91.157 79 84.5686 72.2843 84.5686 64C84.5686 55.7157 91.157 49 99.2843 49C107.412 49 114 55.7157 114 64ZM23.7831 58.8694L19.9873 69.7444H22.2614L24.9536 61.9888L27.3448 68.8922C27.3448 68.8922 27.5789 69.8808 28.4318 69.8808C29.1675 69.8808 29.4183 68.8922 29.4183 68.8922L31.8263 62.0228L34.5018 69.7444H36.7425L32.9801 58.8694C32.9801 58.8694 32.6958 57.7785 31.8096 57.7785C30.94 57.7785 30.639 58.8694 30.639 58.8694L28.3816 65.3808L26.1074 58.8694C26.1074 58.8694 25.8064 57.7785 24.9536 57.7785C24.1008 57.7785 23.7831 58.8694 23.7831 58.8694ZM60.3704 61.9888L57.6782 69.7444V69.7615H55.4207L59.2166 58.8865C59.2166 58.8865 59.551 57.7956 60.3871 57.7956C61.2232 57.7956 61.5409 58.8865 61.5409 58.8865L63.8151 65.3978L66.0725 58.8865C66.0725 58.8865 66.3568 57.7956 67.2431 57.7956C68.1126 57.7956 68.3969 58.8865 68.3969 58.8865L72.176 69.7444H69.9353L67.2598 62.0228L64.8518 68.8922C64.8518 68.8922 64.5843 69.8808 63.8485 69.8808C62.9957 69.8808 62.7616 68.8922 62.7616 68.8922L60.3704 61.9888ZM102.041 67.2558L103.312 70.1024H105.854L104.198 66.4547C104.666 66.216 105.118 65.9603 105.553 65.6706L104.666 64.0342C104.282 64.3069 103.881 64.5456 103.446 64.7672L100.336 57.8978C100.135 57.4547 99.8506 57.0285 99.2319 57.0285H99.2151C98.5964 57.0285 98.3122 57.4547 98.1115 57.8978C97.9777 58.1876 92.7271 70.1024 92.7271 70.1024H95.2354L96.4728 67.2728C97.359 67.4944 98.2787 67.6138 99.2319 67.6138C100.202 67.6138 101.138 67.4944 102.041 67.2558ZM101.255 65.5342C100.603 65.6706 99.9175 65.7558 99.2151 65.7558C98.5296 65.7558 97.8607 65.6706 97.2253 65.5342L99.2151 60.966L101.255 65.5342Z"
          fill="var(--current-color-1)"/>
</svg>
