<svg id="logo" viewBox="0 0 262 78" fill="none" xmlns="http://www.w3.org/2000/svg">
    <path d="M32.9452 12.0006C36.3293 12.0257 39.4698 12.7927 42.367 14.3014C45.6818 16.0274 48.3686 18.4947 50.4273 21.7033C50.9629 22.5371 51.4405 23.4127 51.8603 24.33C54.0757 29.161 54.5003 34.242 53.134 39.5729C53.0843 39.589 53.0498 39.5764 53.0303 39.5351C52.4606 38.311 51.7526 37.1795 50.9064 36.1405C51.4868 30.9132 50.2919 26.2949 47.3218 22.2857C46.7258 21.48 46.0748 20.7322 45.3688 20.0422C42.8553 17.5829 39.9314 16.0088 36.5971 15.3198C32.1136 14.3934 27.9106 15.093 23.988 17.4185C23.1291 17.9274 22.3257 18.4932 21.5778 19.1158C19.3127 20.9997 17.5905 23.3081 16.4112 26.0409C15.042 29.2143 14.5663 32.5808 14.9841 36.1405C14.28 37.0417 13.6348 38.0485 13.0486 39.161C12.9857 39.28 12.9588 39.4156 12.9712 39.5502C12.9799 39.6508 12.9327 39.7212 12.8295 39.7615C11.4856 34.6931 11.7787 29.8068 13.7088 25.1025C14.0906 24.1721 14.5341 23.2779 15.0396 22.42C17.0408 19.0193 19.7134 16.4041 23.0575 14.5745C26.2429 12.8324 29.5388 11.9744 32.9452 12.0006Z"
          fill="var(--current-color-1)"/>
    <path d="M113.635 16.2945C114.754 16.6827 115.766 17.2666 116.672 18.0461C118.117 19.2893 118.871 20.8846 118.936 22.8318C118.936 22.8457 118.934 22.8595 118.929 22.8725C118.925 22.8855 118.917 22.8973 118.908 22.9073C118.899 22.9173 118.888 22.9253 118.875 22.9307C118.863 22.9362 118.85 22.939 118.836 22.939H113.122C113.091 22.939 113.06 22.9266 113.038 22.9044C113.015 22.8821 113.002 22.8518 113.001 22.8198C112.981 22.2746 112.843 21.7772 112.586 21.3276C112.357 20.9263 112.017 20.5697 111.565 20.2579C111.028 19.8878 110.434 19.6328 109.783 19.493C108.988 19.322 108.147 19.2762 107.26 19.3557C106.563 19.4181 105.918 19.5941 105.325 19.8838C104.684 20.1966 104.176 20.6165 103.801 21.1436C103.378 21.738 103.137 22.422 103.076 23.1955C103.073 23.2427 103.058 23.4987 103.034 23.9634C103.02 24.2279 103.016 24.4844 103.022 24.7329C103.023 24.7676 103.037 24.8006 103.061 24.8248C103.085 24.8491 103.117 24.8626 103.151 24.8626H109.486C109.501 24.8626 109.516 24.8658 109.53 24.872C109.544 24.8782 109.557 24.8872 109.567 24.8986C109.578 24.9101 109.586 24.9236 109.591 24.9384C109.597 24.9532 109.599 24.969 109.599 24.9848C109.543 26.2481 109.544 27.5245 109.6 28.814C109.601 28.8298 109.599 28.8455 109.593 28.8603C109.588 28.8751 109.58 28.8887 109.57 28.9001C109.559 28.9116 109.547 28.9207 109.533 28.9269C109.519 28.9331 109.504 28.9363 109.489 28.9362L103.104 28.9468C103.083 28.9468 103.062 28.9554 103.047 28.9706C103.032 28.9859 103.024 29.0066 103.024 29.0283V41.1857C103.024 41.2081 103.015 41.2296 103 41.2454C102.985 41.2613 102.964 41.2702 102.942 41.2702H97.2555C97.2166 41.2702 97.1793 41.2544 97.1516 41.2261C97.124 41.1978 97.1083 41.1595 97.1079 41.1193C97.0914 35.3841 97.1011 29.6926 97.1371 24.0449C97.143 23.024 97.215 22.2434 97.3533 21.7033C97.5685 20.8594 97.9157 20.0844 98.3948 19.3783C98.9148 18.6109 99.6228 17.9304 100.519 17.337C101.947 16.3905 103.586 15.7936 105.434 15.5461C108.342 15.1569 111.075 15.4063 113.635 16.2945Z"
          fill="var(--current-color-1)"/>
    <path d="M82.9023 17.9978C84.8899 18.1437 86.7839 18.6541 88.5845 19.5292C89.6032 20.0251 90.5356 20.6567 91.3818 21.4242C93.6284 23.462 94.8258 26.0409 94.9738 29.161C95.1296 32.4571 94.1757 35.2468 92.1122 37.53C91.599 38.0973 91.0225 38.6133 90.3827 39.078C89.741 39.5447 89.0763 39.939 88.3888 40.2608C86.8083 41.0031 85.1489 41.4628 83.4106 41.6398C82.4719 41.7364 81.499 41.7776 80.4921 41.7636C78.3711 41.7334 76.3256 41.3145 74.3555 40.5068C73.6154 40.203 72.9581 39.8651 72.3836 39.4929C71.7584 39.0886 71.1721 38.6274 70.6248 38.1094C68.6275 36.2194 67.5028 33.9287 67.2505 31.2371C67.1551 30.2232 67.1629 29.2189 67.2739 28.2241C67.4911 26.2778 68.1757 24.5372 69.3277 23.0023C69.8974 22.2429 70.5912 21.5429 71.4092 20.9022C73.0102 19.6489 74.8196 18.8025 76.8373 18.3629C78.6963 17.9596 80.718 17.8379 82.9023 17.9978ZM77.2376 35.8206C78.1656 36.3326 79.2018 36.6278 80.346 36.7062C81.3627 36.7767 82.2751 36.7128 83.0834 36.5146C85.5374 35.9132 87.1379 34.4914 87.8848 32.2494C88.2033 31.2949 88.3323 30.3047 88.2719 29.2787C88.1619 27.4018 87.4301 25.8649 86.0765 24.668C85.3841 24.0564 84.5977 23.6119 83.7174 23.3343C82.8741 23.0677 81.9694 22.9359 81.0033 22.939C79.7861 22.943 78.6671 23.1779 77.6466 23.6435C76.7185 24.068 75.9434 24.6604 75.3211 25.4208C74.3112 26.655 73.8195 28.1663 73.8457 29.9546C73.8681 31.4563 74.2684 32.7604 75.0465 33.8668C75.6171 34.6795 76.3475 35.3308 77.2376 35.8206Z"
          fill="var(--current-color-1)"/>
    <path d="M134.532 18.4112H128.704C128.679 18.4112 128.66 18.4315 128.66 18.4565V22.9314C128.66 22.9564 128.679 22.9767 128.704 22.9767H134.532C134.556 22.9767 134.576 22.9564 134.576 22.9314V18.4565C134.576 18.4315 134.556 18.4112 134.532 18.4112Z"
          fill="var(--current-color-1)"/>
    <path d="M235.302 19.9592H241.068C241.088 19.9592 241.107 19.9672 241.122 19.9816C241.136 19.996 241.145 20.0156 241.145 20.0361L241.181 24.7781C241.182 24.7983 241.19 24.8174 241.203 24.8315C241.216 24.8456 241.234 24.8535 241.253 24.8536L248.833 24.8717C248.852 24.8717 248.871 24.8798 248.884 24.8942C248.898 24.9086 248.906 24.9282 248.906 24.9486L248.915 28.8397C248.915 28.8523 248.912 28.8649 248.907 28.8766C248.903 28.8883 248.896 28.899 248.887 28.9079C248.879 28.9169 248.868 28.924 248.857 28.9289C248.846 28.9337 248.833 28.9362 248.821 28.9362L241.273 28.9649C241.254 28.9649 241.235 28.9728 241.221 28.9869C241.207 29.001 241.199 29.0202 241.199 29.0403C241.168 30.6396 241.159 32.2394 241.173 33.8396C241.131 35.2005 241.566 36.142 242.477 36.664C243.109 37.0251 243.99 37.1569 245.121 37.0593C246.407 36.9466 247.638 36.5805 248.815 35.9609C248.83 35.9532 248.847 35.9489 248.863 35.9486C248.88 35.9482 248.897 35.9517 248.912 35.9588C248.927 35.9658 248.941 35.9763 248.951 35.9895C248.962 36.0027 248.97 36.0182 248.974 36.0349L249.997 40.1477C250.002 40.1692 250.001 40.1919 249.992 40.2122C249.983 40.2325 249.968 40.2491 249.949 40.2593C248.632 40.9886 247.246 41.4457 245.79 41.6308C244.901 41.7434 244.013 41.7801 243.127 41.7409C242.225 41.7017 241.342 41.5564 240.477 41.3049C239.44 41.0031 238.565 40.5777 237.852 40.0285C236.332 38.8547 235.475 37.1946 235.28 35.0481C235.242 34.6337 235.224 34.2183 235.225 33.8019C235.227 32.2208 235.222 30.6396 235.211 29.0584C235.212 29.0367 235.205 29.0157 235.191 28.9989C235.178 28.9821 235.16 28.9706 235.14 28.9664C234.888 28.9101 234.634 28.9126 234.38 28.9739C233.203 28.9589 232.026 28.9433 230.848 28.9272C230.828 28.9272 230.81 28.9192 230.796 28.9051C230.782 28.8909 230.774 28.8717 230.774 28.8517L230.765 24.9637C230.765 24.9504 230.768 24.9373 230.772 24.925C230.777 24.9128 230.785 24.9016 230.794 24.8922C230.803 24.8828 230.814 24.8754 230.825 24.8703C230.837 24.8652 230.85 24.8626 230.863 24.8626H235.138C235.16 24.8626 235.181 24.8537 235.196 24.8379C235.212 24.822 235.22 24.8005 235.22 24.7781V20.0437C235.22 20.0213 235.229 19.9998 235.244 19.9839C235.26 19.9681 235.28 19.9592 235.302 19.9592Z"
          fill="var(--current-color-1)"/>
    <path d="M156.222 25.2594C158.439 26.3206 159.752 28.1924 160.162 30.875C160.192 31.0691 160.217 31.311 160.238 31.6007C160.269 32.0392 160.285 32.2826 160.285 32.3309C160.285 35.285 160.285 38.2396 160.285 41.1948C160.285 41.2148 160.277 41.234 160.263 41.2481C160.25 41.2622 160.231 41.2702 160.212 41.2702L154.452 41.2611C154.432 41.2611 154.413 41.2534 154.399 41.2395C154.385 41.2256 154.377 41.2068 154.377 41.1872C154.36 35.2498 154.345 32.2097 154.332 32.0669C154.223 30.8066 153.621 29.9099 152.527 29.3768C151.942 29.0921 151.327 28.9302 150.68 28.891C149.681 28.8316 148.695 28.9191 147.721 29.1535C146.563 29.4311 145.521 29.9742 144.596 30.7829C144.569 30.807 144.547 30.837 144.532 30.8709C144.517 30.9048 144.509 30.9417 144.509 30.9791V41.1948C144.509 41.2047 144.507 41.2145 144.503 41.2236C144.499 41.2328 144.494 41.2411 144.487 41.2481C144.481 41.2551 144.472 41.2607 144.464 41.2645C144.455 41.2682 144.445 41.2702 144.436 41.2702H138.713C138.697 41.2702 138.681 41.267 138.667 41.2608C138.652 41.2546 138.639 41.2454 138.628 41.234C138.617 41.2225 138.608 41.2088 138.602 41.1938C138.596 41.1788 138.593 41.1627 138.593 41.1465V24.9652C138.593 24.9517 138.595 24.9384 138.6 24.9259C138.605 24.9135 138.613 24.9022 138.622 24.8927C138.631 24.8831 138.642 24.8756 138.654 24.8704C138.666 24.8653 138.679 24.8626 138.692 24.8626H144.428C144.45 24.8626 144.47 24.8715 144.485 24.8874C144.5 24.9032 144.509 24.9247 144.509 24.9471L144.517 28.0853C144.517 28.1416 144.535 28.1487 144.572 28.1064C146.986 25.2478 149.934 24.0368 153.416 24.4734C154.469 24.6061 155.404 24.8681 156.222 25.2594Z"
          fill="var(--current-color-1)"/>
    <path d="M198.373 24.4492C199.591 24.5418 200.778 24.7887 201.933 25.19C202.94 25.539 203.807 25.9861 204.535 26.5313C207.021 28.3951 207.921 31.0736 207.234 34.5669C207.23 34.5881 207.219 34.6071 207.203 34.6209C207.188 34.6347 207.168 34.6422 207.148 34.6423L191.698 34.6785C191.692 34.6784 191.687 34.6797 191.682 34.6822C191.677 34.6848 191.673 34.6885 191.67 34.6931C191.666 34.6977 191.664 34.7031 191.664 34.7087C191.663 34.7143 191.664 34.72 191.666 34.7253C191.941 35.4887 192.403 36.1083 193.05 36.584C193.49 36.9069 194.02 37.1594 194.641 37.3414C195.103 37.4762 195.673 37.5713 196.352 37.6266C199.574 37.8881 202.671 37.2841 205.643 35.8146C205.653 35.81 205.663 35.8078 205.674 35.808C205.684 35.8082 205.695 35.8109 205.704 35.8159C205.714 35.8208 205.722 35.8278 205.728 35.8365C205.735 35.8452 205.739 35.8552 205.741 35.8659L206.473 39.7946C206.478 39.8195 206.474 39.8454 206.462 39.8678C206.45 39.8903 206.432 39.9081 206.409 39.9184C204.393 40.8417 202.309 41.412 200.158 41.6293C199.212 41.7248 198.239 41.7656 197.241 41.7515C196.079 41.7354 194.923 41.6237 193.773 41.4165C192.421 41.1731 191.188 40.7502 190.075 40.1477C187.112 38.5454 185.727 35.9655 185.918 32.4078C186.021 30.4948 186.715 28.8588 187.999 27.4999C188.771 26.6842 189.665 26.0495 190.68 25.5959C192.214 24.9109 193.805 24.5191 195.452 24.4206C196.411 24.3632 197.385 24.3728 198.373 24.4492ZM192.625 29.4115C192.155 29.9174 191.837 30.539 191.673 31.2763C191.671 31.2851 191.671 31.2943 191.673 31.3032C191.675 31.312 191.679 31.3203 191.684 31.3274C191.69 31.3345 191.696 31.3403 191.704 31.3442C191.712 31.3482 191.721 31.3502 191.73 31.3502H201.689C201.698 31.3502 201.707 31.3481 201.715 31.3441C201.723 31.3401 201.73 31.3342 201.736 31.327C201.741 31.3198 201.745 31.3113 201.747 31.3023C201.749 31.2932 201.749 31.2838 201.747 31.2748C201.451 29.8083 200.64 28.8492 199.314 28.3976C197.533 27.7921 195.786 27.7986 194.073 28.4172C193.547 28.6083 193.064 28.9397 192.625 29.4115Z"
          fill="var(--current-color-1)"/>
    <path d="M219.956 24.4175C222.605 24.5081 225.186 25.0215 227.697 25.958C227.935 26.0465 228.166 26.1506 228.39 26.2703C228.409 26.2804 228.424 26.2966 228.433 26.3165C228.443 26.3363 228.445 26.3588 228.441 26.3804L227.718 30.2775C227.715 30.2915 227.71 30.3047 227.701 30.3159C227.693 30.3272 227.682 30.3362 227.67 30.3423C227.657 30.3483 227.644 30.3512 227.63 30.3507C227.616 30.3502 227.603 30.3463 227.591 30.3394C226.845 29.8998 226.091 29.5533 225.328 29.2998C222.728 28.4368 220.061 28.0642 217.326 28.1819C216.805 28.204 216.333 28.3081 215.909 28.4942C215.627 28.6189 215.422 28.7914 215.296 29.0117C215.118 29.3225 215.109 29.6227 215.271 29.9124C215.417 30.1759 215.699 30.3741 216.118 30.5068C216.603 30.6617 217.115 30.7543 217.655 30.7844C219.232 30.874 220.884 31.0138 222.61 31.2039C223.7 31.3246 224.531 31.4598 225.1 31.6097C225.938 31.83 226.73 32.1332 227.478 32.5195C228.185 32.8846 228.743 33.3936 229.151 34.0463C229.545 34.679 229.751 35.3856 229.769 36.1661C229.788 37.0201 229.576 37.7981 229.133 38.5001C228.767 39.0785 228.21 39.5975 227.462 40.0572C226.385 40.719 225.152 41.1641 223.762 41.3924C218.888 42.1951 214.155 41.6997 209.564 39.9063C209.54 39.8966 209.519 39.8785 209.507 39.8551C209.494 39.8317 209.489 39.8045 209.494 39.778L210.224 35.8538C210.226 35.8452 210.229 35.837 210.234 35.83C210.24 35.823 210.246 35.8173 210.254 35.8133C210.261 35.8094 210.27 35.8073 210.278 35.8073C210.287 35.8072 210.295 35.8092 210.303 35.8131C211.739 36.5644 213.256 37.1086 214.853 37.4455C217.235 37.9484 219.639 38.0998 222.065 37.8997C222.608 37.8544 223.098 37.7458 223.534 37.5738C223.722 37.5004 223.879 37.3822 224.003 37.2192C224.12 37.0673 224.18 36.8873 224.183 36.6791C224.192 36.1229 223.903 35.7658 223.317 35.6079C222.693 35.4409 222.06 35.3418 221.416 35.3107C221.121 35.2966 219.53 35.1452 216.644 34.8565C215.502 34.7419 214.38 34.5145 213.28 34.1746C212.425 33.91 211.653 33.4861 210.965 32.9027C210.477 32.4903 210.119 31.998 209.893 31.4256C209.688 30.9097 209.605 30.3197 209.644 29.6559C209.739 28.0546 210.494 26.8174 211.911 25.9444C212.479 25.5933 213.018 25.3333 213.528 25.1644C214.653 24.7912 215.822 24.5563 217.036 24.4598C217.868 24.3934 218.841 24.3793 219.956 24.4175Z"
          fill="var(--current-color-1)"/>
    <path d="M118.871 24.8641H113.104C113.063 24.8641 113.03 24.8986 113.03 24.9411V41.1932C113.03 41.2357 113.063 41.2702 113.104 41.2702H118.871C118.913 41.2702 118.946 41.2357 118.946 41.1932V24.9411C118.946 24.8986 118.913 24.8641 118.871 24.8641Z"
          fill="var(--current-color-1)"/>
    <path d="M134.536 24.8626H128.699C128.677 24.8626 128.66 24.8809 128.66 24.9034V41.228C128.66 41.2504 128.677 41.2687 128.699 41.2687H134.536C134.558 41.2687 134.576 41.2504 134.576 41.228V24.9034C134.576 24.8809 134.558 24.8626 134.536 24.8626Z"
          fill="var(--current-color-1)"/>
    <path d="M161.881 24.8717L168.035 24.8898C168.057 24.8899 168.078 24.8966 168.096 24.9092C168.115 24.9218 168.129 24.9397 168.138 24.9607L173.704 38.2874C173.723 38.3337 173.742 38.3337 173.761 38.2874L179.346 24.9592C179.354 24.9389 179.369 24.9215 179.387 24.9089C179.405 24.8964 179.426 24.8892 179.448 24.8883C181.496 24.84 183.544 24.8435 185.592 24.8988C185.6 24.8991 185.608 24.9014 185.615 24.9055C185.621 24.9096 185.627 24.9154 185.632 24.9223C185.636 24.9292 185.638 24.937 185.639 24.945C185.639 24.953 185.638 24.961 185.634 24.9682L178.237 41.1932C178.228 41.2136 178.213 41.2307 178.194 41.2428C178.176 41.2548 178.154 41.2612 178.132 41.2611H169.315C169.293 41.2612 169.271 41.2548 169.252 41.2428C169.234 41.2307 169.219 41.2136 169.21 41.1932L161.82 24.9728C161.815 24.962 161.813 24.9502 161.813 24.9383C161.814 24.9265 161.818 24.915 161.824 24.9049C161.83 24.8948 161.838 24.8865 161.848 24.8807C161.858 24.8749 161.87 24.8718 161.881 24.8717Z"
          fill="var(--current-color-1)"/>
    <path d="M35.392 29.0448C38.9795 29.3124 42.3606 30.2725 45.5353 31.925C47.5267 32.962 49.3171 34.3672 50.9064 36.1405C51.7526 37.1795 52.4606 38.311 53.0303 39.5351C53.0498 39.5764 53.0843 39.589 53.134 39.5729C53.1058 39.6634 53.117 39.7796 53.1676 39.9214C54.4336 43.4639 54.0815 46.8304 52.1115 50.0209C52.0589 50.0229 51.9971 49.9882 51.926 49.9168C51.5141 49.5064 50.9945 49.1494 50.3674 48.8456C50.3275 48.8275 50.3124 48.7918 50.3221 48.7385C51.3378 47.096 51.8145 45.3106 51.7522 43.3824C51.7512 43.3432 51.7288 43.3306 51.685 43.3447C51.722 43.2079 51.7229 43.0289 51.6879 42.8076C51.4863 41.5232 51.0851 40.3629 50.4842 39.3269C50.4696 39.3008 50.4584 39.254 50.4506 39.1866C50.4429 39.1122 50.3917 39.0775 50.2973 39.0825C49.637 37.9842 48.8244 37.0236 47.8593 36.2008C45.9691 34.5885 43.8593 33.383 41.53 32.5844C38.9123 31.6851 36.2333 31.2169 33.493 31.1797C32.5046 31.1656 31.5312 31.1973 30.573 31.2748C27.9145 31.491 25.3441 32.1287 22.8618 33.1879C20.8246 34.0589 19.004 35.2739 17.4001 36.833C16.7097 37.5039 16.1093 38.2517 15.599 39.0765C15.5055 39.0906 15.4539 39.1398 15.4442 39.2243C15.4354 39.2887 15.4228 39.3355 15.4062 39.3647C15.0128 40.0647 14.6846 40.898 14.4217 41.8646C14.2659 42.436 14.206 42.9419 14.242 43.3824H14.2113C14.2038 43.3826 14.1966 43.3869 14.1912 43.3945C14.1858 43.4021 14.1825 43.4123 14.1821 43.4232C14.0984 45.3705 14.5828 47.1442 15.6355 48.7445L13.779 50.0209C13.7575 49.9223 13.704 49.7996 13.6183 49.6528C11.767 46.5226 11.5041 43.2255 12.8295 39.7615C12.9327 39.7212 12.9799 39.6508 12.9712 39.5502C12.9588 39.4156 12.9857 39.28 13.0486 39.161C13.6348 38.0485 14.28 37.0417 14.9841 36.1405C16.5733 34.3994 18.3028 33.032 20.1726 32.0382C23.9929 30.0084 28.0927 28.9785 32.472 28.9483C33.4604 28.9412 34.4337 28.9734 35.392 29.0448Z"
          fill="var(--current-color-1)"/>
    <path d="M15.599 39.0765C16.5076 42.0256 18.0068 44.605 20.0966 46.8148C20.0713 46.9375 19.9963 46.9878 19.8717 46.9657C18.9631 47.2634 18.0643 47.5903 17.1752 47.9464C16.0202 46.5453 15.0425 45.0239 14.242 43.3824C14.206 42.9419 14.2659 42.436 14.4217 41.8646C14.6846 40.898 15.0128 40.0647 15.4062 39.3647C15.4228 39.3355 15.4354 39.2887 15.4442 39.2243C15.4539 39.1398 15.5055 39.0906 15.599 39.0765Z"
          fill="var(--current-color-1)"/>
    <path d="M50.2973 39.0825C50.3917 39.0775 50.4429 39.1122 50.4506 39.1866C50.4584 39.254 50.4696 39.3008 50.4842 39.3269C51.0851 40.3629 51.4863 41.5232 51.6879 42.8076C51.7229 43.0289 51.722 43.2079 51.685 43.3447C50.8962 45.0134 49.9082 46.5453 48.7211 47.9403L45.7997 46.8586C47.8944 44.6367 49.3936 42.0447 50.2973 39.0825Z"
          fill="var(--current-color-1)"/>
    <path d="M33.7121 45.1839C37.8041 45.2191 41.8333 45.7773 45.7997 46.8586L48.7211 47.9403L50.3221 48.7385C50.3124 48.7918 50.3275 48.8275 50.3674 48.8456C50.9945 49.1494 51.5141 49.5064 51.926 49.9168C51.9971 49.9882 52.0589 50.0229 52.1115 50.0209C52.8652 50.6958 53.3877 51.4029 53.6789 52.1422C54.1307 53.2888 53.9851 54.4003 53.2421 55.4765C52.9188 55.9452 52.5419 56.3627 52.1115 56.7288C51.2993 57.4168 50.4175 57.9921 49.4661 58.4548C48.3745 58.9869 47.2492 59.4304 46.0904 59.7855C44.0327 60.4151 41.9394 60.8713 39.8107 61.1539C34.3505 61.8771 28.9136 61.7267 23.5001 60.7028C21.4863 60.3226 19.5274 59.7458 17.6236 58.9723C16.6615 58.581 15.655 58.0394 14.6043 57.3474C13.7356 56.776 13.0544 56.0664 12.5607 55.2185C12.1994 54.5989 12.0163 53.9889 12.0115 53.3884C12.0056 52.7004 12.1941 52.0587 12.5768 51.4633C12.8728 51.0046 13.2735 50.5238 13.779 50.0209L15.6355 48.7445L17.1752 47.9464C18.0643 47.5903 18.9631 47.2634 19.8717 46.9657C19.9963 46.9878 20.0713 46.9375 20.0966 46.8148C20.1453 46.848 20.2286 46.848 20.3464 46.8148C23.6856 45.8683 27.1671 45.3363 30.7906 45.2186C31.7596 45.1864 32.7334 45.1748 33.7121 45.1839ZM21.3631 48.0218C20.2743 48.2683 19.2173 48.6183 18.1918 49.0719C17.5832 49.2912 17.0091 49.5824 16.4696 49.9455L16.436 49.9243C16.4267 49.9188 16.4157 49.9162 16.4042 49.9167C16.3926 49.9172 16.3809 49.9209 16.3703 49.9274C15.8308 50.2452 15.3152 50.6003 14.8234 50.9925C14.7377 51.0277 14.69 51.0936 14.6802 51.1902C14.1339 51.5593 13.7405 52.0577 13.5 52.6853C13.2877 53.2406 13.3271 53.7887 13.6183 54.3299C13.8423 54.7483 14.0964 55.0888 14.3808 55.3513C15.2407 56.1489 16.1999 56.7906 17.2584 57.2764C18.4913 57.8417 19.7548 58.315 21.049 58.6962C21.8787 58.9406 22.8287 59.1629 23.8989 59.363C29.1079 60.3357 34.3524 60.4765 39.6325 59.7855C42.1741 59.4526 44.6515 58.844 47.0647 57.9599C48.1631 57.5566 49.2105 57.0426 50.2067 56.418C50.6839 56.1182 51.1275 55.7732 51.5374 55.383C51.9786 54.9615 52.2907 54.4787 52.4738 53.9346C52.5838 53.6047 52.5809 53.2577 52.465 52.8936C52.242 52.1945 51.8461 51.6247 51.2774 51.1841C51.294 51.1117 51.2726 51.073 51.2132 51.068C50.7457 50.7159 50.2686 50.3785 49.7816 50.0556C49.7738 50.0496 49.7359 50.0149 49.6677 49.9515C49.6083 49.8942 49.5382 49.8922 49.4574 49.9455C48.9101 49.5743 48.3238 49.2872 47.6986 49.084C46.6878 48.6163 45.6409 48.2602 44.5581 48.0158C42.7779 47.5179 40.8911 47.1553 38.8977 46.928C36.1808 46.6182 33.5388 46.507 30.9718 46.5946C27.9588 46.6982 24.9862 47.108 22.054 47.8242C21.8135 47.8523 21.5832 47.9182 21.3631 48.0218Z"
          fill="var(--current-color-1)"/>
    <path d="M21.3631 48.0218C25.1542 51.2123 29.4409 52.6456 34.2234 52.3217C38.0349 52.0632 41.4798 50.6279 44.5581 48.0158C45.6409 48.2602 46.6878 48.6163 47.6986 49.084C43.9056 52.8216 39.4255 54.8745 34.2584 55.2427C33.2836 55.3121 32.3113 55.306 31.3413 55.2246C26.3495 54.8031 22.0301 52.8015 18.3832 49.2198C18.2975 49.1353 18.2337 49.086 18.1918 49.0719C19.2173 48.6183 20.2743 48.2683 21.3631 48.0218Z"
          fill="var(--current-color-1)"/>
    <path d="M72.5647 49.3043H74.7587C74.7846 49.3042 74.8101 49.3117 74.8323 49.3258C74.8544 49.3399 74.8725 49.3601 74.8843 49.3842L79.7865 59.4641C79.7915 59.4747 79.7937 59.4863 79.7931 59.498C79.7925 59.5097 79.7891 59.521 79.7831 59.5309C79.7771 59.5409 79.7688 59.5491 79.759 59.5548C79.7491 59.5605 79.738 59.5636 79.7267 59.5637H77.8292C77.7997 59.5637 77.7707 59.555 77.7454 59.5385C77.7202 59.5219 77.6996 59.4983 77.686 59.4702L76.795 57.634C76.7853 57.6133 76.7701 57.5958 76.751 57.5835C76.7318 57.5712 76.7096 57.5647 76.6869 57.5646H70.6614C70.6293 57.5646 70.5977 57.5739 70.5704 57.5915C70.543 57.6091 70.5209 57.6343 70.5065 57.6642L69.633 59.4853C69.6234 59.5061 69.6084 59.5236 69.5898 59.5359C69.5711 59.5482 69.5497 59.5547 69.5278 59.5547L67.5427 59.5637C67.5348 59.5636 67.5272 59.5614 67.5204 59.5574C67.5136 59.5533 67.5079 59.5474 67.5038 59.5404C67.4998 59.5333 67.4974 59.5253 67.4971 59.5169C67.4967 59.5086 67.4983 59.5003 67.5018 59.4928L72.4171 49.3993C72.4308 49.3707 72.4519 49.3467 72.4779 49.3299C72.504 49.313 72.5341 49.3042 72.5647 49.3043ZM73.6339 51.2611L71.5173 55.6334C71.5131 55.6422 71.5111 55.6519 71.5115 55.6616C71.512 55.6714 71.5148 55.6809 71.5198 55.6892C71.5247 55.6975 71.5317 55.7044 71.54 55.7092C71.5482 55.7139 71.5575 55.7164 71.567 55.7164H75.7973C75.8057 55.7164 75.8139 55.7141 75.8212 55.7098C75.8285 55.7055 75.8346 55.6993 75.839 55.6918C75.8433 55.6842 75.8458 55.6756 75.8462 55.6667C75.8466 55.6579 75.8448 55.649 75.8411 55.641L73.7216 51.2611C73.6924 51.2017 73.6632 51.2017 73.6339 51.2611Z"
          fill="var(--current-color-1)"/>
    <path d="M129.574 49.4068L134.476 57.6944C134.483 57.7048 134.492 57.7135 134.502 57.7195C134.513 57.7255 134.524 57.7286 134.536 57.7286C134.548 57.7286 134.56 57.7255 134.57 57.7195C134.58 57.7135 134.589 57.7048 134.595 57.6944L139.474 49.3872C139.486 49.3647 139.505 49.346 139.526 49.3331C139.548 49.3201 139.573 49.3133 139.598 49.3133L141.659 49.3043C141.679 49.3043 141.698 49.3125 141.711 49.3272C141.725 49.3419 141.733 49.3619 141.733 49.3827V59.4853C141.733 59.5061 141.725 59.526 141.711 59.5407C141.698 59.5554 141.679 59.5637 141.659 59.5637L139.915 59.5562C139.896 59.5562 139.877 59.5482 139.864 59.5341C139.851 59.5199 139.843 59.5007 139.843 59.4807L139.859 52.8664C139.859 52.622 139.797 52.6039 139.674 52.8121L135.737 59.4385C135.714 59.4767 135.683 59.5082 135.645 59.5299C135.607 59.5516 135.565 59.5627 135.522 59.5622L133.454 59.5562C133.431 59.5557 133.409 59.5493 133.389 59.5377C133.369 59.5261 133.353 59.5096 133.341 59.4898L129.343 52.7819C129.253 52.63 129.208 52.6431 129.208 52.8211V59.4792C129.208 59.4903 129.205 59.5013 129.201 59.5115C129.197 59.5218 129.191 59.5311 129.184 59.539C129.176 59.5468 129.167 59.553 129.157 59.5573C129.147 59.5615 129.136 59.5637 129.126 59.5637H127.402C127.377 59.5637 127.353 59.5535 127.336 59.5354C127.318 59.5173 127.309 59.4928 127.309 59.4671L127.335 49.4084C127.335 49.3867 127.343 49.366 127.357 49.3507C127.371 49.3355 127.39 49.3269 127.409 49.3269L129.463 49.3359C129.484 49.3359 129.506 49.3425 129.525 49.3549C129.545 49.3674 129.562 49.3852 129.574 49.4068Z"
          fill="var(--current-color-1)"/>
    <path d="M117.219 49.9153L117.254 52.1422C117.255 52.1629 117.263 52.1826 117.277 52.1972C117.29 52.2119 117.309 52.2203 117.329 52.2206L119.967 52.2448C119.987 52.2452 120.006 52.2535 120.02 52.2679C120.034 52.2822 120.041 52.3016 120.041 52.3217L120.049 53.9527C120.049 53.9629 120.047 53.9731 120.044 53.9826C120.04 53.9921 120.035 54.0008 120.029 54.0081C120.022 54.0154 120.014 54.0212 120.006 54.0252C119.997 54.0291 119.988 54.0312 119.979 54.0311L117.313 54.0553C117.291 54.0553 117.27 54.0643 117.254 54.0805C117.238 54.0966 117.23 54.1185 117.23 54.1413C117.23 54.9299 117.23 55.7119 117.23 56.4874C117.23 56.8978 117.262 57.1844 117.327 57.3474C117.456 57.6692 117.698 57.8608 118.053 57.9222C118.315 57.9675 118.545 57.9634 118.741 57.9101C118.971 57.8488 119.168 57.7034 119.333 57.4741C119.339 57.4655 119.347 57.4583 119.356 57.4527C119.364 57.4472 119.374 57.4435 119.384 57.4418C119.394 57.4401 119.404 57.4405 119.414 57.4429C119.424 57.4454 119.433 57.4498 119.441 57.456L120.773 58.4442C120.788 58.4553 120.801 58.4694 120.81 58.4857C120.82 58.5021 120.826 58.5203 120.828 58.5393C120.83 58.5582 120.829 58.5775 120.824 58.5959C120.819 58.6144 120.81 58.6315 120.798 58.6464C120.445 59.09 120.012 59.3957 119.499 59.5637C118.141 60.0093 116.955 59.7483 115.943 58.7807C115.582 58.4367 115.403 57.9433 115.404 57.3006C115.373 56.2475 115.358 55.1944 115.358 54.1413C115.358 54.1211 115.351 54.1018 115.337 54.0874C115.323 54.073 115.304 54.0647 115.284 54.0643L113.456 54.0568C113.43 54.0568 113.406 54.0463 113.387 54.0276C113.369 54.009 113.359 53.9836 113.359 53.9572V52.3308C113.359 52.3084 113.367 52.2869 113.383 52.271C113.398 52.2552 113.419 52.2463 113.44 52.2463H115.291C115.314 52.2463 115.337 52.2364 115.353 52.2189C115.37 52.2014 115.379 52.1776 115.379 52.1528L115.367 51.0242C115.367 50.9936 115.374 50.9634 115.389 50.9369C115.404 50.9103 115.426 50.8883 115.452 50.8733L117.156 49.8776C117.163 49.8739 117.17 49.8721 117.177 49.8721C117.185 49.8722 117.192 49.8743 117.198 49.8781C117.205 49.8819 117.21 49.8873 117.213 49.8938C117.217 49.9003 117.219 49.9077 117.219 49.9153Z"
          fill="var(--current-color-1)"/>
    <path d="M246.066 49.8972V52.1271C246.066 52.1428 246.069 52.1583 246.075 52.1727C246.081 52.1872 246.089 52.2003 246.1 52.2114C246.111 52.2225 246.123 52.2312 246.137 52.2372C246.151 52.2432 246.166 52.2463 246.182 52.2463H248.795C248.817 52.2463 248.838 52.2554 248.854 52.2715C248.869 52.2876 248.878 52.3095 248.878 52.3323V53.9451C248.878 53.9653 248.87 53.9846 248.856 53.999C248.842 54.0134 248.823 54.0217 248.804 54.0221L246.147 54.0674C246.127 54.0677 246.109 54.0756 246.095 54.0894C246.082 54.1032 246.074 54.1218 246.073 54.1413C246.06 55.0656 246.062 55.99 246.081 56.9144C246.09 57.4022 246.302 57.7225 246.715 57.8754C247.309 58.0957 247.796 57.9619 248.175 57.4741C248.188 57.4582 248.206 57.4478 248.225 57.445C248.245 57.4422 248.265 57.4472 248.281 57.459L249.654 58.4548C249.67 58.467 249.682 58.4852 249.686 58.5056C249.69 58.526 249.685 58.5467 249.674 58.5634C249.521 58.7907 249.346 58.9849 249.15 59.1458C248.973 59.2906 248.749 59.4143 248.479 59.5169C247.469 59.9012 246.503 59.8544 245.581 59.3766C245.133 59.1443 244.801 58.8561 244.585 58.5121C244.339 58.1178 244.219 57.6637 244.226 57.1497C244.24 56.1348 244.242 55.1421 244.231 54.1715C244.231 54.14 244.218 54.1099 244.196 54.0876C244.174 54.0653 244.144 54.0526 244.113 54.0523L242.297 54.0327C242.276 54.0323 242.256 54.0237 242.241 54.0087C242.226 53.9937 242.217 53.9736 242.217 53.9527V52.3504C242.217 52.3301 242.225 52.3106 242.24 52.296C242.255 52.2813 242.275 52.2727 242.296 52.272L244.139 52.2206C244.161 52.2199 244.181 52.2115 244.196 52.1972C244.211 52.1829 244.219 52.1638 244.22 52.1437L244.234 51.0484C244.235 51.0056 244.245 50.9642 244.264 50.9282C244.284 50.8922 244.311 50.8629 244.344 50.8432L246 49.858C246.007 49.854 246.015 49.8519 246.022 49.8519C246.03 49.8519 246.038 49.854 246.044 49.858C246.051 49.8619 246.056 49.8677 246.06 49.8745C246.064 49.8814 246.066 49.8892 246.066 49.8972Z"
          fill="var(--current-color-1)"/>
    <path d="M16.436 49.9243L16.4696 49.9455C17.5603 51.2581 18.8496 52.3675 20.3376 53.2738C22.1684 54.3892 24.0864 55.209 26.0915 55.733C29.9751 56.7479 33.9152 56.8932 37.9117 56.169C40.1018 55.7717 42.162 55.0832 44.0921 54.1036C46.2325 53.0173 48.021 51.6312 49.4574 49.9455C49.5382 49.8922 49.6083 49.8942 49.6677 49.9515C49.7359 50.0149 49.7738 50.0496 49.7816 50.0556C50.2686 50.3785 50.7457 50.7159 51.2132 51.068C51.2726 51.073 51.294 51.1117 51.2774 51.1841C49.8371 52.9635 48.1315 54.4108 46.1605 55.5263C44.0074 56.7454 41.7296 57.622 39.3272 58.156C35.91 58.9154 32.4681 59.0578 29.0012 58.583C24.9842 58.0328 21.3782 56.678 18.1831 54.5185C16.8704 53.6323 15.7027 52.5229 14.6802 51.1902C14.69 51.0936 14.7377 51.0277 14.8234 50.9925C15.3152 50.6003 15.8308 50.2452 16.3703 49.9274C16.3809 49.9209 16.3926 49.9172 16.4042 49.9167C16.4157 49.9162 16.4267 49.9188 16.436 49.9243Z"
          fill="var(--current-color-1)"/>
    <path d="M86.1889 52.0954C87.2825 52.1648 88.233 52.4741 89.0403 53.0233C89.2204 53.145 89.369 53.2783 89.4858 53.4231C89.6095 53.577 89.7205 53.747 89.8189 53.9331C89.8235 53.9418 89.8262 53.9514 89.827 53.9613C89.8278 53.9712 89.8266 53.9812 89.8234 53.9907C89.8203 54.0002 89.8153 54.0089 89.8087 54.0164C89.8021 54.0239 89.7942 54.0299 89.7853 54.0342L88.38 54.698C88.3411 54.7166 88.2877 54.7118 88.2283 54.6845C88.1688 54.6573 88.1066 54.6089 88.0514 54.5471C87.7553 54.2162 87.3931 54 86.9646 53.8984C85.7045 53.5976 84.4448 53.5841 83.1857 53.8576C83.0201 53.8938 82.8852 53.9431 82.781 54.0055C82.4324 54.2167 82.5123 54.4068 83.0206 54.5758C83.3955 54.6995 84.5125 54.8408 86.3715 54.9998C87.3015 55.0792 88.1273 55.2452 88.8489 55.4976C89.1732 55.6113 89.4181 55.7506 89.5837 55.9156C89.8018 56.1338 89.945 56.3953 90.0131 56.7001C90.0901 57.0421 90.0964 57.3921 90.0321 57.7502C89.962 58.1445 89.7736 58.4568 89.4668 58.6871C88.9945 59.0422 88.5227 59.2841 88.0514 59.4128C86.6004 59.8111 85.091 59.8755 83.5231 59.6059C82.6428 59.4551 81.8491 59.1015 81.1421 58.5453C80.9113 58.3643 80.7248 58.1344 80.5826 57.8558C80.5778 57.8466 80.5747 57.8365 80.5737 57.8261C80.5727 57.8157 80.5738 57.8053 80.5768 57.7955C80.5798 57.7857 80.5847 57.7767 80.5913 57.7692C80.5978 57.7617 80.6058 57.7557 80.6148 57.7517L82.1047 57.0637C82.1231 57.055 82.1441 57.053 82.1648 57.0578C82.1855 57.0627 82.2048 57.0742 82.2201 57.0909C82.4821 57.3806 82.7971 57.5878 83.1652 57.7125C84.6893 58.2295 86.2294 58.2762 87.7855 57.8528C88.0611 57.7774 88.197 57.6094 88.1931 57.3489C88.1926 57.3263 88.1859 57.3042 88.1735 57.285C88.1611 57.2658 88.1436 57.2503 88.1229 57.2402C87.6643 57.0159 87.1779 56.8978 86.6637 56.8857C85.9021 56.776 85.1387 56.68 84.3732 56.5975C83.6361 56.5191 82.915 56.3627 82.2099 56.1283C81.9294 56.0348 81.6699 55.901 81.4313 55.727C81.0642 55.4584 80.8363 55.1179 80.7477 54.7055C80.6649 54.3193 80.7112 53.9467 80.8865 53.5876C81.0608 53.2295 81.3393 52.9534 81.722 52.7593C82.0901 52.5712 82.374 52.4505 82.5736 52.3972C83.6419 52.1115 84.847 52.0109 86.1889 52.0954Z"
          fill="var(--current-color-1)"/>
    <path d="M98.1202 52.2569C98.8165 52.4007 99.4422 52.6979 99.9972 53.1485C100.264 53.3648 100.469 53.6293 100.612 53.9421C100.62 53.9599 100.62 53.9801 100.614 53.9985C100.607 54.0169 100.593 54.0319 100.576 54.0402L99.0624 54.7644C99.0381 54.7761 99.0104 54.7775 98.9852 54.7685C98.9601 54.7595 98.9395 54.7407 98.928 54.7161C98.8267 54.5039 98.7025 54.3525 98.5555 54.262C98.0092 53.927 97.4176 53.7354 96.7807 53.6871C95.7981 53.6127 94.8029 53.6771 93.795 53.8803C93.6285 53.9145 93.5009 54.006 93.4123 54.1549C93.3042 54.3359 93.3884 54.4591 93.665 54.5245C94.3651 54.6925 95.0746 54.8006 95.7933 54.8489C96.2636 54.8801 97.031 54.9635 98.0954 55.0993C98.9475 55.208 99.577 55.379 99.9841 55.6123C100.532 55.9271 100.83 56.4145 100.877 57.0743C100.912 57.5702 100.806 57.9961 100.558 58.3522C100.364 58.6328 100.043 58.8807 99.5926 59.096C98.9635 59.3947 98.2449 59.5883 97.4366 59.6769C96.3255 59.7976 95.2878 59.7649 94.3238 59.5788C93.6129 59.442 93.0675 59.276 92.6877 59.0809C92.1648 58.8123 91.7276 58.413 91.376 57.883C91.3693 57.8728 91.3648 57.8612 91.3628 57.8491C91.3607 57.837 91.3613 57.8247 91.3643 57.8129C91.3674 57.8011 91.3729 57.7902 91.3805 57.7809C91.388 57.7717 91.3975 57.7643 91.4081 57.7592L92.8718 57.0637C92.8934 57.0535 92.9176 57.0503 92.9416 57.0546C92.9655 57.0589 92.988 57.0705 93.0062 57.0879C93.3129 57.3846 93.6172 57.5862 93.9191 57.6929C95.4159 58.2179 96.9258 58.2803 98.4489 57.8799C98.631 57.8327 98.7697 57.7723 98.8652 57.6989C99.1223 57.5028 99.0721 57.3071 98.7147 57.112C98.5716 57.0335 98.109 56.9455 97.327 56.848C96.3873 56.7584 95.45 56.6468 94.5151 56.513C93.999 56.4386 93.5004 56.3078 93.0193 56.1208C92.4126 55.8854 91.9954 55.5947 91.7675 55.2487C91.5386 54.9007 91.4641 54.5029 91.544 54.0553C91.6121 53.6741 91.7972 53.3482 92.0991 53.0776C92.4048 52.804 92.7608 52.6059 93.1669 52.4832C94.798 51.9883 96.4491 51.9129 98.1202 52.2569Z"
          fill="var(--current-color-1)"/>
    <path d="M108.575 52.1709C109.696 52.3811 110.604 52.8513 111.299 53.5815C111.986 54.3027 112.293 55.2236 112.218 56.344C112.214 56.3889 112.195 56.4307 112.163 56.4612C112.132 56.4917 112.09 56.5086 112.047 56.5085L104.422 56.5176C104.413 56.5176 104.405 56.5197 104.398 56.5237C104.39 56.5276 104.384 56.5333 104.379 56.5402C104.374 56.5472 104.371 56.5552 104.37 56.5636C104.368 56.572 104.369 56.5805 104.372 56.5885C104.51 56.9777 104.746 57.2624 105.078 57.4424C106.664 58.3034 108.235 58.2566 109.79 57.3021C109.809 57.2903 109.831 57.2846 109.853 57.286C109.874 57.2873 109.894 57.2956 109.91 57.3096L111.185 58.4186C111.192 58.4246 111.198 58.4321 111.202 58.4408C111.206 58.4494 111.208 58.4589 111.208 58.4686C111.208 58.4782 111.206 58.4878 111.202 58.4966C111.198 58.5055 111.192 58.5133 111.185 58.5197C110.916 58.76 110.597 58.9602 110.227 59.1201C108.36 59.9268 106.537 59.9731 104.759 59.2589C104.033 58.9672 103.487 58.6142 103.123 58.1998C102.668 57.6828 102.399 57.0426 102.314 56.2792C102.197 55.221 102.497 54.3188 103.212 53.5725C103.866 52.8895 104.689 52.4444 105.681 52.2372C106.702 52.023 107.666 52.0009 108.575 52.1709ZM109.521 54.4838C108.275 53.6741 106.955 53.5453 105.563 54.0975C105.073 54.2917 104.694 54.61 104.425 55.0526C104.386 55.1179 104.403 55.1506 104.477 55.1506H110.037C110.117 55.1506 110.135 55.1164 110.091 55.048C109.948 54.8257 109.758 54.6377 109.521 54.4838Z"
          fill="var(--current-color-1)"/>
    <path d="M148.38 52.0577C149.57 52.0487 150.692 52.4213 151.747 53.1757C151.79 53.2069 151.812 53.1953 151.812 53.141V52.3776C151.812 52.3427 151.826 52.3094 151.85 52.2847C151.873 52.2601 151.906 52.2463 151.939 52.2463H153.593C153.604 52.2463 153.614 52.2485 153.624 52.2527C153.634 52.257 153.643 52.2632 153.651 52.271C153.658 52.2789 153.664 52.2882 153.669 52.2985C153.673 52.3087 153.675 52.3197 153.675 52.3308V59.4792C153.675 59.4903 153.673 59.5013 153.669 59.5115C153.664 59.5218 153.658 59.5311 153.651 59.539C153.643 59.5468 153.634 59.553 153.624 59.5573C153.614 59.5615 153.604 59.5637 153.593 59.5637H151.937C151.904 59.5637 151.873 59.55 151.85 59.5257C151.827 59.5014 151.814 59.4684 151.814 59.434L151.805 58.669C151.805 58.6177 151.785 58.6067 151.744 58.6358C150.788 59.3148 149.74 59.6869 148.599 59.7523C147.491 59.8157 146.469 59.5642 145.536 58.9979C145.163 58.7726 144.86 58.5232 144.627 58.2496C144.356 57.9328 144.156 57.5817 144.025 57.1965C143.712 56.2772 143.71 55.4111 144.021 54.5984C144.308 53.8471 144.828 53.2456 145.581 52.794C146.382 52.3112 147.315 52.0658 148.38 52.0577ZM151.839 55.906C151.839 55.6362 151.76 55.3688 151.606 55.1192C151.453 54.8696 151.227 54.6427 150.943 54.4513C150.658 54.26 150.32 54.108 149.948 54.0041C149.576 53.9002 149.177 53.8463 148.775 53.8456C147.961 53.8441 147.18 54.0592 146.605 54.4435C146.029 54.8279 145.705 55.3499 145.704 55.8949C145.703 56.1648 145.782 56.4321 145.936 56.6817C146.09 56.9313 146.315 57.1583 146.6 57.3496C146.884 57.5409 147.222 57.6929 147.594 57.7968C147.966 57.9008 148.365 57.9547 148.768 57.9554C149.581 57.9568 150.362 57.7418 150.938 57.3574C151.514 56.9731 151.838 56.451 151.839 55.906Z"
          fill="var(--current-color-1)"/>
    <path d="M163.671 52.373C164.51 52.6516 165.093 53.1556 165.421 53.8848C165.6 54.2811 165.699 54.9379 165.717 55.8552C165.742 57.0572 165.737 58.2586 165.701 59.4596C165.7 59.4811 165.692 59.5014 165.677 59.5163C165.663 59.5312 165.644 59.5395 165.624 59.5396L163.938 59.5607C163.928 59.5609 163.919 59.559 163.91 59.5552C163.9 59.5513 163.892 59.5456 163.885 59.5383C163.878 59.5309 163.873 59.5222 163.869 59.5126C163.865 59.503 163.863 59.4927 163.863 59.4822C163.863 58.405 163.866 57.3383 163.871 56.2822C163.873 55.7582 163.834 55.381 163.754 55.1506C163.545 54.5542 163.135 54.174 162.521 54.01C161.492 53.7344 160.534 53.8038 159.649 54.2182C159.101 54.4737 158.685 54.8202 158.4 55.2577C158.09 55.7365 157.931 56.2917 157.924 56.9234C157.915 57.7784 157.911 58.6333 157.911 59.4883C157.911 59.4982 157.909 59.508 157.905 59.5171C157.902 59.5263 157.896 59.5346 157.89 59.5416C157.883 59.5486 157.875 59.5542 157.866 59.558C157.857 59.5618 157.847 59.5637 157.838 59.5637H156.129C156.108 59.5637 156.087 59.555 156.072 59.5394C156.057 59.5238 156.048 59.5027 156.048 59.4807L156.057 52.3308C156.057 52.3106 156.065 52.2913 156.079 52.2769C156.092 52.2625 156.111 52.2542 156.13 52.2538L157.838 52.2463C157.847 52.2463 157.857 52.2483 157.866 52.252C157.875 52.2558 157.883 52.2614 157.89 52.2684C157.896 52.2754 157.902 52.2837 157.905 52.2929C157.909 52.302 157.911 52.3118 157.911 52.3217L157.917 53.411C157.918 53.5378 157.964 53.5574 158.054 53.4699C158.653 52.8885 159.312 52.4957 160.03 52.2916C161.253 51.9456 162.466 51.9727 163.671 52.373Z"
          fill="var(--current-color-1)"/>
    <path d="M172.704 52.0698C173.659 52.1814 174.55 52.5445 175.377 53.1591C175.465 53.2245 175.508 53.2028 175.508 53.0942L175.507 52.3504C175.507 52.3292 175.514 52.3089 175.528 52.2939C175.541 52.2789 175.56 52.2704 175.578 52.2704L177.25 52.2508C177.261 52.2506 177.273 52.2529 177.284 52.2576C177.294 52.2623 177.304 52.2693 177.312 52.2781C177.321 52.287 177.327 52.2975 177.332 52.3091C177.336 52.3208 177.339 52.3333 177.339 52.3459L177.347 59.4596C177.347 59.4808 177.34 59.5011 177.326 59.5161C177.312 59.5311 177.293 59.5396 177.273 59.5396L175.635 59.5607C175.603 59.5613 175.572 59.5466 175.549 59.5198C175.525 59.4931 175.511 59.4563 175.51 59.4174L175.479 58.666C175.477 58.6127 175.453 58.6026 175.408 58.6358C174.875 59.017 174.323 59.2982 173.751 59.4792C172.353 59.9198 171.016 59.8529 169.74 59.2785C169.153 59.014 168.687 58.6886 168.343 58.3024C167.936 57.8468 167.673 57.3117 167.552 56.6971C167.333 55.5857 167.506 54.6336 168.073 53.841C168.542 53.1852 169.225 52.6914 170.124 52.3595C170.935 52.0597 171.795 51.9632 172.704 52.0698ZM175.507 55.906C175.507 55.6362 175.428 55.3688 175.275 55.1192C175.121 54.8696 174.895 54.6427 174.611 54.4513C174.326 54.26 173.988 54.108 173.616 54.0041C173.244 53.9002 172.846 53.8463 172.443 53.8456C171.629 53.8441 170.849 54.0592 170.273 54.4435C169.697 54.8279 169.373 55.3499 169.372 55.8949C169.371 56.1648 169.45 56.4321 169.604 56.6817C169.758 56.9313 169.983 57.1583 170.268 57.3496C170.552 57.5409 170.89 57.6929 171.262 57.7968C171.634 57.9008 172.033 57.9547 172.436 57.9554C173.249 57.9568 174.03 57.7418 174.606 57.3574C175.182 56.9731 175.506 56.451 175.507 55.906Z"
          fill="var(--current-color-1)"/>
    <path d="M187.177 53.1651C187.24 53.2094 187.272 53.1923 187.272 53.1138V52.3248C187.272 52.3039 187.28 52.284 187.294 52.2693C187.308 52.2546 187.327 52.2463 187.348 52.2463L189.054 52.2538C189.073 52.2542 189.091 52.2625 189.104 52.2769C189.118 52.2913 189.125 52.3106 189.125 52.3308C189.15 54.3857 189.145 56.4401 189.112 58.494C189.1 59.19 189.023 59.7161 188.878 60.0721C188.648 60.6404 188.278 61.1187 187.768 61.507C187.266 61.8912 186.747 62.1613 186.213 62.3172C184.885 62.7034 183.518 62.7653 182.109 62.5027C181.251 62.3418 180.454 61.9792 179.718 61.4149C179.705 61.4047 179.694 61.3915 179.686 61.3762C179.679 61.361 179.675 61.3442 179.674 61.327C179.674 61.3099 179.677 61.2928 179.684 61.2772C179.691 61.2616 179.701 61.2478 179.714 61.2369L180.972 60.14C180.987 60.1265 181.007 60.1191 181.027 60.1191C181.047 60.1191 181.067 60.1265 181.083 60.14C181.369 60.3865 181.572 60.5308 181.693 60.5731C183.189 61.0971 184.671 61.0609 186.138 60.4644C186.935 60.1405 187.311 59.5582 187.267 58.7173C187.267 58.7052 187.263 58.6935 187.257 58.6833C187.251 58.6731 187.242 58.6648 187.231 58.6592C187.221 58.6535 187.209 58.6508 187.197 58.6512C187.185 58.6516 187.174 58.6551 187.164 58.6615C185.579 59.6753 183.976 59.9756 182.355 59.5622C181.51 59.3469 180.838 59.0075 180.34 58.5438C179.741 57.9856 179.385 57.2568 179.274 56.3576C179.107 55.0028 179.555 53.9084 180.618 53.0746C181.109 52.6904 181.61 52.4268 182.123 52.284C183.924 51.7831 185.609 52.0768 187.177 53.1651ZM187.282 55.9005C187.282 55.6304 187.203 55.363 187.048 55.1135C186.894 54.864 186.668 54.6373 186.383 54.4464C186.099 54.2554 185.76 54.1039 185.388 54.0006C185.016 53.8973 184.617 53.8441 184.214 53.8441C183.812 53.8441 183.413 53.8973 183.04 54.0006C182.668 54.1039 182.33 54.2554 182.045 54.4464C181.76 54.6373 181.534 54.864 181.38 55.1135C181.226 55.363 181.147 55.6304 181.147 55.9005C181.147 56.4459 181.47 56.9689 182.045 57.3546C182.621 57.7402 183.401 57.9569 184.214 57.9569C185.028 57.9569 185.808 57.7402 186.383 57.3546C186.959 56.9689 187.282 56.4459 187.282 55.9005Z"
          fill="var(--current-color-1)"/>
    <path d="M200.231 53.746C200.803 54.4642 201.035 55.3573 200.928 56.4255C200.926 56.4459 200.916 56.4648 200.902 56.4784C200.887 56.4921 200.868 56.4996 200.848 56.4994L193.47 56.5176C193.032 56.5186 192.973 56.673 193.293 56.9807C193.757 57.4273 194.268 57.7301 194.824 57.889C195.337 58.0348 195.906 58.0801 196.531 58.0248C197.228 57.9634 197.86 57.7306 198.429 57.3262C198.468 57.299 198.514 57.2852 198.559 57.2868C198.605 57.2884 198.648 57.3055 198.681 57.3353L199.919 58.4457C199.925 58.4517 199.931 58.4592 199.934 58.4678C199.938 58.4763 199.939 58.4856 199.939 58.4949C199.938 58.5042 199.936 58.5133 199.931 58.5216C199.927 58.5298 199.92 58.5369 199.913 58.5423C199.166 59.0975 198.275 59.4631 197.241 59.6391C195.661 59.9087 194.225 59.6914 192.935 58.9874C192.258 58.6182 191.758 58.1505 191.433 57.5842C191.016 56.854 190.897 56.0755 191.077 55.2487C191.247 54.4621 191.641 53.8043 192.259 53.2753C192.842 52.7734 193.553 52.4304 194.393 52.2463C195.712 51.9566 196.953 52.0034 198.115 52.3866C199.051 52.6954 199.757 53.1485 200.231 53.746ZM198.262 54.4807C197.014 53.6731 195.692 53.5423 194.298 54.0885C193.805 54.2826 193.427 54.604 193.164 55.0526C193.126 55.1179 193.144 55.1506 193.217 55.1506H198.731C198.839 55.1506 198.862 55.1049 198.8 55.0133C198.648 54.7921 198.469 54.6145 198.262 54.4807Z"
          fill="var(--current-color-1)"/>
    <path d="M209.789 52.5058C210.139 52.7281 210.419 53.0258 210.627 53.399C210.634 53.4109 210.643 53.421 210.654 53.4287C210.665 53.4364 210.678 53.4415 210.691 53.4435C210.704 53.4455 210.718 53.4445 210.73 53.4404C210.743 53.4364 210.755 53.4294 210.765 53.4201C211.951 52.2755 213.347 51.8445 214.954 52.1271C216.082 52.3253 216.84 52.9011 217.228 53.8546C217.389 54.2499 217.478 54.8745 217.494 55.7285C217.518 56.9656 217.522 58.2184 217.507 59.4868C217.507 59.5072 217.5 59.5267 217.486 59.5412C217.472 59.5556 217.453 59.5637 217.433 59.5637H215.728C215.717 59.5637 215.707 59.5615 215.697 59.5573C215.687 59.553 215.678 59.5468 215.67 59.539C215.663 59.5311 215.657 59.5218 215.653 59.5115C215.649 59.5013 215.646 59.4903 215.646 59.4792C215.646 58.24 215.645 57.0109 215.642 55.7918C215.639 54.8494 215.251 54.2459 214.478 53.9814C213.585 53.6766 212.723 53.8431 211.894 54.4807C211.616 54.695 211.408 54.9806 211.269 55.3377C211.174 55.5791 211.125 55.9206 211.123 56.3622C211.116 57.3941 211.114 58.4332 211.118 59.4792C211.118 59.5016 211.11 59.5231 211.095 59.539C211.08 59.5548 211.059 59.5637 211.038 59.5637H209.37C209.354 59.5637 209.339 59.5605 209.325 59.5544C209.31 59.5482 209.297 59.5392 209.286 59.5278C209.276 59.5164 209.267 59.503 209.261 59.4881C209.255 59.4733 209.253 59.4575 209.253 59.4415C209.268 58.313 209.263 57.2246 209.238 56.1766C209.224 55.562 209.15 55.1164 209.016 54.8398C208.79 54.3751 208.42 54.0764 207.905 53.9436C206.835 53.668 205.935 53.9512 205.204 54.7931C205.082 54.9339 204.98 55.0883 204.898 55.2562C204.79 55.4785 204.733 55.6571 204.727 55.7918C204.677 57.0019 204.674 58.23 204.72 59.4762C204.72 59.4875 204.719 59.4989 204.715 59.5095C204.711 59.5201 204.705 59.5298 204.698 59.5379C204.69 59.5461 204.681 59.5526 204.671 59.557C204.661 59.5614 204.651 59.5637 204.64 59.5637H202.947C202.915 59.5637 202.885 59.5508 202.863 59.5279C202.841 59.505 202.828 59.4739 202.828 59.4415V52.3217C202.828 52.3118 202.83 52.302 202.834 52.2929C202.838 52.2837 202.843 52.2754 202.85 52.2684C202.857 52.2614 202.865 52.2558 202.874 52.252C202.882 52.2483 202.892 52.2463 202.901 52.2463H204.612C204.633 52.2463 204.653 52.255 204.668 52.2706C204.683 52.2862 204.691 52.3073 204.691 52.3293L204.698 53.3311C204.698 53.3824 204.717 53.3904 204.754 53.3552C205.884 52.276 207.193 51.8631 208.68 52.1166C209.131 52.194 209.501 52.3237 209.789 52.5058Z"
          fill="var(--current-color-1)"/>
    <path d="M226.155 52.2916C227.256 52.5732 228.084 53.1269 228.638 53.9527C229.137 54.698 229.322 55.5248 229.195 56.4331C229.192 56.4539 229.182 56.473 229.166 56.4868C229.151 56.5007 229.131 56.5084 229.11 56.5085L221.424 56.5176C221.415 56.5177 221.408 56.5199 221.4 56.5239C221.393 56.528 221.387 56.5338 221.383 56.5409C221.378 56.5479 221.375 56.5561 221.374 56.5646C221.373 56.5732 221.374 56.5819 221.377 56.59C221.533 57.0144 221.804 57.3237 222.192 57.5178C223.753 58.2994 225.276 58.2275 226.76 57.3021C226.779 57.2902 226.801 57.2842 226.822 57.285C226.843 57.2859 226.864 57.2934 226.879 57.3066L228.174 58.402C228.188 58.4136 228.198 58.4285 228.205 58.4457C228.212 58.4628 228.214 58.4815 228.213 58.5003C228.211 58.5191 228.204 58.5374 228.194 58.5536C228.184 58.5699 228.171 58.5836 228.155 58.5936C226.125 59.8549 224.063 60.0998 221.967 59.3283C221.123 59.0175 220.497 58.6293 220.091 58.1636C219.572 57.5671 219.304 56.8143 219.287 55.905C219.274 55.1778 219.451 54.5522 219.818 54.0281C220.409 53.1873 221.225 52.622 222.265 52.3323C223.558 51.9722 224.855 51.9586 226.155 52.2916ZM226.576 54.4989C225.348 53.6871 224.035 53.5403 222.639 54.0583C222.135 54.2454 221.734 54.5733 221.435 55.042C221.389 55.1144 221.407 55.1506 221.491 55.1506L227.031 55.1416C227.039 55.1416 227.047 55.1396 227.054 55.1357C227.061 55.1317 227.067 55.126 227.071 55.119C227.075 55.1121 227.078 55.1041 227.078 55.0959C227.079 55.0877 227.077 55.0796 227.074 55.0722C226.961 54.8358 226.795 54.6447 226.576 54.4989Z"
          fill="var(--current-color-1)"/>
    <path d="M239.301 52.6325C240.093 53.0137 240.571 53.7022 240.734 54.698C240.802 55.1054 240.811 56.6991 240.764 59.4792C240.763 59.4998 240.755 59.5193 240.741 59.5337C240.727 59.5481 240.709 59.5562 240.689 59.5562H238.99C238.971 59.5562 238.952 59.5482 238.939 59.5341C238.925 59.5199 238.917 59.5007 238.917 59.4807C238.907 58.2385 238.904 56.9963 238.909 55.7541C238.876 54.868 238.478 54.2992 237.712 54.0477C236.667 53.7048 235.666 53.7616 234.709 54.2182C234.204 54.4596 233.812 54.7649 233.533 55.134C233.209 55.5625 233.029 56.0584 232.993 56.6217C232.956 57.1899 232.94 58.142 232.947 59.4777C232.947 59.4983 232.94 59.518 232.926 59.5327C232.912 59.5473 232.894 59.5558 232.874 59.5562L231.186 59.5637C231.164 59.5637 231.143 59.5547 231.127 59.5386C231.112 59.5225 231.103 59.5006 231.102 59.4777L231.094 52.3564C231.094 52.3432 231.096 52.33 231.101 52.3178C231.106 52.3055 231.113 52.2943 231.122 52.285C231.131 52.2756 231.142 52.2681 231.154 52.263C231.166 52.258 231.179 52.2554 231.192 52.2554L232.883 52.2463C232.893 52.2463 232.902 52.2483 232.911 52.252C232.92 52.2558 232.928 52.2614 232.935 52.2684C232.941 52.2754 232.947 52.2837 232.951 52.2929C232.954 52.302 232.956 52.3118 232.956 52.3217V53.408C232.956 53.583 233.013 53.6062 233.127 53.4774C233.641 52.8961 234.301 52.4927 235.106 52.2674C236.554 51.8621 237.953 51.9838 239.301 52.6325Z"
          fill="var(--current-color-1)"/>
    <path d="M53.8951 64.4747C53.8951 64.8792 51.6891 65.2672 47.7624 65.5532C43.8358 65.8393 38.5101 66 32.9569 66C27.4038 66 22.0781 65.8393 18.1514 65.5532C14.2247 65.2672 12.0188 64.8792 12.0188 64.4747C12.0188 64.0701 14.2247 63.6821 18.1514 63.3961C22.0781 63.11 27.4038 62.9493 32.9569 62.9493C38.5101 62.9493 43.8358 63.11 47.7624 63.3961C51.6891 63.6821 53.8951 64.0701 53.8951 64.4747ZM21.9795 65.1506C29.104 65.4332 36.229 65.4413 43.3544 65.1747C46.1386 65.0711 48.9125 64.8388 51.6762 64.4777C51.7307 64.4706 51.7307 64.4636 51.6762 64.4566C50.0996 64.2473 48.5176 64.0965 46.9303 64.0039C38.5953 63.5221 30.2575 63.4588 21.9167 63.8138C19.5152 63.9164 17.0758 64.1045 14.5984 64.3781C14.1232 64.4304 14.1227 64.4872 14.597 64.5486C16.9108 64.8473 19.3716 65.048 21.9795 65.1506Z"
          fill="var(--current-color-1)"/>
</svg>
