<svg id="logo" viewBox="0 0 128 128" fill="none" xmlns="http://www.w3.org/2000/svg">
    <path d="M74.9278 38.1621C75.0682 38.1805 75.2167 38.2331 75.3733 38.3201C75.5141 38.3986 75.6318 38.5005 75.7264 38.6259C75.9413 38.9111 76.0531 39.2375 76.0619 39.6051C76.0652 39.7578 76.0317 39.8825 75.9613 39.9793C75.8809 40.0893 75.7734 40.1718 75.6389 40.2268C75.3169 40.359 74.9822 40.4377 74.6348 40.4628C73.5664 40.5405 72.4998 40.6411 71.4351 40.7647C69.6132 41.0155 67.8064 41.3513 66.0148 41.7721C62.9407 42.5397 59.851 43.6044 56.7457 44.9664C55.112 45.6828 53.6499 46.3938 52.3595 47.0995C52.1537 47.2117 51.9292 47.3456 51.6859 47.5012C51.2915 47.7532 51.0684 47.8903 51.0168 47.9125C50.9822 47.9274 50.9595 47.9231 50.9487 47.8997C50.9453 47.8922 50.945 47.8829 50.9477 47.8732C50.9503 47.8635 50.9559 47.8538 50.9637 47.8453C51.2082 47.5775 51.4587 47.3159 51.7153 47.0605C51.7861 46.9901 51.7855 46.9799 51.7134 47.0298C51.069 47.4788 50.4134 47.9106 49.7465 48.325C49.6894 48.3604 49.6278 48.383 49.5616 48.3928C49.4895 48.4031 49.4464 48.382 49.4322 48.3295C49.4231 48.2971 49.4304 48.2583 49.4541 48.2131C49.4995 48.1257 49.5562 48.0457 49.6241 47.9732C49.8686 47.7114 50.1245 47.462 50.3919 47.2249C50.5973 47.0428 50.9045 46.7949 51.3136 46.481C51.3152 46.4797 51.597 46.2612 52.1589 45.8254C52.7817 45.3423 53.4244 44.8892 54.0871 44.4662C54.2754 44.346 54.6292 44.1212 55.1487 43.7921C55.7493 43.4113 56.4223 43.0139 57.1675 42.5998C58.5908 41.808 59.9183 41.1253 61.15 40.5518C62.665 39.8456 64.2285 39.2815 65.8405 38.8593C66.6444 38.6453 67.6285 38.4542 68.7928 38.2862C69.8354 38.1357 70.6676 38.0451 71.2895 38.0144C72.6308 37.9726 73.8436 38.0218 74.9278 38.1621Z"
          fill="var(--current-color-1)"/>
    <path d="M77.7158 43.2394C77.6091 42.981 77.4444 42.7943 77.2215 42.6791C77.0803 42.6062 76.8523 42.5582 76.5374 42.5352C75.386 42.4499 74.2578 42.5881 73.1527 42.9497C73.1318 42.9567 73.1149 42.9697 73.1053 42.9861C73.0719 43.0437 73.0975 43.0718 73.1821 43.0706C73.4037 43.0676 73.6224 43.0399 73.8382 42.9874C74.0656 42.9324 74.3624 42.9113 74.7285 42.9241C74.776 42.9258 74.8185 42.9392 74.856 42.9644C74.8743 42.9763 74.8727 42.9859 74.851 42.9932C74.4494 43.1254 74.0389 43.2185 73.6195 43.2727C72.7464 43.4074 71.8717 43.5309 70.9952 43.643C69.6311 43.8741 68.2869 44.194 66.9627 44.6025C65.9513 44.8805 64.947 45.1839 63.9498 45.5126C61.1115 46.4499 58.3254 47.5279 55.5917 48.7465C55.1901 48.9256 54.8106 49.1011 54.4533 49.2729C53.0512 49.9484 51.6751 50.6754 50.3251 51.454C49.1792 52.115 48.4452 52.5162 48.1232 52.6578C47.8975 52.7567 47.7013 52.8987 47.5347 53.0838C47.5268 53.0925 47.5208 53.1028 47.517 53.114C47.5131 53.1252 47.5115 53.1371 47.5123 53.149C47.5131 53.1609 47.5161 53.1725 47.5214 53.1832C47.5266 53.1938 47.5339 53.2033 47.5428 53.2111C47.6153 53.2725 47.7111 53.2919 47.8302 53.2693C47.9672 53.2595 48.1026 53.2382 48.2363 53.2053C48.4092 53.1627 48.5825 53.1486 48.7562 53.1631C48.9999 53.184 49.1223 53.1944 49.1236 53.1944C49.366 53.1987 49.5337 53.1917 49.6266 53.1733C49.8011 53.1392 50.0418 53.0392 50.3488 52.8734C50.6662 52.7842 50.9734 52.667 51.2704 52.5216C51.3438 52.4857 51.456 52.4555 51.6072 52.4307C51.6236 52.4279 51.6433 52.4329 51.6622 52.4448L51.8328 52.5523C51.8402 52.5568 51.8492 52.5593 51.859 52.5595C51.8689 52.5598 51.8794 52.5577 51.8896 52.5535C52.0117 52.502 52.136 52.4568 52.2626 52.4179C52.4114 52.3446 52.5636 52.3352 52.7194 52.3898C52.7815 52.4116 52.8635 52.3996 52.9656 52.354C53.1926 52.2516 53.4223 52.1559 53.6547 52.0668C53.6552 52.0664 53.7939 52.0214 54.0709 51.9318C54.29 51.8611 54.4959 51.7598 54.6888 51.628C54.6956 51.6235 54.704 51.621 54.7134 51.6206C54.7227 51.6203 54.7328 51.6222 54.7425 51.6261C54.7705 51.6368 54.7975 51.6331 54.8238 51.6152C54.845 51.6003 54.8633 51.5922 54.8788 51.5909C54.9696 51.5841 55.0577 51.596 55.143 51.6267C55.1631 51.6343 55.1837 51.636 55.2024 51.6319C55.559 51.5585 55.8968 51.4329 56.2159 51.2551C56.2179 51.2538 56.2321 51.2447 56.2583 51.2276C56.3133 51.1918 56.355 51.2016 56.3833 51.257C56.386 51.2624 56.3897 51.267 56.3942 51.2708C56.3988 51.2745 56.404 51.2773 56.4096 51.2789C56.4152 51.2804 56.421 51.2808 56.4267 51.2799C56.4324 51.279 56.4378 51.2769 56.4427 51.2737L57.4068 50.6302C57.4942 50.5714 57.4867 50.5545 57.3843 50.5797C57.2739 50.6066 57.1491 50.6481 57.01 50.7044C56.9879 50.7134 56.975 50.7134 56.9713 50.7044C56.9695 50.7007 56.9702 50.6951 56.9734 50.6887C56.9766 50.6823 56.982 50.6755 56.9888 50.6692L57.2943 50.3929C57.4068 50.291 57.4986 50.2247 57.5698 50.194C59.5897 49.3245 61.6228 48.5267 63.6693 47.8005C65.026 47.3191 66.1767 46.9505 67.1214 46.6946L73.7757 44.8877C74.7396 44.6357 75.7028 44.3807 76.6655 44.1227C77.0362 44.0439 77.3632 43.8799 77.6464 43.6309C77.706 43.578 77.7393 43.5192 77.7464 43.4543C77.7543 43.3793 77.7441 43.3077 77.7158 43.2394Z"
          fill="var(--current-color-1)"/>
    <path d="M75.8844 47.3528C76.4734 47.3754 77.0683 47.518 77.6689 47.7807C77.9547 47.9057 78.1783 48.0824 78.34 48.311C78.4308 48.4393 78.4772 48.5817 78.4793 48.7382C78.4826 48.9847 78.4235 49.2358 78.3018 49.4917C78.2106 49.6832 78.1129 49.823 78.0088 49.9113C77.9447 50.0042 77.8659 50.0838 77.7726 50.1499C77.2957 50.4893 76.7444 50.7083 76.1187 50.8068C75.7155 50.8703 75.4239 50.9067 75.244 50.9161C75.0211 50.9434 74.7881 51.0308 74.5448 51.1784C74.3811 51.2777 74.2726 51.4035 74.2193 51.5557C74.2159 51.565 74.2104 51.5731 74.2032 51.5792C74.196 51.5853 74.1876 51.5891 74.1787 51.5903C72.964 51.7476 71.7527 51.9289 70.5448 52.134L67.7956 52.6776C64.2012 53.4678 60.6752 54.5016 57.2174 55.7791C54.7098 56.7053 52.2629 57.7769 49.8765 58.9939C49.7694 59.0246 49.6732 59.0762 49.5878 59.1487C49.5847 59.1513 49.5812 59.1532 49.5773 59.1542C49.5735 59.1553 49.5695 59.1555 49.5657 59.1548C49.5619 59.1542 49.5584 59.1526 49.5554 59.1503C49.5524 59.148 49.55 59.1451 49.5484 59.1416C49.5143 59.067 49.5416 59.0137 49.6303 58.9817C49.7507 58.9386 49.7742 58.8694 49.7009 58.7738C49.6397 58.6945 49.5574 58.6559 49.4541 58.6581C49.397 58.6593 49.3897 58.6406 49.4322 58.6018C50.344 57.7814 51.3004 57.0125 52.3014 56.2953C54.3566 54.8221 56.5166 53.532 58.7814 52.425C61.603 51.046 64.5236 49.9407 67.5431 49.1092C68.4554 48.8329 69.377 48.5947 70.308 48.3948C71.9325 47.9914 73.5718 47.6654 75.2259 47.4168C75.4933 47.3677 75.7128 47.3464 75.8844 47.3528Z"
          fill="var(--current-color-1)"/>
    <path d="M79.8995 64.6289L80.1169 64.6385C80.1247 64.6389 80.1321 64.6413 80.1381 64.6454C80.1441 64.6495 80.1485 64.6551 80.1507 64.6615L85.2423 79.7552C85.2454 79.7642 85.2511 79.772 85.2586 79.7775C85.2661 79.7829 85.275 79.7859 85.2842 79.7859L86.9499 79.7968C86.9649 79.797 86.9792 79.803 86.9897 79.8137C87.0002 79.8244 87.0061 79.8387 87.0061 79.8537V80.155C87.0061 80.1605 87.0051 80.166 87.003 80.1712C87.0009 80.1763 86.9979 80.1809 86.9941 80.1848C86.9902 80.1888 86.9857 80.1919 86.9807 80.194C86.9757 80.1961 86.9703 80.1972 86.9649 80.1972H80.8498C80.8423 80.1972 80.8349 80.1958 80.8279 80.1931C80.821 80.1903 80.8147 80.1863 80.8094 80.1812C80.8041 80.1762 80.7999 80.1702 80.7971 80.1636C80.7943 80.157 80.7929 80.1499 80.793 80.1428L80.7967 79.8409C80.7969 79.8325 80.8008 79.8245 80.8076 79.8185C80.8143 79.8125 80.8234 79.8091 80.833 79.809L82.8005 79.7783C82.8041 79.7782 82.8077 79.7772 82.8109 79.7754C82.8141 79.7737 82.8168 79.7711 82.8189 79.7681C82.821 79.765 82.8223 79.7615 82.8228 79.7579C82.8233 79.7542 82.8229 79.7504 82.8218 79.7469L81.3516 75.3035C81.3485 75.2943 81.3426 75.2864 81.3349 75.2808C81.3272 75.2752 81.3179 75.2721 81.3085 75.2721L76.9197 75.276C76.9058 75.276 76.8922 75.2806 76.8809 75.2892C76.8697 75.2977 76.8614 75.3096 76.8573 75.3233C76.5469 76.3143 76.2337 77.2995 75.9175 78.279C75.8551 78.473 75.7976 78.6687 75.7451 78.8662C75.631 79.2956 75.7201 79.5776 76.0125 79.7124C76.1358 79.7691 76.3772 79.7974 76.7367 79.7974C77.0408 79.7974 77.3498 79.7974 77.6639 79.7974C77.6725 79.7974 77.6808 79.801 77.6869 79.8072C77.693 79.8134 77.6964 79.8219 77.6964 79.8307V80.1639C77.6964 80.1728 77.693 80.1812 77.6869 80.1875C77.6808 80.1937 77.6725 80.1972 77.6639 80.1972H73.3789C73.372 80.1972 73.3651 80.1959 73.3587 80.1934C73.3523 80.1909 73.3465 80.1872 73.3416 80.1825C73.3367 80.1779 73.3328 80.1724 73.3302 80.1664C73.3276 80.1603 73.3264 80.1538 73.3264 80.1473L73.3302 79.8409C73.3304 79.8324 73.3342 79.8242 73.3408 79.818C73.3474 79.8118 73.3563 79.8082 73.3658 79.8077C73.6515 79.7923 73.8871 79.7889 74.0725 79.7974C74.6131 79.823 74.9712 79.5766 75.1465 79.0581C75.3119 78.6316 75.465 78.2005 75.6058 77.7647C77.0154 73.4085 78.4368 69.0359 79.8701 64.6468C79.8719 64.6413 79.8757 64.6366 79.881 64.6334C79.8863 64.6301 79.8928 64.6286 79.8995 64.6289ZM77.0891 74.8762L81.176 74.8685C81.1795 74.8685 81.183 74.8676 81.1861 74.866C81.1893 74.8643 81.192 74.8619 81.194 74.859C81.1961 74.8561 81.1975 74.8527 81.198 74.8491C81.1986 74.8456 81.1983 74.8419 81.1972 74.8385L79.0979 68.4935C79.0758 68.4274 79.0543 68.4276 79.0335 68.4941L77.0403 74.8078C77.0379 74.8156 77.0373 74.824 77.0386 74.8321C77.0398 74.8403 77.043 74.848 77.0477 74.8547C77.0525 74.8613 77.0587 74.8668 77.0659 74.8705C77.0731 74.8743 77.081 74.8762 77.0891 74.8762Z"
          fill="var(--current-color-1)"/>
    <path d="M32.8971 64.9903C33.2703 64.9847 33.709 65.0101 34.213 65.0664C34.9615 65.15 35.6546 65.3408 36.2924 65.6389C37.1821 66.055 37.7934 66.7143 38.1262 67.6166C38.2707 68.0089 38.3536 68.4259 38.3749 68.8677C38.3965 69.3179 38.3676 69.7377 38.288 70.1271C38.1518 70.7957 37.8427 71.3794 37.3608 71.8783C37.0242 72.2267 36.6225 72.5124 36.1555 72.7354C35.5157 73.0412 34.8501 73.2431 34.1586 73.3411C33.7258 73.4025 33.3109 73.43 32.914 73.4237C32.2908 73.4134 31.6858 73.3038 31.0989 73.0949C31.0938 73.093 31.0883 73.0925 31.083 73.0932C31.0776 73.094 31.0725 73.0961 31.0681 73.0993C31.0637 73.1025 31.0601 73.1067 31.0577 73.1116C31.0552 73.1165 31.0539 73.122 31.0539 73.1275V79.7616C31.0539 79.7711 31.0576 79.7802 31.0642 79.787C31.0707 79.7937 31.0796 79.7974 31.0889 79.7974H33.1683C33.1792 79.7974 33.1897 79.8019 33.1974 79.8098C33.2052 79.8177 33.2095 79.8285 33.2095 79.8397V80.1384C33.2095 80.154 33.2035 80.1689 33.1927 80.18C33.1819 80.191 33.1673 80.1972 33.152 80.1972H26.8639C26.852 80.1972 26.8404 80.1932 26.831 80.1859C26.8215 80.1787 26.8147 80.1685 26.8114 80.1569C26.7889 80.0733 26.7843 79.9959 26.7977 79.9247C26.8014 79.906 26.8008 79.8855 26.7958 79.8633C26.7837 79.81 26.8093 79.7859 26.8726 79.7911C26.9251 79.7953 26.953 79.7974 26.9564 79.7974C27.5678 79.7974 28.1931 79.7974 28.8321 79.7974C28.8413 79.7974 28.8502 79.7937 28.8568 79.787C28.8634 79.7802 28.867 79.7711 28.867 79.7616L28.8633 65.3939C28.8633 65.3854 28.8599 65.3773 28.854 65.3713C28.848 65.3653 28.8399 65.3619 28.8314 65.3619L26.8401 65.3542C26.8311 65.3542 26.8224 65.3511 26.8154 65.3455C26.8085 65.3399 26.8038 65.3322 26.802 65.3235C26.782 65.2259 26.7841 65.1291 26.8083 65.0331C26.8106 65.0243 26.8157 65.0164 26.823 65.0108C26.8302 65.0051 26.8391 65.002 26.8483 65.0018C28.8643 64.9882 30.8806 64.9843 32.8971 64.9903ZM35.1158 66.3488C34.7489 65.9523 34.3063 65.6853 33.7881 65.548C33.307 65.4201 32.8173 65.3566 32.3192 65.3574C31.9076 65.3579 31.4963 65.3581 31.0851 65.3581C31.081 65.3581 31.077 65.3589 31.0732 65.3605C31.0694 65.3621 31.066 65.3645 31.0631 65.3674C31.0602 65.3704 31.0578 65.3739 31.0563 65.3778C31.0547 65.3817 31.0539 65.3858 31.0539 65.39V72.5544C31.0539 72.5653 31.0568 72.5759 31.0621 72.5852C31.0675 72.5946 31.0753 72.6023 31.0845 72.6075C31.8793 73.0497 32.7199 73.1533 33.6063 72.9184C34.5872 72.6582 35.2829 72.0958 35.6932 71.231C35.8548 70.8899 35.9643 70.4929 36.0218 70.0401C36.0747 69.6243 36.083 69.2075 36.0468 68.7896C36.0035 68.2865 35.927 67.8679 35.8175 67.534C35.6725 67.0936 35.4387 66.6985 35.1158 66.3488Z"
          fill="var(--current-color-1)"/>
    <path d="M39.274 64.9941L50.4101 64.9903C50.4287 64.9902 50.4466 64.9974 50.4603 65.0103C50.474 65.0233 50.4824 65.041 50.4838 65.06C50.5604 66.0932 50.6321 67.1185 50.6987 68.1359C50.6987 68.1372 50.7006 68.1937 50.7044 68.3054C50.7077 68.4052 50.7225 68.502 50.7487 68.5958C50.7512 68.6042 50.7516 68.6131 50.7501 68.6218C50.7486 68.6304 50.7451 68.6386 50.7399 68.6456C50.7348 68.6527 50.7281 68.6584 50.7204 68.6623C50.7127 68.6662 50.7042 68.6682 50.6956 68.6681H50.4251C50.4083 68.6681 50.3922 68.6613 50.3802 68.6492C50.3683 68.6371 50.3615 68.6207 50.3613 68.6035C50.3438 67.0394 49.6407 66.0322 48.252 65.5819C47.745 65.4178 47.1306 65.3431 46.4088 65.3581C45.3632 65.3559 44.3179 65.3572 43.2728 65.3619C43.2687 65.3619 43.2646 65.3627 43.2608 65.3643C43.2571 65.3659 43.2536 65.3683 43.2507 65.3713C43.2478 65.3742 43.2455 65.3778 43.2439 65.3816C43.2424 65.3855 43.2416 65.3897 43.2416 65.3939L43.2497 72.2378C43.2497 72.2464 43.2529 72.2547 43.2588 72.2609C43.2646 72.2671 43.2725 72.2707 43.2809 72.2711C44.1232 72.3018 44.8065 72.2894 45.3309 72.234C45.6896 72.196 46.0112 72.0935 46.2957 71.9263C46.4652 71.8265 46.611 71.6956 46.733 71.5336C46.8347 71.3993 46.9234 71.2266 46.9992 71.0155C47.1642 70.5571 47.2285 70.0784 47.1923 69.5795C47.1915 69.5703 47.1939 69.5611 47.1989 69.5534C47.2039 69.5457 47.2112 69.5401 47.2198 69.5373C47.3281 69.5041 47.4382 69.4998 47.5503 69.5245C47.5587 69.5263 47.5663 69.5312 47.5718 69.5383C47.5773 69.5454 47.5802 69.5543 47.5803 69.5636V75.2242C47.5803 75.2333 47.5774 75.2421 47.5719 75.2492C47.5664 75.2562 47.5588 75.2609 47.5503 75.2626C47.4412 75.2826 47.3324 75.2815 47.2241 75.2594C47.2156 75.2575 47.2081 75.2526 47.2028 75.2454C47.1975 75.2383 47.1949 75.2294 47.1954 75.2203C47.2212 74.7086 47.1673 74.2249 47.0336 73.769C46.924 73.3964 46.6937 73.1203 46.3425 72.9407C46.0143 72.7727 45.6673 72.6851 45.3016 72.6779C45.2699 72.6774 45.221 72.6685 45.1547 72.651C45.111 72.6395 45.0604 72.6337 45.0029 72.6337C44.421 72.6316 43.8501 72.6329 43.2903 72.6376C43.2794 72.6376 43.2689 72.6421 43.2611 72.6501C43.2534 72.6581 43.2491 72.669 43.2491 72.6804L43.2416 79.7642C43.2416 79.773 43.245 79.7815 43.2511 79.7877C43.2572 79.7939 43.2654 79.7974 43.274 79.7974C44.572 79.7974 45.8664 79.7974 47.1573 79.7974C47.1952 79.7974 47.2781 79.7874 47.406 79.7674C47.4747 79.7563 47.5588 79.7503 47.6584 79.7495C48.1053 79.7448 48.5937 79.6642 49.1236 79.5077C50.04 79.2374 50.6375 78.635 50.9162 77.7008C51.0707 77.1814 51.1471 76.6503 51.1455 76.1075C51.1696 76.0013 51.1786 75.8896 51.1723 75.7723C51.172 75.7657 51.173 75.759 51.1751 75.7528C51.1773 75.7465 51.1807 75.7408 51.185 75.736C51.1894 75.7312 51.1946 75.7274 51.2003 75.7249C51.2061 75.7223 51.2123 75.7211 51.2186 75.7212L51.481 75.7224C51.4897 75.7224 51.4981 75.7258 51.5045 75.732C51.511 75.7381 51.5151 75.7466 51.516 75.7557C51.5268 75.8555 51.5322 75.9821 51.5322 76.1356C51.5314 78.5649 51.5314 79.7855 51.5322 79.7974C51.5389 79.9194 51.5339 80.0405 51.5172 80.1608C51.516 80.1698 51.5118 80.1781 51.5052 80.1841C51.4986 80.1901 51.4903 80.1934 51.4816 80.1934L39.2465 80.1972C39.2404 80.1972 39.2345 80.1948 39.2301 80.1905C39.2258 80.1861 39.2234 80.1803 39.2234 80.1742L39.2259 79.8339C39.226 79.8252 39.2295 79.8169 39.2356 79.8108C39.2417 79.8047 39.2498 79.8013 39.2584 79.8013L41.0628 79.7936C41.0669 79.7936 41.071 79.7928 41.0748 79.7912C41.0786 79.7896 41.082 79.7872 41.0849 79.7842C41.0878 79.7813 41.0901 79.7777 41.0917 79.7739C41.0933 79.77 41.0941 79.7658 41.0941 79.7616L41.0978 65.408C41.0978 65.3947 41.0927 65.382 41.0835 65.3727C41.0744 65.3633 41.062 65.3581 41.0491 65.3581L39.274 65.3542C39.2649 65.3542 39.2562 65.3512 39.2492 65.3456C39.2421 65.34 39.2372 65.3323 39.2352 65.3235C39.2127 65.2242 39.2127 65.1248 39.2352 65.0255C39.2372 65.0166 39.2421 65.0087 39.2492 65.003C39.2562 64.9973 39.2649 64.9942 39.274 64.9941Z"
          fill="var(--current-color-1)"/>
    <path d="M52.6319 64.9903C55.0283 64.9822 57.4005 64.9875 59.7486 65.0063C60.5496 65.0127 61.3058 65.1566 62.0173 65.438C62.453 65.6103 62.8104 65.8235 63.0895 66.0776C63.5431 66.49 63.8474 66.9995 64.0023 67.6063C64.1077 68.0182 64.1554 68.4408 64.1454 68.874C64.1275 69.651 63.8563 70.3083 63.3319 70.846C63.0803 71.104 62.7389 71.344 62.3078 71.5662C61.5193 71.9726 60.6758 72.2207 59.7773 72.3107C59.649 72.3235 59.649 72.3372 59.7773 72.3517C59.8998 72.3657 60.036 72.3847 60.1859 72.4086C60.2359 72.4163 60.3717 72.435 60.5933 72.4649C61.0932 72.5314 61.5678 72.6772 62.0173 72.9024C62.2272 73.0077 62.4169 73.1392 62.5865 73.297C62.786 73.4829 62.9374 73.6629 63.0407 73.8368C63.284 74.2466 63.4552 74.7112 63.5543 75.2306C63.5635 75.2779 63.6187 75.7005 63.7199 76.4983C63.8169 77.2624 63.873 77.7598 63.888 77.9905C63.9184 78.4532 63.9861 78.8636 64.091 79.2218C64.1435 79.4013 64.237 79.555 64.3716 79.683C64.4974 79.8032 64.65 79.8785 64.8296 79.9087C65.1299 79.9599 65.4404 79.907 65.7612 79.7501C65.8491 79.7071 65.9113 79.7245 65.948 79.8026L66.0061 79.9267C66.0415 80.0017 66.0163 80.0514 65.9305 80.0757C65.1432 80.2987 64.3739 80.3667 63.6224 80.2797C63.3375 80.2469 63.0622 80.175 62.7964 80.0642C62.5686 79.9691 62.3693 79.8367 62.1985 79.667C62.0493 79.5186 61.919 79.3214 61.8073 79.0753C61.6453 78.7188 61.5305 78.3212 61.4631 77.8824C61.326 76.9942 61.2127 76.1028 61.1232 75.2082C61.089 74.8666 61.028 74.5304 60.9401 74.1995C60.8593 73.8955 60.7249 73.6275 60.5371 73.3955C60.3605 73.1772 60.1324 73.0002 59.8529 72.8646C59.5526 72.7192 59.2312 72.6331 58.8888 72.6062C58.7734 72.5973 58.6591 72.5798 58.5458 72.5538C58.5179 72.5474 57.9726 72.5487 56.91 72.5576C56.9058 72.5576 56.9017 72.5584 56.8978 72.56C56.894 72.5617 56.8905 72.564 56.8875 72.567C56.8845 72.5699 56.8822 72.5735 56.8806 72.5774C56.879 72.5812 56.8782 72.5854 56.8782 72.5896L56.8744 79.754C56.8744 79.7655 56.8789 79.7766 56.8869 79.7847C56.8948 79.7929 56.9056 79.7974 56.9169 79.7974H58.9819C58.994 79.7974 59.0056 79.8021 59.0142 79.8104C59.0227 79.8187 59.0275 79.8299 59.0275 79.8416L59.0282 80.1364C59.0282 80.1444 59.0267 80.1523 59.0237 80.1596C59.0207 80.167 59.0163 80.1737 59.0106 80.1794C59.005 80.185 58.9983 80.1895 58.9909 80.1926C58.9835 80.1956 58.9756 80.1972 58.9675 80.1972H52.66C52.6416 80.1972 52.624 80.1906 52.611 80.1789C52.598 80.1671 52.5907 80.1512 52.5907 80.1345V79.8326C52.5907 79.8243 52.5948 79.8163 52.602 79.8105C52.6093 79.8046 52.6191 79.8013 52.6294 79.8013L54.6507 79.7974C54.6605 79.7974 54.6698 79.7935 54.6768 79.7864C54.6837 79.7793 54.6876 79.7697 54.6876 79.7597L54.6838 65.3932C54.6838 65.3849 54.6805 65.377 54.6745 65.3711C54.6685 65.3652 54.6604 65.3619 54.6519 65.3619L52.6219 65.3581C52.6105 65.3581 52.5995 65.3535 52.5914 65.3453C52.5833 65.3372 52.5788 65.3261 52.5788 65.3146V65.0447C52.5788 65.0303 52.5844 65.0166 52.5943 65.0064C52.6043 64.9963 52.6178 64.9905 52.6319 64.9903ZM60.9307 66.194C60.7299 66.0039 60.5377 65.8651 60.354 65.7777C59.7588 65.4954 59.104 65.3555 58.3896 65.3581C57.896 65.3559 57.4026 65.3572 56.9094 65.3619C56.9011 65.3619 56.8932 65.3653 56.8873 65.3713C56.8815 65.3773 56.8782 65.3854 56.8782 65.3939L56.8857 72.1099C56.8857 72.1185 56.889 72.1268 56.8949 72.133C56.9009 72.1392 56.909 72.1428 56.9175 72.1431C57.3195 72.1564 57.7217 72.16 58.124 72.154C58.9255 72.1877 59.6836 72.0248 60.3984 71.6653C60.8503 71.4381 61.1896 71.1093 61.4162 70.6791C61.6107 70.3098 61.7359 69.9136 61.7917 69.4906C61.835 69.1644 61.8436 68.8075 61.8173 68.4199C61.7932 68.0609 61.7317 67.7072 61.633 67.3588C61.5035 66.903 61.2694 66.5147 60.9307 66.194Z"
          fill="var(--current-color-1)"/>
    <path d="M66.7115 64.9903H72.6129C72.6262 64.9903 72.639 64.9954 72.6485 65.0047C72.6579 65.0139 72.6633 65.0264 72.6635 65.0395L72.6654 65.3184C72.6655 65.3236 72.6645 65.3287 72.6626 65.3335C72.6606 65.3383 72.6577 65.3427 72.6541 65.3464C72.6504 65.3501 72.646 65.353 72.6412 65.355C72.6364 65.357 72.6312 65.3581 72.626 65.3581L70.7803 65.3619C70.772 65.3619 70.7641 65.3653 70.7582 65.3713C70.7524 65.3773 70.7491 65.3854 70.7491 65.3939L70.7453 79.7469C70.7453 79.7605 70.7507 79.7735 70.7601 79.7831C70.7696 79.7927 70.7825 79.7981 70.7959 79.7981L72.6235 79.809C72.6282 79.809 72.6328 79.8098 72.6371 79.8114C72.6413 79.813 72.6452 79.8154 72.6485 79.8184C72.6517 79.8214 72.6543 79.8249 72.656 79.8288C72.6577 79.8326 72.6586 79.8368 72.6585 79.8409L72.6523 80.1614C72.6521 80.1699 72.6482 80.1781 72.6414 80.1841C72.6346 80.1901 72.6255 80.1934 72.616 80.1934H66.6878C66.6794 80.1934 66.6714 80.1901 66.6655 80.1842C66.6595 80.1784 66.6561 80.1704 66.6559 80.162L66.649 79.8416C66.6489 79.8358 66.65 79.8301 66.6521 79.8247C66.6542 79.8194 66.6573 79.8145 66.6613 79.8104C66.6652 79.8063 66.6699 79.803 66.6751 79.8008C66.6803 79.7986 66.6859 79.7974 66.6915 79.7974H68.5235C68.5328 79.7974 68.5417 79.7937 68.5482 79.787C68.5548 79.7802 68.5585 79.7711 68.5585 79.7616L68.5547 65.3939C68.5547 65.3854 68.5514 65.3773 68.5454 65.3713C68.5394 65.3653 68.5313 65.3619 68.5229 65.3619L66.7028 65.3581C66.6968 65.358 66.691 65.357 66.6855 65.3551C66.68 65.3532 66.6751 65.3504 66.6709 65.3469C66.6668 65.3433 66.6636 65.3392 66.6614 65.3346C66.6593 65.3301 66.6582 65.3252 66.6584 65.3203L66.6653 65.0287C66.6654 65.0184 66.6704 65.0086 66.679 65.0015C66.6877 64.9943 66.6994 64.9903 66.7115 64.9903Z"
          fill="var(--current-color-1)"/>
    <path d="M87.7634 64.9903H94.0722C94.0831 64.9903 94.0936 64.9947 94.1013 65.0026C94.1091 65.0106 94.1134 65.0213 94.1134 65.0325V65.3152C94.1134 65.3208 94.1123 65.3264 94.1102 65.3316C94.1081 65.3368 94.105 65.3415 94.1012 65.3455C94.0973 65.3495 94.0927 65.3526 94.0876 65.3548C94.0825 65.357 94.0771 65.3581 94.0716 65.3581H92.0359C92.0276 65.3581 92.0197 65.3614 92.0138 65.3674C92.008 65.3734 92.0047 65.3816 92.0047 65.39V79.7616C92.0047 79.7711 92.0084 79.7802 92.0149 79.787C92.0215 79.7937 92.0304 79.7974 92.0397 79.7974C93.2501 79.7974 94.4569 79.7974 95.6599 79.7974C95.9339 79.7672 96.2086 79.7456 96.484 79.7328C97.1888 79.7004 97.8538 79.5203 98.479 79.1924C98.639 79.1088 98.806 78.9802 98.9801 78.8067C99.0047 78.7824 99.0284 78.757 99.0514 78.7306C99.2767 78.4658 99.446 78.1598 99.5593 77.8127C99.7005 77.3808 99.7907 76.9377 99.8299 76.4836C99.8657 76.0712 99.8878 75.6583 99.8961 75.2446C99.8963 75.2339 99.8996 75.2237 99.9053 75.2162C99.911 75.2087 99.9187 75.2044 99.9267 75.2043L100.196 75.2012C100.202 75.2011 100.208 75.2023 100.213 75.2049C100.218 75.2074 100.223 75.2112 100.227 75.2159C100.231 75.2207 100.235 75.2263 100.237 75.2326C100.239 75.2388 100.24 75.2455 100.24 75.2523L100.252 80.1275C100.252 80.146 100.245 80.1637 100.232 80.1768C100.22 80.1899 100.202 80.1972 100.184 80.1972L87.7597 80.1934C87.7508 80.1934 87.7421 80.1904 87.7353 80.1848C87.7284 80.1792 87.7238 80.1713 87.7222 80.1627C87.7001 80.0518 87.6989 79.9405 87.7184 79.8288C87.7201 79.82 87.7247 79.812 87.7315 79.8063C87.7384 79.8005 87.747 79.7974 87.7559 79.7974H89.7828C89.7921 79.7974 89.801 79.7937 89.8076 79.787C89.8141 79.7802 89.8178 79.7711 89.8178 79.7616L89.8141 65.3939C89.8141 65.3854 89.8108 65.3773 89.8049 65.3713C89.7991 65.3653 89.7911 65.3619 89.7828 65.3619L87.7509 65.3581C87.7398 65.3581 87.7292 65.3536 87.7213 65.3457C87.7135 65.3378 87.7091 65.327 87.7091 65.3159V65.0459C87.7091 65.0386 87.7105 65.0314 87.7132 65.0246C87.7159 65.0179 87.7199 65.0118 87.725 65.0066C87.73 65.0014 87.736 64.9973 87.7426 64.9945C87.7492 64.9917 87.7563 64.9903 87.7634 64.9903Z"
          fill="var(--current-color-1)"/>
    <path d="M28.5478 85.2355L28.9258 85.4088C28.9295 85.4105 28.9327 85.413 28.9352 85.4162C28.9378 85.4193 28.9395 85.4231 28.9403 85.427C28.9411 85.4309 28.941 85.4349 28.9398 85.4387C28.9387 85.4424 28.9367 85.4458 28.9339 85.4485C28.751 85.6276 28.5773 85.7838 28.4128 85.9173C28.3562 85.9634 28.2953 85.9902 28.2304 85.9979C28.1583 86.006 28.0902 86.0069 28.026 86.0005C28.0193 85.9999 28.0128 85.9975 28.0072 85.9936C28.0016 85.9896 27.9971 85.9842 27.9942 85.9779C27.9913 85.9716 27.99 85.9647 27.9906 85.9578C27.9911 85.9508 27.9934 85.9442 27.9973 85.9384L28.459 85.2572C28.4681 85.2439 28.4819 85.2345 28.4981 85.2305C28.5143 85.2265 28.5318 85.2283 28.5478 85.2355Z"
          fill="var(--current-color-1)"/>
    <path d="M47.3497 85.2374L47.6952 85.2342C47.7062 85.2342 47.7167 85.2387 47.7244 85.2468C47.7321 85.2548 47.7365 85.2657 47.7365 85.2771L47.7327 89.116C47.7327 89.1249 47.7294 89.1333 47.7236 89.1396C47.7177 89.1458 47.7098 89.1493 47.7015 89.1493H47.3497C47.3411 89.1493 47.3328 89.1458 47.3267 89.1396C47.3207 89.1333 47.3172 89.1249 47.3172 89.116L47.3154 88.8596C47.3145 88.7619 47.2831 88.7493 47.221 88.8218C47.0177 89.0576 46.7795 89.1939 46.5062 89.2305C46.2959 89.2587 46.0963 89.2463 45.9076 89.1934C45.7689 89.1546 45.6444 89.0866 45.534 88.9894C45.437 88.9045 45.3449 88.7986 45.2578 88.6715C45.0971 88.4366 45.0121 88.1596 45.0029 87.8406C44.9933 87.5025 45.0664 87.2036 45.2222 86.9439C45.5088 86.4667 45.9303 86.2595 46.4869 86.3222C46.8147 86.3593 47.0765 86.5126 47.2722 86.7821C47.2922 86.8098 47.3024 86.8064 47.3029 86.7718L47.3185 85.27C47.3186 85.2613 47.322 85.253 47.3279 85.2469C47.3337 85.2408 47.3415 85.2374 47.3497 85.2374ZM45.7802 88.596C46.0222 88.8092 46.2786 88.8879 46.5493 88.8321C46.7539 88.7898 46.9246 88.6845 47.0617 88.5161C47.1791 88.3711 47.2589 88.1946 47.301 87.9865C47.3751 87.6219 47.2941 87.3074 47.0579 87.043C46.9026 86.8686 46.7234 86.7612 46.5206 86.7207C46.2886 86.6742 46.0703 86.7237 45.8658 86.8691C45.6658 87.0115 45.5417 87.2029 45.4934 87.4434C45.4538 87.6409 45.4505 87.8419 45.4834 88.0466C45.5188 88.27 45.6177 88.4532 45.7802 88.596Z"
          fill="var(--current-color-1)"/>
    <path d="M62.8052 85.231C62.9426 85.2319 63.0824 85.2434 63.2244 85.2655C63.2448 85.2685 63.2638 85.2781 63.2786 85.2929C63.2934 85.3077 63.3033 85.327 63.3069 85.3481C63.3565 85.6389 63.295 85.7342 63.1226 85.634C63.0793 85.6088 63.0116 85.5981 62.9195 85.602C62.7183 85.6105 62.5804 85.6981 62.5059 85.8649C62.4796 85.9241 62.4665 86.0069 62.4665 86.113C62.4665 86.1987 62.4665 86.2842 62.4665 86.3695C62.4665 86.378 62.4698 86.3861 62.4757 86.3921C62.4815 86.3981 62.4895 86.4015 62.4978 86.4015L63.2438 86.4047C63.2525 86.4049 63.2607 86.4085 63.2668 86.4147C63.2729 86.4209 63.2763 86.4293 63.2763 86.438V86.7175C63.2763 86.726 63.2729 86.7342 63.267 86.7403C63.261 86.7464 63.2529 86.7499 63.2444 86.7501L62.499 86.7533C62.4904 86.7533 62.4821 86.7567 62.476 86.7629C62.4699 86.769 62.4665 86.7773 62.4665 86.7859V89.1039C62.4665 89.113 62.4634 89.1219 62.4578 89.1288C62.4522 89.1357 62.4444 89.1403 62.4359 89.1416C62.3118 89.1625 62.1876 89.1615 62.0635 89.1384C62.0549 89.1368 62.0472 89.1319 62.0417 89.1248C62.0362 89.1176 62.0333 89.1087 62.0335 89.0994C62.0435 88.4948 62.0433 87.8899 62.0329 87.2848C62.0529 87.1194 62.0518 86.9541 62.0298 86.7891C62.0286 86.7801 62.0243 86.7717 62.0176 86.7656C62.011 86.7595 62.0024 86.7561 61.9935 86.7559L61.6986 86.7539C61.6886 86.7538 61.679 86.7504 61.6719 86.7444C61.6648 86.7385 61.6607 86.7304 61.6605 86.722L61.6518 86.3887C61.6517 86.3845 61.6526 86.3803 61.6545 86.3763C61.6564 86.3724 61.6591 86.3688 61.6627 86.3657C61.6662 86.3627 61.6705 86.3603 61.6751 86.3586C61.6798 86.357 61.6848 86.3561 61.6899 86.3561L61.9904 86.3555C62.0049 86.3553 62.0187 86.3494 62.0289 86.3391C62.0391 86.3288 62.0448 86.3149 62.0448 86.3004C62.0448 86.2032 62.0448 86.112 62.0448 86.0267C62.0448 85.9133 62.0546 85.8231 62.0741 85.7561C62.1299 85.5634 62.2395 85.4188 62.4028 85.3225C62.5069 85.2606 62.641 85.2302 62.8052 85.231Z"
          fill="var(--current-color-1)"/>
    <path d="M90.2127 85.2361L90.5551 85.2368C90.5667 85.2368 90.5778 85.2417 90.586 85.2504C90.5942 85.2592 90.5988 85.2711 90.5988 85.2835V89.0873C90.5988 89.0953 90.5974 89.1032 90.5946 89.1107C90.5918 89.1181 90.5877 89.1248 90.5825 89.1305C90.5773 89.1361 90.5712 89.1406 90.5645 89.1436C90.5577 89.1466 90.5505 89.1481 90.5432 89.148L90.204 89.1436C90.1946 89.1436 90.1857 89.1399 90.179 89.1333C90.1723 89.1267 90.1685 89.1178 90.1683 89.1084L90.1658 88.8359C90.165 88.7446 90.1379 88.7338 90.0846 88.8033C89.873 89.0796 89.6018 89.2224 89.2711 89.2318C89.0745 89.2374 88.9008 89.2197 88.75 89.1787C88.5934 89.1365 88.4476 89.0482 88.3126 88.9139C87.944 88.5476 87.8013 88.0782 87.8846 87.5055C87.9667 86.9384 88.2674 86.5544 88.7869 86.3535C88.8514 86.3288 88.9383 86.3164 89.0474 86.3164C89.1491 86.3164 89.2359 86.3186 89.308 86.3228C89.6441 86.3424 89.9159 86.4921 90.1234 86.7718C90.1367 86.7893 90.1433 86.7872 90.1433 86.7654L90.1596 85.2924C90.1598 85.2774 90.1654 85.2631 90.1754 85.2526C90.1853 85.242 90.1987 85.2361 90.2127 85.2361ZM88.6738 88.628C88.907 88.8186 89.1524 88.8839 89.4098 88.8237C89.6406 88.7696 89.8309 88.6363 89.9809 88.424C90.1225 88.2244 90.1904 87.9948 90.1846 87.7351C90.1808 87.5744 90.1471 87.4251 90.0834 87.2874C90.0138 87.1373 89.9188 87.0138 89.7984 86.917C89.5373 86.7081 89.2622 86.6529 88.9731 86.7514C88.796 86.8115 88.6498 86.9155 88.5344 87.0635C88.4145 87.2179 88.3456 87.3953 88.3276 87.5957C88.3106 87.7893 88.3239 87.973 88.3676 88.147C88.4168 88.341 88.5188 88.5014 88.6738 88.628Z"
          fill="var(--current-color-1)"/>
    <path d="M100.149 85.2412C100.156 85.2411 100.164 85.2426 100.171 85.2457C100.177 85.2488 100.184 85.2534 100.189 85.2593C100.194 85.2652 100.198 85.2723 100.201 85.28C100.204 85.2878 100.205 85.2961 100.205 85.3046L100.209 86.7981C100.209 86.8194 100.218 86.8237 100.235 86.8109C100.294 86.7652 100.363 86.6994 100.443 86.6132C100.561 86.487 100.7 86.4017 100.861 86.3574C100.995 86.3199 101.153 86.3045 101.333 86.3113C101.652 86.3228 101.921 86.4448 102.139 86.6772C102.323 86.8742 102.44 87.1083 102.49 87.3795C102.537 87.6319 102.539 87.8865 102.497 88.1432C102.427 88.5641 102.198 88.8883 101.811 89.116C101.702 89.18 101.582 89.2182 101.452 89.2305C101.343 89.2412 101.22 89.2421 101.083 89.2331C100.74 89.2101 100.466 89.0455 100.263 88.7393C100.229 88.6864 100.21 88.692 100.209 88.7559L100.202 89.116C100.202 89.1248 100.199 89.1332 100.193 89.1394C100.187 89.1456 100.179 89.1491 100.17 89.1493L99.8242 89.1506C99.8189 89.1507 99.8137 89.1497 99.8088 89.1476C99.8038 89.1456 99.7993 89.1425 99.7956 89.1386C99.7918 89.1348 99.7888 89.1302 99.7867 89.1251C99.7847 89.12 99.7836 89.1145 99.7836 89.109L99.7874 85.286C99.7874 85.2759 99.7905 85.2663 99.7961 85.2591C99.8017 85.2519 99.8093 85.2478 99.8174 85.2476L100.149 85.2412ZM100.592 88.628C100.9 88.8625 101.204 88.9105 101.504 88.7719C101.738 88.6636 101.903 88.4824 101.998 88.2283C102.091 87.9797 102.098 87.7134 102.019 87.4294C101.944 87.162 101.803 86.9633 101.596 86.8332C101.439 86.7352 101.271 86.6955 101.092 86.7143C100.936 86.7309 100.784 86.7949 100.637 86.9062C100.328 87.1381 100.19 87.4582 100.222 87.8662C100.234 88.0206 100.268 88.1596 100.324 88.2833C100.39 88.4274 100.479 88.5423 100.592 88.628Z"
          fill="var(--current-color-1)"/>
    <path d="M103.649 85.2345L103.284 85.2352C103.264 85.2352 103.248 85.2516 103.248 85.2717L103.255 89.1158C103.255 89.1359 103.271 89.1522 103.29 89.1522L103.655 89.1515C103.675 89.1515 103.691 89.1351 103.691 89.115L103.684 85.2709C103.684 85.2508 103.668 85.2345 103.649 85.2345Z"
          fill="var(--current-color-1)"/>
    <path d="M23.2731 85.3807C23.648 85.4455 23.9795 85.6235 24.2678 85.9148C24.2744 85.9215 24.2787 85.9302 24.2799 85.9394C24.2811 85.9485 24.2793 85.9577 24.2747 85.9653C24.2222 86.0548 24.138 86.1459 24.0222 86.2384C24.0081 86.2497 23.9905 86.2555 23.9727 86.2548C23.9548 86.2541 23.9378 86.2469 23.9248 86.2346C23.7769 86.0947 23.6146 85.9849 23.438 85.9052C22.929 85.6749 22.4646 85.7244 22.0447 86.0536C21.7256 86.3039 21.5405 86.6495 21.4892 87.0904C21.4405 87.5117 21.52 87.8778 21.7279 88.1886C21.9158 88.4696 22.159 88.6611 22.4577 88.763C22.7705 88.87 23.0985 88.8481 23.4418 88.6971C23.6534 88.6041 23.8356 88.4705 23.9885 88.2961C23.9916 88.2924 23.9952 88.2894 23.9993 88.2872C24.0033 88.2849 24.0076 88.2835 24.012 88.2829C24.0163 88.2824 24.0205 88.2828 24.0245 88.284C24.0284 88.2853 24.0319 88.2874 24.0347 88.2903L24.2497 88.5052C24.2694 88.5248 24.2799 88.5525 24.2789 88.5824C24.278 88.6123 24.2657 88.642 24.2447 88.6651C23.9343 89.005 23.5534 89.1939 23.1019 89.2318C22.837 89.2544 22.5989 89.2444 22.3877 89.2018C22.1474 89.1536 21.9262 89.0478 21.7242 88.8845C21.4813 88.6888 21.3012 88.4442 21.1837 88.1509C20.8942 87.4264 20.9469 86.7539 21.3418 86.1335C21.5613 85.7885 21.8543 85.5591 22.2209 85.4453C22.56 85.34 22.9107 85.3184 23.2731 85.3807Z"
          fill="var(--current-color-1)"/>
    <path d="M33.3226 85.554H33.6613C33.674 85.554 33.6863 85.5592 33.6953 85.5684C33.7043 85.5777 33.7094 85.5902 33.7094 85.6033V86.3593C33.7094 86.3705 33.7137 86.3812 33.7214 86.3891C33.7292 86.3971 33.7397 86.4015 33.7506 86.4015H34.536C34.5446 86.4015 34.5529 86.405 34.559 86.4112C34.5651 86.4175 34.5685 86.4259 34.5685 86.4348V86.7674C34.5685 86.7718 34.5676 86.7763 34.566 86.7804C34.5644 86.7845 34.562 86.7882 34.5591 86.7914C34.5561 86.7945 34.5526 86.7969 34.5487 86.7985C34.5449 86.8001 34.5407 86.8008 34.5366 86.8006L33.7581 86.7846C33.7518 86.7845 33.7454 86.7855 33.7395 86.7878C33.7336 86.7901 33.7282 86.7935 33.7237 86.7979C33.7192 86.8022 33.7155 86.8074 33.7131 86.8132C33.7106 86.8189 33.7094 86.8251 33.7094 86.8313V88.4745C33.7094 88.5508 33.7364 88.6152 33.7906 88.6677C33.8281 88.7035 33.8683 88.7344 33.9112 88.7604C33.9537 88.786 34.0012 88.8007 34.0536 88.8046C34.2015 88.8156 34.3417 88.7884 34.4741 88.7227C34.4777 88.721 34.4816 88.72 34.4855 88.7199C34.4894 88.7198 34.4933 88.7206 34.4969 88.7221C34.5004 88.7236 34.5036 88.7259 34.5061 88.7287C34.5087 88.7316 34.5105 88.735 34.5116 88.7387C34.5941 89.0252 34.5164 89.1809 34.2786 89.2056C34.1532 89.2188 34.0134 89.2175 33.8593 89.2018C33.639 89.1787 33.4751 89.0713 33.3676 88.8794C33.3143 88.7839 33.2876 88.6506 33.2876 88.4796C33.2876 87.9573 33.2876 87.417 33.2876 86.8588C33.2876 86.8425 33.2808 86.8268 33.2688 86.8152C33.2567 86.8036 33.2404 86.797 33.2233 86.7968L32.939 86.7936C32.9301 86.7936 32.9216 86.7898 32.9153 86.7831C32.909 86.7764 32.9054 86.7673 32.9052 86.7578L32.8984 86.4373C32.8983 86.433 32.8991 86.4287 32.9008 86.4247C32.9025 86.4206 32.905 86.417 32.9082 86.4139C32.9114 86.4108 32.9152 86.4083 32.9194 86.4066C32.9236 86.4049 32.9282 86.4041 32.9327 86.4041L33.2364 86.4034C33.25 86.4033 33.2631 86.3977 33.2726 86.388C33.2822 86.3783 33.2876 86.3652 33.2876 86.3516V85.5898C33.2876 85.5803 33.2913 85.5712 33.2979 85.5645C33.3044 85.5578 33.3133 85.554 33.3226 85.554Z"
          fill="var(--current-color-1)"/>
    <path d="M29.315 87.1006C29.4163 87.3569 29.461 87.6296 29.4494 87.9187C29.4489 87.9278 29.445 87.9365 29.4385 87.9428C29.432 87.9491 29.4234 87.9526 29.4144 87.9526H27.3581C27.3502 87.9525 27.3423 87.9543 27.3352 87.9577C27.328 87.9611 27.3216 87.9661 27.3165 87.9724C27.3114 87.9786 27.3078 87.9859 27.3058 87.9938C27.3038 88.0016 27.3035 88.0098 27.305 88.0178C27.3946 88.5052 27.6797 88.7832 28.1604 88.8519C28.1829 88.8553 28.2401 88.8527 28.3322 88.8442C28.6192 88.8173 28.8393 88.7188 28.9926 88.5487C29.0505 88.4847 29.1114 88.4818 29.1751 88.5397C29.328 88.6792 29.3552 88.7834 29.2569 88.8525C29.1857 88.9033 29.1501 88.9286 29.1501 88.9286C28.9189 89.1295 28.6488 89.2318 28.3397 89.2357C28.3223 89.236 28.3032 89.2435 28.2853 89.2568C28.2458 89.2858 28.2068 89.286 28.1685 89.2574C28.1504 89.2438 28.1308 89.2367 28.1135 89.2376C27.9365 89.244 27.7595 89.1954 27.5824 89.0917C27.193 88.8645 26.9599 88.5327 26.8833 88.0965C26.8833 88.0965 26.8833 87.9615 26.8833 87.6916C26.8833 87.5296 26.897 87.3961 26.9245 87.2912C27.0636 86.7591 27.3987 86.4358 27.9298 86.3216C28.2618 86.2499 28.5611 86.3015 28.8277 86.4763C29.0439 86.6179 29.2063 86.826 29.315 87.1006ZM28.6053 86.8454C28.4953 86.7576 28.3753 86.7053 28.2454 86.6887C28.1254 86.6738 28.0023 86.6966 27.8761 86.7571C27.5753 86.9017 27.3869 87.1676 27.3106 87.5547C27.3088 87.5641 27.309 87.5738 27.3112 87.5831C27.3134 87.5924 27.3176 87.6011 27.3235 87.6085C27.3293 87.6159 27.3367 87.6219 27.3451 87.626C27.3534 87.63 27.3626 87.6322 27.3719 87.6321L28.9489 87.6219C28.9531 87.6218 28.9572 87.6209 28.961 87.6192C28.9648 87.6175 28.9682 87.6151 28.971 87.612C28.9739 87.609 28.9761 87.6054 28.9776 87.6015C28.979 87.5976 28.9797 87.5934 28.9795 87.5893C28.967 87.2831 28.8423 87.0352 28.6053 86.8454Z"
          fill="var(--current-color-1)"/>
    <path d="M50.8731 86.9938C51.0059 87.2744 51.0659 87.5793 51.053 87.9084C51.0527 87.9172 51.0492 87.9255 51.0432 87.9316C51.0373 87.9377 51.0294 87.9411 51.0211 87.9411L48.9755 87.9526C48.9658 87.9526 48.9562 87.9549 48.9474 87.9592C48.9387 87.9636 48.931 87.9698 48.9249 87.9776C48.9188 87.9853 48.9146 87.9943 48.9124 88.0039C48.9102 88.0136 48.9102 88.0236 48.9124 88.0332C49.024 88.5142 49.3335 88.7898 49.8409 88.8602C49.8838 88.8664 49.9276 88.8576 49.9652 88.8353C49.9819 88.8255 50.0004 88.8246 50.0208 88.8327C50.0429 88.8413 50.0635 88.8436 50.0783 88.8391C50.2916 88.7734 50.4773 88.6613 50.6356 88.5027C50.6426 88.4957 50.651 88.4909 50.6601 88.4886C50.6692 88.4863 50.6784 88.4868 50.6869 88.4899C50.8027 88.5304 50.8841 88.609 50.9312 88.7259C50.9349 88.7348 50.9359 88.7447 50.9341 88.7544C50.9323 88.764 50.9278 88.773 50.9212 88.7802C50.6558 89.0702 50.3272 89.2244 49.9352 89.2427C49.9165 89.2435 49.8965 89.2487 49.8752 89.258C49.8556 89.2674 49.8352 89.2747 49.814 89.2798C49.7694 89.2909 49.6757 89.2749 49.5328 89.2318C48.8114 89.0139 48.4573 88.5129 48.4706 87.7287C48.4769 87.3637 48.5823 87.0452 48.7868 86.7731C48.9942 86.4981 49.2848 86.3437 49.6584 86.31C49.93 86.2857 50.1751 86.3348 50.3938 86.4572C50.5975 86.5706 50.7573 86.7495 50.8731 86.9938ZM49.9446 86.7149C49.6792 86.6365 49.4333 86.7139 49.2067 86.9471C49.053 87.1053 48.9547 87.3113 48.9118 87.565C48.9104 87.5733 48.9108 87.5819 48.913 87.5901C48.9151 87.5982 48.919 87.6058 48.9243 87.6123C48.9296 87.6187 48.9362 87.6239 48.9436 87.6275C48.9511 87.631 48.9592 87.6328 48.9674 87.6328H50.5363C50.5453 87.6328 50.5542 87.6308 50.5624 87.627C50.5706 87.6231 50.5778 87.6175 50.5837 87.6105C50.5896 87.6036 50.5939 87.5953 50.5964 87.5865C50.5989 87.5776 50.5995 87.5683 50.5981 87.5592C50.5686 87.3528 50.498 87.1752 50.3863 87.0264C50.2693 86.8708 50.122 86.7669 49.9446 86.7149Z"
          fill="var(--current-color-1)"/>
    <path d="M71.4139 86.7744C71.4157 86.7774 71.4182 86.7798 71.4212 86.7815C71.4242 86.7832 71.4276 86.7841 71.4311 86.7841C71.4346 86.7841 71.438 86.7832 71.4411 86.7815C71.4442 86.7798 71.4469 86.7774 71.4489 86.7744C71.5976 86.5582 71.7992 86.4113 72.0537 86.3337C72.1187 86.3137 72.2515 86.3066 72.4523 86.3126C72.6081 86.3173 72.736 86.3448 72.836 86.3951C73.0247 86.4893 73.1659 86.6305 73.2596 86.8185C73.3221 86.9439 73.3558 87.1305 73.3608 87.3782C73.3733 87.9377 73.376 88.5127 73.3689 89.1033C73.3687 89.1153 73.3642 89.1268 73.3564 89.1352C73.3485 89.1436 73.338 89.1482 73.3271 89.148L72.9753 89.1436C72.9669 89.1434 72.9589 89.1395 72.9529 89.1329C72.947 89.1262 72.9436 89.1172 72.9434 89.1077C72.9301 88.5095 72.9263 87.9112 72.9322 87.313C72.9005 87.0998 72.8103 86.9394 72.6616 86.832C72.5271 86.7347 72.3659 86.6981 72.178 86.722C71.8544 86.7629 71.6528 86.9708 71.5732 87.3456C71.5428 87.4876 71.5274 87.6364 71.527 87.792L71.5226 89.116C71.5226 89.1249 71.5194 89.1333 71.5136 89.1396C71.5079 89.1458 71.5001 89.1493 71.492 89.1493H71.1402C71.1318 89.1493 71.1236 89.1458 71.1177 89.1396C71.1117 89.1333 71.1083 89.1249 71.1083 89.116C71.1038 88.5203 71.1025 87.9247 71.1046 87.329C71.0325 86.9486 70.8359 86.745 70.5148 86.7181C70.3186 86.7019 70.1478 86.752 70.0024 86.8684C69.8437 86.9951 69.7529 87.1699 69.73 87.3929C69.7242 87.4513 69.7185 87.4978 69.7131 87.5324C69.7035 87.5942 69.699 87.6407 69.6994 87.6718C69.704 88.1507 69.7 88.6295 69.6875 89.1084C69.6873 89.1177 69.6839 89.1267 69.678 89.1333C69.672 89.1398 69.664 89.1435 69.6556 89.1436L69.3157 89.1487C69.3086 89.1488 69.3016 89.1473 69.295 89.1444C69.2884 89.1415 69.2824 89.1371 69.2774 89.1317C69.2723 89.1262 69.2683 89.1197 69.2655 89.1125C69.2628 89.1053 69.2614 89.0976 69.2614 89.0898L69.2651 86.4527C69.2651 86.4428 69.2683 86.4333 69.274 86.4262C69.2798 86.4192 69.2876 86.4151 69.2957 86.4149L69.6444 86.4085C69.6585 86.4082 69.6721 86.4143 69.6823 86.4255C69.6925 86.4366 69.6984 86.4519 69.6988 86.468C69.7008 86.5448 69.6996 86.6226 69.695 86.7015C69.6938 86.7258 69.6994 86.7411 69.7119 86.7475C69.7183 86.7508 69.7266 86.7499 69.735 86.745C69.7435 86.7402 69.7515 86.7317 69.7575 86.7213C69.8583 86.5465 69.9945 86.4288 70.1661 86.3682C70.3123 86.3167 70.4808 86.2972 70.6716 86.31C70.9807 86.3301 71.2281 86.4849 71.4139 86.7744Z"
          fill="var(--current-color-1)"/>
    <path d="M85.5653 86.9011C85.7299 87.1876 85.8007 87.5236 85.7778 87.9091C85.7773 87.9177 85.7737 87.9259 85.7676 87.9318C85.7616 87.9378 85.7536 87.9411 85.7453 87.9411L83.704 87.9532C83.6947 87.9532 83.6855 87.9553 83.6771 87.9594C83.6687 87.9635 83.6613 87.9694 83.6554 87.9768C83.6496 87.9842 83.6455 87.9928 83.6434 88.002C83.6413 88.0112 83.6413 88.0208 83.6434 88.03C83.7309 88.4167 83.9308 88.6717 84.2432 88.795C84.4327 88.87 84.6283 88.8792 84.8299 88.8225C85.0294 88.7666 85.2061 88.66 85.3598 88.5027C85.3667 88.4958 85.3752 88.4909 85.3844 88.4887C85.3935 88.4864 85.403 88.4868 85.4116 88.4899C85.532 88.5317 85.6161 88.6131 85.664 88.7342C85.6674 88.7429 85.6681 88.7526 85.666 88.762C85.6639 88.7715 85.6591 88.7803 85.6522 88.7873C85.2985 89.1514 84.8595 89.2996 84.3351 89.2318C84.0785 89.1986 83.8606 89.1022 83.6815 88.9427C83.4158 88.7056 83.2606 88.4197 83.216 88.085C83.1823 87.8308 83.1927 87.5833 83.2473 87.3424C83.3039 87.0908 83.426 86.8667 83.6134 86.6701C83.8029 86.471 84.0326 86.3523 84.3026 86.3139C84.8724 86.2324 85.2933 86.4282 85.5653 86.9011ZM84.948 86.8454C84.7585 86.6991 84.5617 86.6507 84.3576 86.7002C84.1772 86.7437 84.0206 86.8463 83.8877 87.0079C83.759 87.1652 83.6771 87.3588 83.6421 87.5886C83.6413 87.5941 83.6417 87.5996 83.6432 87.6049C83.6446 87.6102 83.6472 87.6151 83.6507 87.6193C83.6542 87.6235 83.6586 87.6269 83.6634 87.6292C83.6683 87.6315 83.6736 87.6327 83.679 87.6328L85.2842 87.6289C85.2882 87.6289 85.2923 87.6281 85.296 87.6265C85.2998 87.6249 85.3032 87.6225 85.306 87.6195C85.3089 87.6166 85.3111 87.613 85.3126 87.6091C85.3141 87.6053 85.3149 87.6011 85.3148 87.597C85.3081 87.2793 85.1859 87.0288 84.948 86.8454Z"
          fill="var(--current-color-1)"/>
    <path d="M106.239 86.4021C106.472 86.507 106.654 86.6857 106.784 86.9381C106.934 87.2294 107.006 87.5567 107 87.92C106.999 87.9287 106.996 87.937 106.99 87.9431C106.984 87.9492 106.975 87.9526 106.967 87.9526H104.883C104.879 87.9526 104.874 87.9536 104.87 87.9556C104.866 87.9576 104.862 87.9605 104.859 87.9641C104.857 87.9677 104.854 87.9719 104.853 87.9765C104.852 87.981 104.852 87.9857 104.853 87.9903C104.935 88.4406 105.177 88.7212 105.579 88.8321C105.676 88.8589 105.764 88.8687 105.842 88.8615C105.891 88.8572 105.976 88.8387 106.097 88.8058C106.276 88.7585 106.423 88.6666 106.54 88.5302C106.606 88.4534 106.667 88.4513 106.722 88.5238L106.876 88.724C106.881 88.7307 106.883 88.7397 106.882 88.7492C106.881 88.7587 106.877 88.7681 106.87 88.7758C106.652 89.0171 106.383 89.1691 106.063 89.2318C105.969 89.2199 105.88 89.2316 105.795 89.267C105.786 89.2706 105.777 89.2719 105.768 89.2709C105.758 89.2699 105.749 89.2666 105.741 89.2612C105.734 89.257 105.727 89.2529 105.719 89.2491C105.712 89.2457 105.704 89.244 105.695 89.244C105.339 89.2388 105.034 89.0922 104.778 88.8039C104.595 88.5971 104.481 88.3773 104.439 88.1445C104.41 87.9927 104.405 87.8151 104.424 87.6117C104.441 87.4189 104.481 87.2481 104.545 87.0993C104.736 86.6503 105.065 86.3913 105.53 86.3222C105.796 86.283 106.033 86.3096 106.239 86.4021ZM106.285 86.9733C106.093 86.755 105.877 86.6623 105.638 86.6951C105.438 86.7224 105.263 86.8202 105.113 86.9887C104.97 87.1507 104.887 87.3496 104.863 87.5854C104.862 87.5895 104.863 87.5936 104.864 87.5975C104.865 87.6014 104.867 87.605 104.87 87.6081C104.873 87.6112 104.876 87.6136 104.88 87.6153C104.883 87.6171 104.887 87.618 104.892 87.6181L106.497 87.6296C106.505 87.6296 106.513 87.6261 106.519 87.62C106.525 87.6139 106.529 87.6056 106.529 87.597C106.53 87.3663 106.449 87.1584 106.285 86.9733Z"
          fill="var(--current-color-1)"/>
    <path d="M37.5495 87.187C37.622 87.4134 37.6549 87.6575 37.6482 87.9193C37.648 87.9282 37.6445 87.9367 37.6383 87.9429C37.6321 87.9491 37.6238 87.9526 37.6151 87.9526H35.5638C35.5556 87.9526 35.5476 87.9545 35.5402 87.9581C35.5328 87.9617 35.5263 87.9669 35.5211 87.9734C35.5159 87.9799 35.5121 87.9874 35.5101 87.9956C35.5081 88.0037 35.5079 88.0122 35.5095 88.0204C35.5815 88.4131 35.7838 88.6724 36.1162 88.7982C36.2961 88.8664 36.4821 88.8792 36.6741 88.8365C36.8811 88.7909 37.0515 88.6948 37.1852 88.5481C37.2053 88.5261 37.2324 88.512 37.2616 88.5085C37.2908 88.505 37.3202 88.5122 37.3445 88.5289C37.4853 88.6252 37.5403 88.7105 37.5095 88.7847C37.4978 88.8124 37.4426 88.8653 37.3439 88.9434C37.1798 89.0738 36.9836 89.1647 36.7553 89.2158C36.3313 89.3109 35.9552 89.2376 35.6269 88.9958C35.3416 88.786 35.1606 88.4916 35.084 88.1125C35.084 88.1125 35.084 87.9846 35.084 87.7287C35.084 87.5722 35.095 87.4454 35.1171 87.3481C35.2112 86.9358 35.4318 86.6375 35.7788 86.4533C35.9999 86.3361 36.2318 86.2851 36.4742 86.3004C36.7395 86.3175 36.9709 86.4117 37.1683 86.5832C37.3425 86.735 37.4695 86.9362 37.5495 87.187ZM37.1265 87.6366C37.1364 87.6366 37.1463 87.6344 37.1554 87.6303C37.1644 87.6261 37.1725 87.62 37.179 87.6124C37.1855 87.6048 37.1904 87.5959 37.1932 87.5863C37.1959 87.5767 37.1967 87.5666 37.1952 87.5567C37.164 87.3281 37.0819 87.1354 36.949 86.9784C36.8232 86.8309 36.6783 86.7388 36.5142 86.7021C36.3313 86.6616 36.1511 86.7002 35.9737 86.8179C35.7229 86.9838 35.5694 87.2341 35.5132 87.5688C35.5119 87.5767 35.5124 87.5848 35.5145 87.5925C35.5165 87.6002 35.5202 87.6073 35.5253 87.6134C35.5303 87.6195 35.5366 87.6244 35.5437 87.6277C35.5508 87.6311 35.5585 87.6328 35.5663 87.6328L37.1265 87.6366Z"
          fill="var(--current-color-1)"/>
    <path d="M57.8273 86.3056C58.0968 86.297 58.3338 86.3587 58.5383 86.4904C58.7287 86.6132 58.8763 86.7966 58.9813 87.0405C59.0954 87.3057 59.1477 87.5989 59.1381 87.92C59.1378 87.9287 59.1342 87.937 59.128 87.9431C59.1218 87.9492 59.1136 87.9526 59.105 87.9526H57.0519C57.0435 87.9526 57.0352 87.9545 57.0276 87.9582C57.02 87.9619 57.0134 87.9673 57.0081 87.974C57.0028 87.9807 56.9991 87.9885 56.9971 87.9968C56.9952 88.0052 56.9951 88.0139 56.9969 88.0223C57.0769 88.4031 57.2714 88.6579 57.5805 88.7866C57.7633 88.863 57.9514 88.8792 58.1447 88.8353C58.3409 88.7905 58.5152 88.6943 58.6676 88.5468C58.7122 88.5041 58.7522 88.4839 58.7876 88.486C58.8334 88.4886 58.8694 88.5133 58.8957 88.5602C58.9061 88.579 58.9196 88.5935 58.9363 88.6037C59.0479 88.6741 59.0571 88.7542 58.9638 88.8442C58.7001 89.0975 58.3736 89.2348 57.9841 89.2561C57.5855 89.2779 57.2403 89.1378 56.9488 88.8359C56.793 88.6747 56.6853 88.4975 56.6257 88.3044C56.5749 88.1381 56.5508 87.9368 56.5533 87.7006C56.557 87.3509 56.6601 87.0471 56.8625 86.7891C57.1058 86.4795 57.4274 86.3184 57.8273 86.3056ZM58.6064 87.6366C58.6161 87.6366 58.6257 87.6345 58.6346 87.6304C58.6435 87.6263 58.6514 87.6204 58.6579 87.6129C58.6644 87.6055 58.6692 87.5968 58.6722 87.5873C58.6752 87.5778 58.6762 87.5678 58.6751 87.5579C58.646 87.3064 58.5527 87.1002 58.3952 86.9394C58.1911 86.7313 57.9676 86.6522 57.7248 86.7021C57.5386 86.7405 57.3788 86.8409 57.2456 87.0034C57.1218 87.1543 57.0394 87.3375 56.9981 87.5528C56.9962 87.5624 56.9964 87.5724 56.9987 87.5819C57.0011 87.5914 57.0055 87.6003 57.0116 87.608C57.0178 87.6156 57.0255 87.6218 57.0343 87.6261C57.0431 87.6304 57.0527 87.6327 57.0625 87.6328L58.6064 87.6366Z"
          fill="var(--current-color-1)"/>
    <path d="M78.528 86.3094C79.0112 86.3009 79.3328 86.5181 79.4927 86.9612C79.5298 87.0631 79.5558 87.1963 79.5708 87.3609C79.5767 87.4245 79.5754 88.0095 79.5671 89.116C79.5671 89.1247 79.5638 89.133 79.5579 89.1391C79.5521 89.1452 79.5441 89.1487 79.5359 89.1487L79.1835 89.1519C79.1743 89.1519 79.1656 89.1481 79.1592 89.1414C79.1527 89.1347 79.1491 89.1255 79.1491 89.116C79.1491 88.6444 79.1491 88.1873 79.1491 87.7447C79.1491 87.6697 79.1374 87.552 79.1141 87.3916C79.0929 87.2479 79.0614 87.1356 79.0198 87.0546C78.8744 86.7736 78.6311 86.6625 78.29 86.7213C77.968 86.7767 77.7597 86.9793 77.6652 87.329C77.6685 87.4057 77.6627 87.4812 77.6477 87.5554C77.6281 87.6513 77.6183 87.7255 77.6183 87.778C77.6183 88.2116 77.6183 88.6576 77.6183 89.116C77.6183 89.1255 77.6146 89.1347 77.608 89.1414C77.6015 89.1481 77.5926 89.1519 77.5833 89.1519H77.2284C77.22 89.1519 77.2119 89.1484 77.2059 89.1423C77.1999 89.1362 77.1965 89.1279 77.1965 89.1192L77.2003 86.4373C77.2003 86.4285 77.2036 86.42 77.2094 86.4138C77.2153 86.4076 77.2233 86.4041 77.2315 86.4041H77.5833C77.5913 86.4041 77.5991 86.4076 77.605 86.4139C77.6109 86.4202 77.6145 86.4288 77.6152 86.438L77.6339 86.7181C77.6356 86.7399 77.6433 86.742 77.657 86.7245C77.8711 86.4546 78.1615 86.3162 78.528 86.3094Z"
          fill="var(--current-color-1)"/>
    <path d="M54.8438 86.3152C54.9808 86.3211 55.1045 86.3512 55.2149 86.4053C55.579 86.584 55.8139 86.8552 55.9197 87.2189C56.0072 87.5204 56.0222 87.83 55.9647 88.1477C55.9051 88.4777 55.7437 88.7579 55.4804 88.9881C55.3588 89.0943 55.2178 89.1659 55.0574 89.203C54.9162 89.2354 54.763 89.2474 54.5976 89.2389C54.2356 89.2201 53.9413 89.0536 53.7147 88.7393C53.6893 88.7039 53.6764 88.7082 53.676 88.7521L53.6685 89.9635C53.6685 89.9678 53.6677 89.9721 53.6661 89.976C53.6645 89.98 53.6621 89.9836 53.6592 89.9866C53.6562 89.9896 53.6527 89.992 53.6488 89.9937C53.6449 89.9953 53.6408 89.9962 53.6366 89.9962L53.3036 90C53.2895 90 53.276 89.9941 53.266 89.9837C53.2561 89.9733 53.2505 89.9591 53.2505 89.9444V86.452C53.2505 86.4462 53.2515 86.4405 53.2535 86.4351C53.2555 86.4297 53.2583 86.4249 53.262 86.4208C53.2656 86.4168 53.2698 86.4136 53.2745 86.4115C53.2792 86.4094 53.2842 86.4084 53.2892 86.4085L53.6379 86.4149C53.6419 86.415 53.6458 86.416 53.6495 86.418C53.6531 86.42 53.6564 86.4228 53.6592 86.4264C53.6619 86.43 53.664 86.4342 53.6654 86.4388C53.6668 86.4434 53.6674 86.4484 53.6672 86.4533C53.6631 86.5723 53.6639 86.6507 53.6697 86.6887C53.6885 86.8094 53.7378 86.8243 53.8178 86.7335C54.0203 86.5036 54.2373 86.3697 54.4689 86.3318C54.5726 86.3147 54.6976 86.3092 54.8438 86.3152ZM54.628 88.8455C54.8764 88.8437 55.1138 88.7297 55.2881 88.5286C55.4624 88.3275 55.5592 88.0558 55.5573 87.7732C55.5563 87.6333 55.5312 87.4949 55.4832 87.3659C55.4353 87.237 55.3655 87.12 55.2778 87.0217C55.1902 86.9234 55.0864 86.8456 54.9724 86.7929C54.8584 86.7401 54.7364 86.7134 54.6134 86.7143C54.4904 86.7152 54.3688 86.7436 54.2556 86.798C54.1423 86.8523 54.0396 86.9316 53.9533 87.0311C53.867 87.1307 53.7988 87.2487 53.7526 87.3783C53.7065 87.5079 53.6832 87.6466 53.6841 87.7866C53.6861 88.0692 53.7866 88.3395 53.9636 88.5381C54.1406 88.7367 54.3796 88.8472 54.628 88.8455Z"
          fill="var(--current-color-1)"/>
    <path d="M65.3375 86.3363C65.6524 86.3823 65.9151 86.5307 66.1254 86.7814C66.3104 87.0015 66.4185 87.255 66.4497 87.5419C66.478 87.8042 66.4591 88.044 66.3929 88.2615C66.322 88.4931 66.186 88.7005 65.9848 88.8839C65.8203 89.0344 65.6452 89.1361 65.4594 89.189C65.2873 89.238 65.0926 89.254 64.8752 89.2369C64.5703 89.2135 64.3024 89.0958 64.0717 88.8839C63.8521 88.6826 63.7147 88.4197 63.6593 88.0952C63.5497 87.4569 63.7288 86.9497 64.1966 86.5736C64.3578 86.4439 64.5426 86.3638 64.7508 86.3331C64.9399 86.3054 65.1355 86.3064 65.3375 86.3363ZM65.1016 88.8432C65.2293 88.8359 65.3541 88.801 65.4691 88.7405C65.5841 88.68 65.687 88.5952 65.7718 88.4907C65.8566 88.3863 65.9218 88.2643 65.9636 88.1318C66.0053 87.9993 66.0229 87.8589 66.0152 87.7185C66.0075 87.5781 65.9748 87.4405 65.9189 87.3136C65.8629 87.1867 65.7849 87.073 65.6892 86.9789C65.5936 86.8848 65.4821 86.8121 65.3613 86.7652C65.2404 86.7182 65.1125 86.6978 64.9849 86.7051C64.7271 86.7198 64.486 86.8466 64.3147 87.0575C64.1434 87.2684 64.0558 87.5462 64.0713 87.8298C64.079 87.9701 64.1117 88.1077 64.1676 88.2346C64.2236 88.3615 64.3016 88.4753 64.3973 88.5694C64.4929 88.6635 64.6044 88.7361 64.7252 88.7831C64.8461 88.8301 64.974 88.8505 65.1016 88.8432Z"
          fill="var(--current-color-1)"/>
    <path d="M82.1751 86.4028C82.3571 86.4791 82.5264 86.6006 82.6831 86.7674C82.6965 86.7816 82.7042 86.8004 82.7044 86.8197C82.7047 86.839 82.6974 86.8572 82.6843 86.8703L82.4631 87.0904C82.4544 87.0992 82.4426 87.1042 82.4302 87.1043C82.4177 87.1044 82.4056 87.0997 82.3963 87.091C82.2863 86.9883 82.1761 86.9028 82.0657 86.8345C81.9441 86.7595 81.8148 86.719 81.6777 86.713C81.2545 86.6951 80.9536 86.8983 80.7749 87.3226C80.6528 87.6129 80.6432 87.9016 80.7461 88.1886C80.8349 88.4346 80.9986 88.6165 81.2372 88.7342C81.5205 88.8736 81.7889 88.8809 82.0426 88.7559C82.1543 88.7014 82.2861 88.6007 82.4381 88.454C82.4454 88.447 82.4546 88.4427 82.4637 88.442C82.4728 88.4413 82.4811 88.4442 82.4869 88.4502L82.7074 88.6811C82.7181 88.6925 82.7232 88.7086 82.7216 88.7259C82.7199 88.7431 82.7117 88.7601 82.6987 88.7732C82.475 88.9954 82.2238 89.1482 81.9451 89.2318C81.9451 89.2318 81.8098 89.2318 81.539 89.2318C81.3749 89.2318 81.242 89.2137 81.1404 89.1775C80.9779 89.119 80.8336 89.0318 80.7074 88.9159C80.4408 88.6715 80.2858 88.3611 80.2425 87.9846C80.2325 87.898 80.2327 87.7733 80.2431 87.6104C80.2519 87.4756 80.2763 87.355 80.3163 87.2484C80.5408 86.6531 80.9617 86.3416 81.579 86.3139C81.8089 86.3036 82.0076 86.3333 82.1751 86.4028Z"
          fill="var(--current-color-1)"/>
    <path d="M26.5096 86.3887L26.5202 86.8026C26.5204 86.8069 26.5195 86.8112 26.5177 86.8153C26.5159 86.8193 26.5132 86.8229 26.5098 86.8259C26.5064 86.8288 26.5023 86.8311 26.4979 86.8325C26.4934 86.8338 26.4887 86.8343 26.484 86.8339C26.2399 86.8113 26.0254 86.8763 25.8404 87.029C25.8104 87.0537 25.784 87.0716 25.7611 87.0827C25.7382 87.0934 25.7219 87.1053 25.7124 87.1185C25.5312 87.3633 25.4339 87.6392 25.4206 87.9462C25.4189 87.976 25.4108 88.0136 25.3962 88.0588C25.3841 88.0963 25.3783 88.1355 25.3787 88.1764C25.382 88.4749 25.3837 88.7881 25.3837 89.116C25.3837 89.1255 25.38 89.1347 25.3735 89.1414C25.3669 89.1481 25.358 89.1519 25.3487 89.1519H24.9938C24.9854 89.1519 24.9773 89.1484 24.9713 89.1423C24.9653 89.1362 24.962 89.1279 24.962 89.1192L24.9657 86.4373C24.9657 86.4286 24.9689 86.4202 24.9746 86.414C24.9803 86.4078 24.9881 86.4042 24.9963 86.4041L25.34 86.4021C25.351 86.4021 25.3615 86.4066 25.3693 86.4147C25.3772 86.4227 25.3817 86.4336 25.3818 86.445L25.3881 86.9228C25.3897 87.0162 25.4129 87.0226 25.4574 86.942C25.6811 86.5395 26.0196 86.3442 26.4728 86.3561C26.4824 86.3564 26.4916 86.3599 26.4984 86.366C26.5052 86.372 26.5093 86.3801 26.5096 86.3887Z"
          fill="var(--current-color-1)"/>
    <path d="M31.7749 86.4572C31.9857 86.548 32.1357 86.7051 32.2248 86.9286C32.2773 87.0599 32.3035 87.2665 32.3035 87.5483C32.3035 88.0647 32.3035 88.5881 32.3035 89.1186C32.3035 89.1274 32.3001 89.1359 32.294 89.1421C32.2879 89.1484 32.2797 89.1519 32.271 89.1519H31.9549C31.9439 89.1519 31.9333 89.1472 31.9255 89.139C31.9177 89.1307 31.9132 89.1195 31.913 89.1077L31.9093 88.857C31.9089 88.831 31.8999 88.8278 31.8824 88.8474C31.6991 89.05 31.4832 89.173 31.2345 89.2165C31.0308 89.2519 30.8375 89.254 30.6546 89.2229C30.4547 89.1892 30.2762 89.0956 30.1192 88.9421C30.0263 88.8512 29.9673 88.7453 29.9424 88.6242C29.9232 88.5325 29.9157 88.415 29.9199 88.2718C29.9257 88.0637 29.9957 87.8897 30.1298 87.7498C30.2335 87.6424 30.387 87.5622 30.5903 87.5093C31.0172 87.3985 31.4469 87.411 31.8793 87.5471C31.8814 87.5478 31.8837 87.5479 31.886 87.5476C31.8882 87.5472 31.8903 87.5463 31.8922 87.5449C31.894 87.5435 31.8955 87.5417 31.8965 87.5397C31.8975 87.5376 31.898 87.5353 31.898 87.533C31.8959 87.2661 31.8183 87.0629 31.665 86.9234C31.5363 86.8066 31.3528 86.748 31.1145 86.7475C30.8463 86.7471 30.5838 86.8096 30.3272 86.935C30.3188 86.9391 30.3095 86.9414 30.3001 86.9416C30.2907 86.9418 30.2813 86.94 30.2726 86.9361C30.2639 86.9323 30.2561 86.9267 30.2497 86.9195C30.2433 86.9123 30.2384 86.9039 30.2354 86.8947L30.1679 86.6874C30.1429 86.6102 30.1673 86.5563 30.241 86.5256C30.4939 86.4216 30.75 86.3638 31.0095 86.3523C31.3249 86.3386 31.58 86.3736 31.7749 86.4572ZM30.7934 88.8544C30.9462 88.9005 31.107 88.8988 31.2757 88.8493C31.7277 88.7159 31.9395 88.4076 31.9111 87.9244C31.9106 87.9151 31.9073 87.9063 31.9015 87.8991C31.8958 87.892 31.888 87.887 31.8793 87.8848C31.5881 87.8102 31.2922 87.7775 30.9914 87.7869C30.8327 87.792 30.709 87.8272 30.6203 87.8925C30.3266 88.1095 30.2614 88.3387 30.4247 88.58C30.5168 88.7165 30.6396 88.808 30.7934 88.8544Z"
          fill="var(--current-color-1)"/>
    <path d="M43.0672 86.3887L43.0779 86.8032C43.0779 86.8075 43.077 86.8118 43.0752 86.8157C43.0734 86.8197 43.0708 86.8232 43.0675 86.8261C43.0642 86.829 43.0603 86.8312 43.0561 86.8325C43.0518 86.8339 43.0473 86.8343 43.0429 86.8339C42.9046 86.8228 42.774 86.8388 42.6511 86.8819C42.5349 86.9232 42.4274 86.9938 42.3287 87.0936C42.1292 87.2961 42.0165 87.5505 41.9907 87.8566C41.9561 88.2609 41.9453 88.68 41.9582 89.1141C41.9584 89.119 41.9576 89.1239 41.9559 89.1285C41.9542 89.1331 41.9517 89.1372 41.9484 89.1407C41.9451 89.1443 41.9412 89.1471 41.9369 89.149C41.9326 89.1509 41.9279 89.1519 41.9232 89.1519L41.5652 89.1487C41.5527 89.1487 41.5408 89.1433 41.532 89.1337C41.5233 89.1241 41.5183 89.1111 41.5183 89.0975L41.5239 86.4533C41.5239 86.4434 41.527 86.4339 41.5326 86.4269C41.5383 86.4198 41.5459 86.4157 41.5539 86.4156L41.9226 86.4066C41.9317 86.4065 41.9405 86.4106 41.947 86.418C41.9536 86.4254 41.9574 86.4356 41.9576 86.4463L41.9594 86.9445C41.9599 87.0239 41.9784 87.0283 42.015 86.958C42.2312 86.5422 42.5699 86.3416 43.031 86.3561C43.0405 86.3564 43.0495 86.3599 43.0562 86.366C43.0629 86.372 43.0669 86.3801 43.0672 86.3887Z"
          fill="var(--current-color-1)"/>
    <path d="M61.3112 86.3887L61.325 86.7974C61.3252 86.8014 61.3245 86.8054 61.3228 86.8091C61.3212 86.8128 61.3187 86.8162 61.3156 86.819C61.3124 86.8219 61.3086 86.8241 61.3044 86.8255C61.3002 86.827 61.2957 86.8277 61.2912 86.8275C60.9997 86.8126 60.7601 86.8985 60.5727 87.0853C60.3865 87.2707 60.2776 87.5176 60.2459 87.8259C60.2047 88.2242 60.1905 88.6461 60.2034 89.0917C60.2037 89.0994 60.2025 89.107 60.1998 89.1141C60.1972 89.1213 60.1933 89.1278 60.1882 89.1333C60.1831 89.1388 60.177 89.1431 60.1703 89.1461C60.1636 89.1491 60.1564 89.1506 60.1491 89.1506L59.8198 89.1493C59.812 89.1493 59.8043 89.1477 59.7971 89.1445C59.7899 89.1413 59.7835 89.1366 59.778 89.1307C59.7726 89.1248 59.7684 89.1178 59.7656 89.1101C59.7628 89.1024 59.7614 89.0942 59.7617 89.086C59.7858 88.1918 59.7863 87.3136 59.7629 86.4514C59.7628 86.4454 59.7637 86.4394 59.7658 86.4338C59.7678 86.4281 59.7709 86.423 59.7749 86.4187C59.7788 86.4143 59.7836 86.4109 59.7888 86.4085C59.7941 86.4061 59.7997 86.4048 59.8054 86.4047L60.1616 86.4015C60.1722 86.4015 60.1825 86.406 60.1901 86.414C60.1977 86.422 60.202 86.4329 60.2022 86.4444L60.2041 86.9445C60.2045 87.0234 60.223 87.0279 60.2597 86.958C60.4767 86.5435 60.8153 86.3429 61.2756 86.3561C61.2849 86.3564 61.2938 86.3599 61.3004 86.366C61.307 86.372 61.3109 86.3801 61.3112 86.3887Z"
          fill="var(--current-color-1)"/>
    <path d="M68.6997 86.3887L68.7134 86.7974C68.7136 86.8014 68.7129 86.8054 68.7112 86.8091C68.7096 86.8128 68.7071 86.8162 68.7038 86.819C68.7006 86.8219 68.6967 86.8241 68.6925 86.8255C68.6882 86.827 68.6836 86.8277 68.6791 86.8275C68.3916 86.8126 68.1523 86.8985 67.9611 87.0853C67.782 87.2597 67.6687 87.4901 67.6212 87.7767C67.6012 87.8965 67.5858 88.3389 67.575 89.1039C67.5748 89.113 67.5716 89.1218 67.5657 89.1287C67.5599 89.1355 67.5519 89.1401 67.5431 89.1416C67.424 89.1625 67.3053 89.1615 67.187 89.1384C67.1784 89.1368 67.1706 89.132 67.165 89.125C67.1594 89.118 67.1564 89.1092 67.1564 89.1001V86.4373C67.1564 86.4285 67.1596 86.42 67.1653 86.4138C67.1711 86.4076 67.1789 86.4041 67.187 86.4041H67.5388C67.5477 86.4041 67.5562 86.4075 67.5626 86.4137C67.569 86.4199 67.5728 86.4284 67.5731 86.4373L67.5944 86.9305C67.5977 87.0059 67.6169 87.0111 67.6519 86.9458C67.871 86.5377 68.2082 86.3412 68.6634 86.3561C68.6729 86.3564 68.6819 86.3599 68.6887 86.366C68.6954 86.372 68.6993 86.3801 68.6997 86.3887Z"
          fill="var(--current-color-1)"/>
    <path d="M75.7951 86.4354C76.02 86.5169 76.1823 86.6727 76.2818 86.903C76.3397 87.0369 76.3687 87.24 76.3687 87.5125C76.3687 88.0408 76.3687 88.5762 76.3687 89.1186C76.3687 89.1274 76.3652 89.1359 76.3591 89.1421C76.353 89.1484 76.3448 89.1519 76.3362 89.1519H76.0338C76.0244 89.1519 76.0154 89.1486 76.0085 89.1425C76.0017 89.1365 75.9975 89.1282 75.9969 89.1192L75.9738 88.8583C75.9721 88.8344 75.9634 88.8308 75.9475 88.8474C75.7218 89.0858 75.4556 89.2165 75.149 89.2395C74.9416 89.2548 74.7562 89.2382 74.5929 89.1896C74.4042 89.1329 74.2451 89.0203 74.1156 88.8519C74.0552 88.7739 74.0173 88.6858 74.0019 88.5877C73.9914 88.5233 73.986 88.43 73.9856 88.3076C73.9844 88.0585 74.0662 87.8607 74.2312 87.714C74.3524 87.6065 74.5313 87.5292 74.7679 87.4818C75.1486 87.4059 75.5314 87.4236 75.9163 87.5349C75.9863 87.5554 76.0063 87.5396 75.9763 87.4876C75.9646 87.4675 75.9582 87.4479 75.9569 87.4287C75.9398 87.1571 75.8349 86.965 75.642 86.8524C75.4904 86.7642 75.2921 86.7305 75.0472 86.7514C74.8302 86.7697 74.6127 86.8298 74.3949 86.9318C74.3858 86.936 74.3755 86.9369 74.3658 86.934C74.3562 86.9312 74.3479 86.925 74.3424 86.9164C74.267 86.7962 74.232 86.687 74.2374 86.5889C74.2378 86.5795 74.2409 86.5703 74.2464 86.5624C74.252 86.5545 74.2597 86.5482 74.2687 86.5441C74.514 86.4311 74.7677 86.3678 75.0297 86.3542C75.3446 86.338 75.5997 86.3651 75.7951 86.4354ZM74.6679 88.7713C74.7562 88.8357 74.8597 88.8704 74.9784 88.8756C75.6362 88.9037 75.9746 88.5852 75.9938 87.92C75.994 87.9137 75.9921 87.9075 75.9885 87.9025C75.9848 87.8975 75.9796 87.8939 75.9738 87.8925C75.7022 87.8208 75.4273 87.7856 75.149 87.7869C74.9978 87.7873 74.8762 87.8059 74.7841 87.8426C74.6538 87.8946 74.5532 87.9752 74.4823 88.0843C74.3807 88.2417 74.3711 88.3916 74.4536 88.534C74.5077 88.6274 74.5792 88.7065 74.6679 88.7713Z"
          fill="var(--current-color-1)"/>
    <path d="M96.2134 86.3977L96.2203 86.8013C96.2203 86.8058 96.2194 86.8104 96.2176 86.8145C96.2157 86.8187 96.213 86.8225 96.2096 86.8255C96.2062 86.8286 96.2021 86.8309 96.1977 86.8324C96.1933 86.8338 96.1887 86.8343 96.1841 86.8339C96.0887 86.8262 95.9962 86.8311 95.9066 86.8486C95.8204 86.8657 95.7357 86.9008 95.6524 86.9541C95.3141 87.1695 95.1344 87.5023 95.1131 87.9526C95.0886 88.4762 95.0769 88.864 95.0781 89.116C95.0781 89.1247 95.0748 89.133 95.0688 89.1391C95.0628 89.1452 95.0547 89.1487 95.0463 89.1487L94.6914 89.1519C94.6831 89.1519 94.6752 89.1485 94.6693 89.1425C94.6634 89.1365 94.6601 89.1284 94.6601 89.1199L94.6639 86.4533C94.6639 86.4434 94.6671 86.4339 94.6728 86.4269C94.6785 86.4198 94.6863 86.4157 94.6945 86.4156L95.0481 86.4073C95.0525 86.4071 95.0569 86.4079 95.0609 86.4098C95.065 86.4116 95.0687 86.4143 95.0719 86.4178C95.075 86.4214 95.0776 86.4256 95.0793 86.4303C95.081 86.4349 95.0819 86.4399 95.0819 86.445V86.917C95.0819 87.0049 95.1033 87.0106 95.1463 86.9343C95.26 86.7313 95.4376 86.5657 95.6792 86.4373C95.8263 86.3597 95.9929 86.3341 96.1791 86.3606C96.1886 86.362 96.1973 86.3665 96.2036 86.3733C96.2099 86.3801 96.2134 86.3888 96.2134 86.3977Z"
          fill="var(--current-color-1)"/>
    <path d="M98.3978 86.4444C98.6206 86.5309 98.7791 86.6895 98.8733 86.9202C98.9283 87.055 98.9557 87.2673 98.9557 87.5573C98.9557 88.0707 98.9557 88.5911 98.9557 89.1186C98.9557 89.1274 98.9523 89.1359 98.9462 89.1421C98.9401 89.1484 98.9319 89.1519 98.9232 89.1519H98.5984C98.5896 89.1519 98.5811 89.1482 98.5749 89.1416C98.5687 89.135 98.5652 89.126 98.5652 89.1167L98.5627 88.8839C98.5628 88.8801 98.5619 88.8765 98.5601 88.8732C98.5584 88.87 98.5558 88.8672 98.5527 88.8652C98.5497 88.8631 98.5461 88.8619 98.5424 88.8616C98.5387 88.8613 98.5349 88.8619 98.5315 88.8634C98.4965 88.8792 98.4665 88.9016 98.4415 88.9306C98.4057 88.9719 98.3801 88.9979 98.3647 89.0086C98.1776 89.1408 97.9742 89.216 97.7542 89.2344C97.5643 89.2506 97.3975 89.2427 97.2537 89.2107C97.0892 89.174 96.9368 89.0917 96.7964 88.9638C96.7027 88.879 96.6396 88.7834 96.6071 88.6773C96.5846 88.6026 96.5723 88.492 96.5702 88.3453C96.5635 87.8792 96.7924 87.595 97.2569 87.4927C97.6655 87.4027 98.0956 87.4187 98.5471 87.5407C98.5696 87.5466 98.5761 87.5394 98.5665 87.5189L98.5502 87.4844C98.5398 87.4614 98.5344 87.4415 98.534 87.4249C98.5307 87.2241 98.4667 87.0624 98.3422 86.9401C98.2401 86.8394 98.095 86.7791 97.9067 86.7591C97.583 86.7245 97.2664 86.7857 96.957 86.9426C96.9524 86.945 96.9474 86.9464 96.9423 86.9467C96.9373 86.9471 96.9322 86.9464 96.9276 86.9447C96.9229 86.943 96.9187 86.9404 96.9153 86.9369C96.9118 86.9335 96.9092 86.9293 96.9076 86.9247L96.8089 86.6548C96.8006 86.6325 96.8019 86.6075 96.8125 86.5849C96.8231 86.5624 96.8422 86.5441 96.8657 86.5339C97.114 86.4269 97.3691 86.367 97.6311 86.3542C97.9477 86.3393 98.2033 86.3693 98.3978 86.4444ZM97.5124 88.873C97.7128 88.9152 97.9063 88.8896 98.0929 88.7962C98.4182 88.6329 98.5752 88.3442 98.564 87.9302C98.5636 87.9206 98.5603 87.9114 98.5544 87.9039C98.5486 87.8964 98.5405 87.8911 98.5315 87.8886C98.3761 87.8473 98.228 87.8193 98.0872 87.8048C97.9056 87.7856 97.7661 87.7788 97.6686 87.7844C97.5732 87.7899 97.4799 87.808 97.3887 87.8387C97.2975 87.8694 97.219 87.92 97.1532 87.9903C96.9615 88.1959 96.937 88.3986 97.0794 88.5986C97.1815 88.7423 97.3258 88.8338 97.5124 88.873Z"
          fill="var(--current-color-1)"/>
    <path d="M38.3211 86.4047L38.6735 86.4015C38.6826 86.4015 38.6914 86.4053 38.6978 86.412C38.7043 86.4187 38.7079 86.4278 38.7079 86.4373C38.7062 86.9354 38.7069 87.4232 38.7098 87.9008C38.7114 88.1536 38.7421 88.3402 38.8016 88.4604C38.9083 88.6754 39.082 88.799 39.3227 88.8314C39.5202 88.8579 39.6955 88.8191 39.8488 88.715C40.0125 88.6041 40.1216 88.4406 40.1762 88.2244C40.2045 88.1127 40.2204 87.9792 40.2237 87.824C40.2337 87.4031 40.2387 86.9567 40.2387 86.4847C40.2387 86.4658 40.2451 86.4478 40.2566 86.4345C40.2681 86.4211 40.2837 86.4137 40.2999 86.4137H40.5948C40.603 86.4137 40.6107 86.4178 40.6165 86.4253C40.6222 86.4327 40.6255 86.4428 40.6255 86.4533V89.116C40.6255 89.1248 40.6221 89.1331 40.6162 89.1393C40.6102 89.1456 40.6021 89.1491 40.5936 89.1493L40.2699 89.1512C40.2613 89.1512 40.2531 89.1476 40.247 89.1411C40.2409 89.1346 40.2374 89.1258 40.2374 89.1167L40.2381 88.8839C40.2385 88.796 40.2106 88.7866 40.1543 88.8557C40.0094 89.0323 39.8455 89.1467 39.6626 89.1992C39.5047 89.2448 39.3152 89.2538 39.094 89.2261C38.6621 89.1723 38.394 88.9011 38.2899 88.4125C38.2778 88.3545 38.2778 87.6961 38.2899 86.4373C38.2899 86.4287 38.2932 86.4204 38.299 86.4143C38.3049 86.4081 38.3128 86.4047 38.3211 86.4047Z"
          fill="var(--current-color-1)"/>
    <path d="M91.8035 86.4053C91.8119 86.4052 91.8201 86.4087 91.8262 86.415C91.8323 86.4214 91.8358 86.4301 91.836 86.4392C91.8481 86.9535 91.8529 87.4584 91.8503 87.9539C91.8491 88.1718 91.8751 88.3366 91.9285 88.4483C92.0372 88.6768 92.2188 88.8054 92.4733 88.834C92.6499 88.8536 92.8107 88.8212 92.9556 88.7368C93.1164 88.6425 93.2264 88.5037 93.2855 88.3204C93.3551 88.105 93.3849 87.8332 93.3749 87.5048C93.3641 87.1526 93.3651 86.8008 93.378 86.4495C93.3783 86.4395 93.3818 86.43 93.3877 86.423C93.3936 86.416 93.4016 86.412 93.4099 86.4117L93.7198 86.4085C93.7243 86.4085 93.7287 86.4094 93.7329 86.4112C93.7371 86.4131 93.7408 86.4159 93.744 86.4194C93.7472 86.4229 93.7498 86.4271 93.7515 86.4317C93.7533 86.4363 93.7542 86.4413 93.7542 86.4463V89.1013C93.7542 89.107 93.7532 89.1126 93.7512 89.1179C93.7493 89.1231 93.7465 89.1279 93.7429 89.1319C93.7394 89.1359 93.7352 89.139 93.7306 89.1411C93.726 89.1432 93.721 89.1443 93.716 89.1442L93.398 89.1391C93.3905 89.1389 93.3833 89.1348 93.3781 89.1276C93.3728 89.1204 93.3699 89.1108 93.3699 89.1007L93.3705 88.8826C93.3705 88.7828 93.3393 88.7743 93.2768 88.857C93.1406 89.0374 92.9808 89.1529 92.7976 89.2037C92.6459 89.2455 92.4602 89.254 92.2402 89.2293C91.9037 89.1913 91.6635 89.0197 91.5198 88.7144C91.4582 88.5839 91.4242 88.401 91.418 88.1656C91.4034 87.5921 91.4046 87.0185 91.4217 86.445C91.4221 86.4356 91.4256 86.4267 91.4317 86.4201C91.4377 86.4135 91.4458 86.4099 91.4542 86.4098L91.8035 86.4053Z"
          fill="var(--current-color-1)"/>
</svg>
