<svg id="logo" viewBox="0 0 128 128" fill="none" xmlns="http://www.w3.org/2000/svg">
    <path fill-rule="evenodd" clip-rule="evenodd"
          d="M111 48.2136L109.679 46C93.502 50.2764 79.6702 62.1853 95.179 67.7784C91.7667 71.3333 89.5937 75.4346 87.5453 80.1544L91.5403 82C93.7047 76.4395 96.1436 71.646 99.4278 68.568C108.931 69.5847 107.983 64.2746 104.37 63.5874C101.861 63.1103 99.8362 64.1614 98.2812 65.1991C84.8848 62.8664 97.3894 52.1176 111 48.2136Z"
          fill="var(--current-color-1)"/>
    <path fill-rule="evenodd" clip-rule="evenodd"
          d="M81.2917 60.7428L77.7276 68.0423L74.3356 60.7428H70.9766L76.0161 71.5477L74.0026 75.6714H77.3616L84.6509 60.7428H81.2917Z"
          fill="var(--current-color-1)"/>
    <path fill-rule="evenodd" clip-rule="evenodd"
          d="M47.6133 60.7428V59.9772C47.6133 59.4919 47.6646 58.8993 47.9492 58.557C48.8992 57.4146 50.7885 58.1046 51.2111 58.226C51.2468 58.1993 51.2604 58.1891 51.296 58.1624V55.6911C51.296 55.6911 47.6117 54.5585 45.6337 56.5838C44.978 57.255 44.542 58.324 44.542 59.9772V60.7428H42.9105V63.1714H44.542V72.3264H47.6133V63.1714H54.3427L53.1778 64.3836V72.3264H56.249V60.7428H47.6133Z"
          fill="var(--current-color-1)"/>
    <path fill-rule="evenodd" clip-rule="evenodd"
          d="M54.7374 55.5164C54.1773 55.5164 53.7178 55.6771 53.3577 55.9979C52.9979 56.3191 52.8179 56.7301 52.8179 57.2312C52.8179 57.7326 52.9979 58.1473 53.3577 58.4762C53.7178 58.8051 54.1773 58.9696 54.7374 58.9696C55.2972 58.9696 55.7573 58.8051 56.1171 58.4762C56.477 58.1473 56.657 57.7326 56.657 57.2312C56.657 56.7301 56.477 56.3191 56.1171 55.9979C55.7573 55.6771 55.2972 55.5164 54.7374 55.5164Z"
          fill="var(--current-color-1)"/>
    <path fill-rule="evenodd" clip-rule="evenodd"
          d="M36.4317 70.0312C34.6245 70.0312 33.1594 68.4642 33.1594 66.531C33.1594 64.598 34.6245 63.0308 36.4317 63.0308C38.239 63.0308 39.7041 64.598 39.7041 66.531C39.7041 68.4642 38.239 70.0312 36.4317 70.0312ZM36.4317 60.4234C32.9863 60.4234 30.1931 63.1578 30.1931 66.531C30.1931 69.9042 32.9863 72.6388 36.4317 72.6388C39.8772 72.6388 42.6702 69.9042 42.6702 66.531C42.6702 63.1578 39.8772 60.4234 36.4317 60.4234Z"
          fill="var(--current-color-1)"/>
    <path fill-rule="evenodd" clip-rule="evenodd"
          d="M63.7037 70.0312C61.8965 70.0312 60.4314 68.4642 60.4314 66.531C60.4314 64.598 61.8965 63.0308 63.7037 63.0308C65.511 63.0308 66.9761 64.598 66.9761 66.531C66.9761 68.4642 65.511 70.0312 63.7037 70.0312ZM66.9098 61.7176C66.0498 60.8777 64.8766 60.4234 63.7037 60.4234C60.2583 60.4234 57.4651 63.1578 57.4651 66.531C57.4651 69.9042 60.2583 72.6388 63.7037 72.6388C65.1655 72.6388 66.4349 72.1267 67.3004 71.0994L67.7321 72.3265H69.981V55.867H66.9098V61.7176Z"
          fill="var(--current-color-1)"/>
    <path fill-rule="evenodd" clip-rule="evenodd"
          d="M26.8361 63.9918C26.162 63.6235 25.4076 63.2969 24.5916 63.0203C23.8302 62.7774 23.1425 62.5452 22.548 62.3305C21.9612 62.1189 21.492 61.8551 21.1537 61.5463C20.8209 61.2429 20.6523 60.8251 20.6523 60.3043C20.6523 59.6945 20.871 59.2234 21.3025 58.9047C21.7425 58.5797 22.2876 58.4243 22.9317 58.4425C23.6809 58.4425 24.2737 58.6583 24.6935 59.0836C25.0873 59.4833 25.306 59.9474 25.3431 60.463L25.3535 60.7428H28.6727L28.6676 60.4516C28.6206 59.5366 28.3624 58.7339 27.9001 58.0657C27.4187 57.3709 26.747 56.8227 25.9038 56.4368C25.0612 56.0517 24.0769 55.8565 22.9775 55.8565C21.8933 55.8565 20.9204 56.0478 20.0866 56.4252C19.2511 56.8034 18.5834 57.3437 18.102 58.0311C17.6198 58.7196 17.3833 59.5544 17.3991 60.5109C17.3993 61.6406 17.7406 62.5589 18.413 63.2404C19.082 63.9187 20.0661 64.4807 21.3384 64.9108L23.5493 65.6478C24.2293 65.8747 24.7813 66.1735 25.1899 66.5358C25.5924 66.8931 25.7965 67.3998 25.7965 68.0419C25.7965 68.6531 25.5653 69.1476 25.1094 69.5121C24.6509 69.879 24.0206 70.0649 23.236 70.0649C22.3289 70.0649 21.6088 69.8104 21.0962 69.3082C20.6055 68.828 20.3318 68.2307 20.2828 67.5329L20.2578 67.1248H17L17.0028 67.542C17.0334 68.5961 17.3123 69.5059 17.8316 70.2462C18.3675 71.0105 19.1106 71.6053 20.0401 72.0136C20.9679 72.4213 22.0512 72.6281 23.2597 72.6281C24.5164 72.6281 25.5926 72.4055 26.4583 71.9662C27.3254 71.5264 27.989 70.9351 28.4309 70.2091C28.8726 69.4825 29.0967 68.6837 29.0967 67.8348C29.0967 66.8778 28.888 66.0822 28.4769 65.4703C28.0661 64.8598 27.5141 64.3624 26.8361 63.9918Z"
          fill="var(--current-color-1)"/>
</svg>
