<svg id="logo" viewBox="0 0 128 128" fill="none" xmlns="http://www.w3.org/2000/svg">
    <path d="M23.9871 60.409C22.4477 62.6782 18.9208 66.4999 13.4132 67.3425V68.3111C13.4128 68.5896 13.466 68.8656 13.57 69.123C13.674 69.3805 13.8266 69.6144 14.0192 69.8116C14.2117 70.0087 14.4404 70.1651 14.6921 70.2718C14.9439 70.3785 15.2138 70.4335 15.4863 70.4335H32.2862C32.8369 70.4335 33.365 70.2099 33.7545 69.8119C34.1439 69.4139 34.3627 68.8739 34.3627 68.3111V66.0804C31.1231 61.3076 26.2928 60.4824 23.9871 60.409Z"
          fill="var(--current-color-1)"/>
    <path d="M15.4869 49C15.2121 48.9986 14.9397 49.0532 14.6856 49.1603C14.4316 49.2675 14.2009 49.4252 14.007 49.6244C13.8132 49.8235 13.66 50.0601 13.5564 50.3203C13.4528 50.5804 13.4008 50.859 13.4036 51.1399V65.1084C17.5086 64.4091 20.2453 61.8182 21.8839 59.5875C20.7926 58.07 18.788 54.4301 19.609 49.035L15.4869 49Z"
          fill="var(--current-color-1)"/>
    <path d="M21.8631 49.035C20.9874 53.7517 22.8655 56.8426 23.7617 58.0698C26.3924 58.1223 30.7745 58.8915 34.3664 62.4194V51.1399C34.3687 50.8594 34.3165 50.5813 34.213 50.3216C34.1094 50.0618 33.9565 49.8255 33.7631 49.6266C33.5697 49.4276 33.3397 49.2697 33.0862 49.1622C32.8328 49.0546 32.561 48.9995 32.2865 49L21.8631 49.035Z"
          fill="var(--current-color-1)"/>
    <path d="M15.8632 77.6014C15.8632 78.5525 15.3262 79 14.4333 79C13.5405 79 13 78.5455 13 77.6014V75.4232H13.7457V77.6014C13.7457 77.986 13.8347 78.3495 14.4299 78.3495C14.9465 78.3495 15.1141 78.1119 15.1141 77.6014V75.4232H15.8461L15.8632 77.6014Z"
          fill="var(--current-color-1)"/>
    <path d="M16.4826 75.4437H17.2181L18.6104 77.783H18.6309V75.4437H19.3151V78.9402H18.5796L17.1839 76.5976H17.1668V78.9402H16.4826V75.4437Z"
          fill="var(--current-color-1)"/>
    <path d="M19.9782 75.4437H22.4823V76.0836H20.7103V76.8318H22.3386V77.4158H20.7103V78.2758H22.52V78.9157H19.9782V75.4437Z"
          fill="var(--current-color-1)"/>
    <path d="M24.326 75.4438H26.6864V76.0837H25.0786V76.888H26.4743V77.4893H25.0786V78.9368H24.3499V75.4403L24.326 75.4438Z"
          fill="var(--current-color-1)"/>
    <path d="M27.0865 75.4437H27.8186V78.9402H27.0865V75.4437Z" fill="var(--current-color-1)"/>
    <path d="M28.4754 75.4437H29.2109V78.2758H30.8495V78.9157H28.4857L28.4754 75.4437Z" fill="var(--current-color-1)"/>
    <path d="M31.2673 75.4437H32.0028V78.9402H31.2673V75.4437Z" fill="var(--current-color-1)"/>
    <path d="M33.5591 75.4437H34.3083L35.5603 78.9402H34.8111L34.5614 78.171H33.306L33.0391 78.9402H32.2865L33.5591 75.4437ZM33.4873 77.5802H34.363L33.9285 76.3144L33.4873 77.5802Z"
          fill="var(--current-color-1)"/>
    <path d="M35.8645 75.4437H36.6V78.2758H38.2283V78.9157H35.8645V75.4437Z" fill="var(--current-color-1)"/>
    <path d="M38.6391 75.4437H41.1432V76.0836H39.3711V76.8318H40.9995V77.4158H39.3711V78.2758H41.1808V78.9157H38.6391V75.4437Z"
          fill="var(--current-color-1)"/>
    <path d="M42.9869 75.4437H44.4374C45.296 75.4437 45.9563 76.0102 45.9563 77.1605C45.9563 78.1675 45.4568 78.9088 44.4374 78.9088H42.9869V75.4437ZM43.719 78.2758H44.3826C44.8102 78.2758 45.2242 78.0031 45.2242 77.2269C45.2242 76.5276 44.9916 76.0765 44.2561 76.0765H43.7395V78.2689L43.719 78.2758Z"
          fill="var(--current-color-1)"/>
    <path d="M49.3024 77.6014C49.3024 78.5525 48.7653 79 47.8724 79C46.9796 79 46.4391 78.5455 46.4391 77.6014V75.4232H47.1746V77.6014C47.1746 77.986 47.2635 78.3495 47.8588 78.3495C48.3753 78.3495 48.5429 78.1119 48.5429 77.6014V75.4232H49.2784V77.6014H49.3024Z"
          fill="var(--current-color-1)"/>
    <path d="M45.2416 61.93C45.2416 64.0488 43.5791 64.965 41.8584 64.965C40.9299 65.0046 40.0158 64.7212 39.2654 64.1609L39.1388 64.0665L39.929 62.5874L40.0522 62.6609L40.1069 62.6957C40.636 63.1274 41.2909 63.3663 41.9679 63.3741C42.8436 63.3532 43.5586 62.9894 43.5586 62.1118C43.5586 61.36 43.0044 61.0628 42.3065 60.7586L41.5197 60.43C40.3943 59.9335 39.4262 59.1854 39.4262 57.6854V57.6678C39.4262 56.0384 40.7672 54.8322 42.5768 54.8322C43.4567 54.7958 44.3259 55.0402 45.0638 55.5315L45.1869 55.6223L44.3454 57.1049L44.2393 57.0315L44.1846 56.9755C43.7352 56.5727 43.1537 56.358 42.5562 56.3742C41.4479 56.3917 41.1263 56.9964 41.1092 57.5244V57.563C41.1092 58.1853 41.6463 58.493 42.2518 58.7517L43.042 59.1014C44.2222 59.6258 45.2587 60.3741 45.2416 61.93Z"
          fill="var(--current-color-1)"/>
    <path d="M55.2234 54.9862V59.9056C55.2234 62.6853 53.5608 64.9511 50.8241 64.9721C48.0874 64.9931 46.4215 62.6853 46.4044 59.9056V54.9862H48.0669V59.9056C48.0874 61.8252 48.9803 63.3252 50.8241 63.3252C52.668 63.3252 53.5608 61.8427 53.5608 59.9056V54.9862H55.2234Z"
          fill="var(--current-color-1)"/>
    <path d="M74.7088 64.6713C73.7784 61.4161 72.314 56.937 70.4326 54.9965L70.3949 54.9616H69.1975L69.1636 54.9965C67.5351 56.6782 66.2112 60.2657 65.2808 63.3182C64.3681 63.2183 63.5196 62.7908 62.8862 62.1118L61.6889 60.8496C62.2022 60.5977 62.6337 60.1999 62.9316 59.7039C63.2295 59.2078 63.3812 58.6344 63.3685 58.0524C63.369 57.6393 63.2889 57.2303 63.1329 56.8493C62.9768 56.4683 62.7479 56.1228 62.4595 55.8333C62.1712 55.5439 61.8293 55.3161 61.4538 55.1634C61.0783 55.0107 60.6767 54.9361 60.2726 54.944H56.7491V64.7832H58.4151V61.1608H59.6842L61.5794 63.1923C62.9922 64.7098 64.3537 64.9406 65.8384 64.9406H66.6799C66.9296 64.007 67.217 62.965 67.5215 62.014H72.1019C72.4028 62.9475 72.6187 63.7866 72.868 64.7201L72.8885 64.8112H74.7671L74.7088 64.6713ZM60.146 59.5875H58.3911V56.5699H60.1255C60.3251 56.5595 60.5247 56.5905 60.7123 56.661C60.8999 56.7316 61.0715 56.8403 61.217 56.9805C61.3624 57.1206 61.4786 57.2893 61.5585 57.4766C61.6384 57.6638 61.6804 57.8656 61.682 58.0699C61.6871 58.275 61.6504 58.4792 61.5744 58.6691C61.4983 58.8591 61.3845 59.0308 61.2401 59.1734C61.0957 59.3161 60.9239 59.4266 60.7356 59.4978C60.5473 59.5691 60.3465 59.5996 60.146 59.5875ZM68.014 60.5384C68.4458 59.2367 69.0476 58.0007 69.8031 56.8637C70.5542 58.0035 71.1554 59.2388 71.5923 60.5384H68.014Z"
          fill="var(--current-color-1)"/>
    <path d="M82.9227 54.9618C80.6134 63.0037 78.5749 64.7797 78.5749 64.7797H77.3908C77.3908 64.7797 75.3385 62.9897 73.0464 54.9618H74.9244C74.9244 54.9618 76.194 59.9722 78.0032 62.8603C79.7923 59.9722 81.0819 54.9618 81.0819 54.9618H82.9227Z"
          fill="var(--current-color-1)"/>
    <path d="M85.8534 56.57V58.9301H89.7737V60.5035H85.8534V63.2098H90.8101V64.7763H84.1913V54.9862H90.8101V56.577L85.8534 56.57Z"
          fill="var(--current-color-1)"/>
    <path d="M98.8801 64.6538C97.7082 61.9383 96.0517 59.4696 93.995 57.3742V64.7763H92.3329V54.9862H93.8684C93.8684 54.9862 96.6257 56.9616 99.2015 61.4791V54.9862H100.864V64.8077H99.0411C98.9245 64.8007 98.9245 64.7448 98.8801 64.6538Z"
          fill="var(--current-color-1)"/>
    <path d="M104.056 54.9862V64.8077H102.411V54.9862H104.056Z" fill="var(--current-color-1)"/>
    <path d="M111.709 62.0944C112.121 62.52 112.616 62.8521 113.161 63.069C113.708 63.2858 114.292 63.3827 114.877 63.3532H115V64.944H114.839C113.282 64.944 111.887 64.7623 110.42 63.1958L108.524 61.1854H107.255V64.8076H105.589V54.9861H109.113C109.514 54.9787 109.913 55.0531 110.286 55.2052C110.66 55.3571 111 55.5836 111.286 55.8713C111.573 56.1591 111.801 56.5025 111.956 56.8812C112.112 57.2599 112.192 57.6663 112.192 58.077C112.194 58.6522 112.037 59.2166 111.74 59.7051C111.443 60.1937 111.017 60.5868 110.512 60.8393L111.709 62.0944ZM107.235 59.5875H108.972C109.172 59.5973 109.372 59.5655 109.559 59.4942C109.747 59.4228 109.918 59.3132 110.063 59.1722C110.208 59.0311 110.323 58.8614 110.402 58.6734C110.481 58.4855 110.521 58.2833 110.521 58.0788C110.521 57.8743 110.481 57.6719 110.402 57.484C110.323 57.296 110.208 57.1264 110.063 56.9853C109.918 56.8442 109.747 56.7347 109.559 56.6633C109.372 56.592 109.172 56.5601 108.972 56.5699H107.235V59.5875Z"
          fill="var(--current-color-1)"/>
    <path d="M54.0603 75.7166C53.7789 75.6142 53.4832 75.5587 53.1846 75.5522C53.0094 75.538 52.8334 75.5628 52.6685 75.6249C52.5037 75.687 52.3539 75.7849 52.2297 75.9119C52.1055 76.0389 52.0096 76.1919 51.9489 76.3604C51.8882 76.5289 51.8639 76.709 51.8778 76.888C51.8723 77.0682 51.9036 77.2476 51.9697 77.4148C52.0357 77.582 52.1352 77.7332 52.2617 77.8589C52.3883 77.9846 52.539 78.0818 52.7044 78.1447C52.8698 78.2075 53.0461 78.2343 53.2222 78.2235C53.5065 78.2104 53.788 78.1611 54.0603 78.0767L54.2758 78.776C54.1636 78.8178 54.0494 78.854 53.9337 78.8844C53.687 78.9431 53.4346 78.9735 53.1812 78.9753C51.8129 78.9753 50.9268 78.1536 50.9268 76.8774C50.9268 75.6012 51.7855 74.7795 53.0922 74.7795C53.49 74.7776 53.8846 74.8525 54.2553 74.9999L54.0603 75.7166Z"
          fill="var(--current-color-1)"/>
    <path d="M54.6862 75.8635H55.5107V76.3146C55.5845 76.1579 55.7024 76.0274 55.8493 75.9395C55.9961 75.8517 56.1652 75.8106 56.3351 75.8216C56.4626 75.8237 56.5888 75.8486 56.7079 75.8949L56.5061 76.6643C56.4236 76.6503 56.34 76.6445 56.2564 76.6468C56.1543 76.6333 56.0503 76.6482 55.9558 76.6901C55.8613 76.7319 55.7795 76.799 55.7193 76.8845C55.6099 77.0314 55.5927 77.1573 55.5927 77.5594V78.9125H54.6794V75.8601L54.6862 75.8635Z"
          fill="var(--current-color-1)"/>
    <path d="M57.6042 77.7133C57.6384 78.0979 57.9463 78.3182 58.4286 78.3182C58.6999 78.3069 58.9667 78.2441 59.2154 78.133L59.448 78.7028C59.3778 78.7369 59.3058 78.7671 59.2325 78.7937C58.9531 78.9035 58.6561 78.9593 58.3568 78.9581C57.3545 78.9581 56.6908 78.3182 56.6908 77.3846C56.677 77.1783 56.7054 76.9712 56.7741 76.7767C56.8429 76.5822 56.9505 76.4045 57.0902 76.2548C57.2298 76.1051 57.3985 75.9869 57.5853 75.9075C57.7722 75.8281 57.9732 75.7893 58.1755 75.7937C59.0889 75.7937 59.6088 76.4335 59.6088 77.5419V77.7063H57.6042V77.7133ZM57.5871 77.0734H58.8015C58.8033 76.993 58.7895 76.9129 58.7608 76.838C58.7321 76.763 58.6892 76.6946 58.6345 76.6367C58.5797 76.5788 58.5143 76.5325 58.442 76.5007C58.3696 76.4688 58.2919 76.452 58.2131 76.4511C58.0505 76.451 57.8944 76.5156 57.7775 76.631C57.6607 76.7466 57.5924 76.904 57.5871 77.07V77.0734ZM58.3021 74.3496L59.0341 74.7343L58.3192 75.6154L57.765 75.3392L58.3021 74.3496Z"
          fill="var(--current-color-1)"/>
    <path d="M62.1673 74.4927H63.0773V78.8983H62.2563V78.4787C62.1439 78.6325 61.9978 78.7573 61.8296 78.843C61.6615 78.9286 61.476 78.9727 61.2882 78.9717C60.5185 78.9717 60.0019 78.3494 60.0019 77.3983C60.0019 76.4472 60.5185 75.7899 61.2882 75.7899C61.459 75.7855 61.6285 75.821 61.7838 75.8937C61.9392 75.9664 62.0762 76.0745 62.1845 76.2095V74.4927H62.1673ZM60.9153 77.3983C60.9153 77.9123 61.165 78.2408 61.5413 78.2408C61.9176 78.2408 62.1845 77.9122 62.1845 77.3807C62.1845 76.8493 61.9347 76.5206 61.5413 76.5206C61.1479 76.5206 60.9153 76.8703 60.9153 77.3983Z"
          fill="var(--current-color-1)"/>
    <path d="M63.6699 74.5837H64.6004V75.4613H63.6699V74.5837ZM63.6699 75.8634H64.5833V78.8984H63.6699V75.8634Z"
          fill="var(--current-color-1)"/>
    <path d="M64.9766 75.8634H65.4213V75.1116H66.3346V75.8634H67.0188V76.5627H66.3346V77.9612C66.3346 78.164 66.4955 78.2725 66.7486 78.2725C66.8508 78.2693 66.9522 78.2517 67.0497 78.2201L67.1591 78.8214C66.9395 78.9022 66.7084 78.946 66.4749 78.9508C66.3337 78.9652 66.1911 78.9499 66.0558 78.906C65.9205 78.8621 65.7954 78.7905 65.6881 78.6955C65.4726 78.5102 65.4179 78.3109 65.4179 77.8354V76.5557H64.9732V75.8564L64.9766 75.8634Z"
          fill="var(--current-color-1)"/>
    <path d="M68.5726 74.8743H69.9682L70.827 77.3428C70.8964 77.6429 70.9319 77.9504 70.933 78.2589C70.9447 77.951 70.9813 77.6446 71.0424 77.3428L71.8839 74.8743H73.269V78.9162H72.373L72.3902 76.2274C72.3902 76.175 72.428 75.8462 72.4618 75.5526C72.428 75.7343 72.4074 75.8078 72.373 75.9372C72.3386 76.0666 72.3181 76.1015 72.2842 76.2274L71.3704 78.9372H70.495L69.5646 76.2274C69.528 76.133 69.498 76.036 69.4758 75.9372C69.438 75.8078 69.4208 75.7343 69.3659 75.5526L69.3864 75.717L69.4036 75.9372C69.4036 76.119 69.438 76.1925 69.438 76.2274L69.4586 78.9162H68.562L68.5726 74.8743Z"
          fill="var(--current-color-1)"/>
    <path d="M76.6591 77.6538C76.6591 78.479 76.1223 78.9895 75.2085 78.9895C74.2953 78.9895 73.7241 78.4965 73.7241 77.6538V75.8636H74.6373V77.5104C74.6234 77.6658 74.6479 77.8223 74.7095 77.9651C74.7628 78.0468 74.8344 78.1143 74.9182 78.1623C75.002 78.2103 75.0958 78.2373 75.1919 78.2412C75.5677 78.2412 75.7459 77.9859 75.7459 77.5418V75.9126H76.6591V77.6609V77.6538Z"
          fill="var(--current-color-1)"/>
    <path d="M77.0526 75.8634H77.5006V75.1116H78.4005V75.8634H79.0844V76.5627H78.4005V77.9612C78.4005 78.164 78.5609 78.2725 78.8107 78.2725C78.914 78.2691 79.0167 78.2515 79.1155 78.2201L79.2215 78.8214C79.0017 78.9022 78.7707 78.946 78.537 78.9508C78.396 78.9645 78.2533 78.949 78.1185 78.9052C77.983 78.8613 77.8581 78.79 77.7504 78.6955C77.5383 78.5102 77.4834 78.3109 77.4834 77.8354V76.5557H77.0354V75.8564L77.0526 75.8634Z"
          fill="var(--current-color-1)"/>
    <path d="M82.5053 77.6538C82.5053 78.479 81.9513 78.9895 81.0553 78.9895C80.1588 78.9895 79.5704 78.4965 79.5704 77.6538V75.8636H80.4841V77.5104C80.4697 77.6658 80.4946 77.8223 80.5557 77.9651C80.609 78.0468 80.6806 78.1143 80.7644 78.1623C80.8483 78.2103 80.9421 78.2373 81.0381 78.2412C81.4145 78.2412 81.6127 77.9859 81.6127 77.5418V75.9126H82.5053V77.6609V77.6538Z"
          fill="var(--current-color-1)"/>
    <path d="M83.743 77.7132C83.7807 78.0979 84.0849 78.3181 84.5673 78.3181C84.8388 78.3069 85.1052 78.2441 85.3539 78.1329L85.5865 78.7028C85.5183 78.7405 85.4461 78.7708 85.3712 78.7936C85.0919 78.9038 84.7949 78.9597 84.4957 78.958C83.4931 78.958 82.8298 78.3182 82.8298 77.3846C82.8159 77.1779 82.8442 76.9705 82.913 76.7758C82.9819 76.581 83.0901 76.4033 83.23 76.2535C83.3699 76.1038 83.5392 75.9856 83.7263 75.9065C83.9139 75.8273 84.1149 75.7887 84.3175 75.7936C85.2274 75.7936 85.7475 76.4335 85.7475 77.5418V77.7063H83.743V77.7132ZM83.743 77.0734H84.9609C84.9626 76.9107 84.9015 76.7539 84.7905 76.6374C84.6795 76.5207 84.5279 76.4538 84.3691 76.4511C84.2881 76.4488 84.207 76.4629 84.1315 76.4929C84.056 76.5229 83.9867 76.5681 83.9284 76.6257C83.8701 76.6834 83.824 76.7525 83.7918 76.8287C83.7602 76.905 83.7435 76.987 83.743 77.07V77.0734Z"
          fill="var(--current-color-1)"/>
    <path d="M86.2309 74.4927H87.1446V78.8983H86.2309V74.4927Z" fill="var(--current-color-1)"/>
    <path d="M96.8713 76.7023C97.2071 76.5251 97.4747 76.238 97.6312 75.8869C97.7883 75.5358 97.8255 75.1411 97.7367 74.7659C97.6479 74.3907 97.4386 74.0568 97.1422 73.8177C96.8457 73.5786 96.4793 73.448 96.1018 73.4471H94.1689V78.8981H95.0821V76.8877H95.7665L96.793 78.0204C97.0955 78.3607 97.4708 78.625 97.8894 78.793C98.3085 78.9609 98.7598 79.028 99.2078 78.989H99.2966V78.1114H99.225C98.908 78.1235 98.5916 78.0673 98.2974 77.9468C98.0026 77.8264 97.7361 77.6443 97.5146 77.4122L96.8713 76.7023ZM95.0821 74.3281H96.0297C96.1413 74.3208 96.2523 74.3369 96.3572 74.3753C96.4621 74.4137 96.5582 74.4736 96.6392 74.5514C96.7208 74.6293 96.7852 74.7233 96.8296 74.8277C96.874 74.9322 96.8968 75.0447 96.8968 75.1586C96.8968 75.2724 96.874 75.385 96.8296 75.4894C96.7852 75.5939 96.7208 75.688 96.6392 75.7658C96.5582 75.8437 96.4621 75.9036 96.3572 75.9421C96.2523 75.9804 96.1413 75.9963 96.0297 75.989H95.0821V74.3281Z"
          fill="var(--current-color-1)"/>
    <path d="M93.7081 78.8074C93.2085 77.0137 92.4047 74.5276 91.3816 73.4473V73.4298H90.7148V73.4473C89.6884 74.5276 88.8879 77.0137 88.3883 78.8074L88.3511 78.8984H89.377L89.3975 78.8424C89.5379 78.3319 89.6473 77.8564 89.8083 77.3424H92.2953C92.4557 77.8564 92.5823 78.3319 92.7055 78.8424V78.8984H93.732L93.7081 78.8074ZM90.0681 76.5207C90.2974 75.8027 90.6221 75.1204 91.0329 74.4928C91.4287 75.1307 91.7557 75.8106 92.0077 76.5207H90.0681Z"
          fill="var(--current-color-1)"/>
    <path d="M99.7724 78.8984H100.686V73.4298H99.7724V78.8984ZM101.955 76.0626L104.818 73.4298H103.604L100.703 76.0836L102.475 78.0032C102.777 78.3435 103.153 78.6078 103.572 78.7758C103.991 78.9437 104.442 79.0109 104.89 78.9718H104.979V78.0941H104.907C104.586 78.1074 104.266 78.0521 103.968 77.9317C103.669 77.8113 103.398 77.6284 103.173 77.3948L101.955 76.0626Z"
          fill="var(--current-color-1)"/>
    <path d="M114.944 78.8072C114.445 77.0135 113.641 74.5275 112.621 73.4681L112.6 73.4471H111.958V73.4681C110.931 74.545 110.131 77.0135 109.632 78.8072V78.8981H110.657V78.8421C110.801 78.3317 110.907 77.8562 111.068 77.3421H113.555C113.716 77.8562 113.842 78.3317 113.969 78.8421V78.8981H114.995L114.944 78.8072ZM113.233 76.5381H111.304C111.535 75.8206 111.859 75.1383 112.269 74.51C112.68 75.1364 113.002 75.8193 113.227 76.5381H113.233Z"
          fill="var(--current-color-1)"/>
    <path d="M109.167 74.3075V73.4298H105.555V78.8809H109.167V77.9997H106.468V76.5033H108.596V75.6222H106.468V74.3075H109.167Z"
          fill="var(--current-color-1)"/>
</svg>
