<svg id="logo" viewBox="0 0 128 128" fill="none" xmlns="http://www.w3.org/2000/svg">
    <path d="M37.8901 87.1727C37.34 87.5966 36.5082 88 34.8184 88C33.384 88 32.2051 87.7265 31.9235 87.7265C31.7074 87.7265 31.6943 87.8906 31.4978 87.8906C31.3209 87.8906 31.3013 87.8359 31.2685 87.5556C31.1637 86.783 31 85.2379 31 84.7388C31 84.5747 31.1113 84.3696 31.4257 84.3696C31.5502 84.3696 31.5698 84.479 31.6026 84.6636C31.7467 85.4225 32.061 86.0515 32.5915 86.4891C33.1941 86.9676 34.0587 87.2479 34.9952 87.2479C36.2986 87.2479 37.2876 86.3797 37.2876 85.0875C37.2876 83.8022 36.4754 83.3578 34.6547 82.51C33.2792 81.8674 32.788 81.6281 32.2575 81.0743C31.6419 80.4453 31.4978 79.7274 31.4978 79.1395C31.4978 77.2593 32.8404 75.9125 35.362 75.9125C35.8205 75.9125 36.423 75.9535 36.9143 76.0082C37.3924 76.0629 37.7788 76.1176 37.8312 76.1176C37.9032 76.1176 37.9557 76.0766 38.008 76.0424C38.067 76.0219 38.0801 76.0219 38.1849 76.0219C38.2962 76.0219 38.3093 76.0971 38.3093 76.2065C38.3093 76.3158 38.2766 77.2593 38.329 77.7174C38.3617 78.0866 38.4207 78.6199 38.4207 78.7156C38.4207 78.9002 38.1849 78.9549 38.0277 78.9549C37.9229 78.9549 37.9033 78.9002 37.8181 78.6199C37.6413 78.0729 37.4448 77.4781 36.8619 77.0747C36.4231 76.7397 35.8074 76.5756 35.1524 76.5756C33.967 76.5756 33.0697 77.3345 33.0697 78.5857C33.0697 79.9462 33.8949 80.3154 35.9449 81.2589C37.3596 81.9015 39.0363 82.6604 39.0363 84.7388C39.0363 85.8601 38.4862 86.7147 37.8901 87.1727Z"
          fill="var(--current-color-1)"/>
    <path d="M51.5001 80.5C51.0941 80.7051 50.4522 81.9016 50.0134 82.7698C49.5746 83.6313 48.8672 85.2379 48.304 86.5096C48.1795 86.8241 47.911 87.4462 47.8586 87.5556C47.7931 87.7402 47.6687 87.7949 47.5049 87.8154L47.0661 87.8701C46.9416 87.8906 46.922 87.8564 46.8172 87.4462C46.6076 86.6395 46.1295 85.0738 45.5138 83.2689C44.3153 85.696 44.0467 86.2908 43.5031 87.5761C43.4311 87.7812 43.4311 87.7812 43.3066 87.7949L42.691 87.8906C42.6189 87.8906 42.5993 87.8359 42.4945 87.5419C41.8919 85.737 40.8702 82.9134 40.2152 81.4435C39.9533 80.8692 39.7961 80.6094 39.6323 80.541C39.4227 80.4248 39.4031 80.4248 39.4031 80.206C39.4031 80.0556 39.4424 80.0009 39.5996 80.0009C39.9729 80.0009 40.713 80.0214 40.9946 80.0214C41.6103 80.0214 42.1801 80.0009 42.7237 80.0009C42.7958 80.0009 42.8154 80.1171 42.8154 80.247C42.8154 80.4658 42.7958 80.4795 42.5796 80.5C42.0164 80.5547 41.8592 80.7393 41.8592 81.0538C41.8592 81.3683 42.1605 82.216 42.4224 82.9886C42.7041 83.7475 42.9857 84.5406 43.5686 86.0652C43.8895 85.3815 44.8785 83.2484 45.2453 82.4212C44.9113 81.5324 44.682 80.9444 44.5249 80.7256C44.3677 80.541 44.2563 80.5205 43.9223 80.4658C43.8175 80.4453 43.7979 80.3701 43.7979 80.2607C43.7979 80.0761 43.8371 80.0009 44.014 80.0009C44.4921 80.0009 45.3894 80.0214 45.7038 80.0214C46.0968 80.0214 47.1054 80.0009 47.2953 80.0009C47.4722 80.0009 47.4918 80.0761 47.4918 80.247C47.4918 80.4658 47.4722 80.4795 47.2626 80.5205C46.7124 80.5547 46.4111 80.5752 46.4111 81.0196C46.4111 81.3478 47.577 85.0328 47.911 86.031C48.4415 84.8346 49.0637 83.433 49.4108 82.5442C49.6073 82.052 49.8759 81.382 49.8759 81.0333C49.8759 80.5547 49.4501 80.4795 49.0441 80.4658C48.8148 80.4658 48.7952 80.4453 48.7952 80.247C48.7952 80.0761 48.8148 80.0009 48.9524 80.0009C49.1489 80.0009 49.7842 80.0214 50.3474 80.0214C50.7732 80.0214 51.284 80.0009 51.5133 80.0009C51.6377 80.0009 51.677 80.0761 51.677 80.206C51.677 80.3906 51.618 80.4248 51.5001 80.5Z"
          fill="var(--current-color-1)"/>
    <path d="M54.2117 77.2799C53.8121 77.2799 53.334 76.7808 53.334 76.3569C53.334 75.8579 53.8776 75.3588 54.2706 75.3588C54.6767 75.3588 55.1679 75.8579 55.1679 76.3022C55.1679 76.7603 54.6898 77.2799 54.2117 77.2799ZM56.0848 87.8155C55.836 87.8155 55.0435 87.7813 54.1789 87.7813C53.4912 87.7813 52.5022 87.8155 52.1682 87.8155C52.0438 87.8155 52.011 87.7813 52.011 87.6172C52.011 87.3916 52.0438 87.3779 52.2927 87.3164C52.8756 87.207 53.0851 87.0634 53.2096 86.6532C53.3471 86.1952 53.3471 84.6842 53.3471 83.6177C53.3471 81.6965 53.3471 81.4435 52.5022 81.3273C52.2206 81.2726 52.2009 81.2726 52.2009 81.0744C52.2009 80.8693 52.2926 80.8556 52.4498 80.7599C52.7839 80.6095 53.8776 80.0557 54.3034 79.8779C54.4802 79.7822 54.6243 79.748 54.7422 79.748C54.8666 79.748 54.919 79.8027 54.919 79.9121C54.9059 80.1719 54.8666 80.7257 54.8535 81.0197C54.8339 81.4436 54.8011 82.2708 54.8011 83.686C54.8011 84.2603 54.8011 86.2909 54.8863 86.6942C54.9714 87.207 55.312 87.2617 55.9997 87.3027C56.242 87.3164 56.2813 87.3574 56.2813 87.5557C56.2813 87.7813 56.2289 87.8155 56.0848 87.8155Z"
          fill="var(--current-color-1)"/>
    <path d="M59.4251 87.9863C58.6785 87.9863 58.0825 87.8701 57.7615 87.8154C57.6044 87.7949 57.4602 87.7607 57.3947 87.7607C57.3424 87.7607 57.2179 87.7949 57.1459 87.7949C57.0411 87.7949 57.0018 87.706 57.0018 87.5556C57.0018 87.3573 57.0214 87.0428 57.0214 86.6531C57.0214 86.3592 56.9494 85.7165 56.9494 85.5524C56.9494 85.402 57.0935 85.3678 57.2834 85.3678C57.3948 85.3678 57.4079 85.402 57.4799 85.6823C57.8336 87.0634 59.0321 87.3573 59.6675 87.3573C60.8005 87.3573 61.0625 86.5848 61.0625 86.1199C61.0625 85.3268 60.4469 84.9439 59.281 84.3696C58.292 83.8911 57.231 83.3578 57.231 82.052C57.231 81.2042 57.8008 79.8573 60.1128 79.8573C60.7481 79.8573 61.5079 80.0009 61.6323 80.0009C61.6847 80.0009 61.8026 79.9667 61.8747 79.9667C61.9991 79.9667 61.9991 80.0009 62.0384 80.2812C62.0712 80.7051 62.1563 81.5324 62.1563 81.8263C62.1563 81.9904 62.1235 82.052 61.8026 82.052C61.7175 82.052 61.6847 82.0109 61.6127 81.8127C61.4162 81.3683 60.925 80.4795 59.7919 80.4795C58.7374 80.4795 58.5737 81.2589 58.5737 81.6076C58.5737 82.3254 59.0518 82.6399 60.4141 83.3031C61.3638 83.7612 62.5624 84.356 62.5624 85.737C62.5624 87.6513 60.4469 87.9863 59.4251 87.9863Z"
          fill="var(--current-color-1)"/>
    <path d="M65.9878 87.9863C65.2477 87.9863 64.6452 87.8701 64.3308 87.8154C64.167 87.7949 64.0295 87.7607 63.9574 87.7607C63.9051 87.7607 63.7806 87.7949 63.7086 87.7949C63.6038 87.7949 63.571 87.706 63.571 87.5556C63.571 87.3573 63.5907 87.0428 63.5907 86.6531C63.5907 86.3592 63.5186 85.7165 63.5186 85.5524C63.5186 85.402 63.6562 85.3678 63.8526 85.3678C63.9574 85.3678 63.9771 85.402 64.0491 85.6823C64.4028 87.0634 65.6014 87.3573 66.2367 87.3573C67.3632 87.3573 67.6318 86.5848 67.6318 86.1199C67.6318 85.3268 67.0095 84.9439 65.8503 84.3696C64.8613 83.8911 63.8002 83.3578 63.8002 82.052C63.8002 81.2042 64.3635 79.8573 66.6755 79.8573C67.3108 79.8573 68.0706 80.0009 68.195 80.0009C68.2474 80.0009 68.3719 79.9667 68.4439 79.9667C68.5683 79.9667 68.5683 80.0009 68.6011 80.2812C68.6338 80.7051 68.7255 81.5324 68.7255 81.8263C68.7255 81.9904 68.6863 82.052 68.3719 82.052C68.2867 82.052 68.2474 82.0109 68.1753 81.8127C67.9854 81.3683 67.4877 80.4795 66.3611 80.4795C65.3001 80.4795 65.1429 81.2589 65.1429 81.6076C65.1429 82.3254 65.6145 82.6399 66.9768 83.3031C67.933 83.7612 69.1316 84.356 69.1316 85.737C69.1316 87.6513 67.0095 87.9863 65.9878 87.9863Z"
          fill="var(--current-color-1)"/>
    <path d="M78.8905 87.3164C78.7857 87.7061 78.7529 87.8565 78.5761 87.8565C78.2028 87.8565 77.9015 87.7608 74.6005 87.7608C71.5484 87.7608 70.841 87.8565 70.6315 87.8565C70.4546 87.8565 70.4219 87.7949 70.4219 87.6172C70.4219 87.3574 70.435 87.3574 70.7166 87.3164C71.7449 87.2275 71.83 86.619 71.9021 85.9763C72.0069 84.8346 72.0069 82.5306 72.0069 81.0196C72.0069 79.9873 72.0069 78.3464 72.0069 78.3464C72.0069 77.109 71.9217 76.7398 71.0179 76.5962C70.6118 76.5415 70.5791 76.521 70.5791 76.3569C70.5791 76.0971 70.6118 76.0766 70.7756 76.0766C71.3192 76.0766 72.3409 76.1518 72.8583 76.1518C73.5067 76.1518 74.6398 76.0766 75.0786 76.0766C75.2031 76.0766 75.2751 76.1313 75.2751 76.2817C75.2751 76.5415 75.2555 76.5552 74.9542 76.5962C74.1813 76.6509 73.8604 76.8355 73.7556 77.444C73.6115 78.1413 73.5984 81.088 73.5984 82.2913C73.5984 83.9663 73.6115 85.9353 73.736 86.4891C73.8277 86.9335 74.1093 86.954 74.8494 86.954C75.9432 86.954 77.1614 86.954 77.7836 86.5643C78.2552 86.2703 78.5761 85.6619 78.766 84.9987C78.8381 84.7389 78.8774 84.5953 78.9822 84.5953C79.3162 84.5953 79.3686 84.6637 79.3686 84.7936C79.3686 85.0739 79.2638 85.9216 78.8905 87.3164Z"
          fill="var(--current-color-1)"/>
    <path d="M82.2308 77.2799C81.8247 77.2799 81.3466 76.7808 81.3466 76.3569C81.3466 75.8579 81.8902 75.3588 82.2832 75.3588C82.6893 75.3588 83.1805 75.8579 83.1805 76.3022C83.1805 76.7603 82.7024 77.2799 82.2308 77.2799ZM84.0974 87.8155C83.8551 87.8155 83.056 87.7813 82.1915 87.7813C81.5038 87.7813 80.5148 87.8155 80.1808 87.8155C80.0563 87.8155 80.0236 87.7813 80.0236 87.6172C80.0236 87.3916 80.0563 87.3779 80.3052 87.3164C80.8881 87.207 81.0977 87.0634 81.2222 86.6532C81.3663 86.1952 81.3662 84.6842 81.3662 83.6177C81.3662 81.6965 81.3662 81.4435 80.5148 81.3273C80.2332 81.2726 80.2135 81.2726 80.2135 81.0744C80.2135 80.8693 80.3052 80.8556 80.4624 80.7599C80.7964 80.6095 81.8902 80.0557 82.3159 79.8779C82.4928 79.7822 82.6368 79.748 82.7547 79.748C82.8792 79.748 82.9382 79.8027 82.9382 79.9121C82.9185 80.1719 82.8792 80.7257 82.8661 81.0197C82.8464 81.4436 82.8137 82.2708 82.8137 83.686C82.8137 84.2603 82.8137 86.2909 82.8989 86.6942C82.984 87.207 83.3245 87.2617 84.0122 87.3027C84.2611 87.3164 84.2939 87.3574 84.2939 87.5557C84.2939 87.7813 84.2415 87.8155 84.0974 87.8155Z"
          fill="var(--current-color-1)"/>
    <path d="M91.6556 76.7603C91.5508 76.7603 91.4395 76.6304 91.2299 76.4458C90.981 76.227 90.5618 75.933 89.658 75.933C87.7521 75.933 87.6669 77.15 87.6669 80.042C87.8437 80.042 89.7497 80.042 90.1361 80.042C90.313 80.042 90.2933 80.0967 90.2933 80.5001C90.2933 80.8692 90.2933 80.965 90.0641 80.965H87.6669C87.6669 82.6742 87.68 84.9987 87.6997 86.1062C87.7324 87.1317 88.073 87.2822 89.2519 87.2822C89.4811 87.3027 89.5008 87.3369 89.5008 87.542C89.5008 87.7813 89.468 87.836 89.1471 87.836C88.8851 87.836 87.5949 87.7949 86.7631 87.7949C86.1671 87.7949 85.427 87.836 85.1388 87.836C85.0536 87.836 85.034 87.7265 85.034 87.5966C85.034 87.3779 85.0536 87.3574 85.2632 87.3164C86.0033 87.207 86.1278 87.0224 86.1671 85.99C86.1998 84.7731 86.1998 82.3049 86.1998 80.9786H85.2829C85.1781 80.9649 85.1781 80.9444 85.1781 80.794C85.1781 80.5753 85.1781 80.5547 85.2632 80.5001L86.2195 80.0556C86.2522 78.4558 86.2719 77.7379 87.0644 76.6714C87.8241 75.639 89.1144 74.7913 90.5225 74.7913C91.8521 74.7913 92.6053 75.4545 92.6053 75.9672C92.6053 76.3911 91.7932 76.7603 91.6556 76.7603Z"
          fill="var(--current-color-1)"/>
    <path d="M93.7187 80.5205C92.6773 80.5205 92.1992 81.922 92.1861 83.2826C92.9262 83.1527 93.3846 83.0433 94.6552 82.7151C95.1989 82.5647 95.2906 82.4211 95.2906 82.2365C95.2906 81.5734 94.6028 80.5205 93.7187 80.5205ZM96.7904 86.8035C96.1224 87.412 94.9565 87.9863 93.7383 87.9863C91.1971 87.9863 90.6666 85.7165 90.6666 84.3149C90.6666 81.4435 92.5397 79.8573 94.2164 79.8573C95.0613 79.8573 96.404 80.3154 96.8232 81.9426C96.9345 82.3801 97.0197 82.9339 96.9345 82.9544C95.343 83.2074 93.771 83.5219 92.1992 83.8569C92.2515 85.1422 92.7297 86.9334 94.5832 86.9334C95.1465 86.9334 96.0307 86.7694 96.8428 86.1199C96.8952 86.0652 96.9345 86.0515 96.9476 86.1199C96.9672 86.2498 96.9869 86.3455 97 86.4685C97 86.5984 96.9476 86.6736 96.7904 86.8035Z"
          fill="var(--current-color-1)"/>
    <path fill-rule="evenodd" clip-rule="evenodd"
          d="M79.2567 54.26C79.368 55.4564 79.3811 56.6186 79.2763 57.6852C79.1191 59.2372 78.772 60.543 78.5362 61.2404C78.5002 61.3531 78.4972 61.3568 78.4717 61.3883L78.4641 61.3976C78.4117 61.4455 78.2938 61.4387 78.2938 61.4387L74.3183 61.3634C67.1072 61.3497 62.9875 62.6898 61.1143 64.7203C60.014 65.9099 59.5424 67.4004 59.9682 68.9865C60.1712 69.7317 60.4266 70.265 60.6689 70.6615C60.8065 70.8803 60.8982 71.0034 61.0685 71.1948C61.2388 71.3862 61.5335 71.6529 61.5335 71.6529C61.5335 71.6529 61.6318 71.7349 61.6252 71.7691C61.6121 71.8306 61.4942 71.8238 61.4942 71.8238C61.4942 71.8238 60.8851 71.8717 60.0664 71.6392C58.4618 71.1811 55.8747 69.7385 55.1477 66.4979C54.5058 63.6469 55.3442 61.3634 57.0994 59.5722C60.8393 55.7572 69.2947 54.007 75.9164 53.9181C77.0822 53.9045 78.1105 53.9386 79.0536 54.0138C79.106 54.0207 79.1453 54.0343 79.1846 54.0754C79.2304 54.1232 79.2501 54.1848 79.2567 54.26ZM79.0404 52.8789C78.785 51.45 78.1758 49.6451 77.4357 48.3187C77.3225 48.0712 77.1074 47.7125 76.9398 47.4332C76.9037 47.3731 76.8699 47.3167 76.8397 47.2658C76.7925 47.1897 76.7819 47.181 76.7691 47.1707C76.7624 47.1652 76.755 47.1593 76.7415 47.1428C76.6825 47.0812 76.5123 47.0744 76.5123 47.0744C76.0931 47.0197 75.1106 46.9787 73.9448 46.9787H73.9383C71.8883 46.9513 69.347 47.218 66.5307 47.7854C62.3652 48.6264 58.7498 50.0758 55.8156 52.0653C52.6587 54.1984 50.3402 56.6118 49.4429 60.4746C49.2988 61.0831 49.6721 62.177 50.0716 63.0453C50.3005 63.5292 50.5399 63.9089 50.7663 64.2679C50.7925 64.3095 50.8186 64.3509 50.8445 64.3921C50.8772 64.4468 50.9231 64.5083 50.9624 64.481C50.9886 64.4673 50.9951 64.44 51.0082 64.3716C51.0189 64.3183 51.0298 64.257 51.0421 64.188C51.0976 63.8767 51.1814 63.4066 51.4012 62.7855C51.8859 61.4181 52.9993 58.5124 57.7543 56.1264C60.9177 54.5334 64.3563 53.7745 67.5 53.3848C72.4843 52.7695 76.2568 52.7421 78.8701 53.0361C78.877 53.0368 78.8839 53.0376 78.8909 53.0384L78.9119 53.0411C78.9702 53.0486 79.0245 53.0556 79.0404 53.0225C79.06 52.9814 79.0535 52.9404 79.0404 52.8789ZM65.9937 40.1487C65.1357 39.9915 63.7013 39.9504 62.5617 40.0667C61.6382 40.1555 60.5706 40.3538 59.8698 40.5726C59.8462 40.5816 59.8246 40.5876 59.805 40.5931C59.7648 40.6043 59.7325 40.6134 59.7061 40.6409C59.6733 40.6751 59.6537 40.723 59.6406 40.764C59.1501 42.556 56.7767 44.5064 55.5999 45.4734C55.3938 45.6427 55.2244 45.7819 55.1083 45.8848C54.9718 46.0055 54.8368 46.1243 54.7034 46.2417C53.7486 47.0821 52.8706 47.8547 52.0431 48.7905C51.2375 49.6998 50.3926 50.7868 49.8228 51.8328C49.2202 52.9267 48.9059 54.0275 48.7356 55.1009C48.5915 56.0102 48.5653 56.8648 48.6177 57.5279C48.6177 57.5348 48.6308 57.6715 48.6373 57.733C48.7205 58.5954 48.8577 59.0243 48.8921 59.132C48.8956 59.143 48.8981 59.1507 48.8993 59.1551L48.9043 59.171C48.929 59.249 48.9555 59.3329 49.0107 59.3329C49.0652 59.3329 49.0834 59.2523 49.0993 59.1819C49.1025 59.1678 49.1056 59.154 49.1089 59.1414C49.1157 59.1178 49.1319 59.0565 49.1537 58.9739C49.195 58.8179 49.2563 58.5861 49.3119 58.3894C49.4102 58.0339 49.4691 57.8356 49.5739 57.4869C49.8949 56.5298 50.4778 55.1829 51.7222 53.754C53.8235 51.3481 56.0293 50.0285 58.1637 48.7517C59.808 47.768 61.41 46.8096 62.8892 45.3994C64.8768 43.5075 65.5995 41.7319 66.0389 40.6522C66.0758 40.5614 66.1108 40.4754 66.1443 40.3948C66.1496 40.3827 66.1549 40.3712 66.16 40.3603C66.186 40.3041 66.2045 40.264 66.1771 40.2239C66.1443 40.176 66.0789 40.1624 65.9937 40.1487ZM74.9666 55.2512H76.3486V56.8988H77.9336V58.3483H76.3486V59.9959H74.9666V58.3483H73.3816V56.8988H74.9666V55.2512Z"
          fill="var(--current-color-1)"/>
</svg>
