<svg id="logo" viewBox="0 0 128 128" fill="none" xmlns="http://www.w3.org/2000/svg">
    <path d="M49.9158 26.1348C53.0201 26.5954 55.2551 28.1435 56.6208 30.7792C56.8362 31.1945 56.9977 31.5469 57.1054 31.8363C57.241 32.1978 57.3384 32.5728 57.3977 32.9613C57.4021 32.9884 57.4161 33.0132 57.4374 33.0314C57.4586 33.0496 57.4858 33.0601 57.5142 33.061C57.8483 33.0709 58.1876 33.0939 58.5319 33.13C58.9913 33.1788 59.3283 33.2167 59.543 33.2436C60.9585 33.4233 62.2473 33.8981 63.4093 34.6679C63.9558 35.0295 64.4009 35.3454 64.7445 35.6157C65.2047 35.9772 65.5805 36.3745 65.8721 36.8076C67.5052 39.2359 68.2855 41.9579 68.213 44.9735C68.1895 45.9669 68.0097 46.9228 67.6734 47.8412C67.6629 47.8696 67.6587 47.8998 67.661 47.9298C67.6633 47.9597 67.672 47.9888 67.6866 48.0153C68.069 48.7101 68.3566 49.4364 68.5493 50.1942C68.8775 51.4848 68.7236 52.7124 68.0877 53.877C67.4862 54.978 66.6535 55.8801 65.5897 56.5834C64.9698 56.9931 64.3145 57.3405 63.6236 57.6257C62.318 58.1627 60.9658 58.548 59.5672 58.7815C56.3046 59.3256 53.0322 59.3864 49.7498 58.964C49.7117 58.9591 49.7117 58.952 49.7498 58.9428C49.889 58.9117 50.0542 58.8986 50.2455 58.9035C51.0331 58.9247 52.0222 58.9247 53.2128 58.9035C54.6568 58.878 56.2617 58.7033 58.0275 58.3792C59.8518 58.0453 61.4765 57.5609 62.9015 56.9262C63.6496 56.593 64.3877 56.1575 65.116 55.6197C65.8501 55.0785 66.4524 54.4487 66.9228 53.7306C67.3243 53.1164 67.5891 52.4623 67.7173 51.7682C67.902 50.7705 67.839 49.7495 67.5283 48.7051C67.4741 48.5233 67.4052 48.5183 67.3217 48.6903C67.0396 49.2712 66.641 49.85 66.126 50.4266C66.1046 50.4506 66.0918 50.4806 66.0892 50.5123C66.0866 50.5439 66.0945 50.5756 66.1117 50.6028C66.3652 51.0033 66.3231 51.0153 65.9853 50.6389C65.9792 50.6323 65.9717 50.6269 65.9634 50.6231C65.955 50.6192 65.946 50.6171 65.9368 50.6167C65.9276 50.6163 65.9184 50.6177 65.9097 50.6207C65.9011 50.6238 65.8931 50.6286 65.8864 50.6346C64.9874 51.4582 63.9837 52.0469 62.8751 52.4007C62.6033 52.487 62.3513 52.591 62.119 52.7127C60.6054 53.5059 58.9737 53.8944 57.2241 53.8781C57.0146 53.876 56.8039 53.9237 56.5922 54.0214C54.2872 55.0813 51.8438 55.8865 49.2619 56.437C49.2287 56.4443 49.1982 56.4571 49.1724 56.4745C49.1466 56.4919 49.1262 56.5135 49.1124 56.5378L48.4926 57.6395C48.4684 57.6826 48.4827 57.7003 48.5354 57.6925C49.2959 57.5772 50.04 57.5075 50.7675 57.4835C52.3991 57.4297 54.0121 57.2351 55.6064 56.8997C57.9722 56.403 60.2738 55.7093 62.5114 54.8184C63.31 54.5007 64.0551 54.0932 64.7467 53.5958C65.2882 53.2066 65.6681 52.6954 65.8864 52.0621C65.923 51.9567 65.9501 51.9588 65.9677 52.0685C66.0366 52.4966 65.9197 52.9048 65.6171 53.2933C65.2303 53.7907 64.7669 54.2096 64.2269 54.5499C63.2056 55.1945 62.1238 55.7234 60.9816 56.1366C58.1879 57.1477 55.3045 57.752 52.3314 57.9494C52.3284 57.9494 52.0368 57.9628 51.4566 57.9897C50.3722 58.0407 49.3124 58.1917 48.2772 58.4429C48.2418 58.4516 48.2095 58.4693 48.1836 58.4941C48.1577 58.5189 48.1392 58.55 48.1299 58.5841C47.9431 59.2725 47.8233 59.9716 47.7705 60.6813C47.6518 62.2846 47.4405 63.8762 47.1364 65.4562C47.0785 65.7562 47.0137 65.9667 46.9419 66.0877C46.6049 66.6566 46.643 67.0627 47.0562 67.3061C47.2459 67.4172 47.5522 67.4766 47.9749 67.4844C49.1333 67.5049 50.5404 67.4926 52.1962 67.4473C54.2484 67.3914 56.1442 67.2057 57.8835 66.8901C60.5211 66.479 63.1689 66.3693 65.8271 66.5611C66.4125 66.6035 66.9209 66.6651 67.3525 66.7457C67.8558 66.8405 68.3526 66.9626 68.8427 67.1119C69.0486 67.1742 69.2438 67.258 69.4285 67.3634C69.4812 67.3939 69.49 67.4169 69.4548 67.4324C69.4409 67.4388 69.4241 67.4399 69.4043 67.4356C67.6583 67.091 65.8948 66.8823 64.1137 66.8094C62.6499 66.75 61.2003 66.8359 59.765 67.0673C59.5408 67.1034 58.8264 67.2587 57.6219 67.5332C55.4386 68.0328 53.2179 68.2617 50.9598 68.2199C49.3824 68.1909 48.1643 68.1191 47.3057 68.0045C46.3239 67.8736 45.9026 67.3075 46.0418 66.3063C46.7767 64.3004 47.1793 62.2329 47.2496 60.1039C47.2643 59.6836 47.3035 59.2499 47.3672 58.8027C47.3789 58.7199 47.347 58.6973 47.2716 58.7348L44.7571 59.984C44.7275 59.9986 44.7016 60.0196 44.6811 60.0454C44.6606 60.0713 44.646 60.1014 44.6384 60.1336C44.2625 61.7058 43.8053 63.2592 43.2668 64.7939C43.0001 65.5553 42.651 66.197 42.2195 66.7192C42.196 66.7475 42.0781 66.8505 41.8656 67.028C41.733 67.1391 41.6304 67.2824 41.5579 67.4579C41.4524 67.7112 41.3857 67.702 41.3579 67.4303C41.3154 67.0121 41.474 66.5925 41.8337 66.1716C42.288 65.6416 42.5873 65.0398 42.7316 64.3662C43.0093 63.0664 43.4306 61.7398 43.9955 60.3862C44.0556 60.2412 44.0061 60.1824 43.8471 60.21C43.4515 60.2787 43.002 60.2833 42.4986 60.2238C42.0869 60.1757 41.6777 60.112 41.2711 60.0328C41.2681 60.0321 41.0304 59.9723 40.5578 59.8534C40.2127 59.7664 39.8885 59.7328 39.5852 59.7526C37.9191 59.8637 36.353 59.8018 34.887 59.5669C33.5828 59.3581 32.3853 58.958 31.2944 58.3665C30.1177 57.7276 29.1733 56.8647 28.4611 55.7779C28.1014 55.2281 27.7985 54.5991 27.5523 53.8908C27.3134 53.2017 27.1574 52.5199 27.0841 51.8456C26.9105 50.2536 27.0057 48.6163 27.3698 46.9338C27.6548 45.6163 28.0084 44.4057 28.4304 43.3019C29.618 40.1985 31.2471 37.2685 33.3176 34.5119C34.5587 32.8604 35.9721 31.3611 37.5575 30.0139C38.6609 29.0757 39.8468 28.2482 41.115 27.5315C41.5099 27.3079 41.9228 27.1236 42.3536 26.9785C43.8079 26.4868 45.3029 26.1776 46.8386 26.0509C47.9134 25.9618 48.9391 25.9897 49.9158 26.1348ZM31.2625 57.4739C32.2538 58.1468 33.3887 58.641 34.6672 58.9566C36.3142 59.3627 37.8638 59.5661 39.3159 59.5669C39.3768 59.5669 39.3929 59.552 39.3643 59.5223C39.3533 59.5117 39.3332 59.5021 39.3039 59.4936C38.4122 59.2467 37.485 58.888 36.5223 58.4174C34.1272 57.2464 32.3479 55.5578 31.1845 53.3517C30.3419 51.7526 29.8726 50.03 29.7766 48.184C29.721 47.1177 29.7711 46.1102 29.9272 45.1613C30.484 41.7622 31.7365 38.6769 33.6847 35.9054C34.1199 35.2863 34.6829 34.6537 35.3738 34.0077C36.5849 32.8757 38.0228 32.1585 39.6874 31.8564C40.2076 31.7623 40.7322 31.7301 41.2612 31.7598C41.7205 31.7853 42.3605 31.9042 43.1811 32.1164C45.5037 32.7172 47.8951 33.0405 50.3554 33.0865C52.05 33.1183 53.6436 33.1007 55.136 33.0334C55.5566 33.0497 55.976 33.0402 56.3944 33.0048C56.4089 33.0037 56.4224 32.997 56.432 32.9861C56.4416 32.9752 56.4467 32.961 56.446 32.9464C56.3456 30.9263 55.4855 29.3389 53.8656 28.1842C53.4157 27.8637 52.8981 27.5867 52.3127 27.3532C51.835 27.1621 51.2727 26.9958 50.6257 26.8543C48.8087 26.4567 46.9749 26.3537 45.1241 26.5455C44.3468 26.6261 43.6328 26.774 42.9822 26.9891C41.9704 27.3245 41.0179 27.7876 40.1248 28.3784C39.0412 29.0952 38.029 29.8961 37.0883 30.7813C35.2749 32.4872 33.7466 34.2572 32.5033 36.0912C31.646 37.3563 30.8394 38.8266 30.0833 40.5021C29.0722 42.7436 28.4611 45.075 28.2501 47.4963C28.1915 48.167 28.1765 48.8739 28.2051 49.6168C28.2556 50.9421 28.3959 52.2599 28.626 53.5703C28.7865 54.4852 29.137 55.3006 29.6777 56.0167C30.0712 56.5382 30.5994 57.0239 31.2625 57.4739ZM50.9049 43.494C51.0697 44.7181 51.8115 45.3174 53.1303 45.2919C54.0242 45.2749 54.7843 45.2378 55.4108 45.1804C57.1992 45.0177 58.9279 45.1012 60.5969 45.4309C61.3215 45.5745 62.0359 45.8501 62.74 46.2577C63.5151 46.7056 64.0086 47.3809 64.2203 48.2838C64.2489 48.4069 64.3145 48.5077 64.417 48.5863C64.9226 48.9754 65.3684 49.4138 65.7545 49.9013C65.7629 49.912 65.7737 49.9207 65.7862 49.9268C65.7986 49.9328 65.8124 49.936 65.8264 49.9361C65.8404 49.9362 65.8542 49.9332 65.8669 49.9274C65.8796 49.9215 65.8908 49.913 65.8996 49.9023C66.3648 49.3299 66.759 48.6896 67.0821 47.9813C67.1319 47.8723 67.1268 47.7662 67.0667 47.6629C66.4813 46.6469 65.7344 45.7444 64.8259 44.9554C64.165 44.3816 63.4789 43.8393 62.7674 43.3284C61.7007 42.5614 61.1168 42.1355 61.0156 42.0506C59.6925 40.9411 58.6187 39.5826 57.7945 37.975C57.1395 36.6986 56.7296 35.425 56.5647 34.1542C56.5628 34.1397 56.5553 34.1264 56.5437 34.1169C56.5321 34.1075 56.5172 34.1026 56.5021 34.1033C54.5319 34.1599 52.5746 34.0339 50.6301 33.7254C49.4029 33.5316 48.1757 33.3363 46.9485 33.1396C46.3404 33.0426 45.7304 32.9591 45.1186 32.8891C44.2871 32.7943 43.6749 32.7327 43.2822 32.7044C42.0301 32.6153 40.7794 32.663 39.5302 32.8477C39.2211 32.8937 38.8056 33.061 38.284 33.3497C36.6369 34.2625 35.2171 35.4176 34.0243 36.815C33.5634 37.3548 33.1432 37.9336 32.7637 38.5513C31.1878 41.1106 30.421 43.9677 30.4635 47.1227C30.4899 49.0798 30.7921 50.8621 31.3702 52.4697C32.1212 54.5598 33.488 56.0744 35.4705 57.0133C36.138 57.3288 37.0058 57.6405 38.0741 57.9483C39.0309 58.2236 39.8654 58.5161 40.5776 58.826C41.1996 59.0963 41.618 59.2545 41.8326 59.3005C42.6078 59.4667 43.4046 59.4144 44.223 59.1434C44.2495 59.1347 44.2721 59.1175 44.2873 59.0948C44.3025 59.0721 44.3092 59.0451 44.3065 59.0181C44.2428 58.4104 44.1299 57.7969 43.968 57.1778C43.9638 57.1626 43.9548 57.149 43.9424 57.1389C43.9301 57.1289 43.9148 57.1228 43.8988 57.1215C43.6064 57.1031 43.2309 57.0957 42.7723 57.0992C41.8257 57.1063 40.8663 56.9892 39.894 56.7479C38.5913 56.4246 37.5264 55.7552 36.6992 54.7399C35.7849 53.6177 35.3497 52.3763 35.3936 51.0157C35.4156 50.3506 35.5742 49.6642 35.8695 48.9567C36.3618 47.78 37.0989 46.7463 38.0807 45.8554C38.2646 45.7267 38.2741 45.7359 38.1092 45.883C37.9129 46.0585 37.7429 46.2534 37.5993 46.4678C37.5297 46.5718 37.4022 46.7923 37.2169 47.1291C36.6424 48.1706 36.2963 49.2563 36.1783 50.3863C35.8962 53.0906 37.0044 54.9125 39.5028 55.8522C40.7476 56.3206 42.1308 56.5247 43.6526 56.4646C43.6587 56.4644 43.6647 56.4627 43.6701 56.4597C43.6754 56.4568 43.68 56.4526 43.6833 56.4475C43.6866 56.4424 43.6887 56.4365 43.6893 56.4305C43.6899 56.4244 43.689 56.4183 43.6867 56.4126C43.2815 55.4043 42.603 54.6599 41.6513 54.1795C41.6506 54.1795 41.2894 54.0366 40.5677 53.7507C39.7244 53.4175 38.9507 52.9657 38.2466 52.3954C37.7052 51.9567 37.3568 51.4706 37.2015 50.9371C37.0762 50.5048 37.2044 50.1287 37.5861 49.8089C38.2616 49.2422 39.013 48.7918 39.8402 48.4578C41.2586 47.884 42.7214 47.4475 44.2285 47.1482C45.8 46.8361 47.3848 46.6104 48.9827 46.471C51.3866 46.2609 53.2637 46.1685 54.614 46.194C56.2793 46.2251 57.7813 46.349 59.1199 46.5655C60.52 46.7919 61.9296 47.2331 63.3488 47.889C63.3825 47.9045 63.3935 47.8953 63.3818 47.8614C63.1657 47.2592 62.7649 46.8057 62.1795 46.5007C61.4007 46.0953 60.5724 45.83 59.6946 45.7047C58.1253 45.4819 56.5508 45.4412 54.9712 45.5827C54.1586 45.6556 53.4443 45.6559 52.8281 45.5837C52.546 45.5505 52.2533 45.4709 51.95 45.3449C51.6181 45.2077 51.3716 45.0457 51.2104 44.8589C50.9488 44.5567 50.8195 44.1704 50.8224 43.6999C50.8232 43.6001 50.8367 43.5272 50.8631 43.4812C50.8844 43.4437 50.8983 43.448 50.9049 43.494ZM61.5849 41.6908C62.7711 42.7486 63.9712 43.7919 65.1852 44.8206C65.9663 45.5487 66.6704 46.3677 67.2975 47.2776C67.3298 47.3243 67.3532 47.3204 67.3679 47.266C67.7239 45.9075 67.7763 44.5755 67.525 43.27C67.2283 41.7325 66.6997 40.2732 65.9392 38.892C65.7355 38.5227 65.5329 38.1526 65.3314 37.7819C64.4793 36.2118 63.2492 35.1352 61.641 34.5522C60.405 34.1043 59.125 33.9165 57.8011 33.9886C57.7751 33.99 57.7494 33.9939 57.7256 34C57.7018 34.0061 57.6803 34.0143 57.6624 34.0242C57.6445 34.034 57.6306 34.0454 57.6213 34.0575C57.6121 34.0696 57.6079 34.0823 57.6088 34.0948C57.8234 36.6045 58.7964 38.7869 60.5277 40.6422C60.9226 41.0653 61.275 41.4148 61.5849 41.6908ZM52.0819 50.174C51.8643 50.571 51.546 50.8731 51.1269 51.0804C50.614 51.3337 50.0766 51.5071 49.5146 51.6005C49.0369 51.6797 48.7248 51.748 48.5783 51.8053C47.9423 52.0558 47.4339 52.4743 47.0529 53.0609C46.6536 53.6757 46.3352 54.3277 46.0979 55.0169C45.9682 55.3919 45.826 55.8076 45.6714 56.264C45.6661 56.2797 45.6649 56.2965 45.6679 56.3128C45.6709 56.3291 45.6781 56.3444 45.6888 56.3574C45.6995 56.3703 45.7133 56.3805 45.7291 56.387C45.7449 56.3935 45.7621 56.3961 45.7791 56.3945C46.7397 56.3068 47.6515 56.1791 48.5146 56.0114C48.7204 55.971 48.8776 55.8914 48.986 55.7726C49.0681 55.6827 49.1095 55.6374 49.1102 55.6367C50.2041 54.6178 51.5192 54.0649 53.0556 53.9779C53.1728 53.9708 53.1868 53.9786 53.0974 54.0012C51.8943 54.3047 50.8342 54.8552 49.9169 55.6526C49.8788 55.6859 49.8854 55.7004 49.9367 55.6962C50.1499 55.6785 50.3521 55.6424 50.5433 55.5879C50.7697 55.5235 50.8836 55.491 50.8851 55.4903C52.6332 55.0487 54.3502 54.5128 56.0361 53.8823C56.179 53.8286 56.1742 53.7957 56.0218 53.7836C55.6174 53.7511 55.1924 53.6962 54.747 53.6191C53.8048 53.455 52.8728 53.4942 51.9511 53.7369C51.1525 53.9471 50.3858 54.2358 49.6509 54.603C49.6343 54.6112 49.6172 54.6164 49.6012 54.6183C49.5852 54.6201 49.5706 54.6185 49.5586 54.6136C49.522 54.5973 49.5333 54.5701 49.5927 54.5319C49.748 54.396 49.9172 54.2796 50.1004 54.1827C50.8089 53.8056 51.5613 53.5424 52.3577 53.3931C53.3073 53.214 54.2616 53.1585 55.2206 53.2264C55.8529 53.271 56.2182 53.2947 56.3163 53.2975C56.7816 53.311 57.1483 53.3135 57.4164 53.305C57.6055 53.2986 57.8117 53.2441 58.0352 53.1415C58.3553 52.9944 58.6781 52.8521 59.0034 52.7149C59.0766 52.6894 59.0741 52.7035 58.9957 52.7573C58.8191 52.879 58.6297 52.9788 58.4275 53.0566C58.3945 53.0694 58.3696 53.0849 58.3528 53.1033C58.2978 53.1649 58.3334 53.1914 58.4594 53.1829C59.2426 53.1313 59.9833 52.9586 60.6816 52.665C61.4142 52.3565 62.0077 51.9528 62.4619 51.454C63.1345 50.7153 63.4942 49.8111 63.5411 48.7412C63.5418 48.7252 63.5378 48.7092 63.5297 48.695C63.5216 48.6808 63.5096 48.6689 63.495 48.6606C62.9257 48.3344 62.3256 48.0726 61.6948 47.8752C60.5013 47.5002 59.2836 47.2253 58.0418 47.0505C55.6701 46.7165 53.2454 46.6345 50.7675 46.8043C48.6772 46.9472 46.6492 47.2398 44.6834 47.682C43.8262 47.8752 43.1174 48.0521 42.5569 48.2127C41.581 48.4922 40.6303 48.841 39.705 49.2592C39.4031 49.395 39.1269 49.5684 38.8763 49.7792C38.4961 50.1004 38.3257 50.4677 38.3653 50.8809C38.3924 51.1604 38.5474 51.4947 38.8302 51.8838C39.102 52.2581 39.3925 52.5617 39.7017 52.7945C40.0065 53.0237 40.4164 53.185 40.9315 53.2784C41.078 53.3053 41.5077 53.4309 42.2206 53.6552C43.565 54.079 44.3684 54.9621 44.6307 56.3043C44.6378 56.3399 44.656 56.3711 44.6823 56.3924C44.8428 56.5205 44.9703 56.5187 45.0648 56.3871C45.0992 56.3397 45.1359 56.2445 45.1747 56.1016C45.5139 54.8428 46.0066 53.7359 46.6528 52.7807C46.8529 52.4849 47.1236 52.239 47.465 52.043C47.6387 51.9433 47.9694 51.7929 48.4574 51.592C48.9241 51.3995 49.4036 51.2403 49.896 51.1144C50.6045 50.9339 51.0668 50.8041 51.2829 50.7249C51.5628 50.6223 51.8255 50.4365 52.0709 50.1677C52.0951 50.1408 52.0987 50.1429 52.0819 50.174ZM65.6193 50.121C65.2091 49.7382 64.7892 49.413 64.3599 49.1456C64.3505 49.1396 64.3396 49.136 64.3283 49.1353C64.317 49.1346 64.3056 49.1367 64.2954 49.1415C64.2851 49.1463 64.2763 49.1536 64.2697 49.1627C64.2631 49.1718 64.2589 49.1823 64.2577 49.1934C64.1346 50.3622 63.6474 51.3585 62.796 52.1821C62.7931 52.1856 62.7715 52.2019 62.7312 52.2309C62.7026 52.2507 62.6909 52.2748 62.696 52.3031C62.6974 52.3092 62.7005 52.3147 62.7052 52.3192C62.7098 52.3238 62.7158 52.3272 62.7227 52.3293C62.7296 52.3313 62.7373 52.332 62.745 52.3311C62.7528 52.3302 62.7605 52.3279 62.7674 52.3243C63.8188 51.7788 64.7702 51.0733 65.6215 50.208C65.6332 50.1962 65.6395 50.1804 65.6391 50.164C65.6387 50.1477 65.6316 50.1322 65.6193 50.121ZM45.4604 57.0833L44.9901 58.8176C44.9805 58.8515 44.993 58.8621 45.0274 58.8494L47.576 57.8793C47.6127 57.8657 47.641 57.8429 47.6551 57.8157L48.2497 56.6747C48.2695 56.6372 48.2574 56.6224 48.2134 56.6301C47.3086 56.79 46.4298 56.91 45.5769 56.9899C45.5495 56.9927 45.5237 57.0031 45.5029 57.0198C45.4821 57.0364 45.4673 57.0586 45.4604 57.0833ZM44.8344 57.406C44.8484 57.4074 44.8639 57.3886 44.8775 57.3537C44.8912 57.3189 44.9019 57.2708 44.9074 57.2202C44.9128 57.1695 44.9125 57.1203 44.9064 57.0835C44.9004 57.0467 44.8892 57.0252 44.8753 57.0239C44.8614 57.0225 44.8459 57.0413 44.8322 57.0761C44.8186 57.111 44.8078 57.159 44.8024 57.2097C44.7997 57.2348 44.7984 57.2598 44.7986 57.2832C44.7987 57.3067 44.8003 57.3281 44.8033 57.3463C44.8063 57.3646 44.8106 57.3792 44.8159 57.3895C44.8213 57.3997 44.8275 57.4053 44.8344 57.406Z"
          fill="var(--current-color-1)"/>
    <path d="M51.4731 36.1241C51.7683 36.1686 51.9453 36.1998 52.0039 36.2175C52.916 36.4962 53.4893 37.0159 53.7238 37.7766C53.8909 38.3178 53.8766 38.9755 53.6809 39.7496C53.5146 40.4041 53.2384 41.0221 52.8523 41.6037C52.6164 41.9589 52.4295 42.3361 52.2918 42.7351C52.031 43.4929 52.1958 44.1216 52.7864 44.6211C52.8157 44.6452 52.8124 44.6629 52.7765 44.6742C52.6241 44.723 52.4742 44.6922 52.327 44.5818C52.1006 44.4127 51.9361 44.2118 51.8335 43.979C51.7566 43.8035 51.717 43.5594 51.7148 43.2467C51.7104 42.5349 51.8357 41.8415 52.0907 41.1665C52.3237 40.553 52.5094 39.9265 52.6479 39.2868C52.7724 38.713 52.7592 38.2117 52.6083 37.7829C52.4317 37.2813 52.0944 36.9515 51.5961 36.7938C51.3727 36.723 51.0192 36.6689 50.5356 36.6314C50.1649 36.6031 49.8048 36.6087 49.4553 36.6484C48.582 36.7474 47.7214 36.9809 46.8738 37.3488C45.2993 38.0309 43.8669 38.9263 42.5767 40.0351C41.874 40.6393 41.2637 41.1997 40.7457 41.7162C39.9134 42.5476 39.0815 43.4784 38.2499 44.5086C38.246 44.5135 38.2409 44.5172 38.2356 44.5189C38.2303 44.5207 38.2253 44.5204 38.2213 44.5182C38.2118 44.5132 38.2155 44.5037 38.2323 44.4895C39.1284 43.0857 40.1563 41.7792 41.3161 40.57C42.9148 38.903 44.8036 37.64 46.9825 36.781C48.1497 36.3211 49.4681 36.0887 50.9378 36.0837C51.1107 36.083 51.2892 36.0965 51.4731 36.1241Z"
          fill="var(--current-color-1)"/>
    <path d="M32.6788 77.0985C32.9177 77.2301 33.1422 77.3804 33.3525 77.5495C33.3667 77.5609 33.3763 77.5769 33.3797 77.5947C33.3831 77.6125 33.3801 77.631 33.3712 77.6472L32.6359 78.9813C32.6318 78.9888 32.626 78.9955 32.6191 79.0007C32.6122 79.006 32.6042 79.0098 32.5957 79.0118C32.5873 79.0138 32.5785 79.014 32.5701 79.0124C32.5617 79.0108 32.5538 79.0074 32.5469 79.0025C32.0839 78.6608 31.5655 78.4382 30.9918 78.3349C30.7171 78.2861 30.505 78.2606 30.3555 78.2585C30.1189 78.2557 29.9068 78.3042 29.7192 78.4039C29.3617 78.595 29.2448 78.833 29.3686 79.1182C29.4426 79.2901 29.6056 79.4384 29.8577 79.5629C30.1478 79.7065 30.4383 79.8134 30.7292 79.8834C31.193 79.9945 31.6307 80.1286 32.0425 80.2857C32.5869 80.493 32.9792 80.7159 33.2195 80.9543C33.4767 81.2097 33.6496 81.5158 33.7382 81.8724C33.8159 82.1865 33.8155 82.5233 33.7371 82.8828C33.5899 83.5521 33.2345 84.0601 32.6711 84.4068C32.2359 84.6743 31.6648 84.8384 30.9578 84.8993C29.5181 85.0217 28.207 84.6134 27.0245 83.6745C27.0125 83.6646 27.0046 83.651 27.0023 83.6364C27.0001 83.6218 27.0037 83.6074 27.0124 83.596L27.9751 82.3128C27.9793 82.3073 27.9846 82.3027 27.9908 82.2993C27.997 82.2959 28.0039 82.2937 28.011 82.2929C28.0182 82.2921 28.0255 82.2927 28.0326 82.2947C28.0396 82.2966 28.0462 82.2999 28.052 82.3043C28.7583 82.8322 29.5588 83.1414 30.4533 83.2319C30.6893 83.256 30.9109 83.2298 31.1182 83.1534C31.3432 83.0706 31.508 82.9401 31.6128 82.7618C31.7395 82.546 31.7172 82.3411 31.5457 82.1473C31.449 82.039 31.2845 81.9435 31.0523 81.8607C30.3848 81.6222 29.7093 81.4054 29.0257 81.2101C28.6125 81.0714 28.2425 80.863 27.9158 80.585C27.5018 80.2326 27.2736 79.7868 27.2311 79.2477C27.1498 78.2352 27.5553 77.4841 28.4477 76.9945C28.8733 76.7617 29.3316 76.6276 29.8225 76.5922C30.5413 76.5406 31.2424 76.6088 31.926 76.7971C32.1993 76.8728 32.4502 76.9732 32.6788 77.0985Z"
          fill="var(--current-color-1)"/>
    <path d="M59.31 77.3878C60.2412 77.9842 60.812 78.8697 61.0222 80.0443C61.2164 81.1254 61.045 82.1068 60.5079 82.9884C60.2112 83.4759 59.8243 83.8821 59.3474 84.2068C58.8587 84.5394 58.3227 84.7655 57.7395 84.885C57.0171 85.0336 56.2881 85.0428 55.5525 84.9126C54.7825 84.7761 54.1011 84.4577 53.5084 83.9574C52.4717 83.0829 52.0068 81.9398 52.1138 80.5283C52.187 79.5617 52.5068 78.7505 53.0732 78.0946C53.5245 77.5724 54.1227 77.1801 54.8679 76.9176C55.6416 76.6452 56.4391 76.5628 57.2604 76.6703C58.0385 76.7722 58.7217 77.0113 59.31 77.3878ZM56.6187 83.1295C56.9165 83.1275 57.2111 83.0662 57.4854 82.9489C57.7598 82.8317 58.0086 82.6609 58.2177 82.4464C58.4268 82.2318 58.5921 81.9776 58.704 81.6983C58.816 81.419 58.8725 81.1201 58.8703 80.8186C58.8682 80.5172 58.8073 80.219 58.6913 79.9413C58.5753 79.6635 58.4064 79.4116 58.1943 79.1999C57.9821 78.9881 57.7308 78.8207 57.4548 78.7072C57.1787 78.5937 56.8834 78.5363 56.5855 78.5383C56.2876 78.5403 55.9931 78.6017 55.7187 78.7189C55.4443 78.8361 55.1955 79.0069 54.9864 79.2215C54.7773 79.4361 54.6121 79.6903 54.5001 79.9696C54.3881 80.2488 54.3316 80.5478 54.3338 80.8492C54.336 81.1507 54.3968 81.4488 54.5128 81.7266C54.6288 82.0043 54.7977 82.2562 55.0099 82.468C55.2221 82.6797 55.4733 82.8471 55.7494 82.9607C56.0254 83.0742 56.3208 83.1316 56.6187 83.1295Z"
          fill="var(--current-color-1)"/>
    <path d="M81.5669 76.6544C83.2535 76.7895 84.4441 77.5063 85.1386 78.8046C85.4339 79.3558 85.5988 79.9399 85.6332 80.5569C85.6698 81.1951 85.5709 81.8079 85.3365 82.3952C85.0639 83.0758 84.6371 83.6394 84.0561 84.0859C83.4978 84.5154 82.8615 84.7913 82.1472 84.9137C81.4614 85.0312 80.7811 85.0315 80.1063 84.9148C79.3187 84.7782 78.6219 84.4503 78.016 83.9309C77.1002 83.1455 76.6416 82.1263 76.6401 80.8732C76.6386 79.2918 77.2625 78.1148 78.5117 77.3421C78.9637 77.0619 79.4491 76.8659 79.9679 76.7541C80.4815 76.6431 81.0145 76.6098 81.5669 76.6544ZM81.1606 83.1285C81.4585 83.127 81.7531 83.0661 82.0277 82.9494C82.3023 82.8326 82.5514 82.6622 82.7609 82.448C82.9704 82.2338 83.1361 81.9799 83.2486 81.7008C83.3611 81.4217 83.4181 81.1229 83.4165 80.8214C83.4132 80.2126 83.171 79.6299 82.7433 79.2015C82.3156 78.7731 81.7373 78.5342 81.1357 78.5372C80.8379 78.5387 80.5432 78.5996 80.2686 78.7164C79.9941 78.8331 79.7449 79.0035 79.5355 79.2177C79.326 79.4319 79.1603 79.6859 79.0478 79.965C78.9353 80.244 78.8783 80.5429 78.8799 80.8443C78.8832 81.4532 79.1253 82.0359 79.5531 82.4642C79.9808 82.8926 80.559 83.1315 81.1606 83.1285Z"
          fill="var(--current-color-1)"/>
    <path d="M49.2034 76.7047C49.8935 76.8505 50.5291 77.1392 51.1101 77.5708C51.127 77.5834 51.1386 77.6014 51.1426 77.6214C51.1467 77.6413 51.1429 77.6619 51.1321 77.679L50.1947 79.2073C50.1897 79.2151 50.1831 79.2217 50.1752 79.2268C50.1673 79.2318 50.1583 79.2351 50.1489 79.2364C50.1395 79.2377 50.1298 79.237 50.1207 79.2344C50.1115 79.2317 50.103 79.2272 50.0957 79.2211C49.4686 78.6926 48.7649 78.4559 47.9846 78.5111C47.4058 78.5521 46.9262 78.7432 46.546 79.0842C46.1943 79.3998 45.9631 79.813 45.8525 80.3239C45.7265 80.9104 45.8188 81.4521 46.1295 81.9488C46.4255 82.42 46.835 82.7469 47.3581 82.9295C47.9538 83.1361 48.5813 83.1067 49.2407 82.8414C49.6115 82.6921 49.9459 82.4681 50.2441 82.1695C50.2529 82.1607 50.2637 82.1538 50.2756 82.1495C50.2875 82.1452 50.3003 82.1435 50.313 82.1447C50.3256 82.1458 50.3379 82.1497 50.3488 82.156C50.3597 82.1623 50.369 82.1709 50.376 82.1812L51.2783 83.5058C51.2936 83.528 51.3006 83.5547 51.2982 83.5815C51.2958 83.6083 51.2842 83.6336 51.2651 83.6533C50.6335 84.3028 49.8899 84.7047 49.0341 84.859C48.3198 84.987 47.6014 84.981 46.879 84.8409C46.1405 84.6973 45.4807 84.3736 44.8997 83.8698C44.0256 83.1134 43.571 82.1476 43.5358 80.9724C43.5073 80.0235 43.7282 79.1939 44.1985 78.4835C44.9099 77.4101 45.8917 76.7917 47.1438 76.6283C47.8435 76.537 48.53 76.5625 49.2034 76.7047Z"
          fill="var(--current-color-1)"/>
    <path d="M96.8155 76.6544C97.4375 76.624 98.0193 76.706 98.5607 76.9006C99.0992 77.0931 99.5725 77.403 99.9806 77.8303C100.874 78.765 101.18 79.9463 100.899 81.3741C100.896 81.3898 100.888 81.4039 100.875 81.4142C100.863 81.4245 100.847 81.4302 100.83 81.4304C99.7363 81.441 98.6431 81.4491 97.5507 81.4548C97.4445 81.4548 97.0276 81.4495 96.3001 81.4389C95.8685 81.4318 95.4513 81.4385 95.0483 81.459C95.0282 81.4601 95.0086 81.4654 94.991 81.4748C94.9733 81.4841 94.958 81.4972 94.9463 81.513C94.9346 81.5288 94.9267 81.5469 94.9233 81.5661C94.9198 81.5852 94.9208 81.6049 94.9263 81.6236C95.0985 82.2094 95.4102 82.6449 95.8615 82.9301C96.2462 83.1727 96.7426 83.298 97.3507 83.3058C98.1478 83.3164 98.9032 83.1052 99.6168 82.6722C99.631 82.6635 99.6469 82.6581 99.6636 82.6562C99.6802 82.6544 99.6971 82.6561 99.7131 82.6614C99.7291 82.6667 99.7437 82.6753 99.7559 82.6867C99.7682 82.6981 99.7777 82.712 99.7839 82.7273L100.262 83.932C100.275 83.9664 100.276 84.004 100.265 84.0387C100.254 84.0734 100.23 84.1031 100.199 84.123C99.5612 84.532 98.8951 84.7959 98.2013 84.9148C97.487 85.0379 96.7832 85.0358 96.0901 84.9084C95.5802 84.8157 95.101 84.6402 94.6526 84.382C94.2065 84.1251 93.8335 83.7996 93.5339 83.4055C92.9434 82.6293 92.6726 81.7056 92.7217 80.6344C92.7708 79.5561 93.1346 78.6592 93.813 77.9439C94.1933 77.5427 94.6431 77.2335 95.1626 77.0163C95.6718 76.804 96.2228 76.6834 96.8155 76.6544ZM94.9626 80.0581C96.2411 80.0942 97.5254 80.092 98.8157 80.0517C98.8254 80.0515 98.8351 80.0493 98.8439 80.0453C98.8528 80.0413 98.8607 80.0356 98.8672 80.0285C98.8737 80.0215 98.8786 80.0132 98.8817 80.0042C98.8847 79.9952 98.8858 79.9858 98.8849 79.9764C98.8321 79.4436 98.6336 79.0381 98.2892 78.7601C97.9976 78.5252 97.5947 78.39 97.0803 78.3546C96.0011 78.2803 95.2582 78.7962 94.8516 79.9021C94.8451 79.9195 94.8431 79.9381 94.8455 79.9564C94.848 79.9748 94.8549 79.9922 94.8658 80.0075C94.8766 80.0227 94.891 80.0352 94.9079 80.044C94.9247 80.0528 94.9434 80.0577 94.9626 80.0581Z"
          fill="var(--current-color-1)"/>
    <path d="M92.1546 76.8953C92.1857 76.9072 92.2108 76.9304 92.2243 76.9598C92.2379 76.9892 92.2389 77.0224 92.2272 77.0524L91.5524 78.8004C91.5471 78.8142 91.5371 78.8257 91.524 78.8329C91.5109 78.8401 91.4956 78.8425 91.4809 78.8397C91.3381 78.8085 91.2 78.7633 91.0666 78.7038C90.2556 78.459 89.624 78.6553 89.172 79.2929C89.1023 79.3912 89.0676 79.4998 89.0676 79.6187V84.7725C89.0676 84.7869 89.0618 84.8007 89.0515 84.8108C89.0411 84.821 89.0272 84.8267 89.0126 84.8267L87.0289 84.8203C87.0085 84.8203 86.9889 84.8124 86.9745 84.7982C86.9601 84.7841 86.952 84.7649 86.952 84.7449V76.9324C86.952 76.9203 86.9545 76.9083 86.9593 76.8971C86.9641 76.8859 86.9711 76.8757 86.98 76.8672C86.9889 76.8586 86.9994 76.8518 87.011 76.8471C87.0226 76.8425 87.035 76.8401 87.0476 76.8401H88.9544C88.9837 76.8402 89.012 76.8524 89.0333 76.8742C89.0546 76.8959 89.0672 76.9255 89.0687 76.9569L89.0939 77.5247C89.0954 77.5636 89.1089 77.5664 89.1346 77.5332C89.4548 77.1157 89.8445 76.8582 90.3039 76.7605C90.9399 76.6254 91.5568 76.6703 92.1546 76.8953Z"
          fill="var(--current-color-1)"/>
    <path d="M34.3988 76.779L36.7935 76.7854C36.8099 76.7854 36.8259 76.79 36.8397 76.7987C36.8536 76.8073 36.8646 76.8197 36.8715 76.8342C37.5001 78.2125 38.113 79.5976 38.7101 80.9893C38.8823 81.3898 39.034 81.7917 39.1651 82.195C39.1878 82.2644 39.2058 82.2633 39.219 82.1918C39.3113 81.6845 39.4421 81.1871 39.6113 80.6996C40.0546 79.426 40.5037 78.1375 40.9587 76.8342C40.964 76.8182 40.9746 76.8042 40.9888 76.7943C41.003 76.7844 41.0202 76.779 41.0378 76.779H43.3259C43.3322 76.7791 43.3383 76.7806 43.3438 76.7835C43.3493 76.7864 43.3539 76.7905 43.3574 76.7956C43.3608 76.8006 43.363 76.8063 43.3636 76.8123C43.3643 76.8183 43.3634 76.8244 43.3611 76.83C42.8065 78.1694 42.2654 79.5006 41.7379 80.8238C41.0807 82.4738 40.3945 84.1129 39.6794 85.7409C39.3476 86.4952 38.9537 87.1232 38.498 87.6248C37.9507 88.2262 37.2386 88.4318 36.3616 88.2415C35.9593 88.1544 35.5622 87.9871 35.1703 87.7394C35.1576 87.7318 35.1484 87.7197 35.1442 87.7055C35.1399 87.6913 35.141 87.6759 35.1472 87.662L35.7824 86.2302C35.7868 86.2202 35.7934 86.2112 35.8017 86.2039C35.81 86.1965 35.8197 86.1909 35.8303 86.1875C35.841 86.1841 35.8522 86.1829 35.8632 86.1841C35.8743 86.1852 35.885 86.1886 35.8945 86.1941C36.5612 86.5649 37.1177 86.4757 37.5639 85.9267C37.7961 85.6401 37.9749 85.2548 38.1002 84.7709C38.1088 84.7379 38.1053 84.7027 38.0903 84.6711L34.3669 76.8278C34.3645 76.8225 34.3635 76.8167 34.3639 76.8109C34.3644 76.8051 34.3663 76.7995 34.3694 76.7947C34.3726 76.7899 34.3769 76.7859 34.3821 76.7831C34.3872 76.7804 34.3929 76.779 34.3988 76.779Z"
          fill="var(--current-color-1)"/>
    <path d="M30.9031 93.5604C31.4519 93.5597 31.9534 93.64 32.4076 93.8013C33.2641 94.1056 33.8034 94.6985 34.0254 95.5801C34.1213 95.9608 34.1697 96.3475 34.1704 96.7402C34.1719 98.4383 34.1726 100.136 34.1726 101.835C34.1726 101.849 34.1668 101.862 34.1565 101.872C34.1462 101.882 34.1323 101.888 34.1177 101.888H32.4373C32.3935 101.888 32.3514 101.869 32.32 101.836C32.2886 101.803 32.2703 101.758 32.2692 101.711L32.2527 101.097C32.2512 101.058 32.2344 101.052 32.2021 101.08C31.2255 101.905 30.1148 102.174 28.87 101.888C28.2377 101.742 27.7567 101.426 27.427 100.941C27.1456 100.527 27.0083 100.02 27.0149 99.419C27.0295 98.0888 27.7853 97.2666 29.2821 96.9524C30.225 96.7543 31.1431 96.8874 32.0362 97.3515C32.0415 97.3544 32.0474 97.3559 32.0535 97.356C32.0596 97.356 32.0655 97.3546 32.0709 97.3519C32.0763 97.3491 32.0808 97.3451 32.0842 97.3403C32.0875 97.3354 32.0895 97.3298 32.09 97.3239C32.1311 96.9241 32.0838 96.5336 31.9483 96.1522C31.8464 95.8671 31.6753 95.653 31.435 95.5101C31.2548 95.4032 30.9995 95.3403 30.669 95.3212C29.8543 95.2745 29.0766 95.4365 28.3359 95.8073C28.3226 95.814 28.308 95.818 28.2931 95.8188C28.2782 95.8197 28.2634 95.8175 28.2497 95.8123C28.2359 95.8071 28.2236 95.7992 28.2136 95.7889C28.2037 95.7787 28.1962 95.7665 28.1919 95.7531L27.7369 94.3575C27.7324 94.3432 27.7334 94.3278 27.7399 94.3138C27.7463 94.2998 27.7577 94.2883 27.7721 94.2811C28.7531 93.8006 29.7968 93.5604 30.9031 93.5604ZM29.5777 99.9571C29.8591 100.172 30.2009 100.267 30.6031 100.243C31.1343 100.209 31.5662 100.043 31.8988 99.7448C32.0417 99.6175 32.1164 99.4487 32.123 99.2386C32.1289 99.0461 32.1278 98.9195 32.1197 98.8586C32.0992 98.7121 32.0105 98.6035 31.8538 98.5328C31.4164 98.3354 30.9346 98.2508 30.4086 98.2791C30.0371 98.2989 29.7378 98.4189 29.5107 98.6389C29.3231 98.82 29.2268 99.0312 29.2217 99.2725C29.2165 99.5442 29.3352 99.7724 29.5777 99.9571Z"
          fill="var(--current-color-1)"/>
    <path d="M41.9206 93.6623C42.5953 93.8031 43.1196 94.1834 43.4932 94.8032C43.4965 94.8084 43.5009 94.8127 43.5061 94.816C43.5113 94.8192 43.5172 94.8212 43.5233 94.8218C43.5294 94.8224 43.5356 94.8217 43.5412 94.8195C43.5469 94.8174 43.5519 94.814 43.5559 94.8096C44.3735 93.8891 45.4494 93.4801 46.7836 93.5827C47.7112 93.6542 48.375 94.0352 48.775 94.7258C48.9149 94.9677 49.019 95.2635 49.0871 95.613C49.1472 95.9222 49.1769 96.236 49.1761 96.5544C49.1747 98.3495 49.1739 100.125 49.1739 101.88C49.1739 101.895 49.1709 101.91 49.165 101.924C49.1591 101.937 49.1504 101.95 49.1395 101.961C49.1286 101.971 49.1156 101.979 49.1014 101.985C49.0871 101.991 49.0718 101.994 49.0564 101.994H47.0573C47.043 101.994 47.0288 101.991 47.0156 101.986C47.0024 101.981 46.9904 101.973 46.9803 101.963C46.9702 101.953 46.9622 101.942 46.9568 101.929C46.9513 101.916 46.9485 101.903 46.9485 101.889C46.9485 100.261 46.951 98.6417 46.9562 97.032C46.9591 96.0209 46.4345 95.5288 45.3824 95.5557C44.7135 95.572 44.1933 95.825 43.8218 96.3146C43.7647 96.3897 43.7339 96.4808 43.7339 96.5746V101.908C43.7339 101.924 43.7274 101.94 43.7158 101.952C43.7041 101.964 43.6882 101.971 43.6713 101.972C42.9584 102.012 42.2583 102.009 41.5711 101.964C41.5559 101.963 41.5417 101.957 41.5313 101.947C41.5208 101.936 41.515 101.922 41.515 101.908C41.507 100.221 41.5048 98.5338 41.5084 96.8463C41.4923 96.4175 41.3392 96.0867 41.0491 95.854C40.8007 95.6537 40.4758 95.5511 40.0743 95.5462C39.4793 95.5384 38.95 95.7507 38.4862 96.183C38.3199 96.3379 38.243 96.5201 38.2554 96.7296C38.2627 96.847 38.2664 96.9075 38.2664 96.911C38.2664 98.5781 38.2664 100.237 38.2664 101.889C38.2664 101.903 38.2636 101.916 38.2581 101.929C38.2526 101.942 38.2446 101.953 38.2345 101.963C38.2244 101.973 38.2124 101.981 38.1992 101.986C38.186 101.991 38.1719 101.994 38.1576 101.994H36.1783C36.1492 101.994 36.1212 101.983 36.1006 101.963C36.08 101.943 36.0684 101.916 36.0684 101.888L36.0486 93.7759C36.0485 93.7685 36.0498 93.7611 36.0525 93.7542C36.0551 93.7474 36.0591 93.7411 36.0642 93.7358C36.0693 93.7304 36.0754 93.7262 36.0822 93.7232C36.0889 93.7203 36.0962 93.7187 36.1036 93.7186L38.1532 93.6941C38.1679 93.6938 38.1826 93.6965 38.1963 93.7021C38.2099 93.7076 38.2224 93.7159 38.2327 93.7265C38.2431 93.737 38.2513 93.7495 38.2567 93.7633C38.2621 93.7771 38.2646 93.7918 38.2642 93.8066L38.2466 94.487C38.2452 94.5627 38.2748 94.5761 38.3356 94.5273C39.3995 93.674 40.5944 93.3856 41.9206 93.6623Z"
          fill="var(--current-color-1)"/>
    <path d="M68.2361 76.7605C68.9277 76.8921 69.4318 77.2586 69.7483 77.8601C69.752 77.8668 69.7573 77.8726 69.7638 77.877C69.7703 77.8814 69.7777 77.8842 69.7855 77.8852C69.7932 77.8863 69.8011 77.8855 69.8084 77.883C69.8157 77.8804 69.8222 77.8762 69.8274 77.8707C70.448 77.2381 71.1649 76.8553 71.9781 76.7223C72.7167 76.602 73.3644 76.6707 73.9212 76.9282C74.5806 77.2332 74.9953 77.7964 75.1652 78.6179C75.2414 78.9851 75.2766 79.6838 75.2707 80.714L75.2521 84.5879C75.2521 84.5879 75.2608 84.8762 75.0279 84.8267C74.4168 84.8295 73.8058 84.8274 73.1947 84.8203C73.1799 84.8203 73.1656 84.8148 73.1551 84.8051C73.1446 84.7953 73.1387 84.7821 73.1387 84.7683C73.1306 83.2308 73.1277 81.6936 73.1299 80.1568C73.1299 79.8441 73.0918 79.5808 73.0156 79.3672C72.8478 78.9009 72.4936 78.644 71.9529 78.5966C71.166 78.5273 70.5447 78.7933 70.089 79.3948C70.0533 79.4409 70.034 79.4975 70.034 79.5561L70.0208 84.7672C70.0208 84.7744 70.0194 84.7816 70.0167 84.7882C70.014 84.7948 70.01 84.8009 70.005 84.8059C70 84.8109 69.994 84.8149 69.9875 84.8176C69.981 84.8202 69.974 84.8215 69.967 84.8214L67.9668 84.8001C67.958 84.8001 67.9495 84.7966 67.9431 84.7902C67.9367 84.7839 67.933 84.7753 67.9327 84.7662C67.9144 83.1147 67.9075 81.481 67.9119 79.8649C67.9133 79.4729 67.7778 79.1598 67.5052 78.9256C67.2774 78.7289 66.9751 78.6193 66.5986 78.5966C65.9208 78.5556 65.3494 78.7979 64.8841 79.3236C64.8345 79.3798 64.8072 79.4509 64.8072 79.5242L64.8149 84.7439C64.8149 84.7513 64.8134 84.7586 64.8104 84.7654C64.8075 84.7722 64.8032 84.7784 64.7978 84.7837C64.7924 84.7889 64.786 84.793 64.7789 84.7959C64.7719 84.7987 64.7643 84.8001 64.7566 84.8001L62.7257 84.7938C62.7114 84.7938 62.6977 84.7882 62.6876 84.7782C62.6775 84.7683 62.6718 84.7548 62.6718 84.7407L62.6916 76.8985C62.6916 76.8875 62.6938 76.8767 62.698 76.8666C62.7022 76.8564 62.7084 76.8473 62.7162 76.8396C62.7239 76.8319 62.7331 76.8258 62.7433 76.8217C62.7534 76.8176 62.7642 76.8156 62.7751 76.8157L64.7314 76.8316C64.7397 76.8316 64.7479 76.8331 64.7556 76.8358C64.7633 76.8385 64.7702 76.8425 64.7761 76.8476C64.7819 76.8526 64.7865 76.8586 64.7896 76.8651C64.7926 76.8717 64.7941 76.8787 64.794 76.8857L64.7786 77.5374C64.7764 77.6287 64.8087 77.646 64.8753 77.5894C65.8183 76.7892 66.9385 76.5129 68.2361 76.7605Z"
          fill="var(--current-color-1)"/>
</svg>
