<svg id="logo" viewBox="0 0 266 68" fill="none" xmlns="http://www.w3.org/2000/svg">
    <path d="M42.2139 15.451C42.2139 16.0261 42.2139 16.6013 42.0693 17.0327C42.0693 17.3203 42.0693 17.6078 42.0693 17.7516C42.0693 17.8954 42.3584 17.4641 42.3584 17.1765C42.503 16.7451 42.6476 16.1699 42.6476 15.7386C42.7921 15.1634 42.6476 14.732 42.503 14.5882L41.6356 14.1569C42.0693 14.3007 42.2139 14.732 42.2139 15.451ZM40.9128 14.8758L41.0573 15.1634C41.3465 16.3137 41.491 17.4641 41.491 18.7582V19.6209L41.6356 18.7582C41.7802 17.6078 41.7802 16.4575 41.6356 15.3072C41.6356 15.3072 41.6356 15.1634 41.6356 15.0196C41.491 14.4444 41.2019 13.8693 40.6237 13.5817L39.7563 13.2941H39.4671C39.7563 13.4379 39.9008 13.5817 40.19 13.7255C40.4791 14.0131 40.7682 14.4444 40.9128 14.8758ZM47.2736 19.4771C47.2736 19.6209 47.4182 19.7647 47.8519 19.9085C47.2736 19.6209 46.6953 19.4771 46.1171 19.4771C46.4062 19.4771 46.5508 19.4771 46.4062 19.3333C46.2616 19.1895 46.1171 19.1895 45.828 19.1895H45.6834C44.5269 19.1895 43.5149 19.3333 42.3584 19.6209L41.491 19.9085C41.7802 19.9085 41.9247 19.7647 42.2139 19.7647L41.491 19.9085H42.503C43.8041 19.7647 45.1051 19.9085 46.2617 20.1961C47.9964 20.4837 49.4421 21.3464 50.454 22.7843C50.3094 22.4967 50.0203 21.9216 49.7312 21.634C49.4421 21.2026 49.1529 20.915 48.7192 20.6275C48.8638 20.6275 48.8638 20.6275 48.8638 20.6275C48.8638 20.6275 48.8638 20.6275 48.8638 20.4837C48.7192 20.1961 48.4301 20.0523 48.2855 19.9085C47.9964 19.7647 47.8519 19.6209 47.5627 19.6209C47.129 19.3333 47.2736 19.4771 47.2736 19.4771ZM49.1529 20.4837C49.1529 20.4837 49.2975 20.7712 49.4421 20.915L49.5866 21.2026L49.1529 20.4837ZM49.5866 21.2026L49.7312 21.4902C49.5866 21.3464 49.5866 21.2026 49.5866 21.2026ZM47.9964 21.4902C48.4301 21.634 48.4301 21.7778 48.5747 21.634V21.4902C48.4301 21.2026 48.141 21.0588 47.8519 20.915C47.4182 20.7712 46.9845 20.6275 46.5508 20.4837C45.2497 20.0523 43.9486 19.9085 42.6476 19.7647H41.6356L42.6476 19.9085C43.9486 20.0523 45.3943 20.3399 46.6953 20.915C46.9845 21.0588 47.5627 21.2026 47.9964 21.4902ZM45.3943 18.183L44.9606 18.3268C44.6714 18.4706 44.3823 18.4706 44.0932 18.6144C43.8041 18.7582 43.5149 18.902 43.5149 18.902C43.6595 18.902 43.9486 18.902 44.0932 18.902C44.5269 18.7582 45.1051 18.7582 45.5388 18.6144C46.4062 18.3268 47.4182 18.6144 47.9964 19.1895L47.2736 18.3268C46.9845 18.0392 46.2617 17.8954 45.3943 18.183ZM46.6953 21.2026C46.2617 21.0588 45.828 20.7712 45.3943 20.6275C44.6714 20.3399 44.5269 20.3399 44.5269 20.3399C44.816 20.4837 45.1051 20.7712 45.5388 20.7712C45.9725 20.915 46.4062 21.2026 46.8399 21.3464C48.5747 22.2092 50.1649 23.6471 51.3214 25.2288C52.0442 26.2353 52.4779 27.5294 52.767 28.6797L52.4779 28.1046L52.3333 27.3856C52.1888 26.6667 51.8996 25.9477 51.466 25.3725C50.3094 23.6471 48.7192 22.2092 46.6953 21.2026ZM35.853 16.7451L35.5639 16.6013C35.2748 16.4575 35.1302 16.4575 34.8411 16.3137C34.552 16.3137 34.4074 16.3137 34.2628 16.3137C34.1183 16.3137 34.4074 16.4575 34.6965 16.6013C34.9857 16.7451 34.9857 16.7451 35.4194 16.8889L35.7085 17.0327C37.2987 17.6078 38.8889 18.3268 40.4791 19.1895L41.491 19.7647C40.9128 19.3333 40.7682 19.1895 40.3345 19.0458C38.8889 18.0392 37.4433 17.3203 35.853 16.7451ZM36.1422 15.3072L35.1302 14.732C34.8411 14.4444 34.4074 14.4444 33.9737 14.4444V14.5882C34.2628 14.732 34.4074 14.8758 34.6965 15.0196L35.7085 15.5948L36.5759 15.8824C38.0215 16.7451 39.3226 17.6078 40.4791 18.7582C40.7682 19.0458 41.0573 19.3333 41.3465 19.6209C40.9128 19.1895 40.9128 19.1895 40.6237 18.7582C39.4671 17.6078 38.1661 16.6013 36.865 15.7386L36.1422 15.3072ZM39.3226 14.1569L39.4671 14.4444C39.6117 14.732 39.7563 14.8758 39.9008 15.1634C40.4791 16.3137 40.9128 17.4641 41.2019 18.7582C41.3465 19.1895 41.3465 19.3333 41.3465 19.7647C41.3465 19.7647 41.3465 19.3333 41.2019 18.902C41.2019 17.4641 40.9128 16.3137 40.3345 15.1634C40.19 15.0196 40.19 14.732 40.0454 14.5882C39.9008 14.4444 39.7563 14.1569 39.6117 14.0131C39.3226 13.4379 38.7443 13.0065 38.0215 12.719L37.5878 12.5752L36.865 12.4314C37.8769 12.719 38.7443 13.2941 39.3226 14.1569ZM38.3106 15.0196L38.1661 14.8758C37.8769 14.5882 37.4433 14.1569 37.1541 14.0131C36.865 13.7255 36.5759 13.5817 36.2867 13.4379C35.9976 13.2941 35.5639 13.1503 35.2748 13.0065C35.4194 13.1503 35.5639 13.2941 35.7085 13.2941C35.9976 13.4379 36.1422 13.5817 36.4313 13.7255C37.0096 14.1569 37.4433 14.4444 37.8769 14.8758L38.0215 15.0196C39.178 16.1699 40.19 17.3203 40.9128 18.6144C41.0573 18.902 41.3465 19.1895 41.491 19.6209L40.9128 18.7582C40.19 17.4641 39.3226 16.1699 38.3106 15.0196ZM50.454 38.0261C50.454 38.3137 50.5986 38.3137 50.5986 38.3137C50.5986 38.1699 50.7431 38.1699 50.7431 38.0261C50.8877 37.7386 50.8877 37.3072 50.8877 37.0196C50.7431 33.4248 49.7312 29.8301 47.7073 26.8105C47.2736 25.9477 46.6953 25.085 46.1171 24.366C44.9606 22.9281 43.8041 21.7778 42.3584 20.6275L41.3465 19.7647C41.6356 20.0523 41.9247 20.1961 42.3584 20.6275C43.6595 21.7778 44.816 23.2157 45.828 24.6536C46.4062 25.3725 46.8399 26.0915 47.2736 26.9542C49.1529 30.2614 50.1649 33.8562 50.3094 37.7386C50.454 37.8824 50.454 37.8824 50.454 38.0261ZM22.6977 28.2484C23.8542 27.3856 25.1553 26.5229 26.4564 25.6601C26.601 25.5163 26.7455 25.2288 26.601 25.085C26.4564 24.7974 26.1673 24.6536 25.8781 24.7974C24.5771 25.5163 23.276 26.3791 22.1195 27.2418C21.5412 27.6732 21.3967 28.1046 21.5412 28.5359C21.6858 28.9673 22.1195 28.6797 22.6977 28.2484ZM34.9857 21.4902C36.7204 20.7712 38.5998 20.3399 40.3345 19.9085L41.2019 19.7647L40.19 19.9085C38.3106 20.0523 36.4313 20.4837 34.6965 21.0588L33.9737 21.3464C31.5161 22.0654 29.2031 23.0719 27.0346 24.2222C26.7455 24.366 26.7455 24.6536 26.7455 24.7974C27.0346 24.9412 27.3238 25.085 27.4683 24.9412C29.4922 23.6471 31.8053 22.6405 33.9737 21.7778L34.9857 21.4902ZM41.3465 19.7647L40.19 19.4771C38.4552 19.1895 36.7204 18.902 34.9857 18.902H34.4074C34.1183 18.902 33.8292 19.0458 33.8292 19.0458C33.9737 19.1895 34.1183 19.1895 34.2628 19.1895H35.1302C36.865 19.0458 38.5998 19.1895 40.3345 19.4771C40.6237 19.6209 41.0573 19.6209 41.3465 19.7647ZM34.4074 18.0392C32.9618 17.8954 31.5161 17.7516 30.0705 17.8954C29.3477 17.8954 28.914 18.0392 28.914 18.3268C28.914 18.4706 29.3477 18.6144 30.0705 18.4706C31.5161 18.3268 32.9618 18.3268 34.4074 18.4706H34.552C36.4313 18.6144 38.3106 18.902 40.19 19.4771L41.3465 19.7647L40.19 19.3333C38.4552 18.7582 36.5759 18.3268 34.8411 18.0392H34.4074ZM43.5149 34.8627C43.6595 32.4183 43.6595 30.1176 43.5149 27.6732C43.3704 26.9542 43.3704 26.0915 43.2258 25.3725C43.0812 24.6536 43.0812 24.366 42.9367 23.7908C42.7921 23.3595 42.7921 22.9281 42.503 22.6405C42.503 22.7843 42.3584 22.7843 42.503 23.6471C42.6476 24.2222 42.6476 24.6536 42.6476 25.2288C42.7921 25.9477 42.7921 26.8105 42.7921 27.5294C42.9367 29.9739 42.7921 32.2745 42.503 34.719C42.503 35.4379 42.503 35.8693 42.7921 35.8693C43.0812 35.8693 43.3704 35.5817 43.5149 34.8627ZM44.0932 27.5294C44.2378 28.5359 44.3823 29.5425 44.5269 30.4052C44.6714 31.1242 44.816 31.5556 44.9606 31.5556C45.1051 31.5556 45.2497 30.9804 45.1051 30.2614C44.9606 29.2549 44.816 28.3922 44.5269 27.3856C44.3823 26.6667 44.0932 25.9477 43.9486 25.2288C43.5149 23.6471 42.7921 22.2092 42.0693 20.7712C41.9247 20.3399 41.7802 20.3399 41.491 19.7647L41.9247 20.7712C42.6476 22.2092 43.0812 23.6471 43.5149 25.2288C43.8041 25.9477 43.9486 26.8105 44.0932 27.5294ZM42.0693 19.1895C42.9367 18.6144 43.8041 18.0392 44.6714 17.6078L44.9606 17.4641C45.2497 17.3203 45.6834 17.1765 45.9725 17.1765C46.1171 17.1765 46.1171 17.0327 45.828 16.8889C45.5388 16.7451 45.3943 16.7451 45.2497 16.7451C44.9606 16.8889 44.6714 17.0327 44.5269 17.1765L44.3823 17.3203C43.5149 17.8954 42.7921 18.4706 42.0693 19.1895ZM25.2999 16.8889C25.1553 16.8889 25.0108 17.0327 24.8662 17.1765C24.8662 17.3203 25.0108 17.3203 25.1553 17.4641H25.8781C28.7694 17.0327 31.5161 17.1765 34.4074 17.6078H35.1302C35.853 17.7516 36.4313 17.8954 37.1541 18.0392C37.5878 18.183 37.8769 18.183 38.3106 18.3268C38.3106 18.3268 38.1661 18.183 37.1541 17.7516C36.5759 17.7516 35.853 17.4641 35.2748 17.3203L34.552 17.1765C31.8053 16.4575 28.914 16.3137 26.1673 16.6013C25.8781 16.7451 25.589 16.7451 25.2999 16.8889ZM27.7575 52.1176H27.6129C27.902 52.2614 28.4803 52.2614 28.7694 52.4052H28.914C29.0585 52.4052 29.0585 52.4052 29.0585 52.4052H28.7694L27.7575 52.1176ZM29.3477 51.1111C29.7814 50.8235 29.3477 50.5359 28.914 50.5359C28.6249 50.5359 28.3357 50.5359 28.0466 50.6797C27.902 50.8235 27.6129 50.9673 27.4683 51.1111C26.8901 51.5425 26.3118 51.6863 25.589 51.5425H25.7336L26.3118 51.6863L26.7455 51.8301C27.4683 51.9739 28.0466 51.8301 28.7694 51.5425C28.7694 51.3987 29.0585 51.2549 29.3477 51.1111ZM21.6858 45.3595C21.9749 44.9281 22.4086 44.3529 22.8423 43.7778C23.1314 43.4902 22.9869 42.915 22.6977 42.7712C22.4086 42.6275 21.9749 42.6275 21.6858 42.915C21.3967 43.4902 20.963 43.9216 20.6738 44.3529C20.5293 44.6405 20.5293 45.2157 20.8184 45.3595C21.1075 45.6471 21.3967 45.6471 21.6858 45.3595ZM36.865 13.1503C37.2987 13.4379 37.7324 13.7255 38.0215 14.0131C38.1661 14.1569 38.3106 14.3007 38.4552 14.5882C38.5998 14.8758 38.7443 14.8758 38.8889 15.1634C39.7563 16.3137 40.4791 17.4641 41.0573 18.7582C41.2019 19.1895 41.3465 19.3333 41.491 19.7647C41.491 19.7647 41.3465 19.3333 41.2019 18.7582C40.7682 17.4641 40.19 16.3137 39.4671 15.1634C39.3226 14.8758 39.178 14.732 38.8889 14.4444L38.7443 14.3007C38.3106 13.7255 38.0215 13.4379 37.5878 13.1503C37.2987 13.0065 37.0096 12.8627 36.7204 12.719H36.5759C36.5759 12.8627 36.5759 12.8627 36.865 13.1503ZM26.601 48.8105C27.0346 48.9542 27.4683 48.9542 27.7575 48.6667C28.1912 48.0915 28.7694 47.5163 29.2031 46.9412C29.4922 46.6536 29.3477 46.2222 29.0585 45.9346C29.0585 45.9346 28.914 45.9346 28.914 45.7909C28.6249 45.6471 28.1912 45.7909 28.0466 46.0784C27.4683 46.7974 26.8901 47.5163 26.4564 48.0915C26.3118 48.2353 26.3118 48.6667 26.4564 48.8105H26.601ZM29.9259 49.817C30.3596 49.9608 30.7933 49.817 31.0824 49.5294C31.5161 49.098 31.9498 48.6667 32.3835 48.0915C32.6726 47.8039 32.5281 47.3725 32.2389 47.085L32.0944 46.9412C31.8053 46.7974 31.5161 46.9412 31.3716 47.2288C30.9379 47.8039 30.5042 48.5229 29.9259 49.098C29.4922 49.5294 29.4922 49.6732 29.9259 49.817ZM37.1541 49.817C36.7204 49.817 36.2867 50.1046 35.853 50.3922C34.6965 51.5425 33.1063 52.4052 31.5161 52.549C31.227 52.549 30.7933 52.549 30.5042 52.549L31.8053 52.6928C33.8292 52.6928 35.7085 51.8301 37.1541 50.3922C37.7324 49.817 37.1541 49.817 37.1541 49.817ZM30.6487 52.2614C30.9379 52.1176 31.227 52.1176 31.5161 51.9739C32.0944 51.6863 31.5161 51.5425 31.5161 51.5425C31.0824 51.5425 30.6487 51.5425 30.3596 51.6863C30.2151 51.8301 29.9259 51.8301 29.7814 51.9739H29.6368C29.4922 51.9739 29.3477 52.1176 29.4922 52.1176H29.6368C29.9259 52.2614 30.2151 52.2614 30.6487 52.2614ZM21.3967 49.3856L21.6858 49.5294L21.2521 49.3856H21.3967ZM24.5771 50.5359C24.2879 50.3922 24.1434 50.3922 23.8542 50.5359C23.7097 50.5359 23.5651 50.6797 23.4206 50.6797C23.4206 50.6797 23.4206 50.6797 23.7097 50.8235C23.9988 50.8235 24.1434 50.8235 24.4325 50.9673C24.5771 50.9673 24.7216 50.9673 24.8662 50.9673C25.0108 50.8235 24.7216 50.5359 24.5771 50.5359ZM26.0227 50.2484L26.4564 49.9608C26.8901 49.5294 26.3118 49.2418 25.8781 49.2418C25.589 49.2418 25.4444 49.2418 25.2999 49.3856L24.7216 49.9608C24.5771 50.1046 24.5771 50.2484 24.8662 50.5359C25.1553 50.6797 25.4444 50.6797 25.7336 50.5359L26.0227 50.2484ZM19.3728 46.6536C18.9391 47.3726 18.9391 47.6601 19.0836 47.8039L19.6619 48.2353L19.8065 48.3791C19.8065 48.3791 19.8065 48.0915 20.0956 47.5163C20.3847 46.9412 19.6619 46.5098 19.3728 46.6536ZM17.0597 45.3595C17.0597 45.7909 17.2043 45.9346 17.3489 46.2222L18.0717 46.9412C17.9271 46.7974 17.7826 46.5098 17.7826 46.366C17.7826 45.7908 17.2043 45.2157 17.0597 45.3595ZM41.2019 49.2418C40.6237 49.098 40.0454 49.3856 39.6117 49.817C38.1661 51.3987 36.1422 52.4052 33.9737 52.6928C34.4074 52.6928 35.1302 52.549 35.5639 52.549C37.8769 52.1176 39.7563 50.9673 41.2019 49.2418ZM42.9367 49.3856C43.0812 49.2418 43.0812 49.2418 43.0812 49.098C42.9367 49.098 42.7921 49.098 42.3584 49.3856C42.0693 49.5294 41.9247 49.6732 41.6356 49.9608C40.6237 50.8235 39.4671 51.5425 38.0215 51.9739C38.5998 51.8301 39.3226 51.5425 39.7563 51.3987C40.7682 50.9673 41.7802 50.3922 42.6476 49.6732L42.9367 49.3856ZM25.2999 46.2222C25.7336 45.5033 25.1553 44.9281 24.5771 45.0719C24.4325 45.0719 24.1434 45.2157 23.9988 45.3595C23.276 46.366 22.6977 47.085 22.264 47.6601L21.9749 48.0915C21.6858 48.5229 21.3967 48.8105 21.2521 48.8105C21.1075 48.8105 21.2521 48.9542 21.5412 49.2418C21.8303 49.5294 21.9749 49.5294 22.1195 49.3856C22.4086 49.2418 22.6977 48.9542 22.9869 48.6667L23.276 48.2353C23.8542 48.0915 24.5771 47.2288 25.2999 46.2222ZM17.638 22.6405C19.951 20.915 22.6977 19.7647 25.4444 19.1895C25.7336 19.1895 25.8781 19.0458 26.1673 19.0458C27.3238 18.7582 27.3238 18.4706 27.3238 18.4706C27.3238 18.4706 27.0346 18.3268 26.1673 18.3268L25.2999 18.4706C22.6977 18.902 20.2401 20.0523 17.9271 21.4902C16.4815 22.4967 15.1804 23.6471 14.1685 25.085C13.0119 26.6667 12.2891 28.3922 12.1446 30.4052C12.1446 30.9804 12 31.6993 12 32.2745C12 30.1176 12.7228 27.9608 14.0239 26.2353C15.0358 24.7974 16.3369 23.5033 17.638 22.6405ZM14.4576 32.2745C14.7467 32.1307 14.7467 32.1307 15.0358 31.8431C15.9032 30.549 17.0597 29.3987 18.2162 28.3922C18.3608 28.2484 18.5054 27.9608 18.3608 27.817C18.2162 27.5294 17.9271 27.3856 17.638 27.5294C17.638 27.5294 17.4934 27.5294 17.4934 27.6732C16.3369 28.5359 15.325 29.5425 14.6022 30.6928C14.313 31.1242 14.1685 31.5556 14.313 32.1307C14.313 32.1307 14.313 32.1307 14.4576 32.2745ZM40.9128 44.9281C41.0573 44.4967 41.2019 43.9216 41.491 43.4902C41.6356 43.2026 41.491 42.915 41.0573 42.7712H40.9128C40.6237 42.7712 40.3345 42.915 40.3345 43.2026C40.19 43.7778 39.9008 44.3529 39.6117 44.9281C39.3226 45.5033 39.4671 45.9346 39.7563 45.9346C40.0454 45.9346 40.6237 45.5033 40.9128 44.9281ZM37.5878 45.0719C37.8769 44.3529 38.3106 43.634 38.5998 42.915C38.7443 42.6275 38.5998 42.1961 38.3106 42.0523H38.1661C37.8769 42.0523 37.5878 42.1961 37.4433 42.3399C37.1541 43.2026 36.7204 43.9216 36.2867 44.6405C35.853 45.3595 36.1422 45.6471 36.4313 45.7909C36.7204 45.9346 37.2987 45.6471 37.5878 45.0719ZM43.6595 48.3791C44.0932 48.2353 44.5269 47.8039 44.816 47.3726C45.9725 45.7909 46.6953 43.9216 47.129 42.0523C47.129 41.7647 46.2617 41.6209 46.1171 42.1961C45.6834 44.2092 44.816 45.9346 43.6595 47.6601C43.3704 48.2353 43.3704 48.2353 43.6595 48.3791ZM34.1183 13.5817C34.9857 14.0131 35.853 14.4444 36.7204 15.0196L37.1541 15.3072C37.5878 15.5948 38.0215 16.0261 38.5998 16.4575C38.8889 16.7451 39.178 17.0327 39.4671 17.1765C39.4671 17.0327 39.4671 16.8889 38.8889 16.3137C38.4552 15.8824 37.8769 15.451 37.4433 15.0196L37.2987 14.8758C36.5759 14.3007 35.853 13.8693 35.1302 13.4379C32.9618 12.1438 30.3596 11.7124 27.902 12.2876C27.3238 12.4314 26.601 12.5752 26.0227 12.719C28.7694 12.1438 31.6607 12.4314 34.1183 13.5817ZM31.227 13.7255L31.9498 13.8693C32.8172 14.0131 33.1063 14.0131 33.1063 14.0131C32.9618 13.8693 32.6726 13.7255 32.5281 13.7255H32.3835C30.2151 12.8627 27.902 12.719 25.589 13.2941C24.8662 13.4379 24.1434 13.7255 23.5651 14.0131C22.9869 14.3007 22.264 14.732 21.6858 15.0196C22.8423 14.3007 24.1434 13.8693 25.4444 13.5817C27.3238 13.2941 29.3477 13.2941 31.227 13.7255ZM20.6738 17.1765C22.1195 16.6013 23.7097 16.1699 25.2999 15.8824L26.4564 15.7386C27.4683 15.5948 27.902 15.451 27.7575 15.3072C27.4683 15.1634 27.1792 15.1634 26.8901 15.1634C26.4564 15.1634 25.8781 15.1634 25.4444 15.3072C24.2879 15.451 23.1314 15.7386 22.1195 16.0261C20.8184 16.4575 19.6619 17.0327 18.6499 17.7516C18.2162 18.0392 17.9271 18.3268 17.638 18.7582V18.902C17.7826 18.902 17.7826 18.902 18.2162 18.6144C18.9391 18.0392 19.8065 17.4641 20.6738 17.1765ZM17.9271 20.1961L18.5054 19.7647C19.8065 19.0458 21.1075 18.4706 22.5532 18.0392C23.7097 17.6078 23.8542 17.3203 23.5651 17.1765C23.276 17.1765 22.9869 17.1765 22.6977 17.1765C21.5412 17.4641 20.2401 18.0392 19.2282 18.6144C18.9391 18.902 18.6499 19.0458 18.2162 19.3333C17.7826 19.4771 17.4934 19.9085 17.3489 20.3399C17.2043 20.6275 17.4934 20.6275 17.9271 20.1961ZM20.5293 32.8497C19.3728 34 18.3608 35.1503 17.4934 36.4444C17.2043 36.8758 17.0597 37.451 17.3489 37.8824C17.638 38.1699 17.9271 38.1699 18.3608 37.7386C19.3728 36.4444 20.3847 35.1503 21.5412 33.8562C21.8303 33.5686 21.8303 33.1373 21.5412 32.8497C21.2521 32.5621 20.8184 32.5621 20.5293 32.8497ZM17.638 43.7778C17.3489 43.4902 17.2043 44.0654 17.2043 44.2092C17.2043 44.4967 17.3489 44.9281 17.4934 45.0719C17.7826 45.3595 17.9271 45.2157 18.0717 45.2157C18.2162 44.7843 18.3608 44.4967 17.638 43.7778ZM14.313 40.7582C14.313 40.3268 14.313 39.7516 14.313 39.3203C14.4576 38.4575 14.0239 37.7386 13.7348 37.8824C13.4456 38.0261 13.5902 38.0261 13.5902 38.1699C13.4456 38.8889 13.5902 39.6078 13.7348 40.3268C13.8793 40.7582 13.8793 41.0458 14.0239 41.3333L14.6022 42.4837V42.3399C14.4576 41.9085 14.313 41.3333 14.313 40.7582ZM20.0956 45.3595C19.951 45.3595 19.951 45.5033 19.8065 45.5033C19.8065 45.5033 19.8065 45.5033 19.8065 45.6471C19.8065 45.9346 19.8065 46.2222 20.0956 46.366C20.3847 46.6536 20.6738 46.6536 20.8184 46.5098H20.963C21.1075 46.0784 20.963 45.6471 20.6738 45.5033C20.3847 45.3595 20.2401 45.3595 20.0956 45.3595ZM12.2891 33.8562C12.4337 32.9935 12.5783 32.1307 12.8674 31.268C13.3011 30.2614 13.1565 29.6863 13.0119 29.6863C12.8674 29.8301 12.7228 29.9739 12.7228 30.1176C12.2891 31.1242 12 32.2745 12 33.4248C12 33.7124 12 34.1438 12 34.5752C12.1446 35.1503 12.1446 35.7255 12.2891 36.3007C12.1446 35.4379 12.1446 34.719 12.2891 33.8562ZM13.0119 37.8824C13.0119 36.8758 13.1565 35.8693 13.4456 35.0065C13.5902 34.719 13.7348 34.2876 13.7348 34C14.0239 33.1373 13.8793 32.4183 13.5902 32.4183C13.3011 32.4183 13.4456 32.7059 13.4456 32.8497C13.1565 33.4248 13.0119 33.8562 12.8674 34.4314C12.7228 35.1503 12.5783 36.0131 12.5783 36.8758C12.5783 37.3072 12.7228 37.7386 12.8674 38.0261C12.8674 38.1699 12.8674 38.1699 13.0119 38.1699C13.1565 38.1699 13.0119 38.1699 13.0119 37.8824ZM49.0084 26.5229C48.2855 25.5163 47.5627 24.6536 46.6953 23.7908C45.5388 22.4967 44.0932 21.3464 42.6476 20.4837C42.3584 20.3399 42.2139 20.1961 41.6356 19.7647C43.5149 20.915 45.1051 22.4967 46.5508 24.0784C47.2736 24.9412 47.9964 25.6601 48.5747 26.6667C51.0323 29.9739 52.0442 34 51.7551 38.0261C51.6105 39.0327 51.466 40.0392 51.0323 40.902C50.7431 41.6209 50.454 42.1961 50.1649 42.915C50.454 42.3399 50.8877 41.4771 51.1768 40.902C51.6105 40.0392 51.8996 39.0327 52.0442 38.1699C52.6225 34 51.466 29.8301 49.0084 26.5229ZM50.8877 39.6078C50.8877 39.1765 50.8877 39.0327 50.8877 38.8889C50.8877 38.7451 50.3094 40.0392 50.3094 40.3268C50.3094 40.6144 50.1649 40.7582 50.1649 41.0458C49.7312 42.6275 49.1529 44.0654 48.141 45.3595C47.7073 45.9346 47.2736 46.5098 46.6953 47.085L48.2855 45.5033C48.4301 45.2157 48.7192 45.0719 48.8638 44.7843C49.7312 43.634 50.3094 42.3399 50.5986 41.0458C50.7431 40.4706 50.7431 40.0392 50.8877 39.6078ZM46.4062 28.9673C46.2616 28.5359 45.828 28.6797 45.9725 29.1111C46.1171 29.5425 46.2616 30.4052 46.4062 30.9804C46.5508 31.5556 46.6953 32.1307 46.9845 32.1307C47.2736 32.1307 47.129 31.5556 46.9845 30.8366C46.8399 30.1176 46.5508 29.5425 46.4062 28.9673ZM46.9845 46.2222C47.9964 44.6405 48.8638 42.915 49.1529 41.1895C49.2975 40.3268 49.4421 39.4641 49.4421 38.6013C49.4421 38.4575 48.7192 37.7386 48.7192 38.6013C48.7192 39.4641 48.5747 40.4706 48.4301 41.3333C47.9964 43.3464 47.2736 45.2157 46.1171 46.9412C45.9725 47.085 45.828 47.2288 45.828 47.5163H45.9725C46.4062 47.085 46.8399 46.6536 46.9845 46.2222ZM49.5866 37.1634C49.4421 33.7124 48.5747 30.2614 46.9845 27.098C46.6953 26.3791 46.2616 25.6601 45.828 24.9412C45.3943 24.2222 45.1051 23.7909 44.6714 23.2157C44.3823 22.9281 44.2378 22.6405 43.9486 22.3529C43.9486 22.4967 43.9486 22.4967 44.5269 23.3595C44.9606 23.9346 45.2497 24.5098 45.5388 25.085C45.828 25.6601 46.2616 26.3791 46.5508 27.098C47.9964 30.2614 48.8638 33.7124 48.8638 37.1634C48.8638 37.451 49.5866 37.8824 49.5866 37.1634ZM44.0932 16.3137L44.3823 16.0261C44.3823 16.0261 44.3823 15.8824 44.0932 15.7386C43.8041 15.5948 43.8041 15.451 43.8041 15.5948L43.6595 15.8824C43.5149 16.3137 43.8041 16.6013 44.0932 16.3137ZM50.7431 25.9477C50.8877 26.3791 51.0323 26.6667 51.3214 27.098V27.2418C51.6105 27.6732 51.7551 27.817 51.7551 27.6732C51.7551 27.2418 51.466 26.8105 51.3214 26.5229V26.3791C51.0323 25.9477 50.7431 25.8039 50.7431 25.9477ZM52.9116 31.6993V31.4118C52.9116 30.4052 52.6225 29.5425 52.3333 28.6797C52.1888 28.3922 52.1888 28.2484 52.0442 28.2484C51.8996 28.2484 52.0442 28.8235 52.3333 29.5425C52.767 30.8366 52.9116 32.1307 52.9116 33.4248C52.9116 32.8497 52.9116 32.1307 52.9116 31.6993ZM50.8877 27.9608C50.8877 28.3922 51.0323 28.8235 51.1768 29.1111C52.4779 31.8431 52.9116 35.0065 52.0442 37.8824C52.1888 37.3072 52.3333 36.4444 52.4779 35.8693C52.9116 33.281 52.4779 30.6928 51.1768 28.3922C51.1768 28.1046 51.0323 27.9608 50.8877 27.9608ZM49.4421 21.9216C49.2975 21.7778 49.1529 21.634 49.0084 21.7778C48.8638 21.9216 49.4421 22.4967 49.5866 22.4967C50.454 23.2157 51.1768 24.2222 51.6105 25.2288V25.3725L51.0323 24.2222C50.8877 23.3595 50.3094 22.4967 49.4421 21.9216ZM41.7802 31.1242C41.7802 30.549 41.9247 29.8301 41.9247 29.2549C41.9247 28.2484 41.7802 27.817 41.6356 28.1046C41.491 28.3922 41.3465 28.8235 41.3465 29.1111C41.2019 29.6863 41.2019 30.4052 41.0573 30.9804C40.9128 31.5556 41.0574 32.1307 41.2019 32.2745C41.3465 32.4183 41.6356 31.8431 41.7802 31.1242ZM34.2628 27.6732C33.8292 27.817 33.54 27.9608 33.3955 28.2484L33.2509 28.3922C32.8172 28.9673 32.6726 29.3987 32.8172 29.6863C32.9618 29.9739 33.54 29.6863 33.9737 29.1111V28.9673C34.6965 28.2484 34.6965 27.6732 34.2628 27.6732ZM32.9618 39.7516H33.1063C33.3955 39.8954 33.6846 39.7516 33.8292 39.4641C34.552 38.0261 35.2748 36.5882 35.9976 35.0065C36.1422 34.719 35.9976 34.4314 35.7085 34.2876C35.4194 34.1438 35.1302 34.2876 34.9857 34.5752C34.2628 36.0131 33.3955 37.451 32.6726 38.8889C32.5281 39.1765 32.5281 39.4641 32.8172 39.6078C32.8172 39.7516 32.8172 39.7516 32.9618 39.7516ZM35.7085 33.281C35.5639 33.5686 35.7085 33.8562 35.9976 34C36.2867 34.1438 36.5759 34 36.7204 33.7124C37.4433 32.2745 38.0215 30.6928 38.5998 29.2549C38.8889 28.3922 38.7443 28.1046 38.5998 27.9608C38.4552 27.817 38.1661 27.9608 37.7324 28.8235C37.1541 30.4052 36.4313 31.8431 35.7085 33.281ZM27.6129 36.1569C27.902 36.3007 28.3357 36.3007 28.4803 36.0131C29.6368 34.4314 30.9379 32.8497 32.0944 31.268L32.2389 30.9804C32.6726 30.2614 32.3835 29.8301 31.9498 29.9739C31.8053 29.9739 31.5161 30.1176 31.3716 30.2614C31.227 30.4052 31.0824 30.4052 31.0824 30.549C29.7814 32.1307 28.4803 33.7124 27.3238 35.1503C27.0346 35.4379 27.0346 35.8693 27.3238 36.1569C27.4683 36.1569 27.4683 36.1569 27.6129 36.1569ZM24.4325 34.719C24.7216 35.0065 25.0108 35.0065 25.2999 34.719C26.7455 33.1373 28.1912 31.5556 29.7814 29.9739C29.9259 29.8301 29.9259 29.3987 29.7814 29.2549C29.6368 28.9673 29.2031 28.9673 28.914 29.2549C27.3238 30.6928 25.7336 32.2745 24.2879 33.8562C23.9988 34.1438 23.9988 34.4314 24.2879 34.719H24.4325ZM31.0824 27.098L29.9259 28.1046C29.7814 28.2484 29.6368 28.6797 29.7814 28.8235C29.9259 29.1111 30.3596 29.1111 30.5042 28.8235C30.9379 28.3922 31.227 28.1046 31.6607 27.6732C32.3835 26.9542 32.2389 26.6667 32.2389 26.5229C32.2389 26.3791 31.8053 26.5229 31.0824 27.098ZM47.5627 40.4706C47.5627 39.7516 47.7073 39.0327 47.8519 38.4575C47.8519 38.0261 46.6953 36.732 46.5508 41.1895C46.5508 41.0458 47.5627 41.1895 47.5627 40.4706ZM46.8399 33.5686C46.9845 34.5752 46.9845 35.5817 46.9845 36.4444C46.9845 37.0196 48.141 37.5948 47.7073 33.281C47.7073 32.8497 47.5627 32.4183 47.2736 32.2745C46.9845 32.1307 46.6953 32.4183 46.8399 33.5686ZM22.264 31.1242C20.8184 32.5621 22.4086 32.9935 23.276 32.1307L23.5651 31.8431C24.7216 30.549 26.0227 29.3987 27.4683 28.3922C27.6129 28.2484 27.7575 27.9608 27.6129 27.6732C27.4683 27.3856 27.1792 27.2418 26.8901 27.5294C25.4444 28.5359 23.9988 29.6863 22.6977 30.9804L22.264 31.1242ZM35.5639 22.4967C37.1541 21.634 38.7443 20.7712 40.3345 20.0523C38.5998 20.6275 36.865 21.3464 35.2748 22.2092C34.9857 22.3529 34.6965 22.4967 34.2628 22.7843C32.2389 23.6471 30.0705 24.9412 28.1912 26.3791C28.0466 26.5229 27.902 26.8105 28.0466 27.098C28.1912 27.3856 28.4803 27.3856 28.7694 27.2418C30.6487 25.8039 32.5281 24.5098 34.552 23.2157C34.9857 22.9281 35.2748 22.7843 35.5639 22.4967ZM40.3345 36.3007C40.0454 36.1569 39.7563 36.4444 39.6117 36.5882C39.178 37.8824 38.7443 39.1765 38.3106 40.3268C38.1661 40.6144 38.3106 40.902 38.5998 41.0458H38.8889C39.178 41.0458 39.3226 40.902 39.4671 40.7582C39.9008 39.4641 40.3345 38.1699 40.6237 36.8758C40.6237 36.732 40.4791 36.4444 40.3345 36.3007ZM41.2019 35.4379C41.3465 35.0065 41.3465 34.5752 41.491 34.2876C41.6356 33.1373 41.3465 32.8497 41.0573 32.9935C40.7682 33.281 40.6237 33.5686 40.4791 34C40.3345 34.4314 40.3345 34.719 40.19 35.1503C40.19 35.4379 40.3345 35.7255 40.4791 35.7255C40.7682 36.0131 41.0574 35.8693 41.2019 35.4379C41.2019 35.5817 41.2019 35.5817 41.2019 35.4379ZM41.6356 41.4771C41.9247 41.4771 42.0693 41.3333 42.2139 41.0458C42.503 40.183 42.6476 39.3203 42.7921 38.3137C42.9367 37.3072 42.503 37.0196 42.2139 37.1634C41.9247 37.451 41.7802 37.7386 41.6356 38.1699C41.491 39.0327 41.2019 39.7516 40.9128 40.6144C40.7682 40.902 40.9128 41.1895 41.2019 41.3333C41.491 41.4771 41.6356 41.4771 41.6356 41.4771ZM36.7204 40.3268C37.2987 39.0327 37.5878 38.1699 38.1661 36.732C38.3106 36.4444 38.1661 36.1569 37.8769 36.0131C37.5878 35.8693 37.2987 36.0131 37.1541 36.3007C36.5759 37.7386 36.2867 38.4575 35.5639 39.8954C35.4194 40.183 35.5639 40.4706 35.853 40.6144H36.1422C36.4313 40.6144 36.7204 40.6144 36.7204 40.3268ZM44.5269 41.0458C44.816 41.0458 44.9606 40.902 44.9606 40.6144C45.2497 39.6078 45.3943 38.6013 45.3943 37.5948C45.3943 37.3072 45.2497 37.1634 44.9606 37.0196C44.6714 37.0196 44.3823 37.1634 44.3823 37.451C44.2378 38.4575 44.0932 39.4641 43.8041 40.3268C43.6595 40.6144 43.8041 40.902 44.0932 41.0458C44.3823 41.1895 44.3823 41.1895 44.5269 41.0458ZM44.6714 33.1373C44.6714 34 44.6714 34.8627 44.5269 35.8693C44.5269 36.1569 44.6714 36.3007 44.9606 36.4444C45.2497 36.4444 45.5388 36.3007 45.5388 36.0131C45.5388 35.1503 45.6834 34.1438 45.5388 33.1373C45.3943 32.1307 45.2497 32.1307 45.1051 31.9869C44.9606 31.8431 44.6714 32.2745 44.6714 33.1373ZM32.3835 50.8235C32.8172 50.9673 33.3955 50.8235 33.6846 50.5359C34.4074 49.817 35.1302 48.9543 35.853 48.2353L35.9976 48.0915L36.4313 47.3726C36.865 46.5098 36.4313 46.2222 35.9976 46.366C35.5639 46.5098 35.2748 46.7974 35.1302 47.085L34.6965 47.8039L34.552 47.9477C33.9737 48.8105 33.2509 49.6732 32.3835 50.3922C32.0944 50.5359 32.0944 50.8235 32.3835 50.8235ZM30.3596 45.0719C31.227 43.7778 32.0944 42.4837 32.8172 41.0458C32.9618 40.7582 32.9618 40.3268 32.5281 40.183H32.3835C32.0944 40.0392 31.8053 40.183 31.5161 40.4706C30.3596 42.4837 29.9259 43.0588 28.7694 44.6405C28.1912 45.6471 29.7814 45.9346 30.3596 45.0719ZM32.6726 46.7974C33.3955 46.9412 35.2748 43.634 36.1422 41.6209C36.2867 41.3333 36.1422 40.902 35.853 40.7582H35.7085C35.4194 40.6144 35.1302 40.7582 34.9857 41.0458C33.9737 43.3464 31.227 46.366 32.6726 46.7974ZM23.9988 42.0523C24.8662 40.6144 26.0227 39.1765 27.3238 37.5948C27.6129 37.3072 27.4683 36.8758 27.1792 36.5882C26.8901 36.4444 26.4564 36.4444 26.1673 36.732C25.0108 38.3137 23.9988 39.8954 22.8423 41.1895C22.264 42.1961 23.7097 42.7712 23.9988 42.0523ZM25.7336 44.2092C26.0227 44.3529 26.4564 44.3529 26.7455 44.0654C26.8901 44.0654 26.8901 43.9216 26.8901 43.9216C27.902 42.4837 28.3357 42.0523 29.4922 40.183C29.6368 39.8954 29.6368 39.4641 29.3477 39.1765C29.0585 39.0327 28.6249 39.1765 28.4803 39.4641C27.3238 41.1895 26.8901 41.6209 25.7336 43.0588C25.7336 43.2026 25.589 43.3464 25.589 43.3464C25.2999 43.634 25.4444 44.0654 25.7336 44.2092ZM37.7324 49.098C38.0215 49.098 38.3106 48.9542 38.4552 48.8105C38.5998 48.6667 38.7443 48.5229 38.8889 48.3791C39.178 47.9477 39.4671 47.5163 39.7563 47.085C40.19 46.2222 39.7563 46.0784 39.3226 46.2222C39.0335 46.366 38.5998 46.6536 38.4552 46.9412C38.1661 47.3725 37.8769 47.8039 37.5878 48.2353C37.4433 48.3791 37.4433 48.3791 37.4433 48.5229C37.4433 48.8105 37.4432 49.098 37.7324 49.098ZM44.0932 48.9543C43.9486 49.098 43.6595 49.2418 43.3704 49.5294C43.0812 49.817 42.6476 49.9608 42.3584 50.2484C42.6476 50.1046 43.0812 49.817 43.3704 49.5294C43.5149 49.3856 43.6595 49.3856 43.8041 49.2418L44.0932 48.9543C44.5269 48.8105 44.6714 48.6667 44.9606 48.3791C45.2497 48.0915 45.2497 48.0915 45.3943 47.9477C44.9606 48.2353 44.5269 48.6667 44.0932 48.9543ZM19.6619 40.6144C19.951 40.902 20.3847 40.7582 20.6738 40.4706L20.963 40.183C21.9749 38.8889 22.9869 37.451 24.1434 36.0131C24.4325 35.7255 24.2879 35.2941 23.9988 35.0065C23.7097 34.719 23.276 34.719 22.9869 35.0065C21.8303 36.4444 20.6738 37.7386 19.8065 39.0327L19.3728 39.6078C19.2282 39.8954 19.3728 40.3268 19.6619 40.6144ZM13.1565 39.0327L13.0119 38.4575L13.4456 39.6078V39.7516L13.1565 39.0327ZM42.0693 48.2353L42.2139 47.9477C43.5149 46.0784 44.3823 44.0654 44.9606 42.0523C44.9606 41.7647 44.816 41.4771 44.5269 41.4771H44.3823C44.0932 41.4771 43.9486 41.6209 43.8041 41.9085C43.2258 44.2092 42.2139 46.366 40.9128 48.2353C40.7682 48.5229 40.4791 48.8105 40.3345 49.098C41.0573 48.9542 41.6356 48.6667 42.0693 48.2353ZM32.8172 12C32.8172 12 32.6726 12 32.3835 12H31.9498C31.5161 12 30.7933 12 30.3596 12.1438C30.7933 12.1438 31.0824 12.1438 31.5161 12.1438C31.8053 12.1438 32.2389 12.1438 32.8172 12ZM14.4576 23.6471C14.7467 23.2157 15.0358 22.7843 15.4695 22.4967C15.6141 22.2092 16.3369 21.4902 16.1924 21.2026C16.0478 21.2026 15.9032 21.3464 15.6141 21.4902C15.325 21.9216 15.0358 22.3529 14.7467 22.7843C14.4576 23.0719 14.1685 23.5033 14.0239 24.0784V24.2222C14.1685 24.0784 14.313 23.9346 14.4576 23.6471ZM15.7587 20.7712C16.0478 20.3399 16.4815 19.9085 16.626 19.4771C16.626 19.4771 16.4815 19.4771 16.1924 19.9085C16.0478 20.1961 15.9032 20.3399 15.7587 20.6275C15.6141 20.6275 15.6141 20.7712 15.7587 20.7712C15.325 21.0588 15.1804 21.634 14.8913 21.9216L15.1804 21.3464L15.7587 20.7712ZM33.54 12.4314C34.4074 12.719 34.8411 12.719 34.8411 12.5752C34.8411 12.4314 34.6965 12.4314 34.4074 12.4314C33.9737 12.2876 33.6846 12.2876 33.2509 12.2876H33.1063C33.2509 12.2876 33.3955 12.4314 33.54 12.4314ZM36.4313 12.5752C36.4313 12.5752 36.4313 12.4314 36.1422 12.4314C35.853 12.2876 35.5639 12.2876 35.2748 12.2876H35.1302L33.8292 12C34.2628 12 34.8411 12.1438 35.1302 12.2876C36.1422 12.5752 36.2867 12.5752 36.4313 12.5752ZM18.2162 41.7647C18.0717 42.0523 17.9271 42.4837 17.638 42.7712C17.4934 43.0588 17.4934 43.4902 17.7826 43.7778C18.0717 43.9216 18.5054 43.9216 18.7945 43.634C19.0836 43.2026 19.3728 42.6275 19.8065 42.0523C20.5293 41.0458 18.9391 40.183 18.2162 41.7647ZM13.4456 24.7974C13.4456 24.7974 13.4456 24.9412 13.3011 25.3725L13.1565 25.5163C13.0119 25.9477 12.8674 26.3791 12.7228 26.9542C12.7228 26.8105 12.8674 26.5229 12.8674 26.3791C13.1565 25.8039 13.3011 25.3725 13.4456 24.7974ZM17.3489 39.3203C17.4934 39.1765 17.4934 38.8889 17.4934 38.7451C17.4934 38.1699 17.2043 37.7386 16.7706 37.8824L16.4815 38.1699C15.9032 39.1765 15.4695 40.4706 15.1804 41.6209C15.0358 42.1961 15.1804 42.7712 15.325 43.2026C15.4695 43.4902 15.6141 43.7778 15.7587 44.0654C15.7587 44.2091 15.9032 44.2092 15.9032 44.2092V44.0654C15.7587 43.4902 15.7587 42.915 15.9032 42.1961C16.3369 41.3333 16.7706 40.3268 17.3489 39.3203ZM16.626 34.4314C17.638 32.9935 18.7945 31.6993 20.2401 30.4052L20.6738 30.1176C21.5412 29.2549 21.3967 28.6797 20.8184 28.5359C20.5293 28.5359 20.2401 28.6797 19.951 28.8235L19.3728 29.2549C18.0717 30.4052 16.9152 31.6993 15.9032 33.1373C15.325 34.1438 14.8913 35.0065 14.4576 36.0131C14.4576 36.1569 14.313 36.1569 14.313 36.3007C14.1685 36.732 14.1685 37.1634 14.313 37.5948C14.4576 37.8824 14.7467 37.8824 14.8913 37.451C15.0358 37.0196 15.0358 37.0196 15.1804 36.732C15.6141 36.0131 16.0478 35.2941 16.626 34.4314ZM40.6237 18.6144L41.3465 19.4771C40.9128 18.902 40.9128 18.902 40.6237 18.6144C40.0454 17.7516 39.9008 17.6078 39.9008 17.6078C39.9008 17.6078 40.19 17.8954 40.6237 18.6144ZM46.8399 22.4967C47.8519 23.2157 48.8638 24.0784 49.7312 24.9412C50.0203 25.3725 50.1649 25.3725 50.3094 25.3725C50.1649 24.9412 50.0203 24.6536 49.7312 24.366C48.8638 23.5033 47.8519 22.7843 46.8399 22.0654C45.5388 21.2026 44.0932 20.6275 42.6476 20.0523L41.491 19.7647C41.9247 19.9085 42.2139 20.0523 42.6476 20.1961C44.0932 20.915 45.5388 21.634 46.8399 22.4967ZM41.491 19.6209L41.7802 18.902C41.9247 18.3268 41.9247 18.183 41.9247 18.183C41.9247 18.183 41.7802 18.6144 41.6356 18.902C41.491 19.3333 41.491 19.4771 41.491 19.6209ZM36.5759 23.5033C38.0215 22.3529 39.3226 21.2026 40.6237 20.3399C39.0335 21.2026 37.5878 22.2092 36.1422 23.2157L34.9857 24.0784L33.2509 25.5163C32.6726 25.9477 32.5281 26.3791 32.6726 26.5229C32.8172 26.6667 33.2509 26.5229 33.8292 26.0915C34.4074 25.6601 34.8411 25.085 35.4194 24.6536L36.5759 23.5033ZM40.9128 20.4837C40.4791 21.0588 40.4791 21.3464 40.4791 21.3464C40.4791 21.3464 40.6237 21.3464 40.9128 20.4837C41.0573 20.1961 41.2019 19.9085 41.3465 19.7647C41.2019 20.0523 41.2019 20.1961 40.9128 20.4837ZM40.0454 19.0458C39.7563 18.7582 39.3226 18.6144 38.8889 18.6144C39.3226 18.902 39.6117 19.0458 40.0454 19.0458L41.3465 19.6209L40.3345 19.1895L40.0454 19.0458ZM41.3465 19.7647L40.19 19.6209C39.3226 19.6209 39.0335 19.6209 39.0335 19.6209C39.4671 19.6209 39.7563 19.6209 40.19 19.6209H40.3345C40.7682 19.6209 41.0573 19.6209 41.3465 19.7647ZM41.2019 20.6275C40.7682 21.9216 40.19 23.3595 39.6117 24.9412C39.4671 25.3725 39.178 25.9477 39.0335 26.3791C39.0335 26.5229 38.8889 26.6667 38.8889 26.9542C38.8889 27.2418 38.7443 27.5294 38.8889 27.5294C39.0335 27.5294 39.178 27.3856 39.3226 27.098C39.4671 26.9542 39.4671 26.8105 39.4671 26.6667C39.6117 26.0915 39.7563 25.5163 40.0454 25.085C40.6237 23.5033 40.9128 22.0654 41.2019 20.6275L41.491 19.7647C41.3465 20.0523 41.3465 20.0523 41.2019 20.6275ZM39.9008 22.7843C40.0454 22.4967 40.19 22.2092 40.19 21.9216H40.0454C39.9008 22.0654 39.7563 22.3529 39.6117 22.6405L38.3106 24.5098C38.0215 25.085 37.5878 25.6601 37.1541 26.2353C35.853 28.2484 34.552 30.2614 33.1063 32.2745C32.9618 32.5621 32.9618 32.8497 33.2509 32.9935C33.54 33.1373 33.8292 33.1373 33.9737 32.8497C35.2748 30.6928 36.5759 28.5359 37.7324 26.5229C38.0215 25.9477 38.4552 25.2288 38.7443 24.6536C39.0335 24.0784 39.6117 23.5033 39.9008 22.7843ZM37.2987 23.9346L36.1422 25.2288L35.1302 26.2353C34.6965 26.8105 34.552 27.098 34.6965 27.3856C34.8411 27.6732 35.4194 27.098 35.7085 26.8105L36.5759 25.6601C37.0096 25.2288 37.2987 24.6536 37.7324 24.2222C38.8889 22.7843 39.9008 21.4902 40.9128 20.4837C39.7563 21.3464 38.4552 22.6405 37.2987 23.9346ZM41.491 19.7647C41.491 20.0523 41.491 20.0523 41.491 20.6275C41.3465 22.0654 41.0573 23.6471 40.7682 25.085C40.6237 25.8039 40.4791 26.5229 40.19 27.2418C39.6117 29.8301 38.7443 32.2745 37.7324 34.719C37.5878 35.0065 37.7324 35.2941 38.0215 35.4379C38.3106 35.5817 38.5998 35.4379 38.7443 35.1503C39.6117 32.5621 40.19 29.9739 40.7682 27.3856C40.9128 26.6667 41.0573 25.8039 41.0573 25.085C41.2019 23.6471 41.3465 22.0654 41.3465 20.6275C41.491 20.7712 41.491 20.7712 41.491 19.7647ZM41.491 19.7647C41.7802 20.0523 41.9247 20.3399 42.2139 20.7712C43.0812 22.2092 43.9486 23.6471 44.5269 25.2288L44.6714 25.5163C44.9606 26.0915 45.3943 28.1046 45.828 27.9608C46.2616 27.817 45.2497 25.9477 44.9606 25.3725L44.816 25.2288C44.0932 23.6471 43.2258 22.2092 42.2139 20.7712L41.491 19.7647ZM41.491 19.7647C41.491 20.0523 41.491 20.1961 41.6356 20.7712C41.7802 22.2092 41.7802 23.7908 41.6356 25.2288V25.3725C41.6356 25.9477 41.6356 26.3791 41.7802 26.5229C41.9247 26.6667 42.0693 25.6601 42.0693 25.3725V25.2288C42.0693 23.6471 41.9247 22.2092 41.6356 20.7712L41.491 19.7647ZM46.8399 23.5033C47.8519 24.366 48.7192 25.3725 49.4421 26.3791L49.7312 26.8105C50.0203 27.2418 50.1649 27.3856 50.3094 27.3856C50.3094 26.9542 50.0203 26.5229 49.7312 26.2353C48.8638 25.085 47.8519 24.0784 46.8399 23.2157C45.5388 22.0654 44.0932 21.2026 42.503 20.3399L41.3465 19.7647C41.9247 20.0523 41.9247 20.0523 42.503 20.3399C44.0932 21.3464 45.5388 22.3529 46.8399 23.5033ZM41.491 19.7647C41.6356 20.0523 41.6356 20.3399 41.7802 20.7712V20.915C41.9247 21.3464 41.9247 21.634 42.0693 21.9216C42.0693 21.9216 42.2139 21.9216 41.7802 20.915V20.7712C41.7802 20.6275 41.7802 20.6275 41.491 19.7647ZM25.8781 14.5882C29.0585 14.3007 32.2389 14.8758 35.1302 16.0261C35.4194 16.0261 35.7085 16.3137 36.1422 16.3137C37.7324 17.0327 39.178 17.8954 40.4791 18.902C40.7682 19.1895 41.0573 19.3333 41.491 19.6209C40.9128 19.1895 40.7682 19.1895 40.4791 18.902C39.178 17.8954 37.7324 17.0327 36.2867 16.1699L35.2748 15.7386C33.2509 14.732 30.9379 14.1569 28.6249 14.0131C27.4683 13.8693 26.4564 14.0131 25.2999 14.1569C23.1314 14.4444 20.963 15.3072 19.2282 16.7451C18.7945 17.1765 18.0717 17.8954 17.638 18.3268C19.6619 16.1699 22.4086 14.8758 25.2999 14.5882H25.8781ZM18.3608 27.2418C18.5054 27.5294 18.7945 27.6732 19.0836 27.5294C19.0836 27.5294 19.2282 27.5294 19.2282 27.3856C21.2521 25.8039 23.4206 24.366 25.8781 23.2157C26.1673 23.0719 26.3118 22.7843 26.1673 22.6405C26.0227 22.2092 25.4444 22.4967 25.0108 22.6405C22.6977 23.6471 20.5293 24.9412 18.5054 26.5229C18.3608 26.6667 18.2162 26.9542 18.3608 27.2418ZM27.1792 22.6405C29.3477 21.634 31.6607 20.915 34.1183 20.3399L34.6965 20.1961C35.5639 20.0523 36.4313 19.9085 37.2987 19.7647C37.7324 19.7647 38.0215 19.6209 38.4552 19.6209C38.3106 19.4771 38.1661 19.4771 37.2987 19.4771C36.4313 19.4771 35.5639 19.6209 34.6965 19.7647H34.2628C31.8053 20.1961 29.3477 20.7712 27.0346 21.634C26.4564 22.0654 26.8901 22.7843 27.1792 22.6405ZM30.0705 19.1895C29.3477 19.3333 28.914 19.4771 28.914 19.7647C28.914 20.0523 29.3477 20.0523 30.2151 19.9085C31.0824 19.7647 31.5161 19.6209 32.0944 19.6209C33.1063 19.3333 33.2509 19.1895 33.2509 19.1895C33.2509 19.1895 32.6726 19.0458 31.9498 19.0458C31.227 19.0458 30.7933 19.0458 30.0705 19.1895ZM31.6607 16.0261C32.6726 16.1699 32.8172 16.1699 32.9618 16.0261C33.1063 15.8824 32.8172 15.7386 31.9498 15.5948C31.3716 15.451 30.7933 15.3072 30.2151 15.3072C29.6368 15.3072 29.0585 15.3072 28.914 15.451C28.7694 15.5948 29.2031 15.7386 29.9259 15.7386C30.6487 15.7386 30.9379 15.8824 31.6607 16.0261ZM26.1673 20.0523L25.589 20.1961C22.6977 21.0588 19.951 22.3529 17.638 24.2222C16.3369 25.2288 15.1804 26.3791 14.1685 27.6732C13.8793 28.1046 13.7348 28.5359 13.7348 28.9673C13.7348 28.9673 13.7348 29.1111 13.8793 29.1111C14.0239 29.1111 14.1685 29.1111 14.4576 28.6797C15.4695 27.3856 16.4815 26.2353 17.7826 25.2288C20.2401 23.3595 22.9869 21.9216 25.8781 20.915L26.4564 20.7712C27.6129 20.3399 27.6129 20.0523 27.4683 19.9085C26.8901 19.9085 26.601 19.9085 26.1673 20.0523ZM42.3584 19.3333C42.6476 19.1895 43.0812 19.0458 43.0812 19.0458C43.0812 19.0458 42.9367 19.0458 42.3584 19.3333L42.2139 19.1895L41.491 19.6209C41.6356 19.6209 41.9247 19.4771 42.3584 19.3333ZM41.491 19.7647L42.3584 20.7712C42.6476 21.0588 42.9367 21.4902 43.2258 21.7778C42.9367 21.4902 42.7921 21.0588 42.503 20.7712L42.3584 20.6275C42.0693 20.3399 41.9247 20.1961 41.491 19.7647ZM42.7921 20.0523C43.0812 20.1961 43.5149 20.1961 43.8041 20.3399C43.8041 20.3399 43.6595 20.1961 42.7921 20.0523ZM41.491 19.7647C41.6356 19.6209 41.7802 19.3333 41.9247 19.1895L43.5149 17.0327C43.6595 16.8889 43.6595 16.7451 43.5149 16.6013C43.3704 16.4575 43.2258 16.6013 43.0812 16.8889C42.9367 17.4641 42.3584 18.183 41.7802 19.1895L41.491 19.7647ZM29.9259 38.6013C30.2151 38.7451 30.6487 38.6013 30.7933 38.3137C31.6607 37.0196 32.3835 35.7255 33.2509 34.4314C34.1183 33.1373 32.8172 32.7059 32.0944 34C31.3716 35.2941 30.5042 36.4444 29.6368 37.5948C29.4922 38.0261 29.6368 38.3137 29.9259 38.6013Z"
          fill="var(--current-color-1)"/>
    <path d="M165.961 13.2941L153.673 40.4706H158.877L160.901 35.8693H173.189L171.165 31.268H163.069L168.563 19.0458L174.056 31.268L176.225 35.8693L178.249 40.4706H183.453L171.165 13.2941H165.961ZM57.5376 18.0392H65.4887V40.4706H70.1147V18.0392H78.0657V13.2941H57.5376V18.0392ZM96.4253 24.5098H85.1493V13.2941H80.5233V40.4706H85.1493V29.2549H96.4253V40.4706H101.051V13.2941H96.4253V24.5098ZM138.349 26.5229L129.82 13.2941H124.76V40.4706H129.386V21.2026L138.349 35.0065L147.312 21.2026V40.4706H151.938V13.2941H146.878L138.349 26.5229ZM178.827 18.0392H186.922V40.4706H191.548V18.0392H199.499V13.2941H178.827V18.0392ZM201.812 40.4706H206.438V13.4379H201.812V40.4706ZM216.269 20.1961C217.136 19.3333 218.148 18.6144 219.305 18.183C220.461 17.7516 221.618 17.4641 222.919 17.4641C224.22 17.4641 225.376 17.7516 226.533 18.183C227.689 18.6144 228.701 19.3333 229.569 20.1961L232.894 16.8889C231.593 15.5948 230.002 14.5882 228.412 13.8693C224.943 12.4314 220.895 12.4314 217.425 13.8693C215.691 14.5882 214.245 15.5948 212.944 16.8889C211.643 18.183 210.631 19.7647 209.908 21.3464C209.185 23.0719 208.752 24.9412 208.752 26.8105C208.752 28.6797 209.041 30.549 209.908 32.2745C211.354 35.7255 214.1 38.3137 217.425 39.7516C220.895 41.1895 224.943 41.1895 228.412 39.7516C230.147 39.0327 231.593 38.0261 232.894 36.732L229.569 33.5686C228.701 34.4314 227.689 35.1503 226.533 35.5817C225.376 36.0131 224.075 36.3007 222.919 36.3007C220.461 36.3007 218.004 35.2941 216.269 33.5686C215.401 32.7059 214.679 31.6993 214.245 30.549C213.811 29.3987 213.522 28.1046 213.522 26.9542C213.522 25.6601 213.811 24.5098 214.245 23.3595C214.679 22.0654 215.401 21.0588 216.269 20.1961ZM250.241 26.8105C249.663 26.3791 249.085 26.0915 248.507 25.8039C247.928 25.5163 247.35 25.2288 246.916 25.085C246.483 24.9412 246.049 24.7974 245.615 24.6536C245.326 24.6536 245.182 24.5098 244.892 24.366L244.459 24.2222L243.013 23.7908C242.435 23.6471 242.001 23.5033 241.423 23.2157C240.845 22.9281 240.411 22.6405 239.977 22.2092C239.544 21.7778 239.254 21.0588 239.254 20.4837C239.254 19.3333 239.977 18.3268 240.989 17.7516C241.857 17.3203 242.869 17.0327 243.881 17.0327C245.037 17.0327 246.194 17.3203 247.35 17.7516C248.073 18.183 248.796 18.7582 249.519 19.3333L252.844 16.0261L251.976 15.451C251.687 15.1634 251.398 15.0196 250.964 14.732C249.952 14.1569 248.94 13.7255 247.928 13.4379C246.483 13.0065 244.892 12.719 243.302 12.719C242.29 12.719 241.278 12.8627 240.266 13.1503C239.254 13.4379 238.243 13.8693 237.375 14.5882C236.508 15.3072 235.785 16.1699 235.351 17.1765C234.773 18.3268 234.484 19.7647 234.484 21.0588C234.628 23.5033 235.93 25.6601 238.098 26.8105C239.11 27.3856 240.122 27.9608 241.134 28.3922C242.146 28.8235 242.869 28.9673 243.447 29.2549C243.591 29.2549 243.591 29.2549 243.736 29.2549C243.881 29.2549 243.881 29.3987 244.025 29.3987C244.17 29.3987 244.314 29.3987 244.314 29.5425L245.76 29.9739C246.194 30.1176 246.772 30.2614 247.206 30.549C247.784 30.8366 248.217 31.1242 248.651 31.5556C249.085 31.9869 249.374 32.7059 249.374 33.281C249.374 34.2876 248.94 35.2941 248.073 35.8693C247.639 36.1569 247.206 36.4444 246.627 36.5882C246.049 36.732 245.471 36.8758 244.748 36.8758C244.314 36.8758 243.736 36.8758 243.302 36.732C242.724 36.5882 242.001 36.4444 241.423 36.1569C240.411 35.7255 239.399 35.1503 238.532 34.4314L235.351 37.5948C236.652 38.6013 237.953 39.3203 239.544 39.8954C241.423 40.6144 243.302 40.902 245.326 40.902C246.627 40.902 247.784 40.7582 248.94 40.3268C249.952 40.0392 250.964 39.4641 251.687 38.7451C252.41 38.0261 253.133 37.1634 253.422 36.1569C253.855 35.0065 254 33.8562 254 32.7059C254 30.4052 252.699 28.5359 250.241 26.8105ZM118.544 24.5098H103.798V29.2549H118.544V24.5098ZM103.798 17.8954H122.158V13.2941H103.798V17.8954ZM103.798 35.7255V40.3268H122.158V35.7255H103.798Z"
          fill="var(--current-color-1)"/>
    <path d="M70.1147 53.1242V52.4052C69.5364 52.9804 68.6691 53.4118 67.8017 53.4118C66.5006 53.4118 65.4887 52.4052 65.4887 51.2549C65.4887 49.9608 66.5006 48.9543 67.6571 48.9543H67.8017C68.6691 48.9543 69.5364 49.2418 70.1147 49.817V48.5229C70.1147 47.6601 69.3919 47.085 68.3799 47.085C67.5125 47.085 66.7897 47.3726 66.2115 48.0915L65.7778 47.3726C66.5006 46.6536 67.5125 46.2222 68.5245 46.2222C69.9701 46.2222 71.1266 46.9412 71.1266 48.5229V53.268L70.1147 53.1242ZM70.1147 51.6863V50.3922C69.681 49.817 68.9582 49.5294 68.2354 49.5294C67.368 49.5294 66.7897 50.2484 66.7897 50.9673C66.7897 51.8301 67.5125 52.4052 68.2354 52.4052C68.9582 52.549 69.681 52.2614 70.1147 51.6863Z"
          fill="var(--current-color-1)"/>
    <path d="M72.7168 52.2614L73.2951 51.5425C73.8734 52.1176 74.7407 52.549 75.6081 52.549C76.6201 52.549 77.1983 51.9739 77.1983 51.3987C77.1983 49.817 73.006 50.8235 73.006 48.2353C73.006 47.2288 73.8734 46.2222 75.6081 46.2222C76.6201 46.2222 77.4875 46.5098 78.2103 47.2288L77.4875 47.9477C76.9092 47.3725 76.1864 47.085 75.4636 47.085C74.4516 47.085 74.0179 47.5163 74.0179 48.0915C74.0179 49.5294 78.2103 48.6667 78.2103 51.2549C78.2103 52.4052 77.3429 53.268 75.4636 53.268C74.4516 53.4118 73.4397 52.9804 72.7168 52.2614Z"
          fill="var(--current-color-1)"/>
    <path d="M79.3668 52.2614L79.945 51.5425C80.5233 52.1176 81.3907 52.549 82.2581 52.549C83.27 52.549 83.8483 51.9739 83.8483 51.3987C83.8483 49.817 79.6559 50.8235 79.6559 48.2353C79.6559 47.2288 80.5233 46.2222 82.2581 46.2222C83.27 46.2222 84.1374 46.5098 84.8602 47.2288L84.1374 47.9477C83.5591 47.3725 82.8363 47.085 82.1135 47.085C81.1016 47.085 80.6679 47.5163 80.6679 48.0915C80.6679 49.5294 84.8602 48.6667 84.8602 51.2549C84.8602 52.4052 83.9928 53.268 82.1135 53.268C81.1016 53.4118 80.0896 52.9804 79.3668 52.2614Z"
          fill="var(--current-color-1)"/>
    <path d="M86.1613 49.6732C86.0167 47.8039 87.6069 46.2222 89.4863 46.0784H89.6308C91.5102 46.0784 92.9558 47.5163 92.9558 49.3856C92.9558 49.5294 92.9558 49.6732 92.9558 49.6732V49.9608H87.4624C87.4624 51.2549 88.6189 52.4052 89.92 52.4052C90.7873 52.4052 91.5102 52.1176 92.0884 51.5425L92.6667 52.2614C91.9438 52.9804 90.9319 53.4118 89.92 53.268C88.0406 53.268 86.4504 51.8301 86.4504 49.9608C86.1613 49.9608 86.1613 49.817 86.1613 49.6732ZM89.4863 47.085C88.1852 47.085 87.1732 48.0915 87.1732 49.3856H91.6547C91.7993 48.0915 90.7873 47.085 89.4863 47.085C89.6308 46.9412 89.6308 46.9412 89.4863 47.085Z"
          fill="var(--current-color-1)"/>
    <path d="M94.8351 51.6863V47.2288H93.6786V46.366H94.8351V44.4967H95.8471V46.366H97.2927V47.2288H95.8471V51.5425C95.8471 52.1176 96.1362 52.4052 96.5699 52.4052C96.859 52.4052 97.1482 52.2614 97.2927 52.1176L97.5818 52.9804C97.2927 53.268 96.859 53.4118 96.2808 53.4118C95.4134 53.4118 94.8351 52.8366 94.6906 52.1176C94.6906 51.9739 94.6906 51.8301 94.8351 51.6863Z"
          fill="var(--current-color-1)"/>
    <path d="M110.737 53.1242V48.5229C110.737 47.6601 110.303 47.085 109.436 47.085C108.713 47.085 107.99 47.5163 107.557 48.0915V53.1242H106.545V48.5229C106.545 47.6601 106.256 47.085 105.244 47.085C104.521 47.085 103.798 47.5163 103.509 48.0915V53.1242H102.497V46.366H103.509V47.3726C104.087 46.6536 104.81 46.2222 105.677 46.2222C106.545 46.0784 107.268 46.6536 107.557 47.5163C108.135 46.7974 109.002 46.2222 109.87 46.2222C111.171 46.2222 111.749 46.9412 111.749 48.2353V53.1242H110.737Z"
          fill="var(--current-color-1)"/>
    <path d="M118.254 53.1242V52.4052C117.676 52.9804 116.809 53.4118 115.941 53.4118C114.64 53.4118 113.628 52.549 113.628 51.2549C113.628 51.2549 113.628 51.2549 113.628 51.1111C113.628 49.817 114.64 48.8105 115.797 48.8105H115.941C116.809 48.8105 117.676 49.098 118.254 49.6732V48.3791C118.254 47.5163 117.532 46.9412 116.52 46.9412C115.652 46.9412 114.93 47.2288 114.351 47.9477L113.918 47.2288C114.64 46.5098 115.652 46.0784 116.664 46.0784C118.11 46.0784 119.266 46.7974 119.266 48.3791V53.1242H118.254ZM118.254 51.6863V50.3922C117.821 49.817 117.098 49.5294 116.375 49.5294C115.508 49.5294 114.93 50.2484 114.93 50.9673C114.93 51.8301 115.652 52.4052 116.375 52.4052C117.098 52.549 117.821 52.2614 118.254 51.6863Z"
          fill="var(--current-color-1)"/>
    <path d="M126.061 53.1242V48.6667C126.061 47.3725 125.483 47.085 124.471 47.085C123.603 47.085 122.881 47.5163 122.447 48.0915V53.1242H121.435V46.2222H122.447V47.2288C123.025 46.5098 124.037 46.0784 124.904 46.0784C125.916 45.9346 126.928 46.6536 127.073 47.8039C127.073 47.9477 127.073 48.2353 127.073 48.3791V53.1242H126.061Z"
          fill="var(--current-color-1)"/>
    <path d="M133.578 53.1242V52.4052C133 52.9804 132.133 53.4118 131.265 53.4118C129.964 53.4118 128.952 52.549 128.808 51.2549V51.1111C128.808 49.817 129.82 48.8105 130.976 48.8105H131.121C131.988 48.8105 132.855 49.098 133.434 49.6732V48.3791C133.434 47.5163 132.711 46.9412 131.699 46.9412C130.832 46.9412 130.109 47.2288 129.53 47.9477L129.097 47.2288C129.82 46.5098 130.832 46.0784 131.843 46.0784C133.289 46.0784 134.446 46.7974 134.446 48.3791V53.1242H133.578ZM133.578 51.6863V50.3922C133.145 49.817 132.422 49.5294 131.699 49.5294C130.832 49.5294 130.253 50.2484 130.253 50.9673C130.253 51.8301 130.976 52.4052 131.699 52.4052C132.422 52.549 133.145 52.2614 133.578 51.6863Z"
          fill="var(--current-color-1)"/>
    <path d="M136.759 54.8497L137.337 54.1307C137.915 54.7059 138.783 55.1373 139.65 54.9935C140.662 55.1373 141.674 54.4183 141.818 53.268C141.818 53.1242 141.818 53.1242 141.818 52.9804V51.9739C141.24 52.6928 140.373 53.1242 139.505 53.268C137.771 53.268 136.325 51.8301 136.47 50.1046C136.47 49.9608 136.47 49.817 136.47 49.6732C136.18 47.9477 137.481 46.366 139.072 46.2222C139.216 46.2222 139.361 46.2222 139.505 46.2222C140.373 46.2222 141.24 46.6536 141.818 47.3726V46.366H142.83V53.1242C142.83 55.281 141.24 56 139.505 56C138.493 56 137.481 55.5686 136.759 54.8497ZM141.818 51.1111V48.0915C141.385 47.3726 140.662 47.085 139.795 46.9412C138.349 46.9412 137.626 48.0915 137.626 49.5294C137.626 50.9673 138.493 52.1176 139.795 52.1176C140.517 52.2614 141.385 51.8301 141.818 51.1111Z"
          fill="var(--current-color-1)"/>
    <path d="M144.565 49.6732C144.421 47.8039 146.011 46.2222 147.89 46.0784H148.035C149.914 46.0784 151.36 47.5163 151.36 49.3856C151.36 49.5294 151.36 49.6732 151.36 49.6732V49.9608H145.866C145.866 51.2549 147.023 52.4052 148.324 52.4052C149.191 52.4052 149.914 52.1176 150.492 51.5425L151.07 52.2614C150.348 52.9804 149.336 53.4118 148.324 53.268C146.444 53.268 144.854 51.8301 144.854 49.9608C144.565 49.9608 144.565 49.817 144.565 49.6732ZM148.035 47.085C146.734 47.085 145.722 48.0915 145.722 49.3856H150.203C150.348 48.0915 149.336 47.085 148.035 47.085C148.035 46.9412 148.035 46.9412 148.035 47.085Z"
          fill="var(--current-color-1)"/>
    <path d="M161.335 53.1242V48.5229C161.335 47.6601 161.045 47.085 160.033 47.085C159.311 47.085 158.588 47.5163 158.154 48.0915V53.1242H157.142V48.5229C157.142 47.6601 156.853 47.085 155.841 47.085C155.118 47.085 154.395 47.5163 154.106 48.0915V53.1242H153.094V46.366H154.106V47.3726C154.685 46.6536 155.407 46.2222 156.419 46.2222C157.287 46.2222 158.01 46.6536 158.299 47.5163C158.877 46.7974 159.6 46.2222 160.612 46.2222C161.913 46.2222 162.491 46.9412 162.491 48.2353V53.1242H161.335Z"
          fill="var(--current-color-1)"/>
    <path d="M164.081 49.6732C163.937 47.8039 165.527 46.2222 167.406 46.0784H167.551C169.43 46.0784 170.876 47.6601 170.876 49.3856C170.876 49.5294 170.876 49.5294 170.876 49.6732V49.9608H165.238C165.238 51.2549 166.394 52.4052 167.695 52.4052C168.563 52.4052 169.286 52.1176 169.864 51.5425L170.442 52.2614C169.719 52.9804 168.707 53.4118 167.695 53.268C165.816 53.268 164.226 51.8301 164.226 49.9608C164.081 49.9608 164.081 49.817 164.081 49.6732ZM167.551 47.085C166.25 47.085 165.238 48.0915 165.238 49.3856H169.719C169.719 48.0915 168.852 47.085 167.551 47.085C167.551 46.9412 167.551 46.9412 167.551 47.085Z"
          fill="var(--current-color-1)"/>
    <path d="M177.237 53.1242V48.6667C177.237 47.3725 176.658 47.085 175.646 47.085C174.779 47.085 174.056 47.5163 173.622 48.0915V53.1242H172.466V46.2222H173.478V47.2288C174.056 46.5098 174.924 46.0784 175.935 46.0784C176.947 45.9346 177.959 46.6536 178.104 47.8039C178.104 47.9477 178.104 48.0915 178.104 48.3791V53.1242H177.237Z"
          fill="var(--current-color-1)"/>
    <path d="M180.562 51.6863V47.2288H179.405V46.366H180.562V44.4967H181.573V46.366H183.019V47.2288H181.573V51.5425C181.573 52.1176 181.863 52.4052 182.296 52.4052C182.585 52.4052 182.875 52.2614 183.019 52.1176L183.308 52.9804C183.019 53.268 182.441 53.4118 182.007 53.4118C181.14 53.4118 180.562 52.8366 180.417 52.1176C180.562 51.9739 180.562 51.8301 180.562 51.6863Z"
          fill="var(--current-color-1)"/>
</svg>
