<svg id="picto" width="64" height="64" viewBox="0 0 64 64" fill="none" xmlns="http://www.w3.org/2000/svg">
    <path d="M29.1641 21.7951C29.1641 21.2301 28.6958 20.7731 28.1327 20.8187C17.4534 21.685 9.16406 30.5077 9.16406 41.2218V46.8408C9.16406 47.5658 9.71352 48.2909 10.6293 48.2909L20.167 48.2632C20.7181 48.2615 21.1641 47.8129 21.1641 47.2617V47.2617C21.1641 46.7094 20.7163 46.2603 20.1641 46.2603H12.1641C11.6118 46.2603 11.1641 45.8125 11.1641 45.2603V41.2603C11.1641 32.1477 18.9159 23.7017 28.2027 22.8236C28.7381 22.773 29.1641 22.3329 29.1641 21.7951V21.7951Z"
          fill="var(--current-color-1)"/>
    <path d="M36.1641 10.2603C36.1641 14.1262 33.0301 17.2603 29.1641 17.2603C25.2981 17.2603 22.1641 14.1262 22.1641 10.2603C22.1641 6.39426 25.2981 3.26025 29.1641 3.26025C33.0301 3.26025 36.1641 6.39426 36.1641 10.2603Z"
          stroke="var(--current-color-1)" stroke-width="2"/>
    <path d="M44.5117 31.7603C44.5117 35.6262 41.3777 38.7603 37.5117 38.7603C33.6457 38.7603 30.5117 35.6262 30.5117 31.7603C30.5117 27.8943 33.6457 24.7603 37.5117 24.7603C41.3777 24.7603 44.5117 27.8943 44.5117 31.7603Z"
          stroke="var(--current-color-2)" stroke-width="2"/>
    <path fill-rule="evenodd" clip-rule="evenodd"
          d="M21.1641 58.9018C21.1641 50.0328 28.5244 42.7603 37.7248 42.7603C46.9252 42.7603 54.6535 50.0328 54.8375 58.9018V60.3208C54.8375 61.2077 54.1015 61.7398 53.3655 61.7398H22.6361C21.7161 61.7398 21.1641 61.0303 21.1641 60.3208V58.9018ZM23.1641 59.7603H52.6641C52.6641 51.7603 45.2691 44.7603 37.7248 44.7603C30.1805 44.7603 23.1641 52.3103 23.1641 59.7603Z"
          fill="var(--current-color-2)"/>
</svg>
