<svg id="picto" width="64" height="64" viewBox="0 0 64 64" fill="none" xmlns="http://www.w3.org/2000/svg">
    <path fill-rule="evenodd" clip-rule="evenodd"
          d="M31 47.5C28.5647 46.06 20.8084 41.432 17.5137 34.664C17.5137 34.664 5 19 5 11H16.5V5H47.5V11H59C59 19 46.4863 34.664 46.4863 34.664C43.1916 41.432 35.4353 46.06 33 47.5V49C38.4435 49.576 44 52.68 44 57V59H20V57C20 52.68 25.5565 49.576 31 49V47.5ZM47.5 13V27V30C50.5083 25.824 55.4972 18.184 56.5 13H47.5ZM16.5 27V13H7.5C8.50275 18.184 13.4917 25.824 16.5 30V27ZM32 46C29.135 44.272 18.5 37.5 18.5 30.5V13V7H45.5V13V30.5C45.5 37.5 34.865 44.272 32 46ZM32 51C25.9284 51 22 55 22 57H42C42 55 38.0716 51 32 51Z"
          fill="var(--current-color-1)"/>
</svg>
