<svg id="picto" width="64" height="64" viewBox="0 0 64 64" fill="none" xmlns="http://www.w3.org/2000/svg">
    <path d="M32 61.9997C31.8521 61.9997 31.5562 61.9997 31.4083 61.8544L28.0059 59.9646C8.77515 49.0622 7 36.8515 7 35.5433V35.2525V3.27219C7 2.69073 7.44379 2.10927 8.18344 2.10927C8.33137 2.10927 8.47929 2.10927 8.47929 2.10927L17.2071 4.87121C18.3905 5.16194 19.574 5.45267 20.7574 5.45267C23.4201 5.45267 26.0828 4.72584 28.4497 3.56292L31.5562 2.10927C31.8521 1.9639 32.2959 1.9639 32.5917 2.10927L35.6982 3.56292C38.0651 4.72584 40.7278 5.45267 43.3905 5.45267C44.574 5.45267 45.7574 5.3073 46.9408 4.87121L55.6686 2.10927C56.2604 1.9639 56.8521 2.25463 57 2.83609C57 2.98146 57 3.12683 57 3.12683V35.5433C56.8521 36.8515 55.2248 48.9169 35.8462 59.9646L32.4438 61.8544C32.4438 61.8544 32.1479 61.9997 32 61.9997ZM29.1893 57.9295L32 59.5285L34.8107 57.9295C53.1538 47.4632 54.6331 36.4154 54.7811 35.2525V34.9618V4.72584L47.5325 6.90632C46.2012 7.34241 44.7219 7.48778 43.2426 7.48778C40.1361 7.48778 37.1775 6.61559 34.5148 5.3073L32 3.99901L29.4852 5.3073C26.8225 6.61559 23.716 7.34242 20.7574 7.48778C19.2781 7.48778 17.9467 7.34241 16.4675 6.90632L9.21893 4.58048V35.2525C9.36686 36.5608 10.8462 47.6086 29.1893 57.9295Z"
          fill="var(--current-color-1)"/>
    <path d="M31.271 54.1365C14.703 44.6877 13.5195 35.239 13.5195 34.8029V12.1259C13.5195 11.5445 13.9633 10.963 14.703 10.963C14.8509 10.963 14.9988 10.963 14.9988 10.963C22.2473 13.2889 29.3479 10.2362 31.4189 9.21864C31.7148 9.07328 32.1586 9.07328 32.4544 9.21864C32.7503 9.36401 33.0462 9.8001 33.0462 10.0908V52.9736C33.0462 53.555 32.6024 54.1365 31.8627 54.1365C31.7148 54.2818 31.4189 54.2818 31.271 54.1365ZM15.7385 13.5796V34.6575C15.8864 35.239 17.3657 43.0887 30.6793 51.2292V11.9806C26.0935 14.1611 20.7681 14.5972 15.7385 13.5796Z"
          fill="var(--current-color-2)"/>
</svg>
