<svg id="picto" width="64" height="64" viewBox="0 0 64 64" fill="none" xmlns="http://www.w3.org/2000/svg">
    <path fill-rule="evenodd" clip-rule="evenodd"
          d="M55.0016 8V45L41 58.9953L12 59C10.5 59 9 57.5 9 56V8C9 6.5 10.5 5 12 5H52C53.5 5 55 6.5 55.0016 8ZM52 7C52.5 7 53 7.5 53 8V44H42C41 44 40 45 40 46V57H12C11.5 57 11 56.5 11 56V8C11 7.5 11.5 7 12 7H52ZM42 47V55L51 46H43C42.3967 46 42 46.3967 42 47Z"
          fill="var(--current-color-1)"/>
    <path d="M45.6498 24.4553H17.7472C17.1439 24.4553 16.6914 24.0028 16.6914 23.3995C16.6914 22.7962 17.1439 22.3438 17.7472 22.3438H45.6498C46.2531 22.3438 46.7056 22.7962 46.7056 23.3995C46.7056 24.0028 46.2531 24.4553 45.6498 24.4553Z"
          fill="var(--current-color-2)"/>
    <path d="M45.6498 33.5022H17.7472C17.1439 33.5022 16.6914 33.0497 16.6914 32.4464C16.6914 31.8431 17.1439 31.3906 17.7472 31.3906H45.6498C46.2531 31.3906 46.7056 31.8431 46.7056 32.4464C46.7056 33.0497 46.2531 33.5022 45.6498 33.5022Z"
          fill="var(--current-color-2)"/>
    <path d="M36.3071 41.8021H18.0573C17.6048 41.8021 17.1523 41.3496 17.1523 40.8971C17.1523 40.4447 17.6048 39.9922 18.0573 39.9922H36.3071C36.7596 39.9922 37.212 40.4447 37.212 40.8971C37.212 41.5004 36.7596 41.8021 36.3071 41.8021Z"
          fill="var(--current-color-2)"/>
</svg>
