<svg width="38" height="65" viewBox="0 0 38 65" fill="none" xmlns="http://www.w3.org/2000/svg">
<path d="M33.5402 52.1879C33.823 50.2126 34.2867 48.3805 34.9436 47.6885L35.4348 46.5334L36.0887 31.8515L36.0902 31.7268L35.4348 5.53559C35.4228 2.7547 33.157 0.5 30.3792 0.5H30.3607C27.6027 0.510014 25.3611 2.73868 25.3236 5.48599L24.1479 19.1116C23.1149 16.9766 20.8932 15.6307 18.5224 15.9316C17.0413 16.1209 15.736 16.9135 14.8452 18.1617C14.5137 18.6268 14.2623 19.1366 14.0831 19.6713C12.8664 19.1515 11.4674 19.0419 10.1095 19.4645C7.09119 20.4043 5.39433 23.6083 6.29711 26.6295C5.61815 26.625 4.93916 26.7557 4.29428 27.0271C3.04152 27.5538 2.0697 28.5372 1.55736 29.795C1.04464 31.0528 1.05215 32.4353 1.59992 33.7346L1.6525 33.8507L0.859375 41.2637L0.893924 41.8525C2.68692 49.7446 3.64187 51.1656 4.70333 52.2026C4.88158 52.3764 4.91864 52.4129 5.05383 52.8405C5.15648 53.167 5.24109 53.513 5.3107 53.8605L2.33446 54.0372L2.30792 64.5H37.1116L37.1337 51.9733L33.5402 52.1879ZM27.1537 22.1435L27.5737 21.1366L28.9036 5.72413L28.9101 5.5634C28.9071 4.75426 29.5625 4.09381 30.3717 4.09035H30.3772C31.1823 4.09035 31.8402 4.74477 31.8442 5.58891L32.4986 31.7558L32.409 33.7657L25.4226 26.5896L25.1542 24.4987L27.1537 22.1435ZM17.7654 20.2479C18.0684 19.8228 18.4985 19.5554 18.9771 19.4933C19.0482 19.4838 19.1183 19.4798 19.1879 19.4798C20.1453 19.4798 20.9995 20.3105 21.1432 21.4301L21.383 23.2987C20.1518 22.9131 18.7969 22.9687 17.5752 23.516L17.3699 21.9137C17.2918 21.3074 17.4325 20.715 17.7654 20.2479ZM11.1736 22.8946C12.3057 22.5421 13.5144 23.1629 13.8914 24.283L14.5689 27.1009C14.5403 27.2151 14.5093 27.3283 14.4878 27.4454C14.2294 28.8399 14.5188 30.2494 15.3044 31.4206L15.8126 32.2753L16.6373 35.7052L16.6773 35.8459C16.9302 36.6144 16.5106 37.4456 15.7425 37.6995C14.9759 37.9524 14.1447 37.5327 13.8904 36.7642L9.72558 25.5893C9.39562 24.4492 10.038 23.2474 11.1736 22.8946ZM4.87824 31.1527C5.02895 30.7822 5.31536 30.4933 5.68337 30.3381C5.87013 30.26 6.06691 30.2204 6.26318 30.2204C6.45495 30.2204 6.64573 30.258 6.82797 30.3316C7.18247 30.4768 7.46237 30.7452 7.62259 31.0912L9.9469 37.8848L10.003 38.0285C10.2568 38.6058 9.99597 39.2817 9.42015 39.5361C8.84384 39.7895 8.16739 39.5281 7.91249 38.9518L4.88421 32.2979C4.73 31.9294 4.72752 31.5228 4.87824 31.1527ZM8.47384 51.763C8.09831 50.5728 7.67872 50.0961 7.20855 49.637C6.85104 49.2875 6.1115 48.5659 4.45715 41.3498L4.57181 40.2753L4.6344 40.413C5.41751 42.1739 7.15098 43.2225 8.96551 43.2225C9.13075 43.2225 9.29547 43.2129 9.46171 43.1954V43.2039C9.46171 43.2039 9.49976 43.1944 9.55985 43.1794C9.85075 43.1418 10.1412 43.0802 10.4276 42.9871C11.454 42.7763 13.1273 42.4859 14.5909 42.4859C15.5878 42.4859 16.7624 42.6411 17.7368 42.8069C17.1275 45.0445 17.1886 47.5296 17.846 49.5498L21.2593 48.4387C20.4517 45.9578 21.0595 42.1198 23.0539 40.8895L23.6547 38.4456L18.3602 29.5391L18.2956 29.4384C18.0262 29.0479 17.9266 28.5722 18.0142 28.0991C18.1018 27.6259 18.3652 27.2178 18.7563 26.949L18.7608 26.9445C19.5734 26.3887 20.6874 26.5955 21.2477 27.4101L32.1757 38.672L32.1902 38.6584L31.8727 45.793C30.7161 47.4504 30.1538 50.1157 29.878 52.4048L8.91526 53.6481C8.80911 53.0247 8.66691 52.3768 8.47314 51.7629L8.47384 51.763Z" fill="#001329"/>
</svg>
