<svg width="38" height="65" viewBox="0 0 38 65" fill="none" xmlns="http://www.w3.org/2000/svg">
<path d="M32.7111 2.12552C31.3766 1.97351 30.0566 2.35352 28.9995 3.19555C27.958 4.02509 27.2969 5.20113 27.1319 6.51368L25.9994 12.9739L25.9154 5.43217C25.8504 2.65102 23.5544 0.444486 20.7538 0.501064C17.9917 0.563566 15.7906 2.84559 15.8191 5.60127L15.5676 11.8945L15.095 7.89382C14.7575 5.13175 12.2354 3.15562 9.47539 3.49163C8.13979 3.65363 6.94577 4.32816 6.11234 5.39172C5.29781 6.43176 4.9258 7.71731 5.06081 9.0218L5.53582 25.1593C5.0393 25.5423 4.61128 26.0153 4.27828 26.5684C3.90977 27.1819 3.68326 27.8529 3.59825 28.5495L0.804688 42.4188L0.814188 43.1693C2.60471 51.0505 3.55835 52.4696 4.61937 53.5051C4.75438 53.6371 4.80788 53.6906 4.88538 53.8941L2.2298 54.0517L2.2053 64.5H36.961L36.984 51.9905L35.637 52.07C35.8026 50.2265 35.9425 48.4104 35.9605 47.3549C35.966 47.0314 35.959 46.6128 35.9455 46.1448L36.005 46.1083L35.942 46.0063C35.8565 43.3153 35.529 38.9671 35.5155 38.8016L35.1485 29.6028L37.1616 7.70897C37.4712 4.94382 35.4761 2.43929 32.712 2.12529L32.7111 2.12552ZM8.93306 7.60269C9.17606 7.29218 9.52158 7.09568 9.90659 7.05017C10.7056 6.94967 11.4392 7.5262 11.5361 8.32122L13.4722 24.7314L13.7312 24.9449C13.2251 25.1069 12.7376 25.3464 12.2841 25.6659C11.4445 24.7959 10.3105 24.2439 9.09152 24.1314L8.6415 8.84511L8.6295 8.68261C8.582 8.2961 8.69001 7.91359 8.93301 7.60308L8.93306 7.60269ZM8.27103 27.7339C8.39203 27.7039 8.51354 27.6894 8.63254 27.6894C9.28607 27.6894 9.88408 28.1224 10.0696 28.774L10.1111 29.009C10.0891 29.1215 10.0646 29.2325 10.0496 29.3475C9.88414 30.591 10.1501 31.8236 10.7987 32.8721L11.3257 35.8342L11.3592 35.9842C11.5197 36.5823 11.1497 37.2223 10.5527 37.3828C9.94115 37.5433 9.31763 37.1833 9.15409 36.5758L7.18308 29.546C6.98357 28.746 7.4715 27.9339 8.27103 27.7339ZM8.55804 53.6778C8.50504 53.4713 8.44904 53.2663 8.38553 53.0658C8.01052 51.8773 7.59201 51.4013 7.12249 50.9427C6.76648 50.5952 6.03196 49.8782 4.39446 42.75L5.552 37.0037L5.69601 37.5192C6.26652 39.6203 8.17712 41.0079 10.2587 41.0079C10.3922 41.0079 10.5277 40.9929 10.6622 40.9814L10.6602 41.0024C10.6602 41.0024 13.5463 40.6043 15.831 40.8613C15.8645 40.8648 15.902 40.8733 15.9365 40.8778C14.3225 43.1329 14.0019 45.394 14.6584 49.0452L18.1861 48.4106C17.5716 44.9905 18.0191 43.772 19.5876 42.0555L19.7561 39.8539L14.0224 31.2407L13.9529 31.1432C13.6649 30.7676 13.5409 30.2981 13.6044 29.8222C13.6674 29.3461 13.9099 28.9256 14.2854 28.6381L14.2904 28.6331C15.0729 28.0366 16.195 28.1886 16.7944 28.9716L17.0725 29.2611L25.8332 36.5319L32.3779 47.0642C32.3779 47.1432 32.3784 47.2277 32.3774 47.2972C32.3594 48.3598 32.1994 50.3373 32.0189 52.2884L8.55804 53.6778ZM28.7213 34.3914L28.3433 33.9584L19.4975 26.6181C19.03 26.0566 18.469 25.6151 17.8555 25.2956L18.6505 24.4711L19.401 5.69412L19.4015 5.58212C19.3835 4.77409 20.0261 4.10213 20.8331 4.08408C21.6432 4.05758 22.3122 4.7086 22.3296 5.49316L22.5377 24.169L24.4502 25.9366L25.9962 25.8321L27.6408 24.354L30.6689 7.08368L30.6839 6.97618C30.7274 6.59067 30.9219 6.24365 31.2294 5.99865C31.5374 5.75364 31.9189 5.64014 32.3044 5.68564C33.1064 5.77664 33.6849 6.50416 33.591 7.34266L31.5639 29.3914L31.5584 29.6274L31.9339 39.0087C31.9344 39.0207 31.9524 39.2537 31.9799 39.6367L28.7213 34.3914Z" fill="#001329"/>
</svg>
