<svg id="picto" width="64" height="64" viewBox="0 0 64 64" fill="none" xmlns="http://www.w3.org/2000/svg">
    <path d="M41 37H46C46.5523 37 47 36.5523 47 36C47 35.4477 46.5523 35 46 35L41 35C41 29.9477 45.2544 28.7951 48.3895 30.3483C49.0469 30.6741 50 30.2454 50 29.5117C50 29.1841 49.8749 28.8639 49.6181 28.6604C46.3748 26.0909 39 27.319 39 35H37C36.4477 35 36 35.4477 36 36C36 36.5523 36.4477 37 37 37L39 37V39L37 39C36.4477 39 36 39.4477 36 40C36 40.5523 36.4477 41 37 41H39C39 48.681 46.3748 49.9091 49.6181 47.3396C49.8749 47.1361 50 46.8159 50 46.4883C50 45.7546 49.0469 45.326 48.3895 45.6517C45.2544 47.2049 41 46.0523 41 41L46 41C46.5523 41 47 40.5523 47 40C47 39.4477 46.5523 39 46 39H41V37Z"
          fill="var(--current-color-2)"/>
    <path d="M62.5 38.5C62.5 48.4411 54.4411 56.5 44.5 56.5C34.5589 56.5 26.5 48.4411 26.5 38.5C26.5 28.5589 34.5589 20.5 44.5 20.5C54.4411 20.5 62.5 28.5589 62.5 38.5Z"
          stroke="var(--current-color-2)" stroke-width="2"/>
    <path fill-rule="evenodd" clip-rule="evenodd"
          d="M25.7094 41.3303C23.7859 42.0854 21.6914 42.5 19.5 42.5C10.1112 42.5 2.5 34.8888 2.5 25.5C2.5 16.1112 10.1112 8.5 19.5 8.5C27.5077 8.5 34.2222 14.0366 36.0244 21.4905C36.6268 21.1897 37.2474 20.9201 37.8842 20.6835C35.7519 12.5224 28.3293 6.5 19.5 6.5C9.00659 6.5 0.5 15.0066 0.5 25.5C0.5 35.9934 9.00659 44.5 19.5 44.5C21.8266 44.5 24.0556 44.0818 26.1158 43.3165C25.9462 42.6673 25.8101 42.0046 25.7094 41.3303Z"
          fill="var(--current-color-1)"/>
    <path d="M16 24H21C21.5523 24 22 23.5523 22 23C22 22.4477 21.5523 22 21 22L16 22C16 16.9477 20.2544 15.7951 23.3895 17.3483C24.0469 17.6741 25 17.2454 25 16.5117C25 16.1841 24.8749 15.8639 24.6181 15.6604C21.3748 13.0909 14 14.319 14 22H12C11.4477 22 11 22.4477 11 23C11 23.5523 11.4477 24 12 24L14 24V26L12 26C11.4477 26 11 26.4477 11 27C11 27.5523 11.4477 28 12 28H14C14 35.681 21.3748 36.9091 24.6181 34.3396C24.8749 34.1361 25 33.8159 25 33.4883C25 32.7546 24.0469 32.326 23.3895 32.6517C20.2544 34.2049 16 33.0523 16 28L21 28C21.5523 28 22 27.5523 22 27C22 26.4477 21.5523 26 21 26H16V24Z"
          fill="var(--current-color-1)"/>
</svg>
