<svg id="picto" width="64" height="64" viewBox="0 0 64 64" fill="none" xmlns="http://www.w3.org/2000/svg">
    <path d="M48.7895 1H15.2105C12.3158 1 10 3.31236 10 6.2028V57.7972C10 60.6877 12.3158 63 15.2105 63H48.7895C51.6842 63 54 60.6877 54 57.7972V6.05828C54 3.31235 51.6842 1 48.7895 1ZM52 57.7972C52 59.5 50.5 61 48.7895 61H15.2105C13.5 61 12 59.5 12 57.7972V6C12 4.5 13.5 3 15.2105 3H48.6986C50.5 3 52 4.5 52 6.05828V57.7972Z"
          fill="var(--current-color-1)"/>
    <path d="M18 46V9C18 8.44772 18.4477 8 19 8H45C45.5523 8 46 8.44772 46 9V46C46 46.5523 45.5523 47 45 47H19C18.4477 47 18 46.5523 18 46Z"
          stroke="var(--current-color-2)" stroke-width="2"/>
    <circle cx="32" cy="55" r="3.125" stroke="var(--current-color-2)" stroke-width="1.75"/>
</svg>
