<svg id="picto" width="64" height="64" viewBox="0 0 64 64" fill="none" xmlns="http://www.w3.org/2000/svg">
    <path d="M59.5301 16.1878C59.4129 16.0706 59.2957 15.9534 59.1786 15.8363C58.2412 15.3676 57.421 14.8989 56.4837 14.4303C54.3747 13.3758 52.2656 12.3212 50.1566 11.1496C47.5789 9.86075 45.0012 8.57191 42.4235 7.16591C40.1973 5.99424 37.9711 4.93974 35.8621 3.76807C34.8076 3.18223 33.753 2.5964 32.6985 2.12773C32.2298 1.8934 31.644 2.01057 31.2925 2.2449L29.6521 3.2994L23.6766 6.34574L15.9435 10.3294C13.6001 11.5011 11.2567 12.6727 9.03052 13.8444L5.28114 15.8363L5.16397 15.9534C5.0468 16.0706 4.92963 16.1878 4.81246 16.3049C4.69529 16.5393 4.57812 16.7736 4.57812 17.0079V27.7873C4.57812 28.4903 5.0468 29.0761 5.63264 29.0761C6.21848 28.9589 6.68715 28.4903 6.68715 27.7873V18.4139C7.50733 18.7654 8.32751 19.2341 9.03052 19.5856L15.2404 22.7491C15.4748 22.8663 15.8263 22.9834 16.0606 23.2178V31.4194C16.0606 32.0053 16.5293 32.474 17.1151 32.474H43.478C44.6497 32.474 45.9385 32.474 47.1102 32.474C47.6961 32.474 48.1647 32.0053 48.1647 31.4194V23.3349C49.3364 22.7491 50.5081 22.1633 51.5626 21.5774L57.7725 18.4139C58.2412 18.1796 58.7099 17.9453 59.1786 17.7109C59.6472 17.3594 59.8816 16.6564 59.5301 16.1878ZM46.0557 30.3649H20.7474C19.81 30.3649 18.9898 30.3649 18.0525 30.3649V22.8663C18.0525 22.7491 18.1697 22.7491 18.1697 22.6319V18.1796C20.1615 17.1251 22.2705 16.3049 24.4967 15.7191C29.6521 14.3131 35.1591 14.4303 40.4316 15.8363C42.4235 16.4221 44.2982 17.2423 46.1729 18.1796V30.3649H46.0557ZM54.2575 17.8281L48.1647 20.9916V17.5938C48.1647 17.4766 48.1647 17.3594 48.0476 17.2423C47.9304 17.0079 47.8132 16.8908 47.6961 16.7736C43.9467 14.6646 39.8458 13.3758 35.6277 12.9071C31.5268 12.4384 27.3088 12.7899 23.3251 13.9616C20.9817 14.6646 18.7555 15.6019 16.6465 16.7736C16.295 17.0079 16.1778 17.3594 16.1778 17.7109V21.1088C15.3576 20.7573 14.6546 20.2886 13.8344 19.9371L7.97601 16.8908C8.32751 16.7736 8.56185 16.5393 8.91335 16.4221C11.0224 15.3676 13.1314 14.3131 15.2404 13.1414C17.8181 11.8526 20.3958 10.5637 22.8564 9.27491L29.535 5.87707C30.4723 5.4084 31.4097 4.93974 32.347 4.47107C33.05 4.82257 33.753 5.17407 34.456 5.52557C36.5651 6.58007 38.6741 7.75174 40.7831 8.80624C43.3608 10.0951 45.9385 11.3839 48.3991 12.6727L55.0777 16.0706C55.5463 16.3049 56.1322 16.6564 56.6009 16.8908C55.6635 17.1251 54.9605 17.4766 54.2575 17.8281Z"
          fill="var(--current-color-2)" stroke="var(--current-color-2)" stroke-width="0.223887" stroke-miterlimit="10"/>
    <path d="M57.5381 47.8227H54.6089C54.6089 47.7056 54.6089 47.4712 54.6089 47.3541V40.5584C54.6089 39.2696 53.5543 38.0979 52.1483 38.0979H11.9596C10.6707 38.0979 9.49906 39.1524 9.49906 40.5584V47.3541C9.49906 47.4712 9.49906 47.7056 9.49906 47.8227H6.56985C5.04666 47.8227 3.75781 49.1116 3.75781 50.6348V59.1879C3.75781 60.7111 5.04666 61.9999 6.56985 61.9999H57.4209C58.9441 61.9999 60.2329 60.7111 60.2329 59.1879V50.6348C60.3501 49.1116 59.0613 47.8227 57.5381 47.8227ZM48.3989 40.0897H52.2655C52.617 40.0897 52.8513 40.3241 52.8513 40.6756V47.4712C52.8513 47.7056 52.7342 47.9399 52.4998 47.9399H48.3989V40.0897ZM17.7008 40.0897H46.5242V47.8227H17.7008V40.0897ZM11.3738 40.5584C11.3738 40.3241 11.6081 39.9726 11.9596 39.9726H15.8261V47.8227H11.8424C11.6081 47.7056 11.4909 47.5884 11.4909 47.3541V40.5584H11.3738ZM11.7253 60.1253H6.68702C6.21835 60.1253 5.74967 59.6566 5.74967 59.1879V50.6348C5.74967 50.0489 6.21835 49.6974 6.68702 49.6974H11.4909C11.6081 49.6974 11.6081 49.6974 11.7253 49.6974V60.1253V60.1253ZM50.508 60.1253H13.6V49.6974H50.508V60.1253ZM58.4754 59.1879C58.4754 59.6566 58.0067 60.1253 57.5381 60.1253H52.4998V49.6974C52.617 49.6974 52.617 49.6974 52.7342 49.6974H57.5381C58.1239 49.6974 58.4754 50.0489 58.4754 50.6348V59.1879V59.1879Z"
          fill="var(--current-color-1)"/>
</svg>
