<svg id="picto" width="64" height="64" viewBox="0 0 64 64" fill="none" xmlns="http://www.w3.org/2000/svg">
    <path d="M60.0449 13.5244H4.21623C1.89003 13.5244 0 15.4144 0 17.7406V52.9244C0 55.2505 1.89003 57.1406 4.21623 57.1406H59.8995C61.0626 57.1406 62.0803 56.7044 62.8073 55.9775C63.5342 55.2505 63.9704 54.2328 63.9704 52.9244V17.7406C64.2611 15.4144 62.3711 13.5244 60.0449 13.5244ZM62.0803 31.9886C62.0803 33.1517 61.208 34.024 60.0449 34.024H38.8184C38.2368 34.024 37.8007 34.4602 37.8007 35.0417C37.8007 35.6233 38.2368 36.0594 38.8184 36.0594H60.0449C60.7719 36.0594 61.4988 35.7687 62.0803 35.4779V52.9244C62.0803 54.0874 61.208 55.1052 60.0449 55.1052H4.21623C3.05313 55.1052 2.18081 54.2328 2.18081 52.9244V35.4779C2.76236 35.7687 3.48929 36.0594 4.21623 36.0594H25.152C25.7335 36.0594 26.1697 35.6233 26.1697 35.0417C26.1697 34.4602 25.7335 34.024 25.152 34.024H4.21623C3.05313 34.024 2.18081 33.1517 2.18081 31.9886V17.7406C2.18081 16.5775 3.05313 15.5598 4.21623 15.5598H21.8081H42.3077H59.8995C61.0626 15.5598 61.935 16.4322 61.935 17.5953L62.0803 31.9886Z"
          fill="var(--current-color-1)"/>
    <path d="M39.4001 34.0247C38.9639 32.5708 37.51 31.4077 35.9108 31.4077H28.496C26.8967 31.4077 25.4429 32.5708 25.0067 34.0247C24.8613 34.3155 24.8613 34.7516 24.8613 35.0424C24.8613 35.4786 24.8613 35.7693 25.0067 36.0601C25.4429 37.514 26.8967 38.6771 28.496 38.6771H35.7654C37.3646 38.6771 38.8185 37.514 39.2547 36.0601C39.4001 35.7693 39.4001 35.3332 39.4001 35.0424C39.5454 34.7516 39.4001 34.3155 39.4001 34.0247ZM35.7654 36.6417H28.3506C27.4783 36.6417 26.7514 35.9147 26.8968 35.0424C26.8968 34.1701 27.6237 33.4431 28.496 33.4431H35.7654C36.6377 33.4431 37.2192 34.1701 37.2192 35.0424C37.3646 35.9147 36.6377 36.6417 35.7654 36.6417Z"
          fill="var(--current-color-2)"/>
    <path d="M44.4904 11.7801V16.7232C44.4904 17.3048 44.0542 17.7409 43.4726 17.7409C42.8911 17.7409 42.4549 17.3048 42.4549 16.7232V11.7801C42.4549 10.9077 41.728 10.0354 40.8557 10.0354H23.5546C22.6823 10.0354 21.9553 10.7624 21.9553 11.7801V16.7232C21.9553 17.3048 21.5192 17.7409 20.9376 17.7409C20.3561 17.7409 19.9199 17.3048 19.9199 16.7232V11.7801C19.9199 9.74464 21.6646 8 23.7 8H40.8557C42.7457 8 44.4904 9.59926 44.4904 11.7801Z"
          fill="var(--current-color-2)"/>
</svg>
