<svg id="picto" width="64" height="64" viewBox="0 0 64 64" fill="none" xmlns="http://www.w3.org/2000/svg">
    <path d="M26.2016 58.292C22.4864 58.292 19.2124 57.4452 16.3796 55.7514C13.57 54.0577 11.3641 51.4942 9.76198 48.061C8.18303 44.6277 7.39355 40.3018 7.39355 35.0833C7.39355 29.8419 8.18303 25.5045 9.76198 22.0713C11.3641 18.638 13.57 16.086 16.3796 14.4151C19.2124 12.7214 22.4864 11.8745 26.2016 11.8745C29.8703 11.8745 33.1095 12.7214 35.9191 14.4151C38.7519 16.086 40.9578 18.638 42.5367 22.0713C44.1389 25.5045 44.94 29.8419 44.94 35.0833C44.94 40.3018 44.1389 44.6277 42.5367 48.061C40.9578 51.4942 38.7519 54.0577 35.9191 55.7514C33.1095 57.4452 29.8703 58.292 26.2016 58.292ZM26.2016 50.8762C29.4524 50.8762 31.9717 49.5258 33.7597 46.825C35.5476 44.1013 36.4415 40.1874 36.4415 35.0833C36.4415 29.9792 35.5476 26.0653 33.7597 23.3416C31.9717 20.595 29.4524 19.2217 26.2016 19.2217C22.9276 19.2217 20.385 20.595 18.5739 23.3416C16.786 26.0653 15.892 29.9792 15.892 35.0833C15.892 40.1874 16.786 44.1013 18.5739 46.825C20.385 49.5258 22.9276 50.8762 26.2016 50.8762Z"
          fill="var(--current-color-1)"/>
    <path d="M54.0384 6C54.6814 6 55.2767 6.06564 55.8242 6.19692C56.3718 6.3282 56.897 6.51887 57.4 6.76892L56.4641 8.94441C56.0248 8.75061 55.6141 8.60058 55.2321 8.49431C54.8501 8.38178 54.4522 8.32552 54.0384 8.32552C53.65 8.32552 53.2935 8.38178 52.9688 8.49431C52.6504 8.60683 52.3671 8.77249 52.1188 8.99129C51.8705 9.21009 51.6636 9.4789 51.4981 9.79772C51.3325 10.1165 51.2148 10.4854 51.1447 10.9042H54.9934V12.5546H51.0015C51.0015 12.5983 50.9983 12.664 50.9919 12.7515C50.9856 12.839 50.9824 12.939 50.9824 13.0516C50.9824 13.1516 50.9824 13.2485 50.9824 13.3423C50.9887 13.4298 50.9951 13.5267 51.0015 13.633H54.3917V15.3021H51.1638C51.2721 15.7959 51.4567 16.2148 51.7177 16.5586C51.9851 16.8962 52.3289 17.1525 52.7491 17.3275C53.1693 17.4963 53.6627 17.5807 54.2294 17.5807C54.7324 17.5807 55.2003 17.5338 55.6332 17.4401C56.0662 17.34 56.4736 17.2088 56.8556 17.0462V19.4468C56.4927 19.628 56.0853 19.7656 55.6332 19.8593C55.1812 19.9531 54.656 20 54.0575 20C53.0388 20 52.1284 19.8187 51.3262 19.4561C50.5303 19.0873 49.8746 18.5528 49.3589 17.8526C48.8432 17.1525 48.493 16.3023 48.3084 15.3021H47V13.633H48.1269C48.1205 13.5642 48.111 13.4767 48.0983 13.3704C48.0919 13.2579 48.0887 13.1516 48.0887 13.0516C48.0887 12.9578 48.0887 12.8672 48.0887 12.7796C48.0951 12.6859 48.1014 12.6109 48.1078 12.5546H47V10.9042H48.2702C48.4357 9.87899 48.7795 9.00067 49.3016 8.26926C49.8236 7.53784 50.489 6.97834 51.2975 6.59076C52.1061 6.19692 53.0197 6 54.0384 6Z"
          fill="var(--current-color-2)"/>
</svg>
